<?xml version="1.0" encoding="UTF-8"?>
<svg width="20.524255px" height="28px" viewBox="0 0 20.524255 28" version="1.1" xmlns="http://www.w3.org/2000/svg" xmlns:xlink="http://www.w3.org/1999/xlink">
    <title>Combined Shape</title>
    <g id="Symbols" stroke="none" stroke-width="1" fill="none" fill-rule="evenodd">
        <path d="M13.5363431,8.52903279 C16.6568773,11.0622067 20.4779278,17.1720378 20.5240067,22.2920471 C20.5514207,25.2545131 18.3052194,27.9218408 15.7166341,28 L4.74518563,28 C1.50332967,28 0.0130558332,25.0456998 0.000111339197,22.3002129 C-0.023690645,17.187203 3.77344543,11.069206 6.90564524,8.52961607 C7.72048381,8.76467687 8.99669483,9.04698315 10.435057,9.04698315 C10.9763384,9.04698315 11.5386179,9.00382062 12.1078966,8.90641329 C11.9889081,9.45702718 11.6616894,10.6894924 10.929093,11.622153 C10.7301954,11.8747121 10.7745244,12.2415936 11.0282501,12.4404912 C11.280226,12.6405554 11.6471075,12.595643 11.8460051,12.3419174 C12.2828799,11.786054 12.5972664,11.1549478 12.8212449,10.5798362 C13.248204,11.4961651 13.9160567,12.631223 14.9047119,13.6175451 C15.0172845,13.7307009 15.1671868,13.7878621 15.3165058,13.7878621 C15.4658248,13.7878621 15.6157271,13.7307009 15.7294662,13.6163785 C15.9575277,13.3883171 15.9575277,13.0196857 15.7282997,12.7916243 C14.076458,11.1421157 13.4144381,8.95365876 13.317614,8.60952508 C13.3905237,8.5856107 13.4634334,8.55586355 13.5363431,8.52903279 Z M11.8334166,15.8417969 L10.1976744,15.8417969 L8.68888533,18.5078125 L6.89689314,18.5078125 L6.67228377,19.5673828 L8.09318221,19.5673828 L7.66837752,20.3144531 L6.51603377,20.3144531 L6.29142439,21.3740234 L7.06779158,21.3740234 L6.14982283,23 L7.66349471,23 L8.54728377,21.3740234 L11.3500181,21.3740234 L11.5990416,23 L12.995526,23 L12.7318541,21.3740234 L13.4740416,21.3740234 L13.698651,20.3144531 L12.5609556,20.3144531 L12.4388853,19.5673828 L13.854901,19.5673828 L14.0795103,18.5078125 L12.2679869,18.5078125 L11.8334166,15.8417969 Z M11.0814635,19.5673828 L11.1888853,20.3144531 L9.07462752,20.3144531 L9.48966658,19.5673828 L11.0814635,19.5673828 Z M10.7640806,17.3457031 L10.9300963,18.5078125 L10.0707213,18.5078125 L10.7640806,17.3457031 Z M9.06143862,0.00326657738 C9.76953743,0.0551782688 10.1358357,0.727697147 10.4904683,1.37863476 C10.7681084,1.85633898 11.0130849,2.28796428 11.3607183,2.63034813 C11.4534594,2.55160567 11.6033617,2.36962312 11.7083516,2.24130208 C12.28113,1.54370227 13.3479445,0.243576879 15.5941459,1.1424074 C15.8163746,1.23048229 15.9610274,1.44571166 15.9610274,1.68427213 C15.9610274,3.28478541 14.8067213,5.66689043 13.5643404,7.25865454 C10.7920228,8.48645354 7.54025108,7.52987855 6.65891888,7.22599101 C5.20889119,5.70247036 3.81660796,3.51984621 3.83935578,2.31654487 C3.86501999,1.77468014 3.95542799,1.20831775 4.43488204,0.988422159 C4.94291668,0.755694464 5.4101219,1.11965958 5.82074922,1.43929561 C6.09022339,1.64927549 6.49793431,1.96191219 6.70324797,1.92166605 C6.82281984,1.89425201 6.98030475,1.70818651 7.44576014,1.03333452 C7.91179881,0.357899256 8.47874447,-0.04047923 9.06143862,0.00326657738 Z" id="Combined-Shape" fill="#931EA1" fill-rule="nonzero"></path>
    </g>
</svg>