<?xml version="1.0" encoding="UTF-8"?>
<svg width="32.0023751px" height="21px" viewBox="0 0 32.0023751 21" version="1.1" xmlns="http://www.w3.org/2000/svg" xmlns:xlink="http://www.w3.org/1999/xlink">
    <title>Combined Shape</title>
    <g id="Symbols" stroke="none" stroke-width="1" fill="none" fill-rule="evenodd">
        <path d="M32.0023751,14.3435669 L32.0018748,20.2982449 C30.9416603,20.6827011 29.8030137,20.8977565 28.619162,20.9098424 L19.7949881,20.9999961 C19.7359074,21.0006303 19.7122328,20.9234765 19.76196,20.8915052 C21.5380296,19.7486251 23.3535745,17.7006676 24.2511478,15.8582246 C24.3354886,15.6849985 24.5087675,15.5733369 24.7013878,15.5706418 L28.8632533,15.5125122 C30.0569732,15.5003246 31.1513472,15.0616868 32.0023751,14.3435669 Z M22.4443752,7.99276583 C22.6597189,8.01554205 22.8726844,8.20874359 22.9144849,8.42123358 C23.4002895,10.8913702 22.8770706,13.5910658 21.6508538,15.610487 C20.2515166,17.8531256 18.2069941,19.546757 15.6860733,20.2852138 L15.6744095,20.28 L15.5217473,20.3357414 C14.3544306,20.7089235 11.2494257,20.7653759 8.46398506,20.7700536 L7.6787904,20.7702101 C7.16372425,20.7696804 6.66805186,20.7681878 6.20737243,20.7675632 L5.54454792,20.7675064 C4.80642126,20.7687336 4.19934682,20.7754232 3.80692654,20.7973882 C2.4677165,20.8110586 1.18313677,20.5664656 0.00080272146,20.1102595 L-4.98970063e-14,14.0464453 C0.902181194,14.8997577 2.12148852,15.4196835 3.45365731,15.4060823 C4.97411539,15.389806 8.76717528,15.35329 10.2616336,15.336591 C12.2316974,15.3068921 14.5618475,15.4188179 15.9284736,14.3671484 L16.1384592,14.2142198 C17.0862584,13.4781557 17.6100422,12.4674777 17.7807458,11.8031589 C18.0737717,10.8304399 18.0439671,9.84667624 17.8085952,8.95972475 C17.7458152,8.72319026 17.8757612,8.47952168 18.1072226,8.39993702 C19.5813356,7.89288867 21.0903791,7.84945003 22.4443752,7.99276583 Z M28.4088386,0.202294209 C29.6696188,0.18942686 30.8801632,0.403162584 32.0019323,0.805355812 L32.0015297,6.7294282 C31.1377176,6.00971016 30.0239562,5.58075484 28.8123635,5.59312449 L21.9673957,5.66303851 C20.1183471,5.71514374 17.9088422,5.55708416 16.5785735,6.43214551 L16.3564888,6.57808256 C15.4197294,7.23298005 14.7857747,8.13584761 14.4418892,9.1735887 C14.1568958,10.083105 14.1453227,11.2027333 14.4004587,12.0611485 C14.4674134,12.286427 14.337943,12.5242297 14.1093353,12.5786602 C12.6150883,12.9344131 11.2376818,13.0116197 9.71833351,12.9940223 C9.51408736,12.9916443 9.338219,12.847483 9.29784537,12.6473059 C8.07141721,6.57318898 12.8476066,0.406223297 19.3313256,0.295829966 C19.3434271,0.295671431 19.3553701,0.2949316 19.3675244,0.294614529 L28.4088386,0.202294209 Z M12.3930862,3.3185375e-06 C12.4516914,-0.000577977125 12.4757359,0.0753603744 12.4270656,0.107965777 C10.6808006,1.27737411 8.9177837,3.29077091 7.97270264,5.14975444 C7.88698795,5.31843587 7.71587565,5.4261341 7.52669033,5.42877636 L3.35240618,5.48717015 C2.05730308,5.50039291 0.879137357,6.01557909 0.00180387813,6.84504416 L0.000462335349,0.814306714 C1.15115155,0.358524759 2.39933141,0.10208848 3.70165918,0.0887830197 L12.3930862,3.3185375e-06 Z" id="Combined-Shape" fill="#931EA1" fill-rule="nonzero"></path>
    </g>
</svg>