<?xml version="1.0" encoding="UTF-8"?>
<svg width="18px" height="19px" viewBox="0 0 18 19" version="1.1" xmlns="http://www.w3.org/2000/svg" xmlns:xlink="http://www.w3.org/1999/xlink">
    <title>search</title>
    <g id="Products" stroke="none" stroke-width="1" fill="none" fill-rule="evenodd">
        <path d="M5.53515334,2.63582189 C8.38285788,-0.211940632 13.0164808,-0.211940632 15.8642433,2.63582189 C18.7118899,5.48358442 18.7119479,10.1172653 15.8642433,12.9650279 C13.4483044,15.3809668 9.85518665,15.746802 7.04940617,14.0636933 C7.04940617,14.0636933 6.84662827,13.9427919 6.67551086,14.1139094 L6.67551086,14.1139094 L6.23277082,14.5566324 C5.88901383,14.9003814 5.46137713,15.3280163 5.02974616,15.7596488 L4.54668895,16.2427088 C4.28206846,16.5073315 4.02758967,16.7618133 3.80275587,16.9866502 L3.54843311,17.2409767 C3.39003528,17.399377 3.25560308,17.5338115 3.15512219,17.6342942 L3.03111254,17.7583062 C3.01510425,17.7743148 3.00152997,17.7878894 2.99054572,17.7988738 L2.95696887,17.8324513 C2.21532479,18.5741534 1.17818279,18.7506635 0.520444803,18.0928096 L0.520444803,18.0928096 L0.407197665,17.9796784 C-0.250540323,17.3218245 -0.0739722043,16.2847404 0.667729868,15.5430964 L0.667729868,15.5430964 L1.26044704,14.9503688 C1.41918017,14.7916332 1.60192946,14.6088813 1.79868796,14.4121205 L2.10308172,14.1077235 C2.36341414,13.8473886 2.63781798,13.5729829 2.90674834,13.3040522 L4.39409999,11.8167262 C4.55738926,11.6535529 4.43648794,11.4507171 4.43648794,11.4507171 C2.75332118,8.64487858 3.11921439,5.05176085 5.53515334,2.63582189 Z M14.5157152,3.98440802 C12.4115683,1.88020312 8.98782839,1.88026111 6.88362349,3.98440802 C4.7794186,6.08861291 4.77936061,9.51235282 6.88356551,11.6165577 C8.98782839,13.7206466 12.4115103,13.7206466 14.5157152,11.6165577 C16.6199201,9.51235282 16.6199201,6.08855493 14.5157152,3.98440802 Z M12.8754583,3.79821418 C13.2588053,3.9604597 13.4381568,4.40277878 13.2759113,4.78618384 C13.1136078,5.1695889 12.6714047,5.34882439 12.2878836,5.18663686 C10.6437416,4.49091788 8.73993719,5.26254085 8.04427619,6.90668287 C7.92256306,7.19423666 7.64341727,7.36697769 7.34971694,7.36697769 C7.25177817,7.36697769 7.15221578,7.34772626 7.05624855,7.30719387 C6.67290147,7.14494836 6.49355002,6.70262927 6.65579553,6.31922421 C7.67554165,3.90937382 10.4656659,2.77846806 12.8754583,3.79821418 Z" id="search" fill="#AE33B0" fill-rule="nonzero" transform="translate(9.000000, 9.500062) scale(-1, 1) translate(-9.000000, -9.500062) "></path>
    </g>
</svg>