<svg viewBox="0 0 30 27" version="1.1" xmlns="http://www.w3.org/2000/svg" xmlns:xlink="http://www.w3.org/1999/xlink">
    <title>logo</title>
    <g id="Products" stroke="none" stroke-width="1" fill="none" fill-rule="evenodd">
        <g id="Homepage-Copy" transform="translate(-29.000000, -15.000000)" fill="#AE33B0" fill-rule="nonzero">
            <path d="M56.6052039,21.8933896 L58.1115331,23.5670886 L56.6052039,23.5670886 L56.6052039,21.8933896 Z M48.4199616,41.1409283 L46.938779,33.799009 L46.5630098,31.9355837 L51.0819972,35.2026242 L48.4199616,41.1409283 Z M52.9273021,31.9233091 L51.9165755,34.1113924 L47.2324895,30.8250299 L54.9315049,27.5839662 L52.9273021,31.9233091 Z M52.6391967,21.6462859 L55.4336146,20.7218003 L55.4336146,26.0675107 L53.7575671,26.7471167 L50.5798875,24.5102984 L52.6391967,21.6462859 Z M52.5883263,27.2324361 L46.1213828,29.9271449 L44.0524613,21.0565401 L52.5883263,27.2324361 Z M31.3323488,15.5333333 L44.4355212,15.5333333 L48.2367089,22.7302391 L43.4420662,19.2856096 C43.3304223,19.2048225 43.1971047,19.1773966 43.0693316,19.2092941 L35.0728001,21.1627911 L31.3323488,15.5333333 Z M29.6586498,23.8846622 L42.6821696,20.7218003 L45.0947327,30.9112047 L46.0609001,35.4503516 L43.2391251,33.6541584 L29.6586498,23.8846622 Z M43.1439534,34.780872 L46.4743138,36.8845425 L47.5672293,41.9777778 L38.0271449,41.9777778 L43.1439534,34.780872 Z" id="logo"></path>
        </g>
    </g>
</svg>