<?xml version="1.0" encoding="UTF-8"?>
<svg width="486px" height="483px" viewBox="0 0 486 483" version="1.1" xmlns="http://www.w3.org/2000/svg" xmlns:xlink="http://www.w3.org/1999/xlink">
    <title>UBBB</title>
    <g id="Products" stroke="none" stroke-width="1" fill="none" fill-rule="evenodd">
        <path d="M268.067538,0.329528454 L286.73065,34.5442276 L317.696623,10.8785161 L328.838265,48.2258212 L364.047936,31.5154501 L367.181165,70.3631046 L405.095701,61.3383973 L400.08358,99.9885724 L439.045935,99.0439519 L426.107518,135.807449 L464.414849,142.9842 L444.115606,176.254279 L480.0937,191.238742 L453.320806,219.56134 L485.397247,241.698624 L453.320806,263.835907 L480.0937,292.158505 L444.115606,307.142968 L464.414849,340.413047 L426.107518,347.589798 L439.045935,384.353295 L400.08358,383.408675 L405.095701,422.05885 L367.181165,413.034143 L364.047936,451.881797 L328.838265,435.171426 L317.696623,472.518731 L286.73065,448.85302 L268.067538,483.067719 L242.698624,453.480972 L217.329709,483.067719 L198.666598,448.85302 L167.700624,472.518731 L156.558982,435.171426 L121.349312,451.881797 L118.216083,413.034143 L80.3015465,422.05885 L85.3136673,383.408675 L46.3513126,384.353295 L59.2897298,347.589798 L20.9823984,340.413047 L41.2816411,307.142968 L5.30354723,292.158505 L32.076441,263.835907 L0,241.698624 L32.076441,219.56134 L5.30354723,191.238742 L41.2816411,176.254279 L20.9823984,142.9842 L59.2897298,135.807449 L46.3513126,99.0439519 L85.3136673,99.9885724 L80.3015465,61.3383973 L118.216083,70.3631046 L121.349312,31.5154501 L156.558982,48.2258212 L167.700624,10.8785161 L198.666598,34.5442276 L217.329709,0.329528454 L242.698624,29.9162752 L268.067538,0.329528454 Z M267.884,2.081 L242.698624,31.4525571 L217.514,2.081 L198.986008,36.0469381 L168.245,12.553 L157.183844,49.6292846 L122.23,33.04 L119.119086,71.6059828 L81.48,62.648 L86.4553472,101.016546 L47.776,100.079 L60.620189,136.57559 L22.592,143.701 L42.742732,176.729016 L7.026,191.605 L33.604307,219.721925 L1.762,241.699 L33.604307,263.675322 L7.026,291.793 L42.742732,306.668231 L22.591,339.698 L60.620189,346.821657 L47.776,383.319 L86.4553472,382.380702 L81.48,420.751 L119.119086,411.791265 L122.23,450.358 L157.183844,433.767963 L168.245,470.845 L198.986008,447.350309 L217.514,481.317 L242.698624,451.94469 L267.884,481.317 L286.411239,447.350309 L317.153,470.845 L328.213403,433.767963 L363.168,450.358 L366.278161,411.791265 L403.919,420.752 L398.9419,382.380702 L437.622,383.319 L424.861134,347.052093 C388.630598,409.156395 321.29232,450.888849 244.206906,450.888849 C128.779394,450.888849 35.2069064,357.316362 35.2069064,241.888849 C35.2069064,126.461336 128.779394,32.8888488 244.206906,32.8888488 C336.806735,32.8888488 415.341135,93.1101131 442.782343,176.524881 L462.807,143.701 L424.777058,136.57559 L437.622,100.079 L398.9419,101.016546 L403.919,62.647 L366.278161,71.6059828 L363.168,33.04 L328.213403,49.6292846 L317.153,12.553 L286.411239,36.0469381 L267.884,2.081 Z M244.206906,33.8888488 C129.331678,33.8888488 36.2069064,127.013621 36.2069064,241.888849 C36.2069064,356.764077 129.331678,449.888849 244.206906,449.888849 C359.082134,449.888849 452.206906,356.764077 452.206906,241.888849 C452.206906,127.013621 359.082134,33.8888488 244.206906,33.8888488 Z M228.236363,403.048834 L230.645919,403.196279 L230.179246,410.822639 L230.374194,410.834569 L237.539275,403.618098 L240.572664,403.803717 L233.691635,410.599251 L239.618813,419.775277 L236.717988,419.597769 L231.99238,412.146791 L229.972632,414.199136 L229.668674,419.166407 L227.259119,419.018962 L228.236363,403.048834 Z M259.267477,402.925081 L259.396617,404.999189 L251.794152,405.472544 L252.097099,410.338121 L259.177138,409.897295 L259.305794,411.963606 L252.225754,412.404433 L252.530157,417.293403 L260.226192,416.814222 L260.355332,418.888331 L250.249901,419.517528 L249.255614,403.548452 L259.267477,402.925081 Z M277.537281,400.534019 C278.422745,400.800975 279.135087,401.266377 279.674304,401.930227 C280.213522,402.594076 280.574731,403.40959 280.75793,404.376767 C280.94016,405.338827 280.899483,406.222513 280.635898,407.027825 C280.372314,407.833137 279.875819,408.514261 279.146413,409.071197 C279.013794,409.172458 278.8731,409.268327 278.724331,409.358803 L278.718,409.361528 L283.400933,415.055829 L280.698977,415.567625 L276.377,410.221528 L276.225414,410.252645 L276.225414,410.252645 L273.001,410.863528 L274.128311,416.812218 L271.756424,417.261493 L268.778705,401.541023 L274.382193,400.479629 C275.600121,400.248933 276.651816,400.267063 277.537281,400.534019 Z M212.734812,400.600462 C213.567487,400.765937 214.321644,401.03927 214.997282,401.420461 C215.672919,401.801653 216.253935,402.278209 216.74033,402.85013 C217.226724,403.422051 217.593708,404.073791 217.84128,404.805349 C218.088853,405.536907 218.195297,406.337329 218.16061,407.206616 L215.769862,406.731509 C215.779428,406.202392 215.697632,405.718841 215.524473,405.280855 C215.351314,404.84287 215.110287,404.452465 214.801393,404.109639 C214.492498,403.766814 214.128262,403.482023 213.708684,403.255266 C213.289106,403.02851 212.829003,402.865387 212.328376,402.765899 C211.424183,402.586211 210.570597,402.652883 209.767618,402.965916 C208.96464,403.278948 208.27023,403.833929 207.684388,404.630857 C207.098547,405.427786 206.679744,406.459697 206.427977,407.726589 C206.174181,409.003699 206.165591,410.12244 206.402208,411.082814 C206.638825,412.043188 207.070057,412.819209 207.695901,413.410877 C208.321746,414.002546 209.081657,414.387209 209.975633,414.564867 C210.471152,414.66334 210.955856,414.689304 211.429747,414.642759 C211.903638,414.596214 212.348328,414.476162 212.763816,414.282601 C213.179305,414.089041 213.551807,413.824543 213.881321,413.489107 C214.210835,413.153672 214.473866,412.745285 214.670415,412.263947 L217.059641,412.746717 C216.778637,413.492711 216.391298,414.152524 215.897623,414.726156 C215.403949,415.299787 214.825872,415.763717 214.163391,416.117946 C213.500911,416.472175 212.779038,416.704414 211.997772,416.814664 C211.216506,416.924915 210.39421,416.894257 209.530884,416.72269 C208.17204,416.452651 207.025551,415.888943 206.091417,415.031567 C205.157283,414.174191 204.504779,413.08205 204.133905,411.755144 C203.76303,410.428238 203.743576,408.929555 204.075542,407.259096 C204.408523,405.583529 205.001058,404.205138 205.853147,403.123923 C206.705236,402.042708 207.726768,401.284572 208.917744,400.849513 C210.10872,400.414454 211.381076,400.331437 212.734812,400.600462 Z M272.614,408.821528 L271.593825,409.014868 L271.98058,411.056687 L273.001,410.863528 L272.614,408.821528 Z M190.547498,394.728892 C191.850023,395.185404 192.904734,395.904136 193.711631,396.885088 C194.518528,397.86604 195.014041,399.038641 195.198171,400.40289 C195.3823,401.76714 195.191844,403.255356 194.626802,404.867538 C194.061761,406.479719 193.281482,407.761213 192.285966,408.712017 C191.29045,409.662821 190.171324,410.269519 188.928587,410.53211 C187.68585,410.794701 186.413219,410.69774 185.110694,410.241228 C183.803254,409.782992 182.746085,409.063399 181.939189,408.082447 C181.132292,407.101495 180.637209,405.927666 180.453941,404.560958 C180.270673,403.194251 180.460698,401.707264 181.024017,400.099998 C181.589059,398.487816 182.369338,397.206323 183.364854,396.255518 C184.360369,395.304714 185.479496,394.698016 186.722233,394.435425 C187.96497,394.172834 189.240058,394.270657 190.547498,394.728892 Z M278.173408,408.698901 L275.548212,409.196157 L276.377,410.221528 L276.55152,410.185683 C277.298303,410.020004 277.94617,409.788267 278.495122,409.490473 L278.718,409.361528 L278.173408,408.698901 Z M274.514186,402.561752 L271.535893,403.125891 L272.614,408.821528 L275.623731,408.251537 C276.391332,408.10614 276.996087,407.877619 277.437995,407.565974 C277.879904,407.254329 278.173698,406.86737 278.319377,406.405099 C278.465057,405.942827 278.482161,405.417444 278.370691,404.82895 C278.258251,404.235339 278.046974,403.742613 277.736862,403.350773 C277.426749,402.958934 277.007846,402.692394 276.480154,402.551155 C275.952461,402.409916 275.297139,402.413448 274.514186,402.561752 Z M187.260315,396.643954 C186.424646,396.839494 185.661254,397.289404 184.970141,397.993682 C184.279027,398.697961 183.718134,399.664498 183.287462,400.893296 C182.85679,402.122093 182.691569,403.227307 182.791801,404.208938 C182.892033,405.19057 183.207525,406.018609 183.738279,406.693057 C184.269032,407.367505 184.969403,407.857187 185.839391,408.162103 C186.704464,408.465296 187.556064,408.519553 188.394191,408.324874 C189.232318,408.130194 189.996938,407.680716 190.688052,406.976437 C191.379166,406.272159 191.940059,405.305621 192.370731,404.076824 C192.801403,402.848026 192.966623,401.742812 192.866391,400.761181 C192.76616,399.77955 192.449438,398.951079 191.916227,398.27577 C191.383017,397.600461 190.683874,397.11121 189.818801,396.808017 C188.948813,396.503101 188.095984,396.448413 187.260315,396.643954 Z M309.283099,390.012386 C310.113678,390.071815 310.820766,390.323235 311.404362,390.766645 C311.987959,391.210055 312.43106,391.797535 312.733666,392.529085 C312.988492,393.145128 313.089903,393.710495 313.037897,394.225186 C312.985892,394.739878 312.823244,395.201701 312.549956,395.610654 C312.276667,396.019608 311.93771,396.375408 311.533083,396.678053 L311.592808,396.822438 C312.093671,396.643438 312.638951,396.602473 313.228647,396.699543 C313.818343,396.796614 314.377692,397.048555 314.906695,397.455366 C315.435699,397.862177 315.858471,398.448203 316.175013,399.213443 C316.487573,399.969057 316.59091,400.719626 316.485026,401.465149 C316.379141,402.210673 316.030184,402.910198 315.438156,403.563725 C314.846128,404.217252 313.977387,404.780924 312.831934,405.254741 L307.164826,407.598942 L301.049001,392.813926 L306.463435,390.574244 C307.512632,390.140243 308.45252,389.952958 309.283099,390.012386 Z M309.944438,398.662554 L306.645243,400.027267 L308.604218,404.763092 L311.824002,403.431228 C312.89245,402.989264 313.572085,402.465771 313.862905,401.860748 C314.153726,401.255725 314.170728,400.642786 313.913911,400.021931 C313.7208,399.555086 313.425702,399.175519 313.028616,398.883231 C312.631531,398.590942 312.167427,398.419375 311.636306,398.368529 C311.105185,398.317683 310.541229,398.415691 309.944438,398.662554 Z M167.650573,385.235629 L169.809758,386.315266 L163.583499,398.767266 L170.068042,402.009673 L169.138645,403.868389 L160.494917,399.546345 L167.650573,385.235629 Z M307.111651,392.529644 L304.065129,393.789839 L305.925559,398.287429 L308.914326,397.051124 C309.414861,396.844078 309.826247,396.561181 310.148485,396.202434 C310.470723,395.843687 310.678793,395.440575 310.772693,394.993099 C310.866593,394.545622 310.814997,394.083649 310.617905,393.607179 C310.365069,392.995949 309.938875,392.571975 309.339322,392.335255 C308.739769,392.098535 307.997212,392.163332 307.111651,392.529644 Z M330.795954,377.812775 L336.065539,386.921793 C336.626272,387.891077 336.894787,388.880488 336.871082,389.890025 C336.847378,390.899563 336.546248,391.855986 335.967691,392.759296 C335.389134,393.662605 334.545334,394.435051 333.436293,395.076634 C332.33176,395.715608 331.243753,396.060716 330.172272,396.111957 C329.100792,396.163198 328.121566,395.947463 327.234594,395.464754 C326.347621,394.982045 325.623769,394.256048 325.063036,393.286764 L319.79345,384.177746 L321.883047,382.96891 L327.05483,391.908866 C327.417351,392.53552 327.878076,393.012097 328.437007,393.338598 C328.995938,393.665098 329.61032,393.819623 330.280154,393.802173 C330.949987,393.784722 331.634297,393.573873 332.333083,393.169623 C333.036378,392.762766 333.563673,392.2727 333.91497,391.699424 C334.266266,391.126149 334.437455,390.51717 334.428536,389.872486 C334.419618,389.227802 334.233898,388.592133 333.871378,387.965479 L328.699595,379.025523 L330.795954,377.812775 Z M149.875592,374.41546 L154.758302,377.654506 C155.704463,378.282161 156.384937,378.957009 156.799724,379.679052 C157.214512,380.401094 157.401073,381.127991 157.35941,381.859743 C157.317746,382.591496 157.078099,383.287226 156.640468,383.946935 C156.271936,384.502479 155.859713,384.902474 155.403798,385.14692 C154.947884,385.391366 154.473997,385.514512 153.982136,385.516359 C153.490276,385.518205 153.005808,385.43589 152.52873,385.269414 L152.442356,385.39962 C152.870659,385.714994 153.209301,386.144331 153.45828,386.68763 C153.70726,387.230928 153.810842,387.835591 153.769028,388.501617 C153.727214,389.167644 153.477415,389.845702 153.01963,390.535791 C152.567603,391.217201 152.00286,391.722273 151.325402,392.051009 C150.647944,392.379744 149.872822,392.481189 149.000034,392.355342 C148.127247,392.229495 147.174372,391.823953 146.141407,391.138714 L141.030837,387.748513 L149.875592,374.41546 Z M147.020062,383.087032 L144.186977,387.357776 L147.090562,389.283928 C148.054083,389.9231 148.867976,390.194257 149.532241,390.0974 C150.196506,390.000542 150.714344,389.672172 151.085755,389.112288 C151.365032,388.69129 151.514942,388.234474 151.535485,387.74184 C151.556027,387.249207 151.439004,386.768444 151.184416,386.299551 C150.929829,385.830659 150.533444,385.417706 149.99526,385.060691 L147.020062,383.087032 Z M348.582488,367.548756 C349.365229,367.893384 350.058788,368.454196 350.663164,369.231192 C351.264342,370.004078 351.631411,370.808948 351.764371,371.645803 C351.897331,372.482657 351.766374,373.315296 351.371499,374.143719 C351.299704,374.294342 351.218263,374.443851 351.127176,374.592246 L351.122686,374.597359 L357.888232,377.527349 L355.717575,379.215765 L349.431686,376.430359 L349.311528,376.527953 L346.720686,378.542359 L350.438932,383.321686 L348.533441,384.803846 L338.70993,372.17457 L343.211577,368.673025 C344.190017,367.911959 345.134093,367.448157 346.043806,367.28162 C346.95352,367.115083 347.799747,367.204128 348.582488,367.548756 Z M150.751443,377.46215 L148.060876,381.518055 L150.756132,383.306008 C151.207511,383.60544 151.671987,383.788557 152.149558,383.855358 C152.62713,383.92216 153.077705,383.869488 153.501283,383.697343 C153.92486,383.525197 154.279167,383.224285 154.564203,382.794607 C154.929856,382.243403 155.043347,381.653051 154.904677,381.02355 C154.766008,380.39405 154.297376,379.814417 153.498782,379.284654 L150.751443,377.46215 Z M123.378929,305.453002 C146.832634,349.943423 192.99902,378.388849 244.206906,378.388849 C294.898202,378.388849 340.649411,350.514471 364.318472,306.793977 L365.028939,305.464276 L365.913505,305.930692 C342.286353,350.739962 295.784911,379.388849 244.206906,379.388849 C193.140137,379.388849 147.050002,351.305053 123.209919,307.258939 L122.49432,305.919335 L123.378929,305.453002 Z M345.444686,376.901359 L344.625471,377.540167 L345.901376,379.180493 L346.720686,378.542359 L345.444686,376.901359 Z M346.023676,369.558888 C345.48968,369.674021 344.908183,369.976217 344.279186,370.465473 L341.88653,372.326568 L345.444686,376.901359 L347.862957,375.021933 C348.479621,374.54227 348.91345,374.062955 349.164445,373.58399 C349.415439,373.105025 349.500273,372.626637 349.418945,372.148826 C349.337616,371.671015 349.113081,371.195722 348.745339,370.722946 C348.374399,370.246059 347.961553,369.904045 347.5068,369.696902 C347.052047,369.489759 346.557672,369.443755 346.023676,369.558888 Z M350.335821,374.256473 L348.226831,375.896922 L349.431686,376.430359 L349.571141,376.319555 C350.160024,375.831343 350.630748,375.329493 350.983312,374.814005 L351.122686,374.597359 L350.335821,374.256473 Z M361.601947,351.840005 L363.067932,353.312925 L357.669073,358.686366 L361.108075,362.141636 L366.135935,357.137447 L367.596409,358.604829 L362.568548,363.609018 L366.024084,367.0809 L371.489391,361.641324 L372.955376,363.114244 L365.779046,370.256786 L354.492065,358.916413 L361.601947,351.840005 Z M123.939574,351.878395 L132.657561,360.672185 L131.181757,362.135267 L127.667061,358.59001 L117.780288,368.391557 L116.086194,366.682732 L125.972967,356.881185 L122.463771,353.341476 L123.939574,351.878395 Z M372.218357,338.788663 L388.414454,343.969286 L386.853446,346.001443 L382.603686,344.581359 L378.795686,349.539359 L381.261422,353.281273 L379.700414,355.31343 L370.519334,341.000493 L372.218357,338.788663 Z M111.486177,337.868228 C112.667156,338.335812 113.676015,339.121703 114.512753,340.225899 C115.346346,341.325944 115.828516,342.507681 115.959264,343.77111 C116.090013,345.03454 115.855331,346.285719 115.25522,347.524649 C114.655108,348.763579 113.67427,349.898927 112.312705,350.930694 C110.95114,351.962461 109.592826,352.599676 108.237763,352.842339 C106.8827,353.085001 105.614679,352.97254 104.433699,352.504956 C103.252719,352.037371 102.245433,351.253556 101.41184,350.153511 C100.575102,349.049315 100.091359,347.865502 99.960611,346.602073 C99.8298627,345.338643 100.065582,344.086677 100.667769,342.846175 C101.269956,341.605672 102.249756,340.47111 103.60717,339.442489 C104.968735,338.410722 106.327049,337.773507 107.682112,337.530844 C109.037175,337.288182 110.305197,337.400643 111.486177,337.868228 Z M108.06011,339.866498 C107.094971,340.071809 106.093512,340.567669 105.055734,341.354076 C104.017955,342.140484 103.26972,342.970508 102.811027,343.844149 C102.352335,344.717789 102.157923,345.582306 102.227792,346.437699 C102.297661,347.293092 102.610984,348.088162 103.167761,348.822909 C103.721392,349.553505 104.401302,350.069149 105.207492,350.369841 C106.013681,350.670533 106.899345,350.718223 107.864484,350.512912 C108.829623,350.307601 109.831082,349.811741 110.86886,349.025333 C111.906638,348.238926 112.654874,347.408901 113.113566,346.535261 C113.572259,345.661621 113.765884,344.796066 113.694442,343.938598 C113.623,343.081129 113.310464,342.287097 112.756832,341.556501 C112.200056,340.821754 111.519359,340.305072 110.714743,340.006456 C109.910127,339.707839 109.025249,339.661187 108.06011,339.866498 Z M377.612686,347.744359 L376.554305,349.123661 L378.165161,350.361045 L378.795686,349.539359 L377.612686,347.744359 Z M373.714062,341.612327 L373.637915,341.711456 L377.612686,347.744359 L380.565686,343.900359 L373.714062,341.612327 Z M425.020645,346.778191 L462.808,339.698 L442.863957,307.004199 C438.289685,320.968243 432.284106,334.284049 425.020645,346.778191 Z M381.618062,342.531542 L380.565686,343.900359 L382.603686,344.581359 L383.228918,343.768926 L381.618062,342.531542 Z M99.522732,317.500451 L102.391553,322.609477 C102.947466,323.599493 103.245399,324.510372 103.285351,325.342116 C103.325303,326.173859 103.159919,326.905865 102.789199,327.538134 C102.418478,328.170403 101.887975,328.680342 101.197689,329.067952 C100.616395,329.39436 100.067138,329.562407 99.5499162,329.572094 C99.0326946,329.581781 98.5547832,329.475315 98.1161821,329.252697 C97.677581,329.030079 97.2839312,328.735927 96.9352327,328.370241 L96.798992,328.446742 C97.0363917,328.922711 97.142031,329.459226 97.1159101,330.056287 C97.0897892,330.653348 96.9062854,331.23873 96.5653989,331.812434 C96.2245124,332.386138 95.6930313,332.87572 94.9709557,333.28118 C94.2579628,333.68154 93.5250521,333.873566 92.7722236,333.857259 C92.0193952,333.840952 91.283277,333.577825 90.563869,333.067877 C89.8444611,332.557929 89.1812997,331.762534 88.5743847,330.681691 L85.5716858,325.334244 L99.522732,317.500451 Z M386.776561,315.978359 L395.874156,321.267642 C396.842224,321.830471 397.566653,322.555893 398.047442,323.443907 C398.528231,324.331922 398.741846,325.311613 398.688287,326.38298 C398.634728,327.454347 398.285958,328.543856 397.641977,329.651506 C397.000614,330.754654 396.227653,331.594529 395.323094,332.17113 C394.418535,332.747731 393.461462,333.046792 392.451876,333.068311 C391.442289,333.089831 390.453462,332.819177 389.485393,332.256348 L380.387799,326.967065 L381.601153,324.880089 L390.529898,330.071204 C391.155766,330.435079 391.79234,330.619922 392.439621,330.625733 C393.086902,330.631544 393.696905,330.460547 394.26963,330.112744 C394.842355,329.76494 395.331598,329.242083 395.737358,328.544173 C396.145736,327.84176 396.36003,327.154531 396.380238,326.482486 C396.400447,325.81044 396.246597,325.196851 395.918689,324.641718 C395.590781,324.086584 395.113893,323.62708 394.488025,323.263204 L385.55928,318.072089 L386.776561,315.978359 Z M93.0275235,323.916251 L88.558829,326.425513 L90.264821,329.46368 C90.8309349,330.471861 91.4316732,331.084284 92.0670359,331.300949 C92.7023985,331.517614 93.3129973,331.461467 93.8988323,331.132509 C94.3393438,330.885153 94.681048,330.546934 94.9239448,330.117852 C95.1668415,329.688771 95.2818921,329.207532 95.2690966,328.674136 C95.256301,328.140741 95.0917993,327.592479 94.7755915,327.029351 L93.0275235,323.916251 Z M98.9131211,320.61137 L94.6692237,322.994403 L96.2528127,325.814585 C96.5180192,326.286886 96.8479147,326.661637 97.2424992,326.938838 C97.6370837,327.216039 98.0621142,327.374598 98.5175906,327.414516 C98.973067,327.454433 99.4256024,327.348164 99.8751967,327.095708 C100.451949,326.77185 100.822126,326.298178 100.985727,325.674691 C101.149328,325.051205 100.996522,324.321658 100.527311,323.486048 L98.9131211,320.61137 Z M443.021732,306.52055 L478.372,291.793 L452.056518,263.949012 C450.514676,278.646709 447.449497,292.890804 443.021732,306.52055 Z M91.743468,193.914863 L91.743468,253.164863 C91.743468,256.133613 92.399718,258.78205 93.712218,261.110175 C95.024718,263.4383 96.8450305,265.258613 99.1731555,266.571113 C101.501281,267.883613 104.149718,268.539863 107.118468,268.539863 C110.118468,268.539863 112.774718,267.883613 115.087218,266.571113 C117.399718,265.258613 119.212218,263.4383 120.524718,261.110175 C121.837218,258.78205 122.493468,256.133613 122.493468,253.164863 L122.493468,193.914863 L148.555968,193.914863 L148.555968,255.414863 C148.555968,262.727363 146.813781,269.047675 143.329406,274.3758 C139.845031,279.703925 134.993468,283.8133 128.774718,286.703925 C122.555968,289.59455 115.337218,291.039863 107.118468,291.039863 C98.837218,291.039863 91.587218,289.59455 85.368468,286.703925 C79.149718,283.8133 74.3137805,279.703925 70.8606555,274.3758 C67.4075305,269.047675 65.680968,262.727363 65.680968,255.414863 L65.680968,193.914863 L91.743468,193.914863 Z M200.600412,193.914863 C207.912912,193.914863 214.06135,194.899238 219.045725,196.867988 C224.0301,198.836738 227.795725,201.617988 230.3426,205.211738 C232.889475,208.805488 234.162912,213.039863 234.162912,217.914863 C234.162912,221.446113 233.389475,224.664863 231.8426,227.571113 C230.295725,230.477363 228.131662,232.90705 225.350412,234.860175 C222.569162,236.8133 219.319162,238.164863 215.600412,238.914863 L215.600412,239.852363 C219.725412,240.008613 223.475412,241.047675 226.850412,242.96955 C230.225412,244.891425 232.912912,247.53205 234.912912,250.891425 C236.912912,254.2508 237.912912,258.196113 237.912912,262.727363 C237.912912,267.977363 236.545725,272.649238 233.81135,276.742988 C231.076975,280.836738 227.194162,284.055488 222.162912,286.399238 C217.131662,288.742988 211.131662,289.914863 204.162912,289.914863 L158.975412,289.914863 L158.975412,193.914863 L200.600412,193.914863 Z M372.939301,193.914863 C380.251801,193.914863 386.400239,194.899238 391.384614,196.867988 C396.368989,198.836738 400.134614,201.617988 402.681489,205.211738 C405.228364,208.805488 406.501801,213.039863 406.501801,217.914863 C406.501801,221.446113 405.728364,224.664863 404.181489,227.571113 C402.634614,230.477363 400.470551,232.90705 397.689301,234.860175 C394.908051,236.8133 391.658051,238.164863 387.939301,238.914863 L387.939301,239.852363 C392.064301,240.008613 395.814301,241.047675 399.189301,242.96955 C402.564301,244.891425 405.251801,247.53205 407.251801,250.891425 C409.251801,254.2508 410.251801,258.196113 410.251801,262.727363 C410.251801,267.977363 408.884614,272.649238 406.150239,276.742988 C403.415864,280.836738 399.533051,284.055488 394.501801,286.399238 C389.470551,288.742988 383.470551,289.914863 376.501801,289.914863 L331.314301,289.914863 L331.314301,193.914863 L372.939301,193.914863 Z M286.769857,193.914863 C294.082357,193.914863 300.230794,194.899238 305.215169,196.867988 C310.199544,198.836738 313.965169,201.617988 316.512044,205.211738 C319.058919,208.805488 320.332357,213.039863 320.332357,217.914863 C320.332357,221.446113 319.558919,224.664863 318.012044,227.571113 C316.465169,230.477363 314.301107,232.90705 311.519857,234.860175 C308.738607,236.8133 305.488607,238.164863 301.769857,238.914863 L301.769857,239.852363 C305.894857,240.008613 309.644857,241.047675 313.019857,242.96955 C316.394857,244.891425 319.082357,247.53205 321.082357,250.891425 C323.082357,254.2508 324.082357,258.196113 324.082357,262.727363 C324.082357,267.977363 322.715169,272.649238 319.980794,276.742988 C317.246419,280.836738 313.363607,284.055488 308.332357,286.399238 C303.301107,288.742988 297.301107,289.914863 290.332357,289.914863 L245.144857,289.914863 L245.144857,193.914863 L286.769857,193.914863 Z M283.769857,248.852363 L271.207357,248.852363 L271.207357,269.102363 L283.394857,269.102363 C287.769857,269.102363 291.051107,268.28205 293.238607,266.641425 C295.426107,265.0008 296.519857,262.571113 296.519857,259.352363 C296.519857,257.102363 296.004232,255.196113 294.972982,253.633613 C293.941732,252.071113 292.480794,250.883613 290.590169,250.071113 C288.699544,249.258613 286.426107,248.852363 283.769857,248.852363 Z M197.600412,248.852363 L185.037912,248.852363 L185.037912,269.102363 L197.225412,269.102363 C201.600412,269.102363 204.881662,268.28205 207.069162,266.641425 C209.256662,265.0008 210.350412,262.571113 210.350412,259.352363 C210.350412,257.102363 209.834787,255.196113 208.803537,253.633613 C207.772287,252.071113 206.31135,250.883613 204.420725,250.071113 C202.5301,249.258613 200.256662,248.852363 197.600412,248.852363 Z M369.939301,248.852363 L357.376801,248.852363 L357.376801,269.102363 L369.564301,269.102363 C373.939301,269.102363 377.220551,268.28205 379.408051,266.641425 C381.595551,265.0008 382.689301,262.571113 382.689301,259.352363 C382.689301,257.102363 382.173676,255.196113 381.142426,253.633613 C380.111176,252.071113 378.650239,250.883613 376.759614,250.071113 C374.868989,249.258613 372.595551,248.852363 369.939301,248.852363 Z M453.206906,241.888849 C453.206906,249.173562 452.834211,256.371227 452.106847,263.463817 L483.637,241.699 L452.064328,219.903261 C452.819683,227.128622 453.206906,234.463515 453.206906,241.888849 Z M196.100412,214.352363 L185.037912,214.352363 L185.037912,232.727363 L195.725412,232.727363 C198.006662,232.727363 200.022287,232.367988 201.772287,231.649238 C203.522287,230.930488 204.889475,229.891425 205.87385,228.53205 C206.858225,227.172675 207.350412,225.508613 207.350412,223.539863 C207.350412,220.571113 206.287912,218.297675 204.162912,216.71955 C202.037912,215.141425 199.350412,214.352363 196.100412,214.352363 Z M282.269857,214.352363 L271.207357,214.352363 L271.207357,232.727363 L281.894857,232.727363 C284.176107,232.727363 286.191732,232.367988 287.941732,231.649238 C289.691732,230.930488 291.058919,229.891425 292.043294,228.53205 C293.027669,227.172675 293.519857,225.508613 293.519857,223.539863 C293.519857,220.571113 292.457357,218.297675 290.332357,216.71955 C288.207357,215.141425 285.519857,214.352363 282.269857,214.352363 Z M368.439301,214.352363 L357.376801,214.352363 L357.376801,232.727363 L368.064301,232.727363 C370.345551,232.727363 372.361176,232.367988 374.111176,231.649238 C375.861176,230.930488 377.228364,229.891425 378.212739,228.53205 C379.197114,227.172675 379.689301,225.508613 379.689301,223.539863 C379.689301,220.571113 378.626801,218.297675 376.501801,216.71955 C374.376801,215.141425 371.689301,214.352363 368.439301,214.352363 Z M452.020305,219.486189 L478.372,191.605 L442.878348,176.817445 C447.348737,190.474656 450.450121,204.751636 452.020305,219.486189 Z M244.206906,104.388849 C295.083295,104.388849 341.028823,132.262701 364.949623,176.051271 L365.667736,177.383056 L364.784963,177.852856 C341.245723,133.621617 295.223895,105.388849 244.206906,105.388849 C193.762982,105.388849 148.199771,132.99059 124.426178,176.376466 L123.712453,177.696008 L122.830294,177.225057 C146.569825,132.75754 192.880613,104.388849 244.206906,104.388849 Z M385.390117,140.449722 L391.046174,148.734346 L389.329889,149.906084 L385.034986,143.615189 L381.008813,146.363927 L385.00858,152.222524 L383.298747,153.389857 L379.29898,147.53126 L375.253451,150.293213 L379.601215,156.661534 L377.88493,157.833272 L372.176012,149.471221 L385.390117,140.449722 Z M98.7470747,142.113867 L100.502107,143.226731 L97.8287243,147.442767 L109.586121,154.898116 L108.297542,156.930258 L96.5401455,149.47491 L93.8709466,153.684348 L92.1159143,152.571484 L98.7470747,142.113867 Z M115.207701,121.730181 L127.353926,132.145037 L125.777458,133.983577 L120.481277,129.442333 L115.289105,135.497653 L120.585286,140.038897 L119.013904,141.871506 L106.86768,131.456649 L108.439062,129.62404 L113.71745,134.150028 L118.909622,128.094708 L113.631234,123.568721 L115.207701,121.730181 Z M370.954022,122.704223 L372.565173,124.50197 L362.197589,133.79346 L367.036255,139.192517 L365.488681,140.579462 L359.038864,133.38266 L370.954022,122.704223 Z M133.021027,105.263113 L134.384884,106.831073 L128.637662,111.830172 L131.837085,115.508393 L137.189369,110.852823 L138.548099,112.414888 L133.195814,117.070459 L136.410619,120.766365 L142.228576,115.705738 L143.592433,117.273698 L135.953049,123.918654 L125.452378,111.846541 L133.021027,105.263113 Z M352.730704,105.686305 L357.198643,109.477056 C358.064431,110.211619 358.660825,110.961805 358.987827,111.727614 C359.314828,112.493423 359.414617,113.237215 359.287192,113.958991 C359.159768,114.680767 358.839969,115.34349 358.327797,115.947158 C357.896494,116.45551 357.440094,116.804255 356.958597,116.993392 C356.4771,117.182529 355.992019,117.249095 355.503355,117.193088 C355.01469,117.137082 354.543263,116.998368 354.089072,116.776946 L353.987986,116.896091 C354.376231,117.259643 354.662035,117.725823 354.845399,118.29463 C355.028762,118.863438 355.060521,119.476086 354.940676,120.132574 C354.820832,120.789063 354.49303,121.433041 353.95727,122.06451 C353.42825,122.688036 352.808032,123.123193 352.096617,123.369983 C351.385202,123.616773 350.603528,123.626363 349.751596,123.398755 C348.899663,123.171147 348.001088,122.656365 347.05587,121.854411 L342.379427,117.886759 L352.730704,105.686305 Z M348.87526,113.961918 L345.559617,117.869876 L348.216552,120.124109 C349.098225,120.872151 349.874585,121.237135 350.545631,121.219064 C351.216677,121.200992 351.769536,120.935794 352.204209,120.42347 C352.531056,120.038235 352.733644,119.602217 352.811975,119.115417 C352.890305,118.628617 352.83063,118.137429 352.632947,117.641852 C352.435265,117.146275 352.090191,116.689574 351.597725,116.271749 L348.87526,113.961918 Z M353.242205,108.814852 L350.093355,112.52622 L352.559657,114.618715 C352.972694,114.969149 353.412413,115.205614 353.878816,115.328112 C354.345218,115.45061 354.798861,115.451289 355.239743,115.330148 C355.680625,115.209007 356.067859,114.951847 356.401445,114.558669 C356.829379,114.054288 357.011505,113.481378 356.947823,112.839938 C356.884141,112.198498 356.486922,111.567779 355.756166,110.947781 L353.242205,108.814852 Z M335.206806,93.3099318 L337.565191,94.7988546 L333.892406,111.401958 L331.725599,110.033984 L332.749,105.671528 L327.463,102.334528 L323.963408,105.133468 L321.796601,103.765494 L335.206806,93.3099318 Z M333.24,103.579528 L332.749,105.671528 L333.616149,106.219911 L334.700519,104.50232 L333.24,103.579528 Z M334.78497,96.4805899 L329.141,100.992528 L333.24,103.579528 L334.890668,96.5473203 L334.78497,96.4805899 Z M327.671607,100.064746 L326.587238,101.782337 L327.463,102.334528 L329.141,100.992528 L327.671607,100.064746 Z M168.814976,82.9514526 L173.699282,92.2727345 C174.219018,93.2646056 174.445949,94.2643736 174.380075,95.2720386 C174.314202,96.2797035 173.973365,97.2227067 173.357563,98.1010483 C172.741761,98.9793898 171.866417,99.7158977 170.731532,100.310572 C169.601261,100.902829 168.499782,101.202166 167.427096,101.208701 C166.35441,101.215001 165.385055,100.958532 164.519031,100.439177 C163.653007,99.9198218 162.960127,99.1642086 162.440391,98.1723375 L157.556086,88.8510556 L159.694375,87.7306024 L164.488029,96.8788835 C164.824045,97.5201397 165.264451,98.0155547 165.809249,98.3651284 C166.354046,98.7147021 166.961434,98.8947679 167.631412,98.9053258 C168.301389,98.9158837 168.993913,98.7338162 169.708983,98.3591231 C170.428666,97.9820126 170.975981,97.5144107 171.350928,96.9563174 C171.725876,96.3982241 171.922365,95.7969308 171.940396,95.1524374 C171.958428,94.507944 171.799436,93.8650691 171.463421,93.2238129 L166.669767,84.0755319 L168.814976,82.9514526 Z M308.608566,79.609485 L310.820616,80.5761961 L307.760929,87.5774433 L307.939897,87.6556562 L317.148942,83.3418033 L319.933692,84.5587957 L311.136082,88.5750001 L313.547969,99.2292796 L310.884918,98.065472 L309.008424,89.4441485 L306.406282,90.6771775 L304.413418,95.2372945 L302.201367,94.2705834 L308.608566,79.609485 Z M194.379708,73.3944009 L199.509869,88.5496458 L197.408263,89.2610549 L185.942388,80.7538869 L185.801788,80.8014812 L189.56424,91.9163141 L187.277633,92.6903472 L182.147472,77.5351024 L184.263878,76.8186834 L195.742163,85.3381464 L195.882764,85.2905521 L192.115301,74.1609192 L194.379708,73.3944009 Z M289.436794,72.9367048 C290.257027,73.1556758 290.991931,73.4772019 291.641507,73.901283 C292.291082,74.3253641 292.840068,74.8384923 293.288463,75.4406676 C293.736858,76.0428428 294.060931,76.7169482 294.260682,77.4629836 C294.460434,78.209019 294.514898,79.0146492 294.424075,79.8798742 L292.06905,79.2511722 C292.11281,78.723781 292.062452,78.2359527 291.917976,77.7876872 C291.7735,77.3394216 291.558222,76.9342482 291.272142,76.5721667 C290.986062,76.2100852 290.641003,75.9023381 290.236965,75.6489256 C289.832927,75.395513 289.384335,75.2029811 288.891189,75.0713298 C288.000507,74.8335515 287.144396,74.8448901 286.322857,75.1053458 C285.501317,75.3658014 284.772475,75.8747191 284.136329,76.6320988 C283.500183,77.3894785 283.015531,78.3921491 282.682373,79.6401108 C282.346528,80.8981367 282.265617,82.0139815 282.43964,82.9876455 C282.613662,83.9613094 282.993812,84.7635905 283.580089,85.3944889 C284.166366,86.0253872 284.899814,86.4583822 285.780432,86.6934737 C286.268546,86.8237816 286.750558,86.8810331 287.226466,86.8652281 C287.702375,86.8494232 288.153897,86.758376 288.581032,86.5920866 C289.008167,86.4257973 289.396992,86.1859393 289.747506,85.8725128 C290.09802,85.5590864 290.386908,85.1685622 290.614169,84.7009403 L292.967179,85.3371904 C292.638526,86.0634535 292.209333,86.6968398 291.6796,87.2373492 C291.149867,87.7778586 290.543001,88.2034385 289.859002,88.5140891 C289.175003,88.8247397 288.439624,89.0098158 287.652864,89.0693176 C286.866104,89.1288194 286.047511,89.0450546 285.197086,88.8180234 C283.858546,88.4606842 282.750907,87.8240225 281.874167,86.9080383 C280.997427,85.9920541 280.416908,84.8600068 280.132609,83.5118964 C279.84831,82.1637861 279.925804,80.666982 280.365089,79.0214841 C280.805718,77.3709542 281.486142,76.0337619 282.40636,75.0099071 C283.326579,73.9860524 284.394995,73.2955561 285.611611,72.9384181 C286.828226,72.5812801 288.103287,72.580709 289.436794,72.9367048 Z M216.9959,69.1822839 C217.793826,69.4204177 218.429564,69.819193 218.903115,70.3786098 C219.376666,70.9380265 219.681822,71.6076171 219.818583,72.3873815 C219.93375,73.0440253 219.910141,73.6179299 219.747758,74.1090953 C219.585374,74.6002608 219.326447,75.0158217 218.970976,75.3557781 C218.615505,75.6957345 218.207455,75.9695609 217.746826,76.1772575 L217.773819,76.3311584 C218.30158,76.2650347 218.842767,76.3432938 219.39738,76.5659356 C219.951992,76.7885774 220.443395,77.1558231 220.871588,77.6676727 C221.299781,78.1795224 221.585408,78.8432845 221.728467,79.6589592 C221.869726,80.4643737 221.807837,81.2194909 221.542798,81.9243106 C221.277759,82.6291304 220.785407,83.2363342 220.065744,83.745922 C219.346081,84.2555098 218.375776,84.6173731 217.154829,84.831512 L211.11422,85.8909597 L208.350209,70.1315103 L214.121492,69.1192992 C215.239838,68.9231552 216.197974,68.9441501 216.9959,69.1822839 Z M262.165029,67.7093301 C263.537897,67.8514888 264.730481,68.3061679 265.742783,69.0733674 C266.755084,69.8405669 267.508906,70.8663731 268.004248,72.150786 C268.499591,73.4351988 268.659285,74.9270291 268.48333,76.6262768 C268.307375,78.3255244 267.845392,79.7529809 267.097383,80.9086463 C266.349373,82.0643116 265.401357,82.9138946 264.253335,83.4573953 C263.105312,84.000896 261.844867,84.2015669 260.471999,84.0594082 C259.093951,83.916713 257.898776,83.4617657 256.886474,82.6945662 C255.874173,81.9273667 255.120485,80.9002653 254.625411,79.6132622 C254.130337,78.326259 253.970509,76.8357239 254.145927,75.1416568 C254.321882,73.4424092 254.783865,72.0149527 255.531874,70.8592873 C256.279884,69.703622 257.2279,68.854039 258.375922,68.3105383 C259.523945,67.7670376 260.786981,67.5666349 262.165029,67.7093301 Z M215.765628,77.7700195 L212.248993,78.3867935 L213.134341,83.4347421 L216.56633,82.8328139 C217.705197,82.6330709 218.482182,82.2694205 218.897287,81.7418627 C219.312392,81.2143048 219.461911,80.619639 219.345844,79.9578653 C219.258569,79.4602524 219.052806,79.0257236 218.728556,78.6542786 C218.404305,78.2828337 217.988452,78.0147039 217.480997,77.8498893 C216.973541,77.6850746 216.401752,77.6584514 215.765628,77.7700195 Z M235.498228,66.9156787 L236.010489,80.8281262 L243.255579,80.5613599 L243.332044,82.6380777 L233.674526,82.9936702 L233.085801,67.004505 L235.498228,66.9156787 Z M259.411278,70.3341906 C258.643694,70.7181103 258.005382,71.3327174 257.49634,72.178012 C256.987298,73.0233065 256.665721,74.0935329 256.531609,75.3886912 C256.397497,76.6838494 256.492961,77.7972599 256.818001,78.7289226 C257.143041,79.6605852 257.641878,80.3929427 258.31451,80.925995 C258.987142,81.4590473 259.781944,81.7730491 260.698917,81.8680004 C261.610708,81.9624153 262.451691,81.8177969 263.221865,81.4341454 C263.992039,81.0504939 264.631647,80.4360208 265.140688,79.5907263 C265.64973,78.7454318 265.971307,77.6752054 266.105419,76.3800471 C266.239531,75.0848888 266.144067,73.9714784 265.819027,73.0398157 C265.493987,72.1081531 264.993855,71.3756615 264.318633,70.842341 C263.64341,70.3090204 262.849903,69.9951527 261.938112,69.9007379 C261.021139,69.8057866 260.178862,69.9502708 259.411278,70.3341906 Z M214.330235,71.1687384 L211.082926,71.7382758 L211.923736,76.532288 L215.109484,75.9735475 C215.643007,75.8799742 216.105953,75.6930227 216.49832,75.412693 C216.890688,75.1323632 217.181224,74.7839662 217.36993,74.3675018 C217.558635,73.9510374 217.60845,73.4888687 217.519375,72.9809959 C217.405108,72.3294822 217.080999,71.8231727 216.547048,71.4620673 C216.013098,71.1009619 215.27416,71.0031856 214.330235,71.1687384 Z" id="UBBB" fill="#D6D6D6" fill-rule="nonzero"></path>
    </g>
</svg>