<?xml version="1.0" encoding="UTF-8"?>
<svg viewBox="0 0 33 24" version="1.1" xmlns="http://www.w3.org/2000/svg" xmlns:xlink="http://www.w3.org/1999/xlink">
    <title>bitcoin-stabilization</title>
    <g id="Website" stroke="none" stroke-width="1" fill="none" fill-rule="evenodd">
        <g id="Economy" transform="translate(-580, -927)" fill="#B671B8">
            <path d="M596.120869,949.520616 C594.773782,950.126252 593.343767,950.458019 591.859852,950.509108 L591.453833,950.516077 C585.164246,950.516077 580.047515,945.399346 580.047515,939.109759 C580.047515,932.820172 585.164246,927.70344 591.453833,927.70344 C593.035036,927.70344 594.55927,928.018755 595.990744,928.641295 L596.256515,928.76144 L596.239515,928.75344 L596.354636,928.699458 C597.701468,928.093463 599.131438,927.761527 600.615218,927.710413 L601.021197,927.70344 C607.310784,927.70344 612.427515,932.820172 612.427515,939.109759 C612.427515,945.399346 607.310784,950.516077 601.021197,950.516077 C599.441036,950.516077 597.917694,950.200955 596.486072,949.578661 L596.237515,949.46544 L596.120869,949.520616 Z M601.021197,928.825693 C599.913252,928.825693 598.836823,928.997365 597.805977,929.337626 L597.509515,929.44144 L597.734371,929.584082 C599.1423,930.511865 600.308924,931.724228 601.164167,933.125259 L601.355971,933.45188 C601.379829,933.48377 601.399842,933.518183 601.406394,933.535138 C601.790987,934.226087 602.103723,934.95471 602.326818,935.676156 C602.348483,935.722268 602.363386,935.771154 602.36452,935.790348 C603.268602,938.759399 602.943614,941.97064 601.39893,944.697901 C601.379335,944.734624 601.379335,944.734624 601.376108,944.737504 C601.28662,944.896322 601.190818,945.055879 601.088337,945.21718 C600.705274,945.820217 600.267542,946.38506 599.801007,946.880536 C599.770738,946.922387 599.735764,946.959988 599.720612,946.969058 C599.137298,947.582479 598.488506,948.128627 597.786083,948.597891 L597.507515,948.77544 L597.804017,948.880516 C598.705447,949.178703 599.64294,949.347588 600.606617,949.38515 L601.021197,949.393202 C606.69156,949.393202 611.305263,944.779876 611.305263,939.109759 C611.305263,933.439518 606.691437,928.825693 601.021197,928.825693 Z M591.45386,928.825693 C585.783386,928.826301 581.169767,933.439731 581.169767,939.109759 C581.169767,944.779876 585.78347,949.393202 591.453833,949.393202 C592.562752,949.393202 593.639517,949.221665 594.670326,948.881533 L594.965515,948.77644 L594.741919,948.635372 C593.334122,947.708032 592.16771,946.496485 591.312971,945.096992 L591.121289,944.770739 C591.092152,944.732251 591.068389,944.689711 591.063833,944.673047 C590.681627,943.98682 590.371039,943.263086 590.149031,942.545548 C590.126999,942.498818 590.111731,942.448995 590.110484,942.429032 C589.148421,939.268663 589.579418,935.846793 591.386715,933.001681 C591.769348,932.399535 592.20664,931.835363 592.672134,931.341135 C592.703261,931.297735 592.739171,931.259096 592.754886,931.24984 C593.338349,930.636601 593.987071,930.090576 594.689287,929.621289 L594.966515,929.44244 L594.670986,929.338492 C593.769417,929.040238 592.832054,928.871317 591.868406,928.833746 L591.45386,928.825693 Z M597.919515,947.11044 L594.554515,947.11044 L594.655866,947.193092 C595.075815,947.521923 595.522706,947.819327 595.993542,948.082689 L596.236515,948.21244 L596.481488,948.082689 C596.952324,947.819327 597.399215,947.521923 597.819163,947.193092 L597.919515,947.11044 Z M599.905515,944.98544 L592.568515,944.98544 L592.730235,945.212491 C592.876449,945.410726 593.029908,945.603704 593.190346,945.791061 L593.363515,945.98644 L599.110515,945.98644 L599.284683,945.791061 C599.445122,945.603704 599.598581,945.410726 599.744794,945.212491 L599.905515,944.98544 Z M601.037515,942.85944 L591.436515,942.85944 L591.452826,942.903404 C591.550817,943.152207 591.658487,943.396859 591.775587,943.636846 L591.890515,943.86144 L600.583515,943.86144 L600.699443,943.636846 C600.816543,943.396859 600.924213,943.152207 601.022204,942.903404 L601.037515,942.85944 Z M601.609515,940.73344 L590.864515,940.73344 L590.878344,940.823869 C590.919317,941.07084 590.969154,941.315726 591.027732,941.558124 L591.073515,941.73644 L601.400515,941.73644 L601.447298,941.558124 C601.505875,941.315726 601.555712,941.07084 601.596685,940.823869 L601.609515,940.73344 Z M601.723515,938.60844 L590.750515,938.60844 L590.744128,938.742158 L590.737754,939.109759 L590.744135,939.477556 L590.750515,939.61044 L601.723515,939.61044 L601.730895,939.477556 L601.737276,939.109759 L601.730902,938.742158 L601.723515,938.60844 Z M601.400515,936.48244 L591.073515,936.48244 L591.027654,936.661714 C590.969102,936.904043 590.919285,937.148859 590.878326,937.395758 L590.864515,937.48544 L601.609515,937.48544 L601.596704,937.395758 C601.555745,937.148859 601.505928,936.904043 601.447375,936.661714 L601.400515,936.48244 Z M600.583515,934.35744 L591.890515,934.35744 L591.775525,934.582799 C591.658401,934.822845 591.550711,935.067557 591.452704,935.316422 L591.436515,935.35944 L601.037515,935.35944 L601.022326,935.316422 C600.924319,935.067557 600.816629,934.822845 600.699505,934.582799 L600.583515,934.35744 Z M599.109515,932.23144 L593.364515,932.23144 L593.190775,932.427956 C593.030183,932.615467 592.876583,932.80861 592.730241,933.007018 L592.568515,933.23344 L599.905515,933.23344 L599.744788,933.007018 C599.598447,932.80861 599.444846,932.615467 599.284255,932.427956 L599.109515,932.23144 Z M596.237515,930.00644 L595.993542,930.136828 C595.522706,930.400191 595.075815,930.697595 594.655866,931.026426 L594.553515,931.10844 L597.920515,931.10844 L597.819163,931.026426 C597.399215,930.697595 596.952324,930.400191 596.481488,930.136828 L596.237515,930.00644 Z" id="bitcoin-stabilization"></path>
        </g>
    </g>
</svg>