<?xml version="1.0" encoding="UTF-8"?>
<svg width="28px" height="25.7383186px" viewBox="0 0 28 25.7383186" version="1.1" xmlns="http://www.w3.org/2000/svg" xmlns:xlink="http://www.w3.org/1999/xlink">
    <title>data-tools</title>
    <g id="Website" stroke="none" stroke-width="1" fill="none" fill-rule="evenodd">
        <g id="Ulixee" transform="translate(-181.346, -250.3612)" fill="#000000" fill-rule="nonzero">
            <g id="DATANET-MENU" transform="translate(122.1115, 37.9778)">
                <path d="M71.6205285,214.1537 L72.3958279,215.575634 C72.7377014,216.202691 72.4974622,216.93697 71.8670181,217.280567 L71.8563308,217.286188 C71.8491515,217.289829 71.8418649,217.293256 71.8344807,217.296466 L71.4245835,217.474598 C71.0748726,217.648509 70.6530394,217.517676 70.4669577,217.176445 L69.986127,216.294398 C69.946453,216.221588 69.8636541,216.183501 69.7825993,216.200741 L67.9974948,216.579384 L68.4624948,218.767384 L73.2634948,218.767384 L73.2639838,217.456953 C73.2639838,216.28609 74.2132067,215.336868 75.3840688,215.336868 C76.5549747,215.336868 77.504208,216.28608 77.504208,217.456953 L77.5034948,218.767384 L78.9414948,218.767384 L79.734949,216.589115 C79.8378774,216.306345 80.1062455,216.118355 80.4071148,216.118355 L81.6753779,216.118355 C81.9765255,216.118355 82.2459163,216.306809 82.3480472,216.590506 L83.1404948,218.767384 L86.2831059,218.768244 C86.6557971,218.768244 86.963543,219.044932 87.0122459,219.404211 L87.0189601,219.504098 L87.0189601,223.673396 C87.0189601,223.898175 86.8367404,224.080395 86.6119611,224.080395 L86.600569,224.080238 C86.3810572,224.074205 86.2049621,223.894365 86.2049621,223.673396 L86.2049214,219.582282 L85.2395198,219.582282 L85.2394948,227.555384 L86.2044948,227.555384 L86.2049621,225.572735 C86.2049621,225.372931 86.3870609,225.206755 86.6271986,225.172293 L86.7197285,225.165736 C87.0040261,225.165736 87.2344948,225.347956 87.2344948,225.572735 L87.2344948,229.726784 C87.2344948,229.862918 87.1499607,229.983441 87.0201314,230.05733 L87.0189601,237.330985 C87.0189601,237.767675 86.6649326,238.121703 86.2282424,238.121703 L60.0252125,238.121703 C59.5885223,238.121703 59.2344948,237.767675 59.2344948,237.330985 L59.2344948,219.503995 C59.2344948,219.09751 59.5639604,218.768195 59.9704033,218.768195 L65.3934948,218.767384 L65.0614948,217.203384 L63.8007947,217.472164 C63.4119487,217.555025 63.0294254,217.306574 62.9467727,216.917533 L62.9354948,216.863384 L62.3283791,216.993122 L62.376303,217.218407 C62.4386396,217.512893 62.2505466,217.801347 61.9572585,217.863886 L60.6444226,218.143386 C60.3496297,218.205788 60.0604251,218.017407 59.9981544,217.723232 L59.3833899,214.831723 C59.321051,214.537226 59.509144,214.248772 59.8024321,214.186233 L61.1154412,213.907293 L61.1278054,213.904726 C61.416251,213.848323 61.6999478,214.035935 61.7615361,214.326887 L61.8092926,214.551616 L62.4154948,214.422384 L62.4050396,214.369059 C62.3293027,214.012455 62.5315576,213.661604 62.865327,213.541797 L62.9595056,213.51502 L64.6036369,213.16556 C64.8235045,213.118827 65.039627,213.25918 65.0863599,213.479048 L65.0885755,213.490223 C65.1283123,213.706193 64.9890129,213.91583 64.7728718,213.961771 L63.220745,214.291662 L63.6454948,216.292384 L63.6489127,216.308215 L63.7234295,216.656448 L65.281733,216.325084 L65.2984948,216.321384 L69.6133069,215.404542 L69.62916,215.401303 C70.0572801,215.317387 70.4915052,215.520639 70.7008644,215.904855 L71.1401318,216.710701 L71.4912092,216.558117 L71.501035,216.552346 C71.7274131,216.416337 71.7984447,216.180425 71.6811531,215.965291 L70.9058532,214.543356 C70.3593755,213.541012 69.2194073,213.016691 68.102657,213.254029 L66.6722603,213.558081 C66.4523933,213.604817 66.2362689,213.464467 66.1895329,213.2446 C66.1427969,213.024733 66.2831472,212.808608 66.5030142,212.761872 L67.9334258,212.457817 C69.4023035,212.145642 70.9017357,212.835297 71.6205285,214.1537 Z M86.2049356,228.369925 L60.0484522,228.369925 L60.0484522,237.307746 L86.2049356,237.307746 L86.2049356,228.369925 Z M75.8471414,230.097365 C76.2217568,230.097365 76.525473,230.401039 76.525473,230.775696 L76.525473,232.566492 C76.525473,232.941149 76.2217568,233.244824 75.8471414,233.244824 L70.4063244,233.244824 C70.031709,233.244824 69.7279928,232.941149 69.7279928,232.566492 L69.7279928,230.775696 C69.7279928,230.401039 70.031709,230.097365 70.4063244,230.097365 Z M75.711448,230.911376 L70.5419501,230.911376 L70.5419501,232.430866 L75.711448,232.430866 L75.711448,230.911376 Z M61.0139759,219.582233 L60.0484522,219.582233 L60.0474948,227.555384 L61.0134948,227.555384 L61.0138945,225.572724 C61.0138945,225.37292 61.1959932,225.206744 61.4361309,225.172283 L61.5286609,225.165725 C61.8129585,225.165725 62.0434272,225.347945 62.0434272,225.572724 L62.0424948,227.555384 L67.2604948,227.555384 L65.9854948,221.554384 L61.8274948,221.554384 L61.828001,223.673618 C61.828001,223.8703 61.6884891,224.034397 61.5030265,224.072348 L61.421002,224.080617 L61.4096099,224.080461 C61.1900981,224.074428 61.014003,223.894588 61.014003,223.673618 L61.0139759,219.582233 Z M67.2004948,216.749384 L65.8574948,217.034384 L68.0924948,227.555384 L69.4964948,227.555384 L68.2200951,221.554003 C68.172853,221.469928 68.145076,221.367135 68.145076,221.256136 L68.1468118,221.208275 L67.8006148,219.580856 C67.7533727,219.496781 67.7255956,219.393987 67.7255956,219.282988 C67.7255956,219.267537 67.7261339,219.252245 67.7271879,219.237141 L67.2004948,216.749384 Z M73.2634948,221.770384 L69.1004948,221.770384 L70.3294948,227.555384 L73.8174948,227.555384 L73.8174948,225.616384 L73.3932413,225.61674 C72.7439088,225.61674 72.2098387,225.123188 72.1456164,224.490763 L72.1391417,224.362532 C72.1391417,223.713558 72.6321069,223.179705 73.2639985,223.115011 L73.2634948,221.770384 Z M76.1054948,225.616384 L74.8464948,225.616384 L74.8464948,227.555384 L76.1054948,227.555384 L76.1054948,225.616384 Z M84.4254948,221.554384 L82.2974948,221.554384 L82.2974948,227.555384 L84.4254948,227.555384 L84.4254948,221.554384 Z M81.6061937,216.932393 L80.4762017,216.932393 L79.6624356,219.16743 L79.6444948,219.232384 L79.6490439,219.282988 C79.6490439,219.306085 79.6478412,219.328827 79.6455106,219.351119 C79.6503825,219.41487 79.6744858,219.476999 79.7136331,219.531222 L80.3759456,220.446308 C80.520324,220.644619 80.598133,220.884702 80.598133,221.131497 L80.5974948,227.555384 L81.4834948,227.555384 L81.4843055,221.131497 C81.4843055,220.885392 81.5622355,220.6456 81.7065053,220.446291 L82.3690872,219.530832 L82.3767662,219.51981 C82.4465291,219.415955 82.4628193,219.285085 82.4199787,219.167363 L81.6061937,216.932393 Z M79.7834948,221.770384 L77.5034948,221.770384 L77.5041743,223.11501 C78.1360698,223.1797 78.6290392,223.713555 78.6290392,224.362532 C78.6290392,225.055187 78.0675609,225.61674 77.3749396,225.61674 L77.1344948,225.616384 L77.1344948,227.555384 L79.7834948,227.555384 L79.7834948,221.770384 Z M77.3749396,223.92243 L73.3932413,223.92243 C73.1501888,223.92243 72.9531397,224.119479 72.9531397,224.362532 C72.9531397,224.605653 73.1502029,224.802742 73.3932413,224.802742 L77.3749396,224.802742 C77.617978,224.802742 77.8150412,224.605653 77.8150412,224.362532 C77.8150412,224.119479 77.6179921,223.92243 77.3749396,223.92243 Z M75.3840688,216.150866 C74.6627653,216.150866 74.0779818,216.735649 74.0779818,217.456953 L74.0774948,223.108384 L76.6894948,223.108384 L76.69021,217.456953 C76.69021,216.735643 76.10542,216.150866 75.3840688,216.150866 Z M84.4255354,219.582261 L83.22417,219.582452 C83.1879097,219.733456 83.1223424,219.878147 83.0287361,220.007755 L82.4974948,220.740384 L84.4255354,220.741394 L84.4255354,219.582261 Z M65.5664948,219.581384 L61.8279495,219.582261 L61.8279495,220.741394 L65.8124948,220.740384 L65.5664948,219.581384 Z M73.2634948,219.797384 L68.6814948,219.797384 L68.8814948,220.740384 L73.2634948,220.740384 L73.2634948,219.797384 Z M77.5034948,219.797384 L77.5034948,220.740384 L79.5834948,220.740384 L79.0539447,220.008091 C79.0061333,219.941867 78.9656319,219.871734 78.9326071,219.798852 L77.5034948,219.797384 Z M61.0213018,214.759471 L60.2356716,214.926381 L60.7384375,217.291167 L61.5239863,217.123891 L61.4737344,216.887328 C61.4120236,216.599347 61.5962373,216.315172 61.8855501,216.254995 L62.7654948,216.067384 L62.5854948,215.218384 L61.7035074,215.406224 L61.6910526,215.408761 C61.4088243,215.462776 61.1330323,215.280469 61.0718982,214.99744 L61.0213018,214.759471 Z" id="data-tools"></path>
            </g>
        </g>
    </g>
</svg>