<?xml version="1.0" encoding="UTF-8"?>
<svg width="34.7999446px" height="21.4154905px" viewBox="0 0 34.7999446 21.4154905" version="1.1" xmlns="http://www.w3.org/2000/svg" xmlns:xlink="http://www.w3.org/1999/xlink">
    <title>data-brokers</title>
    <g id="Website" stroke="none" stroke-width="1" fill="none" fill-rule="evenodd">
        <g id="Ulixee" transform="translate(-423.749, -202.8505)" fill="#000000" fill-rule="nonzero">
            <g id="DATANET-MENU" transform="translate(122.1115, 37.9778)">
                <path d="M331.63745,164.939057 C332.12388,164.747224 332.673767,164.986002 332.865613,165.472343 L334.217144,168.898098 L335.096237,171.126524 L336.371112,174.358144 C336.563069,174.84458 336.324325,175.394426 335.837836,175.586356 L333.048433,176.686804 C332.671649,176.835433 332.245985,176.727316 331.985093,176.426079 L331.976319,176.415794 L331.846211,176.396572 L329.851994,177.677481 L329.814694,177.802319 L329.822381,177.819572 C330.102608,178.464888 330.026485,179.208624 329.602679,179.770306 L329.582092,179.797108 C329.132279,180.372649 328.408012,180.640318 327.707475,180.517203 L327.546488,180.481742 L327.418928,180.578005 C327.392016,181.04194 327.201351,181.482702 326.870716,181.822854 L326.848763,181.845091 C326.394636,182.298184 325.744852,182.489747 325.106346,182.370436 L324.987508,182.467526 L324.987349,182.481765 C324.977528,182.928096 324.815534,183.359389 324.519636,183.705064 L324.500014,183.727644 C323.974456,184.323655 323.132411,184.529744 322.377889,184.264521 L322.352269,184.25528 L322.218456,184.343506 C322.173824,184.757197 321.998085,185.14761 321.709333,185.458498 L321.689389,185.479661 C321.0125,186.187934 319.895477,186.272421 319.092879,185.680141 L318.345976,185.128883 L318.210466,185.144498 L317.768058,185.663891 C317.150191,186.392559 316.066463,186.497958 315.317698,185.903382 L315.294483,185.884639 L315.275384,185.868669 C314.906095,185.555531 314.687034,185.112784 314.655379,184.638457 L314.654171,184.618235 L314.536095,184.525671 C314.079002,184.57361 313.618596,184.442899 313.250176,184.150345 L313.226961,184.131602 L313.207861,184.115632 C312.838606,183.802522 312.619511,183.359788 312.587755,182.885516 L312.586535,182.865162 L312.468628,182.7726 C312.011479,182.820545 311.551074,182.689834 311.182654,182.397281 L311.159439,182.378537 L311.140339,182.362567 C310.771468,182.049783 310.552434,181.6076 310.52035,181.133809 L310.518989,181.111904 L310.4008,181.019609 C309.943985,181.067515 309.483579,180.936804 309.115159,180.644251 L309.091944,180.625507 L309.072844,180.609537 C308.402009,180.040705 308.254203,179.066802 308.720232,178.319948 L308.692988,178.185071 L308.314057,177.918676 L306.101008,176.522814 L305.977906,176.53548 C305.719448,176.749789 305.362974,176.813107 305.041909,176.692701 L305.025703,176.686461 L302.237046,175.586371 C301.750688,175.394445 301.511962,174.844597 301.703804,174.358144 L305.20929,165.472442 C305.401144,164.985962 305.951092,164.747153 306.437515,164.939105 L309.226807,166.03951 C309.668303,166.213623 309.911152,166.687052 309.799638,167.143595 L309.796111,167.157396 L309.854406,167.27437 L310.757226,167.652145 C311.097353,167.794468 311.464853,167.858939 311.832792,167.840954 L311.870057,167.838847 C312.114818,167.823119 312.37184,167.823592 312.658501,167.839695 L314.535468,167.945106 C315.203125,167.982648 315.862199,168.112647 316.493789,168.331318 L316.546722,168.349866 L316.649281,168.327402 L316.67765,168.299988 C316.837749,168.14456 316.996987,167.98712 317.155316,167.827757 L317.222495,167.75997 C317.784074,167.191919 318.58617,166.929474 319.376684,167.05481 L321.322716,167.363244 L323.700092,167.740105 L325.211657,167.979694 C325.719922,168.060196 326.240264,168.008939 326.722794,167.830829 L328.217359,167.279059 L328.278934,167.157962 C328.159982,166.704304 328.395147,166.227069 328.832763,166.045688 L328.848865,166.039179 Z M318.201346,182.243167 C317.809126,181.986873 317.278317,182.057123 316.966868,182.424421 L316.993488,182.446742 L316.965589,182.425914 L316.807253,182.611617 L316.791505,182.63018 L316.779272,182.644083 C316.641394,182.796286 316.458999,182.821754 316.289677,182.73131 L316.16626,182.885148 C316.278807,183.033307 316.282629,183.217435 316.153301,183.378926 L316.141325,183.393403 L315.700545,183.910824 C315.364163,184.307528 315.412107,184.902429 315.806579,185.236943 L315.821139,185.249114 C316.219485,185.575941 316.805704,185.522592 317.139144,185.129358 L318.405539,183.642804 C318.60416,183.408565 318.674002,183.097668 318.601537,182.805466 L318.597828,182.791255 C318.594264,182.777786 318.594264,182.777786 318.591622,182.768601 L318.586366,182.75128 C318.535219,182.588116 318.441474,182.442266 318.31176,182.327448 L318.296307,182.31406 Z M306.134577,165.706885 C306.072185,165.682264 306.001704,165.712919 305.977103,165.775298 L302.471617,174.661 C302.447023,174.723363 302.477577,174.793964 302.539977,174.818588 L305.329428,175.918987 C305.391775,175.94359 305.462255,175.913002 305.486852,175.850631 L305.802293,175.051021 L305.809465,175.033644 C306.020459,174.542918 306.768965,174.849793 306.570092,175.353913 L306.446008,175.668352 L306.485683,175.789643 L308.761153,177.224705 C308.765505,177.227475 308.765505,177.227475 308.76981,177.230318 L308.779352,177.236857 L309.230015,177.553609 L309.363653,177.536629 L309.396004,177.498638 L310.135481,176.63068 C310.302817,176.433337 310.5071,176.278156 310.736169,176.171419 L310.761395,176.159912 C310.77366,176.154467 310.77366,176.154467 310.786251,176.149032 L310.797153,176.144404 L310.837044,176.128189 L310.862536,176.11842 L310.88836,176.10898 C310.922428,176.096821 310.957067,176.085652 310.992026,176.075557 L311.002445,176.072621 L311.018954,176.068012 L311.036404,176.063384 L311.053296,176.05907 L311.071665,176.054556 L311.098203,176.048422 C311.221338,176.02093 311.347867,176.006613 311.474753,176.005875 L311.525928,176.006261 C311.674932,176.010009 311.819719,176.031543 311.960155,176.07069 L311.975459,176.075075 L311.987155,176.078447 L312.047731,176.097587 L312.065857,176.103776 L312.080744,176.109068 L312.091841,176.113049 C312.126028,176.125541 312.160382,176.139338 312.194304,176.154227 L312.220346,176.165913 C312.245134,176.177434 312.245134,176.177434 312.270276,176.18977 L312.281201,176.195316 L312.295986,176.202809 L312.307136,176.208674 L312.320682,176.215859 L312.329983,176.220964 L312.34555,176.229493 C312.436082,176.280068 312.523115,176.339354 312.605123,176.406627 L312.628223,176.425897 C312.997425,176.738962 313.216519,177.181696 313.248276,177.655969 L313.24944,177.675823 L313.359751,177.7694 L313.380382,177.767225 C313.433696,177.76202 313.48799,177.759216 313.542319,177.758902 L313.570249,177.758959 C313.97947,177.762843 314.375814,177.907661 314.695127,178.17842 C315.064951,178.491964 315.284046,178.934689 315.315804,179.408974 L315.316973,179.428879 L315.427226,179.522453 L315.447836,179.520293 C315.501208,179.515081 315.555503,179.512277 315.60983,179.511962 L315.63779,179.512021 C315.791918,179.513491 315.945995,179.535194 316.102548,179.578883 L316.122264,179.584558 C316.147924,179.592297 316.147924,179.592297 316.174153,179.600803 L316.189965,179.606139 L316.207091,179.612055 L316.226954,179.619168 L316.237948,179.623308 L316.253156,179.628985 L316.264835,179.633572 L316.287219,179.642506 L316.304433,179.64961 C316.355332,179.670999 316.40584,179.695116 316.455212,179.721669 L316.464922,179.726995 L316.480505,179.73555 C316.516698,179.756162 316.516698,179.756162 316.556901,179.780866 L316.577836,179.794157 C316.633422,179.830091 316.687839,179.869799 316.740195,179.912755 L316.763293,179.932025 C316.78491,179.950567 316.78491,179.950567 316.806618,179.970006 L316.828337,179.990025 L316.838526,179.999635 L316.870119,180.030378 C316.930249,180.09038 316.986125,180.154883 317.036941,180.222905 L317.053963,180.246099 C317.077841,180.279724 317.077841,180.279724 317.105436,180.321574 L317.116036,180.338101 L317.131023,180.362318 C317.137775,180.373503 317.137775,180.373503 317.144817,180.385439 L317.152542,180.398836 L317.158992,180.410063 C317.16542,180.421514 317.16542,180.421514 317.177171,180.443171 L317.185411,180.458603 C317.19144,180.470181 317.19144,180.470181 317.201236,180.489696 L317.213303,180.514393 L317.222104,180.532827 C317.314024,180.730093 317.3687,180.943931 317.383306,181.16206 L317.384449,181.181836 L317.494661,181.275505 L317.51531,181.27335 C317.528171,181.272131 317.528171,181.272131 317.544891,181.270691 L317.569458,181.268903 C317.595908,181.267272 317.595908,181.267272 317.623047,181.266147 L317.6509,181.265364 L317.705356,181.265057 C317.93343,181.267225 318.159902,181.313551 318.371311,181.402383 L318.384854,181.408172 L318.397378,181.413589 C318.543539,181.477745 318.681509,181.562259 318.807671,181.665754 L318.83077,181.685022 C318.998488,181.827242 319.136312,181.99709 319.239564,182.186664 L319.245364,182.197616 L319.253022,182.211873 C319.271473,182.247763 319.271473,182.247763 319.293026,182.293508 L319.305263,182.320707 L319.315926,182.34545 L319.322504,182.36115 C319.332475,182.385846 319.332475,182.385846 319.343502,182.415064 L319.351846,182.43785 C319.356118,182.449939 319.356118,182.449939 319.362107,182.467681 L319.371036,182.494927 L319.377516,182.515561 L319.385341,182.541932 C319.395127,182.575864 319.404118,182.611053 319.412023,182.646493 L319.416488,182.668742 L319.423214,182.700592 C319.425569,182.713116 319.425569,182.713116 319.42795,182.726498 L319.432536,182.753958 L319.436918,182.782728 C319.44025,182.807084 319.44025,182.807084 319.443436,182.834063 L319.44453,182.844934 L319.44636,182.861994 C319.449774,182.897072 319.452187,182.933225 319.453495,182.969424 L319.454343,182.998571 C319.463008,183.415528 319.324292,183.824532 319.053241,184.154851 L319.033947,184.177975 L318.877079,184.362066 L318.893812,184.507382 L319.582996,185.01603 C320.045357,185.357231 320.686523,185.318159 321.078252,184.924188 L321.092511,184.909568 C321.467819,184.516926 321.508288,183.912952 321.193267,183.475451 C320.918214,183.093458 321.394469,182.622738 321.77322,182.902239 L322.340615,183.320949 C322.82317,183.677079 323.497393,183.616707 323.881427,183.181188 C324.234573,182.78072 324.256268,182.187299 323.938802,181.763831 L323.930974,181.75356 L322.337966,180.522822 C322.160967,180.386552 322.124661,180.134243 322.255404,179.953852 L322.263594,179.942908 C322.401762,179.763459 322.660883,179.72977 322.841483,179.868812 L324.459001,181.114088 L324.775827,181.347901 C325.229806,181.682928 325.857285,181.652463 326.250711,181.275524 L326.265608,181.260967 C326.662337,180.865138 326.706791,180.239806 326.371512,179.78782 L324.577187,178.40078 C324.400241,178.264439 324.364034,178.012116 324.494849,177.831777 L324.503043,177.820836 C324.641282,177.641442 324.900417,177.607855 325.080962,177.746969 L326.902305,179.150301 L327.37746,179.501088 C327.861524,179.858274 328.540423,179.771418 328.919219,179.30458 L328.931709,179.288902 L329.002649,179.186538 C329.281249,178.730498 329.187007,178.122397 328.781778,177.749784 L328.682488,177.667742 L328.352338,177.424303 L328.001082,177.165089 L325.88193,175.601117 L324.799535,174.802292 L324.604888,174.665438 L324.516864,174.650589 C323.199388,174.833805 321.946568,174.648311 320.778196,174.116833 L320.737839,174.098322 C320.2788,173.886045 319.846146,173.62724 319.442013,173.326412 L319.420109,173.310005 L319.40112,173.295777 C319.359933,173.264518 319.359933,173.264518 319.318189,173.232187 L319.304428,173.221411 L319.277706,173.200526 C319.237483,173.168659 319.237483,173.168659 319.193471,173.133096 L319.155705,173.102242 C318.935153,172.920801 318.72523,172.727046 318.527094,172.522785 L318.492691,172.48709 C318.40515,172.395657 318.25826,172.393401 318.161487,172.480327 C316.817187,173.687663 315.601036,174.317521 314.509735,174.393824 C314.187039,174.416386 313.880147,174.390825 313.590384,174.318957 L313.555806,174.310091 L313.533126,174.304095 C313.491553,174.292581 313.491553,174.292581 313.449807,174.280051 L313.426646,174.272791 L313.415564,174.269272 L313.393986,174.262305 C313.330691,174.241433 313.267733,174.218018 313.205717,174.192279 L313.178839,174.180939 L313.164554,174.174727 L313.152388,174.169473 C313.074749,174.135297 312.998022,174.097091 312.922889,174.055193 L312.906967,174.046176 L312.897409,174.040804 C312.766643,173.96611 312.640285,173.879745 312.519205,173.78243 L312.496345,173.763877 C312.474361,173.745745 312.474361,173.745745 312.44634,173.721962 L312.429779,173.707737 C312.386361,173.669608 312.386361,173.669608 312.343341,173.629939 L312.318351,173.606306 L312.30414,173.592543 C312.232384,173.521737 312.170124,173.443033 312.114267,173.351189 L312.106612,173.338322 L312.095668,173.319128 C312.085107,173.299803 312.081587,173.293362 312.075995,173.282367 L312.059929,173.249852 L312.045119,173.217588 C312.04022,173.206574 312.037428,173.19977 312.02905,173.179358 L312.013252,173.137616 C311.996262,173.090147 311.982127,173.041049 311.970135,172.986557 L311.966452,172.969084 C311.96243,172.94853 311.96243,172.94853 311.95813,172.92319 L311.955251,172.904757 C311.952343,172.884111 311.952343,172.884111 311.949814,172.862553 L311.947627,172.841076 L311.944196,172.795291 L311.943215,172.77523 C311.937675,172.638814 311.954974,172.501106 311.994386,172.369256 L311.99742,172.359332 L312.000979,172.347917 C312.004132,172.338116 312.004132,172.338116 312.007581,172.327796 L312.015016,172.306382 C312.041745,172.231563 312.076069,172.158702 312.117292,172.089719 L312.128971,172.070564 C312.220416,171.923612 312.342712,171.796749 312.491148,171.697511 L312.511935,171.683898 C313.541291,171.023206 314.619488,170.182836 315.717567,169.195226 L315.782913,169.136237 L315.740855,168.965171 L315.704679,168.955849 C315.325355,168.859584 314.93823,168.798307 314.547799,168.772757 L314.489617,168.769216 L312.612214,168.663779 C312.358871,168.649548 312.133943,168.648976 311.923796,168.662483 C311.416339,168.695134 310.908007,168.609967 310.438625,168.41356 L309.562472,168.046914 L309.430846,168.102464 L307.050277,174.136685 C306.851398,174.640803 306.09498,174.353982 306.276386,173.849944 L306.283025,173.832377 L308.856305,167.309659 L308.992383,166.964748 C309.013662,166.910825 308.99374,166.849799 308.94566,166.818518 L308.933063,166.811454 Z M311.482803,176.831328 L311.463755,176.831569 C311.195712,176.837559 310.941569,176.956328 310.764446,177.165267 L309.707532,178.405715 L309.498004,178.651694 C309.166616,179.042508 309.207752,179.626923 309.588484,179.964326 L309.603212,179.977102 L309.6186,179.989982 C310.016789,180.316681 310.603033,180.263615 310.940564,179.865653 C311.281616,179.477433 311.853847,179.935403 311.613189,180.338423 L311.565258,180.405016 L311.551772,180.421285 C311.234871,180.81305 311.281421,181.385436 311.655996,181.717371 L311.686095,181.743012 C312.084284,182.069711 312.67053,182.016645 313.003346,181.624152 L313.015725,181.610007 C313.37338,181.213253 313.983362,181.744627 313.632874,182.157962 C313.29664,182.554491 313.344585,183.149392 313.739057,183.483905 L313.753617,183.496077 C314.121318,183.797761 314.649103,183.775515 314.990375,183.461031 L315.070152,183.377997 L315.513973,182.857018 C315.654445,182.692115 315.841866,182.662626 316.016252,182.755714 L316.139448,182.601758 C316.026878,182.453511 316.023093,182.269385 316.15246,182.107933 L316.164434,182.093465 L316.173382,182.082974 L316.338008,181.889777 C316.493403,181.706516 316.570888,181.47566 316.560835,181.236547 L316.560105,181.222611 C316.544671,180.974182 316.433309,180.741745 316.239242,180.570022 L316.229698,180.561748 L316.213665,180.548447 C316.181109,180.522758 316.181109,180.522758 316.14282,180.496102 L316.125102,180.484523 L316.115218,180.478291 C315.970052,180.38842 315.805285,180.340588 315.636985,180.337501 L315.599722,180.337554 C315.548148,180.338677 315.497522,180.343867 315.444625,180.35362 L315.429488,180.356613 L315.411232,180.36054 C315.400938,180.362899 315.400938,180.362899 315.38475,180.36693 L315.373932,180.369752 L315.318245,180.386563 L315.300656,180.392658 C315.282155,180.39943 315.282155,180.39943 315.264298,180.406528 L315.247412,180.413582 C315.211313,180.429655 315.211313,180.429655 315.17043,180.450785 L315.156735,180.458324 L315.143568,180.465895 C315.063387,180.51282 314.990792,180.571074 314.922446,180.645074 L314.914134,180.654317 L314.90094,180.66952 C314.894577,180.676948 314.894577,180.676948 314.888877,180.683336 L314.87586,180.697342 C314.571949,181.014212 314.046768,180.667947 314.18503,180.281001 L314.190206,180.267351 L314.19509,180.255623 C314.202934,180.237685 314.212008,180.220255 314.224321,180.200066 L314.239932,180.176325 L314.249452,180.163187 L314.262063,180.146933 L314.27145,180.135646 L314.283094,180.121613 L314.301241,180.098501 L314.314613,180.080667 L314.320597,180.07235 L314.331039,180.057339 L314.342311,180.040428 L314.352668,180.024145 L314.358474,180.014608 L314.363551,180.00624 L314.386375,179.965221 L314.392069,179.954391 C314.401478,179.935576 314.401478,179.935576 314.409742,179.917785 L314.41712,179.901165 C314.421536,179.890857 314.421536,179.890857 314.425241,179.881832 L314.431998,179.86471 C314.439191,179.84554 314.439191,179.84554 314.446887,179.822804 L314.451105,179.809897 L314.456676,179.791491 L314.467027,179.753023 L314.470511,179.738095 L314.475205,179.7167 L314.47938,179.694976 L314.482166,179.678788 C314.490445,179.627459 314.494461,179.576592 314.494371,179.525664 L314.494151,179.50766 C314.488424,179.245663 314.375759,178.997526 314.176771,178.821365 L314.162117,178.808661 C314.11483,178.768557 314.06513,178.734012 314.012764,178.704583 L313.978555,178.68628 C313.969114,178.681522 313.969114,178.681522 313.960273,178.677226 L313.943538,178.669371 L313.925045,178.661149 L313.904253,178.652475 L313.889362,178.646619 L313.871276,178.63989 C313.851929,178.633084 313.851929,178.633084 313.833493,178.627178 L313.815892,178.621885 C313.460681,178.518837 313.075124,178.631431 312.831921,178.918286 L312.646192,179.136185 L312.389523,179.437468 C312.038081,179.849982 311.415336,179.333556 311.750257,178.915484 L311.762188,178.901074 L312.202998,178.383674 C312.349813,178.210532 312.427229,177.994796 312.426838,177.772629 L312.426643,177.755075 L312.426369,177.744268 L312.425887,177.732097 L312.425072,177.716523 C312.409644,177.468095 312.298291,177.235673 312.10927,177.068357 L312.094617,177.055656 C311.920799,176.908244 311.705037,176.830846 311.482803,176.831328 Z M319.247456,167.870015 C318.719526,167.786311 318.184057,167.96134 317.809562,168.340152 C316.19899,169.969422 314.543339,171.36083 312.957007,172.37903 C312.89863,172.4165 312.851709,172.466806 312.819045,172.525741 L312.805961,172.551467 C312.736229,172.702602 312.763048,172.880703 312.879108,173.000187 L312.889084,173.010082 C313.00178,173.117196 313.118757,173.208464 313.241801,173.284996 L313.256157,173.293762 L313.264511,173.298903 L313.312802,173.327131 L313.323132,173.332854 L313.348852,173.347025 L313.384861,173.365899 C313.434716,173.391357 313.484848,173.414273 313.535889,173.434949 L313.57136,173.448906 C313.577099,173.45109 313.582171,173.452957 313.597386,173.458559 L313.612887,173.464191 C313.648639,173.476868 313.684063,173.488256 313.719901,173.498617 L313.738278,173.503771 L313.755287,173.508396 L313.773286,173.513207 L313.808882,173.521981 L313.82845,173.52656 C313.894044,173.541391 313.96019,173.552817 314.027633,173.560984 L314.052881,173.563854 L314.06257,173.564823 L314.085201,173.567131 C314.100724,173.568532 314.100724,173.568532 314.115492,173.56972 L314.141205,173.571534 L314.151682,173.572078 L314.174298,173.573493 C314.255121,173.577544 314.336969,173.577179 314.420574,173.572408 L314.451486,173.570447 C315.352013,173.507476 316.409616,172.94424 317.609965,171.866215 C318.038286,171.481477 318.693062,171.502918 319.089086,171.916432 C319.224715,172.058056 319.36697,172.194379 319.515327,172.324584 L319.551484,172.356111 C319.570965,172.372922 319.570965,172.372922 319.590023,172.3892 L319.610442,172.406469 L319.627815,172.421157 C319.686386,172.469949 319.686386,172.469949 319.74542,172.517638 L319.76416,172.532545 L319.786363,172.550208 L319.803558,172.563646 L319.824818,172.580305 L319.83636,172.589197 L319.864279,172.610722 C320.227895,172.888854 320.617774,173.128286 321.030908,173.324017 L321.079726,173.346891 C322.177008,173.855268 323.353118,174.014228 324.603639,173.801806 L324.617837,173.799653 L324.632755,173.797392 C324.732844,173.783673 324.836171,173.808164 324.920819,173.866302 L324.933622,173.875437 L325.285638,174.135217 L328.491193,176.500974 L329.175468,177.005969 L329.210582,177.031904 L329.324035,177.035603 L331.524098,175.62247 L331.563078,175.501634 L329.041403,169.109648 L328.645143,168.105182 L328.517485,168.048069 L327.008619,168.605143 C326.406239,168.827491 325.757531,168.894806 325.122171,168.80098 L325.081972,168.794828 L323.570872,168.555311 L321.1935,168.17845 Z M331.97826,165.698555 L331.940306,165.70687 L329.151012,166.807275 C329.088683,166.831872 329.057956,166.902376 329.082565,166.964761 L330.966571,171.740402 L332.484395,175.587796 L332.588102,175.85066 C332.609339,175.90451 332.665506,175.935495 332.721876,175.925664 L332.735959,175.922235 L335.534929,174.818563 C335.597338,174.793941 335.627969,174.723516 335.60333,174.661079 L334.328439,171.429417 L333.449348,169.200998 L332.097816,165.775239 C332.073217,165.712879 332.002635,165.682289 331.940306,165.70687 Z" id="data-brokers"></path>
            </g>
        </g>
    </g>
</svg>