<?xml version="1.0" encoding="UTF-8"?>
<svg viewBox="0 0 32 32" version="1.1" xmlns="http://www.w3.org/2000/svg" xmlns:xlink="http://www.w3.org/1999/xlink">
    <title>developer-grants</title>
    <g id="Website" stroke="none" stroke-width="1" fill="none" fill-rule="evenodd">
        <g id="Economy" transform="translate(-578, -799)" fill="#B671B8" fill-rule="nonzero">
            <path d="M608.581361,799.5 C608.910608,799.5 609.177515,799.766907 609.177515,800.096154 L609.177515,822.451923 C609.177515,822.78117 608.910608,823.048077 608.581361,823.048077 L602.494515,823.048 L605.359895,828.010312 C605.488058,828.232519 605.459709,828.511798 605.289508,828.703718 C605.119307,828.895638 604.845418,828.957164 604.609486,828.856478 L602.895544,828.124327 L602.671986,829.975385 C602.641261,830.230154 602.450949,830.436675 602.199534,830.488077 C602.160266,830.495873 602.120338,830.499866 602.080303,830.5 C601.867403,830.5 601.670708,830.3863 601.564258,830.201923 L597.825515,823.725 L594.087371,830.201923 C593.980921,830.3863 593.784225,830.5 593.571325,830.5 C593.269541,830.5 593.015295,830.274638 592.97927,829.975012 L592.755712,828.124327 L591.04177,828.856478 C590.805837,828.957164 590.531949,828.895638 590.361748,828.703718 C590.191547,828.511798 590.163197,828.232519 590.291361,828.010312 L593.155515,823.048 L578.773669,823.048077 C578.444422,823.048077 578.177515,822.78117 578.177515,822.451923 L578.177515,800.096154 C578.177515,799.766907 578.444422,799.5 578.773669,799.5 L608.581361,799.5 Z M600.100515,821.285 L600.082443,821.311034 C599.970813,821.465296 599.792208,821.556952 599.601794,821.557781 C599.539811,821.557781 599.478206,821.548046 599.419222,821.529002 L599.144515,821.441 L598.513515,822.534 L601.702491,828.056887 L601.806818,827.192464 C601.829264,827.00617 601.93811,826.841315 602.100611,826.747494 C602.263113,826.653672 602.460304,826.641834 602.632863,826.715541 L603.4332,827.057584 L600.100515,821.285 Z M597.826373,821.016683 L596.233897,821.529002 C595.989291,821.607834 595.721697,821.521039 595.569931,821.313642 L595.549515,821.286 L592.218056,827.057584 L593.019137,826.715541 C593.191697,826.641834 593.388888,826.653672 593.551389,826.747494 C593.713891,826.841315 593.822737,827.00617 593.845183,827.192464 L593.949137,828.056514 L597.983515,821.067 L597.826373,821.016683 Z M607.985207,800.692308 L579.369823,800.692308 L579.369823,821.855769 L593.844515,821.855 L594.780515,820.233 L594.582551,819.962981 L592.993428,819.441346 C592.749751,819.361185 592.584675,819.13413 592.583573,818.877608 L592.576866,817.204651 L591.599174,815.846911 C591.449327,815.638829 591.449327,815.358238 591.599174,815.150156 L592.576866,813.792788 L592.583573,812.119832 C592.584514,811.863173 592.749621,811.635926 592.993428,811.555721 L594.582551,811.034087 L595.569931,809.683425 C595.721697,809.476028 595.989291,809.389233 596.233897,809.468065 L597.826373,809.980385 L599.419222,809.468065 C599.663717,809.389413 599.931102,809.476189 600.082815,809.683425 L601.070568,811.034087 L602.65969,811.555721 C602.903497,811.635926 603.068604,811.863173 603.069546,812.119832 L603.076625,813.792788 L604.0532,815.149038 C604.203046,815.35712 604.203046,815.637711 604.0532,815.845793 L603.07588,817.202043 L603.068801,818.875 C603.067699,819.131522 602.902623,819.358577 602.658945,819.438738 L601.069823,819.960373 L600.869515,820.233 L601.805515,821.855 L607.985207,821.855769 L607.985207,800.692308 Z M599.373765,810.732656 L598.0082,811.171947 C597.88945,811.20994 597.761806,811.20994 597.643056,811.171947 L596.277491,810.732656 L595.431325,811.888822 C595.357809,811.989445 595.254608,812.0645 595.136229,812.103437 L593.773272,812.550553 L593.767311,813.985048 C593.766942,814.109129 593.727867,814.230002 593.655532,814.330817 L592.81719,815.494808 L593.655532,816.659171 C593.727867,816.759986 593.766942,816.880859 593.767311,817.00494 L593.773272,818.440553 L595.136229,818.887668 C595.254558,818.926506 595.357752,819.001426 595.431325,819.101911 L596.277491,820.259567 L597.643056,819.820276 C597.761806,819.782283 597.88945,819.782283 598.0082,819.820276 L598.977463,820.13147 C599.032393,820.141157 599.085297,820.158448 599.134764,820.182528 L599.373765,820.259567 L600.220303,819.101911 C600.29375,819.0013 600.39699,818.926347 600.515399,818.887668 L601.878356,818.440553 L601.884318,817.006058 C601.884686,816.881977 601.923761,816.761104 601.996097,816.660288 L602.834438,815.495925 L601.996097,814.331935 C601.923761,814.23112 601.884686,814.110246 601.884318,813.986166 L601.878356,812.551671 L600.515399,812.104555 C600.397021,812.065618 600.29382,811.990563 600.220303,811.88994 L599.373765,810.732656 Z M589.925472,818.129808 C590.254718,818.129808 590.521625,818.396715 590.521625,818.725962 C590.521625,819.055208 590.254718,819.322115 589.925472,819.322115 L583.740375,819.322115 C583.411129,819.322115 583.144222,819.055208 583.144222,818.725962 C583.144222,818.396715 583.411129,818.129808 583.740375,818.129808 L589.925472,818.129808 Z M597.825628,812.240553 C599.62352,812.240553 601.081,813.698033 601.081,815.495925 C601.078947,817.292967 599.622669,818.749245 597.825628,818.751298 C596.027735,818.751298 594.570255,817.293818 594.570255,815.495925 C594.570255,813.698033 596.027735,812.240553 597.825628,812.240553 Z M597.825628,813.433233 C596.991162,813.433233 596.23887,813.935923 595.919569,814.706883 C595.600267,815.477844 595.776843,816.365234 596.366952,816.955237 C596.957062,817.54524 597.844484,817.721655 598.615387,817.402215 C599.386289,817.082774 599.888843,816.330391 599.888693,815.495925 C599.88623,814.35791 598.963645,813.436325 597.825628,813.435096 Z M589.925472,814.403846 C590.254718,814.403846 590.521625,814.670753 590.521625,815 C590.521625,815.329247 590.254718,815.596154 589.925472,815.596154 L583.740375,815.596154 C583.411129,815.596154 583.144222,815.329247 583.144222,815 C583.144222,814.670753 583.411129,814.403846 583.740375,814.403846 L589.925472,814.403846 Z M589.925472,810.677885 C590.254718,810.677885 590.521625,810.944792 590.521625,811.274038 C590.521625,811.603285 590.254718,811.870192 589.925472,811.870192 L583.740375,811.870192 C583.411129,811.870192 583.144222,811.603285 583.144222,811.274038 C583.144222,810.944792 583.411129,810.677885 583.740375,810.677885 L589.925472,810.677885 Z M603.613536,806.951923 C603.942783,806.951923 604.20969,807.21883 604.20969,807.548077 C604.20969,807.877324 603.942783,808.144231 603.613536,808.144231 L583.741866,808.144231 C583.412619,808.144231 583.145712,807.877324 583.145712,807.548077 C583.145712,807.21883 583.412619,806.951923 583.741866,806.951923 L603.613536,806.951923 Z M603.613536,803.225962 C603.942783,803.225962 604.20969,803.492869 604.20969,803.822115 C604.20969,804.151362 603.942783,804.418269 603.613536,804.418269 L583.741866,804.418269 C583.412619,804.418269 583.145712,804.151362 583.145712,803.822115 C583.145712,803.492869 583.412619,803.225962 583.741866,803.225962 L603.613536,803.225962 Z" id="developer-grants"></path>
        </g>
    </g>
</svg>