<?xml version="1.0" encoding="UTF-8"?>
<svg width="34.7000132px" height="22.6681012px" viewBox="0 0 34.7000132 22.6681012" version="1.1" xmlns="http://www.w3.org/2000/svg" xmlns:xlink="http://www.w3.org/1999/xlink">
    <title>getting-started</title>
    <g id="Website" stroke="none" stroke-width="1" fill="none" fill-rule="evenodd">
        <g id="Ulixee" transform="translate(-689.3, -201.7431)" fill="#000000" fill-rule="nonzero">
            <g id="DATANET-MENU" transform="translate(122.1115, 37.9778)">
                <path d="M578.245142,165.384165 L578.072446,165.475313 L577.978446,165.525313 L577.960349,165.426721 C577.877906,164.836319 578.166072,164.237138 578.711632,163.941748 C579.420439,163.55783 580.306336,163.821382 580.690202,164.530351 L583.620947,169.942996 C583.716322,170.119141 583.650846,170.339252 583.474701,170.434628 C583.298556,170.530004 583.078445,170.464528 582.983069,170.288383 L580.052323,164.875733 C579.859216,164.51908 579.413602,164.386486 579.057057,164.579605 C578.700384,164.772722 578.567801,165.218351 578.760912,165.57501 L583.157538,173.695729 L583.289432,173.939342 L583.421348,173.695741 L588.384634,164.530321 C588.768481,163.821386 589.654336,163.557865 590.363274,163.941714 C590.992766,164.282548 591.279574,165.027838 591.049781,165.697414 L591.121736,165.878812 C592.17008,166.431178 593.290072,166.96223 594.574029,167.518084 C594.73922,167.589599 594.897764,167.657674 595.054318,167.724296 L595.117664,167.75122 L595.216441,167.793068 C595.234109,167.80054 595.244717,167.805018 595.276543,167.818452 L595.340281,167.845305 C596.104428,168.166834 596.911748,168.492729 598.487204,169.117195 C598.939885,169.296625 599.272309,169.428643 599.555078,169.541337 L599.894939,169.677053 L599.947841,169.698235 C600.237474,169.814254 600.484896,169.914192 600.726136,170.012606 L600.857821,170.066425 C601.044096,170.142825 601.044096,170.142825 601.235816,170.22195 L601.258341,170.23154 C601.944178,170.531686 602.106542,171.440958 601.56443,171.963933 L598.6938,174.732886 L597.997811,178.627843 C597.883019,179.298655 597.174401,179.686545 596.544193,179.424687 C596.389002,179.360291 596.389002,179.360291 596.237666,179.297824 L596.191301,179.278725 C596.133353,179.254884 596.133353,179.254884 596.075434,179.231109 L596.029067,179.2121 C595.460169,178.979031 594.879974,178.74685 593.638048,178.254602 C593.165801,178.067423 592.78359,177.915434 592.448688,177.781578 L592.357942,177.745289 C591.488068,177.39723 590.879214,177.147837 590.283552,176.895282 L590.219647,176.868153 C590.051638,176.796741 589.881536,176.723743 589.703743,176.646774 C588.659054,176.194509 587.720894,175.758135 586.839138,175.313158 L586.411662,175.097433 L586.639653,175.518494 L592.258555,185.895668 C592.353929,186.071812 592.288451,186.291923 592.112305,186.387297 C591.936159,186.482672 591.716049,186.417194 591.620674,186.241048 L585.917357,175.705902 L585.785467,175.462275 L585.653545,175.705885 L584.988545,176.933885 L584.988541,177.076734 L589.763615,185.895686 C589.847413,186.050451 589.807651,186.242343 589.672065,186.35105 L589.605876,186.39422 C589.441221,186.482692 589.221111,186.417215 589.125736,186.241069 L584.669355,178.009898 L584.537446,177.766256 L584.405538,178.009898 L579.949162,186.241053 C579.865367,186.395813 579.682942,186.467401 579.517802,186.413279 L579.445473,186.381448 C579.281388,186.291923 579.21591,186.071812 579.311284,185.895667 L586.326812,172.938803 C586.422186,172.762657 586.642297,172.697179 586.818442,172.792554 C586.994588,172.887928 587.060066,173.108039 586.964691,173.284184 L586.496641,174.148832 L586.558816,174.353042 C586.899445,174.531915 587.246946,174.708293 587.603969,174.883569 L587.80198,174.820339 L591.895507,167.259745 L591.829822,167.053736 C591.488806,166.885947 591.156169,166.717062 590.829656,166.545896 L590.794124,166.526547 L590.590536,166.586901 L587.980586,171.407937 C587.896793,171.562692 587.714368,171.63428 587.549228,171.580157 L587.476899,171.548326 C587.312815,171.4588 587.247338,171.238689 587.342713,171.062544 L590.313996,165.574973 C590.507098,165.218329 590.374535,164.772695 590.017898,164.579597 C589.661251,164.386493 589.215617,164.519056 589.022518,164.875694 L577.454157,186.241035 C577.358782,186.417181 577.138671,186.482658 576.962526,186.387283 C576.78638,186.291909 576.720903,186.071798 576.816277,185.895652 L582.435201,175.518493 L582.663194,175.097431 L582.235717,175.313157 C581.353963,175.758133 580.415805,176.194506 579.371112,176.646774 C579.193321,176.723743 579.023225,176.796738 578.855163,176.868173 L578.79126,176.895301 L578.695343,176.935892 L578.631281,176.962918 C577.853304,177.290705 577.039311,177.619439 575.436832,178.254602 C574.85998,178.483244 574.459957,178.642245 574.123275,178.776812 L574.064045,178.800495 C573.738165,178.930851 573.466499,179.040434 573.209524,179.145205 L573.162539,179.164374 C573.127381,179.178733 573.127381,179.178733 573.092408,179.193037 L573.045923,179.212068 C572.878857,179.280514 572.711239,179.349695 572.530706,179.424695 C571.900453,179.68653 571.191903,179.298666 571.077111,178.627852 L570.424732,174.815546 L567.513243,171.966617 C566.963256,171.436079 567.137285,170.511903 567.842683,170.220436 C567.967107,170.169068 567.967107,170.169068 568.088571,170.119115 L568.132546,170.101059 C568.143485,170.096571 568.143485,170.096571 568.154445,170.092075 L568.263905,170.04725 C568.29668,170.033853 568.29668,170.033853 568.329548,170.020434 L568.417569,169.984552 C568.428549,169.980082 568.428549,169.980082 568.439607,169.975582 L568.484002,169.957529 C568.767114,169.842473 569.069416,169.720956 569.453173,169.567913 L569.858281,169.406653 C570.064853,169.32455 570.195413,169.272744 570.586496,169.117689 C571.000004,168.95379 571.36135,168.810158 571.683291,168.681609 L572.138244,168.499449 C572.85256,168.212542 573.360464,168.003696 573.861294,167.791898 L573.924727,167.765039 L573.988154,167.738115 C574.15513,167.667148 574.323942,167.594706 574.500275,167.518369 C575.592654,167.045462 576.570384,166.58875 577.488162,166.120753 L577.798408,165.961024 L577.855446,165.930313 L577.942308,165.885687 L578.196446,165.749313 L578.387981,165.647977 L578.316561,165.516071 L578.245142,165.384165 Z M595.842113,175.597025 L595.654471,175.665022 L594.573949,177.665298 L594.493835,177.813607 L594.650445,177.875952 L595.02461,178.024904 C595.474372,178.204248 595.818994,178.342929 596.140276,178.473922 L596.187513,178.493195 L596.23445,178.512371 L596.281271,178.531528 C596.304583,178.541074 596.304583,178.541074 596.327893,178.550629 L596.374501,178.56975 C596.39774,178.579293 596.39774,178.579293 596.42101,178.588857 L596.467605,178.608026 C596.642608,178.680187 596.642608,178.680187 596.822503,178.754819 C597.022436,178.837894 597.246554,178.71743 597.28282,178.5055 L597.635809,176.448827 L597.545087,176.284753 C597.103611,176.102955 596.634022,175.91306 596.072317,175.689027 L595.842113,175.597025 Z M573.231575,175.597107 L573.002255,175.689147 C572.584303,175.855846 572.216435,176.004012 571.873056,176.144078 L571.703621,176.213178 L571.529446,176.284313 L571.373155,176.349404 L571.457446,176.554313 L571.792107,178.505541 C571.821724,178.678616 571.979726,178.795975 572.152392,178.779789 L572.23131,178.761804 C572.43231,178.680186 572.43231,178.680186 572.607353,178.608007 L572.677239,178.579267 L572.700479,178.569722 L572.747072,178.550606 C572.77035,178.541065 572.77035,178.541065 572.793697,178.531504 L572.840521,178.512346 C572.85221,178.507568 572.85221,178.507568 572.863948,178.502772 L572.911065,178.483534 C572.946483,178.469088 572.946483,178.469088 572.982157,178.454558 L573.030014,178.435086 C573.40548,178.282416 573.822049,178.115423 574.424878,177.875779 L574.581693,177.813439 L574.501397,177.665015 L573.419378,175.66494 L573.231575,175.597107 Z M592.764415,174.369966 L592.575875,174.437488 L591.495203,176.434692 L591.570368,176.644922 C592.108456,176.864892 592.739087,177.117627 593.68704,177.4937 L593.874172,177.425854 L594.959098,175.428012 L595.039874,175.279266 L594.882495,175.216961 C594.630691,175.117267 594.630691,175.117267 594.462806,175.050757 C593.771255,174.776632 593.234965,174.561749 592.764415,174.369966 Z M576.309955,174.370162 C575.839567,174.561878 575.303472,174.776683 574.612055,175.050757 C574.444166,175.117269 574.444166,175.117269 574.192358,175.216965 L574.035168,175.279196 L574.115671,175.427859 L575.197544,177.42574 L575.383451,177.494254 L575.491368,177.452608 C576.380069,177.099865 576.98597,176.856895 577.504548,176.6449 L577.579695,176.434636 L576.498476,174.43765 Z M589.645098,173.015488 L589.583446,173.145313 L589.545578,173.124824 L588.464127,175.119676 L588.532745,175.327177 C588.996495,175.54284 589.480645,175.759751 589.991928,175.981095 C590.112752,176.033401 590.229915,176.083823 590.345302,176.133165 L590.408754,176.160265 L590.440536,176.173815 L590.545918,176.218621 C590.566932,176.227541 590.579542,176.23288 590.61737,176.248898 L590.807737,176.182158 L591.888362,174.185716 L591.8136,173.975628 L591.733045,173.942431 L591.600204,173.886128 L591.514223,173.849531 C591.497718,173.84249 591.477921,173.834039 591.451525,173.822771 L591.38116,173.792646 C591.275885,173.747444 591.275885,173.747444 591.170455,173.701915 L591.099983,173.671397 C590.702539,173.499044 590.322705,173.329663 589.955281,173.160853 L589.645098,173.015488 Z M579.33609,173.060782 C578.900159,173.263502 578.447893,173.466312 577.970321,173.673369 C577.935144,173.688614 577.935144,173.688614 577.90001,173.703811 L577.79462,173.749281 C577.77719,173.756783 577.77719,173.756783 577.759654,173.764324 L577.689431,173.794469 L577.51371,173.869523 C577.38744,173.923166 577.38744,173.923166 577.259905,173.976973 L577.186224,174.186636 L578.266543,176.181737 L578.456295,176.24871 L578.570095,176.201142 L578.634271,176.173836 L578.666053,176.160286 L578.729503,176.133187 C578.844945,176.083822 578.962105,176.033401 579.082927,175.981095 C579.594212,175.75975 580.078361,175.542838 580.542111,175.327175 L580.610775,175.11976 L579.531254,173.125392 Z M597.408632,172.705943 L597.22129,172.773904 L596.14719,174.757674 L596.066864,174.906029 L596.223597,174.968449 C596.282615,174.991959 596.282615,174.991959 596.341046,175.015258 C596.817184,175.205164 597.226081,175.370111 597.608133,175.526502 L597.78143,175.597439 L597.812834,175.412838 L597.963491,174.527228 C597.976503,174.451182 598.013537,174.381151 598.069169,174.32749 L598.894861,173.53189 L599.060654,173.37214 L598.847536,173.285026 C598.499203,173.142642 598.126125,172.992142 597.700969,172.822421 C597.557643,172.765243 597.557643,172.765243 597.408632,172.705943 Z M571.666247,172.705943 C571.517236,172.765243 571.517236,172.765243 571.37391,172.822421 C570.948754,172.992142 570.575676,173.142642 570.227343,173.285026 L570.014229,173.372138 L570.180017,173.531889 L571.005739,174.327545 C571.061314,174.381151 571.098347,174.451179 571.111384,174.527363 L571.262045,175.412842 L571.293454,175.597437 L571.466745,175.526502 C571.848796,175.370112 572.257691,175.205164 572.733826,175.015259 L572.851913,174.967279 L572.92735,174.756889 L571.853586,172.773899 Z M578.282418,166.526397 C577.943906,166.704288 577.598895,166.879667 577.244867,167.053856 L577.179184,167.259869 L581.272877,174.82034 L581.470886,174.883567 C581.81497,174.714644 582.150196,174.544702 582.478943,174.372496 L582.749335,174.227506 L582.607976,173.962897 L582.505446,174.016313 L578.484104,166.587761 Z M594.329933,171.478154 L594.141387,171.545686 L593.067589,173.530566 L593.143042,173.740901 C593.586358,173.921078 594.090813,174.12301 594.730107,174.376421 C594.850084,174.423957 594.850084,174.423957 595.032937,174.496358 L595.067186,174.509918 C595.168622,174.550078 595.168622,174.550078 595.266032,174.58864 L595.453247,174.520411 L596.524449,172.535554 L596.604862,172.386556 L596.447259,172.324687 L596.394774,172.304083 C596.173669,172.216539 596.173669,172.216539 596.028832,172.159157 C595.33702,171.884926 594.800596,171.669987 594.329933,171.478154 Z M574.744946,171.478154 C574.274283,171.669987 573.737859,171.884926 573.046047,172.159157 C572.90121,172.216539 572.90121,172.216539 572.679701,172.304242 L572.627513,172.324345 L572.468321,172.385685 L572.549532,172.535717 L573.623524,174.519855 L573.81065,174.58792 C573.86495,174.566424 573.86495,174.566424 573.921428,174.544065 L573.955901,174.530417 C574.096126,174.4749 574.096126,174.4749 574.21976,174.425939 L574.344725,174.376432 C574.984243,174.122931 575.488716,173.92099 575.932041,173.740807 L576.007487,173.530459 L574.933485,171.545673 Z M591.306048,170.168465 L591.110555,170.232867 L590.033003,172.222043 L590.101814,172.429581 C590.512977,172.620161 590.939362,172.811091 591.38865,173.005927 C591.440377,173.028343 591.440377,173.028343 591.492028,173.050665 L591.560787,173.080316 C591.769062,173.170006 591.976507,173.258184 592.189386,173.347506 L592.379336,173.280596 L593.454264,171.294848 L593.380574,171.085201 C593.258628,171.03384 593.138169,170.982728 593.018028,170.931368 L592.947674,170.901248 L592.877445,170.871094 C592.772184,170.825769 592.772184,170.825769 592.66661,170.780052 C592.268894,170.607585 591.888876,170.438124 591.521281,170.269237 L591.306048,170.168465 Z M577.770438,170.169009 C577.335601,170.371227 576.884509,170.573533 576.408269,170.780052 L576.337807,170.810564 L576.205156,170.867769 C576.18565,170.876154 576.162243,170.886204 576.127133,170.901279 L576.056779,170.931399 C575.93671,170.982728 575.816251,171.03384 575.694305,171.085201 L575.620616,171.294848 L576.695539,173.280583 L576.885489,173.347493 C577.023076,173.289656 577.023076,173.289656 577.158934,173.232119 L577.2289,173.202389 C577.246452,173.194918 577.246452,173.194918 577.263916,173.187477 L577.333609,173.157733 L577.416323,173.122305 L577.529452,173.073672 C577.551199,173.064295 577.577291,173.053035 577.612082,173.038021 L577.681705,173.007877 C578.075442,172.837167 578.451396,172.669547 578.814878,172.50257 L579.00658,172.411912 L578.942446,172.273313 L579.039415,172.221009 L577.965658,170.233717 Z M598.852648,170.042567 L598.665451,170.110389 L597.712349,171.865536 L597.631741,172.013976 L597.788669,172.076473 L597.84294,172.098096 L597.916566,172.127452 C597.930621,172.13306 597.947456,172.139778 597.969903,172.148735 L598.274567,172.270642 C598.669596,172.429105 599.021916,172.572079 599.356077,172.709562 L599.538071,172.784906 L599.699558,172.754298 L601.0608,171.441884 C601.20521,171.302572 601.193652,171.0684 601.043237,170.943243 L600.978839,170.902457 C600.913474,170.873628 600.913474,170.873628 600.868663,170.855139 L600.824136,170.836783 L600.670035,170.773412 C600.659072,170.768913 600.659072,170.768913 600.648145,170.764431 L600.604509,170.746543 L600.495415,170.701916 C600.484444,170.697436 600.484444,170.697436 600.47351,170.692972 L600.275008,170.612171 L600.23004,170.593928 C599.864627,170.445774 599.457782,170.282957 598.852648,170.042567 Z M570.222625,170.04243 C569.410776,170.364927 568.935644,170.555832 568.451589,170.754231 L568.364287,170.790056 C568.243391,170.839775 568.243391,170.839775 568.119696,170.890841 C567.897428,170.982681 567.843238,171.277072 568.016841,171.444536 L569.374077,172.754468 L569.535583,172.785147 C570.006857,172.5902 570.506786,172.387531 571.104976,172.148735 L571.158313,172.127452 L571.23194,172.098096 C571.246202,172.092413 571.263349,172.085581 571.28621,172.076473 L571.443106,172.013989 L571.362545,171.865563 L570.409835,170.11028 Z M573.298465,168.811832 C572.97341,168.94512 572.616505,169.089504 572.17936,169.264514 L571.713676,169.450456 C571.548338,169.516322 571.372292,169.586314 571.183745,169.661156 L571.026743,169.723476 L571.107188,169.872009 L572.057549,171.626749 L572.233202,171.698789 L572.250048,171.693652 L572.356583,171.652004 L572.412567,171.62984 C572.633978,171.542176 572.633978,171.542176 572.778744,171.484821 C573.418063,171.231398 573.922517,171.029466 574.365828,170.849289 L574.441219,170.638839 L573.487242,168.879129 Z M595.776384,168.811782 L595.587605,168.879082 L594.633659,170.638842 L594.709051,170.849289 C595.152363,171.029466 595.656817,171.231398 596.296135,171.484821 C596.440902,171.542176 596.440902,171.542176 596.662312,171.62984 L596.718294,171.652003 L596.766228,171.67098 L596.831437,171.695634 L597.016315,171.626802 L597.967622,169.872018 L598.048159,169.723458 L597.891095,169.661111 C597.702545,169.586267 597.526497,169.516272 597.361157,169.450405 L596.89547,169.264459 C596.458324,169.089446 596.101425,168.945063 595.776384,168.811782 Z M576.322282,167.495683 C575.835367,167.722812 575.326635,167.951064 574.788457,168.184049 C574.624965,168.254705 574.624965,168.254705 574.464268,168.323641 L574.400167,168.351053 C574.368252,168.364679 574.368252,168.364679 574.336309,168.378294 L574.272396,168.405494 L574.248467,168.41566 L574.175226,168.625158 L575.130429,170.388648 L575.320362,170.455523 C575.462459,170.395898 575.602034,170.336826 575.740918,170.277531 L575.809776,170.248091 C575.878697,170.218553 575.878697,170.218553 575.947497,170.188955 L576.016245,170.159308 C576.067959,170.136961 576.067959,170.136961 576.119678,170.114549 C576.512427,169.944236 576.887559,169.776959 577.250273,169.610318 L577.405553,169.536924 L577.473429,169.330034 L576.517675,167.560342 Z M592.752262,167.495496 L592.556889,167.560118 L591.599862,169.330989 L591.668747,169.538398 C592.079789,169.728911 592.506049,169.919777 592.955202,170.114549 C593.110202,170.181625 593.110202,170.181625 593.265031,170.24806 L593.333889,170.277501 C593.472845,170.336826 593.61242,170.395898 593.754517,170.455523 L593.944467,170.388617 L594.899357,168.624724 L594.825643,168.415063 L594.769315,168.391352 C594.650113,168.340542 594.650113,168.340542 594.529678,168.288903 L594.285642,168.183675 C593.747752,167.950811 593.2391,167.722592 592.752262,167.495496 Z" id="getting-started"></path>
            </g>
        </g>
    </g>
</svg>