<?xml version="1.0" encoding="UTF-8"?>
<svg width="23.4157925px" height="24.8025316px" viewBox="0 0 23.4157925 24.8025316" version="1.1" xmlns="http://www.w3.org/2000/svg" xmlns:xlink="http://www.w3.org/1999/xlink">
    <title>miner</title>
    <g id="Website" stroke="none" stroke-width="1" fill="none" fill-rule="evenodd">
        <g id="Mainchain" transform="translate(-168.2214, -442.8356)" fill="#000000" fill-rule="nonzero">
            <g id="MAINCHAIN-MENU" transform="translate(129.0465, 37.9778)">
                <path d="M49.0026078,406.878261 C49.4032763,405.409143 50.9179711,404.555406 52.3902891,404.956954 C53.5852413,405.275607 54.3893491,406.359172 54.4154804,407.557095 L54.4148965,407.565333 L55.1470064,407.782357 L55.5318324,407.89638 L55.4165016,408.280816 L55.3020788,408.662225 L55.1886421,409.040347 L54.8090598,408.931895 L53.8648965,408.662333 L53.8511571,408.703947 C53.5212708,409.560856 52.7108336,410.172917 51.7683144,410.238279 L51.6006873,410.244077 C51.5476073,410.244077 51.4948993,410.242326 51.4426185,410.238879 L51.4158965,410.235333 L51.5379173,410.291859 C52.3749011,410.687863 52.7682106,411.144458 53.0543058,411.845596 L53.1067743,411.979969 L53.075075,411.82391 C53.3496148,412.471824 53.4813173,412.846787 53.9120912,414.144982 C54.5590601,416.09471 54.9768727,417.015327 55.7920929,418.009821 C56.0406473,418.293883 56.1581096,418.637034 56.1700129,418.999742 L56.1698965,419.019333 L59.9528965,420.862333 C60.2343591,420.240756 60.4533213,419.669597 60.6218424,419.101722 L60.7169676,418.761074 C61.0204376,417.816946 61.186961,416.765219 61.270672,415.425843 L61.3717912,413.807936 L62.0348968,415.287172 C62.5398242,416.413548 62.693963,417.759694 62.5249478,419.196314 C62.4038708,420.245648 62.1210585,421.275892 61.6902506,422.215837 L61.8428965,421.860333 L62.115765,421.996532 L62.4660047,422.171652 L62.2983747,422.525537 L61.9551063,423.250215 L61.7801897,423.619483 L61.1458965,423.302333 L61.1373435,423.318004 C60.6570732,424.142536 60.0605995,424.934235 59.385968,425.652294 L59.0921659,425.955406 C58.1118634,426.935709 57.0848106,427.686247 55.997953,428.173459 L54.4889001,428.849931 L55.5219831,427.558578 C56.5224114,426.308042 57.0981063,425.565699 57.6819539,424.75482 C58.2619663,423.935979 58.8094011,423.047519 59.4138441,421.968157 L59.2048965,422.335333 L55.4818965,420.506333 L55.3909065,420.574184 C54.826765,420.954617 54.1200927,420.928676 53.6016043,420.391802 L53.5005138,420.277584 C53.1593711,419.851155 52.8887478,419.454886 52.6607435,419.036878 L52.7248965,419.150333 L51.0468965,418.326333 L50.9951168,418.451924 C50.8064809,418.898467 50.5926716,419.36489 50.3385447,419.889662 L50.1858965,420.201333 L50.288105,420.268018 C50.5155364,420.418248 50.7991188,420.613978 51.0925716,420.821234 L51.4464907,421.073301 C51.97559,421.453176 52.4766891,421.826367 52.6798786,421.99474 L52.6958616,422.008873 C53.2587004,422.477906 53.2988922,423.201358 52.9929657,423.934671 C52.8880365,424.15952 52.7823664,424.390199 52.6518094,424.678462 C52.6027772,424.786723 52.3812632,425.277572 52.3210701,425.410351 C51.8268712,426.500495 51.4953331,427.177816 51.0896815,427.887876 C50.8962392,428.226481 50.6960098,428.55165 50.47988,428.875715 C49.921281,429.680097 48.9781275,429.86726 48.2330368,429.431452 C47.47605,428.988686 47.2260591,428.077181 47.7558936,427.247887 C48.4671839,426.14862 48.965917,425.14382 49.7460482,423.339766 L49.5988965,423.674333 L49.551149,423.648732 C49.5224147,423.633149 49.4907017,423.61595 49.4555721,423.596899 L49.3394952,423.533948 C48.9021786,423.296815 48.4646654,423.059683 48.0560544,422.838366 C47.4112556,422.489125 46.9028005,422.214147 46.5805925,422.040473 L46.4938965,421.994333 L46.4421439,422.066143 C45.8354038,422.892412 45.1951479,423.69522 44.4064828,424.630624 L44.0590623,425.040085 C43.6715205,425.494151 42.302172,427.073395 42.0989341,427.309683 C41.4506791,428.047352 40.4830319,428.131815 39.7902006,427.613941 C39.0811662,427.083956 38.9462248,426.137465 39.5894729,425.333933 C42.6069297,421.861011 43.8752777,420.270843 45.1851211,418.119823 C45.5940337,417.37015 45.962881,416.551489 46.3461511,415.572021 L46.2088965,415.914333 L44.2498965,414.964333 L44.2059983,415.012612 C43.763136,415.448317 43.1139183,415.508146 42.5353294,415.212311 L42.4031887,415.137737 C41.6759024,414.687512 41.3525352,413.816065 41.7418961,412.991536 C43.2423022,409.798362 46.0627869,408.71031 49.6444808,409.648379 C49.8248027,409.696634 49.995235,409.744219 50.1564349,409.791493 L50.2348965,409.815333 L50.1750657,409.773896 C49.6133492,409.360804 49.2326762,408.712608 49.1844163,407.980677 L49.179218,407.822608 C49.179218,407.70587 49.1904287,407.587247 49.2109923,407.469149 L49.2348965,407.353333 L48.9030456,407.243322 L49.0026078,406.878261 Z M49.4397333,410.421731 C46.2126999,409.576555 43.7915746,410.510548 42.4656219,413.332447 C42.2603939,413.767049 42.424859,414.210269 42.8242724,414.457525 C43.200727,414.690568 43.5768612,414.628839 43.7739067,414.267589 L43.9565528,413.932738 L43.9658965,413.937333 L44.1529591,413.585438 C44.5484483,412.838403 45.0595418,412.268954 45.7192817,411.93161 L45.9216961,411.837424 C46.4942565,411.6084 47.0569393,411.590537 47.91249,411.697481 L48.352297,411.752457 L48.2526326,412.184336 C48.006482,413.250989 47.7323005,414.205897 47.4001306,415.128591 L47.2494779,415.547071 L47.2198965,415.532333 L47.0911453,415.86354 C46.7528993,416.727947 46.4238436,417.474528 46.0618786,418.173499 L45.8779588,418.519343 C44.5274159,420.738092 43.2403215,422.351762 40.2037691,425.84616 C39.8567036,426.279992 39.9181196,426.710768 40.2691644,426.973165 C40.632359,427.244644 41.1291869,427.201278 41.4951941,426.784821 C41.6975134,426.549566 43.0654779,424.971918 43.4505606,424.520733 C44.5086671,423.280995 45.2945244,422.298096 46.0503014,421.243986 L46.2491035,420.966709 L46.5542653,421.11929 C46.6263254,421.15532 47.2996601,421.518873 48.4322827,422.132334 C48.845797,422.356306 49.2834169,422.593496 49.7208364,422.830685 C50.0601161,423.014683 50.152647,423.064865 50.2227352,423.102886 L50.2745982,423.131022 L50.3039452,423.146944 L50.6255677,423.321442 L50.4803338,423.657295 C49.6839733,425.498879 49.1685488,426.537307 48.4288002,427.680543 C48.1510226,428.115325 48.2625322,428.521907 48.6369434,428.740902 C49.0277214,428.96947 49.5068119,428.874398 49.8185118,428.425676 C50.0199227,428.12356 50.2105266,427.814023 50.3950461,427.491036 C50.7854603,426.807648 51.1077376,426.149247 51.5924446,425.080041 C51.652281,424.948049 51.8737173,424.457371 51.9230677,424.348408 C52.0547707,424.057615 52.1616211,423.824359 52.2612617,423.611671 C52.440724,423.180961 52.4207238,422.820958 52.1764303,422.617231 L52.1613728,422.603867 C51.7754775,422.284249 49.7131806,420.800546 49.6108652,420.756816 L49.5889703,420.752813 L49.6578965,420.378333 L49.2925998,420.202738 L49.2968965,420.191333 L49.3048965,420.174333 L49.4282287,419.910175 L49.4622988,419.860662 C49.8339326,419.106577 50.120958,418.482341 50.3638561,417.885863 L50.4653716,417.631631 L50.623859,417.226608 L51.0142303,417.418369 L53.1882633,418.486315 L53.3022482,418.542308 L53.36306,418.653796 C53.5669094,419.02752 53.8115989,419.385815 54.1233069,419.775469 C54.4114531,420.13011 54.8021588,420.104063 55.1199187,419.757416 L55.3223095,419.536626 L55.591142,419.668684 L59.939208,421.804576 L60.3181155,421.990706 L60.1118489,422.359039 C59.4946845,423.461119 58.9331242,424.372503 58.3329774,425.219749 C58.1038992,425.537913 57.8767788,425.844793 57.626628,426.173716 L57.5578965,426.262333 L57.5991191,426.230562 C57.807815,426.060608 58.0147294,425.879233 58.2199378,425.686746 L58.5264805,425.389721 C59.3675596,424.548642 60.0950705,423.584926 60.6307643,422.584964 L60.814407,422.242165 L61.4068965,422.537333 L61.4078965,422.536333 L61.1477392,422.406946 L60.8018907,422.234022 L60.9629987,421.882513 C61.3582386,421.020172 61.618656,420.071508 61.730324,419.103728 C61.7814146,418.669457 61.8001727,418.246303 61.7861438,417.838673 L61.7848965,417.812333 L61.7358138,418.052427 C61.6880228,418.268677 61.6351303,418.478167 61.5766939,418.682237 L61.484826,418.984447 C61.268683,419.812995 60.9473959,420.644561 60.5054,421.572753 L60.331917,421.937067 L59.9691328,421.760407 L55.5829258,419.624515 L55.3256431,419.499229 L55.3611376,419.215273 C55.3946319,418.947319 55.3419485,418.710244 55.1817551,418.526855 C54.2788255,417.425721 53.8287757,416.434072 53.1528017,414.396933 C52.7293767,413.120885 52.6014119,412.756564 52.3067743,411.979969 L52.3353836,412.128526 C52.0215577,411.343961 51.5556128,410.987958 49.4397333,410.421731 Z M51.5176566,414.286238 L51.9734892,415.458379 C52.0135642,415.561429 52.0539766,415.666616 52.1052619,415.801056 C52.1694891,415.969674 52.1694891,415.969674 52.2328422,416.1358 C52.4510096,416.706671 52.5934325,417.054816 52.7635744,417.416367 L53.2454415,418.440335 L52.2271375,417.946612 L50.9684868,417.336357 L50.6524591,417.183132 L50.7635228,416.84994 C50.8072979,416.718615 50.8440492,416.614847 50.9278141,416.382882 C51.088436,415.938083 51.1534737,415.74297 51.2126303,415.506344 L51.5176566,414.286238 Z M47.3648267,412.446447 C46.8845641,412.413497 46.5434466,412.450335 46.2254752,412.577469 C45.7896695,412.760966 45.4209562,413.088715 45.1112216,413.541488 L45.0718965,413.602333 L46.7928965,414.436333 L46.8033446,414.408903 C47.0054636,413.805899 47.1851825,413.182068 47.3511179,412.514082 L47.3668965,412.446333 L47.3648267,412.446447 Z M52.1819771,405.729353 C51.281751,405.483837 50.3644993,405.893274 49.942044,406.670703 L49.9098965,406.735333 L50.2607241,406.852607 L50.1031724,407.246487 C50.0270414,407.436814 49.979218,407.644049 49.979218,407.822608 C49.979218,408.707781 50.7155142,409.444077 51.6006873,409.444077 C52.3899132,409.444077 53.0665903,408.867987 53.1890395,408.10268 L53.2602881,407.657377 L53.6088965,407.756333 L53.6156007,407.662765 C53.6348487,406.829677 53.1216444,406.058439 52.3330108,405.776399 L52.1819771,405.729353 Z" id="miner"></path>
            </g>
        </g>
    </g>
</svg>