<?xml version="1.0" encoding="UTF-8"?>
<svg viewBox="0 0 29 28" version="1.1" xmlns="http://www.w3.org/2000/svg" xmlns:xlink="http://www.w3.org/1999/xlink">
    <title>nonprofit-foundation</title>
    <g id="Website" stroke="none" stroke-width="1" fill="none" fill-rule="evenodd">
        <g id="Economy" transform="translate(-955, -1056)" fill="#B671B8" fill-rule="nonzero">
            <path d="M982.861506,1057.25167 C983.382535,1058.34355 982.9139,1059.65862 981.820899,1060.17881 L978.814565,1061.60581 C978.32714,1061.83736 977.741816,1061.62819 977.509703,1061.14154 L977.21534,1060.525 L975.91534,1061.142 L976.482293,1062.33137 C976.897191,1063.2018 976.955596,1063.98503 976.676955,1064.63576 L979.36579,1064.63528 C979.661867,1064.63528 979.901886,1064.8753 979.901886,1065.17138 L979.90134,1068.965 L982.663347,1068.96562 C982.959425,1068.96562 983.199443,1069.20564 983.199443,1069.50172 L983.199443,1073.83209 C983.199443,1074.12816 982.959425,1074.36818 982.663347,1074.36818 L979.90134,1074.368 L979.90134,1077.626 L982.663347,1077.62636 C982.929817,1077.62636 983.150879,1077.82077 983.192426,1078.0755 L983.199443,1078.16245 L983.199443,1082.49432 C983.199443,1082.7904 982.959425,1083.03042 982.663347,1083.03042 L956.287436,1083.03042 C955.991358,1083.03042 955.75134,1082.7904 955.75134,1082.49432 L955.75134,1078.16245 C955.75134,1077.86638 955.991358,1077.62636 956.287436,1077.62636 L959.04734,1077.626 L959.04734,1074.368 L956.287436,1074.36818 C956.020966,1074.36818 955.799904,1074.17377 955.758356,1073.91904 L955.75134,1073.83209 L955.75134,1069.50172 C955.75134,1069.20564 955.991358,1068.96562 956.287436,1068.96562 L959.04734,1068.965 L959.04734,1065.707 L956.287452,1065.70745 C956.020982,1065.70745 955.79992,1065.51303 955.758373,1065.25831 L955.751356,1065.17135 L955.751356,1060.83948 C955.751356,1060.54341 955.991374,1060.30339 956.287452,1060.30339 L957.039648,1060.30339 C957.335725,1060.30339 957.575743,1060.54341 957.575743,1060.83948 L957.575601,1060.85196 C957.568971,1061.14227 957.331555,1061.37558 957.039648,1061.37558 L956.823534,1061.37559 L956.823534,1064.63527 L962.34434,1064.636 L962.34434,1061.375 L961.855289,1061.37558 C961.559211,1061.37558 961.319193,1061.13556 961.319193,1060.83948 C961.319193,1060.54341 961.559211,1060.30339 961.855289,1060.30339 L968.264465,1060.30333 C968.591043,1059.89451 968.93042,1059.50807 969.27186,1059.16251 C970.27401,1058.14827 971.256366,1057.50144 972.173734,1057.33898 C973.319217,1057.13612 974.274791,1057.6989 974.888148,1058.98481 L975.45434,1060.174 L976.75334,1059.557 L976.461153,1058.94301 C976.245233,1058.49031 976.40931,1057.95297 976.824617,1057.69302 L976.924859,1057.63812 L978.69934,1056.795 L979.930649,1056.21135 C981.024892,1055.69347 982.340745,1056.16028 982.861506,1057.25167 Z M962.34434,1078.698 L956.823518,1078.69856 L956.823518,1081.95824 L962.34434,1081.958 L962.34434,1078.698 Z M968.93834,1078.698 L963.41634,1078.698 L963.41634,1081.958 L968.93834,1081.958 L968.93834,1078.698 Z M975.53134,1078.698 L970.01034,1078.698 L970.01034,1081.958 L975.53134,1081.958 L975.53134,1078.698 Z M982.127225,1078.69856 L976.60334,1078.698 L976.60334,1081.958 L982.127225,1081.95824 L982.127225,1078.69856 Z M978.82934,1077.626 L978.82934,1074.368 L973.30734,1074.368 L973.30734,1077.626 L978.82934,1077.626 Z M965.64234,1074.368 L960.11934,1074.368 L960.11934,1077.626 L965.64234,1077.626 L965.64234,1074.368 Z M972.23534,1074.368 L966.71434,1074.368 L966.71434,1077.626 L972.23534,1077.626 L972.23534,1074.368 Z M962.34434,1070.037 L956.823518,1070.03785 L956.823518,1073.296 L962.34434,1073.296 L962.34434,1070.037 Z M968.93834,1070.037 L963.41634,1070.037 L963.41634,1073.296 L968.93834,1073.296 L968.93834,1070.037 Z M975.53134,1070.037 L970.01034,1070.037 L970.01034,1073.296 L975.53134,1073.296 L975.53134,1070.037 Z M982.127225,1070.03785 L976.60334,1070.037 L976.60334,1073.296 L982.127225,1073.296 L982.127225,1070.03785 Z M965.64234,1065.707 L960.119563,1065.70751 L960.11934,1068.965 L965.64234,1068.965 L965.64234,1065.707 Z M966.714209,1065.97103 L966.71434,1068.965 L972.23534,1068.965 L972.236581,1066.6094 C970.337004,1066.70708 968.118624,1066.43418 966.714209,1065.97103 Z M978.829654,1065.70751 L975.735931,1065.7082 C975.130676,1066.10691 974.305468,1066.36845 973.308693,1066.50867 L973.30734,1068.965 L978.82934,1068.965 L978.829654,1065.70751 Z M972.360708,1058.39474 C971.707203,1058.51048 970.89501,1059.04526 970.034544,1059.91611 L969.987788,1059.96372 C968.60094,1061.38486 967.241074,1063.55621 966.813031,1064.86491 C968.051067,1065.34561 970.440364,1065.65703 972.379785,1065.52684 L972.68634,1065.502 L972.725049,1065.49703 L972.75634,1065.495 L973.01105,1065.46654 C974.077307,1065.33253 974.890703,1065.05543 975.348993,1064.66054 C975.843318,1064.23461 975.929508,1063.66352 975.514372,1062.79259 L974.94634,1061.601 L973.696535,1062.19563 C973.458777,1062.30848 973.179717,1062.23101 973.031474,1062.02454 L972.982351,1061.94119 C972.855396,1061.67372 972.969311,1061.35396 973.236789,1061.22701 L974.48534,1060.634 L973.920288,1059.44616 C973.504734,1058.57495 973.005016,1058.28064 972.360708,1058.39474 Z M967.471122,1061.3755 L963.41634,1061.375 L963.41634,1064.636 L965.762327,1064.63638 C966.040542,1063.73564 966.678056,1062.53157 967.471122,1061.3755 Z M978.68034,1057.991 L977.469457,1058.56649 L978.438169,1060.59764 L979.64834,1060.022 L978.68034,1057.991 Z M980.389872,1057.18022 L979.64834,1057.532 L980.61734,1059.563 L981.360634,1059.21043 C981.918774,1058.9448 982.159323,1058.26978 981.893835,1057.71342 L981.885727,1057.69678 C981.614139,1057.15087 980.944296,1056.91782 980.389872,1057.18022 Z" id="nonprofit-foundation"></path>
        </g>
    </g>
</svg>