<?xml version="1.0" encoding="UTF-8"?>
<svg viewBox="0 0 29 30" version="1.1" xmlns="http://www.w3.org/2000/svg" xmlns:xlink="http://www.w3.org/1999/xlink">
    <title>platform-pricing</title>
    <g id="Website" stroke="none" stroke-width="1" fill="none" fill-rule="evenodd">
        <g id="Economy" transform="translate(-207, -924)" fill="#B671B8" fill-rule="nonzero">
            <path d="M220.760808,937.378037 L223.015324,944.454798 L225.075551,936.713471 C225.133307,936.496336 225.331861,936.345974 225.556612,936.351579 C225.781241,936.356209 225.97358,936.513821 226.02232,936.73315 L226.477609,938.781862 L227.496147,935.42193 C227.562921,935.20181 227.774999,935.058698 228.003588,935.077645 C228.232848,935.097019 228.417267,935.273944 228.446145,935.502168 L228.766243,938.032307 L230.855165,934.389136 L230.711322,934.447258 C230.461775,934.54821 230.177623,934.42764 230.076792,934.178093 C229.975901,933.928546 230.09641,933.644454 230.346018,933.543563 L231.796268,932.957224 C231.935298,932.901113 232.092545,932.911897 232.222619,932.987017 C232.352571,933.062076 232.440729,933.192759 232.461565,933.341415 L232.678944,934.890546 C232.716291,935.157091 232.530532,935.403531 232.263926,935.440939 C231.997746,935.478164 231.751001,935.292587 231.713593,935.025981 L231.693976,934.886037 L228.888153,939.779503 C228.78385,939.961241 228.575488,940.055979 228.369684,940.014977 C228.164247,939.973914 228.008036,939.806066 227.981777,939.598191 L227.765921,937.892241 L226.871426,940.843125 C226.80709,941.055143 226.607501,941.197463 226.386527,941.188751 C226.165127,941.180404 225.977235,941.023767 225.929166,940.807423 L225.503973,938.894086 L223.528248,946.317751 C223.472563,946.527027 223.285524,946.674404 223.069059,946.679765 C223.065099,946.679765 223.061139,946.679765 223.057179,946.679765 C222.845527,946.679765 222.657392,946.542868 222.592933,946.340293 L220.115372,938.563265 L217.392468,942.114196 C217.279331,942.261694 217.09211,942.33194 216.909884,942.295507 C216.727659,942.258953 216.582049,942.121933 216.534528,941.942266 L215.139902,936.671372 L210.072009,942.314881 C209.892159,942.51508 209.583942,942.531712 209.383743,942.351863 C209.183423,942.172013 209.166852,941.863856 209.346762,941.663597 L215.017626,935.348638 C215.137282,935.215396 215.320422,935.158553 215.494483,935.200469 C215.668545,935.242446 215.805625,935.376541 215.85138,935.549628 L217.222915,940.733278 L219.909691,937.229503 C220.020147,937.085477 220.201824,937.014805 220.380334,937.045937 C220.559147,937.077069 220.705732,937.205072 220.760808,937.378037 Z M211.603593,947.381678 C211.334428,947.381678 211.116196,947.59991 211.116196,947.869075 C211.116196,948.13824 211.334428,948.356472 211.603593,948.356472 L212.578387,948.356472 C212.847552,948.356472 213.065784,948.13824 213.065784,947.869075 C213.065784,947.59991 212.847552,947.381678 212.578387,947.381678 L211.603593,947.381678 Z M219.401884,947.381678 C219.132719,947.381678 218.914487,947.59991 218.914487,947.869075 C218.914487,948.13824 219.132719,948.356472 219.401884,948.356472 L220.376678,948.356472 C220.645843,948.356472 220.864075,948.13824 220.864075,947.869075 C220.864075,947.59991 220.645843,947.381678 220.376678,947.381678 L219.401884,947.381678 Z M216.477502,947.381678 L215.502708,947.381678 C215.233543,947.381678 215.015311,947.59991 215.015311,947.869075 C215.015311,948.13824 215.233543,948.356472 215.502708,948.356472 L216.477502,948.356472 C216.746667,948.356472 216.964899,948.13824 216.964899,947.869075 C216.964899,947.59991 216.746667,947.381678 216.477502,947.381678 Z M207.704417,948.356472 L208.679211,948.356472 C208.948376,948.356472 209.166608,948.13824 209.166608,947.869075 C209.166608,947.59991 208.948376,947.381678 208.679211,947.381678 L207.704417,947.381678 C207.435252,947.381678 207.21702,947.59991 207.21702,947.869075 C207.21702,948.13824 207.435252,948.356472 207.704417,948.356472 Z M224.76319,947.869075 C224.76319,947.59991 224.544958,947.381678 224.275793,947.381678 L223.300999,947.381678 C223.031834,947.381678 222.813602,947.59991 222.813602,947.869075 C222.813602,948.13824 223.031834,948.356472 223.300999,948.356472 L224.275793,948.356472 C224.544958,948.356472 224.76319,948.13824 224.76319,947.869075 Z M215.808245,934.708137 L216.783039,934.708137 C217.052204,934.708137 217.270436,934.489905 217.270436,934.22074 C217.270436,933.951575 217.052204,933.733343 216.783039,933.733343 L215.808245,933.733343 C215.53908,933.733343 215.320848,933.951575 215.320848,934.22074 C215.320848,934.489905 215.53908,934.708137 215.808245,934.708137 Z M208.009954,934.708137 L208.984748,934.708137 C209.253913,934.708137 209.472145,934.489905 209.472145,934.22074 C209.472145,933.951575 209.253913,933.733343 208.984748,933.733343 L208.009954,933.733343 C207.740789,933.733343 207.522557,933.951575 207.522557,934.22074 C207.522557,934.489905 207.740789,934.708137 208.009954,934.708137 Z M219.70736,934.708137 L220.682154,934.708137 C220.951319,934.708137 221.169551,934.489905 221.169551,934.22074 C221.169551,933.951575 220.951319,933.733343 220.682154,933.733343 L219.70736,933.733343 C219.438195,933.733343 219.219963,933.951575 219.219963,934.22074 C219.219963,934.489905 219.438195,934.708137 219.70736,934.708137 Z M212.883863,934.708137 C213.153028,934.708137 213.37126,934.489905 213.37126,934.22074 C213.37126,933.951575 213.153028,933.733343 212.883863,933.733343 L211.909069,933.733343 C211.639904,933.733343 211.421672,933.951575 211.421672,934.22074 C211.421672,934.489905 211.639904,934.708137 211.909069,934.708137 L212.883863,934.708137 Z M231.348777,944.4378 C233.877514,944.4378 235.934756,946.495103 235.934756,949.023779 C235.934756,951.552456 233.877453,953.609759 231.348777,953.609759 C228.8201,953.609759 226.762797,951.552456 226.762797,949.023779 C226.762797,946.495103 228.820039,944.4378 231.348777,944.4378 Z M231.348777,945.412594 C229.357516,945.412594 227.737591,947.03258 227.737591,949.023779 C227.737591,951.014979 229.357577,952.634965 231.348777,952.634965 C233.339976,952.634965 234.959962,951.01504 234.959962,949.02384 C234.959962,947.032641 233.339976,945.412594 231.348777,945.412594 L231.348777,945.412594 Z M230.86138,946.588744 L230.86138,949.02384 C230.86138,949.197963 230.954229,949.358865 231.105078,949.445926 L232.867262,950.463367 C232.944027,950.50772 233.027799,950.528739 233.110473,950.528739 C233.27893,950.528739 233.442756,950.441313 233.533046,950.28498 C233.66769,950.051882 233.587757,949.753778 233.354659,949.619196 L231.836174,948.74249 L231.836174,946.588805 C231.836174,946.31964 231.617942,946.101408 231.348777,946.101408 C231.079612,946.101408 230.86138,946.319518 230.86138,946.588744 Z M207.543941,928.414745 C207.543941,926.316684 209.250867,924.609759 211.348928,924.609759 C213.446989,924.609759 215.153976,926.316684 215.153976,928.414745 C215.153976,930.512807 213.446989,932.219793 211.348928,932.219793 C209.250867,932.219793 207.543941,930.512868 207.543941,928.414745 Z M208.518735,928.414745 C208.518735,929.97533 209.788344,931.244999 211.348928,931.244999 C212.909512,931.244999 214.179182,929.97539 214.179182,928.414745 C214.179182,926.854161 212.909512,925.584553 211.348928,925.584553 C209.788344,925.584553 208.518735,926.854161 208.518735,928.414745 Z M211.38067,929.55763 C211.137885,929.562931 210.827657,929.470447 210.757594,929.18928 C210.692465,928.928096 210.42787,928.769144 210.166808,928.834272 C209.905624,928.89934 209.746671,929.163874 209.811739,929.425058 C209.940046,929.939932 210.337214,930.319858 210.861592,930.466382 L210.861592,930.514147 C210.861592,930.783312 211.079824,931.001544 211.348989,931.001544 C211.618154,931.001544 211.836386,930.783312 211.836386,930.514147 L211.836386,930.475094 C212.159957,930.395405 212.440941,930.236635 212.628223,930.020109 C212.840911,929.774156 212.931872,929.467279 212.891235,929.13262 C212.811363,928.475122 212.320067,928.06778 211.430933,927.921865 C210.892907,927.833524 210.884743,927.66586 210.882063,927.610723 C210.870974,927.382438 211.126614,927.306587 211.205207,927.288736 C211.389077,927.246942 211.737262,927.264671 211.876292,927.595614 C211.980473,927.843882 212.26627,927.96043 212.514355,927.85631 C212.762562,927.752129 212.879294,927.466453 212.775052,927.218247 C212.597152,926.794516 212.252197,926.494523 211.836386,926.365667 L211.836386,926.315283 C211.836386,926.046118 211.618154,925.827886 211.348989,925.827886 C211.079824,925.827886 210.861592,926.046118 210.861592,926.315283 L210.861592,926.37243 C210.257951,926.560626 209.879609,927.063193 209.908487,927.65794 C209.926764,928.035063 210.128303,928.69573 211.272955,928.883743 C211.89134,928.985243 211.913943,929.17082 211.923569,929.250083 C211.93283,929.326543 211.912481,929.357371 211.890913,929.38235 C211.807508,929.478855 211.592931,929.552574 211.38067,929.55763 L211.38067,929.55763 Z M223.057301,953.383058 C223.326466,953.383058 223.544698,953.164826 223.544698,952.895661 L223.544698,950.376915 L223.548231,950.381485 C223.713946,950.593563 224.020214,950.631276 224.232354,950.465622 C224.444494,950.299967 224.482206,949.993638 224.316552,949.781499 L223.441491,948.660912 C223.349069,948.542658 223.207358,948.473508 223.057301,948.473508 C222.907243,948.473508 222.765533,948.542658 222.67311,948.660912 L221.79805,949.781499 C221.632396,949.993638 221.670047,950.299967 221.882247,950.465622 C222.094326,950.631337 222.400655,950.593624 222.56637,950.381485 L222.569904,950.376915 L222.569904,952.895661 C222.569904,953.164826 222.788136,953.383058 223.057301,953.383058 Z M215.02908,931.485164 L215.90414,932.60575 C215.996563,932.724005 216.138274,932.793154 216.288331,932.793154 C216.438388,932.793154 216.580099,932.724005 216.672522,932.60575 L217.547582,931.485164 C217.713236,931.273024 217.675585,930.966695 217.463384,930.801041 C217.251306,930.635326 216.944916,930.673038 216.779262,930.885178 L216.775728,930.889747 L216.775728,928.37094 C216.775728,928.101775 216.557496,927.883543 216.288331,927.883543 C216.019166,927.883543 215.800934,928.101775 215.800934,928.37094 L215.800934,930.889686 L215.7974,930.885117 C215.631625,930.672977 215.325356,930.635265 215.113278,930.80098 C214.901138,930.966695 214.863487,931.272963 215.02908,931.485164 L215.02908,931.485164 Z" id="platform-pricing"></path>
        </g>
    </g>
</svg>