<?xml version="1.0" encoding="UTF-8"?>
<svg width="21px" height="21.000052px" viewBox="0 0 21 21.000052" version="1.1" xmlns="http://www.w3.org/2000/svg" xmlns:xlink="http://www.w3.org/1999/xlink">
    <title>proof-of-knowledge</title>
    <g id="Website" stroke="none" stroke-width="1" fill="none" fill-rule="evenodd">
        <g id="Mainchain" transform="translate(-592.2557, -446.3613)" fill="#000000" fill-rule="nonzero">
            <g id="MAINCHAIN-MENU" transform="translate(129.0465, 37.9778)">
                <path d="M471.187999,429.383595 L468.802601,429.383595 L468.802601,428.768355 L470.572719,428.768342 L470.572758,427.139222 L470.883141,427.142009 L472.30815,427.154806 L472.38771,427.148033 C472.594711,427.110519 472.755911,426.921849 472.762594,426.68889 L472.80361,425.25986 L472.809307,425.061378 L472.992525,424.984838 L473.776229,424.657443 C474.183712,424.487242 474.265775,424.105726 474.074522,423.688092 L473.363842,422.136219 L473.335909,422.075224 L473.335909,422.008136 C473.335909,419.074721 471.416457,417.231997 468.541821,417.287125 C465.713993,417.341412 463.824518,419.212484 463.824518,422.008136 C463.824518,423.331275 464.373926,424.568789 465.326396,425.476452 C465.822491,425.949215 466.125923,426.446252 466.280738,426.984779 C466.393756,427.377914 466.417128,427.6762 466.417126,428.255618 L466.417124,428.768342 L468.187283,428.768355 L468.187283,429.383595 L465.801885,429.383595 L465.801865,428.227261 C465.801138,427.721626 465.780277,427.470724 465.689445,427.154763 C465.580567,426.776027 465.378974,426.420759 465.050566,426.071304 L464.717456,425.737676 C463.758838,424.73527 463.209278,423.414674 463.209278,422.008136 C463.209278,418.87327 465.370959,416.732643 468.530018,416.671997 C468.608793,416.670486 468.686961,416.670283 468.764506,416.671371 C468.783323,416.671636 468.802086,416.671976 468.820812,416.672391 C468.927891,416.67477 469.033671,416.679618 469.138199,416.686899 C469.20855,416.691802 469.278169,416.697789 469.347209,416.704861 C469.510554,416.721592 469.670672,416.744397 469.827364,416.773116 L469.666438,416.745893 C469.737392,416.756907 469.807675,416.769109 469.877273,416.782486 L469.827364,416.773116 C469.88452,416.783592 469.941221,416.794855 469.997456,416.806897 L469.877273,416.782486 C469.956829,416.797777 470.035488,416.814602 470.113225,416.83294 L469.997456,416.806897 C470.047099,416.817527 470.096378,416.828764 470.14529,416.840603 L470.113225,416.83294 C470.183415,416.849498 470.252853,416.86729 470.321521,416.886299 L470.14529,416.840603 C470.221149,416.858964 470.296121,416.878774 470.370184,416.900011 L470.321521,416.886299 C470.379965,416.902478 470.437851,416.91954 470.495169,416.937474 L470.370184,416.900011 C470.452423,416.923593 470.533541,416.948936 470.613505,416.976012 L470.495169,416.937474 C470.571097,416.961231 470.646027,416.98652 470.719933,417.013319 L470.613505,416.976012 C470.669351,416.994922 470.724634,417.014677 470.779343,417.035269 L470.719933,417.013319 C470.783548,417.036386 470.846404,417.060571 470.908484,417.08586 L470.779343,417.035269 C470.849854,417.061808 470.919412,417.089736 470.987993,417.119034 L470.908484,417.08586 C470.968858,417.110454 471.028498,417.136092 471.087389,417.162761 L470.987993,417.119034 C471.055724,417.147967 471.122503,417.178237 471.188307,417.209823 L471.087389,417.162761 C471.150247,417.191227 471.212252,417.220868 471.273386,417.251668 L471.188307,417.209823 C471.239869,417.234573 471.290833,417.260131 471.341188,417.286489 L471.273386,417.251668 C471.337832,417.284136 471.40131,417.317893 471.463797,417.352918 L471.341188,417.286489 C471.396881,417.31564 471.451828,417.345769 471.506016,417.376863 L471.463797,417.352918 C471.521664,417.385355 471.578683,417.41888 471.634834,417.45348 L471.506016,417.376863 C471.567174,417.411957 471.627364,417.44828 471.686566,417.485815 L471.634834,417.45348 C471.690373,417.487702 471.745064,417.522975 471.798891,417.559284 L471.686566,417.485815 C471.752157,417.527401 471.816535,417.570474 471.879671,417.615011 L471.798891,417.559284 C471.847373,417.591988 471.895154,417.625533 471.942221,417.659909 C472.051515,417.739733 472.156959,417.824034 472.258398,417.912682 L472.201065,417.863402 C472.25064,417.905312 472.299292,417.948235 472.347005,417.992158 L472.258398,417.912682 C472.307009,417.955163 472.354701,417.998642 472.401456,418.043105 L472.347005,417.992158 C472.390548,418.032242 472.433308,418.073159 472.475274,418.114896 L472.401456,418.043105 C472.4507,418.089936 472.498906,418.137858 472.546052,418.186854 L472.475274,418.114896 C472.522145,418.161514 472.568024,418.209155 472.612892,418.257805 L472.546052,418.186854 C472.598134,418.240979 472.648923,418.296414 472.698394,418.353138 L472.612892,418.257805 C472.653224,418.301536 472.692739,418.346083 472.731425,418.391433 L472.698394,418.353138 C472.73421,418.394206 472.769335,418.435948 472.803758,418.478357 L472.731425,418.391433 C472.78309,418.451999 472.833275,418.513999 472.881949,418.577406 L472.803758,418.478357 C472.844662,418.52875 472.884575,418.580084 472.923481,418.632345 L472.881949,418.577406 C472.917572,418.623813 472.952386,418.670973 472.986378,418.718876 L472.923481,418.632345 C472.962593,418.684882 473.000687,418.738356 473.037746,418.792752 L472.986378,418.718876 C473.026586,418.775539 473.065644,418.833242 473.103531,418.891968 L473.037746,418.792752 C473.071554,418.842376 473.1045,418.892766 473.136571,418.943913 L473.103531,418.891968 C473.138878,418.946757 473.173207,419.002435 473.2065,419.05899 L473.136571,418.943913 C473.176864,419.008172 473.215777,419.073624 473.253283,419.140248 L473.2065,419.05899 C473.241027,419.11764 473.27444,419.177232 473.306721,419.23775 L473.253283,419.140248 C473.285639,419.197723 473.316949,419.25607 473.347195,419.315275 L473.306721,419.23775 C473.3395,419.299201 473.371111,419.361606 473.401536,419.424951 C473.460251,419.547193 473.514546,419.672932 473.564284,419.802047 L473.515847,419.680843 C473.544623,419.750306 473.572048,419.820792 473.5981,419.892281 L473.564284,419.802047 C473.589204,419.866739 473.61298,419.932279 473.635595,419.998652 L473.5981,419.892281 C473.619119,419.949962 473.639245,420.008295 473.658463,420.067272 C473.735843,420.304722 473.79853,420.552588 473.845742,420.810206 C473.874735,420.968524 473.897799,421.129707 473.914898,421.294383 C473.931046,421.449904 473.941874,421.608541 473.947232,421.770166 L473.950278,421.990543 L473.951055,421.970866 C473.951118,421.983273 473.95115,421.995696 473.95115,422.008136 L473.950655,421.939954 L474.633898,423.431928 C474.767222,423.723064 474.819486,424.050696 474.760566,424.351276 L474.756055,424.37322 C474.674476,424.752489 474.422218,425.054374 474.01337,425.225145 L473.412857,425.475965 L473.377582,426.706537 C473.360824,427.290731 472.898239,427.765699 472.320179,427.770035 L472.302627,427.770022 L471.187997,427.76001 L471.187999,429.383595 Z M478.616075,422.32687 L479.231316,422.32687 L479.231316,426.636933 L476.643278,426.636543 L476.905278,426.899543 L476.987929,426.981854 L476.552893,427.416906 L475.465253,426.329318 L475.682779,426.111792 L476.552888,425.241683 L476.987929,425.676724 L476.642278,426.021543 L478.616036,426.021653 L478.616075,422.32687 Z M468.535917,419.748083 C469.555275,419.748083 470.381629,420.574436 470.381629,421.593795 C470.381629,422.276518 470.010946,422.872665 469.459863,423.191952 L469.458774,423.747082 C469.458774,424.255356 469.044191,424.669939 468.535917,424.669939 C468.027642,424.669939 467.61306,424.255356 467.61306,423.747082 L467.61197,423.191952 C467.060887,422.872665 466.690205,422.276518 466.690205,421.593795 C466.690205,420.625404 467.435989,419.831201 468.38454,419.754201 Z M468.843415,423.414007 C468.743413,423.430778 468.640684,423.439507 468.535917,423.439507 L468.380381,423.433046 L468.228418,423.414007 L468.2283,423.747082 C468.2283,423.915568 468.36743,424.054698 468.535917,424.054698 C468.704403,424.054698 468.843533,423.915568 468.843533,423.747082 Z M470.906765,422.463849 L471.559326,423.11641 L471.124285,423.551451 L470.471724,422.89889 L470.906765,422.463849 Z M466.165109,422.463849 L466.60015,422.89889 L465.947589,423.551451 L465.512548,423.11641 L466.165109,422.463849 Z M468.535917,420.363324 C467.856346,420.363324 467.305445,420.914224 467.305445,421.593795 C467.305445,422.273365 467.856346,422.824266 468.535917,422.824266 C469.215487,422.824266 469.766388,422.273365 469.766388,421.593795 C469.766388,420.956697 469.282198,420.432689 468.661725,420.369676 Z M465.932153,421.286174 L465.932153,421.901415 L465.009298,421.901415 L465.009298,421.286174 L465.932153,421.286174 Z M472.062576,421.286174 L472.062576,421.901415 L471.139721,421.901415 L471.139721,421.286174 L472.062576,421.286174 Z M478.888543,408.384841 C482.047611,408.445488 484.209278,410.586088 484.209278,413.72098 C484.209278,415.215442 483.588864,416.612867 482.51656,417.634684 C482.099033,418.032574 481.853503,418.434771 481.729069,418.867621 C481.636555,419.189437 481.616628,419.443761 481.616629,419.96846 L481.616629,421.09644 L476.230597,421.09644 L476.230596,419.472855 L475.115967,419.482866 C474.53561,419.488075 474.067389,419.019001 474.041659,418.437055 L474.041015,418.419386 L474.005695,417.188769 L473.405241,416.937996 C473.003081,416.770017 472.752433,416.475196 472.66669,416.104655 L472.662541,416.086065 C472.596609,415.779544 472.648122,415.443009 472.784699,415.14477 L473.467773,413.653168 L473.4679,413.639337 C473.480441,412.512926 473.752941,411.510999 474.262907,410.685736 L474.281443,410.655984 L474.802435,410.983229 C474.331849,411.732426 474.082687,412.659872 474.082687,413.72098 L474.082687,413.788068 L474.054754,413.849063 L473.344075,415.400935 C473.152821,415.81857 473.234884,416.200086 473.64237,416.370289 L474.426058,416.697636 L474.60929,416.774171 L474.614986,416.972663 L474.656002,418.40174 C474.66352,418.663813 474.8666,418.869839 475.110444,418.867651 L476.535455,418.854854 L476.845838,418.852066 L476.845832,420.481187 L481.001387,420.481187 L481.001411,419.93769 C481.002235,419.388551 481.025893,419.094557 481.131807,418.718612 L481.137776,418.697639 C481.292592,418.159103 481.596025,417.662058 482.092124,417.18929 C483.044621,416.28164 483.594037,415.04413 483.594037,413.72098 C483.594037,410.925302 481.704577,409.054256 478.876741,408.999969 C477.407609,408.971796 476.160763,409.445471 475.307424,410.335523 L475.152075,410.507266 L474.684032,410.107947 C475.662603,408.96096 477.150448,408.351511 478.888543,408.384841 Z M465.947589,419.636098 L466.60015,420.288659 L466.165109,420.7237 L465.512548,420.071139 L465.947589,419.636098 Z M471.124244,419.636098 L471.559285,420.071139 L470.906724,420.7237 L470.471683,420.288659 L471.124244,419.636098 Z M480.187657,412.001617 C480.908446,412.722406 480.908446,413.891035 480.187657,414.611823 C480.071008,414.728473 479.942629,414.826244 479.806318,414.905137 L479.805578,415.459926 C479.805578,415.931895 479.448106,416.323079 478.990086,416.376555 L478.882721,416.382783 C478.374446,416.382783 477.959864,415.968201 477.959864,415.459926 L477.959808,414.905726 C477.823118,414.82673 477.694391,414.728763 477.577451,414.611823 C476.856663,413.891035 476.856663,412.722406 477.577451,412.001617 C477.897802,411.681267 478.306614,411.503295 478.725256,411.4677 L478.882554,411.461026 C479.354909,411.461026 479.827263,411.641223 480.187657,412.001617 Z M478.574278,415.216543 L478.574278,415.387543 L478.575104,415.459926 C478.575104,415.628412 478.714235,415.767543 478.882721,415.767543 L478.952812,415.759344 C479.088119,415.727192 479.190337,415.604343 479.190337,415.459926 L479.19124,415.126568 L479.037588,415.145932 L478.883059,415.152415 C478.779942,415.152443 478.676822,415.143883 478.574866,415.126736 L478.574278,415.216543 Z M468.843535,411.746686 L468.843537,415.441469 L468.228296,415.441469 L468.228296,411.131447 L470.815278,411.130543 L470.471719,410.786474 L470.90677,410.351444 L471.776838,411.221552 L471.994348,411.439073 L470.906765,412.526656 L470.471719,412.091615 L470.815278,411.746543 L468.843535,411.746686 Z M476.511872,414.176693 L476.946913,414.611734 L476.294352,415.264295 L475.859311,414.829254 L476.511872,414.176693 Z M481.253528,414.176693 L481.906089,414.829254 L481.471048,415.264295 L480.818487,414.611734 L481.253528,414.176693 Z M478.012488,412.436654 C477.531964,412.917178 477.531964,413.696262 478.012488,414.176787 C478.236733,414.401031 478.525997,414.520628 478.819596,414.535578 L478.945513,414.535578 L479.070898,414.522764 C479.320431,414.484322 479.560411,414.368996 479.75262,414.176787 C480.233145,413.696262 480.233145,412.917178 479.75262,412.436654 C479.272096,411.95613 478.493012,411.95613 478.012488,412.436654 Z M482.409339,412.999019 L482.409339,413.614259 L481.486484,413.614259 L481.486484,412.999019 L482.409339,412.999019 Z M476.278916,412.999019 L476.278916,413.614259 L475.356061,413.614259 L475.356061,412.999019 L476.278916,412.999019 Z M476.294352,411.348942 L476.946913,412.001503 L476.511872,412.436544 L475.859311,411.783983 L476.294352,411.348942 Z M481.471007,411.348942 L481.906048,411.783983 L481.253487,412.436544 L480.818446,412.001503 L481.471007,411.348942 Z" id="proof-of-knowledge"></path>
            </g>
        </g>
    </g>
</svg>