<?xml version="1.0" encoding="UTF-8"?>
<svg width="23.6931034px" height="22.9px" viewBox="0 0 23.6931034 22.9" version="1.1" xmlns="http://www.w3.org/2000/svg" xmlns:xlink="http://www.w3.org/1999/xlink">
    <title>proof-of-work</title>
    <g id="Website" stroke="none" stroke-width="1" fill="none" fill-rule="evenodd">
        <g id="Mainchain" transform="translate(-590.9092, -357.2861)" fill="#000000" fill-rule="nonzero">
            <g id="MAINCHAIN-MENU" transform="translate(129.0465, 37.9778)">
                <path d="M471.726519,319.308333 C472.357181,319.308333 472.866174,319.817327 472.866174,320.447989 L472.865726,320.862279 L472.967985,320.918063 C473.124458,320.949579 473.238933,321.088806 473.238933,321.256954 L473.238726,321.480287 C476.417944,321.850835 478.923013,322.917417 480.389588,324.557865 C480.571168,324.758231 480.589043,324.940557 480.502251,325.094855 C480.362554,325.336141 480.230999,325.33897 479.342379,325.157619 C477.438613,324.767503 475.78406,324.536749 473.283036,324.434926 L473.231002,325.21454 C473.231002,325.307849 473.194375,325.395753 473.128588,325.454962 C473.052019,325.523873 472.985845,325.560131 472.912399,325.567614 L472.866726,327.18931 L472.916726,327.188333 L473.077726,327.189333 L483.623071,327.239368 C483.702065,327.239368 483.779894,327.267332 483.839492,327.315476 L483.892381,327.370057 L485.479545,329.354051 C485.528465,329.416956 485.555829,329.493576 485.555829,329.568678 L485.555829,338.292816 C485.555829,338.367918 485.528465,338.444538 485.47912,338.507981 L483.893338,340.490202 C483.83165,340.572412 483.728396,340.622126 483.623071,340.622126 L480.053737,340.621333 L480.004105,341.861798 C480.004105,342.056236 479.852008,342.208333 479.657553,342.208333 L470.140312,342.208333 C469.945857,342.208333 469.79376,342.056236 469.79376,341.861782 L469.793726,340.671332 L468.949726,340.621333 L468.900657,341.861821 C468.900657,342.056236 468.74856,342.208333 468.554105,342.208333 L465.381691,342.208333 C465.187237,342.208333 465.03514,342.056236 465.03514,341.861782 L465.034726,340.671316 L463.398726,340.621333 L463.348933,341.86179 C463.348933,342.056236 463.196836,342.208333 463.002381,342.208333 C462.807926,342.208333 462.655829,342.056236 462.655829,341.861782 L462.655726,340.671329 L462.209178,340.622127 C462.014823,340.622126 461.862726,340.470029 461.862726,340.275575 C461.862726,340.08112 462.014823,339.929023 462.209278,339.929023 L462.605813,339.928333 L462.655829,339.085926 L462.209278,339.03592 C462.014823,339.03592 461.862726,338.883823 461.862726,338.689368 L461.862726,335.516954 C461.862726,335.322499 462.014823,335.170402 462.209278,335.170402 L462.605829,335.170402 L462.655726,334.326327 L462.209156,334.277299 C462.014823,334.277299 461.862726,334.125202 461.862726,333.930747 C461.862726,333.736292 462.014823,333.584195 462.209278,333.584195 L462.605835,333.583333 L462.655829,331.947992 L462.209278,331.897989 C462.014823,331.897989 461.862726,331.745892 461.862726,331.551437 L461.862726,329.96523 C461.862726,329.770775 462.014823,329.618678 462.209278,329.618678 L462.605829,329.618678 L462.655726,327.98233 L462.20926,327.932471 C462.014823,327.932471 461.862726,327.780374 461.862726,327.58592 C461.862726,327.391465 462.014823,327.239368 462.209278,327.239368 L468.554105,327.239368 C468.74856,327.239368 468.900657,327.391465 468.900657,327.58592 C468.900657,327.780374 468.74856,327.932471 468.554105,327.932471 L463.398933,327.932471 L463.348933,329.96523 C463.348933,330.159685 463.196836,330.311782 463.002381,330.311782 L462.605829,330.311782 L462.555829,331.154885 L463.002381,331.204885 C463.196836,331.204885 463.348933,331.356982 463.348933,331.551437 L463.348933,335.516954 C463.348933,335.711409 463.196836,335.863506 463.002381,335.863506 L462.605829,335.863506 L462.555829,338.292816 L463.002381,338.342816 C463.196836,338.342816 463.348933,338.494913 463.348933,338.689368 L463.348933,339.879023 L465.381691,339.929023 C465.576146,339.929023 465.728243,340.08112 465.728243,340.275575 L465.728243,341.46523 L466.570782,341.514333 L466.621347,341.068757 C466.621347,340.874223 466.773444,340.722126 466.967898,340.722126 C467.162353,340.722126 467.31445,340.874223 467.31445,341.068678 L467.313726,341.464242 L468.157497,341.51523 L468.207553,340.275575 C468.207553,340.08112 468.35965,339.929023 468.554105,339.929023 L470.140312,339.929023 C470.334767,339.929023 470.486864,340.08112 470.486864,340.275575 L470.486864,341.46523 L471.329782,341.514333 L471.379967,341.068709 C471.379967,340.874223 471.532064,340.722126 471.726519,340.722126 C471.920974,340.722126 472.073071,340.874223 472.073071,341.068678 L472.072726,341.46429 L472.915726,341.514333 L472.966174,341.068735 C472.966174,340.874223 473.118271,340.722126 473.312726,340.722126 C473.507181,340.722126 473.659278,340.874223 473.659278,341.068678 L473.658726,341.464264 L474.501726,341.514333 L474.552381,341.068761 C474.552381,340.874223 474.704478,340.722126 474.898933,340.722126 C475.093388,340.722126 475.245485,340.874223 475.245485,341.068678 L475.244726,341.464237 L476.087726,341.514333 L476.138588,341.068787 C476.138588,340.874223 476.290685,340.722126 476.48514,340.722126 C476.679594,340.722126 476.831691,340.874223 476.831691,341.068678 L476.830726,341.464211 L477.674726,341.514333 L477.724795,341.068687 C477.724795,340.874223 477.876892,340.722126 478.071347,340.722126 C478.265801,340.722126 478.417898,340.874223 478.417898,341.068678 L478.417726,341.464312 L479.260945,341.51523 L479.311002,340.275575 C479.311002,340.08112 479.463099,339.929023 479.657553,339.929023 L483.432726,339.929023 L484.851804,338.181248 L484.862726,329.711437 L483.471804,327.95128 L472.916727,327.932333 L472.866174,337.49971 C472.866174,338.344512 472.174767,339.03592 471.329967,339.03592 C470.485168,339.03592 469.79376,338.344512 469.79376,337.499713 L469.793726,325.617333 L469.683611,325.561322 C469.527546,325.529846 469.413071,325.39062 469.413071,325.222471 L469.413071,324.492816 C469.396064,324.493168 469.379094,324.493529 469.362161,324.493898 L469.291255,324.495497 C466.83214,324.55283 465.143027,324.788649 463.357092,325.157643 C462.457394,325.3358 462.305476,325.331052 462.15688,325.085547 C462.068766,324.928847 462.080841,324.75461 462.255334,324.548958 C463.580764,322.981164 466.221917,321.865025 469.376752,321.538316 L469.421002,321.256824 C469.421002,321.062499 469.573099,320.910402 469.767553,320.910402 L472.122727,320.910333 L472.173071,320.44803 C472.173071,320.198305 471.976202,320.001437 471.726519,320.001437 L470.933416,320.001437 C470.846133,320.001437 470.75745,320.027108 470.684847,320.072485 C470.524758,320.17688 470.309273,320.135938 470.205417,319.983615 C470.102111,319.825193 470.143053,319.609708 470.295375,319.505852 C470.485523,319.376551 470.70577,319.308333 470.933416,319.308333 Z M478.86445,329.237989 C481.462008,329.237989 483.573071,331.349051 483.573071,333.946609 C483.573071,336.541095 481.465095,338.639368 478.86445,338.639368 C476.266892,338.639368 474.155829,336.528305 474.155829,333.930747 C474.155829,333.083115 474.383442,332.251221 474.815073,331.521372 C474.912755,331.35392 475.127546,331.300222 475.292778,331.403492 C475.461277,331.50181 475.514975,331.716602 475.411705,331.881833 C475.241541,332.166653 475.108594,332.470174 475.014648,332.787302 C475.033683,332.782546 475.052702,332.777939 475.071706,332.773479 C475.068002,332.783353 475.065279,332.792423 475.062589,332.801504 C475.153535,332.769664 475.24447,332.742972 475.335255,332.720995 C476.061111,332.602327 476.779738,332.699477 477.606254,332.994609 L477.69173,332.941255 C477.771297,332.847034 477.863188,332.761506 477.964176,332.688013 C477.481267,331.597601 476.923123,331.094265 476.102595,330.93518 C475.978733,330.94368 475.871348,330.899437 475.802278,330.814115 C475.677542,330.66856 475.697097,330.446941 475.842462,330.329265 C476.689934,329.623044 477.75703,329.237989 478.86445,329.237989 Z M472.122726,325.568333 L470.536726,325.568333 L470.486864,337.499713 C470.486864,337.963534 470.866146,338.342816 471.329967,338.342816 C471.793788,338.342816 472.173071,337.963534 472.173071,337.499713 L472.172726,325.618332 L472.122726,325.568333 Z M478.646078,335.451369 L478.591847,335.484106 L478.547313,335.60933 C478.223133,336.583204 478.251633,337.287373 478.641667,337.926228 C478.743909,337.952856 478.803973,337.954195 478.86445,337.954195 C479.54284,337.954195 480.197188,337.785462 480.780452,337.467964 C480.763604,337.457736 480.746877,337.447415 480.730268,337.436998 L480.756546,337.424048 C480.672565,337.38318 480.592068,337.338877 480.514846,337.291472 C479.924438,336.863552 479.492123,336.288272 479.118027,335.481125 C479.059827,335.471677 479.013902,335.468134 478.973793,335.466954 L478.86445,335.466954 C478.790932,335.466954 478.71802,335.461722 478.646078,335.451369 Z M477.570046,334.82974 L477.484175,334.871285 C476.551746,335.340406 476.072189,335.86526 475.897769,336.610398 C476.401345,337.190855 477.028278,337.584224 477.72623,337.790373 C477.721669,337.771378 477.717255,337.752396 477.712988,337.733425 C477.722828,337.737199 477.731604,337.739825 477.740393,337.742421 C477.709354,337.651155 477.683495,337.559851 477.662375,337.46866 C477.552069,336.7469 477.654081,336.028672 477.952143,335.207713 C477.820624,335.064212 477.718547,334.961184 477.631921,334.844881 L477.570046,334.82974 Z M466.967898,336.756609 C467.162353,336.756609 467.31445,336.908706 467.31445,337.103161 C467.31445,337.297616 467.162353,337.449713 466.967898,337.449713 L466.888588,337.449713 C466.694133,337.449713 466.542036,337.297616 466.542036,337.103161 C466.542036,336.908706 466.694133,336.756609 466.888588,336.756609 Z M465.381691,336.756609 C465.576146,336.756609 465.728243,336.908706 465.728243,337.103161 C465.728243,337.297616 465.576146,337.449713 465.381691,337.449713 L465.302381,337.449713 C465.107926,337.449713 464.955829,337.297616 464.955829,337.103161 C464.955829,336.908706 465.107926,336.756609 465.302381,336.756609 Z M480.135869,334.849452 L480.078862,334.865907 L480.036743,334.920787 C479.963344,335.00766 479.878728,335.087774 479.786106,335.157638 C480.244968,336.218769 480.772934,336.729082 481.525764,336.914615 C482.109934,336.411446 482.50639,335.782971 482.714359,335.082929 C482.695449,335.085132 482.676678,335.087355 482.658035,335.089589 C482.662197,335.082863 482.664322,335.075781 482.666429,335.06869 L482.556574,335.101958 C482.262682,335.138239 481.997613,335.173506 481.719622,335.173506 C481.221719,335.173506 480.710245,335.06185 480.135869,334.849452 Z M465.381691,335.170402 C465.576146,335.170402 465.728243,335.322499 465.728243,335.516954 C465.728243,335.711409 465.576146,335.863506 465.381691,335.863506 L465.302381,335.863506 C465.107926,335.863506 464.955829,335.711409 464.955829,335.516954 C464.955829,335.322499 465.107926,335.170402 465.302381,335.170402 Z M466.967898,335.170402 C467.162353,335.170402 467.31445,335.322499 467.31445,335.516954 C467.31445,335.711409 467.162353,335.863506 466.967898,335.863506 L466.888588,335.863506 C466.694133,335.863506 466.542036,335.711409 466.542036,335.516954 C466.542036,335.322499 466.694133,335.170402 466.888588,335.170402 Z M477.348125,333.684368 C476.302427,333.277498 475.573856,333.294616 474.912563,333.685974 L474.877596,333.706924 C474.850406,333.811069 474.848933,333.874809 474.848933,333.938678 C474.848933,334.619323 475.018792,335.275752 475.338304,335.860435 C475.348376,335.843666 475.358542,335.827012 475.368804,335.810473 C475.373293,335.820128 475.377722,335.828302 475.38218,335.836458 C475.424019,335.749586 475.46953,335.666365 475.518299,335.586589 C475.946911,334.991769 476.523469,334.553052 477.314437,334.178853 C477.323647,334.121775 477.327099,334.077014 477.328248,334.03789 L477.328243,333.930747 C477.328243,333.847663 477.334926,333.765359 477.348125,333.684368 Z M482.403696,332.041089 L482.31497,332.042333 L482.286565,332.098919 C481.925021,332.783976 481.320109,333.260432 480.415377,333.679762 C480.396099,333.795698 480.400657,333.862118 480.400657,333.930747 C480.400657,334.006576 480.395091,334.081759 480.384081,334.155894 C481.447743,334.577224 482.187534,334.560842 482.852111,334.158299 C482.878695,334.056934 482.879967,333.997618 482.879967,333.938678 C482.879967,333.267489 482.714804,332.61979 482.403696,332.041089 Z M466.967898,333.584195 C467.162353,333.584195 467.31445,333.736292 467.31445,333.930747 C467.31445,334.125202 467.162353,334.277299 466.967898,334.277299 L466.888588,334.277299 C466.694133,334.277299 466.542036,334.125202 466.542036,333.930747 C466.542036,333.736292 466.694133,333.584195 466.888588,333.584195 Z M465.381691,333.584195 C465.576146,333.584195 465.728243,333.736292 465.728243,333.930747 C465.728243,334.125202 465.576146,334.277299 465.381691,334.277299 L465.302381,334.277299 C465.107926,334.277299 464.955829,334.125202 464.955829,333.930747 C464.955829,333.736292 465.107926,333.584195 465.302381,333.584195 Z M480.016735,330.091166 L479.955518,330.156458 L479.960467,330.169796 C480.215209,330.934305 480.133029,331.734981 479.798064,332.671466 C479.920253,332.80948 480.015864,332.90748 480.09791,333.017864 C481.152345,332.562756 481.664371,332.040273 481.856102,331.295476 C481.353329,330.70432 480.721535,330.302164 480.016735,330.091166 Z M465.381691,331.997989 C465.576146,331.997989 465.728243,332.150086 465.728243,332.34454 C465.728243,332.538995 465.576146,332.691092 465.381691,332.691092 L465.302381,332.691092 C465.107926,332.691092 464.955829,332.538995 464.955829,332.34454 C464.955829,332.150086 465.107926,331.997989 465.302381,331.997989 Z M466.967898,331.997989 C467.162353,331.997989 467.31445,332.150086 467.31445,332.34454 C467.31445,332.538995 467.162353,332.691092 466.967898,332.691092 L466.888588,332.691092 C466.694133,332.691092 466.542036,332.538995 466.542036,332.34454 C466.542036,332.150086 466.694133,331.997989 466.888588,331.997989 Z M478.86445,329.923161 C478.195529,329.923161 477.536217,330.090093 476.948831,330.406944 C476.965324,330.41692 476.981706,330.426986 476.997976,330.437143 L476.972569,330.45095 C477.058363,330.49254 477.140597,330.537709 477.219472,330.586058 C477.811819,331.01408 478.249559,331.587552 478.629157,332.378937 C478.73932,332.398537 478.800186,332.39454 478.86445,332.39454 C478.944237,332.39454 479.023307,332.400703 479.10119,332.412883 C479.514859,331.351775 479.497846,330.614888 479.095681,329.951606 C478.991302,329.924635 478.927899,329.923161 478.86445,329.923161 Z M465.381691,330.411782 C465.576146,330.411782 465.728243,330.563879 465.728243,330.758333 C465.728243,330.952788 465.576146,331.104885 465.381691,331.104885 L465.302381,331.104885 C465.107926,331.104885 464.955829,330.952788 464.955829,330.758333 C464.955829,330.563879 465.107926,330.411782 465.302381,330.411782 Z M473.260726,322.279333 L473.281726,322.282333 C473.278751,322.300729 473.276037,322.311797 473.272879,322.32266 C473.175635,322.458466 473.047482,322.55523 472.892381,322.55523 C472.697926,322.55523 472.545829,322.403133 472.545829,322.208678 L472.544056,321.919886 C472.537314,321.879969 472.53546,321.848049 472.537771,321.815689 L472.545068,321.772415 L472.545829,321.653552 L472.495829,321.603506 L470.164105,321.603506 L470.114105,322.367299 C470.114105,322.561754 469.962008,322.713851 469.767553,322.713851 C469.573099,322.713851 469.421002,322.561754 469.421002,322.367299 L469.421214,322.287972 C469.404403,322.289384 469.387609,322.290821 469.370832,322.292283 L469.131451,322.314922 C466.765989,322.556415 464.761947,323.291555 463.478571,324.327006 C463.512537,324.321986 463.546494,324.31698 463.580446,324.311989 C463.555456,324.329495 463.532597,324.347661 463.509967,324.36592 C463.792396,324.309834 464.134014,324.244643 464.53648,324.17699 C466.08811,323.965037 467.704853,323.797179 469.753237,323.733827 C469.837213,323.721282 469.933216,323.761603 470.001853,323.83024 C470.070163,323.891812 470.106174,323.98004 470.106174,324.080402 L470.105726,324.819303 L470.215853,324.875968 L472.487905,324.87592 L472.537898,324.080402 C472.537898,323.982666 472.572259,323.9002 472.642219,323.83024 C472.712543,323.767042 472.796395,323.733851 472.892381,323.733851 C475.395841,323.812518 477.305354,324.050286 479.076648,324.407004 L478.999764,324.340631 C479.029227,324.346487 479.058145,324.352274 479.086519,324.357989 C478.810273,324.138485 478.509286,323.934162 478.185306,323.745657 C476.988156,322.99618 475.452486,322.508636 473.68667,322.278445 L473.336726,322.236333 L473.338933,322.208678 L473.322726,322.218333 L473.287335,322.231186 L473.300726,322.232333 L473.232263,322.276152 L473.260726,322.279333 Z" id="proof-of-work"></path>
            </g>
        </g>
    </g>
</svg>