<?xml version="1.0" encoding="UTF-8"?>
<svg width="21px" height="21px" viewBox="0 0 21 21" version="1.1" xmlns="http://www.w3.org/2000/svg" xmlns:xlink="http://www.w3.org/1999/xlink">
    <title>proof-of-query</title>
    <g id="Website" stroke="none" stroke-width="1" fill="none" fill-rule="evenodd">
        <g id="Mainchain" transform="translate(-592.2557, -487.2361)" fill="#000000" fill-rule="nonzero">
            <g id="MAINCHAIN-MENU" transform="translate(129.0465, 37.9778)">
                <path d="M463.606878,458.708333 C463.800078,458.721633 463.945678,458.888233 463.932378,459.081433 C463.916978,459.305433 463.909278,459.530833 463.909278,459.758333 C463.909278,465.162333 468.305278,469.558333 473.709278,469.558333 C476.237678,469.558333 478.637978,468.597933 480.467778,466.854933 C480.5097,466.814907 480.559104,466.787307 480.611334,466.772114 L480.587278,466.791333 L480.625508,466.76139 C480.760435,466.677819 480.940178,466.694533 481.057178,466.811533 L481.720078,467.474433 L482.528578,464.239733 L479.293178,465.048233 L479.956078,465.711833 C479.984092,465.739847 480.006356,465.771459 480.022872,465.80519 C480.025617,465.808534 480.029381,465.812282 480.033078,465.816133 C480.167478,465.955433 480.163278,466.177333 480.023978,466.311033 C478.319478,467.953933 476.077378,468.858333 473.709278,468.858333 C473.516078,468.858333 473.359278,468.701533 473.359278,468.508333 C473.359278,468.315133 473.516078,468.158333 473.709278,468.158333 C475.782532,468.158333 477.751274,467.407223 479.29068,466.036364 L478.361478,465.106333 C478.272578,465.017433 478.238278,464.887233 478.271878,464.765433 C478.305478,464.644333 478.402078,464.549833 478.524578,464.519733 L482.924778,463.420033 C483.043078,463.390633 483.170478,463.424933 483.257278,463.511733 C483.344078,463.598533 483.379078,463.724533 483.348978,463.844233 L482.249278,468.243733 C482.219178,468.366233 482.124678,468.462833 482.002878,468.496433 C481.972078,468.504833 481.940578,468.509033 481.909778,468.509033 C481.818078,468.509033 481.728478,468.473333 481.661978,468.406833 L480.777278,467.521333 L480.702542,467.590802 C478.775523,469.313297 476.305403,470.258333 473.709278,470.258333 C467.919578,470.258333 463.209278,465.548033 463.209278,459.758333 C463.209278,459.514733 463.217678,459.273933 463.233778,459.034533 C463.247078,458.841333 463.416478,458.701333 463.606878,458.708333 Z M472.554278,468.263333 C472.624278,468.326333 472.659278,468.417333 472.659278,468.508333 C472.659278,468.599333 472.624278,468.690333 472.561278,468.753333 C472.491278,468.823333 472.400278,468.858333 472.309278,468.858333 C472.218278,468.858333 472.127278,468.823333 472.064278,468.753333 C471.994278,468.690333 471.959278,468.599333 471.959278,468.508333 C471.959278,468.417333 471.994278,468.326333 472.064278,468.263333 C472.183278,468.137333 472.428278,468.130333 472.554278,468.263333 Z M477.559278,462.208333 C477.752478,462.208333 477.909278,462.365133 477.909278,462.558333 L477.909278,462.908333 C477.909278,464.057033 475.795978,464.658333 473.709278,464.658333 C471.622578,464.658333 469.509278,464.057033 469.509278,462.908333 L469.509278,462.558333 C469.509278,462.365133 469.666078,462.208333 469.859278,462.208333 C470.052478,462.208333 470.209278,462.365133 470.209278,462.558333 L470.209278,462.908333 C470.209278,463.326233 471.605078,463.958333 473.709278,463.958333 C475.813478,463.958333 477.209278,463.326233 477.209278,462.908333 L477.209278,462.558333 C477.209278,462.365133 477.366078,462.208333 477.559278,462.208333 Z M477.559278,460.108333 C477.752478,460.108333 477.909278,460.265133 477.909278,460.458333 L477.909278,460.808333 C477.909278,461.957033 475.795978,462.558333 473.709278,462.558333 C471.622578,462.558333 469.509278,461.957033 469.509278,460.808333 L469.509278,460.458333 C469.509278,460.265133 469.666078,460.108333 469.859278,460.108333 C470.052478,460.108333 470.209278,460.265133 470.209278,460.458333 L470.209278,460.808333 C470.209278,461.226233 471.605078,461.858333 473.709278,461.858333 C475.813478,461.858333 477.209278,461.226233 477.209278,460.808333 L477.209278,460.458333 C477.209278,460.265133 477.366078,460.108333 477.559278,460.108333 Z M473.709278,449.258333 C479.498978,449.258333 484.209278,453.968633 484.209278,459.758333 C484.209278,460.001233 484.200878,460.242033 484.184778,460.480733 C484.172178,460.664833 484.018178,460.806933 483.835478,460.806933 C483.827778,460.806933 483.819378,460.806933 483.810978,460.806233 C483.618478,460.792933 483.472878,460.626333 483.485478,460.433133 C483.501578,460.209833 483.509278,459.985133 483.509278,459.758333 C483.509278,454.354333 479.113278,449.958333 473.709278,449.958333 C471.180878,449.958333 468.780578,450.918733 466.950778,452.661733 C466.908855,452.701971 466.859451,452.729655 466.807221,452.744862 L466.856278,452.705833 C466.719778,452.842333 466.497878,452.842333 466.361378,452.705833 L465.698478,452.042933 L464.889978,455.276933 L468.125378,454.468433 L467.461778,453.804833 C467.433489,453.776545 467.411063,453.744588 467.394499,453.710484 C467.392395,453.707584 467.388908,453.704103 467.385478,453.700533 C467.251078,453.561233 467.255278,453.340033 467.394578,453.205633 C469.099078,451.562733 471.341178,450.658333 473.709278,450.658333 C473.902478,450.658333 474.059278,450.815133 474.059278,451.008333 C474.059278,451.201533 473.902478,451.358333 473.709278,451.358333 C471.636023,451.358333 469.667281,452.109444 468.127875,453.480303 L469.057078,454.410333 C469.145978,454.499933 469.180278,454.630133 469.146678,454.751933 C469.113078,454.873033 469.016478,454.966833 468.893978,454.997633 L464.493778,456.097333 C464.465778,456.104333 464.437078,456.107833 464.409078,456.107833 C464.317378,456.107833 464.227778,456.071433 464.161278,456.005633 C464.074478,455.918833 464.039478,455.792833 464.069578,455.673133 L465.169278,451.272933 C465.199378,451.150433 465.293878,451.053833 465.415678,451.020233 C465.536078,450.985933 465.667678,451.020233 465.756578,451.109833 L466.640278,451.994333 L466.716014,451.925865 C468.643032,450.20337 471.113153,449.258333 473.709278,449.258333 Z M477.909278,456.608333 L477.909278,458.708333 C477.909278,459.857033 475.795978,460.458333 473.709278,460.458333 C471.622578,460.458333 469.509278,459.857033 469.509278,458.708333 L469.509278,456.608333 C469.509278,454.310933 477.909278,454.310933 477.909278,456.608333 Z M473.709278,455.558333 C471.605078,455.558333 470.209278,456.190433 470.209278,456.608333 L470.209278,458.708333 C470.209278,459.126233 471.605078,459.758333 473.709278,459.758333 C475.813478,459.758333 477.209278,459.126233 477.209278,458.708333 L477.21101,457.619273 C476.417873,458.107128 475.058019,458.358333 473.709278,458.358333 C472.793678,458.358333 471.928478,458.247733 471.207478,458.037733 C471.021978,457.983833 470.915578,457.789933 470.969478,457.603733 C471.023378,457.418233 471.214478,457.309733 471.403478,457.365733 C472.051678,457.554733 472.870678,457.658333 473.709278,457.658333 C475.813478,457.658333 477.209278,457.026233 477.209278,456.608333 C477.209278,456.190433 475.813478,455.558333 473.709278,455.558333 Z M475.354278,450.763333 C475.424278,450.826333 475.459278,450.917333 475.459278,451.008333 C475.459278,451.099333 475.424278,451.190333 475.354278,451.253333 C475.284278,451.323333 475.200278,451.358333 475.109278,451.358333 C475.018278,451.358333 474.934278,451.323333 474.864278,451.260333 C474.794278,451.190333 474.759278,451.099333 474.759278,451.008333 C474.759278,450.917333 474.794278,450.826333 474.864278,450.763333 C474.990278,450.630333 475.221278,450.630333 475.354278,450.763333 Z" id="proof-of-query"></path>
            </g>
        </g>
    </g>
</svg>