<?xml version="1.0" encoding="UTF-8"?>
<svg viewBox="0 0 22.7555556 20" version="1.1" xmlns="http://www.w3.org/2000/svg" xmlns:xlink="http://www.w3.org/1999/xlink">
    <title>pulse</title>
    <g id="Symbols" stroke="none" stroke-width="1" fill="none" fill-rule="evenodd">
        <g id="Ulixee-Unified" transform="translate(-1316.4724, -21.8049)" fill="#B700C0" fill-rule="nonzero">
            <path d="M1331.18352,29.913057 L1332.0363,32.4715639 L1337.86998,32.4715639 C1336.09341,35.1078486 1332.59428,37.6967375 1327.85018,41.8048972 C1323.05991,37.6566333 1319.59428,35.075557 1317.833,32.4715639 L1322.33074,32.4715639 L1323.18352,29.913057 L1324.0363,32.4715639 L1326.70296,32.4715639 L1328.51685,37.913057 L1331.18352,29.913057 Z M1333.18352,21.8048972 C1336.60418,21.8048972 1339.22796,24.6043764 1339.22796,28.3167028 C1339.22796,29.3288556 1339.01095,30.2493417 1338.61477,31.1382306 L1332.99741,31.1382306 L1331.18352,25.6967375 L1328.51685,33.6967375 L1327.66407,31.1382306 L1324.99741,31.1382306 L1323.18352,25.6967375 L1321.36963,31.1382306 L1317.08508,31.1382306 C1316.68803,30.2495153 1316.47241,29.3300708 1316.47241,28.3167028 C1316.47241,24.6043764 1319.09619,21.8048972 1322.51685,21.8048972 C1325.21286,21.8048972 1326.94324,23.6884042 1327.85018,25.3842375 C1328.75713,23.6884042 1330.48751,21.8048972 1333.18352,21.8048972 Z" id="pulse"></path>
        </g>
    </g>
</svg>