<?xml version="1.0" encoding="UTF-8"?>
<svg width="26.8000106px" height="26.8px" viewBox="0 0 26.8000106 26.8" version="1.1" xmlns="http://www.w3.org/2000/svg" xmlns:xlink="http://www.w3.org/1999/xlink">
    <title>settlement-fees</title>
    <g id="Website" stroke="none" stroke-width="1" fill="none" fill-rule="evenodd">
        <g id="Argon" transform="translate(-161.0387, -250.9174)" fill="#000000" fill-rule="nonzero">
            <g id="ARGON-MENU" transform="translate(119.3728, 39.0867)">
                <g id="settlement-fees" transform="translate(41.6658, 211.8306)">
                    <path d="M26.4000106,12.9999841 C26.6209245,12.9999841 26.8000106,13.1790702 26.8000106,13.3999841 C26.8000106,16.9784752 25.4056209,20.3448122 22.8752257,22.8752619 C20.3448508,25.4056368 16.978523,26.8 13.3999947,26.8 L13.0233534,26.7948259 C9.89146182,26.7086853 6.93499595,25.5493242 4.58644931,23.4935886 L4.32143291,23.255 L3.80028879,23.7767579 C3.57406498,24.0029817 3.18698298,23.8852572 3.12501998,23.5713861 L2.32900681,19.5392146 C2.27389027,19.260024 2.51971336,19.0142009 2.79890391,19.0693175 L6.83107549,19.8653306 L6.90537133,19.8873135 C7.16217873,19.9906902 7.24381904,20.3332276 7.03644721,20.5405994 L6.53443291,21.043 L6.73243471,21.217575 C8.59160153,22.8079811 10.9311019,23.6747939 13.3999947,23.6747939 C19.0652,23.6747939 23.6748045,19.0652052 23.6748045,13.3999841 C23.6748045,13.1790702 23.8538906,12.9999841 24.0748045,12.9999841 Z M25.9924329,13.8 L24.4664329,13.8 L24.4599072,13.9780409 C24.1582419,19.8174404 19.3131532,24.4747939 13.3999947,24.4747939 C10.4982855,24.4747939 7.75881015,23.3619166 5.6797345,21.3394308 L5.62718815,21.2767688 C5.52188789,21.1213559 5.53778671,20.9078891 5.67580553,20.7698703 L5.93943291,20.506 L3.22943291,19.97 L3.76443291,22.682 L4.03146206,22.4142137 C4.18641912,22.2592567 4.43721153,22.2578329 4.59391794,22.4110207 C6.96278851,24.7267008 10.0863758,26 13.3999947,26 C16.7663509,26 19.9291952,24.6899214 22.3095372,22.3095795 L22.5604703,22.0515669 C24.6172694,19.8769513 25.8140327,17.0950655 25.9800453,14.118013 L25.9924329,13.8 Z M13.3999894,6.23576411 C17.3566674,6.23576411 20.5642253,9.44332199 20.5642253,13.4 C20.5642253,17.3566757 17.3566663,20.5642359 13.3999894,20.5642359 C9.44331488,20.5642359 6.23575354,17.3566746 6.23575354,13.4 C6.23575354,9.44332315 9.44331372,6.23576411 13.3999894,6.23576411 Z M13.3999894,7.03576411 C9.88514145,7.03576411 7.03575354,9.88515102 7.03575354,13.4 C7.03575354,16.9148468 9.88514268,19.7642359 13.3999894,19.7642359 C16.9148384,19.7642359 19.7642253,16.914848 19.7642253,13.4 C19.7642253,9.88514979 16.9148396,7.03576411 13.3999894,7.03576411 Z M13.4000159,0 L13.776658,0.00517411554 C16.908556,0.0913150514 19.8650203,1.25068057 22.2135229,3.30641482 L22.478,3.54501585 L22.9996689,3.02324213 C23.2258927,2.79701832 23.6129747,2.91474283 23.6749377,3.22861385 L24.4709509,7.26078543 C24.526068,7.53997852 24.2802401,7.78580262 24.0010479,7.73068136 L19.9689292,6.93461535 L19.8946342,6.91263162 C19.6378302,6.8092521 19.5561933,6.46671776 19.7635634,6.2593477 L20.265,5.75801585 L20.0675328,5.582423 C18.2084116,3.99202217 15.8689139,3.12520609 13.4000159,3.12520609 C7.73477623,3.12520609 3.12520609,7.73477623 3.12520609,13.4000159 C3.12520609,13.6209298 2.94611999,13.8000159 2.72520609,13.8000159 L0.4,13.8000159 C0.1790861,13.8000159 8.2307554e-16,13.6209298 7.9602139e-16,13.4000159 C4.60569414e-16,10.6608426 0.817329853,8.03298346 2.3549439,5.80631302 C2.48047348,5.62452942 2.72960004,5.57892653 2.91138363,5.70445612 C3.09316722,5.8299857 3.13877011,6.07911225 3.01324053,6.26089585 L2.79068686,6.59444111 C1.56159098,8.5018114 0.878477124,10.6991759 0.806,13.0000159 L2.333,13.0000159 L2.34010323,12.8219575 C2.64176652,6.98254276 7.48682359,2.32520609 13.4000159,2.32520609 C16.3017331,2.32520609 19.0412083,3.43808919 21.120227,5.46057284 L21.1727721,5.52323494 C21.2780697,5.67864776 21.2621697,5.89211218 21.1241522,6.03012972 L20.86,6.29501585 L23.57,6.83001585 L23.035,4.11901585 L22.7684957,4.38578625 C22.6135374,4.54074451 22.3627426,4.54216692 22.2060367,4.38897631 C19.8372246,2.07330328 16.7136408,0.8 13.4000159,0.8 C10.8230362,0.8 8.3537128,1.56802216 6.26079185,3.01329221 C6.0790089,3.13882272 5.82988211,3.09322112 5.7043516,2.91143817 C5.57882108,2.72965522 5.62442268,2.48052844 5.80620563,2.35499792 C8.03290649,0.817345932 10.6608143,0 13.4000159,0 Z" id="Combined-Shape"></path>
                    <g id="₳" transform="translate(10.508, 9.5572)">
                        <path d="M0.118980823,3.43722379 L0.118980823,2.77621921 L5.69785943,2.77621921 L5.69785943,3.43722379 L0.118980823,3.43722379 Z M0.118980823,4.95753431 L0.118980823,4.29652973 L5.69785943,4.29652973 L5.69785943,4.95753431 L0.118980823,4.95753431 Z M0.859305947,6.76868684 L0,6.76868684 L2.4853772,0 L3.33146306,0 L5.81684026,6.76868684 L4.95753431,6.76868684 L2.93486031,1.07082741 L2.88197994,1.07082741 L0.859305947,6.76868684 Z" id="Shape"></path>
                    </g>
                </g>
            </g>
        </g>
    </g>
</svg>