<?xml version="1.0" encoding="UTF-8"?>
<svg width="22.0452962px" height="20.6337668px" viewBox="0 0 22.0452962 20.6337668" version="1.1" xmlns="http://www.w3.org/2000/svg" xmlns:xlink="http://www.w3.org/1999/xlink">
    <title>the-block</title>
    <g id="Website" stroke="none" stroke-width="1" fill="none" fill-rule="evenodd">
        <g id="Mainchain" transform="translate(-168.6499, -359.315)" fill="#000000" fill-rule="nonzero">
            <g id="MAINCHAIN-MENU" transform="translate(129.0465, 37.9778)">
                <path d="M60.2582849,337.429513 C61.0249581,337.429513 61.6487525,338.053307 61.6487525,338.81998 L61.6487525,340.580587 C61.6487525,341.347203 61.0249485,341.970988 60.2582849,341.970988 L53.0615512,341.970988 C52.2948877,341.970988 51.6710836,341.347203 51.6710836,340.580587 L51.6710836,338.81998 C51.6710836,338.053307 52.294878,337.429513 53.0615512,337.429513 Z M48.1905905,327.456716 C48.9571967,327.456716 49.5810581,328.080578 49.5810581,328.847184 L49.5810581,336.066226 C49.5810581,336.292429 49.3976771,336.475826 49.1714576,336.475826 C48.945238,336.475826 48.761857,336.292429 48.761857,336.066226 L48.761857,328.847184 C48.761857,328.532083 48.5056665,328.275917 48.1905905,328.275917 L40.9939239,328.275917 C40.6788227,328.275917 40.4226573,328.532108 40.4226573,328.847184 L40.4226573,340.580587 C40.4226573,340.895634 40.6788605,341.151787 40.9939239,341.151787 L48.1905905,341.151787 C48.5057,341.151787 48.761857,340.895655 48.761857,340.580587 L48.761857,337.808009 C48.761857,337.581806 48.945238,337.398408 49.1714576,337.398408 C49.3976771,337.398408 49.5810581,337.581806 49.5810581,337.808009 L49.5810581,340.580587 C49.5810581,341.347203 48.9572541,341.970988 48.1905905,341.970988 L40.9939239,341.970988 C40.2272603,341.970988 39.6034562,341.347203 39.6034562,340.580587 L39.6034562,328.847184 C39.6034562,328.080554 40.2272744,327.456716 40.9939239,327.456716 Z M60.2582849,338.248714 L53.0615512,338.248714 C52.7464501,338.248714 52.4902847,338.504904 52.4902847,338.81998 L52.4902847,340.580587 C52.4902847,340.895634 52.7464878,341.151787 53.0615512,341.151787 L60.2582849,341.151787 C60.5733944,341.151787 60.8295514,340.895655 60.8295514,340.580587 L60.8295514,338.81998 C60.8295514,338.504879 60.5733609,338.248714 60.2582849,338.248714 Z M60.2582849,331.406791 C61.0249246,331.406791 61.6487525,332.030618 61.6487525,332.797191 L61.6487525,334.420353 C61.6487525,335.186969 61.0249485,335.810754 60.2582849,335.810754 L53.0615512,335.810754 C52.2948877,335.810754 51.6710836,335.186969 51.6710836,334.420353 L51.6710836,332.797191 C51.6710836,332.030575 52.2948877,331.406791 53.0615512,331.406791 Z M60.2582849,332.225992 L53.0615512,332.225992 C52.7464418,332.225992 52.4902847,332.482124 52.4902847,332.797191 L52.4902847,334.420353 C52.4902847,334.7354 52.7464878,334.991553 53.0615512,334.991553 L60.2582849,334.991553 C60.5733944,334.991553 60.8295514,334.735421 60.8295514,334.420353 L60.8295514,332.797191 C60.8295514,332.482144 60.5733483,332.225992 60.2582849,332.225992 Z M60.2582849,321.337221 C61.0249343,321.337221 61.6487525,321.961058 61.6487525,322.727688 L61.6487525,328.342409 C61.6487525,329.109082 61.0249581,329.732876 60.2582849,329.732876 L53.0615512,329.732876 C52.2949018,329.732876 51.6710836,329.109039 51.6710836,328.342409 L51.6710836,322.727688 C51.6710836,321.961015 52.294878,321.337221 53.0615512,321.337221 Z M60.2582849,322.156489 L53.0615512,322.156489 C52.7464501,322.156489 52.4902847,322.412679 52.4902847,322.727755 L52.4902847,328.342476 C52.4902847,328.657577 52.7464753,328.913742 53.0615512,328.913742 L60.2582849,328.913742 C60.573386,328.913742 60.8295514,328.657552 60.8295514,328.342476 L60.8295514,322.727755 C60.8295514,322.412654 60.5733609,322.156489 60.2582849,322.156489 Z M48.1905905,321.337221 C48.9571967,321.337221 49.5810581,321.961082 49.5810581,322.727688 L49.5810581,324.360434 C49.5810581,325.127107 48.9572638,325.750902 48.1905905,325.750902 L40.9939239,325.750902 C40.2272744,325.750902 39.6034562,325.127064 39.6034562,324.360434 L39.6034562,322.727688 C39.6034562,321.961058 40.2272744,321.337221 40.9939239,321.337221 Z M48.1905905,322.156422 L40.9939239,322.156422 C40.6788227,322.156422 40.4226573,322.412612 40.4226573,322.727688 L40.4226573,324.360434 C40.4226573,324.675535 40.6788479,324.931701 40.9939239,324.931701 L48.1905235,324.931701 C48.5056329,324.931701 48.761857,324.675502 48.761857,324.360434 L48.761857,322.727688 C48.761857,322.412587 48.5056665,322.156422 48.1905905,322.156422 Z" id="the-block"></path>
            </g>
        </g>
    </g>
</svg>