<?xml version="1.0" encoding="UTF-8"?>
<svg viewBox="0 0 49 50" version="1.1" xmlns="http://www.w3.org/2000/svg" xmlns:xlink="http://www.w3.org/1999/xlink">
    <title>whitepapers</title>
    <g id="Website" stroke="none" stroke-width="1" fill="none" fill-rule="evenodd">
        <g id="Argon" transform="translate(-160, -643)" fill="#000000" fill-rule="nonzero">
            <g id="ARGON-MENU" transform="translate(119.3728, 39.0867)">
                <g id="Group-7" transform="translate(5.2857, 564.0247)">
                    <path d="M69.9890641,40.4764076 C70.3277335,40.4764076 70.6015641,40.7502382 70.6015641,41.0889076 L70.6015641,43.295702 L83.8052457,45.2232826 C84.1390104,45.2716127 84.3712101,45.5827675 84.3222819,45.9172499 L78.0698771,88.9520741 C78.0460709,89.1130946 77.9596989,89.2589223 77.8285856,89.355702 C77.7225944,89.4347767 77.5939933,89.4764076 77.4634782,89.4764076 C77.4334513,89.4764076 77.4028263,89.474015 77.3727994,89.4697084 L59.7811295,86.8224403 L35.9548795,86.8224403 C35.6162101,86.8224403 35.3423795,86.5486098 35.3423795,86.2099403 L35.3423795,41.0889076 C35.3423795,40.7502382 35.6162101,40.4764076 35.9548795,40.4764076 Z M70.6008463,44.5330238 L70.6008463,52.4561659 L77.4994865,53.4502821 C77.834567,53.4987318 78.0666471,53.8091688 78.0189152,54.1442494 L76.6028678,63.97308 C76.5795402,64.1335023 76.4932877,64.2787318 76.3627726,64.3761098 C76.2561832,64.4557826 76.1275822,64.4980116 75.9958707,64.4980116 C75.966442,64.4980116 75.9377311,64.4962172 75.9083024,64.4919105 L70.600966,63.7268837 L70.600966,86.2099403 C70.600966,86.5486098 70.3271354,86.8224403 69.988466,86.8224403 L68.015546,86.8224403 L76.946442,88.1662318 L83.0216764,46.346598 L70.6008463,44.5330238 Z M40.8672013,41.7014076 L36.5673795,41.7014076 L36.5673795,85.5974403 L40.8672013,85.5974403 L40.8672013,41.7014076 Z M69.3766837,41.7014076 L42.0922013,41.7014076 L42.0922013,85.5974403 L69.3766837,85.5974403 L69.3766837,41.7014076 Z M70.6014445,53.6942055 L70.6014445,55.9212172 L72.55965,56.2035414 C72.8947306,56.2519911 73.1268107,56.5624281 73.0790787,56.8975087 C73.0349357,57.2025624 72.7728287,57.4224403 72.473278,57.4224403 C72.444567,57.4224403 72.4145402,57.4206459 72.3851115,57.4163392 L70.6015641,57.1591371 L70.6015641,59.0235536 L72.1218082,59.2428334 C72.4567692,59.2911635 72.6889689,59.6017201 72.6411173,59.9368007 C72.5969743,60.2418544 72.3348673,60.4617323 72.0353165,60.4617323 C72.0066056,60.4617323 71.9771769,60.4599379 71.94715,60.4556312 L70.6014445,60.2614735 L70.6014445,62.4884852 L75.4775187,63.1910658 L76.7184293,54.5750331 L70.6014445,53.6942055 Z M64.5941593,49.8090175 C64.9328287,49.8090175 65.2066593,50.082848 65.2066593,50.4215175 L65.2066593,60.641056 C65.2066593,60.9797255 64.9328287,61.253556 64.5941593,61.253556 L46.3722843,61.253556 C46.0336149,61.253556 45.7597843,60.9797255 45.7597843,60.641056 L45.7597843,50.4215175 C45.7597843,50.082848 46.0336149,49.8090175 46.3722843,49.8090175 Z M63.9816593,51.0340175 L46.9847843,51.0340175 L46.9847843,60.0286757 L63.9816593,60.0286757 L63.9816593,51.0340175 Z M59.9667936,56.4987855 C60.305463,56.4987855 60.5792936,56.7726161 60.5792936,57.1112855 C60.5792936,57.449955 60.305463,57.7237855 59.9667936,57.7237855 L51.0003678,57.7237855 C50.6616984,57.7237855 50.3878678,57.449955 50.3878678,57.1112855 C50.3878678,56.7726161 50.6616984,56.4987855 51.0003678,56.4987855 Z M59.9667936,53.3389076 C60.305463,53.3389076 60.5792936,53.6127382 60.5792936,53.9514076 C60.5792936,54.290077 60.305463,54.5639076 59.9667936,54.5639076 L51.0003678,54.5639076 C50.6616984,54.5639076 50.3878678,54.290077 50.3878678,53.9514076 C50.3878678,53.6127382 50.6616984,53.3389076 51.0003678,53.3389076 Z" id="whitepapers"></path>
                </g>
            </g>
        </g>
    </g>
</svg>