<?xml version="1.0" encoding="UTF-8"?>
<svg viewBox="0 0 62 81" version="1.1" xmlns="http://www.w3.org/2000/svg" xmlns:xlink="http://www.w3.org/1999/xlink">
    <title>whitepaper</title>
    <g id="Website" stroke="none" stroke-width="1" fill="none" fill-rule="evenodd">
        <g id="-" transform="translate(-336, -1326)" fill="#000000" fill-rule="nonzero">
            <g id="OVERLAY" transform="translate(-2, 460.2572)">
                <path d="M398.019135,865.7828 C398.91888,865.7828 399.647634,866.512367 399.647634,867.411298 L399.647634,944.154301 C399.647634,945.053232 398.918066,945.7828 398.019135,945.7828 L339.628499,945.7828 C338.729567,945.7828 338,945.053232 338,944.154301 L338,867.411298 C338,866.512367 338.729567,865.7828 339.628499,865.7828 Z M396.390636,869.039797 L341.256997,869.039797 L341.256997,942.525802 L396.390636,942.525802 L396.390636,869.039797 Z M365.326209,934.079594 C366.22514,934.079594 366.954707,934.809161 366.954707,935.708092 C366.954707,936.607024 366.22514,937.336591 365.326209,937.336591 L346.354198,937.336591 C345.454453,937.336591 344.7257,936.607024 344.7257,935.708092 C344.7257,934.809161 345.455267,934.079594 346.354198,934.079594 Z M391.294249,934.079594 C392.193181,934.079594 392.922748,934.809161 392.922748,935.708092 C392.922748,936.607024 392.193181,937.336591 391.294249,937.336591 L372.323053,937.336591 C371.424122,937.336591 370.694555,936.607024 370.694555,935.708092 C370.694555,934.809161 371.424122,934.079594 372.323053,934.079594 Z M365.326209,926.572214 C366.22514,926.572214 366.954707,927.301782 366.954707,928.200713 C366.954707,929.099644 366.22514,929.829212 365.326209,929.829212 L346.354198,929.829212 C345.454453,929.829212 344.7257,929.099644 344.7257,928.200713 C344.7257,927.301782 345.455267,926.572214 346.354198,926.572214 Z M391.294249,926.572214 C392.193181,926.572214 392.922748,927.301782 392.922748,928.200713 C392.922748,929.099644 392.193181,929.829212 391.294249,929.829212 L372.323053,929.829212 C371.424122,929.829212 370.694555,929.099644 370.694555,928.200713 C370.694555,927.301782 371.424122,926.572214 372.323053,926.572214 Z M365.326209,919.06565 C366.22514,919.06565 366.954707,919.795217 366.954707,920.694148 C366.954707,921.59308 366.22514,922.322647 365.326209,922.322647 L346.354198,922.322647 C345.454453,922.322647 344.7257,921.59308 344.7257,920.694148 C344.7257,919.795217 345.455267,919.06565 346.354198,919.06565 Z M391.294249,919.06565 C392.193181,919.06565 392.922748,919.795217 392.922748,920.694148 C392.922748,921.59308 392.193181,922.322647 391.294249,922.322647 L372.323053,922.322647 C371.424122,922.322647 370.694555,921.59308 370.694555,920.694148 C370.694555,919.795217 371.424122,919.06565 372.323053,919.06565 Z M365.326209,911.557456 C366.22514,911.557456 366.954707,912.287024 366.954707,913.185955 C366.954707,914.084886 366.22514,914.814454 365.326209,914.814454 L346.354198,914.814454 C345.454453,914.814454 344.7257,914.084886 344.7257,913.185955 C344.7257,912.287024 345.455267,911.557456 346.354198,911.557456 Z M391.294249,911.557456 C392.193181,911.557456 392.922748,912.287024 392.922748,913.185955 C392.922748,914.084886 392.193181,914.814454 391.294249,914.814454 L372.323053,914.814454 C371.424122,914.814454 370.694555,914.084886 370.694555,913.185955 C370.694555,912.287024 371.424122,911.557456 372.323053,911.557456 Z M365.326209,904.050077 C366.22514,904.050077 366.954707,904.779644 366.954707,905.678576 C366.954707,906.577507 366.22514,907.307074 365.326209,907.307074 L346.354198,907.307074 C345.454453,907.307074 344.7257,906.577507 344.7257,905.678576 C344.7257,904.779644 345.455267,904.050077 346.354198,904.050077 Z M391.294249,904.050077 C392.193181,904.050077 392.922748,904.779644 392.922748,905.678576 C392.922748,906.577507 392.193181,907.307074 391.294249,907.307074 L372.323053,907.307074 C371.424122,907.307074 370.694555,906.577507 370.694555,905.678576 C370.694555,904.779644 371.424122,904.050077 372.323053,904.050077 Z M365.326209,896.542698 C366.22514,896.542698 366.954707,897.272265 366.954707,898.171197 C366.954707,899.070128 366.22514,899.799695 365.326209,899.799695 L346.354198,899.799695 C345.454453,899.799695 344.7257,899.070128 344.7257,898.171197 C344.7257,897.272265 345.455267,896.542698 346.354198,896.542698 Z M391.294249,896.542698 C392.193181,896.542698 392.922748,897.272265 392.922748,898.171197 C392.922748,899.070128 392.193181,899.799695 391.294249,899.799695 L372.323053,899.799695 C371.424122,899.799695 370.694555,899.070128 370.694555,898.171197 C370.694555,897.272265 371.423308,896.542698 372.323053,896.542698 Z M366.582595,884.238576 C367.481527,884.238576 368.211094,884.968143 368.211094,885.867074 C368.211094,886.766006 367.481527,887.495573 366.582595,887.495573 L357.615267,887.495573 C356.716336,887.495573 355.986768,886.766006 355.986768,885.867074 C355.986768,884.968143 356.716336,884.238576 357.615267,884.238576 Z M380.033181,884.238576 C380.932112,884.238576 381.661679,884.968143 381.661679,885.867074 C381.661679,886.766006 380.932112,887.495573 380.033181,887.495573 L371.066667,887.495573 C370.167735,887.495573 369.438168,886.766006 369.438168,885.867074 C369.438168,884.968143 370.167735,884.238576 371.066667,884.238576 Z M377.47888,879.234199 C378.377812,879.234199 379.107379,879.963767 379.107379,880.862698 C379.107379,881.761629 378.377812,882.491197 377.47888,882.491197 L360.169567,882.491197 C359.270636,882.491197 358.541069,881.761629 358.541069,880.862698 C358.541069,879.963767 359.270636,879.234199 360.169567,879.234199 Z M384.881221,874.229008 C385.780153,874.229008 386.50972,874.958576 386.50972,875.857507 C386.50972,876.756438 385.780153,877.486006 384.881221,877.486006 L352.766412,877.486006 C351.867481,877.486006 351.137913,876.756438 351.137913,875.857507 C351.137913,874.958576 351.867481,874.229008 352.766412,874.229008 Z" id="whitepaper"></path>
            </g>
        </g>
    </g>
</svg>