<?xml version="1.0" encoding="UTF-8"?>
<svg width="29px" height="29px" viewBox="0 0 29 29" version="1.1" xmlns="http://www.w3.org/2000/svg" xmlns:xlink="http://www.w3.org/1999/xlink">
    <title>multiverses</title>
    <g id="HeroAlive" stroke="none" stroke-width="1" fill="none" fill-rule="evenodd">
        <g id="Artboard" transform="translate(-22.000000, -433.000000)" fill="#000000" fill-rule="nonzero">
            <g id="Group-3" transform="translate(-0.500000, 248.000000)">
                <path d="M49.0404065,193.466948 C49.3961699,193.315455 49.8072742,193.480623 49.9594085,193.835959 C51.4925029,197.444874 51.441649,201.531559 49.8190261,205.101159 C46.6201472,212.138864 38.3215657,215.250992 31.2836473,212.052113 C30.9458323,211.889509 30.7960484,211.489729 30.9439093,211.145076 C31.0964709,210.789954 31.5080025,210.625641 31.8633386,210.777988 C35.0844395,212.249118 38.7764727,212.295271 42.0334704,210.905337 C48.4282371,208.176749 51.4001967,200.780503 48.6713955,194.385737 L48.6713955,194.385737 L48.6375736,194.287361 C48.551116,193.957157 48.7171795,193.604864 49.0404065,193.466948 Z M27.2736705,206.315669 C28.8200126,206.315669 30.0736244,207.569281 30.0736244,209.115623 C30.0736244,210.661965 28.8200126,211.915577 27.2736705,211.915577 C25.7273284,211.915577 24.4737166,210.661965 24.4737166,209.115623 C24.4737166,207.569281 25.7273284,206.315669 27.2736705,206.315669 Z M37.0735093,190.915708 C41.7127492,190.915708 45.4735848,194.676544 45.4735848,199.315784 C45.4735848,203.95481 41.7127492,207.715646 37.0735093,207.715646 C32.434483,207.715646 28.6736475,203.95481 28.6736475,199.315784 C28.6736475,194.676544 32.434483,190.915708 37.0735093,190.915708 Z M24.1963707,193.805618 C27.2287995,186.699752 35.447254,183.39767 42.55312,186.430098 C42.9088834,186.581805 43.0740516,186.993123 42.9223447,187.348887 C42.7706378,187.704436 42.3593198,187.869818 42.0035564,187.718111 C38.756174,186.339074 35.0793114,186.385014 31.867612,187.844819 C25.5335282,190.723617 22.7325059,198.191871 25.611091,204.525741 C25.6113047,204.526168 25.6115183,204.526382 25.6115183,204.526809 L25.6473726,204.624047 C25.7414042,204.951776 25.5836051,205.307566 25.2638745,205.452862 C25.1728504,205.494101 25.074134,205.515468 24.9741357,205.515895 C24.6997812,205.515895 24.45064,205.355642 24.3369667,205.10586 C22.7030192,201.526431 22.6519516,197.424576 24.1963707,193.805618 Z M47.5735503,185.3158 C49.5064245,185.3158 51.0734927,186.882869 51.0734927,188.815956 C51.0734927,190.748831 49.5064245,192.315899 47.5735503,192.315899 C45.6404624,192.315899 44.0733942,190.748831 44.0733942,188.815956 C44.0733942,186.882869 45.6404624,185.3158 47.5735503,185.3158 Z" id="multiverses"></path>
            </g>
        </g>
    </g>
</svg>