<?xml version="1.0" encoding="UTF-8"?>
<svg viewBox="0 0 388 446" version="1.1" xmlns="http://www.w3.org/2000/svg" xmlns:xlink="http://www.w3.org/1999/xlink">
    <title>scientist</title>
    <g id="Products" stroke="none" stroke-width="1" fill="none" fill-rule="evenodd">
        <g id="Homepage-Copy-8" transform="translate(-1477.000000, -839.000000)">
            <g id="scientist" transform="translate(1477.926716, 839.672410)">
                <path d="M211.474065,70.1660875 C233.862052,79.648622 252.32025,94.0966506 276.032077,98.8781073 C294.087061,102.518884 312.616853,104.303914 331.011363,102.690184 C343.961178,101.554335 356.54775,98.3365369 368.56552,93.5770416 C368.146055,94.6711633 367.861873,95.2997013 367.861873,95.2997013 C380.283734,107.18131 365.8278,129.101517 365.8278,129.101517 C374.637873,140.581669 371.600598,155.522075 363.282023,169.953852 C368.645899,186.216778 363.343955,197.987261 363.343955,197.987261 L172.331652,128.580591 C172.331652,128.580591 175.822651,116.152141 190.375656,107.125967 C192.640765,94.2516987 202.617433,75.8369848 211.474065,70.1660875" id="Fill-69" fill="#6A4955"></path>
                <path d="M375.135102,314.973336 C375.108069,318.394937 374.409693,337.211547 373.548803,359.64741 C373.289657,366.495005 373.00855,373.680806 372.731835,380.866607 C371.655722,408.718176 370.566432,436.613667 370.311678,445.073235 L112.584745,445.073235 C112.584745,445.073235 113.524697,399.046333 117.754481,380.726054 C121.979873,362.410166 122.449849,337.988984 121.039921,324.83844 C119.629993,311.687897 112.114769,290.082178 112.114769,290.082178 L89.5734902,290.082178 L92.0946699,268.217313 L104.133962,163.737694 C104.133962,163.737694 113.79702,152.8975 124.272653,146.576982 C128.585891,143.972349 133.039682,142.136368 137.01032,142.136368 C145.342512,142.136368 156.138783,143.014827 166.162009,142.404298 C172.526451,142.017776 178.583431,141.033901 183.507198,138.846536 C190.7501,135.631373 198.761653,130.725175 207.796612,127.720842 C209.452509,127.171805 211.143544,126.684259 212.869718,126.28456 C216.576818,125.42367 220.446434,124.962478 224.504918,125.116209 C225.23404,125.142562 225.967554,125.190878 226.709852,125.261155 C227.79475,125.357785 228.892825,125.498339 230.004076,125.695992 C242.043368,127.804296 266.236151,135.697257 282.057213,141.095393 C282.566719,141.266692 283.067442,141.437992 283.554987,141.604899 C285.825805,142.382336 287.898971,143.098281 289.699813,143.730772 C290.85938,144.130471 291.90914,144.499425 292.831522,144.824455 C295.567925,145.786368 297.166722,146.361759 297.166722,146.361759 C297.166722,146.361759 301.862089,157.162423 320.652345,167.497502 C331.233393,173.317299 341.515765,176.154724 349.821603,184.662607 C350.972385,185.844136 352.035322,187.05641 353.010412,188.290646 C360.679366,197.997627 363.196154,209.246305 364.799343,218.689748 C375.411137,281.253656 375.135102,314.973336 375.135102,314.973336" id="Fill-70" fill="#E8EAF6"></path>
                <path d="M372.731835,380.866607 C371.655722,408.718176 370.566432,436.613667 370.311678,445.073235 L234.708229,445.073235 C244.134103,420.511499 273.927067,385.087607 366.999885,381.042299 C368.945673,380.954453 370.856323,380.897353 372.731835,380.866607" id="Fill-73" fill="#D4D8F6"></path>
                <path d="M302.234161,224.245128 C301.783072,222.612071 301.247651,220.999219 300.697735,219.397787 C299.381363,215.561553 297.883589,211.783736 296.185087,208.100794 C295.048799,205.637153 293.815002,203.217436 292.454707,200.869752 C292.224111,200.471809 291.650477,200.297874 291.252974,200.554385 C290.851518,200.813091 290.691199,201.330943 290.937607,201.756557 C292.147246,203.844217 293.256741,205.988976 294.286735,208.17107 C294.777794,209.210728 295.250405,210.25873 295.706765,211.31376 C296.105147,212.234386 296.471904,213.117678 296.880388,214.139766 C298.053571,217.077774 299.12046,220.060585 300.055581,223.083365 C300.223366,223.624057 300.389395,224.166067 300.540051,224.71203 C300.662157,225.154773 301.169028,225.471897 301.620557,225.325634 C302.073403,225.17937 302.365051,224.719496 302.234161,224.245128" id="Fill-116" fill="#4C589E"></path>
                <path d="M141.401214,89.0614946 L173.808475,87.1829083 C173.808475,87.1829083 173.808475,96.1067423 165.354617,95.6367663 C156.90032,95.1672295 141.401214,89.0614946 141.401214,89.0614946" id="Fill-117" fill="#4AB3FF"></path>
                <path d="M181.397094,279.909261 L181.397094,279.909261 C176.495288,280.310718 172.15965,276.748124 171.603585,271.861252 L161.280803,180.721924 C161.222825,180.210222 161.599684,179.752105 162.112705,179.709939 L178.459085,178.371166 C178.950144,178.331196 179.384542,178.68829 179.439885,179.177592 L189.70381,269.801264 C190.28535,274.911264 186.523346,279.489358 181.397094,279.909261" id="Fill-118" fill="#FFFFFF"></path>
                <path d="M179.340268,178.090366 C179.340268,179.300884 175.274756,180.655908 170.260068,181.1171 C165.244941,181.578291 161.179429,180.970836 161.179429,179.760318 C161.179429,178.549801 165.244941,177.194776 170.260068,176.733585 C175.274756,176.272394 179.340268,176.879849 179.340268,178.090366" id="Fill-119" fill="#26388F"></path>
                <path d="M180.644254,275.547928 C178.249572,275.547928 176.239217,273.749282 175.967773,271.364702 L169.151803,214.242853 C169.42149,214.531866 171.015895,216.186006 173.547616,216.186006 C176.65956,216.186445 178.411648,213.688545 178.557473,213.472444 C180.818189,232.413355 183.078905,251.354266 185.339182,270.295178 C185.485446,271.57729 185.115175,272.830413 184.297329,273.825268 C183.479483,274.820563 182.322112,275.426701 181.038243,275.531677 C180.907353,275.542218 180.774705,275.547928 180.644254,275.547928" id="Fill-120" fill="#FF81A0"></path>
                <path d="M166.435606,108.72125 L165.059498,88.5048146 C164.931243,86.6227145 163.3017,85.2013665 161.420039,85.3296216 C159.538378,85.4574375 158.116591,87.0869805 158.244846,88.9686414 L159.620954,109.185076 L166.435606,108.72125 Z" id="Fill-121" fill="#FF81A0"></path>
                <path d="M163.399517,114.404753 C161.517856,114.533008 160.096069,116.162112 160.223884,118.044212 L163.132026,155.853562 C163.233049,157.336402 164.267874,158.529789 165.62202,158.907966 L165.991412,164.330699 C166.034018,164.957919 166.577345,165.431848 167.204565,165.388804 C167.831786,165.346198 168.305715,164.80331 168.263109,164.17609 L167.893717,158.753357 C169.184614,158.195096 170.047701,156.872575 169.946678,155.389735 L167.038536,117.579946 C166.910721,115.698285 165.281178,114.276498 163.399517,114.404753" id="Fill-122" fill="#FFFFFF"></path>
                <path d="M177.797561,116.391258 L149.403544,118.324309 L149.217749,115.598448 C148.858898,110.329446 152.839639,105.767165 158.108641,105.408753 L167.422072,104.774505 C172.691074,104.416094 177.253355,108.396395 177.612206,113.665397 L177.797561,116.391258 Z" id="Fill-123" fill="#636A8F"></path>
                <path d="M168.261396,176.275293 L168.260957,176.275293 C167.550283,176.348644 166.914278,175.83167 166.840927,175.120996 L166.323075,170.108065 C166.249723,169.396952 166.766697,168.760947 167.477371,168.687596 L167.47781,168.687596 C168.188924,168.614245 168.824489,169.130779 168.897841,169.841892 L169.415693,174.854823 C169.489483,175.565936 168.97251,176.201941 168.261396,176.275293" id="Fill-131" fill="#FF81A0"></path>
                <path d="M322.997833,187.223274 C322.997833,187.223274 322.997833,191.448665 315.017025,198.963889 C307.031825,206.479113 294.821234,206.479113 294.821234,206.479113 L301.862089,226.674904 C301.862089,226.674904 282.60625,257.205775 267.580195,276.461614 C265.647583,278.938871 263.095658,283.559569 260.122071,289.726357 C248.254079,314.332017 229.630731,363.582866 216.339634,399.872041 C207.08506,425.14533 200.413157,444.133239 200.413157,444.133239 L179.281807,444.133239 L202.771822,378.125769 L228.594148,305.578165 L218.285422,277.744165 L191.022422,204.129233 L206.988429,178.298122 C206.988429,178.298122 199.947574,176.42261 193.837886,173.602754 C187.73259,170.782898 179.751783,159.042283 179.751783,159.042283 C179.751783,159.042283 191.022422,157.162379 196.187766,142.6063 C198.348777,136.518573 203.052929,131.498175 207.796612,127.720798 C209.452509,127.171761 211.143544,126.684216 212.869718,126.284516 C216.576818,125.423626 220.446434,124.962434 224.504918,125.116165 C225.23404,125.142519 225.967554,125.190834 226.709852,125.261111 C227.79475,125.357741 228.892825,125.498295 230.004076,125.695948 C242.043368,127.804252 266.236151,135.697213 282.057213,141.095349 C282.566719,141.266648 283.067442,141.437948 283.554987,141.604855 C285.825805,142.382292 287.898971,143.098237 289.699813,143.730728 C290.85938,144.130427 291.90914,144.499381 292.831522,144.824411 C294.887118,167.031875 322.997833,187.223274 322.997833,187.223274" id="Fill-77" fill="#5C6BC0"></path>
                <path d="M260.122027,289.726401 C248.254035,314.332061 229.630687,363.58291 216.33959,399.872085 C211.833091,394.807764 207.247531,387.771301 202.771778,378.125813 L228.594104,305.578209 L218.285379,277.744209 C229.604333,280.30492 245.513241,284.359012 260.122027,289.726401" id="Fill-78" fill="#4C589E"></path>
                <path d="M134.357372,225.73482 C140.770128,199.657741 133.786373,170.549975 124.272653,146.576806 C128.585891,143.972173 133.039682,142.136192 137.01032,142.136192 C145.342512,142.136192 156.138783,143.014652 166.162009,142.404122 C173.277534,193.952144 123.069163,271.64313 134.357372,225.73482" id="Fill-71" fill="#D4D8F6"></path>
                <path d="M139.052739,366.01172 C134.906409,391.583685 127.325301,422.501078 121.364951,445.073103 L112.584745,445.073103 C112.584745,445.073103 113.524697,399.046201 117.754481,380.725922 C121.979873,362.410035 122.449849,337.988852 121.039921,324.838308 C119.629993,311.687765 112.114769,290.082046 112.114769,290.082046 L89.5734902,290.082046 L92.0946699,268.217181 L119.015071,282.096846 C119.015071,282.096846 146.567963,319.668572 139.052739,366.01172" id="Fill-72" fill="#D4D8F6"></path>
                <g id="rightarm" transform="translate(0.000000, 80.450875)">
                    <path d="M171.138704,16.0714223 C171.138704,16.0714223 171.138704,21.500304 163.62348,18.7858632 C157.237077,16.4799061 141.033886,12.3599296 136.329734,11.1784012 C135.626966,11.0027092 134.924198,11.4639006 134.805606,12.1798453 L134.788037,12.2940451 C134.687014,12.9045747 135.051574,13.4975351 135.644535,13.6820116 L165.503384,22.9629396 C165.503384,22.9629396 164.458017,29.0155277 158.405429,27.9701605 C152.352841,26.9291857 143.168543,23.380208 143.168543,23.380208 L128.54658,27.3288849 C128.05025,27.4650461 127.685689,27.8910992 127.637374,28.4049981 C127.632981,28.4489211 127.632981,28.4884518 127.632981,28.5323748 C127.632981,29.1604736 128.111742,29.7007264 128.748625,29.7622186 L161.326308,32.9817738 C161.326308,32.9817738 162.371675,38.1998251 154.232745,38.6170935 C146.910782,38.9948312 115.628828,42.912762 109.391763,43.6989835 C108.772449,43.7780449 108.306865,44.3051208 108.306865,44.9288273 L108.306865,45.3724495 C108.306865,46.114748 108.948141,46.6857469 109.686047,46.6066855 L148.175764,42.3769015 C148.175764,42.3769015 149.84923,46.9668541 145.048447,48.0122212 C140.243272,49.0531961 128.555364,52.6021738 126.67546,59.0764226 C125.476363,63.2183607 122.819022,80.0145123 120.407649,92.3349113 C119.393028,97.5090396 118.42233,101.896946 117.622932,104.224865 C117.346217,105.015479 117.095856,105.564516 116.867456,105.832446 C114.359454,108.753325 109.975939,113.554108 109.975939,113.554108 L71.3588455,105.415178 L69.0616731,99.5558509 C69.0616731,99.5558509 68.2271363,88.7156568 72.4042127,87.2530212 C76.5768969,85.7947779 86.8065614,62.4145699 88.269197,46.9668541 C89.7274403,31.5191382 91.4009062,18.1621567 97.8707628,16.0714223 C104.340619,13.9850803 140.036834,0 140.036834,0 L171.138704,16.0714223 Z" id="Fill-124" fill="#0288D1"></path>
                    <path d="M120.407649,92.3348673 C119.393028,97.5089956 118.42233,101.896902 117.622932,104.224821 L81.3776797,88.5091748 L120.407649,92.3348673 Z" id="Fill-125" fill="#016296"></path>
                    <path d="M109.325659,192.0401 C106.439919,195.365071 103.185225,198.615372 101.529328,202.577226 C100.94076,203.987154 100.567415,205.445397 100.352192,206.943171 C98.9334796,216.579875 103.905562,227.692392 98.6216263,235.993837 C96.5660303,239.226569 93.2059216,241.334873 89.9951509,243.43 C74.8944267,253.281926 63.0703576,259.0578 54.0485753,262.391555 L54.044183,262.391555 C36.7209554,268.791134 29.7371999,266.195286 29.7371999,266.195286 C20.8823249,264.13969 13.4637318,258.451662 8.25007276,251.002323 C3.31752089,243.961468 0.365895907,235.348169 0.0364734762,226.756832 C-0.635548283,209.082221 8.0524193,192.079631 20.017042,179.052072 C22.0111458,176.882276 24.1194493,174.760796 26.1926145,172.608569 C31.4545888,167.153334 36.4705943,161.500445 38.7238438,154.371743 C39.417827,152.175594 39.8219185,149.909168 40.1118103,147.611995 C40.8672857,141.612115 40.8409319,135.43215 43.1864196,129.884676 C48.4088632,117.533531 63.7423793,111.867465 69.0614535,99.5558509 C69.0614535,99.5558509 71.6836561,100.263011 75.6586867,101.343517 C86.0025511,104.163373 105.521928,109.508801 111.855623,111.467766 C111.855623,111.467766 110.436911,123.941895 108.912783,136.086602 C108.245154,141.401284 107.559955,146.650082 106.966995,150.765666 C106.488234,154.099421 106.009473,157.51663 106.712241,160.810854 C108.249546,167.970301 115.15424,173.605621 114.912664,180.927584 C114.767718,185.253998 112.237753,188.688776 109.325659,192.0401 Z" id="Fill-126" fill="#5C6BC0"></path>
                    <path d="M46.3708365,202.269721 C37.5247461,208.792285 35.6009191,183.457504 26.1926145,172.608525 C31.4545888,167.15329 36.4705943,161.500401 38.7238438,154.3717 C39.417827,152.17555 39.8219185,149.909124 40.1118103,147.611951 C45.791053,164.346611 55.0236657,195.892103 46.3708365,202.269721" id="Fill-127" fill="#4C589E"></path>
                    <path d="M109.325659,192.040056 C106.439919,195.365027 103.185225,198.615328 101.529328,202.577182 C100.94076,203.98711 100.567415,205.445353 100.352192,206.943127 C90.2499043,199.335665 78.2413586,194.069299 72.0482169,188.495471 C59.5213799,177.224832 59.5213799,148.415742 79.5590483,177.848538 C89.0376297,191.767734 100.198462,193.783799 109.325659,192.040056" id="Fill-128" fill="#4C589E"></path>
                    <path d="M111.855667,111.467722 C111.855667,111.467722 110.436955,123.941852 108.912827,136.086558 C99.8383371,123.511406 86.9205855,111.076808 75.6587307,101.343473 C86.002595,104.163329 105.521972,109.508757 111.855667,111.467722" id="Fill-129" fill="#4C589E"></path>
                    <path d="M54.044139,262.391467 C36.7209115,268.791047 29.7371559,266.195198 29.7371559,266.195198 C20.882281,264.139602 13.4636878,258.451575 8.25002883,251.002235 C16.8633273,242.476783 31.9376978,235.954219 52.0061123,259.883464 C52.7264493,260.739962 53.4072557,261.578892 54.044139,262.391467" id="Fill-130" fill="#4C589E"></path>
                </g>
                <path d="M158.465955,225.109752 C158.447946,231.315632 158.302561,237.477149 158.29158,243.618901 C158.26874,249.758456 158.32584,255.873415 158.581911,261.954992 C159.079559,274.108484 160.308524,286.170176 163.124866,297.781219 C163.478007,299.231117 163.878585,300.665203 164.25193,302.108951 C164.668759,303.537327 165.129512,304.95033 165.558639,306.375191 L167.024789,310.579939 L168.691666,314.700794 C169.313616,316.041324 169.895156,317.40645 170.547412,318.734682 L171.566865,320.705067 C171.910782,321.35908 172.21429,322.039887 172.603448,322.667986 C174.061691,325.240994 175.617882,327.764809 177.339225,330.181452 C180.767853,335.02528 184.777583,339.486977 189.268709,343.515155 C191.503511,345.545715 193.886333,347.426497 196.338993,349.248862 L198.212308,350.574019 L199.149186,351.245601 L199.618722,351.582051 L200.104071,351.891269 C201.391454,352.731077 202.699042,353.548923 203.991256,354.420355 C198.087128,352.511462 192.41096,349.746509 187.155134,346.246725 C181.901945,342.742549 177.108629,338.453469 172.976354,333.573186 C168.834416,328.697294 165.389096,323.224051 162.623266,317.45784 C161.94202,316.012335 161.328416,314.536522 160.681869,313.073887 L158.983367,308.598573 C158.498018,307.082791 157.998175,305.568326 157.537862,304.045516 C157.125864,302.511286 156.679607,300.983644 156.298355,299.442386 C153.311152,287.083775 152.5425,274.404086 153.075286,261.942694 C153.356393,255.70519 153.963848,249.504581 154.865148,243.360633 C155.778307,237.217564 156.936117,231.124567 158.465955,225.109752" id="Fill-74" fill="#D4D8F6"></path>
                <g id="leftarm" transform="translate(145.188184, 220.549967)">
                    <path d="M237.391142,110.749502 C235.467315,115.607384 232.919782,123.618938 232.919782,131.999445 C232.919782,136.967135 233.429288,145.857148 233.020804,155.568521 C232.322429,172.180197 228.935966,191.198852 215.697577,197.124063 C213.343305,198.178215 210.852871,199.083028 208.278984,199.842896 C187.929462,205.873523 162.322359,202.996567 156.208278,194.932306 C155.870071,194.484291 155.536256,194.036277 155.206834,193.58387 C148.829216,184.89151 143.848349,175.834589 128.967239,175.834589 C127.636373,175.834589 126.261583,175.623759 124.856047,175.232844 L124.851655,175.232844 C109.720185,171.042591 90.9299293,146.208532 82.6240917,140.766473 C79.6021899,138.785547 74.9156068,134.481094 70.0094087,129.623211 C60.1706588,119.872307 49.4358799,107.885723 49.4358799,107.885723 L46.9278771,96.9269364 L80.7002647,69.0973294 L80.7441877,69.062191 L85.2331174,65.9304818 C85.2331174,65.9304818 129.590946,89.0998594 131.47085,91.2916167 C131.56748,91.4058164 131.677288,91.5288008 131.791488,91.6605698 C133.614292,93.7293426 137.365315,97.4584046 142.117783,97.6604503 C142.728312,97.6868041 143.352019,97.656058 143.993294,97.5550351 C145.908337,97.2519665 147.564234,98.7014252 149.259661,100.805336 C152.839385,105.241559 156.61237,112.585483 163.407256,112.585483 C173.426091,112.585483 178.125851,93.7952271 178.125851,93.7952271 L196.911714,101.310451 C196.911714,101.310451 203.175132,95.6751311 212.882113,97.2431819 C222.589094,98.8068404 239.495053,106.010211 239.495053,106.010211 C239.495053,106.010211 238.555101,107.797877 237.391142,110.749502" id="Fill-136" fill="#5C6BC0"></path>
                    <path d="M239.495097,106.010167 C239.495097,106.010167 238.555145,107.797833 237.391186,110.749458 C215.947982,95.4115493 197.702372,107.573825 197.702372,107.573825 C197.702372,107.573825 172.341237,107.573825 169.521381,126.359689 C166.705917,145.149944 195.822468,129.179545 181.731972,145.149944 C171.71753,156.499645 156.959405,121.818051 149.259705,100.805293 C152.839429,105.241515 156.612414,112.585439 163.4073,112.585439 C173.426135,112.585439 178.125895,93.7951832 178.125895,93.7951832 L196.911758,101.310407 C196.911758,101.310407 203.175176,95.6750872 212.882157,97.243138 C222.589138,98.8067965 239.495097,106.010167 239.495097,106.010167" id="Fill-137" fill="#4C589E"></path>
                    <path d="M155.206878,193.583782 C148.82926,184.891422 143.848392,175.834501 128.967283,175.834501 C127.636417,175.834501 126.261627,175.623671 124.856091,175.232757 C138.256996,172.386547 153.73985,166.702912 157.310789,155.480588 C162.476133,139.24665 172.859528,178.671927 155.206878,193.583782" id="Fill-138" fill="#4C589E"></path>
                    <path d="M128.189846,125.419737 C136.623061,114.509266 135.103325,101.503668 131.791532,91.6605259 C133.614336,93.7292987 137.365359,97.4583606 142.117827,97.6604064 C146.975709,124.348016 112.838761,145.290498 128.189846,125.419737" id="Fill-139" fill="#4C589E"></path>
                    <path d="M233.020848,155.568521 C232.322473,172.180197 228.93601,191.198852 215.697621,197.124063 C213.343349,198.178215 210.852915,199.083028 208.279028,199.842896 C205.195634,188.053965 204.861819,167.67809 233.020848,155.568521" id="Fill-140" fill="#4C589E"></path>
                    <path d="M70.0094966,129.623079 C60.1707467,119.872175 49.4359677,107.885591 49.4359677,107.885591 L46.9279649,96.9268046 L80.7003526,69.0971976 C73.1104597,83.8816763 65.7226127,105.623557 70.0094966,129.623079" id="Fill-141" fill="#4C589E"></path>
                    <path d="M81.0607846,64.050446 C81.0607846,64.050446 80.0154174,52.5689762 71.2483885,42.7609724 C62.4813595,32.9485762 39.1011515,8.94466174 39.1011515,8.94466174 C39.1011515,8.94466174 37.4320779,10.6137354 38.6838831,15.2036879 C39.6976257,18.9248437 42.9044433,27.5737198 44.0868502,30.7265121 C44.3354543,31.3901885 44.0275542,32.1320478 43.3823254,32.4254534 C42.735779,32.7197374 41.971519,32.4619095 41.6359473,31.8355676 L25.3269016,1.42943801 C24.1409808,0.643216479 22.6168531,0.559762797 21.3606555,1.21860766 C20.1132426,1.87306022 19.3138442,3.15121925 19.2699212,4.56114726 C19.519843,5.18748911 19.7697648,5.81427019 20.0196866,6.44061203 C18.2495901,4.31122544 16.5620688,2.41726608 16.1382119,1.84670643 C15.0093911,0.322578646 13.010895,-0.349443113 11.130991,0.177632777 C11.2715445,3.51578008 11.4077058,6.85392738 11.5482594,10.196467 C11.5482594,10.196467 6.74747649,14.162713 5.07840284,22.0952052 C3.40493689,30.0276973 -0.561309181,57.9978579 0.0667895874,59.043225 C0.694888356,60.0841999 11.7546974,79.2917238 16.1382119,80.543529 C18.1323157,81.1145279 23.5304513,83.9695223 28.827564,86.9123627 C35.187613,90.4481635 41.3983239,94.1113409 41.3983239,94.1113409 L41.4773853,94.8536394 L41.8155923,98.077587 C41.8155923,98.077587 49.5372541,100.581197 63.1094583,92.8595357 C76.6772701,85.1334816 85.2334687,65.93035 85.2334687,65.93035 L81.0607846,64.050446 Z" id="Fill-132" fill="#0288D1"></path>
                    <path d="M66.4432133,79.502642 C66.3246212,79.6827263 58.9060281,90.6283356 41.4773853,94.8537273 L41.3983239,94.1114287 C41.3983239,94.1114287 35.187613,90.4482513 28.827564,86.9124505 C34.4760606,86.6005973 42.0527765,85.9681062 48.0790108,84.716301 C58.9719125,82.454267 66.219206,79.590488 66.4432133,79.502642" id="Fill-133" fill="#016296"></path>
                    <path d="M48.1895211,53.9080564 C48.0524813,53.9080564 47.9136847,53.8654511 47.7959711,53.7767267 L33.5491098,43.1306722 C33.4511615,43.0581992 33.375614,42.9593725 33.3312517,42.8460512 L19.3975614,7.77793534 C19.263157,7.43972831 19.4283075,7.05671983 19.7665145,6.92231547 C20.1038431,6.78835035 20.48773,6.95306157 20.6216951,7.2912686 L34.4868656,42.1863279 L48.5839495,52.7216964 C48.8755982,52.9391152 48.9353335,53.3519914 48.7174754,53.6432008 C48.5883418,53.8166966 48.3902491,53.9080564 48.1895211,53.9080564" id="Fill-134" fill="#FFFFFF"></path>
                    <path d="M22.0446243,50.9333719 C21.7551718,50.9333719 21.4894377,50.7414284 21.4094979,50.448462 L11.389346,13.8136131 C11.2935939,13.4626684 11.5004712,13.1003037 11.8514159,13.0041124 C12.2014821,12.907921 12.5647252,13.1147983 12.6609166,13.4661823 L22.6806292,50.100592 C22.7763814,50.4515367 22.5695041,50.8139013 22.2185594,50.9100927 C22.1610203,50.925905 22.1021635,50.9333719 22.0446243,50.9333719" id="Fill-135" fill="#FFFFFF"></path>
                </g>
                <path d="M143.186552,313.238905 C146.021341,319.722817 148.600939,326.08067 152.041427,331.734438 C155.443262,337.38557 159.603209,342.312851 164.791392,345.829325 C165.439256,346.268116 166.073944,346.72799 166.762217,347.107484 L167.773324,347.709229 C168.115045,347.90293 168.474774,348.065884 168.821327,348.252117 L169.864937,348.807304 L170.947639,349.293971 L172.032097,349.782834 C172.406321,349.918995 172.777031,350.06438 173.148181,350.211522 C176.121767,351.375481 179.266653,352.216607 182.505095,352.87633 C185.745294,353.549669 189.095301,353.905446 192.49538,354.229158 C195.905121,354.585813 199.359665,354.640716 202.906446,354.926216 C202.078937,355.242461 201.240447,355.521812 200.398883,355.803358 L199.131265,356.209206 C198.70653,356.337022 198.277402,356.436728 197.848714,356.551806 C196.991776,356.780205 196.12825,356.981812 195.262089,357.194399 C194.391096,357.365699 193.515271,357.517672 192.636372,357.680187 C189.115945,358.240645 185.510306,358.546788 181.866016,358.364947 C178.225678,358.202871 174.551081,357.609471 170.971357,356.512275 C170.523343,356.376992 170.075328,356.239953 169.629949,356.093689 L168.315773,355.580668 L167.002036,355.061499 L165.717728,354.460632 C165.292554,354.254194 164.863426,354.054784 164.446597,353.830776 L163.211043,353.125812 C162.376067,352.673845 161.589406,352.14062 160.80011,351.610909 C159.236891,350.530403 157.77162,349.313736 156.383214,348.023718 C155.709436,347.358724 155.058058,346.671329 154.41195,345.983495 C153.808009,345.260962 153.16322,344.569614 152.611986,343.810185 C150.329308,340.827814 148.506944,337.566093 147.114145,334.193686 C145.716077,330.818204 144.750649,327.331597 144.106738,323.825664 C143.950372,322.946765 143.79752,322.071819 143.68947,321.188967 C143.566925,320.309189 143.468098,319.428533 143.393868,318.545242 C143.232671,316.781734 143.15888,315.012955 143.186552,313.238905" id="Fill-75" fill="#D4D8F6"></path>
                <path d="M384.683281,326.560134 L383.699406,323.63618 L375.016709,319.604928 C375.086986,317.352118 375.128273,315.755956 375.134423,314.973249 C375.134423,314.973249 375.411137,281.253569 364.799343,218.68966 C363.196154,209.246217 360.679366,197.997539 353.010412,188.290558 C308.854629,221.008794 323.999277,316.330469 323.999277,316.330469 C323.999277,316.330469 335.688941,325.72384 374.853315,324.540115 L383.073503,327.602426 L384.683281,326.560134 Z" id="Fill-76" fill="#D4D8F6"></path>
                <path d="M283.555294,141.60468 C282.650481,150.521047 280.884776,165.503179 277.441214,189.103002 C270.865942,234.189952 241.744999,277.871366 241.744999,277.871366 C241.744999,277.871366 222.019184,215.874065 218.733744,181.587778 C216.484887,158.16804 221.254924,136.496436 224.505225,125.115989 C225.234347,125.142782 225.967861,125.190658 226.71016,125.260935 C227.795057,125.357566 228.893132,125.498119 230.004384,125.695773 C242.043676,127.804076 266.236459,135.697038 282.05752,141.095173 C282.567027,141.266473 283.067749,141.437772 283.555294,141.60468" id="Fill-79" fill="#FFFFFF"></path>
                <path d="M283.555294,141.60468 C282.650481,150.521047 280.884776,165.503179 277.441214,189.103002 C275.930263,199.47322 273.224607,209.768769 269.952344,219.47575 C269.293499,216.159564 268.147109,212.390972 266.170574,209.298793 C258.655351,197.553785 249.260223,193.328394 249.260223,193.328394 C249.260223,193.328394 241.889945,196.62701 233.764192,202.723521 C230.544637,205.134894 227.272374,209.421778 224.36028,214.01173 C221.751254,202.354568 219.629773,190.938983 218.733744,181.587778 C216.484887,158.16804 221.254924,136.496436 224.505225,125.115989 C225.234347,125.142782 225.967861,125.190658 226.71016,125.260935 C227.795057,125.357566 228.893132,125.498119 230.004384,125.695773 C242.043676,127.804076 266.236459,135.697038 282.05752,141.095173 C282.567027,141.266473 283.067749,141.437772 283.555294,141.60468" id="Fill-80" fill="#0288D1"></path>
                <path d="M282.057213,141.095349 C272.890485,183.314128 249.259916,193.328569 249.259916,193.328569 C249.259916,193.328569 238.964367,188.483864 232.015749,179.93645 C230.026038,177.494331 228.313041,174.744752 227.188613,171.72285 C222.963221,160.35558 225.027602,137.981209 226.709852,125.261111 C227.79475,125.357741 228.892825,125.498295 230.004076,125.695948 C241.252754,127.663698 263.104442,134.682592 278.828873,140.001666 C279.935732,140.375012 281.016238,140.739573 282.057213,141.095349" id="Fill-81" fill="#BA7357"></path>
                <path d="M282.057213,141.095349 C272.890485,183.314128 249.259916,193.328569 249.259916,193.328569 C249.259916,193.328569 238.964367,188.483864 232.015749,179.93645 C244.349325,172.372911 263.196681,158.985183 278.828873,140.001666 C279.935732,140.375012 281.016238,140.739573 282.057213,141.095349" id="Fill-82" fill="#AA5853"></path>
                <path d="M241.184278,215.168837 C240.111679,215.168837 239.23849,216.041587 239.23849,217.114626 C239.23849,218.187225 240.111679,219.059975 241.184278,219.059975 C242.256878,219.059975 243.130067,218.187225 243.130067,217.114626 C243.130067,216.041587 242.256878,215.168837 241.184278,215.168837 M241.184278,220.377665 C239.384753,220.377665 237.9208,218.913712 237.9208,217.114626 C237.9208,215.315101 239.384753,213.851148 241.184278,213.851148 C242.983803,213.851148 244.447757,215.315101 244.447757,217.114626 C244.447757,218.913712 242.983803,220.377665 241.184278,220.377665" id="Fill-83" fill="#0288D1"></path>
                <path d="M240.895177,237.734713 C239.822139,237.734713 238.94895,238.607463 238.94895,239.680502 C238.94895,240.753101 239.822139,241.625851 240.895177,241.625851 C241.967777,241.625851 242.840966,240.753101 242.840966,239.680502 C242.840966,238.607463 241.967777,237.734713 240.895177,237.734713 M240.895177,242.943541 C239.095213,242.943541 237.63126,241.479587 237.63126,239.680502 C237.63126,237.880977 239.095213,236.417023 240.895177,236.417023 C242.694702,236.417023 244.158655,237.880977 244.158655,239.680502 C244.158655,241.479587 242.694702,242.943541 240.895177,242.943541" id="Fill-84" fill="#0288D1"></path>
                <path d="M242.390448,278.002301 L241.099551,277.74052 C244.424521,261.334844 246.686116,244.560214 247.821525,227.883094 C248.60028,216.441594 248.8625,204.821327 248.601598,193.343811 L249.919287,193.313504 C250.180629,204.830551 249.917531,216.491666 249.135701,227.972257 C247.997217,244.707356 245.727716,261.539525 242.390448,278.002301" id="Fill-85" fill="#0288D1"></path>
                <path d="M206.291942,54.358291 C207.059277,56.9677558 207.873609,59.5078224 208.735818,61.9565291 L208.733182,61.9626784 C212.582154,72.945183 217.355704,82.2586139 223.260272,89.5362143 C223.452216,89.7650531 223.641524,90.0004803 223.833467,90.2293191 L268.869906,114.679491 L268.876055,114.681687 L312.275045,138.240223 L313.696393,139.009753 L313.901952,139.120879 L313.91469,139.125271 L314.124642,139.245181 L314.846296,139.630385 L314.91833,139.670794 L315.431351,139.951462 C340.188984,146.182378 358.524197,133.55364 370.772123,119.089799 L370.780907,119.085846 L370.947815,118.885557 C371.712514,117.976351 372.449103,117.06407 373.164608,116.151351 L373.18042,116.128071 C376.115355,112.373973 378.646637,108.574195 380.786565,105.015994 C387.992571,93.033802 389.03091,78.3622054 383.584459,65.4817884 C379.439447,55.6729061 373.729897,45.7875978 368.024301,37.0262788 C368.024301,37.0262788 368.018151,37.0236434 368.020348,37.0174942 C367.447592,36.1434267 366.876593,35.284293 366.309547,34.4339439 C362.562037,28.8306879 358.879973,23.7646102 355.707416,19.5862161 C352.138233,14.8868953 347.756036,10.9496384 342.807233,7.93520352 C337.831197,4.89661102 332.285481,2.787429 326.439331,1.76358408 C319.980894,0.632567071 313.331832,0.105930412 306.729328,0.008860602 C306.382775,0.00578599264 306.045008,0 305.702847,0.00490753283 C295.843454,-0.0741538506 286.104848,0.810015954 277.253048,2.08158654 L277.244702,2.08553961 C277.024209,2.11408955 276.808108,2.15142409 276.587615,2.17997404 C274.299227,2.52125568 272.077602,2.87922805 269.923179,3.26926421 L269.901657,3.26882498 C269.670622,3.30747721 269.439148,3.34656867 269.214262,3.38785628 C264.296205,4.27202609 259.783117,5.23789266 255.847617,6.16774237 C245.967141,8.49873549 236.744191,13.0232428 228.86792,19.4193087 L213.193123,32.1385284 C206.621365,37.4742933 203.898579,46.2426399 206.291942,54.358291" id="Fill-87" fill="#70575B"></path>
                <path d="M268.876187,114.681863 L315.431482,139.951638 C348.214285,148.200815 369.7427,123.377297 380.786697,105.01573 C387.992702,93.0339777 389.031042,78.3623811 383.584591,65.4815248 C376.298206,48.2413117 364.180731,30.7507376 355.707547,19.5863918 C352.137926,14.887071 347.756168,10.9498141 342.807365,7.93537921 L342.800776,7.93274383 C342.800776,7.93274383 366.472633,97.0568845 268.876187,114.681863" id="Fill-88" fill="#644752"></path>
                <path d="M208.735642,61.9563974 L208.733446,61.9629858 C212.582417,72.9450512 217.355968,82.2584822 223.260096,89.5365217 C223.50343,89.7043076 223.629928,89.7934712 223.629928,89.7934712 L249.07276,23.7570115 C232.912174,16.4372451 208.735642,61.9563974 208.735642,61.9563974" id="Fill-89" fill="#65414E"></path>
                <path d="M305.260587,0.524692206 C305.431008,0.673591145 322.880734,15.859526 332.568828,40.4151132 C341.396031,62.7978301 345.364474,97.7548208 314.642098,137.681259 C314.316629,138.098966 313.99116,138.516235 313.66613,138.933503 L313.767152,139.013882 L313.901996,139.120615 L313.914734,139.125447 L314.201551,139.352528 L314.736972,139.771554 C314.774746,139.727631 314.808127,139.674484 314.845901,139.630561 C314.997875,139.432029 315.153362,139.242721 315.296551,139.048581 C315.659355,138.586951 316.018645,138.116535 316.366954,137.656662 C316.765775,137.135735 317.158886,136.612612 317.536184,136.091246 C330.048527,119.167718 337.495231,101.801007 339.683035,84.4053062 C341.557229,69.4653401 339.58289,54.4805726 333.810531,39.8673935 C325.008803,17.5738403 309.873379,2.91014984 306.729372,0.00859706405 C306.382819,0.0059616846 306.045051,-0.00106599392 305.702891,0.00508322479 L305.260587,0.524692206 Z" id="Fill-90" fill="#3E1F2A"></path>
                <path d="M316.292197,79.0750756 C317.631409,79.5617423 318.99961,79.983403 320.395922,80.3391792 L320.731933,79.0210503 C299.086244,73.5021265 288.613685,52.9338684 283.636771,36.6489803 C278.21316,18.9010174 277.954454,2.24146622 277.952258,2.07543732 L276.591963,2.0912496 C276.594159,2.25947465 276.851987,19.0868117 282.326549,37.017055 C289.031393,58.9772327 300.723254,73.4177943 316.292197,79.0750756" id="Fill-91" fill="#3E1F2A"></path>
                <path d="M269.214218,3.38794413 C269.051703,5.34866644 267.837232,22.0191984 272.557636,39.6665776 C278.316819,61.2094869 290.588902,75.7449222 308.294699,82.1783227 C311.018803,83.1683469 313.864134,83.9633531 316.84387,84.5681726 L317.11224,83.2324745 C295.014583,78.7646279 280.463335,63.9871768 273.873569,39.3125583 C268.93355,20.8539214 270.569242,3.50390083 270.586372,3.33655423 L269.923135,3.26935205 L269.901613,3.26847359 C269.670578,3.30756506 269.439104,3.34665652 269.214218,3.38794413" id="Fill-92" fill="#3E1F2A"></path>
                <path d="M313.809538,138.797649 L313.967222,139.021217 L314.124466,139.245225 L314.201331,139.352836 L314.593124,139.907583 C314.700736,139.831157 314.817132,139.7499 314.918154,139.670838 C315.218588,139.461765 315.510236,139.256645 315.797932,139.0423 L315.80452,139.044936 C316.473907,138.556951 317.134509,138.073359 317.788961,137.587132 L317.79555,137.589328 C354.775194,110.323692 366.341435,84.1100119 369.476219,66.7178253 C372.051863,52.4384609 369.606231,41.8569732 368.024564,37.0263227 C368.024564,37.0263227 368.017976,37.0236873 368.020611,37.0175381 C367.447416,36.1434706 366.876856,35.2843369 366.309811,34.4339878 L365.697085,34.7256365 C365.751989,34.8538916 371.581009,47.5186467 368.117681,66.5720009 C365.025063,83.6097291 353.667017,109.26954 317.536404,136.091115 C316.822655,136.620826 316.093973,137.152294 315.36529,137.683762 L315.358702,137.681127 C314.847438,138.052715 314.336175,138.424304 313.809538,138.797649" id="Fill-93" fill="#3E1F2A"></path>
                <path d="M370.780995,119.08567 C359.733924,125.343378 333.985388,138.752628 315.804345,139.044716 C315.636559,139.048669 315.464381,139.044277 315.296595,139.04823 C314.84902,139.045155 314.401444,139.041642 313.967046,139.021437 C313.902479,139.01968 313.831763,139.015727 313.767196,139.01397 C313.745674,139.013531 313.715367,139.017045 313.696041,139.010017 C313.195319,138.994205 312.701185,138.959506 312.211883,138.912069 L312.274693,138.240047 L312.333989,137.559241 C313.083315,137.629078 313.85065,137.669048 314.642142,137.681346 C314.881083,137.681346 315.117828,137.687496 315.365115,137.683543 C315.692341,137.67959 316.026156,137.677393 316.366998,137.65675 C316.831703,137.651918 317.306072,137.621611 317.789225,137.586912 C337.353842,136.256045 365.191356,120.782415 373.180069,116.128335 L370.780995,119.08567 Z" id="Fill-94" fill="#3E1F2A"></path>
                <path d="M307.605723,98.9612536 C307.605723,98.9612536 315.59839,86.0812757 327.84939,91.0595075 C329.774096,91.841776 331.079926,93.6711686 331.256497,95.7412591 C331.719006,101.158282 328.19726,113.886725 315.727084,114.935167 L307.605723,98.9612536 Z" id="Fill-95" fill="#BA7357"></path>
                <path d="M316.319869,106.874639 C315.706265,106.890891 315.176993,106.376113 315.137023,105.725614 C314.959574,102.840313 316.166578,99.9752158 318.285862,98.2494815 C320.405146,96.5237472 323.3515,96.0063344 325.975899,96.8988495 C326.567981,97.1000168 326.912337,97.7650109 326.745869,98.3843251 C326.725665,98.4594334 326.698432,98.5305886 326.666369,98.5964731 C326.430063,99.0774299 325.892445,99.3172494 325.372397,99.140679 C324.126741,98.7168221 322.783137,98.7251675 321.565592,99.1217921 L323.359846,102.224073 C323.575068,102.596979 323.5799,103.037527 323.4086,103.387154 C323.320315,103.566799 323.185472,103.722725 323.008462,103.832972 C322.487535,104.156685 321.80058,103.960349 321.473793,103.395938 L319.622878,100.194831 C318.096115,101.476064 317.229514,103.563724 317.358648,105.667196 C317.398617,106.3155 316.934791,106.857509 316.319869,106.874639" id="Fill-96" fill="#863F25"></path>
                <path d="M222.981361,91.710578 C222.981361,91.710578 212.627834,82.4801615 220.479947,63.985947 C221.713744,61.0800019 223.797011,58.8803385 225.82801,58.2623421 C231.142253,56.6450975 242.473506,59.471542 240.34939,77.221701 L222.981361,91.710578 Z" id="Fill-97" fill="#BA7357"></path>
                <path d="M228.830542,65.4079099 C229.694068,63.1603705 230.580434,60.9611463 231.479098,58.8194613 C236.392324,47.1012466 241.649467,37.0868047 245.054377,30.8269 C247.489028,26.3542219 249.07377,23.7596908 249.07377,23.7596908 C252.742218,39.2851504 257.918982,50.917276 263.805102,59.6039259 C264.206558,60.2109416 264.626022,60.8047805 265.042412,61.3709478 C275.783341,76.2621594 288.647506,81.8864984 298.978194,83.7338994 C299.692821,83.8665468 300.389439,83.9728404 301.068928,84.0725456 C302.963327,84.3259813 304.745282,84.4652171 306.398104,84.5174855 C307.86074,84.562287 309.213568,84.5412039 310.44473,84.4814687 C308.678586,94.842463 318.711036,113.224674 320.099003,123.650235 L315.621933,132.036012 C315.621933,132.036012 244.635352,173.432553 223.75568,133.268052 C214.067585,114.632406 220.212412,87.8187375 228.830542,65.4079099" id="Fill-98" fill="#BA7357"></path>
                <path d="M245.057056,30.8249674 C245.057056,30.8249674 255.141775,109.430869 306.396391,84.5142352 C290.223507,84.0016539 261.28177,75.4397453 249.072935,23.7568797 C249.072935,23.7568797 247.492586,26.3531677 245.057056,30.8249674" id="Fill-99" fill="#AA5853"></path>
                <path d="M294.715994,99.5264985 C294.222739,102.478124 291.430555,104.47091 288.47893,103.978094 C285.527305,103.484838 283.534079,100.692215 284.027335,97.7405897 C284.52059,94.7889648 287.312774,92.7961787 290.264399,93.2894338 C293.216024,93.7822498 295.20925,96.5748736 294.715994,99.5264985" id="Fill-100" fill="#471923"></path>
                <path d="M245.641276,83.0087308 C245.226204,85.4943328 242.874567,87.1726303 240.388965,86.757558 C237.903363,86.3420465 236.225065,83.9904096 236.640138,81.5048076 C237.055649,79.0192055 239.407286,77.340908 241.892888,77.7564195 C244.378051,78.1714918 246.056348,80.5231287 245.641276,83.0087308" id="Fill-101" fill="#471923"></path>
                <path d="M277.403396,83.5012393 L304.318087,90.1964208 C304.318087,90.1964208 302.971408,82.4330321 291.96255,79.7980919 C280.953692,77.1631517 277.403396,83.5012393 277.403396,83.5012393" id="Fill-102" fill="#471923"></path>
                <path d="M232.059189,67.6514523 L258.415619,76.2875908 C258.415619,76.2875908 257.637304,68.4464585 246.848939,65.0178298 C236.061013,61.5883227 232.059189,67.6514523 232.059189,67.6514523" id="Fill-103" fill="#471923"></path>
                <path d="M263.731663,80.3659723 C263.731663,80.3659723 255.07488,106.343786 250.166047,109.685008 C249.455812,110.169039 249.150547,111.064629 249.299446,111.911464 C249.813345,114.832782 252.677563,119.474564 267.000851,112.716573 C267.000851,112.716573 272.402939,85.5734821 263.731663,80.3659723" id="Fill-104" fill="#863F25"></path>
                <path d="M316.112069,132.113976 C310.239565,135.746407 306.58078,137.235396 305.43439,141.148935 C305.012729,142.602786 304.186977,143.446107 302.900034,144.008322 C300.725845,144.96145 297.225183,145.115181 292.077409,146.063918 C283.894555,147.574868 263.044312,166.299239 235.557304,152.327336 C209.748155,139.207539 225.028963,126.144841 218.765545,117.606212 C218.361453,117.04839 217.865123,116.512529 217.258986,115.99863 C203.471559,104.258015 222.209107,89.1704675 222.209107,89.1704675 C222.209107,89.1704675 219.534197,78.8266032 225.151948,75.7563861 C225.151948,75.7563861 226.412537,77.8119821 228.472526,80.5791305 C232.899963,86.5350881 241.012539,95.7984468 248.198341,95.0385791 C258.726682,93.9185428 263.615311,92.8028989 267.880233,97.5509742 C272.149548,102.303442 273.897683,109.849412 284.755446,111.803985 C291.805086,113.077751 304.503223,113.736596 312.545522,114.039665 C316.885114,114.206572 319.867485,114.268064 319.867485,114.268064 C319.867485,114.268064 321.984573,128.481544 316.112069,132.113976" id="Fill-105" fill="#AED9F0"></path>
                <path d="M320.303333,88.9678947 C318.216112,89.6416734 316.850986,91.4179191 315.982189,92.9745499 C314.935065,94.8513793 314.317508,96.8239608 313.826009,98.7539371 C313.224264,101.116555 312.789866,103.483565 312.491629,105.834323 C312.12048,108.761351 311.968945,111.671689 312.046689,114.541178 C312.123554,117.391341 312.425744,120.201533 312.953259,122.949795 C313.019583,123.296347 313.08986,123.642461 313.163651,123.987256 C313.221629,124.260457 313.494391,124.448008 313.880474,124.365433 C314.217363,124.293399 314.563916,123.974518 314.505059,123.699121 C313.934499,121.01938 313.576087,118.279024 313.436412,115.496063 C313.297616,112.732868 313.367892,109.928385 313.662616,107.103258 C313.921761,104.62117 314.347375,102.123709 314.931551,99.6244907 C315.144577,98.711771 315.384836,97.7981728 315.672093,96.8863315 C315.821431,96.4132809 315.983507,95.9411087 316.162273,95.4702543 C316.335769,95.0134552 316.490378,94.6418667 316.730197,94.1393876 C316.940589,93.6979616 317.172063,93.2596101 317.434283,92.8291648 C317.559024,92.6244837 317.690793,92.4215595 317.830908,92.2212706 C317.863411,92.174273 317.896792,92.1272754 317.930613,92.0807171 C317.953013,92.049971 318.044813,91.9261081 318.017141,91.9625642 C317.984638,92.0056087 318.073362,91.8909697 318.089614,91.8703259 C318.130462,91.818936 318.17175,91.7679854 318.213916,91.7170347 C318.35974,91.5413427 318.514349,91.3687254 318.678621,91.201818 C318.755047,91.1245136 318.83323,91.0485268 318.914049,90.9734185 C318.953579,90.9369624 318.994428,90.9005063 319.034398,90.8640502 C319.145523,90.764345 319.003651,90.884694 319.089301,90.8161742 C319.261919,90.678256 319.43805,90.5442908 319.626919,90.4213065 C319.72311,90.3589358 319.821497,90.3005182 319.921203,90.2425399 C319.818862,90.3022752 319.898363,90.2543991 319.953266,90.2267276 C320.00817,90.1990561 320.063074,90.1713847 320.119295,90.1454701 C320.320023,90.0510357 320.526462,89.9710958 320.737292,89.9030152 C321.093068,89.7879369 321.263489,89.3921908 321.156756,89.1620343 C321.027623,88.8840018 320.660427,88.8523772 320.303333,88.9678947" id="Fill-106" fill="#76BFE6"></path>
                <path d="M229.392624,103.051231 C232.422432,106.706502 235.472884,110.370997 238.966958,113.59758 C242.518132,116.87731 246.501508,119.583844 251.01767,121.345156 C255.605865,123.134579 260.51997,123.944958 265.41343,124.305127 C270.50674,124.680229 275.631235,124.580085 280.731573,124.42855 C286.308914,124.262961 291.881424,123.94408 297.440757,123.472347 C298.129909,123.41349 298.819061,123.352437 299.507773,123.289627 C299.979945,123.246143 300.386233,122.916721 300.386233,122.411167 C300.386233,121.969302 299.98302,121.489224 299.507773,121.532708 C293.997195,122.036943 288.473439,122.393598 282.943974,122.59784 C277.800592,122.788027 272.633491,122.923749 267.490109,122.674266 C262.706456,122.442353 257.914019,121.821721 253.35042,120.320433 C248.908927,118.859554 244.910617,116.465751 241.385358,113.408711 C237.838576,110.332345 234.761332,106.76448 231.761831,103.16587 C231.385411,102.714341 231.010308,102.261495 230.635206,101.809089 C230.332137,101.44321 229.706235,101.495478 229.392624,101.809089 C229.031138,102.170575 229.089117,102.684913 229.392624,103.051231" id="Fill-107" fill="#76BFE6"></path>
                <path d="M225.771086,124.763244 C228.938373,128.105783 232.121911,131.460621 235.713055,134.356903 C237.54113,135.831398 239.461004,137.195207 241.508254,138.349503 C243.523002,139.485791 245.651949,140.424425 247.837118,141.18034 C252.194718,142.687338 256.806193,143.438421 261.406687,143.612795 C266.301465,143.798589 271.204149,143.293914 276.010203,142.381194 C280.936606,141.446074 285.768135,140.065574 290.528947,138.502794 C291.124104,138.307776 291.718382,138.109244 292.311782,137.908516 C292.761114,137.756543 293.056276,137.304136 292.925386,136.828011 C292.805037,136.389659 292.295969,136.061994 291.84488,136.214406 C287.135457,137.805736 282.368495,139.249485 277.504902,140.29046 C272.817441,141.2941 268.039937,141.913854 263.240911,141.894528 C258.748907,141.87608 254.294237,141.310352 249.983195,140.026044 C245.672593,138.742175 241.683068,136.700195 238.08841,133.998492 C234.480576,131.287125 231.307579,128.034628 228.203102,124.774224 C227.805599,124.356956 227.409414,123.938809 227.013228,123.521101 C226.68688,123.176306 226.100069,123.191679 225.771086,123.521101 C225.427169,123.864579 225.44386,124.418009 225.771086,124.763244" id="Fill-108" fill="#76BFE6"></path>
                <path d="M228.472482,80.5790866 L225.62188,96.7339626 C225.62188,96.7339626 220.078798,101.0472 218.765501,117.606168 C218.361409,117.048346 217.865079,116.512485 217.258942,115.998586 C203.471515,104.257971 222.209063,89.1704236 222.209063,89.1704236 C222.209063,89.1704236 219.534153,78.8265593 225.151904,75.7563422 C225.151904,75.7563422 226.412493,77.8119382 228.472482,80.5790866" id="Fill-109" fill="#76BFE6"></path>
                <path d="M316.112069,132.113976 C310.239565,135.746407 306.58078,137.235396 305.43439,141.148935 C305.012729,142.602786 304.186977,143.446107 302.900034,144.008322 C308.81646,132.039307 306.998049,126.474264 306.998049,126.474264 L312.545522,114.039665 C316.885114,114.206572 319.867485,114.268064 319.867485,114.268064 C319.867485,114.268064 321.984573,128.481544 316.112069,132.113976" id="Fill-110" fill="#76BFE6"></path>
                <path d="M224.374159,58.0130352 L219.14908,88.2035029 C220.598539,90.2634912 224.890254,95.786368 232.79771,98.6154479 C239.900936,101.156832 246.044006,100.13694 248.557719,99.5738475 C256.42213,88.1169746 260.890855,85.5852534 263.498124,86.5164208 C273.716369,90.1664214 270.713793,108.333849 270.713793,108.333849 C272.385502,110.463235 276.100509,114.605173 282.325275,117.31083 C289.108302,120.258941 295.17275,119.89438 297.871378,119.567154 C303.912546,109.900582 309.953714,100.234449 315.995322,90.5683167 C315.995322,90.5683167 293.648183,71.5821647 264.712155,62.093481 C235.776128,52.6047973 224.374159,58.0130352 224.374159,58.0130352" id="Fill-111" fill="#FFFFFF"></path>
                <path d="M265.315526,68.3209705 L272.854907,63.6269205 C272.854907,63.6269205 272.685803,58.5999342 270.101814,59.2899644 C267.517385,59.9804338 267.711525,62.3650129 267.711525,62.3650129 L265.315526,68.3209705 Z" id="Fill-112" fill="#534958"></path>
                <path d="M291.342709,120.017672 C290.852967,120.017672 290.362348,119.998785 289.868653,119.961011 C286.672816,119.717239 283.999663,119.136577 281.924302,118.234398 C276.005679,115.66139 272.130353,111.768495 269.921466,108.955667 C269.747531,108.733855 269.67418,108.448356 269.71986,108.169884 C269.748849,107.996828 272.465047,90.7886784 263.159082,87.4650257 C261.641543,86.9195021 257.829028,87.8453988 249.387468,100.143397 C249.24384,100.35291 249.025982,100.500491 248.777817,100.555834 C244.9776,101.407501 239.063369,101.92667 232.458669,99.5636135 C224.845058,96.8390703 220.335923,91.6399059 218.325568,88.7831546 C218.171838,88.5648573 218.111224,88.2942917 218.156904,88.0320715 L223.381983,57.8411645 C223.477296,57.2930056 223.998662,56.928884 224.545942,57.020683 C225.094101,57.1155567 225.461297,57.6369226 225.366423,58.1846423 L220.212939,87.9600378 C222.192548,90.6766747 226.335365,95.233685 233.13684,97.667458 C239.070836,99.7902561 244.408358,99.415593 247.9547,98.6741729 C255.052655,88.4001461 260.103799,84.2371251 263.836375,85.5679917 C273.913627,89.16792 272.187892,105.090004 271.774138,108.049096 C273.878928,110.646263 277.426588,114.083676 282.726775,116.387437 C284.596137,117.200012 287.050554,117.726649 290.021944,117.95373 C297.820032,118.544495 305.16747,113.823652 307.892452,106.463915 C308.17927,105.688675 308.459498,104.914751 308.739288,104.141268 C310.374101,99.6264233 312.064258,94.9582879 315.141942,90.0345206 C315.436226,89.5627877 316.056858,89.4195987 316.52903,89.7147612 C317.000324,90.0094845 317.143952,90.6305556 316.848789,91.1018493 C313.884866,95.8446538 312.231605,100.410449 310.632808,104.826905 C310.350822,105.605221 310.069276,106.383097 309.780702,107.16273 C306.917801,114.895812 299.46978,120.016793 291.342709,120.017672" id="Fill-113" fill="#26388F"></path>
                <path d="M315.994487,91.9108229 C315.687466,91.9108229 315.379126,91.805847 315.12613,91.5910636 C314.904758,91.4035124 292.630531,72.661133 264.294053,63.3692243 C236.398122,54.2209438 225.053253,59.1785317 224.942127,59.2294824 C224.270984,59.5369433 223.473343,59.2470516 223.161489,58.5789829 C222.849636,57.9100358 223.132061,57.1163473 223.799251,56.7996626 C224.284161,56.5699453 236.020384,51.2723934 265.130346,60.8177377 C293.98292,70.27875 316.639277,89.3536264 316.864163,89.5451306 C317.429891,90.0252089 317.498411,90.8724834 317.018332,91.4373331 C316.753037,91.7500648 316.37486,91.9108229 315.994487,91.9108229" id="Fill-114" fill="#FF81A0"></path>
                <path d="M190.361469,207.136552 C190.83408,206.414458 191.30186,205.68885 191.768762,204.962803 C192.966541,203.100029 194.153341,201.230228 195.330038,199.354277 C196.926199,196.809379 198.503474,194.252621 200.054834,191.68093 C201.718197,188.923445 203.35389,186.14839 204.935117,183.343029 C206.361297,180.812625 207.752777,178.258503 209.019955,175.644207 C209.15436,175.366614 209.287007,175.088581 209.417898,174.80967 C209.612916,174.394159 209.54791,173.842925 209.10297,173.607498 C208.713373,173.401938 208.109432,173.478804 207.900798,173.922865 C206.699504,176.481379 205.359853,178.975327 203.985063,181.444238 C202.417451,184.259702 200.790105,187.040905 199.13289,189.80454 C197.559129,192.429378 195.957258,195.037525 194.335621,197.632935 C193.100067,199.610348 191.853094,201.580294 190.593822,203.543212 C190.023262,204.433092 189.409218,205.305403 188.868087,206.21373 C188.86062,206.226029 188.852275,206.237888 188.844369,206.249747 C188.592251,206.634952 188.754766,207.237575 189.159736,207.451919 C189.598527,207.683393 190.092221,207.547671 190.361469,207.136552" id="Fill-115" fill="#4C589E"></path>
            </g>
        </g>
    </g>
</svg>