<?xml version="1.0" encoding="UTF-8"?>
<svg width="25px" height="19px" viewBox="0 0 25 19" version="1.1" xmlns="http://www.w3.org/2000/svg" xmlns:xlink="http://www.w3.org/1999/xlink">
    <title>copy</title>
    <g id="PageState-Generator" stroke="none" stroke-width="1" fill="none" fill-rule="evenodd">
        <g id="Artboard-Copy" transform="translate(-1151.000000, -57.000000)" fill="#000000" fill-rule="nonzero">
            <g id="Button" transform="translate(1135.866323, 48.500000)">
                <path d="M34.8163754,8.5 C37.2927946,8.5 39.3075865,9.8319642 39.3075865,11.4691895 L39.3075865,11.4691895 L39.3075865,17.8528802 C39.3075865,18.2628637 38.8049269,18.5951775 38.1847837,18.5951775 C37.5646405,18.5951775 37.0619809,18.2628637 37.0620371,17.8529173 L37.0620371,17.8529173 L37.0620371,11.4691895 C37.0620371,10.6505954 36.0546411,9.98459476 34.8164316,9.98459476 L34.8164316,9.98459476 L24.4866237,9.98459476 C23.2484142,9.98459476 22.2410182,10.6505954 22.2410182,11.4691895 L22.2410182,11.4691895 L22.2410182,21.5638475 C22.2410182,21.9604346 22.4746946,22.3333089 22.8989381,22.6137068 C23.3230132,22.8940676 23.8868563,23.0484423 24.4866237,23.0484423 L24.4866237,23.0484423 L34.8168806,23.0467724 C36.0548095,23.0465868 37.0619248,22.3805862 37.0619248,21.5621776 C37.0619248,21.152194 37.5645843,20.8198802 38.1847276,20.8198802 C38.8048708,20.8198802 39.3075865,21.152194 39.3075865,21.5621776 C39.3075865,23.0735282 37.5901243,24.3250023 35.3777487,24.508248 L35.3777487,24.508248 L35.3777487,24.5308105 C35.3777487,26.1680358 33.3629568,27.5 30.8865377,27.5 L30.8865377,27.5 L19.9954127,27.5 C17.5189374,27.5 15.5042017,26.1679987 15.5042017,24.5308105 L15.5042017,24.5308105 L15.5042017,14.4356329 C15.5042017,12.7984076 17.5189936,11.4664434 19.9954127,11.4664434 C19.9977141,9.83047982 22.0115518,8.5 24.4866237,8.5 L24.4866237,8.5 Z M19.9954688,12.950964 C18.7572593,12.950964 17.7498633,13.6169646 17.7498633,14.4355587 L17.7498633,14.4355587 L17.7498633,24.5307363 C17.7498633,25.3493304 18.7572593,26.015331 19.9954688,26.015331 L19.9954688,26.015331 L30.8865377,26.015331 C32.1243544,26.015331 33.1314696,25.3497757 33.1321432,24.5315527 L33.1321432,24.5315527 L24.4877464,24.5329628 C23.2870889,24.5329628 22.1595711,24.2242876 21.3112524,23.6635661 C20.4627654,23.1027703 19.9954688,22.3570218 19.9954688,21.5638104 L19.9954688,21.5638104 Z M29.0900982,18.4467403 C29.7102414,18.4467403 30.212901,18.7790541 30.212901,19.1890377 C30.212901,19.5990213 29.7102414,19.9313351 29.0900982,19.9313351 L29.0900982,19.9313351 L25.6655582,19.9313351 C25.045415,19.9313351 24.5427555,19.5990213 24.5427555,19.1890377 C24.5427555,18.7790541 25.045415,18.4467403 25.6655582,18.4467403 L25.6655582,18.4467403 Z M33.6312103,15.4775508 C34.2513535,15.4775508 34.7540131,15.8098646 34.7540131,16.2198482 C34.7540131,16.6298318 34.2512974,16.9621456 33.6312103,16.9621456 L33.6312103,16.9621456 L25.6655582,16.9621456 C25.045415,16.9621456 24.5427555,16.6298318 24.5427555,16.2198482 C24.5427555,15.8098646 25.045415,15.4775508 25.6655582,15.4775508 L25.6655582,15.4775508 Z M33.6312103,12.5083984 C34.2512974,12.5083984 34.7540131,12.8407122 34.7540131,13.2506958 C34.7540131,13.6606794 34.2513535,13.9929932 33.6312103,13.9929932 L33.6312103,13.9929932 L25.6655582,13.9929932 C25.045415,13.9929932 24.5427555,13.6606794 24.5427555,13.2506958 C24.5427555,12.8407122 25.045415,12.5083984 25.6655582,12.5083984 L25.6655582,12.5083984 Z" id="copy"></path>
            </g>
        </g>
    </g>
</svg>