<?xml version="1.0" encoding="UTF-8"?>
<svg viewBox="0 0 44 56" version="1.1" xmlns="http://www.w3.org/2000/svg" xmlns:xlink="http://www.w3.org/1999/xlink">
    <title>argfile</title>
    <g id="argfile" transform="translate(0.250000, 0.250000)" fill="currentColor">
        <path d="M1.84104551,1.5 C2.34204216,1.07476165 2.93174406,0.824599459 3.6101512,0.749513434 L19.6240769,0.749513434 C25.49492,1.7874125 30.2036139,3.92502317 33.7501587,7.16234544 C37.2967034,10.3996677 40.0467116,15.0705429 42.000183,21.174971 L42.000183,52.8089627 C41.9776112,53.1599526 41.8752906,53.4406166 41.6932215,53.6509547 C41.5111523,53.8612928 41.2697569,53.977719 40.9690351,54.0002333 L2.33180257,54.0002333 C1.98289871,53.8320508 1.70563119,53.6153861 1.5,53.3502392 C1.29436881,53.0850922 1.15834788,52.7688888 1.0919372,52.4016289 L1.09234945,2.88707192 C1.09048351,2.38759566 1.34004887,1.92523835 1.84104551,1.5 Z" id="background" fill="#FFFFFF"></path>
        <path d="M21.75,18.75 C30.0303875,18.759369 36.7406315,25.469613 36.75,33.75 C36.75,42.034271 30.0342712,48.75 21.75,48.75 C13.4657287,48.75 6.75,42.034271 6.75,33.75 C6.75,25.465729 13.4657287,18.75 21.75,18.75 Z M22.2499974,19.7625 L22.2499974,20.25 C22.2499974,20.526143 22.0261423,20.75 21.7499974,20.75 C21.4738576,20.75 21.2499974,20.526143 21.2499974,20.25 L21.2499974,20.25 L21.2499974,19.7625 C19.9533864,19.806777 18.669313,20.031952 17.435,20.4315 L17.435,20.4315 L17.6025,20.891 C17.6951964,21.14992 17.5613906,21.435096 17.3030116,21.529289 C17.0446327,21.623483 16.7586874,21.49133 16.663,21.2335 L16.663,21.2335 L16.496,20.7745 C15.2948473,21.26348 14.1674139,21.916886 13.146,22.716 L13.146,22.716 L13.4555,23.085 C13.5702716,23.221922 13.6032778,23.409673 13.5420856,23.577529 C13.4808935,23.745385 13.3347994,23.867845 13.1588356,23.898779 C12.9828719,23.929713 12.8037715,23.864422 12.689,23.7275 L12.689,23.7275 L12.3785,23.3575 C11.4163811,24.22681 10.5788156,25.224721 9.8895,26.323 L9.8895,26.323 L10.3085,26.565 C10.4644753,26.653681 10.5609766,26.819137 10.561371,26.998559 C10.5617655,27.177982 10.4659926,27.34386 10.3104087,27.433226 C10.1548247,27.522592 9.9632852,27.521742 9.8085,27.431 L9.8085,27.431 L9.387,27.1875 C8.7767909,28.332455 8.3297905,29.557162 8.059,30.826 L8.059,30.826 L8.542,30.9115 C8.7975109,30.956261 8.9763573,31.18899 8.9538349,31.447412 C8.9313124,31.705835 8.7149018,31.904116 8.4555,31.904 C8.4261497,31.904023 8.3968595,31.901345 8.368,31.896 L8.368,31.896 L7.887,31.8115 C7.7043299,33.096038 7.7043299,34.399962 7.887,35.6845 L7.887,35.6845 L8.368,35.6 C8.6404144,35.551951 8.9002012,35.733836 8.94825,36.00625 C8.9962987,36.278665 8.8144144,36.538451 8.542,36.5865 L8.542,36.5865 L8.059,36.672 C9.4075077,42.943423 14.839623,47.500248 21.2499974,47.7375 L21.2499974,47.7375 L21.2499974,47.25 C21.2499974,46.973858 21.4738576,46.75 21.7499974,46.75 C22.0261423,46.75 22.2499974,46.973858 22.2499974,47.25 L22.2499974,47.25 L22.2499974,47.7375 C23.5467084,47.692576 24.830784,47.466727 26.065,47.0665 L26.065,47.0665 L25.8975,46.607 C25.8048035,46.34808 25.9386094,46.062905 26.1969883,45.968711 C26.4553672,45.874518 26.7413126,46.006671 26.837,46.2645 L26.837,46.2645 L27.004,46.7235 C28.2051527,46.23452 29.3325861,45.581114 30.354,44.782 L30.354,44.782 L30.0445,44.413 C29.9297284,44.276078 29.8967221,44.088327 29.9579143,43.920471 C30.0191065,43.752615 30.1652006,43.630155 30.3411643,43.599221 C30.5171281,43.568287 30.6962284,43.633578 30.811,43.7705 L30.811,43.7705 L31.1215,44.1405 C32.0836189,43.27119 32.9211843,42.273279 33.6105,41.175 L33.6105,41.175 L33.1915,40.933 C33.0355246,40.844319 32.9390234,40.678864 32.9386289,40.499441 C32.9382345,40.320018 33.0340073,40.15414 33.1895913,40.064774 C33.3451752,39.975408 33.5367148,39.976258 33.6915,40.067 L33.6915,40.067 L34.113,40.31 C34.7232075,39.165221 35.170209,37.940679 35.441,36.672 L35.441,36.672 L34.958,36.5865 C34.7788607,36.558888 34.6286931,36.436489 34.5655211,36.266599 C34.5023491,36.096709 34.5360664,35.905935 34.6536449,35.76799 C34.7712234,35.630046 34.9542484,35.566536 35.132,35.602 L35.132,35.602 L35.613,35.6865 C36.5098993,29.328818 32.9585352,23.17818 27.004,20.7765 L27.004,20.7765 L26.837,21.2355 C26.7765572,21.404329 26.6303321,21.527861 26.4537783,21.55925 C26.2772245,21.590638 26.0973813,21.525075 25.9824515,21.387425 C25.8675218,21.249775 25.835107,21.061118 25.8975,20.893 L25.8975,20.893 L26.065,20.4335 C24.830784,20.033273 23.5467084,19.807424 22.2499974,19.7625 L22.2499974,19.7625 Z M31.5759684,27.250318 L31.6735885,27.263679 C31.8026295,27.294533 31.9141167,27.37541 31.9835,27.4885 C34.2517123,31.191211 34.3418136,35.830636 32.2190766,39.618622 C30.0963396,43.406609 26.0922175,45.751685 21.75,45.7500776 C19.9423687,45.754652 18.1575873,45.346081 16.532,44.5555 C16.3712305,44.477616 16.2642239,44.319879 16.2512885,44.141707 C16.2383532,43.963534 16.3214544,43.791995 16.4692885,43.691707 C16.6171227,43.591418 16.8072305,43.577616 16.968,43.6555 C21.3617622,45.773813 26.6258088,44.745632 29.8995481,41.129691 C33.1732874,37.513751 33.6747782,32.173727 31.1315,28.0115 C30.9870715,27.776344 31.0604731,27.468639 31.2955,27.324 C31.4085344,27.254525 31.5445475,27.232826 31.6735885,27.263679 L31.5759684,27.250318 Z M21.75,21.7499042 C24.3937522,21.742452 26.9644615,22.617127 29.055,24.2355 C29.2738428,24.403947 29.3146968,24.717907 29.14625,24.93675 C28.9778031,25.155593 28.6638428,25.196447 28.445,25.028 C26.5291157,23.544605 24.1730198,22.742934 21.75,22.75 L21.75,22.749 L21.4617293,22.754027 C15.6185345,22.910825 10.9108252,27.618535 10.7540272,33.461729 L10.75,33.75 C10.7429336,36.17302 11.5446045,38.529116 13.028,40.445 C13.1964468,40.663843 13.1555928,40.977803 12.93675,41.14625 C12.7179071,41.314697 12.4039468,41.273843 12.2355,41.055 C10.6171268,38.964462 9.7424522,36.393752 9.74990368,33.75 C9.7577147,27.125781 15.1257812,21.757715 21.75,21.7499042 Z M25.27,35.176 L26.4140708,38.320313 L25.3292541,38.320313 L24.211,35.176 L25.27,35.176 Z M19.263,35.176 L18.145111,38.320313 L17.0602944,38.320313 L18.204,35.176 L19.263,35.176 Z M26.2757013,34.318667 L26.2757013,35.176558 L25.27,35.176 L24.958,34.318 L26.2757013,34.318667 Z M23.905,34.318 L24.211,35.176 L19.263,35.176 L19.568,34.318 L23.905,34.318 Z M18.516,34.318 L18.204,35.176 L17.1986638,35.176558 L17.1986638,34.318667 L18.516,34.318 Z M24.33,32.591 L24.958,34.318 L23.905,34.318 L23.291,32.591 L24.33,32.591 Z M20.183,32.591 L19.568,34.318 L18.516,34.318 L19.144,32.591 L20.183,32.591 Z M19.454,31.739 L19.144,32.591 L17.1986638,32.591816 L17.1986638,31.73946 L19.454,31.739 Z M26.2757013,31.73946 L26.2757013,32.591816 L24.33,32.591 L24.02,31.739 L26.2757013,31.73946 Z M22.2906605,26.985085 L24.02,31.739 L22.988,31.739 L23.291,32.591 L20.183,32.591 L20.486,31.739 L19.454,31.739 L21.1837047,26.985085 L22.2906605,26.985085 Z M21.775926,28.330037 L21.6984391,28.330037 L20.486,31.739 L22.988,31.739 L21.775926,28.330037 Z" id="coin" fill="#B700C0" fill-rule="nonzero"></path>
        <path d="M17.55,0 C31.8799455,0 43.5,11.4923616 43.5,25.6730769 L43.5,51.6346154 C43.5,53.7703877 41.7511698,55.5 39.6,55.5 L3.9,55.5 C1.74883021,55.5 0,53.7703877 0,51.6346154 L0,3.86538462 C0,1.7296123 1.74883021,0 3.9,0 L17.55,0 Z M3.9,1.5 C2.57356979,1.5 1.5,2.56177232 1.5,3.86538462 L1.5,51.6346154 C1.5,52.9382277 2.57356979,54 3.9,54 L39.6,54 C40.9264302,54 42,52.9382277 42,51.6346154 L42,26.711 L41.9961568,26.4535899 C41.8606804,21.9128102 38.1602348,18.2531705 33.561261,18.1191855 L33.3,18.1153846 L29.1,18.1153846 C26.9479333,18.1153846 25.2,16.3866594 25.2,14.25 L25.2,10.0961538 C25.2,5.35049562 21.3067211,1.5 16.5,1.5 L11.25,1.5 L3.9,1.5 Z M22.622,2.021 L22.7321317,2.10309341 C25.1454276,3.94921763 26.7,6.84242654 26.7,10.0961538 L26.7,14.25 C26.7,15.5544994 27.7726728,16.6153846 29.1,16.6153846 L33.3,16.6153846 C36.5850187,16.6153846 39.5083489,18.1528738 41.3741417,20.5412859 L41.476,20.675 L41.4635194,20.613345 C39.4625961,11.3248441 32.065171,4.00939913 22.6687969,2.03056707 L22.622,2.021 Z" id="document" fill="#000000" fill-rule="nonzero"></path>
    </g>
</svg>
