<svg viewBox="0 0 15 15" version="1.1" xmlns="http://www.w3.org/2000/svg" xmlns:xlink="http://www.w3.org/1999/xlink">
    <title>output</title>
    <g id="State" stroke="none" stroke-width="1" fill="none" fill-rule="evenodd">
        <g id="Bound-to-Live" transform="translate(-1086.000000, -12.000000)" fill="#000000" fill-rule="nonzero">
            <path d="M1100.11346,22.8897162 L1100.11346,24.7793646 C1100.11346,26.2910147 1096.69453,27.0059271 1093.52166,27.0059271 C1091.5424,27.0059271 1086.92986,26.6540213 1086.92986,24.6563407 C1088.1376,25.5827466 1090.34185,25.9175382 1091.91594,26.0343414 L1092.2033,26.0537787 L1092.2033,25.1748725 C1090.41951,25.059516 1086.92986,24.6500464 1086.92986,22.8897162 C1086.93867,22.8897162 1086.93867,22.8985282 1086.94749,22.8985282 C1088.65319,24.2053487 1092.30066,24.3323452 1093.41245,24.3395497 L1093.63096,24.3395493 C1094.74444,24.3323347 1098.41626,24.2050449 1100.11346,22.8897162 Z M1093.96111,25.2188178 L1093.08221,25.2188178 L1093.08221,26.097724 L1093.96111,26.097724 L1093.96111,25.2188178 Z M1100.11346,19.3740912 L1100.11346,21.2637396 C1100.11346,23.0039283 1095.798,23.4610053 1093.52166,23.4610053 C1091.59024,23.4610053 1086.92986,23.1358786 1086.92986,21.1407157 C1088.1376,22.0671216 1090.34185,22.4019132 1091.91594,22.5187164 L1092.2033,22.5381537 L1092.2033,21.6592475 C1090.41951,21.543891 1086.92986,21.1344214 1086.92986,19.3740912 C1086.93867,19.3740912 1086.93867,19.3829032 1086.94749,19.3829032 C1088.31883,20.5254813 1091.70972,20.8242865 1093.52166,20.8242865 C1095.49966,20.8242865 1098.46768,20.549285 1100.11346,19.3740912 Z M1093.96111,21.7031928 L1093.08221,21.7031928 L1093.08221,22.582099 L1093.96111,22.582099 L1093.96111,21.7031928 Z M1100.11346,15.8496543 L1100.11346,17.7481146 C1100.11346,19.4883033 1095.798,19.9453803 1093.52166,19.9453803 C1091.30368,19.9453803 1087.14983,19.5114426 1086.93827,17.8794584 L1086.92986,17.7481146 L1086.92986,17.6250907 C1088.1376,18.5514966 1090.34185,18.8862882 1091.91594,19.0030914 L1092.2033,19.0225287 L1092.2033,18.1436225 C1090.38987,18.0263205 1086.92986,17.621543 1086.92986,15.8496543 C1086.93867,15.8496543 1086.93867,15.8584662 1086.94749,15.8584662 C1088.3368,17.0160361 1091.70399,17.3086615 1093.52166,17.3086615 C1095.54188,17.3086615 1098.45967,17.0319434 1100.11346,15.8496543 Z M1093.96111,18.1875678 L1093.08221,18.1875678 L1093.08221,19.066474 L1093.96111,19.066474 L1093.96111,18.1875678 Z M1093.52166,12.0059271 C1096.69648,12.0059271 1100.11346,12.7227851 1100.11346,14.2324896 C1100.11346,15.7421942 1096.69648,16.4297553 1093.52166,16.4297553 C1090.34684,16.4297553 1086.92986,15.7421942 1086.92986,14.2324896 C1086.92986,12.7227851 1090.34684,12.0059271 1093.52166,12.0059271 Z" id="output"></path>
        </g>
    </g>
</svg>
