<?xml version="1.0" encoding="UTF-8"?>
<svg  viewBox="0 0 5 19" version="1.1" xmlns="http://www.w3.org/2000/svg" xmlns:xlink="http://www.w3.org/1999/xlink">
    <title>Combined Shape</title>
    <g id="State" stroke="none" stroke-width="1" fill="none" fill-rule="evenodd">
        <g id="Bound-to-Live" transform="translate(-1290.000000, -10.000000)" fill="#000000" fill-rule="nonzero">
            <path d="M1290.04525,19.5059271 C1290.04525,20.7146195 1291.02886,21.6982348 1292.23755,21.6982348 C1293.44625,21.6982348 1294.42986,20.7146195 1294.42986,19.5059271 C1294.42986,18.2972348 1293.44625,17.3136195 1292.23755,17.3136195 C1291.02886,17.3136195 1290.04525,18.2972348 1290.04525,19.5059271 Z M1290.04525,26.8136195 C1290.04525,28.0223118 1291.02886,29.0059271 1292.23755,29.0059271 C1293.44625,29.0059271 1294.42986,28.0223118 1294.42986,26.8136195 C1294.42986,25.6049271 1293.44625,24.6213118 1292.23755,24.6213118 C1291.02886,24.6213118 1290.04525,25.6049271 1290.04525,26.8136195 Z M1290.04525,12.1982348 C1290.04525,13.4069271 1291.02886,14.3905425 1292.23755,14.3905425 C1293.44625,14.3905425 1294.42986,13.4069271 1294.42986,12.1982348 C1294.42986,10.9895425 1293.44625,10.0059271 1292.23755,10.0059271 C1291.02886,10.0059271 1290.04525,10.9895425 1290.04525,12.1982348 Z" id="Combined-Shape"></path>
        </g>
    </g>
</svg>
