<?xml version="1.0" encoding="UTF-8"?>
<svg width="11px" height="11px" viewBox="0 0 11 11" version="1.1" xmlns="http://www.w3.org/2000/svg" xmlns:xlink="http://www.w3.org/1999/xlink">
    <title>external</title>
    <g id="State" stroke="none" stroke-width="1" fill="none" fill-rule="evenodd">
        <g id="Bound-to-Live" transform="translate(-318.000000, -162.000000)" fill="#000000" fill-rule="nonzero">
            <g id="Menu" transform="translate(20.363542, 26.000000)">
                <path d="M308.564734,142.007102 L308.564734,145.807953 C308.564734,146.465333 308.029657,147 307.372277,147 L298.829051,147 C298.171467,147 297.636458,146.465333 297.636458,145.807953 L297.636458,137.273992 C297.636458,136.61668 298.171467,136.081877 298.829051,136.081877 L302.640123,136.081877 C302.434942,136.292361 302.298595,136.570131 302.268663,136.878722 L298.828915,136.878722 C298.610805,136.878722 298.433372,137.056041 298.433372,137.273992 L298.433372,145.807953 C298.433372,146.025904 298.610828,146.203246 298.828915,146.203246 L307.372164,146.203246 C307.590251,146.203246 307.767729,146.025904 307.767729,145.807953 L307.767729,142.378016 C308.067625,142.349244 308.345987,142.220227 308.564734,142.007102 Z M303.933508,137.195484 L306.538807,137.195484 L302.321722,141.412683 C302.088293,141.645976 302.088293,142.024583 302.321722,142.257899 C302.555083,142.491328 302.933554,142.491328 303.166915,142.258035 L307.384,138.040813 L307.384,140.646249 C307.384,140.97635 307.651595,141.2439 307.981765,141.2439 C308.146724,141.2439 308.296182,141.177228 308.404372,141.068925 C308.51254,140.960484 308.579393,140.811277 308.579393,140.646249 L308.579393,136.597651 C308.579393,136.26755 308.311957,136 307.981765,136 L303.933508,136 C303.603476,136 303.335857,136.26755 303.335857,136.597787 C303.335721,136.927889 303.603476,137.195484 303.933508,137.195484 Z" id="external"></path>
            </g>
        </g>
    </g>
</svg>