<svg viewBox="0 0 22 21" version="1.1" xmlns="http://www.w3.org/2000/svg" xmlns:xlink="http://www.w3.org/1999/xlink">
    <title>Shape</title>
    <g id="State" stroke="none" stroke-width="1" fill="none" fill-rule="evenodd">
        <g id="Bound-to-Live" transform="translate(-1254.000000, -11.000000)" fill="#000000" fill-rule="nonzero">
            <path d="M1269.75793,20.2754145 L1268.98664,18.7328364 L1268.04262,21.564477 L1265.46449,21.564477 L1263.76594,26.6601411 L1261.0675,19.9136176 L1260.24207,21.564477 L1255.05145,21.564477 C1256.40969,23.7967036 1259.23402,26.1952192 1264.3718,30.5582661 L1264.99914,31.0910786 L1265.41594,30.7383051 C1270.56273,26.3872895 1274.2993,23.6463129 1275.54668,20.2754145 L1269.75793,20.2754145 Z M1270.15625,11.251977 C1267.91414,11.251977 1265.96508,12.530727 1265,14.3968598 C1264.03492,12.530727 1262.08586,11.251977 1259.84375,11.251977 C1256.30871,11.251977 1254,14.1063911 1254,17.7269379 C1254,18.6542036 1254.12762,19.4766254 1254.42195,20.2754145 L1259.44543,20.2754145 L1261.19812,16.7700239 L1263.65594,22.9141254 L1264.53551,20.2754145 L1267.11363,20.2754145 L1268.74773,15.3726801 L1270.55457,18.986352 L1275.8943,18.986352 C1275.96434,18.5794379 1276,18.1609223 1276,17.7269379 C1276,14.1068208 1273.69129,11.251977 1270.15625,11.251977 L1270.15625,11.251977 Z" id="Shape"></path>
        </g>
    </g>
</svg>
