<?xml version="1.0" encoding="UTF-8"?>
<svg viewBox="0 0 24 16" version="1.1" xmlns="http://www.w3.org/2000/svg" xmlns:xlink="http://www.w3.org/1999/xlink">
    <title>logo</title>
    <g id="Page-1" stroke="none" stroke-width="1" fill="none" fill-rule="evenodd">
        <path d="M12.0348837,11.8536998 L12.089,11.8549091 L10.2517908,14.4411015 L10.1690245,14.566667 C9.95071663,14.9250657 9.86209271,15.3141102 9.88069881,15.6902855 L1.91860465,15.6909091 C0.858988561,15.6909091 -3.63784904e-12,14.8319205 -3.63797881e-12,13.7723044 C-3.63763801e-12,12.7126883 0.858988561,11.8536998 1.91860465,11.8536998 L12.0348837,11.8536998 Z M14.8809453,11.3816456 L16.8329843,12.6146793 L17.4735796,15.6 L11.8818075,15.6 L14.8809453,11.3816456 Z M16.884972,9.71392405 L19.5337062,11.6288491 L17.9733955,15.1094937 L17.1052233,10.8061418 L16.884972,9.71392405 Z M14.6102779,3.14113924 L16.0243642,9.11350022 L16.5906682,11.7740506 L14.9367287,10.7212399 L6.97674419,4.9950016 L14.6102779,3.14113924 Z M21.7900353,7.16329114 L20.615303,9.70672951 L20.0228813,10.9892405 L17.2773771,9.06299021 L21.7900353,7.16329114 Z M5.4342518,6.27282905 C5.50473708,6.3566025 5.5836257,6.43623206 5.6711078,6.5107431 L5.80879983,6.61854894 L10.659,10.1089091 L1.91860465,10.1095137 C0.858988561,10.1095137 -3.63784904e-12,9.25052518 -3.63797881e-12,8.19090909 C-3.63810857e-12,7.131293 0.858988561,6.27230444 1.91860465,6.27230444 L5.4342518,6.27282905 Z M15.413453,3.33734177 L20.4166176,6.95724719 L16.6261192,8.53670886 L15.413453,3.33734177 Z M22.0843391,3.14113924 L22.0843391,6.27444429 L21.1019499,6.67278481 L19.2394024,5.36170851 L20.4464345,3.68301209 L22.0843391,3.14113924 Z M22.771048,3.8278481 L23.6539594,4.80886076 L22.771048,4.80886076 L22.771048,3.8278481 Z M1.91860465,0.690909091 L6.04434096,0.691251618 C6.08124391,0.808565195 6.1298813,0.924697902 6.19094545,1.03835856 L6.29194826,1.20683411 L7.37595938,2.84 L6.50474853,3.05149444 L6.35270038,3.09437958 C5.64166101,3.32376257 5.18410627,3.89033982 5.03186503,4.52846483 L1.91860465,4.52811839 C0.858988561,4.52811839 -3.63784904e-12,3.66912983 -3.63797881e-12,2.60951374 C-3.63763801e-12,1.54989765 0.858988561,0.690909091 1.91860465,0.690909091 Z M15.6379777,0.1 L17.8659847,4.31835443 L15.0556794,2.2993384 C14.9902411,2.25198631 14.9120991,2.23591106 14.8372068,2.25460728 L10.1501642,3.39961915 L7.95775684,0.1 L15.6379777,0.1 Z" id="logo" fill="#000000"></path>
    </g>
</svg>
