<?xml version="1.0" encoding="UTF-8"?>
<svg viewBox="0 0 17 21" version="1.1" xmlns="http://www.w3.org/2000/svg" xmlns:xlink="http://www.w3.org/1999/xlink">
    <title>Combined Shape</title>
    <g id="State" stroke="none" stroke-width="1" fill="none" fill-rule="evenodd">
        <g id="Bound-to-Live" transform="translate(-374.000000, -379.000000)" fill="#000000" fill-rule="nonzero">
            <path d="M385.844582,379.55228 L390.844582,384.55228 L390.844582,397.88553 C390.844582,398.80703 390.097582,399.55228 389.178082,399.55228 L389.178082,399.55228 L375.844582,399.55228 C374.924082,399.55228 374.178082,398.80528 374.178082,397.88553 L374.178082,397.88553 L374.178082,381.21903 C374.178082,380.29753 374.924082,379.55228 375.844582,379.55228 L375.844582,379.55228 L385.844582,379.55228 Z M384.178082,381.21903 L375.844582,381.21903 L375.844582,397.88553 L389.178082,397.88553 L389.178082,386.21903 L385.844582,386.21903 C384.924082,386.21903 384.178082,385.47203 384.178082,384.55228 L384.178082,384.55228 L384.178082,381.21903 Z M380.844582,387.88553 L380.844582,389.13553 L380.011332,389.13553 C379.781082,389.13553 379.594582,389.32203 379.594582,389.55228 L379.594582,394.55228 C379.594582,394.78178 379.781082,394.96903 380.011332,394.96903 L380.844582,394.96903 L380.844582,396.21903 L380.011332,396.21903 C379.090832,396.21903 378.344582,395.47203 378.344582,394.55228 L378.344582,389.55228 C378.344582,388.63178 379.090832,387.88553 380.011332,387.88553 L380.844582,387.88553 Z M385.011332,387.88553 C385.931082,387.88553 386.678082,388.63253 386.678082,389.55228 L386.678082,394.55228 C386.678082,395.47278 385.931082,396.21903 385.011332,396.21903 L384.178082,396.21903 L384.178082,394.96903 L385.011332,394.96903 C385.240832,394.96903 385.428082,394.78253 385.428082,394.55228 L385.428082,389.55228 C385.428082,389.32278 385.240832,389.13553 385.011332,389.13553 L384.178082,389.13553 L384.178082,387.88553 L385.011332,387.88553 Z M385.844582,381.90903 L385.844582,384.55228 L388.487832,384.55228 L385.844582,381.90903 Z" id="Combined-Shape"></path>
        </g>
    </g>
</svg>
