<?xml version="1.0" encoding="UTF-8"?>
<svg viewBox="0 0 17 17" version="1.1" xmlns="http://www.w3.org/2000/svg" xmlns:xlink="http://www.w3.org/1999/xlink">
    <title>finder</title>
    <g id="State" stroke="none" stroke-width="1" fill="none" fill-rule="evenodd">
        <g id="Bound-to-Live" transform="translate(-215.000000, -11.000000)" fill="#000000" fill-rule="nonzero">
            <path d="M220.283706,13.8696894 C222.814981,11.3383623 226.933729,11.3383623 229.465056,13.8696894 C231.99628,16.4010166 231.996332,20.5198158 229.465056,23.0511429 C227.31757,25.1986295 224.123709,25.5238142 221.629699,24.0277277 C221.629699,24.0277277 221.449453,23.9202606 221.29735,24.0723639 L221.29735,24.0723639 L218.97267,26.397029 C218.87997,26.48973 218.790929,26.5787719 218.706903,26.6627993 L217.992002,27.3777119 C217.332767,28.0369982 216.41087,28.193895 215.826218,27.6091399 L215.826218,27.6091399 L215.725554,27.5085796 C215.140902,26.9238245 215.297851,26.0019784 215.957137,25.3427437 L215.957137,25.3427437 L218.579468,22.7203924 C218.671615,22.6282462 218.75996,22.5399033 218.843143,22.4567219 L219.269443,22.0304374 C219.414588,21.8853954 219.307121,21.7050981 219.307121,21.7050981 C217.810983,19.2110366 218.136219,16.017176 220.283706,13.8696894 Z M228.266373,15.0684244 C226.396033,13.1980329 223.352729,13.1980844 221.482338,15.0684244 C219.611946,16.938816 219.611895,19.9821195 221.482286,21.852511 C223.352729,23.7227995 226.395981,23.7227995 228.266373,21.852511 C230.136764,19.9821195 230.136764,16.9387644 228.266373,15.0684244 Z M226.808377,14.9029199 C227.149127,15.0471372 227.30855,15.440307 227.164332,15.7811092 C227.020064,16.1219113 226.626997,16.2812307 226.286092,16.137065 C224.824642,15.5186523 223.132383,16.2045347 222.514022,17.6659843 C222.405833,17.9215859 222.157705,18.0751324 221.89664,18.0751324 C221.809584,18.0751324 221.721085,18.0580202 221.635781,18.0219916 C221.295031,17.8777744 221.135608,17.4846045 221.279825,17.1438024 C222.18626,15.0017278 224.666354,13.9964851 226.808377,14.9029199 Z" id="finder"></path>
        </g>
    </g>
</svg>
