<?xml version="1.0" encoding="UTF-8"?>
<svg width="22px" height="21px" viewBox="0 0 22 21" version="1.1" xmlns="http://www.w3.org/2000/svg" xmlns:xlink="http://www.w3.org/1999/xlink">
    <title>timetravel</title>
    <g id="Toolbar-Screens" stroke="none" stroke-width="1">
        <g id="Input-Copy" transform="translate(-286.000000, -75.000000)" >
            <path d="M301.882379,75.6343165 C302.399525,75.6343165 302.820288,76.0550801 302.820288,76.572267 L302.820288,76.572267 L302.820288,77.8770779 C302.820288,78.394223 302.399525,78.8149866 301.882379,78.8149866 L301.882379,78.8149866 L301.500453,78.8149866 L301.500453,79.7427675 C302.512353,79.9709776 303.452438,80.3904858 304.280908,80.9611156 L304.280908,80.9611156 L304.908622,80.3334018 C305.090043,80.1519805 305.331269,80.0520418 305.587895,80.0520418 C305.844438,80.0520418 306.085705,80.1519805 306.267127,80.3334018 L306.267127,80.3334018 L306.986074,81.0523494 C307.167537,81.2337708 307.267476,81.4750382 307.267476,81.7316228 C307.267476,81.9882074 307.167537,82.2294748 306.986032,82.4108962 L306.986032,82.4108962 L306.358361,83.0385681 C307.250443,84.3337952 307.773615,85.9018868 307.773615,87.590089 C307.773615,92.0256844 304.164982,95.6343165 299.729387,95.6343165 C296.394164,95.6343165 293.526743,93.5939434 292.309191,90.6959725 L292.309191,90.6959725 L288.438701,90.6959725 C288.207603,90.6959725 288.020197,90.5086084 288.020197,90.2774688 C288.020197,90.0463292 288.207603,89.8589651 288.438701,89.8589651 L288.438701,89.8589651 L292.011509,89.8589651 C291.859341,89.3422386 291.757686,88.8042102 291.712446,88.2503623 L291.712446,88.2503623 L289.024606,88.2503623 C288.793508,88.2503623 288.606102,88.0629982 288.606102,87.8318586 C288.606102,87.600719 288.793508,87.4133549 289.024606,87.4133549 L289.024606,87.4133549 L291.68742,87.4133549 C291.699389,86.8618088 291.767103,86.3238641 291.885163,85.8047521 L291.885163,85.8047521 L286.764686,85.8047521 C286.533588,85.8047521 286.346182,85.617388 286.346182,85.3862484 C286.346182,85.1551088 286.533588,84.9677447 286.764686,84.9677447 L286.764686,84.9677447 L292.124421,84.9677447 C292.320658,84.4001699 292.578832,83.8613882 292.89066,83.3591419 L292.89066,83.3591419 L289.6175,83.3591419 C289.386402,83.3591419 289.198996,83.1717778 289.198996,82.9406382 C289.198996,82.7094986 289.386402,82.5221345 289.6175,82.5221345 L289.6175,82.5221345 L292.584022,82.5221345 L292.472742,82.4108543 C292.098223,82.0362935 292.098223,81.4268684 292.472742,81.0523075 L292.472742,81.0523075 L293.191689,80.33336 C293.373111,80.1519386 293.614336,80.0519999 293.870963,80.0519999 C294.127505,80.0519999 294.368773,80.1519386 294.550194,80.33336 L294.550194,80.33336 L295.177908,80.9610737 C296.003072,80.3927038 296.938972,79.9741582 297.946226,79.7453204 L297.946226,79.7453204 L297.946226,78.8149448 L297.564342,78.8149448 C297.047197,78.8149448 296.626433,78.3941811 296.626433,77.8770361 L296.626433,77.8770361 L296.626433,76.572267 C296.626433,76.0550801 297.047197,75.6343165 297.564342,75.6343165 L297.564342,75.6343165 Z M299.729387,80.3828271 C295.755318,80.3828271 292.522167,83.6159777 292.522167,87.5900472 C292.522167,91.5641167 295.755318,94.7972672 299.729387,94.7972672 C303.703457,94.7972672 306.936607,91.5641167 306.936607,87.5900472 C306.936607,83.6159777 303.703457,80.3828271 299.729387,80.3828271 Z M299.729513,93.0158642 C299.839579,93.0158642 299.947553,93.0606441 300.025353,93.1384858 C300.103236,93.2163275 300.148016,93.3243015 300.148016,93.434368 C300.148016,93.5444344 300.103195,93.6524084 300.025353,93.7302501 C299.947553,93.8085103 299.839579,93.8528717 299.729513,93.8528717 C299.619446,93.8528717 299.511472,93.8085103 299.43363,93.7302501 C299.355747,93.6524084 299.311009,93.5448529 299.311009,93.434368 C299.311009,93.3243015 299.355789,93.2163275 299.43363,93.1384858 C299.511472,93.0606441 299.619446,93.0158642 299.729513,93.0158642 Z M303.862237,91.304184 C303.972303,91.304184 304.080277,91.3489639 304.158077,91.4268056 C304.235961,91.5046473 304.280741,91.6126213 304.280741,91.7226877 C304.280741,91.8327542 304.235919,91.9407282 304.158077,92.0185699 C304.080277,92.0964116 303.972303,92.1411915 303.862237,92.1411915 C303.75171,92.1411915 303.644196,92.0964116 303.565936,92.0185699 C303.488095,91.9407282 303.443733,91.8327542 303.443733,91.7226877 C303.443733,91.6126213 303.488095,91.5046473 303.565936,91.4268056 C303.644196,91.3489639 303.75171,91.304184 303.862237,91.304184 Z M295.596788,91.304184 C295.706855,91.304184 295.814829,91.3489639 295.892629,91.4268056 C295.970512,91.5046473 296.015292,91.6126213 296.015292,91.7226877 C296.015292,91.8327542 295.97047,91.9407282 295.892629,92.0185699 C295.814829,92.0964116 295.706855,92.1411915 295.596788,92.1411915 C295.486722,92.1411915 295.37879,92.0964116 295.300906,92.0185699 C295.223023,91.9407282 295.178285,91.8327542 295.178285,91.7226877 C295.178285,91.6126213 295.223065,91.5046473 295.300906,91.4268056 C295.378748,91.3489639 295.486722,91.304184 295.596788,91.304184 Z M286.764686,89.8590906 C286.874752,89.8590906 286.982726,89.903452 287.060526,89.9812937 C287.13841,90.0591354 287.183189,90.1671094 287.183189,90.2775944 C287.183189,90.3876609 287.138368,90.4956348 287.060526,90.5734765 C286.982726,90.6513182 286.874752,90.6960981 286.764686,90.6960981 C286.654619,90.6960981 286.546645,90.6513182 286.468804,90.5734765 C286.39092,90.4952163 286.346182,90.3876609 286.346182,90.2775944 C286.346182,90.1671094 286.390962,90.0595539 286.468804,89.9812937 C286.546645,89.903452 286.654619,89.8590906 286.764686,89.8590906 Z M302.491637,84.2359072 C302.655105,84.0724815 302.920018,84.0724815 303.083485,84.2359072 C303.246911,84.3993748 303.246911,84.6643713 303.083485,84.827797 L303.083485,84.827797 L301.105176,86.806106 C301.237507,87.0374548 301.313591,87.3049624 301.313591,87.5900472 C301.313591,88.46359 300.60293,89.1742512 299.729387,89.1742512 C298.855844,89.1742512 298.145183,88.46359 298.145183,87.5900472 C298.145183,86.7164625 298.855844,86.0058013 299.729387,86.0058013 C300.014472,86.0058013 300.281979,86.0818853 300.513328,86.2142162 L300.513328,86.2142162 Z M299.729387,86.8428506 C299.317412,86.8428506 298.982191,87.1780721 298.982191,87.590089 C298.982191,88.0021059 299.31737,88.3372856 299.729387,88.3372856 C300.141404,88.3372856 300.476584,88.0021059 300.476584,87.590089 C300.476584,87.1780721 300.141362,86.8428506 299.729387,86.8428506 Z M293.885108,87.1714597 C293.995175,87.1714597 294.103149,87.2162396 294.18099,87.2940813 C294.258832,87.371923 294.303612,87.479897 294.303612,87.5899635 C294.303612,87.7000299 294.25879,87.8080039 294.18099,87.8858456 C294.103149,87.9641058 293.995175,88.0084672 293.885108,88.0084672 C293.774665,88.0084672 293.667068,87.9641058 293.589226,87.8858456 C293.511008,87.8080039 293.466604,87.7000299 293.466604,87.5899635 C293.466604,87.479897 293.511008,87.371923 293.589226,87.2940813 C293.667068,87.2162396 293.774623,87.1714597 293.885108,87.1714597 Z M305.573917,87.1714597 C305.683984,87.1714597 305.791958,87.2162396 305.869799,87.2940813 C305.947641,87.3719649 305.992379,87.479897 305.992421,87.5899635 C305.992421,87.7000299 305.947641,87.8080039 305.869799,87.8858456 C305.791958,87.9636873 305.683984,88.0084672 305.573917,88.0084672 C305.463851,88.0084672 305.355877,87.9636873 305.278077,87.8858456 C305.200193,87.8080039 305.155413,87.7004484 305.155413,87.5899635 C305.155413,87.479897 305.200235,87.371923 305.278077,87.2940813 C305.355877,87.2162396 305.463432,87.1714597 305.573917,87.1714597 Z M301.424082,81.5674614 L301.507358,81.5832214 C302.50097,81.8768854 303.415861,82.4209821 304.153181,83.1567117 C304.890375,83.8923575 305.436439,84.8059511 305.732321,85.7987257 C305.798319,86.0202397 305.672224,86.2533044 305.450751,86.3193025 C305.410868,86.3311461 305.370608,86.3367961 305.331059,86.3367961 C305.150768,86.3367961 304.984287,86.2193638 304.930175,86.0377331 C304.404241,84.2729866 303.035985,82.9077857 301.27015,82.3858697 C301.048469,82.3203738 300.921872,82.0875602 300.987409,81.8659206 C301.052947,81.6442811 301.285761,81.5176837 301.507358,81.5832214 Z M295.596788,83.0387355 C295.706855,83.0387355 295.814829,83.0835154 295.892629,83.1613571 C295.970512,83.2396173 296.015292,83.3471727 296.015292,83.4572392 C296.015292,83.5677242 295.97047,83.6752796 295.892629,83.7535398 C295.814829,83.8313815 295.706855,83.8757429 295.596788,83.8757429 C295.486722,83.8757429 295.378748,83.8313815 295.300906,83.7535398 C295.223023,83.6752796 295.178285,83.5677242 295.178285,83.4572392 C295.178285,83.3471727 295.223065,83.2391987 295.300906,83.1613571 C295.378748,83.0835154 295.486722,83.0387355 295.596788,83.0387355 Z M305.587895,80.8890492 C305.564501,80.8890492 305.530393,80.8953268 305.50047,80.9252498 L305.50047,80.9252498 L304.950263,81.4754985 C305.27092,81.7497021 305.569816,82.0485975 305.844019,82.3692551 L305.844019,82.3692551 L306.394226,81.8190482 C306.424191,81.7891252 306.430469,81.7549753 306.430469,81.7316228 C306.430469,81.7082703 306.424191,81.6741204 306.394268,81.6441974 L306.394268,81.6441974 L305.675321,80.9252498 C305.645398,80.8953268 305.611248,80.8890492 305.587895,80.8890492 Z M293.870921,80.8890074 C293.847526,80.8890074 293.813418,80.8952849 293.783495,80.925208 L293.783495,80.925208 L293.064548,81.6441555 C293.016336,81.6923671 293.016336,81.7708366 293.064548,81.8190064 L293.064548,81.8190064 L293.614797,82.3692132 C293.889,82.0485557 294.187896,81.7496603 294.508553,81.4754567 L294.508553,81.4754567 L293.958346,80.925208 C293.928423,80.8952849 293.894273,80.8890074 293.870921,80.8890074 Z M299.729513,81.3270971 C299.839579,81.3270971 299.947553,81.371877 300.025353,81.4497187 C300.103236,81.5275604 300.148016,81.6355343 300.148016,81.7456008 C300.148016,81.8556673 300.103195,81.9636412 300.025353,82.0414829 C299.947553,82.1193246 299.839579,82.1641045 299.729513,82.1641045 C299.619446,82.1641045 299.511514,82.1193246 299.43363,82.0414829 C299.355747,81.9636412 299.311009,81.8560858 299.311009,81.7456008 C299.311009,81.6355343 299.355789,81.5275604 299.43363,81.4497187 C299.511472,81.371877 299.619446,81.3270971 299.729513,81.3270971 Z M300.663446,78.8149866 L298.783276,78.8149866 L298.783276,79.6017736 C299.093722,79.5652383 299.409315,79.5458615 299.729429,79.5458615 C300.045357,79.5458615 300.356892,79.5647779 300.663446,79.6003926 L300.663446,79.6003926 L300.663446,78.8149866 Z M301.882379,76.4713239 L297.564342,76.4713239 C297.508723,76.4713239 297.463441,76.516606 297.463441,76.572267 L297.463441,76.572267 L297.463441,77.8770779 C297.463441,77.9326971 297.508723,77.9779792 297.564342,77.9779374 L297.564342,77.9779374 L301.882379,77.9779374 C301.937999,77.9779374 301.983281,77.9326971 301.983281,77.8770361 L301.983281,77.8770361 L301.983281,76.572267 C301.983281,76.516606 301.937999,76.4713239 301.882379,76.4713239 L301.882379,76.4713239 Z" id="timetravel" transform="translate(297.059898, 85.634316) scale(-1, 1) translate(-297.059898, -85.634316) "></path>
        </g>
    </g>
</svg>
