<?xml version="1.0" encoding="UTF-8"?>
<svg width="18px" height="18px" viewBox="0 0 18 18" version="1.1" xmlns="http://www.w3.org/2000/svg" xmlns:xlink="http://www.w3.org/1999/xlink">
    <title>Combined Shape</title>
    <g id="State" stroke="none" stroke-width="1" fill="none" fill-rule="evenodd">
        <g id="Bound-to-Live" transform="translate(-374.000000, -350.000000)" fill="#000000" fill-rule="nonzero">
            <path d="M389.683941,350.55228 C390.507811,350.55228 391.178082,351.222552 391.178082,352.046421 L391.178082,352.046421 L391.178082,366.058139 C391.178082,366.882009 390.507811,367.55228 389.683941,367.55228 L389.683941,367.55228 L375.672223,367.55228 C374.848354,367.55228 374.178082,366.882009 374.178082,366.058139 L374.178082,366.058139 L374.178082,352.046421 C374.178082,351.222552 374.848354,350.55228 375.672223,350.55228 L375.672223,350.55228 Z M390.181988,355.532749 L375.174176,355.532749 L375.174176,366.058139 C375.174176,366.332762 375.3976,366.556186 375.672223,366.556186 L375.672223,366.556186 L389.683941,366.556186 C389.958565,366.556186 390.181988,366.332762 390.181988,366.058139 L390.181988,366.058139 L390.181988,355.532749 Z M383.201695,357.898704 C383.288688,357.637761 383.570648,357.49668 383.831691,357.583706 C384.092635,357.670665 384.233648,357.952725 384.14669,358.213702 L384.14669,358.213702 L382.154502,364.190264 C382.067543,364.451175 381.785516,364.592255 381.524506,364.505262 C381.263563,364.41827 381.122516,364.13621 381.209508,363.875266 L381.209508,363.875266 Z M379.337615,358.700095 C379.532119,358.505591 379.847482,358.505591 380.041953,358.700095 C380.236457,358.894598 380.236457,359.209962 380.041953,359.404466 L380.041953,359.404466 L378.401951,361.044468 L380.041953,362.68447 C380.236457,362.878973 380.236457,363.194303 380.041953,363.388807 C379.847449,363.583311 379.532086,363.583278 379.337615,363.388807 L379.337615,363.388807 L377.345428,361.39662 C377.150924,361.202116 377.150924,360.886786 377.345428,360.692282 L377.345428,360.692282 Z M385.314178,358.700095 C385.508682,358.505591 385.824045,358.505591 386.018516,358.700095 L386.018516,358.700095 L388.010736,360.692282 C388.20524,360.886786 388.20524,361.202116 388.010736,361.39662 L388.010736,361.39662 L386.018549,363.388807 C385.824045,363.583311 385.508682,363.583278 385.314211,363.388807 C385.119707,363.194303 385.119707,362.878973 385.314211,362.68447 L385.314211,362.68447 L386.954213,361.044468 L385.314178,359.404432 C385.119674,359.209928 385.119674,358.894598 385.314178,358.700095 Z M389.683941,351.548374 L375.672223,351.548374 C375.3976,351.548374 375.174176,351.771798 375.174176,352.046421 L375.174176,352.046421 L375.174176,354.536655 L390.181988,354.536655 L390.181988,352.046421 C390.181988,351.771798 389.958565,351.548374 389.683941,351.548374 L389.683941,351.548374 Z M377.697613,352.544468 C377.972668,352.544468 378.19566,352.76746 378.19566,353.042514 C378.19566,353.317569 377.972668,353.540561 377.697613,353.540561 L377.697613,353.540561 L376.70152,353.540561 C376.426465,353.540561 376.203473,353.317569 376.203473,353.042514 C376.203473,352.76746 376.426465,352.544468 376.70152,352.544468 L376.70152,352.544468 Z M380.685895,352.544468 C380.960949,352.544468 381.183941,352.76746 381.183941,353.042514 C381.183941,353.317569 380.960949,353.540561 380.685895,353.540561 L380.685895,353.540561 L379.689801,353.540561 C379.414746,353.540561 379.191754,353.317569 379.191754,353.042514 C379.191754,352.76746 379.414746,352.544468 379.689801,352.544468 L379.689801,352.544468 Z M383.674176,352.544468 C383.949231,352.544468 384.172223,352.76746 384.172223,353.042514 C384.172223,353.317569 383.949231,353.540561 383.674176,353.540561 L383.674176,353.540561 L382.678082,353.540561 C382.403027,353.540561 382.180035,353.317569 382.180035,353.042514 C382.180035,352.76746 382.403027,352.544468 382.678082,352.544468 L382.678082,352.544468 Z" id="Combined-Shape"></path>
        </g>
    </g>
</svg>