<?xml version="1.0" encoding="UTF-8"?>
<svg width="25px" height="20px" viewBox="0 0 25 20" version="1.1" xmlns="http://www.w3.org/2000/svg" xmlns:xlink="http://www.w3.org/1999/xlink">
    <title>exit</title>
    <g id="PageState-Generator" stroke="none" stroke-width="1" fill="none" fill-rule="evenodd">
        <g id="Artboard-Copy" transform="translate(-1339.000000, -55.000000)" fill="#000000" fill-rule="nonzero">
            <g id="Group-7-Copy-2" transform="translate(1328.809653, 46.500000)">
                <path d="M27.8251936,9 C28.395927,9 28.8572742,9.3546536 28.8572742,9.79168986 L28.8572742,9.79168986 L28.8572742,14.5416806 C28.8572742,14.9786797 28.395927,15.3333333 27.8251936,15.3333333 C27.2544602,15.3333333 26.793113,14.9786797 26.793113,14.5416806 L26.793113,14.5416806 L26.793113,10.5833426 L18.3443528,10.5833426 L21.928841,11.4082453 C22.3654179,11.5087744 22.6647421,11.8175238 22.6647421,12.1666481 L22.6647421,12.1666481 L22.6647421,24.8333148 L26.793113,24.8333148 L26.793113,20.8749768 C26.793113,20.4379777 27.2544602,20.0833241 27.8251936,20.0833241 C28.395927,20.0833241 28.8572742,20.4379777 28.8572742,20.8749768 L28.8572742,20.8749768 L28.8572742,25.6250046 C28.8572742,26.0620038 28.395927,26.4166574 27.8251936,26.4166574 L27.8251936,26.4166574 L22.6646937,26.4166574 L22.6646937,27.2083101 C22.6646937,27.4458097 22.5253607,27.6698756 22.2869463,27.8202796 C22.1011689,27.9374708 21.8689471,28 21.6326131,28 C21.5655591,28 21.4974407,27.99525 21.4303383,27.9841543 L21.4303383,27.9841543 L11.1093869,26.4008117 C10.6273816,26.3271869 10.2795811,26.0025918 10.2795811,25.6249675 L10.2795811,25.6249675 L10.2795811,9.79165275 C10.2795811,9.77584419 10.2930306,9.76159422 10.2940466,9.74574854 C10.2950626,9.72277789 10.2857737,9.70062363 10.2909503,9.67687368 C10.3033355,9.61037381 10.3394266,9.55177822 10.3724698,9.49162404 C10.3837906,9.46946979 10.3868869,9.44649913 10.4013524,9.42512417 C10.4694708,9.32615366 10.5633755,9.24302882 10.6758579,9.17497036 C10.6841308,9.17022037 10.6872271,9.16149968 10.6955483,9.15671258 C10.7172224,9.14405831 10.745089,9.14327902 10.767779,9.13218334 C10.8596033,9.08787483 10.9576687,9.05540419 11.0660388,9.03402923 C11.1124832,9.02530854 11.1568472,9.01899996 11.2053719,9.01502927 C11.241463,9.01187498 11.2745062,9 11.3116617,9 L11.3116617,9 Z M30.1918237,14.7734282 C30.5953574,14.4646788 31.2476587,14.4646788 31.6511924,14.7734282 L31.6511924,14.7734282 L34.7464666,17.1476442 C34.8424516,17.2212691 34.9177786,17.3091439 34.9704155,17.4057394 C35.074625,17.5988934 35.074625,17.8173929 34.9704155,18.0104726 C34.9177786,18.1078474 34.8424516,18.1957223 34.7464666,18.2685678 L34.7464666,18.2685678 L31.6511924,20.6427839 C31.4499335,20.797975 31.1857329,20.8747542 30.9214838,20.8747542 C30.6572348,20.8747542 30.3930342,20.7979379 30.1917753,20.6427839 C29.7882416,20.3340345 29.7882416,19.8329105 30.1917753,19.5233818 L30.1917753,19.5233818 L31.5262764,18.4997588 L25.760984,18.4997588 C25.1902506,18.4997588 24.7289033,18.1451052 24.7289033,17.708106 C24.7289033,17.2711069 25.1902506,16.9164533 25.760984,16.9164533 L25.760984,16.9164533 L31.5263248,16.9164533 L30.1918237,15.8928303 C29.78829,15.5840809 29.78829,15.0829569 30.1918237,14.7734282 Z" id="exit"></path>
            </g>
        </g>
    </g>
</svg>