<?xml version="1.0" encoding="UTF-8"?>
<svg width="20px" height="19px" viewBox="0 0 20 19" version="1.1" xmlns="http://www.w3.org/2000/svg" xmlns:xlink="http://www.w3.org/1999/xlink">
    <title>logo</title>
    <g id="State" stroke="none" stroke-width="1" fill="none" fill-rule="evenodd">
        <g id="Bound-to-Live" transform="translate(-207.000000, -11.000000)" fill="#000000" fill-rule="nonzero">
            <path d="M225.514111,16.2182529 L226.519993,17.3359 L225.514111,17.3359 L225.514111,16.2182529 Z M220.048246,29.0711941 L219.059156,24.1684759 L218.808228,22.9241353 L221.825875,25.105769 L220.048246,29.0711941 Z M223.058116,22.9159387 L222.383182,24.3770764 L219.255287,22.18254 L224.396464,20.0182529 L223.058116,22.9159387 Z M222.865727,16.0532443 L224.731758,15.4359 L224.731758,19.0056084 L223.612542,19.4594294 L221.490581,17.9657478 L222.865727,16.0532443 Z M222.831758,19.7835114 L218.513323,21.5829588 L217.131758,15.6594294 L222.831758,19.7835114 Z M208.63764,11.9711941 L217.387554,11.9711941 L219.925875,16.7770764 L216.724154,14.476854 C216.649601,14.4229068 216.560576,14.4045926 216.475252,14.4258928 L211.135404,15.7303807 L208.63764,11.9711941 Z M207.519993,17.5479663 L216.216717,15.4359 L217.827756,22.240085 L218.472934,25.2711941 L216.588636,24.071749 L207.519993,17.5479663 Z M216.525083,24.8241353 L218.749,26.2289047 L219.478816,29.6300176 L213.108228,29.6300176 L216.525083,24.8241353 Z" id="logo"></path>
        </g>
    </g>
</svg>