<?xml version="1.0" encoding="UTF-8"?>
<svg width="26px" height="25px" viewBox="0 0 26 25" version="1.1" xmlns="http://www.w3.org/2000/svg" xmlns:xlink="http://www.w3.org/1999/xlink">
    <title>fork</title>
    <g id="PageState-Generator" stroke="none" stroke-width="1" fill="none" fill-rule="evenodd">
        <g id="Artboard" transform="translate(-687.000000, -32.000000)" fill="#FFFFFF" fill-rule="nonzero">
            <g id="Group-5" transform="translate(686.793984, 30.226814)">
                <path d="M0.876340078,12.4311105 C1.99688196,12.4369164 3.11659443,12.4253046 4.23713632,12.4402341 C5.0731883,12.4725813 5.90343436,12.5663054 6.72455683,12.724724 C8.29049546,13.0564906 9.78842191,13.5640936 11.1544711,14.4117574 C13.4279021,15.8151304 15.1837772,18.0089374 16.1259945,20.5029932 C16.5481676,20.3379393 16.961217,20.1488323 17.379243,19.9746548 L17.6554388,19.85356 L17.6554388,19.85356 C17.2531717,22.0506847 16.8567106,24.2494682 16.4527846,26.4465929 C14.6040149,25.196662 12.7253862,23.9840549 10.8691518,22.7432476 C11.3974902,22.5408699 11.9117285,22.3003391 12.4350904,22.0863496 C11.8478634,20.4391282 10.7621571,18.9818431 9.31316618,17.9956667 C8.22994804,17.2525094 6.92942274,16.8394599 5.64797403,16.6014174 C4.95659601,16.4728578 4.27071923,16.4513606 3.57855532,16.4483622 L2.74418636,16.4479753 C2.12461213,16.4512929 1.50503789,16.4405105 0.886293078,16.4546106 C0.863069412,15.1142733 0.882975411,13.7714478 0.876340078,12.4311105 Z M20.0201056,10.694312 C21.8995637,11.9541959 23.7964396,13.1925149 25.6841919,14.440787 C23.7906337,15.6774472 21.9061991,16.9298663 20.0201056,18.177309 C20.0217645,17.6008644 20.020935,17.0244198 20.0201056,16.4479753 C18.1846066,16.4479753 16.3482781,16.4479753 14.5127791,16.4488047 C14.3767548,16.4645636 14.3344545,16.3741572 14.2531717,16.2895567 C13.65848,15.6036291 12.9708936,14.9774196 12.2360304,14.4441047 C13.0405646,13.8726366 13.7646453,13.1775854 14.4074432,12.4302811 C16.2786072,12.4294516 18.1530888,12.4427223 20.0242527,12.4244751 C20.0159585,11.8480306 20.0242527,11.2707566 20.0201056,10.694312 Z M16.4527846,2.44659291 C16.8567106,4.6437176 17.25566,6.84084229 17.6537799,9.0387964 C17.1470064,8.81651274 16.6402328,8.58925258 16.1243357,8.39019258 C15.2658894,10.6569883 13.7215156,12.7139415 11.7234509,14.0957497 C10.5465087,13.2937038 9.16138293,12.7413123 7.78869839,12.3813455 C7.36901356,12.2743507 6.93356983,12.1466206 6.50144376,12.1192498 C7.11770032,11.9251663 7.73063922,11.7559653 8.31206029,11.4673283 C10.250407,10.5557994 11.7217921,8.80904799 12.4359198,6.80517737 C11.9108991,6.59035846 11.3958314,6.35231589 10.8683224,6.14579114 C12.7278745,4.91161918 14.6006973,3.69237671 16.4527846,2.44659291 Z" id="fork"></path>
            </g>
        </g>
    </g>
</svg>