<?xml version="1.0" encoding="UTF-8"?>
<svg width="17px" height="17px" viewBox="0 0 17 17" version="1.1" xmlns="http://www.w3.org/2000/svg" xmlns:xlink="http://www.w3.org/1999/xlink">
    <title>timetravel</title>
    <g id="Toolbar-Screens" stroke="none" stroke-width="1" fill="none" fill-rule="evenodd">
        <g id="Input-Copy" transform="translate(-286.000000, -76.000000)" fill="#000000" fill-rule="nonzero">
            <path d="M294.782306,76.7124023 C296.919181,76.7124023 298.92815,77.5445586 300.439181,79.0555273 C301.95015,80.5665585 302.782306,82.5755273 302.782306,84.7124023 C302.782306,86.8492772 301.95015,88.8582459 300.439181,90.3692771 C298.92815,91.8802459 296.919181,92.7124023 294.774482,92.7120585 L294.774482,92.7120585 L294.75888,92.7120585 C294.525806,92.7124023 294.298337,92.7029021 294.0749,92.6842146 C293.730931,92.6554021 293.475431,92.3532146 293.504212,92.0092459 C293.533056,91.6652771 293.834837,91.4096521 294.179212,91.4385896 C294.368087,91.4543709 294.560462,91.4624021 294.75888,91.4627459 L294.75888,91.4627459 L294.774482,91.4627459 C298.504275,91.4624021 301.532306,88.4343709 301.532306,84.7124023 C301.532306,80.9904335 298.504275,77.9624023 294.782306,77.9624023 C292.383619,77.9624023 290.1774,79.2409336 288.971806,81.2749023 L288.971806,81.2749023 L290.690337,81.2749023 L290.782698,81.2816787 C291.084087,81.3263176 291.315337,81.5860955 291.315337,81.8999023 C291.315337,82.2450898 291.035525,82.5249023 290.690337,82.5249023 L290.690337,82.5249023 L288.782306,82.5249023 L288.594169,82.5161207 C288.284453,82.4870698 287.995056,82.3870481 287.7424,82.232621 C287.7229,82.221496 287.70415,82.2095273 287.686275,82.196621 C287.142338,81.8387773 286.782306,81.223246 286.782306,80.5249023 L286.782306,80.5249023 L286.782306,78.6811523 L286.789082,78.5887923 C286.833721,78.2874023 287.093499,78.0561523 287.407306,78.0561523 C287.752494,78.0561523 288.032306,78.3359648 288.032306,78.6811523 L288.032306,78.6811523 L288.032306,80.4166523 L288.186635,80.1837215 C289.66252,78.0387234 292.122578,76.7124023 294.782306,76.7124023 Z M290.615087,90.8513396 C290.783306,90.5499959 291.164056,90.4420896 291.465462,90.6103396 C291.6314,90.7029646 291.803212,90.7895271 291.976087,90.8676209 C292.290681,91.0096834 292.430525,91.3798709 292.288462,91.6944646 C292.184087,91.9255896 291.956619,92.0623709 291.718494,92.0623709 C291.632494,92.0623709 291.545087,92.0445271 291.461619,92.0068396 C291.256525,91.9142146 291.052837,91.8115584 290.856087,91.7017146 C290.554681,91.5334646 290.446775,91.1527146 290.615087,90.8513396 Z M288.457119,88.6086834 C288.734088,88.4026522 289.125588,88.4601834 289.331619,88.7370897 C289.444931,88.8894022 289.566181,89.0388084 289.692025,89.1811521 C289.920619,89.4397459 289.896337,89.8347459 289.637744,90.0633709 C289.518806,90.1684959 289.37115,90.2201209 289.224025,90.2201209 C289.05115,90.2201209 288.879025,90.1487771 288.755525,90.0090584 C288.606494,89.8404959 288.4629,89.6635584 288.328713,89.4831521 C288.122681,89.2062459 288.18015,88.8146834 288.457119,88.6086834 Z M294.782306,79.0874023 C295.127494,79.0874023 295.407306,79.3672148 295.407306,79.7124023 L295.407306,79.7124023 L295.407306,84.7124022 C295.407306,84.8781522 295.341462,85.0371522 295.224275,85.1543397 L295.224275,85.1543397 L292.7494,87.6292147 C292.627337,87.7512459 292.467369,87.8122772 292.307431,87.8122772 C292.147431,87.8122772 291.987525,87.7512772 291.865462,87.6292147 C291.6214,87.3851522 291.6214,86.9894334 291.865462,86.7453397 L291.865462,86.7453397 L294.157306,84.4535272 L294.157306,79.7124023 C294.157306,79.3672148 294.437119,79.0874023 294.782306,79.0874023 Z M287.593796,85.6650582 C287.861492,85.686045 288.095434,85.8794079 288.155494,86.1553397 C288.1959,86.3408709 288.244713,86.5267459 288.300681,86.7078709 C288.402588,87.0376834 288.217838,87.3876209 287.888056,87.4895272 C287.826588,87.5084959 287.764463,87.5175272 287.703338,87.5175272 C287.436463,87.5175272 287.189338,87.3452147 287.1064,87.0768397 C287.039963,86.8619022 286.982025,86.6413084 286.934088,86.4212147 C286.860681,86.0839647 287.074588,85.7510272 287.411869,85.6775897 L287.411869,85.6775897 L287.503506,85.6645701 Z" id="timetravel"></path>
        </g>
    </g>
</svg>