<?xml version="1.0" encoding="UTF-8"?>
<svg viewBox="0 0 31 31" version="1.1" xmlns="http://www.w3.org/2000/svg" xmlns:xlink="http://www.w3.org/1999/xlink">
    <title>argon</title>
    <g id="Products" stroke="none" stroke-width="1" fill="none" fill-rule="evenodd">
        <g id="Homepage-Copy" transform="translate(-235.000000, -159.000000)" fill="#B700C0" fill-rule="nonzero">
            <g id="FINANCIALS-MENU" transform="translate(202.292139, 37.977778)">
                <path d="M48.037154,121.655087 C56.3175415,121.664456 63.0277855,128.3747 63.037154,136.655087 C63.037154,144.939358 56.3214252,151.655087 48.037154,151.655087 C39.7528827,151.655087 33.037154,144.939358 33.037154,136.655087 C33.037154,128.370816 39.7528827,121.655087 48.037154,121.655087 Z M48.5371514,122.667587 L48.5371514,123.155087 C48.5371514,123.43123 48.3132963,123.655087 48.0371514,123.655087 C47.7610116,123.655087 47.5371514,123.43123 47.5371514,123.155087 L47.5371514,123.155087 L47.5371514,122.667587 C46.2405404,122.711864 44.956467,122.937039 43.722154,123.336587 L43.722154,123.336587 L43.889654,123.796087 C43.9823504,124.055007 43.8485446,124.340183 43.5901656,124.434376 C43.3317867,124.52857 43.0458414,124.396417 42.950154,124.138587 L42.950154,124.138587 L42.783154,123.679587 C41.5820013,124.168567 40.4545679,124.821973 39.433154,125.621087 L39.433154,125.621087 L39.742654,125.990087 C39.8574256,126.127009 39.8904318,126.31476 39.8292396,126.482616 C39.7680475,126.650472 39.6219534,126.772932 39.4459896,126.803866 C39.2700259,126.8348 39.0909255,126.769509 38.976154,126.632587 L38.976154,126.632587 L38.665654,126.262587 C37.7035351,127.131897 36.8659696,128.129808 36.176654,129.228087 L36.176654,129.228087 L36.595654,129.470087 C36.7516293,129.558768 36.8481306,129.724224 36.848525,129.903646 C36.8489195,130.083069 36.7531466,130.248947 36.5975627,130.338313 C36.4419787,130.427679 36.2504392,130.426829 36.095654,130.336087 L36.095654,130.336087 L35.674154,130.092587 C35.0639449,131.237542 34.6169445,132.462249 34.346154,133.731087 L34.346154,133.731087 L34.829154,133.816587 C35.0846649,133.861348 35.2635113,134.094077 35.2409889,134.352499 C35.2184664,134.610922 35.0020558,134.809203 34.742654,134.809087 C34.7133037,134.80911 34.6840135,134.806432 34.655154,134.801087 L34.655154,134.801087 L34.174154,134.716587 C33.9914839,136.001125 33.9914839,137.305049 34.174154,138.589587 L34.174154,138.589587 L34.655154,138.505087 C34.9275684,138.457038 35.1873552,138.638923 35.235404,138.911337 C35.2834527,139.183752 35.1015684,139.443538 34.829154,139.491587 L34.829154,139.491587 L34.346154,139.577087 C35.6946617,145.84851 41.126777,150.405335 47.5371514,150.642587 L47.5371514,150.642587 L47.5371514,150.155087 C47.5371514,149.878945 47.7610116,149.655087 48.0371514,149.655087 C48.3132963,149.655087 48.5371514,149.878945 48.5371514,150.155087 L48.5371514,150.155087 L48.5371514,150.642587 C49.8338624,150.597663 51.117938,150.371814 52.352154,149.971587 L52.352154,149.971587 L52.184654,149.512087 C52.0919575,149.253167 52.2257634,148.967992 52.4841423,148.873798 C52.7425212,148.779605 53.0284666,148.911758 53.124154,149.169587 L53.124154,149.169587 L53.291154,149.628587 C54.4923067,149.139607 55.6197401,148.486201 56.641154,147.687087 L56.641154,147.687087 L56.331654,147.318087 C56.2168824,147.181165 56.1838761,146.993414 56.2450683,146.825558 C56.3062605,146.657702 56.4523546,146.535242 56.6283183,146.504308 C56.8042821,146.473374 56.9833824,146.538665 57.098154,146.675587 L57.098154,146.675587 L57.408654,147.045587 C58.3707729,146.176277 59.2083383,145.178366 59.897654,144.080087 L59.897654,144.080087 L59.478654,143.838087 C59.3226786,143.749406 59.2261774,143.583951 59.2257829,143.404528 C59.2253885,143.225105 59.3211613,143.059227 59.4767453,142.969861 C59.6323292,142.880495 59.8238688,142.881345 59.978654,142.972087 L59.978654,142.972087 L60.400154,143.215087 C61.0103615,142.070308 61.457363,140.845766 61.728154,139.577087 L61.728154,139.577087 L61.245154,139.491587 C61.0660147,139.463975 60.9158471,139.341576 60.8526751,139.171686 C60.7895031,139.001796 60.8232204,138.811022 60.9407989,138.673077 C61.0583774,138.535133 61.2414024,138.471623 61.419154,138.507087 L61.419154,138.507087 L61.900154,138.591587 C62.7970533,132.233905 59.2456892,126.083267 53.291154,123.681587 L53.291154,123.681587 L53.124154,124.140587 C53.0637112,124.309416 52.9174861,124.432948 52.7409323,124.464337 C52.5643785,124.495725 52.3845353,124.430162 52.2696055,124.292512 C52.1546758,124.154862 52.122261,123.966205 52.184654,123.798087 L52.184654,123.798087 L52.352154,123.338587 C51.117938,122.93836 49.8338624,122.712511 48.5371514,122.667587 L48.5371514,122.667587 Z M57.8631224,130.155405 L57.9607425,130.168766 C58.0897835,130.19962 58.2012707,130.280497 58.270654,130.393587 C60.5388663,134.096298 60.6289676,138.735723 58.5062306,142.523709 C56.3834936,146.311696 52.3793715,148.656772 48.037154,148.655126 C46.2295227,148.659739 44.4447413,148.251168 42.819154,147.460587 C42.6583845,147.382703 42.5513779,147.224966 42.5384425,147.046794 C42.5255072,146.868621 42.6086084,146.697082 42.7564425,146.596794 C42.9042767,146.496505 43.0943845,146.482703 43.255154,146.560587 C47.6489162,148.6789 52.9129628,147.650719 56.1867021,144.034778 C59.4604414,140.418838 59.9619322,135.078814 57.418654,130.916587 C57.2742255,130.681431 57.3476271,130.373726 57.582654,130.229087 C57.6956884,130.159612 57.8317015,130.137913 57.9607425,130.168766 Z M48.037154,124.655039 C50.6809062,124.647539 53.2516155,125.522214 55.342154,127.140587 C55.5609968,127.309034 55.6018508,127.622994 55.433404,127.841837 C55.2649571,128.06068 54.9509968,128.101534 54.732154,127.933087 C52.8162697,126.449692 50.4601738,125.648021 48.037154,125.655087 L48.037154,125.654087 L47.7488833,125.659114 C41.9056885,125.815912 37.1979792,130.523622 37.0411812,136.366816 L37.037154,136.655087 C37.0300876,139.078107 37.8317585,141.434203 39.315154,143.350087 C39.4836008,143.56893 39.4427468,143.88289 39.223904,144.051337 C39.0050611,144.219784 38.6911008,144.17893 38.522654,143.960087 C36.9042808,141.869549 36.0296062,139.298839 36.0371055,136.655087 C36.0448687,130.030868 41.4129352,124.662802 48.037154,124.655039 Z M51.557154,138.081087 L52.7012248,141.2254 L51.6164081,141.2254 L50.498154,138.081087 L51.557154,138.081087 Z M45.550154,138.081087 L44.432265,141.2254 L43.3474484,141.2254 L44.491154,138.081087 L45.550154,138.081087 Z M52.5628553,137.223754 L52.5628553,138.081645 L51.557154,138.081087 L51.245154,137.223087 L52.5628553,137.223754 Z M50.192154,137.223087 L50.498154,138.081087 L45.550154,138.081087 L45.855154,137.223087 L50.192154,137.223087 Z M44.803154,137.223087 L44.491154,138.081087 L43.4858178,138.081645 L43.4858178,137.223754 L44.803154,137.223087 Z M50.617154,135.496087 L51.245154,137.223087 L50.192154,137.223087 L49.578154,135.496087 L50.617154,135.496087 Z M46.470154,135.496087 L45.855154,137.223087 L44.803154,137.223087 L45.431154,135.496087 L46.470154,135.496087 Z M45.741154,134.644087 L45.431154,135.496087 L43.4858178,135.496903 L43.4858178,134.644547 L45.741154,134.644087 Z M52.5628553,134.644547 L52.5628553,135.496903 L50.617154,135.496087 L50.307154,134.644087 L52.5628553,134.644547 Z M48.5778145,129.890172 L50.307154,134.644087 L49.275154,134.644087 L49.578154,135.496087 L46.470154,135.496087 L46.773154,134.644087 L45.741154,134.644087 L47.4708587,129.890172 L48.5778145,129.890172 Z M48.06308,131.235124 L47.9855931,131.235124 L46.773154,134.644087 L49.275154,134.644087 L48.06308,131.235124 Z" id="argon"></path>
            </g>
        </g>
    </g>
</svg>