<?xml version="1.0" encoding="UTF-8"?>
<svg width="42.1852269px" height="40.18px" viewBox="0 0 42.1852269 40.18" version="1.1" xmlns="http://www.w3.org/2000/svg" xmlns:xlink="http://www.w3.org/1999/xlink">
    <title>cli</title>
    <g id="Logos" stroke="none" stroke-width="1" fill="none" fill-rule="evenodd">
        <g id="Artboard" transform="translate(-332.91, -545.8167)" fill="#000000" fill-rule="nonzero">
            <path d="M372.334759,545.816698 C373.857498,545.816698 375.095227,547.054427 375.095227,548.577166 L375.095227,583.23623 C375.095227,584.757268 373.849706,585.996698 372.325255,585.996698 L335.670468,585.996698 C334.147728,585.996698 332.91,584.75897 332.91,583.23623 L332.91,548.577166 C332.91,547.054427 334.147728,545.816698 335.670468,545.816698 L372.334759,545.816698 Z M373.964,555.233698 L334.039,555.233698 L334.040344,583.23623 C334.040344,584.089467 334.695062,584.789092 335.529766,584.860373 L335.670468,584.866354 L372.334759,584.866354 C373.235398,584.866354 373.964882,584.136869 373.964882,583.236233 L373.964,555.233698 Z M340.963887,560.661079 C341.735432,560.661079 342.459869,560.960135 342.99474,561.504736 L350.587992,569.097989 C351.129054,569.63905 351.431649,570.365796 351.431649,571.128841 C351.431649,571.900387 351.132593,572.624823 350.587992,573.159694 L342.995827,580.75184 C342.453207,581.313499 341.725043,581.61561 340.963887,581.61561 C340.208965,581.61561 339.479017,581.317937 338.933034,580.771953 C337.81454,579.65346 337.81454,577.829048 338.933034,576.700745 L344.496,571.138698 L338.933034,565.575945 C337.85928,564.502191 337.81633,562.777863 338.804184,561.643384 L338.933034,561.504736 C339.474096,560.963675 340.200841,560.661079 340.963887,560.661079 Z M367.022333,575.857088 C368.608368,575.857088 369.896842,577.148601 369.896842,578.731597 C369.896842,580.313071 368.609892,581.606107 367.031837,581.606107 L353.584462,581.606107 C351.998427,581.606107 350.709952,580.314594 350.709952,578.731597 C350.709952,577.151837 352.004702,575.857088 353.584462,575.857088 L367.022333,575.857088 Z M367.022333,576.987432 L353.584462,576.987432 C352.620646,576.987432 351.840297,577.770579 351.840297,578.731597 C351.840297,579.689257 352.626802,580.475762 353.584462,580.475762 L367.022333,580.475762 C367.986149,580.475762 368.766498,579.692616 368.766498,578.731597 C368.766498,577.773938 367.979993,576.987432 367.022333,576.987432 Z M340.963887,561.810431 C340.49653,561.810431 340.061969,561.988953 339.725555,562.316263 C339.400593,562.641225 339.219722,563.083882 339.219722,563.554596 C339.219722,564.021952 339.398245,564.456514 339.725555,564.792928 L345.684215,570.751588 C345.788835,570.856208 345.853127,571.003161 345.853127,571.147848 C345.853127,571.300913 345.792232,571.44706 345.684215,571.544108 L339.725555,577.502768 C339.047943,578.18038 339.047943,579.292318 339.725555,579.96993 C340.403166,580.647541 341.515105,580.647541 342.192716,579.96993 L349.785968,572.376677 C350.11093,572.051715 350.291801,571.609058 350.291801,571.138345 C350.291801,570.670988 350.113278,570.236426 349.785968,569.900012 L342.192716,562.30676 C341.876069,561.990113 341.432852,561.810431 340.963887,561.810431 Z M369.341174,568.472911 C369.656976,568.472911 369.906346,568.722281 369.906346,569.038083 C369.906346,569.350911 369.650496,569.603256 369.341174,569.603256 L359.362556,569.603256 C359.046754,569.603256 358.797384,569.353885 358.797384,569.038083 C358.797384,568.722281 359.046754,568.472911 359.362556,568.472911 L369.341174,568.472911 Z M369.341174,565.146705 C369.656976,565.146705 369.906346,565.396076 369.906346,565.711878 C369.906346,566.018176 369.647472,566.27705 369.341174,566.27705 L359.362556,566.27705 C359.046754,566.27705 358.797384,566.02768 358.797384,565.711878 C358.797384,565.396076 359.046754,565.146705 359.362556,565.146705 L369.341174,565.146705 Z M369.341174,561.8205 C369.656976,561.8205 369.906346,562.06987 369.906346,562.385672 C369.906346,562.698499 369.650496,562.950844 369.341174,562.950844 L355.656213,562.950844 C355.340411,562.950844 355.091041,562.701474 355.091041,562.385672 C355.091041,562.06987 355.340411,561.8205 355.656213,561.8205 L369.341174,561.8205 Z M369.341174,558.494294 C369.656976,558.494294 369.906346,558.743664 369.906346,559.059466 C369.906346,559.372294 369.650496,559.624638 369.341174,559.624638 L355.656213,559.624638 C355.340411,559.624638 355.091041,559.375268 355.091041,559.059466 C355.091041,558.743664 355.340411,558.494294 355.656213,558.494294 L369.341174,558.494294 Z M372.334759,546.947043 L335.670468,546.947043 C334.769829,546.947043 334.040344,547.676527 334.040344,548.577172 L334.039,554.103698 L373.964,554.103698 L373.964882,548.577166 C373.964882,547.723929 373.310165,547.024305 372.475461,546.953024 L372.334759,546.947043 Z M339.78546,548.097525 C341.127634,548.097525 342.213307,549.183198 342.213307,550.525373 C342.213307,551.858043 341.11813,552.95322 339.78546,552.95322 C338.443286,552.95322 337.357612,551.867547 337.357612,550.525373 C337.357612,549.183198 338.443286,548.097525 339.78546,548.097525 Z M345.696603,548.097525 C347.038777,548.097525 348.12445,549.183198 348.12445,550.525373 C348.12445,551.86127 347.035559,552.95322 345.696603,552.95322 C344.354428,552.95322 343.268755,551.867547 343.268755,550.525373 C343.268755,549.183198 344.354428,548.097525 345.696603,548.097525 Z M351.617249,548.097525 C352.959423,548.097525 354.045096,549.183198 354.045096,550.525373 C354.045096,551.858043 352.949919,552.95322 351.617249,552.95322 C350.275075,552.95322 349.189401,551.867547 349.189401,550.525373 C349.189401,549.183198 350.275075,548.097525 351.617249,548.097525 Z M339.78546,549.218366 C339.068754,549.218366 338.487957,549.801916 338.487957,550.515869 C338.487957,551.226439 339.07489,551.813372 339.78546,551.813372 C340.49603,551.813372 341.082963,551.226439 341.082963,550.515869 C341.082963,549.805299 340.49603,549.218366 339.78546,549.218366 Z M345.696603,549.218366 C344.979897,549.218366 344.3991,549.801916 344.3991,550.515869 C344.3991,551.226439 344.986033,551.813372 345.696603,551.813372 C346.407172,551.813372 346.994105,551.226439 346.994105,550.515869 C346.994105,549.801916 346.413308,549.218366 345.696603,549.218366 Z M351.617249,549.218366 C350.900543,549.218366 350.319746,549.801916 350.319746,550.515869 C350.319746,551.226439 350.906679,551.813372 351.617249,551.813372 C352.327819,551.813372 352.914752,551.226439 352.914752,550.515869 C352.914752,549.805299 352.327819,549.218366 351.617249,549.218366 Z M370.082442,549.9602 C370.398244,549.9602 370.647615,550.20957 370.647615,550.525373 C370.647615,550.8382 370.391765,551.090545 370.082442,551.090545 L358.887384,551.090545 C358.571582,551.090545 358.322212,550.841175 358.322212,550.525373 C358.322212,550.20957 358.571582,549.9602 358.887384,549.9602 L370.082442,549.9602 Z" id="cli"></path>
        </g>
    </g>
</svg>