<?xml version="1.0" encoding="UTF-8"?>
<svg viewBox="0 0 205 177" version="1.1" xmlns="http://www.w3.org/2000/svg" xmlns:xlink="http://www.w3.org/1999/xlink">
    <title>coming-soon</title>
    <defs>
        <path d="M12.6477273,4.99143843 L11.2457386,4.99143843 C11.1413352,4.46779008 10.9532498,3.98389504 10.6814825,3.53975331 C10.4097151,3.09561157 10.0699962,2.70699241 9.66232577,2.37389582 C9.25465532,2.04079923 8.79229736,1.7822765 8.27525191,1.59832764 C7.75820645,1.41437877 7.20053378,1.32240434 6.60223389,1.32240434 C5.63774525,1.32240434 4.75820091,1.57306186 3.96360085,2.07437689 C3.1690008,2.57569192 2.53514238,3.31232244 2.06202559,4.28426847 C1.5889088,5.25621449 1.35235041,6.44648327 1.35235041,7.8550748 C1.35235041,9.2703469 1.5889088,10.4635287 2.06202559,11.4346203 C2.53514238,12.4057118 3.1690008,13.1406722 3.96360085,13.6395014 C4.75820091,14.1383306 5.63774525,14.3877453 6.60223389,14.3877453 C7.20053378,14.3877453 7.75820645,14.2961786 8.27525191,14.1130454 C8.79229736,13.9299122 9.25465532,13.6722246 9.66232577,13.3399825 C10.0699962,13.0077404 10.4097151,12.6183056 10.6814825,12.171678 C10.9532498,11.7250505 11.1413352,11.2407282 11.2457386,10.7187112 L12.6477273,10.7187112 C12.5234375,11.4180742 12.2914235,12.0697798 11.9516851,12.6738281 C11.6119468,13.2778764 11.1794184,13.8069236 10.6540999,14.2609697 C10.1287814,14.7150158 9.52556818,15.0684065 8.84446023,15.321142 C8.16335227,15.5738775 7.41594349,15.7002453 6.60223389,15.7002453 C5.31630083,15.7002453 4.17699086,15.3787426 3.18430398,14.7357372 C2.1916171,14.0927318 1.41272805,13.1837658 0.84763683,12.008839 C0.28254561,10.8339122 -6.33461557e-13,9.44932417 -6.33461557e-13,7.8550748 C-6.33461557e-13,6.26082542 0.28254561,4.87623735 0.84763683,3.70131059 C1.41272805,2.52638383 2.1916171,1.61741777 3.18430398,0.974412398 C4.17699086,0.331407027 5.31630083,0.00990434126 6.60223389,0.00990434126 C7.41594349,0.00990434126 8.16335227,0.135844838 8.84446023,0.38772583 C9.52556818,0.639606823 10.1287814,0.992181951 10.6540999,1.44545122 C11.1794184,1.89872048 11.6119468,2.42654419 11.9516851,3.02892234 C12.2914235,3.63130049 12.5234375,4.28547252 12.6477273,4.99143843 Z" id="path-1"></path>
        <filter x="-4.0%" y="-3.2%" width="115.8%" height="112.7%" filterUnits="objectBoundingBox" id="filter-2">
            <feOffset dx="1" dy="1" in="SourceAlpha" result="shadowOffsetOuter1"></feOffset>
            <feColorMatrix values="0 0 0 0 1   0 0 0 0 1   0 0 0 0 1  0 0 0 0.635735358 0" type="matrix" in="shadowOffsetOuter1"></feColorMatrix>
        </filter>
        <path d="M28.4474838,7.8550748 C28.4474838,9.44761519 28.1649188,10.8313682 27.5997888,12.0063338 C27.0346587,13.1812994 26.2557696,14.0906927 25.2631216,14.7345137 C24.2704736,15.3783347 23.1311442,15.7002453 21.8451334,15.7002453 C20.5574914,15.7002453 19.4173463,15.3779269 18.4246983,14.7332902 C17.4320503,14.0886536 16.6535885,13.1788524 16.0893129,12.0038868 C15.5250373,10.8289212 15.2428995,9.44598389 15.2428995,7.8550748 C15.2428995,6.2625344 15.5254452,4.87918923 16.0905364,3.70503928 C16.6556276,2.53088934 17.4345166,1.62149603 18.4272035,0.976859353 C19.4198904,0.332222678 20.5592004,0.00990434126 21.8451334,0.00990434126 C23.1311442,0.00990434126 24.2704736,0.331814853 25.2631216,0.975635875 C26.2557696,1.6194569 27.0346587,2.52885021 27.5997888,3.70381581 C28.1649188,4.87878141 28.4474838,6.2625344 28.4474838,7.8550748 Z M27.095143,7.8550748 C27.095143,6.48625599 26.8664403,5.31420344 26.4090539,4.33891713 C25.9516675,3.36363081 25.327325,2.61705711 24.5360264,2.099196 C23.7447278,1.58133489 22.8477635,1.32240434 21.8451334,1.32240434 C20.8442124,1.32240434 19.9481025,1.58051924 19.1568039,2.09674905 C18.3655053,2.61297885 17.740755,3.35871748 17.282553,4.33396495 C16.824351,5.30921242 16.59525,6.4829157 16.59525,7.8550748 C16.59525,9.22063099 16.8231081,10.3910328 17.2788243,11.3662803 C17.7345405,12.3415278 18.3580479,13.0889171 19.1493465,13.6084484 C19.9406451,14.1279796 20.8392408,14.3877453 21.8451334,14.3877453 C22.8477635,14.3877453 23.7451551,14.1288147 24.5373082,13.6109536 C25.3294613,13.0930925 25.954231,12.3465188 26.4116174,11.3712325 C26.8690037,10.3959462 27.0968424,9.2238936 27.095143,7.8550748 Z" id="path-3"></path>
        <filter x="-3.8%" y="-3.2%" width="115.1%" height="112.7%" filterUnits="objectBoundingBox" id="filter-4">
            <feOffset dx="1" dy="1" in="SourceAlpha" result="shadowOffsetOuter1"></feOffset>
            <feColorMatrix values="0 0 0 0 1   0 0 0 0 1   0 0 0 0 1  0 0 0 0.635735358 0" type="matrix" in="shadowOffsetOuter1"></feColorMatrix>
        </filter>
        <polygon id="path-5" points="31.8181897 0.218711159 33.4289852 0.218711159 38.9673763 13.5226884 39.1065031 13.5226884 44.6448943 0.218711159 46.2556897 0.218711159 46.2556897 15.4914384 44.9431897 15.4914384 44.9431897 3.16193182 44.8238715 3.16193182 39.6732645 15.4914384 38.4006149 15.4914384 33.2500079 3.16193182 33.1306897 3.16193182 33.1306897 15.4914384 31.8181897 15.4914384"></polygon>
        <filter x="-3.5%" y="-3.3%" width="113.9%" height="113.1%" filterUnits="objectBoundingBox" id="filter-6">
            <feOffset dx="1" dy="1" in="SourceAlpha" result="shadowOffsetOuter1"></feOffset>
            <feColorMatrix values="0 0 0 0 1   0 0 0 0 1   0 0 0 0 1  0 0 0 0.635735358 0" type="matrix" in="shadowOffsetOuter1"></feColorMatrix>
        </filter>
        <polygon id="path-7" points="51.7046031 0.218711159 51.7046031 15.4914384 50.3125188 15.4914384 50.3125188 0.218711159"></polygon>
        <filter x="-35.9%" y="-3.3%" width="243.7%" height="113.1%" filterUnits="objectBoundingBox" id="filter-8">
            <feOffset dx="1" dy="1" in="SourceAlpha" result="shadowOffsetOuter1"></feOffset>
            <feColorMatrix values="0 0 0 0 1   0 0 0 0 1   0 0 0 0 1  0 0 0 0.635735358 0" type="matrix" in="shadowOffsetOuter1"></feColorMatrix>
        </filter>
        <polygon id="path-9" points="67.6534728 0.218711159 67.6534728 15.4914384 66.3011224 15.4914384 57.272791 2.7045843 57.1534728 2.7045843 57.1534728 15.4914384 55.7613885 15.4914384 55.7613885 0.218711159 57.1136224 0.218711159 66.161879 13.0254905 66.2811972 13.0254905 66.2811972 0.218711159"></polygon>
        <filter x="-4.2%" y="-3.3%" width="116.8%" height="113.1%" filterUnits="objectBoundingBox" id="filter-10">
            <feOffset dx="1" dy="1" in="SourceAlpha" result="shadowOffsetOuter1"></feOffset>
            <feColorMatrix values="0 0 0 0 1   0 0 0 0 1   0 0 0 0 1  0 0 0 0.635735358 0" type="matrix" in="shadowOffsetOuter1"></feColorMatrix>
        </filter>
        <path d="M82.2798071,4.99143843 C82.1406025,4.48270486 81.9363595,4.00667503 81.6670779,3.56334894 C81.3977964,3.12002286 81.0655349,2.7301608 80.6702934,2.39376276 C80.2750519,2.05736472 79.8197435,1.79470548 79.3043682,1.60578502 C78.7889929,1.41686457 78.2164249,1.32240434 77.5866641,1.32240434 C76.5939772,1.32240434 75.7044703,1.58051924 74.9181433,2.09674905 C74.1318163,2.61297885 73.5116297,3.35871748 73.0575836,4.33396495 C72.6035376,5.30921242 72.3765145,6.4829157 72.3765145,7.8550748 C72.3765145,9.22063099 72.6043726,10.3914407 73.0600889,11.3675038 C73.5158051,12.3435669 74.1430412,13.0909563 74.9417972,13.6096719 C75.7405532,14.1283875 76.6553065,14.3877453 77.6860571,14.3877453 C78.6240565,14.3877453 79.4534965,14.1785306 80.1743772,13.7601013 C80.8952579,13.341672 81.4578827,12.7450811 81.8622517,11.9703286 C82.2666207,11.1955761 82.4654649,10.2745694 82.4587844,9.20730868 L82.9062275,9.34655207 L78.0141821,9.34655207 L78.0141821,8.09371116 L83.8111348,8.09371116 L83.8111348,9.34655207 C83.8111348,10.6491089 83.5484561,11.7755821 83.0230988,12.7259716 C82.4977414,13.6763611 81.774375,14.4096707 80.8529993,14.9259005 C79.9316237,15.4421303 78.8759763,15.7002453 77.6860571,15.7002453 C76.3536707,15.7002453 75.1874248,15.3783347 74.1873194,14.7345137 C73.187214,14.0906927 72.4099951,13.1812994 71.8556627,12.0063338 C71.3013303,10.8313682 71.0241641,9.44761519 71.0241641,7.8550748 C71.0241641,6.65855269 71.1828472,5.57763949 71.5002134,4.61233521 C71.8175795,3.64703092 72.2683436,2.82174683 72.8525055,2.13648293 C73.4366674,1.45121904 74.1297771,0.9254733 74.9318346,0.559245716 C75.733892,0.193018133 76.6188352,0.00990434126 77.5866641,0.00990434126 C78.4218914,0.00990434126 79.1866813,0.1416515 79.8810339,0.405145819 C80.5753865,0.668640137 81.1864843,1.03032338 81.7143275,1.49019553 C82.2421706,1.95006769 82.6763691,2.47954213 83.0169231,3.07861883 C83.3574771,3.67769553 83.5890445,4.31530207 83.7116253,4.99143843 L82.2798071,4.99143843 Z" id="path-11"></path>
        <filter x="-3.9%" y="-3.2%" width="115.6%" height="112.7%" filterUnits="objectBoundingBox" id="filter-12">
            <feOffset dx="1" dy="1" in="SourceAlpha" result="shadowOffsetOuter1"></feOffset>
            <feColorMatrix values="0 0 0 0 1   0 0 0 0 1   0 0 0 0 1  0 0 0 0.635735358 0" type="matrix" in="shadowOffsetOuter1"></feColorMatrix>
        </filter>
        <path d="M101.480132,4.03689298 C101.395615,3.18511963 101.020668,2.50816761 100.35529,2.00603693 C99.6899124,1.50390625 98.8517916,1.25284091 97.8409273,1.25284091 C97.1316211,1.25284091 96.5068514,1.37546054 95.9666181,1.6206998 C95.4263848,1.86593905 95.003819,2.20276434 94.6989207,2.63117565 C94.3940223,3.05958696 94.2415732,3.54804577 94.2415732,4.09655207 C94.2415732,4.49761963 94.328576,4.84978693 94.5025817,5.15305398 C94.6765874,5.45632102 94.91066,5.7169023 95.2047995,5.93479781 C95.498939,6.15269331 95.8262289,6.3382929 96.1866693,6.49159657 C96.5471096,6.64490024 96.9129099,6.77456942 97.2840703,6.88060414 L98.8948657,7.33806818 C99.3804503,7.47556374 99.8668506,7.64787986 100.354067,7.85501653 C100.841282,8.06215321 101.287483,8.32356956 101.692667,8.63926558 C102.097852,8.9549616 102.423918,9.34109497 102.670867,9.79766568 C102.917815,10.2542364 103.041289,10.7998879 103.041289,11.4346203 C103.041289,12.2499612 102.829977,12.9832708 102.407353,13.6345492 C101.984729,14.2858276 101.37736,14.8012224 100.585245,15.1807334 C99.7931312,15.5602445 98.8452275,15.75 97.7415343,15.75 C96.7024718,15.75 95.8009437,15.5780529 95.03695,15.2341586 C94.2729563,14.8902643 93.6718017,14.4121565 93.233486,13.7998352 C92.7951704,13.1875139 92.5478531,12.4786543 92.4915343,11.6732566 L93.9233525,11.6732566 C93.9730684,12.2764504 94.171932,12.7868541 94.5199434,13.2044678 C94.8679548,13.6220814 95.3207774,13.9386125 95.8784112,14.1540611 C96.436045,14.3695096 97.0570861,14.4772339 97.7415343,14.4772339 C98.503819,14.4772339 99.1820139,14.3492154 99.7761191,14.0931785 C100.370224,13.8371416 100.837554,13.4795948 101.178108,13.0205383 C101.518662,12.5614818 101.688939,12.0262007 101.688939,11.414695 C101.688939,10.894387 101.554706,10.4589844 101.28624,10.1084872 C101.017774,9.75799006 100.644069,9.4634233 100.165127,9.22478693 C99.6861838,8.98615057 99.1302006,8.77485795 98.4971773,8.59090909 L96.6676707,8.05397727 C95.4727799,7.69928533 94.5443159,7.20624334 93.8822786,6.5748513 C93.2202414,5.94345925 92.8892228,5.13724587 92.8892228,4.15621116 C92.8892228,3.33589866 93.1096235,2.61377508 93.5504249,1.98984042 C93.9912264,1.36590576 94.5882251,0.878282027 95.3414211,0.526969216 C96.0946172,0.175656405 96.9410305,-2.0659322e-12 97.8806612,-2.0659322e-12 C98.8286037,-2.0659322e-12 99.667987,0.174821333 100.398811,0.524464 C101.129635,0.874106667 101.70966,1.35303012 102.138887,1.96123435 C102.568114,2.56943859 102.799312,3.2613248 102.832482,4.03689298 L101.480132,4.03689298 Z" id="path-13"></path>
        <filter x="-4.7%" y="-3.2%" width="119.0%" height="112.7%" filterUnits="objectBoundingBox" id="filter-14">
            <feOffset dx="1" dy="1" in="SourceAlpha" result="shadowOffsetOuter1"></feOffset>
            <feColorMatrix values="0 0 0 0 1   0 0 0 0 1   0 0 0 0 1  0 0 0 0.635735358 0" type="matrix" in="shadowOffsetOuter1"></feColorMatrix>
        </filter>
        <path d="M118.920523,7.8550748 C118.920523,9.44761519 118.637957,10.8313682 118.072827,12.0063338 C117.507697,13.1812994 116.728808,14.0906927 115.73616,14.7345137 C114.743512,15.3783347 113.604183,15.7002453 112.318172,15.7002453 C111.03053,15.7002453 109.890385,15.3779269 108.897737,14.7332902 C107.905089,14.0886536 107.126627,13.1788524 106.562352,12.0038868 C105.998076,10.8289212 105.715938,9.44598389 105.715938,7.8550748 C105.715938,6.2625344 105.998484,4.87918923 106.563575,3.70503928 C107.128666,2.53088934 107.907555,1.62149603 108.900242,0.976859353 C109.892929,0.332222678 111.032239,0.00990434126 112.318172,0.00990434126 C113.604183,0.00990434126 114.743512,0.331814853 115.73616,0.975635875 C116.728808,1.6194569 117.507697,2.52885021 118.072827,3.70381581 C118.637957,4.87878141 118.920523,6.2625344 118.920523,7.8550748 Z M117.568182,7.8550748 C117.568182,6.48625599 117.339479,5.31420344 116.882093,4.33891713 C116.424706,3.36363081 115.800364,2.61705711 115.009065,2.099196 C114.217767,1.58133489 113.320802,1.32240434 112.318172,1.32240434 C111.317251,1.32240434 110.421141,1.58051924 109.629843,2.09674905 C108.838544,2.61297885 108.213794,3.35871748 107.755592,4.33396495 C107.29739,5.30921242 107.068289,6.4829157 107.068289,7.8550748 C107.068289,9.22063099 107.296147,10.3910328 107.751863,11.3662803 C108.207579,12.3415278 108.831087,13.0889171 109.622385,13.6084484 C110.413684,14.1279796 111.312279,14.3877453 112.318172,14.3877453 C113.320802,14.3877453 114.218194,14.1288147 115.010347,13.6109536 C115.8025,13.0930925 116.42727,12.3465188 116.884656,11.3712325 C117.342042,10.3959462 117.569881,9.2238936 117.568182,7.8550748 Z" id="path-15"></path>
        <filter x="-3.8%" y="-3.2%" width="115.1%" height="112.7%" filterUnits="objectBoundingBox" id="filter-16">
            <feOffset dx="1" dy="1" in="SourceAlpha" result="shadowOffsetOuter1"></feOffset>
            <feColorMatrix values="0 0 0 0 1   0 0 0 0 1   0 0 0 0 1  0 0 0 0.635735358 0" type="matrix" in="shadowOffsetOuter1"></feColorMatrix>
        </filter>
        <path d="M134.809733,7.8550748 C134.809733,9.44761519 134.527168,10.8313682 133.962038,12.0063338 C133.396908,13.1812994 132.618019,14.0906927 131.625371,14.7345137 C130.632723,15.3783347 129.493393,15.7002453 128.207383,15.7002453 C126.919741,15.7002453 125.779596,15.3779269 124.786948,14.7332902 C123.7943,14.0886536 123.015838,13.1788524 122.451562,12.0038868 C121.887287,10.8289212 121.605149,9.44598389 121.605149,7.8550748 C121.605149,6.2625344 121.887694,4.87918923 122.452786,3.70503928 C123.017877,2.53088934 123.796766,1.62149603 124.789453,0.976859353 C125.78214,0.332222678 126.92145,0.00990434126 128.207383,0.00990434126 C129.493393,0.00990434126 130.632723,0.331814853 131.625371,0.975635875 C132.618019,1.6194569 133.396908,2.52885021 133.962038,3.70381581 C134.527168,4.87878141 134.809733,6.2625344 134.809733,7.8550748 Z M133.457392,7.8550748 C133.457392,6.48625599 133.22869,5.31420344 132.771303,4.33891713 C132.313917,3.36363081 131.689574,2.61705711 130.898276,2.099196 C130.106977,1.58133489 129.210013,1.32240434 128.207383,1.32240434 C127.206462,1.32240434 126.310352,1.58051924 125.519053,2.09674905 C124.727755,2.61297885 124.103004,3.35871748 123.644802,4.33396495 C123.1866,5.30921242 122.957499,6.4829157 122.957499,7.8550748 C122.957499,9.22063099 123.185357,10.3910328 123.641074,11.3662803 C124.09679,12.3415278 124.720297,13.0889171 125.511596,13.6084484 C126.302894,14.1279796 127.20149,14.3877453 128.207383,14.3877453 C129.210013,14.3877453 130.107404,14.1288147 130.899557,13.6109536 C131.691711,13.0930925 132.31648,12.3465188 132.773867,11.3712325 C133.231253,10.3959462 133.459092,9.2238936 133.457392,7.8550748 Z" id="path-17"></path>
        <filter x="-3.8%" y="-3.2%" width="115.1%" height="112.7%" filterUnits="objectBoundingBox" id="filter-18">
            <feOffset dx="1" dy="1" in="SourceAlpha" result="shadowOffsetOuter1"></feOffset>
            <feColorMatrix values="0 0 0 0 1   0 0 0 0 1   0 0 0 0 1  0 0 0 0.635735358 0" type="matrix" in="shadowOffsetOuter1"></feColorMatrix>
        </filter>
        <polygon id="path-19" points="150.072523 0.218711159 150.072523 15.4914384 148.720173 15.4914384 139.691841 2.7045843 139.572523 2.7045843 139.572523 15.4914384 138.180439 15.4914384 138.180439 0.218711159 139.532673 0.218711159 148.580929 13.0254905 148.700248 13.0254905 148.700248 0.218711159"></polygon>
        <filter x="-4.2%" y="-3.3%" width="116.8%" height="113.1%" filterUnits="objectBoundingBox" id="filter-20">
            <feOffset dx="1" dy="1" in="SourceAlpha" result="shadowOffsetOuter1"></feOffset>
            <feColorMatrix values="0 0 0 0 1   0 0 0 0 1   0 0 0 0 1  0 0 0 0.635735358 0" type="matrix" in="shadowOffsetOuter1"></feColorMatrix>
        </filter>
    </defs>
    <g id="Website" stroke="none" stroke-width="1" fill="none" fill-rule="evenodd">
        <g id="Datanet" transform="translate(-1102, -2872)">
            <g id="coming-soon" transform="translate(1102.6008, 2872.7155)">
                <rect id="Rectangle" fill="#AAA5A5" x="200.913852" y="168.282775" width="2.98539248" height="7.2"></rect>
                <path d="M56.4658844,0.5 L203.399245,126.036426 L203.399245,174.392781 L1.34746647,0.5 L56.4658844,0.5 Z" id="Rectangle" stroke="#B9B9B9" fill="#E8EBF1"></path>
                <g id="COMING-SOON" transform="translate(117.157, 77.2395) rotate(41) translate(-117.157, -77.2395)translate(42.1207, 69.3645)" fill-rule="nonzero">
                    <g id="Path">
                        <use fill="black" fill-opacity="1" filter="url(#filter-2)" xlink:href="#path-1"></use>
                        <use fill="#727579" xlink:href="#path-1"></use>
                    </g>
                    <g id="Shape">
                        <use fill="black" fill-opacity="1" filter="url(#filter-4)" xlink:href="#path-3"></use>
                        <use fill="#727579" xlink:href="#path-3"></use>
                    </g>
                    <g id="Path">
                        <use fill="black" fill-opacity="1" filter="url(#filter-6)" xlink:href="#path-5"></use>
                        <use fill="#727579" xlink:href="#path-5"></use>
                    </g>
                    <g id="Path">
                        <use fill="black" fill-opacity="1" filter="url(#filter-8)" xlink:href="#path-7"></use>
                        <use fill="#727579" xlink:href="#path-7"></use>
                    </g>
                    <g id="Path">
                        <use fill="black" fill-opacity="1" filter="url(#filter-10)" xlink:href="#path-9"></use>
                        <use fill="#727579" xlink:href="#path-9"></use>
                    </g>
                    <g id="Path">
                        <use fill="black" fill-opacity="1" filter="url(#filter-12)" xlink:href="#path-11"></use>
                        <use fill="#727579" xlink:href="#path-11"></use>
                    </g>
                    <g id="Path">
                        <use fill="black" fill-opacity="1" filter="url(#filter-14)" xlink:href="#path-13"></use>
                        <use fill="#727579" xlink:href="#path-13"></use>
                    </g>
                    <g id="Shape">
                        <use fill="black" fill-opacity="1" filter="url(#filter-16)" xlink:href="#path-15"></use>
                        <use fill="#727579" xlink:href="#path-15"></use>
                    </g>
                    <g id="Shape">
                        <use fill="black" fill-opacity="1" filter="url(#filter-18)" xlink:href="#path-17"></use>
                        <use fill="#727579" xlink:href="#path-17"></use>
                    </g>
                    <g id="Path">
                        <use fill="black" fill-opacity="1" filter="url(#filter-20)" xlink:href="#path-19"></use>
                        <use fill="#727579" xlink:href="#path-19"></use>
                    </g>
                </g>
            </g>
        </g>
    </g>
</svg>