<?xml version="1.0" encoding="UTF-8"?>
<svg width="35px" height="35px" viewBox="0 0 35 35" version="1.1" xmlns="http://www.w3.org/2000/svg" xmlns:xlink="http://www.w3.org/1999/xlink">
    <title>databoxes</title>
    <g id="Products" stroke="none" stroke-width="1" fill="none" fill-rule="evenodd">
        <g id="Homepage-Copy" transform="translate(-111.000000, -334.000000)" fill="#B700C0" fill-rule="nonzero">
            <g id="TOOLS-MENU" transform="translate(71.111533, 37.977778)">
                <g id="Group-3" transform="translate(39.896979, 110.022222)">
                    <path d="M33.1336634,209.930413 L28.5015833,209.930413 L28.5015833,202.310511 C28.5015833,202.035383 28.2786522,201.812452 28.0035245,201.812452 C27.7283968,201.812452 27.5054656,202.035383 27.5054656,202.310511 L27.5054656,209.930413 C26.4854411,209.930413 19.9414128,209.930413 18.8509959,209.930413 L18.8509959,207.772158 C18.8509959,207.49703 18.6280648,207.274099 18.3529371,207.274099 L13.3516958,207.274099 C13.3516958,206.661686 13.3516958,196.417213 13.3516958,195.401106 L19.0082497,195.401106 L19.0082497,197.450054 C19.0082497,197.888612 19.3649927,198.245354 19.8035501,198.245354 L21.0536114,198.245354 C21.4921688,198.245354 21.8489781,197.888612 21.8489781,197.450054 L21.8489781,195.401106 L27.505532,195.401106 L27.505532,200.319205 C27.505532,200.594333 27.7284632,200.817264 28.0035909,200.817264 C28.2787186,200.817264 28.5016497,200.594333 28.5016497,200.319205 L28.5016497,195.272209 C28.5016497,194.794072 28.1126326,194.404989 27.6344297,194.404989 C25.1896912,194.404989 19.4268184,194.404989 17.1516192,194.404989 L17.1516192,187.367218 C17.1516192,186.889082 16.762602,186.499998 16.2843991,186.499998 L7.13671837,186.499998 C6.65851547,186.499998 6.26949831,186.889015 6.26949831,187.367218 L6.26949831,190.516013 C6.26949831,190.79114 6.49249585,191.014071 6.76755715,191.014071 C7.04261845,191.014071 7.26561599,190.79114 7.26561599,190.516013 L7.26561599,187.496116 L10.2901613,187.496116 L10.2901613,189.545063 C10.2901613,189.983621 10.6469043,190.340364 11.0854617,190.340364 L12.3355894,190.340364 C12.7741468,190.340364 13.1308897,189.983621 13.1308897,189.545063 L13.1308897,187.496116 L16.1554351,187.496116 L16.1554351,194.404989 L12.8537034,194.404989 C12.5786421,194.404989 12.3556446,194.62792 12.3556446,194.903048 L12.3556446,199.053538 L7.2656824,199.053538 L7.2656824,192.507318 C7.2656824,192.23219 7.04268486,192.009259 6.76762356,192.009259 C6.49256226,192.009259 6.26956472,192.23219 6.26956472,192.507318 L6.26956472,199.053604 L3.33686143,199.053604 C2.85865854,199.053604 2.46964138,199.442555 2.46964138,199.920758 L2.46964138,207.274099 L0.86715365,207.274099 C0.38901716,207.274099 0,207.663116 0,208.141319 L0,219.977189 C0,220.252317 0.222997546,220.475248 0.498058843,220.475248 L5.77190432,220.475248 C6.04696562,220.475248 6.26996316,220.252317 6.26996316,219.977189 C6.26996316,219.702061 6.04696562,219.47913 5.77190432,219.47913 L0.996117686,219.47913 L0.996117686,208.270216 L8.00513377,208.270216 L8.00513377,210.319098 C8.00513377,210.757655 8.36194312,211.114465 8.80043413,211.114465 L10.0504954,211.114465 C10.4890528,211.114465 10.8457958,210.757655 10.8457958,210.319098 L10.8457958,208.270216 L17.8548119,208.270216 L17.8548119,219.47913 L7.76320998,219.47913 C7.48814869,219.47913 7.26515114,219.702061 7.26515114,219.977189 C7.26515114,220.252317 7.48814869,220.475248 7.76320998,220.475248 L33.5026918,220.475248 C33.7778195,220.475248 34.0007506,220.252317 34.0007506,219.977189 L34.0007506,210.797633 C34.0007506,210.319496 33.6117999,209.930413 33.1336634,209.930413 Z M12.1347057,189.34418 L11.286279,189.34418 L11.286279,187.496182 L12.1347057,187.496182 L12.1347057,189.34418 Z M20.852794,195.401106 L20.852794,197.24917 L20.0043674,197.24917 L20.0043674,195.401106 L20.852794,195.401106 Z M7.48642208,200.049722 L8.33491513,200.049722 L8.33491513,201.89772 L7.48642208,201.89772 L7.48642208,200.049722 Z M3.46575906,200.049722 L6.4903044,200.049722 L6.4903044,202.098603 C6.4903044,202.537161 6.84711375,202.893904 7.28560476,202.893904 L8.53573245,202.893904 C8.97428987,202.893904 9.33103281,202.537161 9.33103281,202.098603 L9.33103281,200.049722 L12.3555781,200.049722 L12.3555781,207.274099 C10.4303483,207.274099 5.07488757,207.274099 3.46575906,207.274099 L3.46575906,200.049722 Z M9.84967809,210.11828 L9.00125145,210.11828 L9.00125145,208.270216 L9.84967809,208.270216 L9.84967809,210.11828 Z M26.3520942,210.92653 L26.3520942,212.774594 L25.5036011,212.774594 L25.5036011,210.92653 L26.3520942,210.92653 Z M33.0047657,219.47913 L18.8509959,219.47913 L18.8509959,210.92653 L24.5074834,210.92653 L24.5074834,212.975412 C24.5074834,213.413969 24.8642928,213.770778 25.3028502,213.770778 L26.5529115,213.770778 C26.9914689,213.770778 27.3482783,213.413969 27.3482783,212.975412 L27.3482783,210.92653 L33.0047657,210.92653 L33.0047657,219.47913 L33.0047657,219.47913 Z" id="databoxes"></path>
                </g>
            </g>
        </g>
    </g>
</svg>