<?xml version="1.0" encoding="UTF-8"?>
<svg width="39.8300806px" height="39.8300001px" viewBox="0 0 39.8300806 39.8300001" version="1.1" xmlns="http://www.w3.org/2000/svg" xmlns:xlink="http://www.w3.org/1999/xlink">
    <title>desktop</title>
    <g id="Logos" stroke="none" stroke-width="1" fill="none" fill-rule="evenodd">
        <g id="Artboard" transform="translate(-214.585, -320.0845)" fill="#282828" fill-rule="nonzero">
            <path d="M214.94407,340.128796 C215.161429,340.038761 215.411622,340.08853 215.577978,340.254895 L234.244646,358.921563 C234.411012,359.08792 234.460781,359.338113 234.370746,359.555473 C234.280714,359.772828 234.068609,359.914542 233.833333,359.914542 L215.166667,359.914542 C214.845421,359.914542 214.585,359.654121 214.585,359.332876 L214.585,340.666209 C214.585,340.430933 214.726715,340.218829 214.94407,340.128796 Z M215.893437,342.215522 L215.748333,342.275626 L215.748333,358.666209 L215.833333,358.751209 L232.223917,358.751209 L232.284021,358.606105 L215.893437,342.215522 Z M242.5,320.084542 C242.654277,320.084542 242.80223,320.145819 242.911314,320.254898 L249.577979,326.921563 C249.68706,327.030649 249.748339,327.178603 249.748333,327.332872 L249.748333,333.056792 L249.893437,333.116896 L250.203104,332.80723 C250.826392,332.183927 251.734861,331.940493 252.5863,332.168624 C253.437738,332.396756 254.102793,333.061796 254.330945,333.913229 C254.559096,334.764663 254.315683,335.673137 253.692395,336.296439 L249.773229,340.215605 L249.748333,350.666209 L249.833333,350.751209 L253.833333,350.751209 C254.154598,350.751209 254.415081,351.011649 254.415081,351.332876 L254.415081,356.666209 C254.415081,356.987436 254.154598,357.247876 253.833333,357.247876 L235.166667,357.247876 C234.845421,357.247876 234.585,356.987455 234.585,356.666209 L234.585,354.666209 L234.5,354.581209 L231.251,354.580542 L231.251,353.417542 L234.5,353.417876 L234.585,353.332876 L234.585,351.332876 C234.585,351.01163 234.845421,350.751209 235.166667,350.751209 L248.5,350.751209 L248.585,350.666209 L248.585,341.609042 L248.439896,341.548938 L241.577979,348.410855 C241.496776,348.492065 241.393354,348.547419 241.280745,348.569943 L237.947413,349.23661 C237.756691,349.274767 237.559524,349.215077 237.421994,349.077548 C237.284465,348.940018 237.224775,348.742851 237.262932,348.552134 L237.929599,345.218795 C237.952155,345.106209 238.007512,345.002781 238.088703,344.921547 L248.560104,334.450146 L248.585,327.999542 L248.5,327.914542 L244.5,327.914542 C243.074891,327.912942 241.919934,326.757984 241.918333,325.33278 L241.918333,321.332876 L241.833333,321.247876 L221.833333,321.247876 L221.696801,321.254517 C220.977903,321.323955 220.415873,321.929277 220.415,322.666108 L220.415,341.914542 L219.251,341.914542 L219.251667,322.666209 C219.253267,321.2411 220.408224,320.086143 221.833429,320.084542 Z M237.166667,351.914542 L235.833333,351.914542 L235.748333,351.999542 L235.748333,355.999542 L235.833333,356.084542 L253.166667,356.084542 L253.251667,355.999542 L253.251667,351.999542 L253.166667,351.914542 L251.833333,351.914542 L251.748333,351.999542 L251.748,353.247542 L250.585,353.247542 L250.585,351.999542 L250.5,351.914542 L249.166667,351.914542 L249.081667,351.999542 L249.081,353.247542 L247.918,353.247542 L247.918333,351.999542 L247.833333,351.914542 L246.5,351.914542 L246.415,351.999542 L246.415,353.247542 L245.251,353.247542 L245.251667,351.999542 L245.166667,351.914542 L243.833333,351.914542 L243.748333,351.999542 L243.748,353.247542 L242.585,353.247542 L242.585,351.999542 L242.5,351.914542 L241.166667,351.914542 L241.081667,351.999542 L241.081,353.247542 L239.918,353.247542 L239.918333,351.999542 L239.833333,351.914542 L238.5,351.914542 L238.415,351.999542 L238.415,353.247542 L237.251,353.247542 L237.251667,351.999542 L237.166667,351.914542 Z M218.94407,349.462129 C219.161429,349.372095 219.411622,349.421864 219.577978,349.588228 L224.911313,354.921563 C225.077679,355.08792 225.127448,355.338113 225.037413,355.555473 C224.94738,355.772828 224.735276,355.914542 224.5,355.914542 L219.166667,355.914542 C218.845421,355.914542 218.585,355.654121 218.585,355.332876 L218.585,349.999542 C218.585,349.764266 218.726715,349.552162 218.94407,349.462129 Z M219.893437,351.548937 L219.748333,351.609042 L219.748333,354.666209 L219.833333,354.751209 L222.890583,354.751209 L222.950687,354.606104 L219.893437,351.548937 Z M235.081,345.417542 L235.081,348.580542 L233.918,348.580542 L233.918,345.417542 L235.081,345.417542 Z M238.969521,346.625022 L238.826065,346.668465 L238.599982,347.799549 L238.699994,347.89956 L239.831077,347.673477 L239.874521,347.530022 L238.969521,346.625022 Z M249.893437,334.882272 L249.773229,334.882272 L239.382729,345.272772 L239.382729,345.39298 L241.106563,347.116813 L241.226771,347.116813 L251.617271,336.726313 L251.617271,336.606105 L249.893437,334.882272 Z M234.263203,329.46796 C234.413638,329.401178 234.585362,329.401178 234.735845,329.467981 L240.735812,332.134633 C240.947627,332.22698 241.083507,332.43576 241.081708,332.665537 L241.081708,339.999542 C241.081708,340.229417 240.946376,340.437728 240.736375,340.531127 L234.736395,343.197785 L234.637255,343.231663 C234.517431,343.26221 234.383493,343.251136 234.263848,343.197819 L228.263772,340.531118 C228.053699,340.437756 227.918294,340.229429 227.918294,339.999542 L227.918294,332.666209 C227.916492,332.435694 228.052409,332.227083 228.263388,332.1359 Z M225.626,340.836542 L226.127,341.886542 L223.489,343.145542 L222.989,342.096542 L225.626,340.836542 Z M239.798811,333.614452 L235.132145,335.688535 L235.081667,341.640376 L235.20119,341.718049 L239.867856,339.643882 L239.918333,333.692126 L239.798811,333.614452 Z M229.20119,333.614369 L229.081667,333.692042 L229.081667,339.566209 L233.79881,341.718049 L233.918333,341.640376 L233.918333,335.766209 L229.20119,333.614369 Z M251.947988,333.247861 C251.60182,333.246901 251.269657,333.384483 251.025562,333.629939 L250.716063,333.939438 L250.716063,334.059646 L252.439896,335.783488 L252.560096,335.783488 L252.869763,335.473904 C253.242673,335.100953 253.354219,334.540115 253.152401,334.05287 C252.950585,333.565626 252.475146,333.247916 251.947988,333.247861 Z M234.534524,330.651369 L234.465476,330.651369 L230.107143,332.588536 L230.107143,332.743883 L234.465478,334.680966 L238.892857,332.743883 L238.892857,332.588536 L234.534524,330.651369 Z M223.489,330.182542 L226.127,331.441542 L225.626,332.491542 L222.989,331.231542 L223.489,330.182542 Z M245.494,330.172542 L245.995,331.222542 L243.358,332.481542 L242.857,331.432542 L245.494,330.172542 Z M235.081,324.750542 L235.081,327.914542 L233.918,327.914542 L233.918,324.750542 L235.081,324.750542 Z M243.226771,322.215605 L243.081667,322.275709 L243.081667,325.332876 C243.082595,326.11586 243.717016,326.750281 244.499899,326.751209 L247.557167,326.751209 L247.617271,326.606105 L243.226771,322.215605 Z M228.414,322.750542 L228.414,323.914542 L227.251,323.914542 L227.251,322.750542 L228.414,322.750542 Z M225.748,322.750542 L225.748,323.914542 L224.585,323.914542 L224.585,322.750542 L225.748,322.750542 Z M223.081,322.750542 L223.081,323.914542 L221.918,323.914542 L221.918,322.750542 L223.081,322.750542 Z" id="desktop"></path>
        </g>
    </g>
</svg>