<?xml version="1.0" encoding="UTF-8"?>
<svg width="35.4270544px" height="39.7200084px" viewBox="0 0 35.4270544 39.7200084" version="1.1" xmlns="http://www.w3.org/2000/svg" xmlns:xlink="http://www.w3.org/1999/xlink">
    <title>hero</title>
    <g id="Logos" stroke="none" stroke-width="1" fill="none" fill-rule="evenodd">
        <g id="Artboard" transform="translate(-99.3567, -109.617)" fill="#000000" fill-rule="nonzero">
            <path d="M116.885826,109.644794 C117.012324,109.605522 117.149692,109.607881 117.274545,109.65142 L134.413774,115.650933 C134.637659,115.729303 134.783802,115.926155 134.783802,116.143424 L134.783802,129.496955 C134.77169,136.996533 130.090425,143.80757 122.787409,146.945839 L117.313003,149.287702 C117.158907,149.353398 116.98136,149.353398 116.827474,149.287671 L111.35293,146.945748 C104.049777,143.80757 99.3685147,136.996535 99.3567477,129.496735 L99.3567477,115.476805 C99.3567477,115.252346 99.5123527,115.050667 99.7465703,114.977703 Z M117.014386,110.717483 L100.603438,115.823561 L100.50503,115.95724 L100.50503,129.496955 C100.516983,136.588485 104.941394,143.024846 111.837482,145.988012 L117.015209,148.203109 L117.125341,148.203109 L122.302864,145.988099 C129.198807,143.024845 133.623216,136.588488 133.63552,129.497198 L133.63552,116.605305 L133.541771,116.473165 L117.10223,110.719023 L117.014386,110.717483 Z M116.829246,112.704852 C116.956056,112.665939 117.094059,112.668207 117.218725,112.711341 L124.04606,115.067559 C124.245286,115.131523 124.387327,115.285461 124.422156,115.468568 C124.456621,115.649763 124.381387,115.83505 124.222564,115.954098 C124.060115,116.075605 123.836161,116.106948 123.639978,116.034865 L117.044487,113.75737 L103.460523,117.8978 L103.361595,118.031639 L103.361595,129.491542 C103.371806,135.459048 107.146474,140.874402 113.028604,143.366555 L117.015847,145.049026 L117.124703,145.049026 L121.111758,143.366635 C126.993728,140.874401 130.768393,135.459051 130.778955,129.49179 L130.778956,118.60014 L130.684531,118.467767 L128.981124,117.881289 C128.695464,117.77658 128.555325,117.485214 128.660762,117.225635 C128.768525,116.960329 129.094117,116.819665 129.392778,116.91558 L131.557892,117.660998 C131.781597,117.738225 131.927238,117.931694 131.927238,118.144633 L131.927238,129.491542 C131.915834,135.857312 127.885618,141.639467 121.598288,144.303849 L117.313642,146.111668 C117.159099,146.176907 116.981167,146.176907 116.827016,146.111713 L112.542062,144.303764 C106.254584,141.639466 102.224371,135.857315 102.213312,129.491299 L102.213312,117.560082 C102.213312,117.340167 102.368265,117.141933 102.602475,117.070236 Z M117.071748,118.474962 L119.950326,124.364577 L120.055783,124.441627 L126.494748,125.385962 L121.834516,129.974364 L121.794709,130.09757 L122.893748,136.572962 L117.137687,133.517167 L117.006378,133.517167 L111.249748,136.572962 L112.349355,130.09757 L112.309549,129.974364 L107.648748,125.385962 L114.088282,124.441627 L114.193739,124.364577 L117.071748,118.474962 Z M117.072012,120.688611 L116.946228,120.946023 L114.803748,125.328962 L110.015967,126.031717 L109.737542,126.072577 L109.938078,126.27 L113.403748,129.681962 L112.585585,134.50019 L112.537938,134.780724 L112.789261,134.647283 L117.071748,132.372962 L121.354674,134.647282 L121.605991,134.780724 L121.558353,134.500193 L120.739748,129.681962 L124.205861,126.269998 L124.406388,126.072577 L124.12797,126.031717 L119.339748,125.328962 L117.197798,120.946022 L117.072012,120.688611 Z M125.736449,116.247589 C125.89781,116.115177 126.117432,116.081299 126.310136,116.158979 L127.25194,116.515752 C127.451545,116.585964 127.595823,116.757509 127.631516,116.965001 C127.66761,117.173189 127.58955,117.384237 127.427614,117.516889 C127.266259,117.649579 127.047085,117.683334 126.854184,117.605575 L125.912337,117.249138 C125.712783,117.178661 125.568494,117.007025 125.532804,116.799553 C125.496719,116.591417 125.574729,116.380295 125.736449,116.247589 Z" id="hero"></path>
        </g>
    </g>
</svg>