<?xml version="1.0" encoding="UTF-8"?>
<svg viewBox="0 0 34 34" version="1.1" xmlns="http://www.w3.org/2000/svg" xmlns:xlink="http://www.w3.org/1999/xlink">
    <title>manager</title>
    <g id="Products" stroke="none" stroke-width="1" fill="none" fill-rule="evenodd">
        <g id="Homepage-Copy" transform="translate(-115.000000, -608.000000)" fill="#B700C0" fill-rule="nonzero">
            <g id="TOOLS-MENU" transform="translate(71.111533, 37.977778)">
                <path d="M44.8615291,587.144858 L44.9334747,587.205462 L60.3334437,602.605431 C60.4907507,602.76273 60.5378102,602.999301 60.4526774,603.204827 C60.3797063,603.380992 60.2219326,603.504602 60.0382522,603.536323 L59.9445257,603.544345 L44.5445568,603.544345 C44.2711764,603.544345 44.0443816,603.34489 44.0017564,603.083561 L43.9945579,602.994349 L43.9945579,587.59438 C43.9945579,587.37192 44.1285528,587.171361 44.3340786,587.086228 C44.5102435,587.013257 44.7092175,587.037407 44.8615291,587.144858 Z M45.0945556,588.922146 L45.0945556,602.44435 L58.6167596,602.44435 L45.0945556,588.922146 Z M67.0945113,570.544414 C67.211208,570.544414 67.3240822,570.581494 67.4173762,570.649136 L67.4834293,570.705495 L72.9834182,576.205484 C73.0659331,576.288003 73.1195193,576.394042 73.1376505,576.507842 L73.1444991,576.594402 L73.1444991,581.316624 L73.3999736,581.061149 C73.9318997,580.529211 74.7072054,580.321459 75.4338406,580.516151 C76.1604758,580.710843 76.7280472,581.278402 76.9227563,582.005032 C77.1024878,582.675768 76.939309,583.387983 76.4947668,583.91197 L76.3778051,584.038912 L73.1444991,587.272218 L73.1444991,595.844363 L76.4444925,595.844363 C76.7178729,595.844363 76.9447215,596.04382 76.9873574,596.305149 L76.9945579,596.394362 L76.9945579,600.794353 C76.9945579,601.067734 76.7950473,601.294528 76.533707,601.337154 L76.4444925,601.344352 L61.0445235,601.344352 C60.7711431,601.344352 60.5443483,601.144895 60.5017232,600.883566 L60.4945246,600.794353 L60.4945246,599.144357 L57.7445302,599.144357 L57.7445302,598.044359 L60.4945246,598.044359 L60.4945246,596.394362 C60.4945246,596.120982 60.6939814,595.894187 60.9553108,595.851562 L61.0445235,595.844363 L72.0445013,595.844363 L72.0445013,588.372216 L66.3834315,594.033286 C66.3258467,594.090875 66.2564429,594.134714 66.1804195,594.162019 L66.1023821,594.18371 L63.3523876,594.733709 C63.1720543,594.769789 62.9856214,594.713348 62.8555794,594.583306 C62.7472111,594.474938 62.689955,594.327409 62.6947591,594.176884 L62.7051764,594.086498 L63.2551753,591.336504 C63.2711723,591.256653 63.3046104,591.181688 63.3527126,591.116796 L63.4056,591.055454 L72.0445013,582.416553 L72.0445013,577.144401 L68.744508,577.144401 C67.582852,577.143096 66.631892,576.242586 66.5502021,575.101445 L66.5445124,574.944405 L66.5445124,571.644412 L50.0445457,571.644412 C49.477813,571.645084 49.011388,572.073771 48.9511316,572.624614 L48.9445479,572.74441 L48.9445479,588.694378 L47.8445501,588.694378 L47.8445501,572.74441 C47.8458548,571.582754 48.7463647,570.631794 49.8875058,570.550104 L50.0445457,570.544414 L67.0945113,570.544414 Z M48.1615225,594.844843 L48.2334681,594.905446 L52.6334592,599.305437 C52.7907662,599.462736 52.8378257,599.699308 52.7526929,599.904834 C52.6797219,600.080999 52.5219481,600.20461 52.3382677,600.236333 L52.2445412,600.244354 L47.8445501,600.244354 C47.5711697,600.244354 47.3443749,600.044898 47.3017498,599.783568 L47.2945512,599.694355 L47.2945512,595.294364 C47.2945512,595.071904 47.4285461,594.871346 47.6340719,594.786213 C47.8102369,594.713242 48.0092109,594.737392 48.1615225,594.844843 Z M62.6945202,596.944361 L61.5945224,596.944361 L61.5945224,600.244354 L75.8944936,600.244354 L75.8944936,596.944361 L74.7944958,596.944361 L74.7944958,598.044359 L73.694498,598.044359 L73.694498,596.944361 L72.5945002,596.944361 L72.5945002,598.044359 L71.4945025,598.044359 L71.4945025,596.944361 L70.3945047,596.944361 L70.3945047,598.044359 L69.2945069,598.044359 L69.2945069,596.944361 L68.1945091,596.944361 L68.1945091,598.044359 L67.0945113,598.044359 L67.0945113,596.944361 L65.9945135,596.944361 L65.9945135,598.044359 L64.8945157,598.044359 L64.8945157,596.944361 L63.794518,596.944361 L63.794518,598.044359 L62.6945202,598.044359 L62.6945202,596.944361 Z M48.394549,596.622199 L48.394549,599.144357 L50.9167752,599.144357 L48.394549,596.622199 Z M61.0445235,591.444372 L61.0445235,594.194367 L59.9445257,594.194367 L59.9445257,591.444372 L61.0445235,591.444372 Z M64.132286,592.559976 L63.9457677,593.493118 L64.8789095,593.3066 L64.132286,592.559976 Z M73.1444991,582.872227 L64.5723539,591.444372 L65.9945135,592.866532 L74.5666588,584.294386 L73.1444991,582.872227 Z M60.6301022,578.261453 L60.7175492,578.291767 L65.6675392,580.491763 C65.8389033,580.566472 65.9580044,580.722379 65.9874516,580.902549 L65.9945309,580.994393 L65.9945309,587.044381 C65.9945309,587.230668 65.9005417,587.401997 65.7486339,587.502765 L65.6680204,587.547011 L60.7180304,589.747007 L60.6306339,589.777164 C60.5414427,589.800113 60.4478425,589.8002 60.3586091,589.777415 L60.2711563,589.747007 L55.3211663,587.547011 C55.1509082,587.471344 55.0325348,587.315811 55.0021885,587.136033 L54.9945183,587.044381 L54.9945183,580.994393 C54.9930422,580.807716 55.0874519,580.635814 55.2403564,580.536097 L55.32151,580.492519 L55.320685,580.491763 L60.2706751,578.291767 C60.3844863,578.241244 60.51115,578.231139 60.6301022,578.261453 Z M53.206443,587.641961 L53.680542,588.634159 L51.3783326,589.734217 L50.9042335,588.742019 L53.206443,587.641961 Z M56.0945335,581.840704 L56.0945335,586.686882 L59.9445257,588.398066 L59.9445257,583.551888 L56.0945335,581.840704 Z M64.8945157,581.840773 L61.0445235,583.551888 L61.0445235,588.398066 L64.8945157,586.686882 L64.8945157,581.840773 Z M74.8888894,581.544388 C74.6665121,581.543765 74.4516308,581.617313 74.277287,581.751347 L74.1778095,581.838916 L73.9223351,582.094391 L75.3444947,583.516551 L75.5999692,583.261145 C75.8875573,582.973526 75.9735834,582.540995 75.8179376,582.165221 C75.6622919,581.789447 75.2956223,581.544423 74.8888894,581.544388 Z M60.4945246,579.396234 L56.8989069,580.994393 L60.4945246,582.592484 L64.0901424,580.994393 L60.4945246,579.396234 Z M51.3785216,578.851892 L53.6807311,579.95195 L53.206632,580.944148 L50.9044226,579.84409 L51.3785216,578.851892 Z M69.5979224,578.843939 L70.0720215,579.836137 L67.7698121,580.936194 L67.295713,579.943996 L69.5979224,578.843939 Z M61.0445235,574.394406 L61.0445235,577.144401 L59.9445257,577.144401 L59.9445257,574.394406 L61.0445235,574.394406 Z M67.6445102,572.422248 L67.6445102,574.944405 C67.645182,575.511138 68.0738696,575.977563 68.6247121,576.037819 L68.744508,576.044403 L71.2666654,576.044403 L67.6445102,572.422248 Z M51.1445435,572.74441 L51.1445435,573.844408 L50.0445457,573.844408 L50.0445457,572.74441 L51.1445435,572.74441 Z M53.344539,572.74441 L53.344539,573.844408 L52.2445412,573.844408 L52.2445412,572.74441 L53.344539,572.74441 Z M55.5445346,572.74441 L55.5445346,573.844408 L54.4445368,573.844408 L54.4445368,572.74441 L55.5445346,572.74441 Z" id="manager"></path>
            </g>
        </g>
    </g>
</svg>