<?xml version="1.0" encoding="UTF-8"?>
<svg viewBox="0 0 34 29" version="1.1" xmlns="http://www.w3.org/2000/svg" xmlns:xlink="http://www.w3.org/1999/xlink">
    <title>marketplace</title>
    <g id="Products" stroke="none" stroke-width="1" fill="none" fill-rule="evenodd">
        <g id="Homepage-Copy" transform="translate(-539.000000, -244.000000)" fill="#B700C0" fill-rule="nonzero">
            <g id="TOOLS-MENU" transform="translate(71.111533, 37.977778)">
                <path d="M500.96513,217.209039 C500.96513,217.143647 500.948465,217.079333 500.91679,217.022125 L497.742474,211.282961 L497.742474,208.140678 C497.741408,207.203198 496.981678,206.443497 496.044199,206.442467 L472.886062,206.442467 C471.948918,206.444488 471.189736,207.203727 471.187786,208.140871 L471.189204,211.282316 L468.01347,217.021867 C467.981813,217.079083 467.96513,217.143392 467.96513,217.208781 L467.96513,218.648213 C467.967477,220.377239 469.193932,221.862492 470.891302,222.191846 L470.891302,229.868213 C470.890967,230.162143 470.971724,230.450469 471.124687,230.701463 L470.231753,230.701463 C470.018174,230.701463 469.845035,230.874603 469.845035,231.088182 L469.845035,232.564867 C469.845745,233.396205 470.519387,234.070019 471.350724,234.070943 L497.579536,234.070943 C498.410723,234.07002 499.084302,233.39644 499.085226,232.565254 L499.085226,231.088568 C499.085226,230.874989 498.912086,230.701849 498.698507,230.701849 L497.805574,230.701849 C497.958536,230.450856 498.039293,230.16253 498.038958,229.868599 L498.038958,222.192232 C499.736328,221.862879 500.962783,220.377626 500.96513,218.648599 L500.96513,217.209039 Z M499.922536,216.82232 L494.396906,216.82232 L492.408978,211.749859 L497.117279,211.749859 L499.922536,216.82232 Z M493.74638,218.648406 C493.74638,220.214651 492.476688,221.484344 490.910443,221.484344 C489.344198,221.484344 488.074505,220.214651 488.074505,218.648406 L488.074505,217.595758 L493.74638,217.595758 L493.74638,218.648406 Z M482.032734,211.749988 L480.930585,216.822449 L475.364349,216.822449 L477.352277,211.749988 L482.032734,211.749988 Z M491.578242,211.749988 L493.566169,216.822449 L488.074505,216.822449 L488.074505,211.749988 L491.578242,211.749988 Z M487.301068,216.82232 L481.722263,216.82232 L482.824411,211.749859 L487.301068,211.749859 L487.301068,216.82232 Z M475.18388,217.595758 L480.855755,217.595758 L480.855755,218.648406 C480.855755,220.214651 479.586063,221.484344 478.019818,221.484344 C476.453573,221.484344 475.18388,220.214651 475.18388,218.648406 L475.18388,217.595758 Z M481.629193,217.595758 L487.301068,217.595758 L487.301068,218.648406 C487.301068,220.214651 486.031375,221.484344 484.46513,221.484344 C482.898885,221.484344 481.629193,220.214651 481.629193,218.648406 L481.629193,217.595758 Z M472.233087,207.487896 C472.405683,207.313661 472.640813,207.215719 472.886062,207.215904 L496.04407,207.215904 C496.554648,207.216366 496.968468,207.6301 496.969036,208.140678 L496.969036,210.976615 L471.962578,210.976615 L471.961223,208.140678 C471.960913,207.895485 472.058825,207.660384 472.233087,207.487896 Z M471.814142,211.749988 L476.521283,211.749988 L474.533355,216.822449 L469.007788,216.822449 L471.814142,211.749988 Z M468.738568,218.648471 L468.738568,217.595758 L474.410443,217.595758 L474.410443,218.648471 C474.410443,220.214716 473.14075,221.484408 471.574505,221.484408 C470.00826,221.484408 468.738568,220.214716 468.738568,218.648471 L468.738568,218.648471 Z M498.311788,232.565254 C498.311327,232.969474 497.983757,233.297044 497.579536,233.297506 L471.350724,233.297506 C470.946504,233.297044 470.618934,232.969474 470.618472,232.565254 L470.618472,231.475287 L479.669818,231.475287 L479.923119,232.136254 C479.983511,232.293777 480.167074,232.77318 480.672773,232.77318 L488.256972,232.77318 C488.762736,232.77318 488.946234,232.293777 489.006562,232.136318 L489.259863,231.475287 L498.311788,231.475287 L498.311788,232.565254 Z M488.431833,231.475287 L488.284558,231.859621 C488.267337,231.908174 488.245765,231.955071 488.220105,231.999742 L480.709962,231.999742 C480.684293,231.955076 480.662721,231.908177 480.645509,231.859621 L480.498234,231.475287 L488.431833,231.475287 Z M472.497345,230.701849 C472.037626,230.700962 471.665272,230.328319 471.66474,229.868599 L471.66474,222.255525 C472.994659,222.22121 474.198099,221.458734 474.797161,220.270885 C475.409518,221.489041 476.656409,222.25781 478.019818,222.25781 C479.383227,222.25781 480.630118,221.489041 481.242474,220.270885 C481.85483,221.489041 483.101721,222.25781 484.46513,222.25781 C485.828539,222.25781 487.07543,221.489041 487.687786,220.270885 C488.300143,221.489041 489.547034,222.25781 490.910443,222.25781 C492.273852,222.25781 493.520743,221.489041 494.133099,220.270885 C494.732162,221.458734 495.935601,222.22121 497.265521,222.255525 L497.265521,229.868599 C497.264989,230.328319 496.892634,230.700962 496.432915,230.701849 L472.497345,230.701849 Z M497.355755,221.484408 C495.790232,221.482668 494.521558,220.213994 494.519818,218.648471 L494.519818,217.595758 L500.191693,217.595758 L500.191693,218.648471 C500.189952,220.213994 498.921279,221.482668 497.355755,221.484408 Z" id="marketplace"></path>
            </g>
        </g>
    </g>
</svg>