<?xml version="1.0" encoding="UTF-8"?>
<svg viewBox="0 0 31 34" version="1.1" xmlns="http://www.w3.org/2000/svg" xmlns:xlink="http://www.w3.org/1999/xlink">
    <title>nfts</title>
    <g id="Products" stroke="none" stroke-width="1" fill="none" fill-rule="evenodd">
        <g id="Homepage-Copy" transform="translate(-699.000000, -157.000000)" fill="#B700C0" fill-rule="nonzero">
            <g id="FINANCIALS-MENU" transform="translate(202.292139, 37.977778)">
                <path d="M509.610084,120.025464 C511.216372,119.09208 513.199906,119.09208 514.806195,120.025464 L514.806195,120.025464 L524.627861,125.744908 C526.224691,126.681572 527.206276,128.393639 527.207861,130.244908 L527.207861,130.244908 L527.207861,141.734908 C527.205292,143.585186 526.223837,145.29597 524.627861,146.232131 L524.627861,146.232131 L514.805639,151.954353 C513.199601,152.888665 511.215566,152.888665 509.609528,151.954353 L509.609528,151.954353 L499.787861,146.234908 C498.191032,145.298245 497.209447,143.586178 497.207861,141.734908 L497.207861,141.734908 L497.207861,130.244908 C497.210119,128.394546 498.191373,126.683532 499.787306,125.747131 L499.787306,125.747131 Z M514.24675,120.984908 C512.986463,120.252084 511.429816,120.252084 510.169528,120.984908 L510.169528,120.984908 L500.346195,126.707131 C499.091316,127.443867 498.320099,128.789745 498.318973,130.244908 L498.318973,130.244908 L498.318973,141.734908 C498.319987,143.190102 499.091233,144.536032 500.346195,145.272686 L500.346195,145.272686 L510.168973,150.994908 C511.429417,151.727153 512.985751,151.727153 514.246195,150.994908 L514.246195,150.994908 L524.069528,145.272686 C525.32449,144.536032 526.095736,143.190102 526.09675,141.734908 L526.09675,141.734908 L526.09675,130.244908 C526.095621,128.789602 525.324148,127.443646 524.068973,126.707131 L524.068973,126.707131 Z M510.728973,121.945464 C511.645443,121.422099 512.77028,121.422099 513.68675,121.945464 L513.68675,121.945464 L523.509528,127.667131 C524.423698,128.204005 524.985299,129.184748 524.985639,130.244908 L524.985639,130.244908 L524.985639,141.734908 C524.985106,142.794727 524.423786,143.775135 523.510084,144.312131 L523.510084,144.312131 L513.68675,150.034353 C512.772951,150.567686 511.642772,150.567686 510.728973,150.034353 L510.728973,150.034353 L500.906195,144.312686 C499.992025,143.775811 499.430423,142.795069 499.430084,141.734908 L499.430084,141.734908 L499.430084,130.244908 C499.430849,129.184863 499.992621,128.204403 500.90675,127.667686 L500.90675,127.667686 Z M513.127861,122.904908 C512.559405,122.573098 511.856318,122.573098 511.287861,122.904908 L511.287861,122.904908 L501.465639,128.627131 C500.892641,128.964529 500.541195,129.579954 500.541195,130.244908 L500.541195,130.244908 L500.541195,141.734908 C500.541195,142.399863 500.892641,143.015288 501.465639,143.352686 L501.465639,143.352686 L511.287861,149.074908 C511.858006,149.400417 512.557717,149.400417 513.127861,149.074908 L513.127861,149.074908 L522.950639,143.352686 C523.523341,143.015067 523.874528,142.39972 523.874528,141.734908 L523.874528,141.734908 L523.874528,130.244908 C523.874528,129.579954 523.523082,128.964529 522.950084,128.627131 L522.950084,128.627131 Z M513.874528,143.767686 C514.181353,143.767686 514.430084,144.016417 514.430084,144.323242 C514.430084,144.630067 514.181353,144.878797 513.874528,144.878797 L513.874528,144.878797 L510.541195,144.878797 C510.23437,144.878797 509.985639,144.630067 509.985639,144.323242 C509.985639,144.016417 510.23437,143.767686 510.541195,143.767686 L510.541195,143.767686 Z M518.318973,143.767686 C518.625797,143.767686 518.874528,144.016417 518.874528,144.323242 C518.874528,144.630067 518.625797,144.878797 518.318973,144.878797 L518.318973,144.878797 L516.09675,144.878797 C515.789925,144.878797 515.541195,144.630067 515.541195,144.323242 C515.541195,144.016417 515.789925,143.767686 516.09675,143.767686 L516.09675,143.767686 Z M506.652306,137.101019 C506.959131,137.101019 507.207861,137.34975 507.207861,137.656575 L507.207861,137.656575 L507.207861,144.323242 C507.207861,144.630067 506.959131,144.878797 506.652306,144.878797 C506.345481,144.878797 506.09675,144.630067 506.09675,144.323242 L506.09675,144.323242 L506.09675,137.656575 C506.09675,137.34975 506.345481,137.101019 506.652306,137.101019 Z M513.318973,141.545464 C513.625797,141.545464 513.874528,141.794195 513.874528,142.101019 C513.874528,142.407844 513.625797,142.656575 513.318973,142.656575 L513.318973,142.656575 L509.985639,142.656575 C509.678814,142.656575 509.430084,142.407844 509.430084,142.101019 C509.430084,141.794195 509.678814,141.545464 509.985639,141.545464 L509.985639,141.545464 Z M520.541195,141.545464 C520.84802,141.545464 521.09675,141.794195 521.09675,142.101019 C521.09675,142.407844 520.84802,142.656575 520.541195,142.656575 L520.541195,142.656575 L515.541195,142.656575 C515.23437,142.656575 514.985639,142.407844 514.985639,142.101019 C514.985639,141.794195 515.23437,141.545464 515.541195,141.545464 L515.541195,141.545464 Z M504.430084,141.545464 C504.736909,141.545464 504.985639,141.794195 504.985639,142.101019 C504.985639,142.407844 504.736909,142.656575 504.430084,142.656575 L504.430084,142.656575 L503.318973,142.656575 C503.012148,142.656575 502.763417,142.407844 502.763417,142.101019 C502.763417,141.794195 503.012148,141.545464 503.318973,141.545464 L503.318973,141.545464 Z M513.874528,139.323242 C514.181353,139.323242 514.430084,139.571972 514.430084,139.878797 C514.430084,140.185622 514.181353,140.434353 513.874528,140.434353 L513.874528,140.434353 L510.541195,140.434353 C510.23437,140.434353 509.985639,140.185622 509.985639,139.878797 C509.985639,139.571972 510.23437,139.323242 510.541195,139.323242 L510.541195,139.323242 Z M521.09675,139.323242 C521.403575,139.323242 521.652306,139.571972 521.652306,139.878797 C521.652306,140.185622 521.403575,140.434353 521.09675,140.434353 L521.09675,140.434353 L516.09675,140.434353 C515.789925,140.434353 515.541195,140.185622 515.541195,139.878797 C515.541195,139.571972 515.789925,139.323242 516.09675,139.323242 L516.09675,139.323242 Z M504.430084,139.323242 C504.736909,139.323242 504.985639,139.571972 504.985639,139.878797 C504.985639,140.185622 504.736909,140.434353 504.430084,140.434353 L504.430084,140.434353 L503.318973,140.434353 C503.012148,140.434353 502.763417,140.185622 502.763417,139.878797 C502.763417,139.571972 503.012148,139.323242 503.318973,139.323242 L503.318973,139.323242 Z M514.430084,137.101019 C514.736909,137.101019 514.985639,137.34975 514.985639,137.656575 C514.985639,137.9634 514.736909,138.212131 514.430084,138.212131 L514.430084,138.212131 L508.874528,138.212131 C508.567703,138.212131 508.318973,137.9634 508.318973,137.656575 C508.318973,137.34975 508.567703,137.101019 508.874528,137.101019 L508.874528,137.101019 Z M504.430084,137.101019 C504.736909,137.101019 504.985639,137.34975 504.985639,137.656575 C504.985639,137.9634 504.736909,138.212131 504.430084,138.212131 L504.430084,138.212131 L503.318973,138.212131 C503.012148,138.212131 502.763417,137.9634 502.763417,137.656575 C502.763417,137.34975 503.012148,137.101019 503.318973,137.101019 L503.318973,137.101019 Z M507.763417,128.767686 C508.070242,128.767686 508.318973,129.016417 508.318973,129.323242 L508.318973,129.323242 L508.318973,134.878797 C508.319048,135.128558 508.152443,135.347667 507.91175,135.414353 C507.863413,135.427575 507.81353,135.434353 507.763417,135.434353 C507.568425,135.434353 507.387727,135.332054 507.287306,135.164908 L507.287306,135.164908 L504.985639,131.328797 L504.985639,134.878797 C504.985639,135.185622 504.736909,135.434353 504.430084,135.434353 C504.123259,135.434353 503.874528,135.185622 503.874528,134.878797 L503.874528,134.878797 L503.874528,129.323242 C503.874607,129.073661 504.041112,128.854766 504.281616,128.788068 C504.522119,128.721369 504.777582,128.82324 504.906195,129.037131 L504.906195,129.037131 L507.207861,132.873242 L507.207861,129.323242 C507.207861,129.016417 507.456592,128.767686 507.763417,128.767686 Z M513.874528,128.767686 C514.181353,128.767686 514.430084,129.016417 514.430084,129.323242 C514.430084,129.630067 514.181353,129.878797 513.874528,129.878797 L513.874528,129.878797 L511.09675,129.878797 L511.09675,131.545464 L512.207861,131.545464 C512.514686,131.545464 512.763417,131.794195 512.763417,132.101019 C512.763417,132.407844 512.514686,132.656575 512.207861,132.656575 L512.207861,132.656575 L511.09675,132.656575 L511.09675,134.878797 C511.09675,135.185622 510.84802,135.434353 510.541195,135.434353 C510.23437,135.434353 509.985639,135.185622 509.985639,134.878797 L509.985639,134.878797 L509.985639,129.323242 C509.985639,129.016417 510.23437,128.767686 510.541195,128.767686 L510.541195,128.767686 Z M519.430084,128.767686 C519.736909,128.767686 519.985639,129.016417 519.985639,129.323242 C519.985639,129.630067 519.736909,129.878797 519.430084,129.878797 L519.430084,129.878797 L518.318973,129.878797 L518.318973,134.878797 C518.318973,135.185622 518.070242,135.434353 517.763417,135.434353 C517.456592,135.434353 517.207861,135.185622 517.207861,134.878797 L517.207861,134.878797 L517.207861,129.878797 L516.09675,129.878797 C515.789925,129.878797 515.541195,129.630067 515.541195,129.323242 C515.541195,129.016417 515.789925,128.767686 516.09675,128.767686 L516.09675,128.767686 Z" id="nfts"></path>
            </g>
        </g>
    </g>
</svg>