<?xml version="1.0" encoding="UTF-8"?>
<svg width="39.8183525px" height="39.8200238px" viewBox="0 0 39.8183525 39.8200238" version="1.1" xmlns="http://www.w3.org/2000/svg" xmlns:xlink="http://www.w3.org/1999/xlink">
    <title>notary</title>
    <g id="Logos" stroke="none" stroke-width="1" fill="none" fill-rule="evenodd">
        <g id="Artboard" transform="translate(-333.09, -434.09)" fill="#000000" fill-rule="nonzero">
            <path d="M352.063469,434.090411 C352.385001,434.090411 352.645713,434.351122 352.645713,434.672654 C352.645713,434.994186 352.385001,435.254898 352.063469,435.254898 L350.947866,435.254795 L350.716139,435.449219 L350.689776,437.200099 L350.87452,437.430044 C353.366295,437.575981 355.722944,438.203749 357.86202,439.300341 L358.15075,439.241055 L359.031957,437.764422 L358.979443,437.466547 L357.971289,436.853982 C357.692791,436.693135 357.597321,436.336886 357.758028,436.058421 C357.897008,435.817604 358.185599,435.709765 358.445766,435.796585 L358.564569,435.851568 L358.610457,435.878065 C358.625608,435.886814 358.625608,435.886814 358.649611,435.900675 C358.722086,435.942526 358.722086,435.942526 358.772384,435.97157 C358.848436,436.015486 358.848436,436.015486 359.001148,436.10367 C359.431825,436.352364 359.431825,436.352364 359.771559,436.548543 L360.14673,436.765186 C361.154327,437.347022 361.154327,437.347022 361.542143,437.570966 L361.687441,437.654868 C361.801639,437.720812 361.801639,437.720812 361.941417,437.801526 C362.219919,437.962375 362.31539,438.318624 362.154682,438.597089 C361.993663,438.875484 361.636968,438.970778 361.359237,438.81035 L360.393137,438.252468 L360.095246,438.304982 L359.209362,439.786634 L359.254577,440.078319 C362.515997,442.202334 364.940596,445.269654 366.187738,448.875291 C366.292917,449.179175 366.131804,449.511009 365.828313,449.615867 C365.523495,449.72126 365.193058,449.560715 365.087584,449.256267 C362.881145,442.878298 356.825957,438.589468 350.108763,438.589468 C341.400669,438.589468 334.254487,445.72182 334.254487,454.443744 C334.254487,463.162982 341.376279,470.306228 350.108763,470.306228 C351.15873,470.306228 352.208826,470.202669 353.229727,469.998406 C353.5454,469.935328 353.852001,470.139657 353.914856,470.454788 C353.978002,470.770235 353.773613,471.07699 353.458329,471.140104 C352.361842,471.359482 351.234873,471.470715 350.108763,471.470715 C348.092838,471.470715 346.094849,471.101198 344.162451,470.376694 L343.940888,470.406279 L340.897881,473.1862 C340.039288,473.975931 338.905761,474.131679 338.000872,473.593034 C337.093235,473.052369 336.690802,471.977686 336.9772,470.843324 L338.051033,466.617227 C334.839369,463.172634 333.09,458.919288 333.09,454.443745 C333.09,448.620094 336.070163,443.239402 340.985446,440.101389 L341.079558,439.821186 L340.249197,438.333068 L339.964979,438.229614 L338.929744,438.796774 C338.651004,438.957287 338.295078,438.861634 338.134115,438.583338 C337.972638,438.303254 338.070912,437.947896 338.360792,437.780314 C338.376322,437.771349 338.376322,437.771349 338.38754,437.764874 C338.406771,437.753773 338.406771,437.753773 338.44798,437.729984 C338.521791,437.687377 338.521791,437.687377 338.572922,437.657861 C338.649775,437.613497 338.649775,437.613497 338.803636,437.52468 C339.096671,437.355523 339.096671,437.355523 339.287215,437.24553 C339.523379,437.109203 339.523379,437.109203 339.954679,436.860231 C341.025892,436.241865 341.025892,436.241865 341.411191,436.019447 C341.555481,435.936155 341.555481,435.936155 341.735794,435.832068 C342.014693,435.671153 342.370283,435.766496 342.531344,436.045364 C342.691895,436.323843 342.596409,436.679917 342.31792,436.840922 L341.35246,437.39824 L341.248996,437.682479 L342.0825,439.178853 L342.356649,439.285887 C344.543841,438.200337 346.868916,437.584275 349.279729,437.4673 L349.500452,437.271614 L349.525289,435.512657 L349.33088,435.280953 L348.151208,435.254487 C347.829655,435.254487 347.568941,434.993778 347.568941,434.672244 C347.568941,434.350712 347.829653,434.09 348.151185,434.09 Z M361.807665,452.713163 C362.816852,451.893586 364.138697,451.579833 365.437437,451.852068 C367.109124,452.202253 368.437758,453.570424 368.740417,455.253414 C368.907835,456.181573 368.780936,457.108755 368.373453,457.937278 C367.283985,460.150391 366.753325,462.164837 366.753325,464.094185 L366.753325,464.86023 L366.947753,465.091936 L370.303702,465.118297 C371.73963,465.118297 372.908353,466.28702 372.908353,467.722947 L372.908353,469.498759 C372.908353,469.820291 372.647641,470.081003 372.326109,470.081003 L371.937548,470.081003 L371.705841,470.27543 L371.679481,473.326521 C371.679481,473.648052 371.418769,473.908764 371.097237,473.908764 L357.935794,473.908764 C357.614263,473.908764 357.353551,473.648052 357.353551,473.326521 L357.353551,470.33907 L357.159124,470.107363 L356.707333,470.081003 C356.385801,470.081003 356.125089,469.820291 356.125089,469.498759 L356.125089,467.722947 C356.125089,466.286912 357.29351,465.118297 358.72933,465.118297 L362.013433,465.118297 L362.24514,464.923869 L362.2715,464.077363 C362.2715,462.119686 361.735323,460.066659 360.67929,457.975461 C360.379744,457.383327 360.221192,456.715516 360.221192,456.045996 C360.221192,454.746237 360.799221,453.531919 361.807665,452.713163 Z M370.256927,470.081003 L358.776105,470.081003 L358.544398,470.27543 L358.518038,472.48621 L358.712465,472.717917 L370.256927,472.744277 L370.488633,472.54985 L370.514994,470.33907 L370.320567,470.107363 L370.256927,470.081003 Z M339.284589,467.632664 L339.015082,467.721204 L338.106196,471.129377 C337.947597,471.757326 338.128866,472.313651 338.596726,472.592577 C339.063184,472.870557 339.635631,472.76566 340.109648,472.328871 L342.543383,470.091245 L342.533064,469.738447 C341.718173,469.287078 340.045287,468.202923 339.369771,467.648595 L339.284589,467.632664 Z M370.303702,466.282784 L358.72933,466.282784 C357.935143,466.282784 357.289576,466.928533 357.289576,467.722947 L357.289576,468.658449 L357.484004,468.890155 L371.485799,468.916516 L371.717505,468.722089 L371.743866,467.722947 C371.743866,466.928442 371.098207,466.282784 370.303702,466.282784 Z M350.106736,441.296 C355.40413,441.304146 360.167742,444.470487 362.224201,449.334964 C362.349553,449.630865 362.210881,449.972519 361.914685,450.097592 C361.618628,450.222727 361.277256,450.084171 361.151877,449.787924 C361.092228,449.646797 361.042078,449.539109 360.91342,449.274692 L360.904876,449.257133 L360.899036,449.245126 L360.884731,449.215691 L360.59497,449.096835 L359.374159,449.768399 C359.09541,449.928917 358.739485,449.833266 358.578521,449.554967 C358.418043,449.276616 358.513549,448.920548 358.792026,448.759549 L359.941094,448.096272 L360.038982,447.798765 C359.167732,446.460036 358.083161,445.373415 356.827865,444.523455 L356.517467,444.565389 L355.793712,445.761419 C355.632664,446.039863 355.27597,446.135166 354.998236,445.974735 C354.719704,445.813868 354.624228,445.457621 354.784938,445.179154 L355.450578,444.026451 L355.38645,443.719755 C353.967421,442.99992 352.486087,442.60293 350.965712,442.494965 L350.718021,442.686529 L350.689365,444.080601 C350.689365,444.402133 350.428654,444.662845 350.107122,444.662845 C349.78559,444.662845 349.524878,444.402133 349.524878,444.080601 L349.524878,442.763872 L349.316138,442.530362 C347.724795,442.615519 346.249716,443.012781 344.881888,443.679748 L344.763384,443.96944 L345.428929,445.179211 C345.589607,445.457625 345.494125,445.813871 345.215612,445.974726 C344.937849,446.135174 344.581174,446.039871 344.42003,445.761261 L343.758192,444.615121 L343.46029,444.517456 C342.13214,445.385744 341.045601,446.47271 340.191854,447.729833 L340.233596,448.040486 L341.421957,448.759635 C341.700324,448.920571 341.795767,449.276656 341.635133,449.555278 C341.47431,449.833333 341.118479,449.92895 340.839445,449.768267 L339.702969,449.112267 L339.396505,449.176137 C338.676064,450.590303 338.279713,452.064852 338.17127,453.587979 L338.362825,453.835711 L339.742337,453.864373 C340.063869,453.864373 340.32458,454.125085 340.32458,454.446616 C340.32458,454.768148 340.063869,455.02886 339.742337,455.02886 L338.428942,455.02886 L338.195431,455.237607 C338.280594,456.828252 338.677084,458.302544 339.342637,459.669846 L339.632376,459.788501 L340.839714,459.124402 C341.118014,458.962937 341.474082,459.058411 341.635174,459.337619 C341.795897,459.616109 341.700427,459.972359 341.421907,460.133218 L340.276804,460.794472 L340.179073,461.092228 C341.045896,462.420416 342.132077,463.507776 343.389014,464.363086 L343.699812,464.321499 L344.42013,463.13139 C344.581593,462.852112 344.936345,462.756896 345.215666,462.918129 C345.494221,463.079009 345.589594,463.434938 345.428839,463.71377 L344.770682,464.853724 L344.834392,465.160101 C346.249103,465.882353 347.724462,466.280022 349.248373,466.389181 L349.496202,466.197647 L349.524878,464.810993 C349.524878,464.489461 349.78559,464.228749 350.107122,464.228749 C350.428654,464.228749 350.689365,464.489461 350.689365,464.810993 L350.689365,466.144339 L350.898073,466.377846 C351.817513,466.340926 352.665009,466.189978 353.496175,465.951022 C353.604424,465.904942 353.687232,465.886393 353.772401,465.886393 C354.093799,465.886393 354.35436,466.147021 354.354645,466.468864 C354.354645,466.734583 354.1864,466.961358 353.938621,467.034868 C352.68288,467.407924 351.39463,467.596999 350.108763,467.596999 C342.904054,467.596999 336.989811,461.70317 336.965971,454.48741 L336.961,454.441 C336.963199,454.437372 336.96376,454.433105 336.964601,454.426704 L336.969066,454.118025 C337.153867,447.037688 342.98335,441.309475 350.090657,441.299621 Z M365.198194,452.991328 C364.231628,452.790611 363.285635,453.012906 362.541733,453.616853 C361.807141,454.213737 361.385679,455.099339 361.385679,456.045996 C361.385679,456.540646 361.497942,457.014218 361.718762,457.450494 C362.858625,459.707603 363.435987,461.937249 363.435987,464.077363 L363.435987,464.86023 L363.630414,465.091936 L365.330771,465.118297 L365.562478,464.92387 L365.588838,464.094185 C365.588838,461.984534 366.157069,459.803326 367.328285,457.423279 C367.625081,456.820301 367.717048,456.14069 367.59444,455.459881 L367.538416,455.21139 C367.233982,454.092635 366.320463,453.226636 365.198194,452.991328 Z M350.106301,447.578048 C350.427833,447.578048 350.688545,447.838759 350.688545,448.160291 L350.688545,451.814697 L350.824374,452.02861 C351.650899,452.30331 352.263743,452.90777 352.513663,453.681898 L352.70628,453.843442 L354.075208,453.86068 C354.39674,453.86068 354.657452,454.121392 354.657452,454.442924 C354.657452,454.764455 354.39674,455.025167 354.075208,455.025167 L352.758787,455.025167 L352.545791,455.159025 C352.177269,456.248081 351.216144,456.958538 350.127227,456.958538 C348.739003,456.958538 347.609151,455.828492 347.609151,454.440052 C347.609151,453.363651 348.310995,452.412196 349.346354,452.072908 L349.506936,451.880482 L349.524058,448.160291 C349.524058,447.838759 349.78477,447.578048 350.106301,447.578048 Z M350.127227,453.100414 C349.38115,453.100414 348.773638,453.700912 348.773638,454.440052 C348.773638,455.186869 349.380635,455.794051 350.127227,455.794051 C350.871036,455.794051 351.47616,455.191233 351.480094,454.446903 C351.478958,453.701043 350.874393,453.100414 350.127227,453.100414 Z" id="notary"></path>
        </g>
    </g>
</svg>