<?xml version="1.0" encoding="UTF-8"?>
<svg viewBox="0 0 34 34" version="1.1" xmlns="http://www.w3.org/2000/svg" xmlns:xlink="http://www.w3.org/1999/xlink">
    <title>pipeline</title>
    <g id="Products" stroke="none" stroke-width="1" fill="none" fill-rule="evenodd">
        <g id="Homepage-Copy" transform="translate(-539.000000, -332.000000)" fill="#B700C0" fill-rule="nonzero">
            <g id="TOOLS-MENU" transform="translate(71.111533, 37.977778)">
                <path d="M484.275799,294.306758 C487.060791,294.306758 489.339839,296.514456 489.454882,299.271555 L489.459438,299.490332 L489.459438,299.856625 L489.723094,299.856625 C489.990362,299.856625 490.206925,300.073187 490.206925,300.340456 C490.206925,300.578028 490.035814,300.775536 489.810078,300.816494 L489.723094,300.824287 L489.459438,300.824287 L489.459438,301.636027 L490.726882,301.636027 C493.511874,301.636027 495.790922,303.843725 495.905965,306.600944 L495.910521,306.81973 L495.910521,307.267629 L496.174177,307.267629 C496.441445,307.267629 496.658008,307.484192 496.658008,307.75146 C496.658008,307.989032 496.486897,308.18654 496.261161,308.227498 L496.174177,308.235291 L495.910521,308.235291 L495.910521,313.194368 L496.174177,313.194368 C496.441445,313.194368 496.658008,313.410931 496.658008,313.678199 C496.658008,313.915771 496.486897,314.11328 496.261161,314.154237 L496.174177,314.162031 L495.910521,314.162031 L495.910521,314.362143 C495.910521,315.146699 496.513389,315.793154 497.280179,315.86256 L497.417107,315.868729 L501.227504,315.868729 C501.494772,315.868729 501.711335,316.085292 501.711335,316.35256 C501.711335,316.590132 501.540224,316.787641 501.314488,316.828598 L501.227504,316.836392 L497.417107,316.836392 C496.107341,316.836392 495.032059,315.81344 494.948132,314.524581 L494.942859,314.362143 L494.942859,314.162031 L493.201066,314.162031 L493.201066,314.362143 C493.201066,316.616472 494.979506,318.463164 497.207004,318.573015 L497.417107,318.578184 L501.227504,318.578184 C501.494772,318.578184 501.711335,318.794811 501.711335,319.06208 C501.711335,319.299652 501.540224,319.49716 501.314488,319.538118 L501.227504,319.545911 L497.417107,319.545911 C494.632115,319.545911 492.353007,317.338213 492.23796,314.580994 L492.233404,314.362208 L492.233404,314.162095 L491.969683,314.162095 C491.702415,314.162095 491.485852,313.945532 491.485852,313.678264 C491.485852,313.440692 491.656964,313.243184 491.8827,313.202226 L491.969683,313.194433 L492.233404,313.194433 L492.233404,308.235356 L491.969683,308.235356 C491.702415,308.235356 491.485852,308.018793 491.485852,307.751525 C491.485852,307.513953 491.656964,307.316445 491.8827,307.275487 L491.969683,307.267693 L492.233404,307.267693 L492.233404,306.819795 C492.233404,306.035239 491.630593,305.388784 490.86381,305.319378 L490.726882,305.313209 L489.459438,305.313209 L489.459438,320.751102 L489.723094,320.751102 C489.990362,320.751102 490.206925,320.967665 490.206925,321.234934 C490.206925,321.472506 490.035814,321.670014 489.810078,321.710972 L489.723094,321.718765 L489.459438,321.718765 L489.459438,322.152665 C489.459438,322.93722 490.062306,323.583675 490.829096,323.653082 L490.966024,323.659251 L494.439094,323.659251 C494.706362,323.659251 494.922925,323.875814 494.922925,324.143082 C494.922925,324.380654 494.751813,324.578162 494.526078,324.61912 L494.439094,324.626913 L490.966024,324.626913 C489.656258,324.626913 488.580975,323.603962 488.497048,322.315102 L488.491776,322.152665 L488.491776,321.718765 L486.749983,321.718765 L486.749983,322.152665 C486.749983,324.406994 488.528422,326.253686 490.755921,326.363536 L490.966024,326.368706 L501.227504,326.368706 C501.494772,326.368706 501.711335,326.585269 501.711335,326.852537 C501.711335,327.090109 501.540224,327.287617 501.314488,327.328575 L501.227504,327.336368 L490.966024,327.336368 C488.181032,327.336368 485.901923,325.12867 485.786877,322.371451 L485.782321,322.152665 L485.782321,321.718765 L485.5186,321.718765 C485.251396,321.718765 485.034769,321.502202 485.034769,321.234934 C485.034769,320.997362 485.205931,320.799854 485.431633,320.758896 L485.5186,320.751102 L485.782321,320.751102 L485.782321,305.315725 C485.038306,305.358165 484.437095,305.942965 484.368939,306.679927 L484.362502,306.819795 L484.362502,307.267693 L484.626157,307.267693 C484.893361,307.267693 485.109989,307.484256 485.109989,307.751525 C485.109989,307.989097 484.938826,308.186605 484.713124,308.227563 L484.626157,308.235356 L484.362502,308.235356 L484.362502,316.859164 L484.626157,316.859164 C484.893361,316.859164 485.109989,317.075727 485.109989,317.342995 C485.109989,317.580567 484.938826,317.778075 484.713124,317.819033 L484.626157,317.826826 L484.362502,317.826826 L484.362502,317.984297 C484.362502,320.76929 482.154864,323.048337 479.397649,323.16338 L479.178863,323.167936 L473.106136,323.167936 C472.838932,323.167936 472.622304,322.951373 472.622304,322.684105 C472.622304,322.446533 472.793467,322.249025 473.019169,322.208067 L473.106136,322.200274 L479.178863,322.200274 C481.433129,322.200274 483.279819,320.421834 483.38967,318.194395 L483.394839,317.984297 L483.394839,317.826826 L481.653047,317.826826 L481.653047,317.984297 C481.653047,319.294001 480.630155,320.369282 479.3413,320.453209 L479.178863,320.458481 L469.195166,320.458481 C468.927963,320.458481 468.711335,320.241918 468.711335,319.97465 C468.711335,319.737078 468.882498,319.53957 469.108199,319.498612 L469.195166,319.490819 L479.178927,319.490819 C479.963483,319.490819 480.60988,318.888008 480.679281,318.121225 L480.685449,317.984297 L480.685449,317.826826 L480.421793,317.826826 C480.154589,317.826826 479.937962,317.610264 479.937962,317.342995 C479.937962,317.105423 480.109124,316.907915 480.334826,316.866957 L480.421793,316.859164 L480.685449,316.859164 L480.685449,308.235356 L480.421793,308.235356 C480.154589,308.235356 479.937962,308.018793 479.937962,307.751525 C479.937962,307.513953 480.109124,307.316445 480.334826,307.275487 L480.421793,307.267693 L480.685449,307.267693 L480.685449,306.819795 C480.685449,304.064997 482.845627,301.805169 485.561032,301.645203 L485.782385,301.636866 L485.782385,300.824416 L485.518665,300.824416 C485.251461,300.824416 485.034834,300.607853 485.034834,300.340585 C485.034834,300.103013 485.205996,299.905505 485.431698,299.864547 L485.518665,299.856754 L485.782385,299.856754 L485.782385,299.490461 C485.782385,298.705905 485.179574,298.059451 484.412791,297.990044 L484.275864,297.983875 L482.524007,297.983875 C482.256804,297.983875 482.040176,297.767312 482.040176,297.500044 C482.040176,297.262472 482.211339,297.064964 482.43704,297.024006 L482.524007,297.016213 L484.275864,297.016213 C485.585568,297.016213 486.660848,298.039164 486.744775,299.328024 L486.750048,299.490461 L486.750048,299.856754 L488.49184,299.856754 L488.49184,299.490461 C488.49184,297.236132 486.713461,295.38944 484.485966,295.27959 L484.275864,295.27442 L479.418004,295.27442 C477.163675,295.27442 475.316984,297.05286 475.207133,299.280358 L475.201964,299.490461 L475.201964,300.069768 L476.943756,300.069768 L476.943756,299.490461 C476.943756,298.180695 477.966707,297.105412 479.255567,297.021485 L479.418004,297.016213 L480.653129,297.016213 C480.920333,297.016213 481.13696,297.232776 481.13696,297.500044 C481.13696,297.737616 480.965798,297.935124 480.740096,297.976082 L480.653129,297.983875 L479.418004,297.983875 C478.633449,297.983875 477.986994,298.586743 477.917587,299.353533 L477.911418,299.490461 L477.911418,300.069768 L478.175074,300.069768 C478.442278,300.069768 478.658905,300.286331 478.658905,300.5536 C478.658905,300.791172 478.487743,300.98868 478.262041,301.029638 L478.175074,301.037431 L477.911418,301.037431 L477.911418,309.444482 L478.175074,309.444482 C478.442278,309.444482 478.658905,309.661045 478.658905,309.928314 C478.658905,310.165886 478.487743,310.363394 478.262041,310.404352 L478.175074,310.412145 L477.911418,310.412145 L477.911418,310.654964 C477.911418,313.439956 475.703781,315.719003 472.946566,315.834046 L472.72778,315.838603 L469.195166,315.838603 C468.927963,315.838603 468.711335,315.62204 468.711335,315.354771 C468.711335,315.117199 468.882498,314.919691 469.108199,314.878733 L469.195166,314.87094 L472.72778,314.87094 C474.982046,314.87094 476.828736,313.092501 476.938586,310.865061 L476.943756,310.654964 L476.943756,310.412145 L475.201964,310.412145 L475.201964,310.654964 C475.201964,311.964668 474.179072,313.039948 472.890217,313.123875 L472.72778,313.129148 L469.195166,313.129148 C468.927963,313.129148 468.711335,312.912585 468.711335,312.645316 C468.711335,312.407745 468.882498,312.210236 469.108199,312.169279 L469.195166,312.161485 L472.727715,312.161485 C473.512271,312.161485 474.158668,311.558674 474.228068,310.791891 L474.234237,310.654964 L474.234237,310.412145 L473.970581,310.412145 C473.703377,310.412145 473.48675,310.195582 473.48675,309.928314 C473.48675,309.690742 473.657912,309.493234 473.883614,309.452276 L473.970581,309.444482 L474.234237,309.444482 L474.234237,301.037431 L473.970581,301.037431 C473.703377,301.037431 473.48675,300.820868 473.48675,300.5536 C473.48675,300.316028 473.657912,300.118519 473.883614,300.077562 L473.970581,300.069768 L474.234237,300.069768 L474.234237,299.490461 C474.234237,296.705469 476.441935,294.42636 479.199153,294.311314 L479.41794,294.306758 L484.275799,294.306758 Z M501.227504,323.659186 C501.494772,323.659186 501.711335,323.875749 501.711335,324.143018 C501.711335,324.380589 501.540224,324.578098 501.314488,324.619055 L501.227504,324.626849 L496.309908,324.626849 C496.042639,324.626849 495.826077,324.410286 495.826077,324.143018 C495.826077,323.905446 495.997188,323.707937 496.222924,323.66698 L496.309908,323.659186 L501.227504,323.659186 Z M471.235321,322.200274 C471.502525,322.200274 471.719153,322.416837 471.719153,322.684105 C471.719153,322.951373 471.502525,323.167936 471.235321,323.167936 L471.235321,323.167936 L469.195166,323.167936 C468.927963,323.167936 468.711335,322.951373 468.711335,322.684105 C468.711335,322.416837 468.927963,322.200274 469.195166,322.200274 L469.195166,322.200274 Z M488.491776,305.313209 L486.749983,305.313209 L486.749983,320.751102 L488.491776,320.751102 L488.491776,305.313209 Z M483.394839,308.235356 L481.653047,308.235356 L481.653047,316.859164 L483.394839,316.859164 L483.394839,308.235356 Z M494.942859,308.235356 L493.201066,308.235356 L493.201066,313.194433 L494.942859,313.194433 L494.942859,308.235356 Z M476.943756,301.037431 L475.201964,301.037431 L475.201964,309.444482 L476.943756,309.444482 L476.943756,301.037431 Z M490.726947,302.603754 L485.869088,302.603754 C483.614821,302.603754 481.768071,304.382193 481.658216,306.609692 L481.653047,306.819795 L481.653047,307.267693 L483.394839,307.267693 L483.394839,306.819795 C483.394839,305.510029 484.417791,304.434746 485.70665,304.350819 L485.869088,304.345546 L490.726947,304.345546 C492.036589,304.345546 493.111867,305.368438 493.195851,306.65735 L493.201131,306.819795 L493.201131,307.267693 L494.942923,307.267693 L494.942923,306.819795 C494.942923,304.495018 493.051595,302.603754 490.726947,302.603754 Z M488.491776,300.824352 L486.749983,300.824352 L486.749983,301.636091 L488.491776,301.636091 L488.491776,300.824352 Z" id="composer"></path>
            </g>
        </g>
    </g>
</svg>