<?xml version="1.0" encoding="UTF-8"?>
<svg viewBox="0 0 33 34" version="1.1" xmlns="http://www.w3.org/2000/svg" xmlns:xlink="http://www.w3.org/1999/xlink">
    <title>server</title>
    <g id="Products" stroke="none" stroke-width="1" fill="none" fill-rule="evenodd">
        <g id="Homepage-Copy" transform="translate(-115.000000, -428.000000)" fill="#B700C0" fill-rule="nonzero">
            <g id="TOOLS-MENU" transform="translate(71.111533, 37.977778)">
                <g id="Group-3" transform="translate(40.222480, 110.022222)">
                    <path d="M18.4910966,304.251053 L18.4910966,302.122021 C18.4910966,301.241666 17.7817438,300.525246 16.9100725,300.525246 L16.9100725,299.46073 C17.7817438,299.46073 18.4910966,298.744311 18.4910966,297.863956 L18.4910966,295.734924 C18.4910966,294.854569 17.7817438,294.13815 16.9100725,294.13815 L16.9100725,293.073633 C17.7817438,293.073633 18.4910966,292.357214 18.4910966,291.476859 L18.4910966,289.347827 C18.4910966,288.467472 17.7817438,287.751053 16.9100725,287.751053 L5.31589532,287.751053 C4.444224,287.751053 3.73487117,288.467472 3.73487117,289.347827 L3.73487117,291.476859 C3.73487117,292.357214 4.444224,293.073633 5.31589532,293.073633 L5.31589532,294.13815 C4.444224,294.13815 3.73487117,294.854569 3.73487117,295.734924 L3.73487117,297.863956 C3.73487117,298.744311 4.444224,299.46073 5.31589532,299.46073 L5.31589532,300.525246 C4.444224,300.525246 3.73487117,301.241666 3.73487117,302.122021 L3.73487117,304.251053 C3.73487117,305.131408 4.444224,305.847827 5.31589532,305.847827 L16.9100725,305.847827 C17.7817438,305.847827 18.4910966,305.131408 18.4910966,304.251053 Z M4.78888727,291.476859 L4.78888727,289.347827 C4.78888727,289.054021 5.02498688,288.815569 5.31589532,288.815569 L16.9100725,288.815569 C17.2009809,288.815569 17.4370805,289.054021 17.4370805,289.347827 L17.4370805,291.476859 C17.4370805,291.770666 17.2009809,292.009117 16.9100725,292.009117 L5.31589532,292.009117 C5.02498688,292.009117 4.78888727,291.770666 4.78888727,291.476859 Z M6.36991143,293.073633 L15.8560564,293.073633 L15.8560564,294.13815 L6.36991143,294.13815 L6.36991143,293.073633 Z M4.78888727,297.863956 L4.78888727,295.734924 C4.78888727,295.441117 5.02498688,295.202666 5.31589532,295.202666 L16.9100725,295.202666 C17.2009809,295.202666 17.4370805,295.441117 17.4370805,295.734924 L17.4370805,297.863956 C17.4370805,298.157762 17.2009809,298.396214 16.9100725,298.396214 L5.31589532,298.396214 C5.02498688,298.396214 4.78888727,298.157762 4.78888727,297.863956 Z M6.36991143,299.46073 L15.8560564,299.46073 L15.8560564,300.525246 L6.36991143,300.525246 L6.36991143,299.46073 Z M4.78888727,304.251053 L4.78888727,302.122021 C4.78888727,301.828214 5.02498688,301.589762 5.31589532,301.589762 L16.9100725,301.589762 C17.2009809,301.589762 17.4370805,301.828214 17.4370805,302.122021 L17.4370805,304.251053 C17.4370805,304.544859 17.2009809,304.783311 16.9100725,304.783311 L5.31589532,304.783311 C5.02498688,304.783311 4.78888727,304.544859 4.78888727,304.251053 Z M36.4093704,291.476859 L36.4093704,289.347827 C36.4093704,288.467472 35.7000176,287.751053 34.8283462,287.751053 L23.2341691,287.751053 C22.3624978,287.751053 21.6531449,288.467472 21.6531449,289.347827 L21.6531449,291.476859 C21.6531449,292.357214 22.3624978,293.073633 23.2341691,293.073633 L23.2341691,294.13815 C22.3624978,294.13815 21.6531449,294.854569 21.6531449,295.734924 L21.6531449,297.863956 C21.6531449,298.744311 22.3624978,299.46073 23.2341691,299.46073 L23.2341691,300.525246 C22.3624978,300.525246 21.6531449,301.241666 21.6531449,302.122021 L21.6531449,304.251053 C21.6531449,305.131408 22.3624978,305.847827 23.2341691,305.847827 L34.8283462,305.847827 C35.7000176,305.847827 36.4093704,305.131408 36.4093704,304.251053 L36.4093704,302.122021 C36.4093704,301.241666 35.7000176,300.525246 34.8283462,300.525246 L34.8283462,299.46073 C35.7000176,299.46073 36.4093704,298.744311 36.4093704,297.863956 L36.4093704,295.734924 C36.4093704,294.854569 35.7000176,294.13815 34.8283462,294.13815 L34.8283462,293.073633 C35.7000176,293.073633 36.4093704,292.357214 36.4093704,291.476859 Z M22.707161,291.476859 L22.707161,289.347827 C22.707161,289.054021 22.9432607,288.815569 23.2341691,288.815569 L34.8283462,288.815569 C35.1192547,288.815569 35.3553543,289.054021 35.3553543,289.347827 L35.3553543,291.476859 C35.3553543,291.770666 35.1192547,292.009117 34.8283462,292.009117 L23.2341691,292.009117 C22.9432607,292.009117 22.707161,291.770666 22.707161,291.476859 Z M35.3553543,302.122021 L35.3553543,304.251053 C35.3553543,304.544859 35.1192547,304.783311 34.8283462,304.783311 L23.2341691,304.783311 C22.9432607,304.783311 22.707161,304.544859 22.707161,304.251053 L22.707161,302.122021 C22.707161,301.828214 22.9432607,301.589762 23.2341691,301.589762 L34.8283462,301.589762 C35.1192547,301.589762 35.3553543,301.828214 35.3553543,302.122021 Z M33.7743301,300.525246 L24.2881852,300.525246 L24.2881852,299.46073 L33.7743301,299.46073 L33.7743301,300.525246 Z M35.3553543,295.734924 L35.3553543,297.863956 C35.3553543,298.157762 35.1192547,298.396214 34.8283462,298.396214 L23.2341691,298.396214 C22.9432607,298.396214 22.707161,298.157762 22.707161,297.863956 L22.707161,295.734924 C22.707161,295.441117 22.9432607,295.202666 23.2341691,295.202666 L34.8283462,295.202666 C35.1192547,295.202666 35.3553543,295.441117 35.3553543,295.734924 Z M33.7743301,294.13815 L24.2881852,294.13815 L24.2881852,293.073633 L33.7743301,293.073633 L33.7743301,294.13815 Z M26.6676266,280.365972 C26.8346881,280.272827 27.0391672,280.277085 27.2025397,280.380343 L27.2025397,280.380343 L31.4186041,283.041633 C31.5724905,283.139037 31.6662979,283.309359 31.6662979,283.492988 C31.6662979,283.676617 31.5724905,283.84694 31.4186041,283.944343 L31.4186041,283.944343 L27.2025397,286.605633 C27.1171644,286.659391 27.020722,286.686537 26.9232255,286.686537 C26.8352151,286.686537 26.7472048,286.664182 26.6681536,286.620004 C26.500038,286.525795 26.3962174,286.347488 26.3962174,286.154279 L26.3962174,286.154279 L26.3962174,285.089762 L10.0589678,285.089762 L10.0589678,284.025246 L26.9232255,284.025246 C27.2146609,284.025246 27.4502335,284.263166 27.4502335,284.557504 L27.4502335,284.557504 L27.4502335,285.193553 L30.1448257,283.492988 L27.4502335,281.792424 L27.4502335,282.428472 C27.4502335,282.722811 27.2146609,282.96073 26.9232255,282.96073 L26.9232255,282.96073 L9.00495169,282.96073 L9.00495169,281.896214 L26.3962174,281.896214 L26.3962174,280.831698 C26.3962174,280.638488 26.500038,280.460182 26.6676266,280.365972 Z M9.00495169,284.025246 L9.00495169,285.089762 L7.95093558,285.089762 L7.95093558,284.025246 L9.00495169,284.025246 Z M12.9411748,306.993246 C13.1040203,306.889988 13.3095535,306.88573 13.476088,306.978875 C13.6442036,307.073085 13.7480242,307.251391 13.7480242,307.444601 L13.7480242,307.444601 L13.7480242,308.509117 L30.0852738,308.509117 L30.0852738,309.573633 L13.2210161,309.573633 C12.9295807,309.573633 12.6940081,309.335714 12.6940081,309.041375 L12.6940081,309.041375 L12.6940081,308.405327 L9.99941588,310.105891 L12.6940081,311.806456 L12.6940081,311.170408 C12.6940081,310.876069 12.9295807,310.63815 13.2210161,310.63815 L13.2210161,310.63815 L31.1392899,310.63815 L31.1392899,311.702666 L13.7480242,311.702666 L13.7480242,312.767182 C13.7480242,312.960391 13.6442036,313.138698 13.476088,313.232908 C13.3970368,313.277085 13.3090265,313.29944 13.2210161,313.29944 C13.1235196,313.29944 13.0270771,313.272295 12.9417018,313.218537 L12.9417018,313.218537 L8.72563742,310.557246 C8.57175107,310.459843 8.47794364,310.289521 8.47794364,310.105891 C8.47794364,309.922262 8.57175107,309.75194 8.72511041,309.654537 L8.72511041,309.654537 Z M32.193306,308.509117 L32.193306,309.573633 L31.1392899,309.573633 L31.1392899,308.509117 L32.193306,308.509117 Z M33.2473221,308.509117 L34.3013382,308.509117 L34.3013382,309.573633 L33.2473221,309.573633 L33.2473221,308.509117 Z M5.84290337,284.025246 L6.89691948,284.025246 L6.89691948,285.089762 L5.84290337,285.089762 L5.84290337,284.025246 Z" id="server"></path>
                </g>
            </g>
        </g>
    </g>
</svg>