<?xml version="1.0" encoding="UTF-8"?>
<svg viewBox="0 0 31 31" version="1.1" xmlns="http://www.w3.org/2000/svg" xmlns:xlink="http://www.w3.org/1999/xlink">
    <title>services</title>
    <g id="Products" stroke="none" stroke-width="1" fill="none" fill-rule="evenodd">
        <g id="Homepage-Copy" transform="translate(-699.000000, -345.000000)" fill="#B700C0" fill-rule="nonzero">
            <g id="FINANCIALS-MENU" transform="translate(202.292139, 37.977778)">
                <path d="M508.196451,307.188303 C508.412232,307.188303 508.591624,307.343766 508.628825,307.548766 L508.635903,307.627756 L508.635903,308.548027 L509.218265,308.548027 C509.409859,308.548027 509.575838,308.671394 509.634868,308.847433 L509.653382,308.925897 L511.087109,319.054977 L512.977867,319.054977 L512.977867,313.687977 C512.977867,313.472248 513.133283,313.292816 513.338314,313.255605 L513.417319,313.248525 L514.526789,313.248525 L519.251603,311.295482 C519.476193,311.202846 519.73295,311.309427 519.825645,311.533724 C519.908041,311.733098 519.832937,311.958306 519.657699,312.070994 L519.587404,312.107707 L516.827585,313.248466 L518.308656,313.248466 C518.447914,313.248466 518.57708,313.314262 518.659161,313.42283 L518.702464,313.492919 L519.248439,314.595592 L524.434092,310.104391 L521.225388,311.430658 C521.000975,311.523411 520.7441,311.416712 520.651347,311.192416 C520.568951,310.993041 520.644055,310.767833 520.819292,310.655146 L520.889588,310.618433 L526.600533,308.257871 C526.799869,308.175606 527.029263,308.249844 527.142407,308.433242 C527.239388,308.59044 527.22638,308.788104 527.118106,308.930223 L527.056099,308.99621 L525.901746,309.995993 L525.901746,315.137232 C525.901746,315.379927 525.705047,315.576684 525.462293,315.576684 C525.246513,315.576684 525.067121,315.421221 525.02992,315.216222 L525.022841,315.137232 L525.022841,310.757182 L519.651329,315.409341 L520.699569,317.526211 C520.76701,317.662441 520.759276,317.823808 520.67912,317.952948 C520.614995,318.056261 520.511795,318.12721 520.395261,318.151458 L520.305761,318.160663 L518.162114,318.160663 L518.162114,319.054977 L521.240037,319.054977 C521.864443,319.054977 522.379725,319.531234 522.441696,320.13956 L522.447944,320.262885 L522.447944,327.101429 L523.118255,327.101429 L523.118255,326.542739 C523.118255,326.299986 523.314954,326.103287 523.557708,326.103287 C523.773488,326.103287 523.95288,326.258703 523.990081,326.463734 L523.99716,326.542739 L523.99716,327.101429 L524.315382,327.101429 C524.531163,327.101429 524.710554,327.256846 524.747755,327.461876 L524.754834,327.540881 L524.754834,330.604683 C524.754834,330.820464 524.599418,330.999856 524.394387,331.037057 L524.315382,331.044136 L521.482849,331.044136 L521.482849,334.730729 C521.619372,334.718659 521.762868,334.711921 521.914977,334.711921 C523.270716,334.711921 523.976652,335.223267 524.599444,335.67438 C525.188661,336.101176 525.697488,336.46973 526.768345,336.46973 C527.011099,336.46973 527.207861,336.66637 527.207861,336.909123 C527.207861,337.151877 527.011157,337.348575 526.768404,337.348575 C525.412665,337.348575 524.706787,336.837229 524.083995,336.386116 C523.494778,335.95932 522.985951,335.590767 521.915035,335.590767 C520.84412,335.590767 520.335351,335.95932 519.746134,336.386116 C518.931741,336.976096 518.264828,337.348575 517.061667,337.348575 C515.705927,337.348575 514.999991,336.837229 514.3772,336.386116 C513.787982,335.95932 513.279155,335.590767 512.208298,335.590767 C511.137324,335.590767 510.628555,335.95932 510.039338,336.386116 C509.240062,336.965139 508.540689,337.374357 507.244949,337.347286 C505.960519,337.320392 505.275911,336.824865 504.67017,336.386116 C504.080952,335.95932 503.572067,335.590767 502.501034,335.590767 C501.430001,335.590767 500.921174,335.95932 500.331956,336.386116 C499.709106,336.837229 499.003229,337.348575 497.647314,337.348575 C497.40456,337.348575 497.207861,337.151877 497.207861,336.909123 C497.207861,336.66637 497.40456,336.469671 497.647314,336.469671 C498.718346,336.469671 499.227232,336.101117 499.81645,335.674321 C500.439241,335.223209 501.145177,334.711862 502.501034,334.711862 L502.722774,334.71674 L502.722774,334.71674 L502.932869,334.730671 L502.932869,331.044136 L500.100336,331.044136 C499.884555,331.044136 499.705163,330.888719 499.667962,330.683689 L499.660884,330.604683 L499.660884,327.540881 C499.660884,327.325101 499.8163,327.145709 500.02133,327.108508 L500.100336,327.101429 L500.418558,327.101429 L500.418558,326.542739 C500.418558,326.299986 500.615256,326.103287 500.85801,326.103287 C501.073791,326.103287 501.253183,326.258703 501.290384,326.463734 L501.297462,326.542739 L501.297462,327.101429 L501.967773,327.101429 L501.967773,323.286902 C501.967773,323.044148 502.164472,322.84745 502.407225,322.84745 C502.623006,322.84745 502.802398,323.002866 502.839599,323.207896 L502.846678,323.286902 L502.846678,327.101429 L508.99766,327.101429 L508.99766,325.78108 C508.99766,325.44225 509.248306,325.160802 509.573903,325.112429 L509.673655,325.105086 L514.742062,325.105086 C515.080893,325.105086 515.362341,325.355731 515.410713,325.681328 L515.418057,325.78108 L515.418057,327.101429 L521.56904,327.101429 L521.56904,320.262885 C521.56904,320.104155 521.456081,319.971309 521.306274,319.940578 L521.240037,319.933882 L503.175739,319.933882 C503.017009,319.933882 502.884164,320.046886 502.853432,320.196665 L502.846736,320.262885 L502.846736,321.529913 C502.846736,321.772608 502.650037,321.969366 502.407284,321.969366 C502.191503,321.969366 502.012111,321.813903 501.97491,321.608903 L501.967832,321.529913 L501.967832,320.262885 C501.967832,319.638478 502.444088,319.123196 503.052415,319.061225 L503.175739,319.054977 L505.305793,319.054977 L506.739521,308.925897 C506.766386,308.736252 506.911773,308.589179 507.09435,308.555374 L507.174637,308.548027 L507.756999,308.548027 L507.756999,307.627756 C507.756999,307.385061 507.953698,307.188303 508.196451,307.188303 Z M509.866487,331.044077 L507.685105,331.044077 L507.685105,336.456136 C508.536646,336.387757 508.998832,336.054535 509.523714,335.674321 C510.032884,335.305506 510.59797,334.8967 511.528069,334.759717 L511.768377,334.731315 L511.768377,332.620773 L510.81377,332.620773 C510.328774,332.620773 509.927695,332.254336 509.872872,331.783803 L509.866487,331.67349 L509.866487,331.044077 Z M516.730613,331.044136 L514.549231,331.044136 L514.549231,331.673548 C514.549231,332.158545 514.182794,332.559624 513.712261,332.614446 L513.601948,332.620831 L512.647282,332.620831 L512.647282,334.731315 C513.723588,334.828053 514.340872,335.274654 514.892648,335.674321 C515.369707,336.019917 515.794951,336.326676 516.507749,336.431057 L516.730554,336.456136 L516.730554,334.635046 C516.730554,334.392293 516.927253,334.195594 517.170006,334.195594 C517.385787,334.195594 517.565179,334.35101 517.60238,334.556041 L517.609459,334.635046 L517.609459,336.432757 C518.326352,336.329281 518.751917,336.02102 519.23051,335.674321 C519.558467,335.436816 519.909627,335.182737 520.366384,334.995291 L520.603944,334.907506 L520.603944,331.044136 L517.609517,331.044136 L517.609517,332.877999 C517.609517,333.120752 517.412818,333.317451 517.170065,333.317451 C516.954284,333.317451 516.774892,333.162035 516.737691,332.957004 L516.730613,332.877999 L516.730613,331.044136 Z M506.8062,331.044136 L503.811773,331.044136 L503.811773,334.907389 C504.388686,335.097467 504.803001,335.397173 505.185676,335.67438 C505.610988,335.982452 505.994448,336.260154 506.57766,336.390819 L506.8062,336.432698 L506.8062,331.044136 Z M519.106701,332.111301 C519.349455,332.111301 519.546154,332.308 519.546154,332.550754 L519.546154,332.550754 L519.546154,334.418835 C519.546154,334.661589 519.349455,334.858288 519.106701,334.858288 C518.863948,334.858288 518.667249,334.661589 518.667249,334.418835 L518.667249,334.418835 L518.667249,332.550754 C518.667249,332.308 518.863948,332.111301 519.106701,332.111301 Z M505.309016,332.111301 C505.551711,332.111301 505.748468,332.308 505.748468,332.550754 L505.748468,332.550754 L505.748468,334.418835 C505.748468,334.661589 505.551769,334.858288 505.309016,334.858288 C505.066263,334.858288 504.869564,334.661589 504.869564,334.418835 L504.869564,334.418835 L504.869564,332.550754 C504.869564,332.308 505.066263,332.111301 505.309016,332.111301 Z M513.670326,331.044136 L510.745391,331.044136 L510.745391,331.673548 C510.745391,331.701849 510.762629,331.726162 510.787167,331.736549 L510.81377,331.741927 L513.601948,331.741927 C513.630248,331.741927 513.654561,331.72469 513.664949,331.700152 L513.670326,331.673548 L513.670326,331.044136 Z M523.87593,327.980334 L500.539788,327.980334 L500.539788,330.165231 L523.87593,330.165231 L523.87593,327.980334 Z M514.539153,325.98399 L509.876565,325.98399 L509.876565,327.101429 L514.539153,327.101429 L514.539153,325.98399 Z M519.719825,320.844309 C519.962579,320.844309 520.159277,321.041067 520.159277,321.283762 L520.159277,321.283762 L520.159277,321.928702 C520.159277,322.171396 519.962579,322.368154 519.719825,322.368154 C519.477072,322.368154 519.280373,322.171396 519.280373,321.928702 L519.280373,321.928702 L519.280373,321.283762 C519.280373,321.041067 519.477072,320.844309 519.719825,320.844309 Z M516.715085,320.844309 C516.957839,320.844309 517.154538,321.041067 517.154538,321.283762 L517.154538,321.283762 L517.154538,321.928702 C517.154538,322.171396 516.957839,322.368154 516.715085,322.368154 C516.472332,322.368154 516.275633,322.171396 516.275633,321.928702 L516.275633,321.928702 L516.275633,321.283762 C516.275633,321.041067 516.472332,320.844309 516.715085,320.844309 Z M513.710287,320.844309 C513.953041,320.844309 514.149739,321.041067 514.149739,321.283762 L514.149739,321.283762 L514.149739,321.928702 C514.149739,322.171396 513.953041,322.368154 513.710287,322.368154 C513.467534,322.368154 513.270835,322.171396 513.270835,321.928702 L513.270835,321.928702 L513.270835,321.283762 C513.270835,321.041067 513.467534,320.844309 513.710287,320.844309 Z M510.70543,320.844309 C510.948184,320.844309 511.144882,321.041067 511.144882,321.283762 L511.144882,321.283762 L511.144882,321.928702 C511.144882,322.171396 510.948184,322.368154 510.70543,322.368154 C510.462677,322.368154 510.265978,322.171396 510.265978,321.928702 L510.265978,321.928702 L510.265978,321.283762 C510.265978,321.041067 510.462677,320.844309 510.70543,320.844309 Z M504.695834,320.844309 C504.911615,320.844309 505.091006,320.999772 505.128207,321.204772 L505.135286,321.283762 L505.135286,321.928702 C505.135286,322.171396 504.938587,322.368154 504.695834,322.368154 C504.480053,322.368154 504.300661,322.212691 504.26346,322.007692 L504.256382,321.928702 L504.256382,321.283762 C504.256382,321.041067 504.45308,320.844309 504.695834,320.844309 Z M507.700632,320.844309 C507.943385,320.844309 508.140084,321.041067 508.140084,321.283762 L508.140084,321.283762 L508.140084,321.928702 C508.140084,322.171396 507.943385,322.368154 507.700632,322.368154 C507.457879,322.368154 507.26118,322.171396 507.26118,321.928702 L507.26118,321.928702 L507.26118,321.283762 C507.26118,321.041067 507.457879,320.844309 507.700632,320.844309 Z M506.635107,315.934632 L506.193428,319.054919 L507.580984,319.054919 L509.553069,317.470137 L506.635107,315.934632 Z M510.075314,318.178065 L508.984125,319.054977 L510.199416,319.054977 L510.075314,318.178065 Z M517.283268,318.160663 L513.856771,318.160663 L513.856771,319.054977 L517.283268,319.054977 L517.283268,318.160663 Z M518.035786,314.127371 L513.856713,314.127371 L513.856713,317.2817 L519.597716,317.2817 L518.035786,314.127371 Z M509.466351,313.87577 L507.240438,315.260044 L509.85717,316.636994 L509.466351,313.87577 Z M515.219835,314.943345 C515.462588,314.943345 515.659287,315.140103 515.659287,315.382798 L515.659287,315.382798 L515.659287,315.597367 C515.659287,315.840062 515.462588,316.03682 515.219835,316.03682 C514.977081,316.03682 514.780383,315.840062 514.780383,315.597367 L514.780383,315.597367 L514.780383,315.382798 C514.780383,315.140103 514.977081,314.943345 515.219835,314.943345 Z M517.12278,314.943345 C517.365475,314.943345 517.562232,315.140103 517.562232,315.382798 L517.562232,315.382798 L517.562232,315.597367 C517.562232,315.840062 517.365533,316.03682 517.12278,316.03682 C516.880026,316.03682 516.683328,315.840062 516.683328,315.597367 L516.683328,315.597367 L516.683328,315.382798 C516.683328,315.140103 516.880026,314.943345 517.12278,314.943345 Z M507.223211,311.779641 L506.842001,314.472839 L508.97059,313.149091 L507.223211,311.779641 Z M508.897934,309.859997 L507.632956,310.984116 L509.23473,312.239425 L508.897934,309.859997 Z M508.062096,309.426931 L507.556199,309.426931 L507.483425,309.941149 L508.062096,309.426931 Z" id="services"></path>
            </g>
        </g>
    </g>
</svg>