<?xml version="1.0" encoding="UTF-8"?>
<svg viewBox="0 0 31 33" version="1.1" xmlns="http://www.w3.org/2000/svg" xmlns:xlink="http://www.w3.org/1999/xlink">
    <title>sidechain</title>
    <g id="Products" stroke="none" stroke-width="1" fill="none" fill-rule="evenodd">
        <g id="Homepage-Copy" transform="translate(-236.000000, -253.000000)" fill="#B700C0" fill-rule="nonzero">
            <g id="FINANCIALS-MENU" transform="translate(202.292139, 37.977778)">
                <path d="M57.0596614,216.594627 L57.1782115,216.755512 L57.4492145,216.755512 C58.3540822,215.460521 59.9941862,214.901819 61.5014253,215.375123 C63.0086645,215.848428 64.0349491,217.244433 64.037154,218.824238 C64.037154,219.697365 63.7207658,220.538296 63.1505213,221.193024 L63.0027077,221.352737 L63.0027077,224.57064 C63.7482625,225.329929 64.1209491,226.379412 64.021255,227.438861 C63.9282071,228.427681 63.4325063,229.331207 62.6561417,229.940697 L62.4855264,230.066726 L62.4855264,230.337729 C63.6047919,231.117438 64.190236,232.460497 63.9996193,233.811189 C63.8090025,235.16188 62.8747459,236.290471 61.5834171,236.729985 C60.3638289,237.145081 59.0216504,236.878857 58.054905,236.044362 L57.8883015,235.891222 L53.6360366,235.891222 C52.8767472,236.636777 51.8272645,237.009463 50.7678149,236.909769 C49.7789953,236.816721 48.8754694,236.32102 48.265979,235.544656 L48.1399505,235.37404 L47.8689475,235.37404 C47.0892425,236.498123 45.745222,237.079714 44.4019887,236.890477 L44.2005803,236.856282 L41.1083531,238.521089 C40.8932191,239.209045 40.4791173,239.815772 39.9208872,240.266128 L39.7295476,240.410352 L39.7295476,240.681355 C39.8368449,240.757574 39.9397366,240.839726 40.0377484,240.92741 L40.1810469,241.063035 L44.4415868,241.063035 C45.2008761,240.31748 46.2503588,239.944794 47.3098084,240.044488 C48.298628,240.137536 49.202154,240.633237 49.8116444,241.409601 L49.9376728,241.580216 L50.2086759,241.580216 C51.1125598,240.282112 52.7545607,239.721127 54.263769,240.194807 C55.7729773,240.668486 56.7999258,242.067145 56.7999258,243.648942 C56.7999258,245.230739 55.7729773,246.629398 54.263769,247.103077 C52.8201785,247.556161 51.2550915,247.062597 50.3306881,245.88278 L50.2086759,245.717667 L49.9376728,245.717667 C49.3307939,246.591778 48.369258,247.153702 47.3098084,247.253396 C46.3209888,247.346444 45.3408515,247.027995 44.5972309,246.378958 L44.4415868,246.234848 L40.1893218,246.234848 C39.2147313,247.191634 37.784386,247.518018 36.4912252,247.078699 C35.1980645,246.63938 34.2625334,245.509249 34.0724498,244.156794 C33.8923705,242.875521 34.4104179,241.601633 35.4194197,240.808935 L35.592097,240.681355 L35.592097,240.410352 C34.3158916,239.52306 33.7497122,237.919315 34.1859913,236.427454 C34.6033017,235.000456 35.8484328,233.981401 37.3151984,233.843093 L37.5165287,233.829737 L41.7315566,231.559828 C42.3340456,230.463146 43.460743,229.755938 44.7102924,229.690127 C45.886339,229.628189 47.0138446,230.142697 47.7379848,231.059931 L47.8689475,231.23659 L48.1399505,231.23659 C48.7468294,230.362479 49.7083654,229.800555 50.7678149,229.700861 C51.7566345,229.607813 52.7367719,229.926262 53.4803925,230.575299 L53.6360366,230.719408 L57.8965764,230.719408 C57.9895898,230.626293 58.0877202,230.538508 58.1904933,230.456457 L58.3480757,230.337729 L58.3480757,230.066726 C57.4739645,229.459847 56.9120412,228.498311 56.8123471,227.438861 C56.7192993,226.450042 57.0377475,225.469904 57.6867845,224.726284 L57.8308944,224.57064 L57.8308944,221.344462 C57.7377786,221.251449 57.6499944,221.153319 57.5679426,221.050545 L57.4492145,220.892963 L57.1782115,220.892963 C56.5878056,221.73449 55.6705661,222.283312 54.6572318,222.409922 L54.438702,222.430543 L51.096159,225.773086 C51.0022442,227.309568 49.9456592,228.618055 48.4634277,229.03349 C47.045641,229.430862 45.5359047,228.927773 44.6382313,227.777206 L44.5196812,227.61632 L44.2486781,227.61632 C43.3447942,228.914425 41.7027933,229.475409 40.193585,229.00173 C38.6843767,228.528051 37.6574282,227.129392 37.6574282,225.547595 C37.6574282,223.965798 38.6843767,222.567139 40.193585,222.09346 C41.6371755,221.640375 43.2022625,222.13394 44.1266659,223.313756 L44.2486781,223.47887 L44.5196812,223.47887 C45.1100871,222.637342 46.0273266,222.088521 47.0406609,221.961911 L47.2591907,221.94129 L50.6017337,218.598747 C50.6956485,217.062265 51.7522335,215.753778 53.234465,215.338343 C54.6522516,214.94097 56.161988,215.44406 57.0596614,216.594627 Z M37.6608223,234.854208 C36.4904263,234.854208 35.465949,235.640317 35.1630283,236.770832 C34.8601075,237.901348 35.3542763,239.094377 36.367869,239.679575 C36.5010794,239.756484 36.5917178,239.887698 36.6183399,240.036117 L36.6264596,240.126937 L36.6264596,240.964771 C36.6262703,241.149352 36.5277215,241.319842 36.367869,241.412133 C35.3542763,241.997331 34.8601075,243.19036 35.1630283,244.320875 C35.465949,245.451391 36.4904263,246.2375 37.6608223,246.2375 C38.8312183,246.2375 39.8556956,245.451391 40.1586163,244.320875 C40.4615371,243.19036 39.9673683,241.997331 38.9537756,241.412133 C38.8205652,241.335224 38.7299268,241.20401 38.7033047,241.05559 L38.695185,240.964771 L38.695185,240.126937 C38.6953743,239.942355 38.7939231,239.771866 38.9537756,239.679575 C39.9673683,239.094377 40.4615371,237.901348 40.1586163,236.770832 C39.8556956,235.640317 38.8312183,234.854208 37.6608223,234.854208 Z M50.9389359,242.355988 C50.8620269,242.489199 50.7308133,242.579837 50.5823937,242.606459 L50.491574,242.614579 L49.6547746,242.614579 C49.470193,242.61439 49.2997035,242.515841 49.2074128,242.355988 C48.7443932,241.558041 47.8926373,241.06581 46.9700863,241.063035 C45.7148943,241.061999 44.640221,241.962499 44.421579,243.198502 C44.2029369,244.434505 44.9034744,245.649029 46.0828512,246.078655 C47.2622281,246.508281 48.5798161,246.028923 49.2074128,244.941895 C49.2843217,244.808685 49.4155354,244.718046 49.563955,244.691424 L49.6547746,244.683304 L50.491574,244.683304 C50.6761556,244.683494 50.8466451,244.782043 50.9389359,244.941895 C51.5241339,245.955488 52.7171629,246.449657 53.8476787,246.146736 C54.9781944,245.843815 55.7643034,244.819338 55.7643034,243.648942 C55.7643034,242.478546 54.9781944,241.454069 53.8476787,241.151148 C52.7171629,240.848227 51.5241339,241.342396 50.9389359,242.355988 Z M46.9700863,242.097398 C47.8269804,242.097398 48.5216303,242.792048 48.5216303,243.648942 C48.5216303,244.505836 47.8269804,245.200486 46.9700863,245.200486 C46.1131922,245.200486 45.4185423,244.505836 45.4185423,243.648942 C45.4185423,242.792048 46.1131922,242.097398 46.9700863,242.097398 Z M53.1762624,242.097398 C54.0331564,242.097398 54.7278064,242.792048 54.7278064,243.648942 C54.7278064,244.505836 54.0331564,245.200486 53.1762624,245.200486 C52.3193683,245.200486 51.6247184,244.505836 51.6247184,243.648942 C51.6247184,242.792048 52.3193683,242.097398 53.1762624,242.097398 Z M37.6608223,242.097398 C38.5177164,242.097398 39.2123663,242.792048 39.2123663,243.648942 C39.2123663,244.505836 38.5177164,245.200486 37.6608223,245.200486 C36.8039282,245.200486 36.1092783,244.505836 36.1092783,243.648942 C36.1092783,242.792048 36.8039282,242.097398 37.6608223,242.097398 Z M43.7040862,242.097398 L40.922685,242.097398 C41.3673263,243.011294 41.3982972,244.068311 41.0152428,245.002321 L40.9268224,245.200486 L43.7040862,245.200486 C43.2317392,244.220048 43.2317392,243.077836 43.7040862,242.097398 Z M46.9700863,243.13176 C46.684455,243.13176 46.452905,243.36331 46.452905,243.648942 C46.452905,243.934573 46.684455,244.166123 46.9700863,244.166123 C47.2557177,244.166123 47.4872677,243.934573 47.4872677,243.648942 C47.4872677,243.36331 47.2557177,243.13176 46.9700863,243.13176 Z M53.1762624,243.13176 C52.890631,243.13176 52.659081,243.36331 52.659081,243.648942 C52.659081,243.934573 52.890631,244.166123 53.1762624,244.166123 C53.4618937,244.166123 53.6934437,243.934573 53.6934437,243.648942 C53.6934437,243.36331 53.4618937,243.13176 53.1762624,243.13176 Z M37.6608223,243.13176 C37.3751909,243.13176 37.143641,243.36331 37.143641,243.648942 C37.143641,243.934573 37.3751909,244.166123 37.6608223,244.166123 C37.9464537,244.166123 38.1780036,243.934573 38.1780036,243.648942 C38.1780036,243.36331 37.9464537,243.13176 37.6608223,243.13176 Z M37.6608223,235.891222 C38.5177164,235.891222 39.2123663,236.585872 39.2123663,237.442766 C39.2123663,238.29966 38.5177164,238.99431 37.6608223,238.99431 C36.8039282,238.99431 36.1092783,238.29966 36.1092783,237.442766 C36.1092783,236.585872 36.8039282,235.891222 37.6608223,235.891222 Z M37.6608223,236.925584 C37.3751909,236.925584 37.143641,237.157134 37.143641,237.442766 C37.143641,237.728397 37.3751909,237.959947 37.6608223,237.959947 C37.9464537,237.959947 38.1780036,237.728397 38.1780036,237.442766 C38.1780036,237.157134 37.9464537,236.925584 37.6608223,236.925584 Z M41.2986758,232.96863 L39.1296173,234.136426 C40.3083929,234.662002 41.1134331,235.771972 41.2549133,237.044155 L41.2722996,237.257615 L42.9541733,236.35203 C41.913733,235.687983 41.2833048,234.539605 41.2816088,233.305315 C41.2816088,233.191535 41.2883322,233.079824 41.2986758,232.96863 Z M60.416801,224.510581 C59.246405,224.510581 58.2219278,225.29669 57.919007,226.427206 C57.6160862,227.557721 58.110255,228.75075 59.1238477,229.335948 C59.2570581,229.412857 59.3476966,229.544071 59.3743186,229.692491 L59.3824384,229.78331 L59.3824384,230.621144 C59.3822491,230.805726 59.2837002,230.976215 59.1238477,231.068506 C58.110255,231.653704 57.6160862,232.846733 57.919007,233.977249 C58.2219278,235.107764 59.246405,235.893873 60.416801,235.893873 C61.5871971,235.893873 62.6116743,235.107764 62.9145951,233.977249 C63.2175159,232.846733 62.7233471,231.653704 61.7097544,231.068506 C61.576544,230.991597 61.4859055,230.860383 61.4592835,230.711964 L61.4511637,230.621144 L61.4511637,229.78331 C61.451353,229.598729 61.5499019,229.428239 61.7097544,229.335948 C62.7233471,228.75075 63.2175159,227.557721 62.9145951,226.427206 C62.6116743,225.29669 61.5871971,224.510581 60.416801,224.510581 Z M48.8702106,232.012362 C48.7933016,232.145572 48.662088,232.236211 48.5136684,232.262833 L48.4228487,232.270952 L47.5860493,232.270952 C47.4014677,232.270763 47.2309782,232.172214 47.1386874,232.012362 C46.5534894,230.998769 45.3604604,230.5046 44.2299447,230.807521 C43.0994289,231.110442 42.3133199,232.134919 42.3133199,233.305315 C42.3133199,234.475711 43.0994289,235.500188 44.2299447,235.803109 C45.3604604,236.10603 46.5534894,235.611861 47.1386874,234.598268 C47.2155964,234.465058 47.3468101,234.37442 47.4952296,234.347798 L47.5860493,234.339678 L48.4228487,234.339678 C48.6074303,234.339867 48.7779198,234.438416 48.8702106,234.598268 C49.3332302,235.396216 50.184986,235.888447 51.107537,235.891222 C52.3627291,235.892258 53.4374023,234.991758 53.6560444,233.755755 C53.8746864,232.519752 53.174149,231.305228 51.9947721,230.875602 C50.8153953,230.445976 49.4978072,230.925333 48.8702106,232.012362 Z M57.1549384,231.753771 L54.3735371,231.753771 C54.8143944,232.668846 54.8437849,233.724845 54.4617086,234.65871 L54.3735371,234.856859 L57.1508009,234.856859 C56.6770123,233.876417 56.6785369,232.732946 57.1549384,231.753771 Z M44.901361,231.753771 C45.7582551,231.753771 46.452905,232.448421 46.452905,233.305315 C46.452905,234.162209 45.7582551,234.856859 44.901361,234.856859 C44.0444669,234.856859 43.349817,234.162209 43.349817,233.305315 C43.349817,232.448421 44.0444669,231.753771 44.901361,231.753771 Z M60.416801,231.753771 C61.2736951,231.753771 61.9683451,232.448421 61.9683451,233.305315 C61.9683451,234.162209 61.2736951,234.856859 60.416801,234.856859 C59.559907,234.856859 58.865257,234.162209 58.865257,233.305315 C58.865257,232.448421 59.559907,231.753771 60.416801,231.753771 Z M51.107537,231.753771 C51.9644311,231.753771 52.659081,232.448421 52.659081,233.305315 C52.659081,234.162209 51.9644311,234.856859 51.107537,234.856859 C50.2506429,234.856859 49.555993,234.162209 49.555993,233.305315 C49.555993,232.448421 50.2506429,231.753771 51.107537,231.753771 Z M60.416801,232.788134 C60.1311697,232.788134 59.8996197,233.019684 59.8996197,233.305315 C59.8996197,233.590946 60.1311697,233.822496 60.416801,233.822496 C60.7024324,233.822496 60.9339824,233.590946 60.9339824,233.305315 C60.9339824,233.019684 60.7024324,232.788134 60.416801,232.788134 Z M51.107537,232.788134 C50.8219057,232.788134 50.5903557,233.019684 50.5903557,233.305315 C50.5903557,233.590946 50.8219057,233.822496 51.107537,233.822496 C51.3931684,233.822496 51.6247184,233.590946 51.6247184,233.305315 C51.6247184,233.019684 51.3931684,232.788134 51.107537,232.788134 Z M44.901361,232.788134 C44.6157296,232.788134 44.3841797,233.019684 44.3841797,233.305315 C44.3841797,233.590946 44.6157296,233.822496 44.901361,233.822496 C45.1869924,233.822496 45.4185423,233.590946 45.4185423,233.305315 C45.4185423,233.019684 45.1869924,232.788134 44.901361,232.788134 Z M60.416801,225.547595 C61.2736951,225.547595 61.9683451,226.242245 61.9683451,227.099139 C61.9683451,227.956033 61.2736951,228.650683 60.416801,228.650683 C59.559907,228.650683 58.865257,227.956033 58.865257,227.099139 C58.865257,226.242245 59.559907,225.547595 60.416801,225.547595 Z M45.2499412,224.254642 C45.1730323,224.387852 45.0418186,224.478491 44.893399,224.505113 L44.8025794,224.513232 L43.96578,224.513232 C43.7811984,224.513043 43.6107089,224.414494 43.5184181,224.254642 C42.9332201,223.241049 41.7401911,222.74688 40.6096753,223.049801 C39.4791596,223.352722 38.6930506,224.377199 38.6930506,225.547595 C38.6930506,226.717991 39.4791596,227.742468 40.6096753,228.045389 C41.7401911,228.34831 42.9332201,227.854141 43.5184181,226.840548 C43.5953271,226.707338 43.7265407,226.6167 43.8749603,226.590077 L43.96578,226.581958 L44.8025794,226.581958 C44.987161,226.582147 45.1576505,226.680696 45.2499412,226.840548 C45.7129608,227.638496 46.5647167,228.130727 47.4872677,228.133502 C48.7424597,228.134538 49.817133,227.234038 50.035775,225.998035 C50.2544171,224.762032 49.5538796,223.547508 48.3745028,223.117882 C47.1951259,222.688256 45.8775379,223.167613 45.2499412,224.254642 Z M60.416801,226.581958 C60.1311697,226.581958 59.8996197,226.813508 59.8996197,227.099139 C59.8996197,227.38477 60.1311697,227.61632 60.416801,227.61632 C60.7024324,227.61632 60.9339824,227.38477 60.9339824,227.099139 C60.9339824,226.813508 60.7024324,226.581958 60.416801,226.581958 Z M47.4872677,223.996051 C48.3441618,223.996051 49.0388117,224.690701 49.0388117,225.547595 C49.0388117,226.404489 48.3441618,227.099139 47.4872677,227.099139 C46.6303736,227.099139 45.9357237,226.404489 45.9357237,225.547595 C45.9357237,224.690701 46.6303736,223.996051 47.4872677,223.996051 Z M41.2810916,223.996051 C42.1379857,223.996051 42.8326357,224.690701 42.8326357,225.547595 C42.8326357,226.404489 42.1379857,227.099139 41.2810916,227.099139 C40.4241976,227.099139 39.7295476,226.404489 39.7295476,225.547595 C39.7295476,224.690701 40.4241976,223.996051 41.2810916,223.996051 Z M47.4872677,225.030414 C47.2016363,225.030414 46.9700863,225.261964 46.9700863,225.547595 C46.9700863,225.833226 47.2016363,226.064776 47.4872677,226.064776 C47.772899,226.064776 48.004449,225.833226 48.004449,225.547595 C48.004449,225.261964 47.772899,225.030414 47.4872677,225.030414 Z M41.2810916,225.030414 C40.9954603,225.030414 40.7639103,225.261964 40.7639103,225.547595 C40.7639103,225.833226 40.9954603,226.064776 41.2810916,226.064776 C41.566723,226.064776 41.798273,225.833226 41.798273,225.547595 C41.798273,225.261964 41.566723,225.030414 41.2810916,225.030414 Z M50.7563709,219.907215 L48.5702454,222.092824 C49.6291532,222.427764 50.4729488,223.226481 50.8684648,224.255757 L50.9415218,224.464617 L53.1276473,222.279009 C51.9981456,221.92174 51.1133938,221.036795 50.7563709,219.907215 Z M58.865257,222.0861 L58.865257,223.833139 C59.7803323,223.392282 60.8363313,223.362891 61.7701964,223.744967 L61.9683451,223.833139 L61.9683451,222.090238 C61.4841204,222.322744 60.9539528,222.443799 60.416801,222.444507 C59.8793564,222.442298 59.3492192,222.319836 58.865257,222.0861 Z M58.1794746,217.531284 C58.1025656,217.664495 57.971352,217.755133 57.8229324,217.781755 L57.7321127,217.789875 L56.8953133,217.789875 C56.7107317,217.789686 56.5402422,217.691137 56.4479515,217.531284 C55.8627535,216.517692 54.6697245,216.023523 53.5392087,216.326444 C52.4086929,216.629364 51.6225839,217.653842 51.6225839,218.824238 C51.6225839,219.994634 52.4086929,221.019111 53.5392087,221.322032 C54.6697245,221.624953 55.8627535,221.130784 56.4479515,220.117191 C56.5248604,219.983981 56.6560741,219.893342 56.8044937,219.86672 L56.8953133,219.8586 L57.7321127,219.8586 C57.9166943,219.85879 58.0871838,219.957339 58.1794746,220.117191 C58.7646726,221.130784 59.9577016,221.624953 61.0882174,221.322032 C62.2187331,221.019111 63.0048421,219.994634 63.0048421,218.824238 C63.0048421,217.653842 62.2187331,216.629364 61.0882174,216.326444 C59.9577016,216.023523 58.7646726,216.517692 58.1794746,217.531284 Z M60.416801,217.272694 C61.2736951,217.272694 61.9683451,217.967344 61.9683451,218.824238 C61.9683451,219.681132 61.2736951,220.375782 60.416801,220.375782 C59.559907,220.375782 58.865257,219.681132 58.865257,218.824238 C58.865257,217.967344 59.559907,217.272694 60.416801,217.272694 Z M54.210625,217.272694 C55.0675191,217.272694 55.762169,217.967344 55.762169,218.824238 C55.762169,219.681132 55.0675191,220.375782 54.210625,220.375782 C53.3537309,220.375782 52.659081,219.681132 52.659081,218.824238 C52.659081,217.967344 53.3537309,217.272694 54.210625,217.272694 Z M60.416801,218.307056 C60.1311697,218.307056 59.8996197,218.538606 59.8996197,218.824238 C59.8996197,219.109869 60.1311697,219.341419 60.416801,219.341419 C60.7024324,219.341419 60.9339824,219.109869 60.9339824,218.824238 C60.9339824,218.538606 60.7024324,218.307056 60.416801,218.307056 Z M54.210625,218.307056 C53.9249937,218.307056 53.6934437,218.538606 53.6934437,218.824238 C53.6934437,219.109869 53.9249937,219.341419 54.210625,219.341419 C54.4962564,219.341419 54.7278064,219.109869 54.7278064,218.824238 C54.7278064,218.538606 54.4962564,218.307056 54.210625,218.307056 Z" id="sidechain"></path>
            </g>
        </g>
    </g>
</svg>