<?xml version="1.0" encoding="UTF-8"?>
<svg width="34px" height="33px" viewBox="0 0 34 33" version="1.1" xmlns="http://www.w3.org/2000/svg" xmlns:xlink="http://www.w3.org/1999/xlink">
    <title>stream</title>
    <g id="Products" stroke="none" stroke-width="1" fill="none" fill-rule="evenodd">
        <g id="Homepage-Copy" transform="translate(-539.000000, -147.000000)" fill="#B700C0" fill-rule="nonzero">
            <g id="TOOLS-MENU" transform="translate(71.111533, 37.977778)">
                <path d="M477.701727,131.369363 L478.45434,132.121975 L469.782259,140.794056 L471.690937,140.794056 L471.690937,141.858572 L467.96513,141.858572 L467.96513,138.132766 L469.029646,138.132766 L469.029646,140.041443 L477.701727,131.369363 Z M491.228533,131.369363 L499.900614,140.041443 L499.900614,138.132766 L500.96513,138.132766 L500.96513,141.858572 L497.239324,141.858572 L497.239324,140.794056 L499.148001,140.794056 L490.475921,132.121975 L491.228533,131.369363 Z M476.27634,135.847782 C478.633711,137.690459 481.465324,138.665024 484.46513,138.665024 C487.17407,138.665024 489.763765,137.862654 491.981334,136.340675 L492.311146,136.106992 L492.939743,136.966056 C490.467404,138.774137 487.536792,139.72954 484.46513,139.72954 C481.360269,139.72954 478.422099,138.763128 475.942,136.930087 L475.62113,136.686088 L476.27634,135.847782 Z M477.86034,134.376621 C479.785517,135.789234 482.069437,136.535992 484.46513,136.535992 C486.734735,136.535992 488.904021,135.865771 490.762547,134.594572 L491.069388,134.377153 L491.699582,135.235153 C489.590243,136.782427 487.089162,137.600508 484.46513,137.600508 C481.9723,137.600508 479.590433,136.86219 477.549528,135.461308 L477.230146,135.234621 L477.86034,134.376621 Z M472.339759,126.090427 L473.171146,126.75575 L471.158679,129.271201 L471.158679,132.810185 L470.094162,132.810185 L470.094162,129.271201 L468.081695,126.75575 L468.913082,126.090427 L470.626421,128.232234 L472.339759,126.090427 Z M499.805872,125.89083 L496.080066,131.745669 L499.368356,131.745669 L499.368356,132.810185 L494.140517,132.810185 L497.866324,126.955346 L494.578033,126.955346 L494.578033,125.89083 L499.805872,125.89083 Z M480.739324,118.439217 L480.739324,119.503734 L481.80384,119.503734 L481.80384,118.439217 L482.868356,118.439217 L482.868356,119.503734 L483.932872,119.503734 L483.932872,118.439217 L484.997388,118.439217 L484.997388,119.503734 L486.061904,119.503734 L486.061904,118.439217 L487.126421,118.439217 L487.126421,119.503734 L488.190937,119.503734 L488.190937,118.439217 L489.255453,118.439217 L489.255453,119.503734 L490.319969,119.503734 L490.319969,120.56825 L491.384485,120.56825 L491.384485,121.632766 L490.319969,121.632766 L490.319969,122.697282 L491.384485,122.697282 L491.384485,123.761798 L490.319969,123.761798 L490.319969,124.826314 L491.384485,124.826314 L491.384485,125.89083 L490.319969,125.89083 L490.319969,126.955346 L491.384485,126.955346 L491.384485,128.019863 L490.319969,128.019863 L490.319969,129.084379 L491.384485,129.084379 L491.384485,130.148895 L490.319969,130.148895 L490.319969,131.213411 L489.255453,131.213411 L489.255453,132.277927 L488.190937,132.277927 L488.190937,131.213411 L487.126421,131.213411 L487.126421,132.277927 L486.061904,132.277927 L486.061904,131.213411 L484.997388,131.213411 L484.997388,132.277927 L483.932872,132.277927 L483.932872,131.213411 L482.868356,131.213411 L482.868356,132.277927 L481.80384,132.277927 L481.80384,131.213411 L480.739324,131.213411 L480.739324,132.277927 L479.674808,132.277927 L479.674808,131.213411 L478.610292,131.213411 L478.610292,130.148895 L477.545775,130.148895 L477.545775,129.084379 L478.610292,129.084379 L478.610292,128.019863 L477.545775,128.019863 L477.545775,126.955346 L478.610292,126.955346 L478.610292,125.89083 L477.545775,125.89083 L477.545775,124.826314 L478.610292,124.826314 L478.610292,123.761798 L477.545775,123.761798 L477.545775,122.697282 L478.610292,122.697282 L478.610292,121.632766 L477.545775,121.632766 L477.545775,120.56825 L478.610292,120.56825 L478.610292,119.503734 L479.674808,119.503734 L479.674808,118.439217 L480.739324,118.439217 Z M489.255453,120.56825 L479.674808,120.56825 L479.674808,130.148895 L489.255453,130.148895 L489.255453,120.56825 Z M488.190937,121.632766 L488.190937,129.084379 L480.739324,129.084379 L480.739324,121.632766 L488.190937,121.632766 Z M487.126421,122.697282 L481.80384,122.697282 L481.80384,128.019863 L487.126421,128.019863 L487.126421,122.697282 Z M486.061904,125.89083 L486.061904,126.955346 L482.868356,126.955346 L482.868356,125.89083 L486.061904,125.89083 Z M488.916937,113.951217 C493.330802,115.675213 496.348491,119.7912 496.676926,124.495352 L496.694824,124.809814 L495.631372,124.856653 C495.440993,120.543475 492.774493,116.728979 488.808261,115.056036 L488.529453,114.942814 L488.916937,113.951217 Z M475.004775,117.587605 L475.827114,118.264105 C474.36178,120.046105 473.500265,122.186384 473.32222,124.474047 L473.298888,124.856653 L472.234904,124.809282 C472.352533,122.14533 473.310066,119.648508 475.004775,117.587605 Z M489.427904,111.867959 C494.815601,113.850289 498.467927,118.779727 498.809938,124.484128 L498.825985,124.814072 L497.762001,124.853459 C497.56431,119.550743 494.28011,114.925851 489.363679,112.982614 L489.060646,112.867008 L489.427904,111.867959 Z M473.137614,116.514572 L473.975921,117.169782 C472.326427,119.279552 471.367301,121.790023 471.189118,124.452454 L471.168259,124.852927 L470.104275,124.81354 C470.217646,121.777008 471.266727,118.907072 473.137614,116.514572 Z M486.061904,123.761798 L486.061904,124.826314 L482.868356,124.826314 L482.868356,123.761798 L486.061904,123.761798 Z M484.46513,109.070943 L487.009856,112.251717 L486.178469,112.91704 L484.997388,111.440556 L484.997388,117.374701 L483.932872,117.374701 L483.932872,111.440556 L482.751792,112.91704 L481.920404,112.251717 L484.46513,109.070943 Z M479.298501,111.143556 L480.051114,111.896169 L478.298388,113.648895 L480.051114,115.401621 L479.298501,116.154234 L477.545775,114.401508 L475.79305,116.154234 L475.040437,115.401621 L476.793162,113.648895 L475.040437,111.896169 L475.79305,111.143556 L477.545775,112.896282 L479.298501,111.143556 Z" id="stream"></path>
            </g>
        </g>
    </g>
</svg>