<?xml version="1.0" encoding="UTF-8"?>
<svg width="40.109px" height="39.805px" viewBox="0 0 40.109 39.805" version="1.1" xmlns="http://www.w3.org/2000/svg" xmlns:xlink="http://www.w3.org/1999/xlink">
    <title>stream</title>
    <g id="Logos" stroke="none" stroke-width="1" fill="none" fill-rule="evenodd">
        <g id="Artboard" transform="translate(-99.2917, -434.12)" fill="#282828" fill-rule="nonzero">
            <path d="M111.094748,461.309 L111.906748,462.121 L101.380562,472.648287 L101.433595,472.77632 L103.686748,472.776 L103.686748,473.925 L99.2917479,473.925 L99.2917479,469.529 L100.439748,469.529 L100.440428,471.783153 L100.568461,471.836186 L111.094748,461.309 Z M127.596748,461.309 L138.124121,471.836186 L138.252154,471.783153 L138.251748,469.529 L139.400748,469.529 L139.400748,473.925 L135.004748,473.925 L135.004748,472.776 L137.258987,472.77632 L137.31202,472.648287 L126.784748,462.121 L127.596748,461.309 Z M129.640811,467.970727 C126.637754,470.166935 123.078061,471.32764 119.346291,471.32764 L118.909884,471.322386 C115.281086,471.234887 111.854715,470.055831 108.949203,467.894682 L108.662748,467.675 L109.368748,466.77 L109.64597,466.981974 C112.353988,468.991118 115.545012,470.089047 118.92308,470.173667 L119.346291,470.178959 L119.781155,470.173321 C122.96364,470.09069 125.998604,469.101171 128.609153,467.295108 L128.900748,467.087 L129.578748,468.014 Z M127.385748,464.976 L128.065748,465.903 L128.127762,465.859137 C125.566928,467.737599 122.531129,468.730279 119.346291,468.730279 L118.931728,468.724658 C116.036088,468.64602 113.276651,467.743614 110.900926,466.098543 L110.624748,465.902 L111.303748,464.975 L111.568998,465.163919 C113.751724,466.67154 116.28691,467.500409 118.946455,467.57593 L119.346291,467.581599 C122.151107,467.581599 124.831579,466.747015 127.122999,465.164498 L127.385748,464.976 Z M104.565748,454.868 L105.461748,455.586 L103.054225,458.596902 L103.037748,462.886 L101.888748,462.886 L101.889108,458.643756 L99.4637479,455.587 L100.360748,454.868 L102.404882,457.423094 L102.522015,457.423094 L104.565748,454.868 Z M137.924748,454.594 L133.452916,461.622272 L133.516191,461.737538 L137.452748,461.737 L137.452748,462.886 L131.285748,462.886 L135.758651,455.858743 L135.695376,455.743477 L131.758748,455.743 L131.758748,454.594 L137.924748,454.594 Z M114.725748,445.504 L114.72591,446.727715 L114.80091,446.802715 L116.099591,446.802715 L116.174591,446.727715 L116.173748,445.504 L117.322748,445.504 L117.323271,446.727715 L117.398271,446.802715 L118.696951,446.802715 L118.771951,446.727715 L118.771748,445.504 L119.919748,445.504 L119.920631,446.727715 L119.995631,446.802715 L121.294312,446.802715 L121.369312,446.727715 L121.368748,445.504 L122.517748,445.504 L122.517992,446.727715 L122.592992,446.802715 L123.891672,446.802715 L123.966672,446.727715 L123.965748,445.504 L125.114748,445.504 L125.115352,446.727715 L125.190352,446.802715 L126.413748,446.802 L126.414032,448.026396 L126.489032,448.101396 L127.711748,448.101 L127.711748,449.25 L126.489032,449.250076 L126.414032,449.325076 L126.414032,450.623756 L126.489032,450.698756 L127.711748,450.698 L127.711748,451.847 L126.489032,451.847436 L126.414032,451.922436 L126.414032,453.221117 L126.489032,453.296117 L127.711748,453.296 L127.711748,454.444 L126.489032,454.444797 L126.414032,454.519797 L126.414032,455.818477 L126.489032,455.893477 L127.711748,455.893 L127.711748,457.042 L126.489032,457.042157 L126.414032,457.117157 L126.414032,458.415837 L126.489032,458.490837 L127.711748,458.49 L127.711748,459.639 L126.489032,459.639518 L126.414032,459.714518 L126.413748,460.938 L125.190352,460.938198 L125.115352,461.013198 L125.114748,462.236 L123.965748,462.236 L123.966672,461.013198 L123.891672,460.938198 L122.592992,460.938198 L122.517992,461.013198 L122.517748,462.236 L121.368748,462.236 L121.369312,461.013198 L121.294312,460.938198 L119.995631,460.938198 L119.920631,461.013198 L119.919748,462.236 L118.771748,462.236 L118.771951,461.013198 L118.696951,460.938198 L117.398271,460.938198 L117.323271,461.013198 L117.322748,462.236 L116.173748,462.236 L116.174591,461.013198 L116.099591,460.938198 L114.80091,460.938198 L114.72591,461.013198 L114.725748,462.236 L113.576748,462.236 L113.57723,461.013198 L113.50223,460.938198 L112.277748,460.938 L112.27855,459.714518 L112.20355,459.639518 L110.979748,459.639 L110.979748,458.49 L112.20355,458.490837 L112.27855,458.415837 L112.27855,457.117157 L112.20355,457.042157 L110.979748,457.042 L110.979748,455.893 L112.20355,455.893477 L112.27855,455.818477 L112.27855,454.519797 L112.20355,454.444797 L110.979748,454.444 L110.979748,453.296 L112.20355,453.296117 L112.27855,453.221117 L112.27855,451.922436 L112.20355,451.847436 L110.979748,451.847 L110.979748,450.698 L112.20355,450.698756 L112.27855,450.623756 L112.27855,449.325076 L112.20355,449.250076 L110.979748,449.25 L110.979748,448.101 L112.20355,448.101396 L112.27855,448.026396 L112.277748,446.802 L113.50223,446.802715 L113.57723,446.727715 L113.576748,445.504 L114.725748,445.504 Z M125.190352,447.951396 L113.50223,447.951396 L113.42723,448.026396 L113.42723,459.714518 L113.50223,459.789518 L125.190352,459.789518 L125.265352,459.714518 L125.265352,448.026396 L125.190352,447.951396 Z M123.815748,449.4 L123.815748,458.34 L114.875748,458.34 L114.875748,449.4 L123.815748,449.4 Z M122.592992,450.548756 L116.099591,450.548756 L116.024591,450.623756 L116.024591,457.117157 L116.099591,457.192157 L122.592992,457.192157 L122.667992,457.117157 L122.667992,450.623756 L122.592992,450.548756 Z M121.218748,454.594 L121.218748,455.743 L117.472748,455.743 L117.472748,454.594 L121.218748,454.594 Z M124.819748,440.051 L125.064091,440.150428 C130.264364,442.318777 133.797157,447.250702 134.17253,452.866533 L134.186748,453.129 L133.038748,453.18 L133.025133,452.924164 C132.672017,447.756984 129.421849,443.219872 124.639276,441.217978 L124.400748,441.121 L124.819748,440.051 Z M107.815748,444.496 L108.702748,445.226 L108.507485,445.471412 C106.841191,447.616042 105.866313,450.158428 105.671389,452.866801 L105.652748,453.18 L104.504748,453.127 L104.523831,452.800494 C104.722926,449.986173 105.698596,447.33798 107.367293,445.073951 L107.610384,444.753155 L107.815748,444.496 Z M125.444748,437.509 L125.717893,437.612915 C132.084713,440.10554 136.37798,446.019922 136.773727,452.842624 L136.786748,453.134 L135.638748,453.176 L135.626051,452.897013 C135.252572,446.532774 131.247849,441.016057 125.310423,438.686814 L125.047748,438.587 L125.444748,437.509 Z M105.540748,443.187 L106.444748,443.893 L106.230205,444.176318 C104.355955,446.705762 103.269802,449.678097 103.071113,452.821156 L103.052748,453.175 L101.904748,453.132 L101.923366,452.766697 C102.124371,449.535536 103.201213,446.47287 105.05989,443.835706 L105.318184,443.478754 L105.540748,443.187 Z M121.218748,451.997 L121.218748,453.146 L117.472748,453.146 L117.472748,451.997 L121.218748,451.997 Z M119.345748,434.12 L122.344748,437.868 L121.447748,438.586 L120.054199,436.844013 L119.920631,436.890862 L119.919748,444.055 L118.771748,444.055 L118.771951,436.890862 L118.638384,436.844013 L117.243748,438.586 L116.346748,437.868 L119.345748,434.12 Z M113.042748,436.634 L113.854748,437.446 L111.770004,439.531941 L111.770004,439.638007 L113.854748,441.723 L113.042748,442.535 L110.957903,440.450108 L110.851837,440.450108 L108.765748,442.535 L107.953748,441.723 L110.039736,439.638007 L110.039736,439.531941 L107.953748,437.446 L108.765748,436.634 L110.851837,438.71984 L110.957903,438.71984 L113.042748,436.634 Z" id="stream"></path>
        </g>
    </g>
</svg>