<?xml version="1.0" encoding="UTF-8"?>
<svg width="29px" height="29px" viewBox="0 0 29 29" version="1.1" xmlns="http://www.w3.org/2000/svg" xmlns:xlink="http://www.w3.org/1999/xlink">
    <title>Combined Shape</title>
    <g id="HeroAlive" stroke="none" stroke-width="1" fill="none" fill-rule="evenodd">
        <g id="Artboard" transform="translate(-22.000000, -312.000000)" fill="#000000" fill-rule="nonzero">
            <g id="Group-3" transform="translate(-0.500000, 248.000000)">
                <path d="M34.8855362,64.7415493 C36.2447872,64.7415493 37.3505497,65.8473667 37.3505497,67.2065628 C37.3505497,68.2773898 36.6640687,69.1904309 35.7081945,69.5299146 L35.7081945,69.5299146 L35.7081945,73.0209476 L38.3370816,73.0209476 L38.3370816,69.785871 C38.3370816,69.3315442 38.7054132,68.9632126 39.1597399,68.9632126 L39.1597399,68.9632126 L43.2036542,68.9632126 C43.5431379,68.0073933 44.4562339,67.3208575 45.527006,67.3208575 C46.8862021,67.3208575 47.9920195,68.4267297 47.9920195,69.7859259 C47.9920195,71.145122 46.8862021,72.2509394 45.527006,72.2509394 C44.4562339,72.2509394 43.5431379,71.5644584 43.2036542,70.6085842 L43.2036542,70.6085842 L39.9823983,70.6085842 L39.9823983,73.0210024 L42.0684405,73.0210024 C42.5227673,73.0210024 42.8910989,73.389334 42.8910989,73.8436608 L42.8910989,73.8436608 L42.8910989,75.3304787 L46.2853325,75.3304787 C46.6248161,74.3746594 47.5379121,73.6881235 48.6086842,73.6881235 C49.9678803,73.6881235 51.0736977,74.7939409 51.0736977,76.153137 C51.0736977,77.5123332 49.9678803,78.6181506 48.6086842,78.6181506 C47.5379121,78.6181506 46.6248161,77.9316696 46.2853325,76.9757954 L46.2853325,76.9757954 L42.8910989,76.9757954 L42.8910989,80.7196039 L44.2597282,80.7196039 C44.5992119,79.7637846 45.5123078,79.0772488 46.5830799,79.0772488 C47.9422761,79.0772488 49.0480935,80.1830661 49.0480935,81.5422623 C49.0480935,82.9014584 47.9422761,84.0072758 46.5830799,84.0072758 C45.5123078,84.0072758 44.5992119,83.3207948 44.2597282,82.3649206 L44.2597282,82.3649206 L42.8910989,82.3649206 L42.8910989,83.9178803 C42.8910989,84.372207 42.5227673,84.7405386 42.0684405,84.7405386 L42.0684405,84.7405386 L40.0023615,84.7405386 L40.0023615,88.0332561 C40.9581808,88.3727398 41.6447166,89.2857809 41.6447166,90.3566079 C41.6447166,91.715804 40.5388993,92.8216214 39.1797031,92.8216214 C37.820507,92.8216214 36.7146896,91.7158589 36.7146896,90.3566079 C36.7146896,89.2857809 37.4011706,88.3727398 38.3570448,88.0332561 L38.3570448,88.0332561 L38.3570448,84.7405386 L35.7082494,84.7405386 L35.7082494,87.9150675 C35.7082494,88.3693943 35.3399178,88.7377259 34.885591,88.7377259 L34.885591,88.7377259 L30.8416767,88.7377259 C30.502193,89.6935452 29.5891519,90.3800811 28.518325,90.3800811 C27.1591288,90.3800811 26.0533115,89.2742637 26.0533115,87.9150675 C26.0533115,86.5558714 27.159074,85.450054 28.518325,85.450054 C29.5891519,85.450054 30.502193,86.136535 30.8416767,87.0924092 L30.8416767,87.0924092 L34.0629326,87.0924092 L34.0629326,84.7405386 L31.9253372,84.7405386 C31.4710104,84.7405386 31.1026788,84.372207 31.1026788,83.9178803 L31.1026788,83.9178803 L31.1026788,82.3649206 L27.862063,82.3649206 C27.5225793,83.32074 26.6095382,84.0072758 25.5387112,84.0072758 C24.1795151,84.0072758 23.0736977,82.9014584 23.0736977,81.5422623 C23.0736977,80.1830661 24.1794602,79.0772488 25.5387112,79.0772488 C26.6095382,79.0772488 27.5225793,79.7637297 27.862063,80.7196039 L27.862063,80.7196039 L31.1026788,80.7196039 L31.1026788,76.9757954 L27.9281499,76.9757954 C27.4738231,76.9757954 27.1054915,76.6074638 27.1054915,76.153137 L27.1054915,76.153137 L27.1054915,72.1092776 C26.1496173,71.7697939 25.4630815,70.8567528 25.4630815,69.7859259 C25.4630815,68.4266749 26.5688989,67.3209123 27.928095,67.3209123 C29.2872912,67.3209123 30.3931085,68.4266749 30.3931085,69.7859259 C30.3931085,70.8567528 29.7066276,71.7697939 28.7507534,72.1092776 L28.7507534,72.1092776 L28.7507534,75.3304787 L31.102624,75.3304787 L31.102624,73.8436608 C31.102624,73.389334 31.4709555,73.0210024 31.9252823,73.0210024 L31.9252823,73.0210024 L34.0628778,73.0210024 L34.0628778,69.5299146 C33.1070585,69.1904309 32.4205226,68.2773898 32.4205226,67.2065628 C32.4205226,65.8473667 33.5262852,64.7415493 34.8855362,64.7415493 Z M39.1797031,89.5369111 C38.7277346,89.5369111 38.3600063,89.9046394 38.3600063,90.3566079 C38.3600063,90.8085764 38.7277346,91.1763047 39.1797031,91.1763047 C39.6317265,91.1763047 39.9993999,90.8085764 39.9993999,90.3566079 C39.9993999,89.9046394 39.6316716,89.5369111 39.1797031,89.5369111 Z M28.5182701,87.0953708 C28.0663016,87.0953708 27.6985733,87.463099 27.6985733,87.9150675 C27.6985733,88.3670361 28.0663016,88.7347643 28.5182701,88.7347643 C28.9702386,88.7347643 29.3379669,88.3670361 29.3379669,87.9150675 C29.3379669,87.463099 28.9702386,87.0953708 28.5182701,87.0953708 Z M41.2457822,74.6663192 L32.7479407,74.6663192 L32.7479407,83.0952219 L41.2457822,83.0952219 L41.2457822,74.6663192 Z M25.5387112,80.7225655 C25.0867427,80.7225655 24.7190144,81.0902938 24.7190144,81.5422623 C24.7190144,81.9942308 25.0867427,82.3619591 25.5387112,82.3619591 C25.9906797,82.3619591 26.358408,81.9942308 26.358408,81.5422623 C26.358408,81.0902938 25.9906797,80.7225655 25.5387112,80.7225655 Z M46.5831348,80.7225655 C46.1311114,80.7225655 45.763438,81.0902938 45.763438,81.5422623 C45.763438,81.9942308 46.1311663,82.3619591 46.5831348,82.3619591 C47.0351033,82.3619591 47.4028316,81.9942308 47.4028316,81.5422623 C47.4028316,81.0902938 47.0351033,80.7225655 46.5831348,80.7225655 Z M38.946836,76.1077811 C39.4011628,76.1077811 39.7694943,76.4761127 39.7694943,76.9304395 L39.7694943,76.9304395 L39.7694943,80.7650147 C39.7694943,81.2193415 39.4011628,81.587673 38.946836,81.587673 L38.946836,81.587673 L35.112206,81.587673 C34.6578792,81.587673 34.2895476,81.2193415 34.2895476,80.7650147 L34.2895476,80.7650147 L34.2895476,76.9304395 C34.2895476,76.4761127 34.6578792,76.1077811 35.112206,76.1077811 L35.112206,76.1077811 Z M38.1241776,77.7530979 L35.9348643,77.7530979 L35.9348643,79.9423563 L38.1241776,79.9423563 L38.1241776,77.7530979 Z M48.6086842,75.3334403 C48.1567157,75.3334403 47.7889874,75.7011685 47.7889874,76.153137 C47.7889874,76.6051055 48.1567157,76.9728338 48.6086842,76.9728338 C49.0606527,76.9728338 49.428381,76.6051055 49.428381,76.153137 C49.428381,75.7011685 49.0606527,75.3334403 48.6086842,75.3334403 Z M45.527006,68.9661742 C45.0750375,68.9661742 44.7073092,69.3339025 44.7073092,69.785871 C44.7073092,70.2378395 45.0750375,70.6055678 45.527006,70.6055678 C45.9789745,70.6055678 46.3467028,70.2378395 46.3467028,69.785871 C46.3467028,69.3339025 45.9789745,68.9661742 45.527006,68.9661742 Z M27.9281499,68.9661742 C27.4761265,68.9661742 27.1083982,69.3339025 27.1083982,69.785871 C27.1083982,70.2378395 27.4761265,70.6055678 27.9281499,70.6055678 C28.3801184,70.6055678 28.7478467,70.2378395 28.7478467,69.785871 C28.7478467,69.3339025 28.3801184,68.9661742 27.9281499,68.9661742 Z M34.8855362,66.386866 C34.4335677,66.386866 34.0658394,66.7545943 34.0658394,67.2065628 C34.0658394,67.6585313 34.4335677,68.0262596 34.8855362,68.0262596 C35.3375047,68.0262596 35.705233,67.6585313 35.705233,67.2065628 C35.705233,66.7545943 35.3375047,66.386866 34.8855362,66.386866 Z" id="Combined-Shape"></path>
            </g>
        </g>
    </g>
</svg>