<?xml version="1.0" encoding="UTF-8"?>
<svg width="29px" height="33px" viewBox="0 0 29 33" version="1.1" xmlns="http://www.w3.org/2000/svg" xmlns:xlink="http://www.w3.org/1999/xlink">
    <title>output</title>
    <g id="HeroAlive" stroke="none" stroke-width="1" fill="none" fill-rule="evenodd">
        <g id="Artboard" transform="translate(-22.000000, -566.000000)" fill="#000000" fill-rule="nonzero">
            <g id="Group-3" transform="translate(-0.500000, 248.000000)">
                <path d="M51.0736977,342.013869 L51.0736977,346.027203 C51.0736977,349.237723 43.812413,350.756092 37.0736977,350.756092 C32.8700519,350.756092 23.0736977,350.008696 23.0736977,345.765918 C25.7990796,347.856439 30.9136977,348.528487 34.2736977,348.733869 L34.2736977,348.733869 L34.2736977,346.867203 C30.4851908,346.622203 23.0736977,345.75255 23.0736977,342.013869 C23.092413,342.013869 23.092413,342.032585 23.1111282,342.032585 C26.8631769,344.907203 35.0390796,345.093869 37.0736977,345.093869 L37.2088342,345.093603 C39.4493652,345.084917 47.4181422,344.846925 51.0736977,342.013869 L51.0736977,342.013869 Z M38.007031,346.960536 L36.1403644,346.960536 L36.1403644,348.827203 L38.007031,348.827203 L38.007031,346.960536 Z M51.0736977,334.547203 L51.0736977,338.560536 C51.0736977,342.256439 41.9083158,343.227203 37.0736977,343.227203 L36.877229,343.226686 C32.6647546,343.204758 23.0736977,342.470472 23.0736977,338.299251 C25.7990796,340.389772 30.9136977,341.061821 34.2736977,341.267203 L34.2736977,341.267203 L34.2736977,339.400536 C30.4851908,339.155536 23.0736977,338.285883 23.0736977,334.547203 C23.092413,334.547203 23.092413,334.565918 23.1111282,334.565918 C26.023663,336.992585 33.2253991,337.627203 37.0736977,337.627203 C41.2746699,337.627203 47.5783158,337.04314 51.0736977,334.547203 L51.0736977,334.547203 Z M38.007031,339.493869 L36.1403644,339.493869 L36.1403644,341.360536 L38.007031,341.360536 L38.007031,339.493869 Z M51.0736977,327.061821 L51.0736977,331.093869 C51.0736977,334.789772 41.9083158,335.760536 37.0736977,335.760536 C32.2390796,335.760536 23.0736977,334.789772 23.0736977,331.093869 L23.0736977,331.093869 L23.0736977,330.832585 C25.7990796,332.923105 30.9136977,333.595154 34.2736977,333.800536 L34.2736977,333.800536 L34.2736977,331.933869 C30.4222394,331.684737 23.0736977,330.82505 23.0736977,327.061821 C23.092413,327.061821 23.092413,327.080536 23.1111282,327.080536 C26.0618227,329.539043 33.2132463,330.160536 37.0736977,330.160536 C41.3643574,330.160536 47.5613019,329.572828 51.0736977,327.061821 L51.0736977,327.061821 Z M38.007031,332.027203 L36.1403644,332.027203 L36.1403644,333.893869 L38.007031,333.893869 L38.007031,332.027203 Z M37.0736977,318.898314 C43.816545,318.898314 51.0736977,320.420814 51.0736977,323.627203 C51.0736977,326.833592 43.816545,328.293869 37.0736977,328.293869 C30.3308505,328.293869 23.0736977,326.833592 23.0736977,323.627203 C23.0736977,320.420814 30.3308505,318.898314 37.0736977,318.898314 Z" id="output"></path>
            </g>
        </g>
    </g>
</svg>