<?xml version="1.0" encoding="UTF-8"?>
<svg width="29px" height="29px" viewBox="0 0 29 29" version="1.1" xmlns="http://www.w3.org/2000/svg" xmlns:xlink="http://www.w3.org/1999/xlink">
    <title>timetravel</title>
    <g id="HeroAlive" stroke="none" stroke-width="1" fill="none" fill-rule="evenodd">
        <g id="Artboard" transform="translate(-22.000000, -496.000000)" fill="#000000" fill-rule="nonzero">
            <g id="Group-3" transform="translate(-0.500000, 248.000000)">
                <path d="M37.0736977,248.335425 C40.813229,248.335425 44.3289243,249.791698 46.973229,252.435894 C49.6174243,255.080198 51.0736977,258.595894 51.0736977,262.335425 C51.0736977,266.074956 49.6174243,269.590651 46.973229,272.234956 C44.3289243,274.879151 40.813229,276.335425 37.0736977,276.335425 L37.0736977,276.335425 L37.046354,276.334058 C37.0371665,276.334276 37.0282524,276.335425 37.0190102,276.335425 C36.6248227,276.335425 36.2267524,276.3188 35.8357368,276.286097 C35.2337915,276.235675 34.7866665,275.706847 34.8370337,275.104901 C34.8875102,274.502956 35.4156274,274.055612 36.0182837,274.106253 C36.3488149,274.13387 36.6854712,274.147925 37.0190102,274.147925 L37.0190102,274.147925 L37.0327026,274.148526 L37.0600053,274.148526 L37.0600053,274.148526 L37.0736977,274.147925 C43.587143,274.147925 48.8861977,268.84887 48.8861977,262.335425 C48.8861977,255.82198 43.587143,250.522925 37.0736977,250.522925 C32.8759946,250.522925 29.0151118,252.760355 26.9053227,256.3198 L26.9053227,256.3198 L29.9127524,256.3198 L30.0319314,256.326218 C30.5799438,256.385598 31.0065024,256.849744 31.0065024,257.41355 C31.0065024,258.017628 30.5168305,258.5073 29.9127524,258.5073 L29.9127524,258.5073 L26.5736977,258.5073 L26.3260219,258.498623 C25.7532596,258.458359 25.2181176,258.279568 24.7538618,257.995808 C24.7197368,257.976339 24.6869243,257.955394 24.655643,257.932808 C23.7037524,257.306581 23.0736977,256.229401 23.0736977,255.0073 L23.0736977,255.0073 L23.0736977,251.780737 L23.0801155,251.661558 C23.1394958,251.113546 23.6036415,250.686987 24.1674477,250.686987 C24.7715258,250.686987 25.2611977,251.176659 25.2611977,251.780737 L25.2611977,251.780737 L25.2611977,254.817862 L25.4508456,254.528415 C28.0241078,250.705264 32.3705194,248.335425 37.0736977,248.335425 Z M29.7810649,273.078566 C30.0754477,272.551214 30.7417602,272.362378 31.2692212,272.656816 C31.5596118,272.818909 31.8602837,272.970394 32.1628149,273.107058 C32.713354,273.355667 32.9580805,274.003495 32.7094712,274.554034 C32.5268149,274.958503 32.1287446,275.19787 31.7120258,275.19787 C31.5615258,275.19787 31.4085649,275.166644 31.2624946,275.100691 C30.9035805,274.938597 30.5471274,274.758948 30.2028149,274.566722 C29.675354,274.272284 29.486518,273.605972 29.7810649,273.078566 Z M26.0046196,269.153917 C26.4893149,268.793362 27.1744399,268.894042 27.5349946,269.378628 C27.7332915,269.645175 27.945479,269.906636 28.1657055,270.155737 C28.5657446,270.608276 28.5232524,271.299526 28.0707133,271.69962 C27.8625727,271.883589 27.6041743,271.973933 27.3467055,271.973933 C27.0441743,271.973933 26.7429555,271.849081 26.5268305,271.604573 C26.2660258,271.309589 26.0147368,270.999948 25.7799087,270.684237 C25.419354,270.199651 25.5199243,269.514417 26.0046196,269.153917 Z M37.0736977,252.491675 C37.6777758,252.491675 38.1674477,252.981347 38.1674477,253.585425 L38.1674477,253.585425 L38.1674477,262.335425 C38.1674477,262.625487 38.0522212,262.903737 37.847143,263.108816 L37.847143,263.108816 L33.5161118,267.439847 C33.3025024,267.653401 33.0225571,267.760206 32.7426665,267.760206 C32.4626665,267.760206 32.1828305,267.653456 31.9692212,267.439847 C31.5421118,267.012737 31.5421118,266.32023 31.9692212,265.893066 L31.9692212,265.893066 L35.9799477,261.882394 L35.9799477,253.585425 C35.9799477,252.981347 36.4696196,252.491675 37.0736977,252.491675 Z M24.1754321,264.024503 C24.7652915,263.896042 25.3483149,264.270378 25.4767758,264.860566 C25.5474868,265.185245 25.6329087,265.510526 25.730854,265.827495 C25.9091899,266.404667 25.5858774,267.017058 25.0087602,267.195394 C24.9011899,267.228589 24.7924712,267.244394 24.6855024,267.244394 C24.2184712,267.244394 23.7860024,266.942847 23.6408618,266.473191 C23.5245962,266.09705 23.4232055,265.711011 23.3393149,265.325847 C23.210854,264.735659 23.5851899,264.153019 24.1754321,264.024503 Z" id="timetravel"></path>
            </g>
        </g>
    </g>
</svg>