<?xml version="1.0" encoding="UTF-8"?>
<svg width="23px" height="22px" viewBox="0 0 23 22" version="1.1" xmlns="http://www.w3.org/2000/svg" xmlns:xlink="http://www.w3.org/1999/xlink">
    <title>logo</title>
    <g id="Superhero" stroke="none" stroke-width="1" fill="none" fill-rule="evenodd">
        <g id="Artboard-Copy" transform="translate(-15.000000, -252.000000)" fill="#000000" fill-rule="nonzero">
            <g id="Superhero-Small" transform="translate(0.000000, 235.000000)">
                <path d="M36.3773463,22.6676471 L37.5420521,23.9617647 L36.3773463,23.9617647 L36.3773463,22.6676471 Z M30.0484506,37.55 L28.9031881,31.8731685 L28.6126404,30.4323529 L32.106758,32.9584552 L30.0484506,37.55 Z M33.5335628,30.4228622 L32.7520608,32.1147059 L29.1302874,29.5736638 L35.0832286,27.0676471 L33.5335628,30.4228622 Z M33.3107973,22.4765845 L35.4714639,21.7617647 L35.4714639,25.8951113 L34.1755304,26.4205882 L31.7185227,24.6910622 L33.3107973,22.4765845 Z M33.2714639,26.7958411 L28.2711708,28.8794118 L26.6714639,22.0205882 L33.2714639,26.7958411 Z M16.8361698,17.75 L26.9676489,17.75 L29.906758,23.3147059 L26.1995015,20.6512904 C26.1131775,20.5888252 26.0100952,20.5676193 25.9113,20.5922827 L19.7283171,22.1027424 L16.8361698,17.75 Z M15.5420521,24.2073152 L25.6119433,21.7617647 L27.4773566,29.6402948 L28.2244051,33.15 L26.0425857,31.7611688 L15.5420521,24.2073152 Z M25.9689983,32.6323529 L28.5440599,34.258928 L29.389111,38.1970588 L22.0126404,38.1970588 L25.9689983,32.6323529 Z" id="logo"></path>
            </g>
        </g>
    </g>
</svg>