<?xml version="1.0" encoding="UTF-8"?>
<svg width="23px" height="21px" viewBox="0 0 23 21" version="1.1" xmlns="http://www.w3.org/2000/svg" xmlns:xlink="http://www.w3.org/1999/xlink">
    <title>Shape</title>
    <g id="Superhero" stroke="none" stroke-width="1" fill="none" fill-rule="evenodd">
        <g id="Artboard-Copy" transform="translate(-14.000000, -568.000000)" fill="#000000" fill-rule="nonzero">
            <g id="Superhero" transform="translate(0.000000, 235.000000)">
                <path d="M30.2579297,342.904655 L29.4866406,341.362077 L28.5426172,344.193718 L25.9644922,344.193718 L24.2659375,349.289382 L21.5675,342.542858 L20.7420703,344.193718 L15.5514453,344.193718 C16.9096875,346.425944 19.7340234,348.82446 24.8717969,353.187507 L25.4991406,353.720319 L25.9159375,353.367546 C31.0627344,349.01653 34.7992969,346.275554 36.0466797,342.904655 L30.2579297,342.904655 Z M30.65625,333.881218 C28.4141406,333.881218 26.4650781,335.159968 25.5,337.0261 C24.5349219,335.159968 22.5858594,333.881218 20.34375,333.881218 C16.8087109,333.881218 14.5,336.735632 14.5,340.356179 C14.5,341.283444 14.6276172,342.105866 14.9219531,342.904655 L19.9454297,342.904655 L21.698125,339.399264 L24.1559375,345.543366 L25.0355078,342.904655 L27.6136328,342.904655 L29.2477344,338.001921 L31.0545703,341.615593 L36.3942969,341.615593 C36.4643359,341.208679 36.5,340.790163 36.5,340.356179 C36.5,336.736061 34.1912891,333.881218 30.65625,333.881218 L30.65625,333.881218 Z" id="Shape"></path>
            </g>
        </g>
    </g>
</svg>