<?xml version="1.0" encoding="UTF-8"?>
<svg width="116px" height="116px" viewBox="0 0 116 116" version="1.1" xmlns="http://www.w3.org/2000/svg" xmlns:xlink="http://www.w3.org/1999/xlink">
    <title>global</title>
    <g id="Products" stroke="none" stroke-width="1" fill="none" fill-rule="evenodd">
        <g id="Homepage-Copy" transform="translate(-1070.000000, -4416.000000)" fill="#000000" fill-rule="nonzero">
            <path d="M1142.56881,4418.91112 C1157.40073,4422.88537 1169.79719,4432.39739 1177.47482,4445.69544 C1184.43571,4457.75207 1186.78626,4471.90588 1184.09408,4485.54848 C1181.42683,4499.06081 1174.02143,4511.16168 1163.24194,4519.62208 C1162.26578,4520.38822 1160.85433,4520.21797 1160.08864,4519.24204 C1159.32249,4518.2661 1159.49275,4516.85443 1160.46868,4516.08873 C1175.39942,4504.36992 1182.46318,4485.73446 1180.21528,4467.71959 C1179.9358,4468.91155 1179.37441,4469.99575 1178.56573,4470.87964 L1178.35843,4471.09638 L1176.90498,4472.54984 C1176.47957,4472.9757 1175.90614,4473.20772 1175.31698,4473.20772 C1175.15504,4473.20772 1174.9922,4473.1902 1174.83048,4473.15449 C1174.13923,4473.00106 1173.56396,4472.53147 1173.27321,4471.89269 L1173.20655,4471.72956 L1170.15297,4463.33296 C1170.12153,4463.24656 1170.0804,4463.16525 1170.03005,4463.0897 L1169.94768,4462.98077 L1167.1807,4459.74121 C1166.99007,4459.51795 1166.72325,4459.37809 1166.43487,4459.34662 L1166.31011,4459.33984 L1165.2376,4459.33984 L1165.35709,4459.5193 C1165.95119,4460.41033 1165.83349,4461.59605 1165.07656,4462.35321 C1162.24818,4465.18115 1158.79909,4467.43504 1155.07173,4468.89529 L1154.53739,4469.09848 L1152.84496,4469.72244 C1151.83908,4470.09458 1150.71807,4469.70006 1150.16036,4468.80079 L1150.07708,4468.65465 L1144.26485,4457.52139 C1144.12521,4457.25392 1144.04111,4456.96164 1144.01695,4456.66225 L1144.00969,4456.4819 L1144.00969,4454.90783 L1140.87368,4451.91445 L1137.56652,4450.75209 C1136.3963,4450.34083 1135.78109,4449.05898 1136.19235,4447.88853 C1136.58552,4446.76941 1137.77522,4446.15705 1138.90264,4446.46643 L1139.05591,4446.51437 L1142.81925,4447.83687 C1143.05986,4447.92151 1143.28393,4448.04625 1143.48204,4448.20546 L1143.6256,4448.33124 L1147.80628,4452.32234 C1148.20592,4452.70339 1148.44929,4453.21725 1148.49397,4453.76356 L1148.50144,4453.94672 L1148.50144,4455.9307 L1153.14414,4464.82369 C1155.65977,4463.87572 1158.03257,4462.50062 1160.11718,4460.79134 L1160.55942,4460.41999 L1160.21666,4459.9054 C1159.5498,4458.90544 1159.4878,4457.62561 1160.05494,4456.5659 C1160.58872,4455.56874 1161.59345,4454.92672 1162.7122,4454.85464 L1162.92322,4454.84786 L1166.31011,4454.84786 C1167.8695,4454.84786 1169.34934,4455.48997 1170.41265,4456.61922 L1170.5959,4456.82353 L1173.36288,4460.06308 C1173.73984,4460.50415 1174.04386,4460.99605 1174.26857,4461.52844 L1174.3743,4461.79797 L1175.92545,4466.06377 C1175.92613,4466.0458 1175.92658,4466.02783 1175.9268,4466.00964 C1175.95311,4464.43753 1176.60409,4462.93153 1177.72328,4461.83489 L1177.92561,4461.64568 L1178.87773,4460.79666 C1177.71133,4456.37341 1175.9569,4452.04876 1173.58524,4447.94087 C1164.78017,4432.69004 1149.48719,4423.46983 1133.18509,4421.74833 L1132.6352,4421.69314 L1126.17474,4429.79685 C1125.94891,4430.08005 1125.65856,4430.30368 1125.32928,4430.44978 L1125.16152,4430.51628 L1110.62857,4435.61134 L1107.33264,4443.6005 L1110.6827,4448.29328 C1112.46411,4445.41805 1115.60019,4443.55956 1119.05237,4443.44956 L1119.37691,4443.44439 L1120.65382,4443.44439 C1121.89389,4443.44439 1122.8997,4444.4502 1122.8997,4445.69027 C1122.8997,4446.87868 1121.97596,4447.85193 1120.80755,4447.93097 L1120.65382,4447.93615 L1119.37691,4447.93615 C1117.04631,4447.93615 1114.94364,4449.36085 1114.07038,4451.50563 L1113.98447,4451.73004 L1113.92921,4451.88412 C1115.00218,4451.76373 1116.08659,4451.72465 1117.06769,4451.68984 C1117.69233,4451.66782 1118.28283,4451.64694 1118.74957,4451.60785 C1119.5712,4451.538 1123.73614,4451.33024 1124.99082,4453.98423 C1125.21318,4454.45456 1125.42544,4455.20768 1125.19095,4456.1461 C1125.20532,4456.15576 1125.21992,4456.16542 1125.2343,4456.17508 C1125.93014,4456.6389 1127.06083,4457.39247 1127.88312,4457.78711 C1128.1266,4457.19324 1128.54235,4456.82375 1128.68274,4456.71122 C1129.21416,4456.28536 1129.92977,4455.9891 1131.07686,4455.72024 C1131.50496,4455.61962 1131.95373,4455.64724 1132.36724,4455.79998 C1132.86071,4455.98214 1133.60889,4456.18474 1134.40154,4456.39924 C1136.75837,4457.03758 1139.42966,4457.76083 1140.84673,4459.26235 C1142.42327,4460.93345 1143.34933,4463.33071 1144.16647,4465.44564 C1144.47531,4466.2448 1144.76707,4466.99972 1145.05907,4467.62369 C1145.22281,4467.9734 1145.3843,4468.33368 1145.54804,4468.69867 C1146.37034,4470.53261 1147.22049,4472.42877 1148.61016,4473.33732 C1148.92528,4473.54329 1149.91537,4473.69512 1150.57055,4473.79575 C1152.22952,4474.05001 1154.29437,4474.36671 1155.10678,4476.25119 C1155.93559,4478.17318 1154.59624,4480.11224 1154.15601,4480.74968 C1153.14998,4482.20606 1151.84859,4483.41805 1150.58987,4484.59029 C1147.68611,4487.29438 1146.48512,4488.71122 1147.17175,4490.92655 C1147.98776,4493.55943 1148.75817,4496.04609 1145.76659,4499.30136 C1145.58982,4499.49363 1145.42518,4499.66928 1145.27065,4499.83347 C1144.38322,4500.77863 1144.11526,4501.06343 1143.74645,4502.22512 C1143.26106,4503.75449 1142.51154,4504.59812 1141.90936,4505.27622 C1141.60995,4505.61359 1141.37344,4505.87997 1141.17264,4506.22363 C1141.04146,4506.44824 1140.97273,4506.79189 1140.88536,4507.22719 C1140.71016,4508.10249 1140.47006,4509.30079 1139.49525,4510.49751 C1137.94319,4512.40333 1134.5646,4515.40951 1131.32685,4515.40974 C1130.66155,4515.40996 1130.00299,4515.28306 1129.36667,4514.99376 C1128.15176,4514.44122 1126.63788,4513.06885 1124.61841,4507.07647 C1124.36752,4506.33121 1123.98456,4505.48803 1123.57892,4504.59475 C1122.33008,4501.84418 1120.91459,4498.72614 1121.93005,4495.58272 C1121.98868,4495.40033 1122.04708,4495.22244 1122.10435,4495.04814 C1122.77279,4493.01093 1123.07781,4492.08127 1122.37725,4490.40253 C1122.26697,4490.13817 1121.90894,4489.7442 1121.56282,4489.36348 C1120.86652,4488.59711 1119.99975,4487.64319 1119.66441,4486.26297 C1119.48124,4485.50808 1119.46196,4484.83522 1119.46286,4484.27193 L1119.46406,4484.0373 L1119.46429,4483.71945 C1119.45895,4483.06606 1119.40493,4482.99452 1119.14197,4482.74826 C1118.52429,4482.17012 1117.91425,4482.21773 1115.98866,4482.69413 C1115.29035,4482.86708 1114.56868,4483.04565 1113.79467,4483.13639 C1109.04372,4483.69522 1104.59239,4481.78558 1101.89235,4478.02898 C1099.1,4474.14367 1098.67436,4468.95922 1100.78165,4464.49868 C1101.67161,4462.61574 1102.89835,4461.17224 1104.11373,4459.80041 L1104.76919,4459.06194 L1105.14606,4458.63186 C1105.43513,4458.29899 1105.85335,4457.70535 1106.29628,4457.07666 C1107.22218,4455.76266 1108.00993,4454.68306 1108.80398,4453.90171 L1109.02081,4453.69605 L1102.95453,4445.1986 C1102.53966,4444.61724 1102.42794,4443.87703 1102.64516,4443.20392 L1102.70634,4443.03718 L1106.85983,4432.96835 C1107.08158,4432.43051 1107.5027,4432.00182 1108.03121,4431.76936 L1108.19289,4431.70559 L1123.06546,4426.49171 L1127.0761,4421.46067 C1118.26262,4421.54804 1109.35548,4423.83165 1101.19359,4428.54398 C1098.96905,4429.82807 1096.87591,4431.253 1094.91281,4432.7963 C1096.72542,4433.92586 1098.1746,4435.6019 1099.00431,4437.61509 C1100.37064,4440.93074 1099.73141,4444.75235 1097.38498,4447.44256 L1097.17352,4447.67695 L1094.70887,4450.31792 L1088.5943,4460.99252 C1088.46583,4461.21677 1088.29983,4461.41673 1088.10402,4461.58399 L1087.95169,4461.70318 L1084.00709,4464.52384 L1086.76103,4468.56323 C1087.19251,4469.19618 1087.2718,4470.005 1086.97127,4470.70938 C1086.67074,4471.41353 1086.03217,4471.91666 1085.27681,4472.04312 C1085.27322,4472.04372 1085.20062,4472.05588 1085.0722,4472.07712 L1084.89215,4472.10681 C1084.24249,4472.21361 1082.8631,4472.43725 1081.47843,4472.64193 C1079.48052,4472.93707 1078.27054,4473.09991 1077.45319,4473.10013 C1076.56373,4473.10013 1076.14012,4472.90697 1075.67248,4472.48111 C1075.55051,4472.36992 1075.44194,4472.24586 1075.348,4472.11203 L1075.25897,4471.97506 L1075.14876,4471.8641 C1075.06161,4471.7783 1074.94601,4471.66794 1074.79537,4471.52764 C1074.69642,4473.27343 1074.6836,4475.02715 1074.75848,4476.78243 L1074.80324,4477.66017 L1080.5299,4475.79995 C1081.17187,4475.59158 1081.8699,4475.6835 1082.43315,4476.04351 L1082.58328,4476.14832 L1092.36461,4483.58516 L1097.43406,4484.57569 C1099.39963,4484.96 1101.10779,4486.17132 1102.121,4487.8988 C1103.13422,4489.6265 1103.35726,4491.70842 1102.73307,4493.61131 C1102.58783,4494.0543 1102.56899,4494.51982 1102.67684,4494.96874 L1102.73082,4495.16 L1103.44239,4497.34973 C1104.60705,4500.93605 1102.70405,4504.79563 1099.18742,4506.07429 L1098.9558,4506.154 L1097.98615,4506.4689 L1095.97387,4516.9728 C1110.14745,4527.61169 1129.11848,4530.672 1146.64257,4523.93661 C1147.79999,4523.49076 1149.09958,4524.06913 1149.54476,4525.227 C1149.98994,4526.38486 1149.41224,4527.68424 1148.25437,4528.12919 C1141.67082,4530.65942 1134.70588,4531.92757 1127.72837,4531.92757 C1121.31103,4531.92757 1114.88381,4530.85551 1108.72702,4528.70733 C1095.73871,4524.17515 1084.793,4515.10966 1077.90623,4503.18128 C1070.22882,4489.88346 1068.18936,4474.39142 1072.16339,4459.55973 C1076.13742,4444.72804 1085.64966,4432.33135 1098.94749,4424.65395 C1112.24554,4416.97655 1127.73735,4414.93687 1142.56881,4418.91112 Z M1157.25316,4521.15032 C1157.84828,4522.17664 1157.54021,4523.47873 1156.57348,4524.13471 L1156.4376,4524.22007 L1156.35112,4524.26994 C1155.99646,4524.47568 1155.60834,4524.57383 1155.22605,4524.57383 C1154.45159,4524.57383 1153.69803,4524.17268 1153.28137,4523.4546 C1152.68625,4522.42829 1152.99432,4521.12619 1153.96105,4520.47021 L1154.09693,4520.38485 L1154.18341,4520.33499 C1155.25705,4519.71282 1156.63099,4520.07803 1157.25316,4521.15032 Z M1080.79988,4480.43523 L1075.27132,4482.23144 C1076.21693,4488.64541 1078.36241,4494.98862 1081.79625,4500.93563 C1084.47681,4505.57864 1087.74961,4509.67465 1091.4668,4513.17669 L1092.02769,4513.69753 L1093.82413,4504.32028 C1093.967,4503.57403 1094.47648,4502.95444 1095.17202,4502.66724 L1095.33575,4502.60695 L1097.56771,4501.88169 C1098.82373,4501.47351 1099.53678,4500.15701 1099.21564,4498.89459 L1099.17008,4498.73714 L1098.45851,4496.54764 C1097.99739,4495.12878 1097.99963,4493.62906 1098.46457,4492.21109 C1098.69053,4491.52132 1098.61327,4490.79695 1098.24603,4490.17096 C1097.91218,4489.60167 1097.39065,4489.20168 1096.76331,4489.02903 L1096.57201,4488.98412 L1090.99,4487.89341 C1090.7201,4487.84076 1090.46286,4487.73909 1090.23058,4487.59393 L1090.06123,4487.47698 L1080.79988,4480.43523 Z M1157.04944,4489.68782 C1157.48855,4488.879 1158.37553,4488.42169 1159.29015,4488.52861 C1160.20364,4488.63777 1160.95833,4489.29318 1161.19439,4490.18264 L1161.19439,4490.18264 L1162.27499,4494.25572 C1162.38101,4494.65463 1162.37472,4495.0751 1162.25725,4495.47109 L1162.25725,4495.47109 L1159.61538,4504.37486 C1158.20797,4509.11773 1156.48566,4511.50084 1154.19464,4511.87527 C1154.00889,4511.90559 1153.80808,4511.92423 1153.59583,4511.92358 C1152.50849,4511.92358 1151.10917,4511.43638 1149.77835,4509.54157 C1147.91319,4506.88645 1149.24333,4503.76325 1149.95827,4502.08563 L1149.95827,4502.08563 L1149.98073,4502.0333 C1150.16019,4501.61193 1150.13728,4501.37968 1150.03823,4500.70967 C1149.92368,4499.93701 1149.7669,4498.87865 1150.18692,4497.54087 C1150.86344,4495.38416 1152.6345,4494.52952 1153.92758,4493.90555 C1154.46844,4493.64456 1155.02817,4493.37435 1155.24604,4493.12368 C1155.63394,4492.67738 1156.00679,4491.86879 1156.36729,4491.08692 C1156.58157,4490.6222 1156.80326,4490.14153 1157.04944,4489.68782 Z M1119.43598,4456.06861 L1119.12377,4456.08434 C1118.54967,4456.1324 1117.90684,4456.15531 1117.22649,4456.17935 C1115.52889,4456.23954 1113.20372,4456.32197 1112.20196,4456.88574 C1111.71006,4457.19166 1110.57713,4458.79987 1109.96866,4459.6635 C1109.45902,4460.38742 1108.97701,4461.07113 1108.53902,4461.57606 C1108.27577,4461.87928 1108.01253,4462.17532 1107.75176,4462.46888 C1106.55773,4463.81205 1105.52654,4464.97261 1104.84395,4466.41708 C1103.43385,4469.40215 1103.70091,4472.847 1105.5407,4475.40688 C1107.29939,4477.85423 1110.11645,4479.04467 1113.27178,4478.67496 C1113.76502,4478.61701 1114.32161,4478.4791 1114.91076,4478.33355 C1116.82893,4477.85917 1119.7273,4477.14244 1122.21284,4479.46895 C1123.9758,4481.11984 1123.96412,4482.89314 1123.95649,4484.06673 C1123.95357,4484.5018 1123.9511,4484.87757 1124.03016,4485.20303 C1124.09507,4485.46987 1124.51622,4485.93346 1124.88795,4486.34248 C1125.46227,4486.97498 1126.11387,4487.69171 1126.52311,4488.67258 C1127.72813,4491.5603 1127.26964,4493.63719 1126.60798,4495.72425 L1126.45234,4496.20644 L1126.37307,4496.44836 C1126.31781,4496.61615 1126.26166,4496.78775 1126.20484,4496.9634 C1125.72372,4498.45234 1126.71268,4500.63106 1127.66929,4502.7379 C1128.10324,4503.69362 1128.55201,4504.6819 1128.87545,4505.64234 C1130.18718,4509.5355 1131.05529,4510.66058 1131.29495,4510.91753 C1131.50496,4510.93011 1132.12129,4510.83847 1133.17696,4510.16823 C1134.31282,4509.44656 1135.41925,4508.38909 1136.01244,4507.66091 C1136.27299,4507.34106 1136.34846,4507.00797 1136.48165,4506.34424 C1136.61664,4505.66974 1136.7851,4504.83014 1137.29452,4503.95821 C1137.7197,4503.23047 1138.18083,4502.71117 1138.55099,4502.2943 C1139.01391,4501.7732 1139.26884,4501.48615 1139.4656,4500.86645 C1140.14302,4498.73265 1140.96128,4497.86161 1141.99718,4496.75878 C1142.14116,4496.60559 1142.29479,4496.44208 1142.45965,4496.26261 C1143.66918,4494.94685 1143.63414,4494.6845 1142.88192,4492.25691 C1141.28831,4487.11581 1144.74866,4483.8931 1147.52911,4481.3038 C1148.62049,4480.28743 1149.65347,4479.32565 1150.37896,4478.31356 C1150.20691,4478.28526 1150.03755,4478.2592 1149.88976,4478.23652 C1148.66743,4478.04897 1147.28226,4477.83671 1146.15225,4477.09797 C1143.66019,4475.4691 1142.48548,4472.84879 1141.44913,4470.5371 C1141.2955,4470.1948 1141.14434,4469.85676 1140.9907,4469.5286 C1140.6329,4468.76381 1140.31395,4467.93904 1139.97636,4467.06508 C1139.30815,4465.33581 1138.55099,4463.37563 1137.57955,4462.34579 C1137.03262,4461.7663 1134.55719,4461.09606 1133.22727,4460.73601 C1132.8405,4460.63112 1132.46315,4460.52892 1132.104,4460.42628 C1131.94497,4460.72703 1131.73115,4460.97635 1131.50294,4461.16232 C1131.4706,4461.1922 1131.44005,4461.22499 1131.40771,4461.25778 C1131.00251,4461.67039 1130.05668,4462.63914 1128.35683,4462.52885 C1126.48762,4462.40981 1124.4978,4461.08349 1122.74247,4459.91327 C1122.12165,4459.49931 1121.53519,4459.10826 1121.11382,4458.88275 C1120.4921,4458.55011 1120.06242,4457.94478 1119.95438,4457.24782 C1119.89284,4456.8516 1119.93888,4456.45225 1120.08061,4456.08838 L1119.75882,4456.07071 L1119.75882,4456.07071 L1119.43598,4456.06861 Z M1157.00901,4497.36859 C1156.61841,4497.59455 1156.2314,4497.7812 1155.87989,4497.95101 C1155.08702,4498.33374 1154.56075,4498.60552 1154.47271,4498.88561 C1154.36557,4499.22634 1154.39611,4499.47431 1154.48169,4500.05134 C1154.61488,4500.95247 1154.79794,4502.18648 1154.11333,4503.79334 L1154.11333,4503.79334 L1154.09064,4503.8459 C1153.66613,4504.8425 1153.02464,4506.34829 1153.45387,4506.95967 C1153.50284,4507.02953 1153.54866,4507.09062 1153.59089,4507.14453 C1153.95723,4506.6441 1154.59197,4505.51521 1155.30938,4503.09705 L1155.30938,4503.09705 Z M1091.21169,4435.99452 C1082.65583,4444.11306 1077.21577,4454.7488 1075.39171,4466.03839 C1076.49769,4467.00623 1077.23958,4467.66861 1077.77348,4468.16455 C1077.91611,4468.29707 1078.05402,4468.42532 1078.18587,4468.55178 C1078.80323,4468.48446 1079.70059,4468.36347 1080.71191,4468.21518 L1081.05301,4468.16477 L1079.0587,4465.23945 C1078.40221,4464.27636 1078.59462,4462.98153 1079.47732,4462.2481 L1079.6081,4462.14724 L1084.94057,4458.33426 L1090.94036,4447.85933 C1090.99771,4447.75931 1091.06264,4447.66387 1091.1345,4447.5739 L1091.2474,4447.44313 L1093.88949,4444.61237 C1095.21244,4443.1944 1095.59024,4441.11945 1094.85127,4439.32662 C1094.19451,4437.73256 1092.84999,4436.51045 1091.21169,4435.99452 Z M1127.81709,4444.94749 C1128.22768,4443.77704 1129.5102,4443.16184 1130.67975,4443.57152 L1130.67975,4443.57152 L1130.83136,4443.62453 C1132.0018,4444.0349 1132.61791,4445.31652 1132.20732,4446.48719 C1131.88298,4447.41146 1131.01509,4447.99028 1130.0879,4447.99028 C1129.84105,4447.99028 1129.59039,4447.9494 1129.34444,4447.86315 L1129.34444,4447.86315 L1129.19305,4447.81014 C1128.02261,4447.39956 1127.4065,4446.11815 1127.81709,4444.94749 Z" id="global"></path>
        </g>
    </g>
</svg>