<?xml version="1.0" encoding="UTF-8"?>
<svg width="125px" height="116px" viewBox="0 0 125 116" version="1.1" xmlns="http://www.w3.org/2000/svg" xmlns:xlink="http://www.w3.org/1999/xlink">
    <title>modularized</title>
    <g id="Products" stroke="none" stroke-width="1" fill="none" fill-rule="evenodd">
        <g id="Homepage-Copy" transform="translate(-650.000000, -4416.000000)" fill="#000000" fill-rule="nonzero">
            <path d="M689.169765,4417.25352 C695.683002,4415.86969 702.45739,4418.98531 705.644781,4424.83124 L705.644781,4424.83124 L709.109083,4431.18493 C709.854464,4432.55178 710.006984,4434.09322 709.538514,4435.52482 C709.087745,4436.90307 708.096004,4438.06746 706.746364,4438.8029 C706.699081,4438.82884 706.650585,4438.85261 706.600877,4438.87419 L706.600877,4438.87419 L704.77234,4439.66855 C704.30872,4439.90376 703.812607,4440.01554 703.322799,4440.01554 C702.181449,4440.01578 701.074288,4439.40837 700.490398,4438.33782 L700.490398,4438.33782 L698.342031,4434.39657 C698.165991,4434.07334 697.790633,4433.90118 697.432491,4433.9778 L697.432491,4433.9778 L689.454921,4435.67346 L691.532726,4445.45023 L712.988267,4445.45023 L712.988267,4439.5912 C712.988267,4434.36771 717.23796,4430.11802 722.46145,4430.11802 C727.68494,4430.11802 731.934632,4434.36771 731.934632,4439.5912 L731.934632,4439.5912 L731.934632,4445.45023 L738.35694,4445.45023 L741.901988,4435.71323 C742.360274,4434.455 743.567336,4433.60996 744.905822,4433.60996 L744.905822,4433.60996 L750.572564,4433.60996 C751.916142,4433.60996 753.123931,4434.45743 753.578337,4435.71905 L753.578337,4435.71905 L757.121445,4445.45023 L771.161726,4445.45023 C772.974744,4445.45023 774.449746,4446.92523 774.449746,4448.73849 L774.449746,4448.73849 L774.449746,4467.36818 C774.449746,4468.37277 773.635743,4469.18677 772.631151,4469.18677 C771.626559,4469.18677 770.812556,4468.37277 770.812556,4467.36842 L770.812556,4467.36842 L770.812556,4449.08766 L766.498606,4449.08766 L766.498606,4484.71636 L770.812313,4484.71636 L770.812313,4475.85495 C770.812313,4474.85036 771.626316,4474.03636 772.630908,4474.03636 C773.6355,4474.03636 774.449746,4474.85036 774.449746,4475.85495 L774.449746,4475.85495 L774.449746,4528.39441 C774.449746,4530.34248 772.864416,4531.92757 770.916337,4531.92757 L770.916337,4531.92757 L653.833495,4531.92757 C651.885416,4531.92757 650.300328,4530.34248 650.300328,4528.39441 L650.300328,4528.39441 L650.300328,4448.73801 C650.300328,4446.92523 651.77533,4445.45047 653.588591,4445.45023 L653.588591,4445.45023 L677.82149,4445.45023 L676.336304,4438.46197 L670.703752,4439.65909 C669.863803,4439.83829 669.003487,4439.67873 668.282596,4439.21026 C667.561947,4438.74204 667.066562,4438.02163 666.887854,4437.18096 L666.887854,4437.18096 L666.837176,4436.94236 L664.125045,4437.51849 L664.338912,4438.52502 C664.616793,4439.83707 663.776602,4441.13022 662.466486,4441.40931 L662.466486,4441.40931 L656.600426,4442.65832 C656.430448,4442.69445 656.2595,4442.71215 656.089765,4442.71215 C655.62275,4442.71215 655.165919,4442.57733 654.76607,4442.31667 C654.221219,4441.96192 653.847316,4441.41634 653.71274,4440.78105 L653.71274,4440.78105 L650.965692,4427.86078 C650.688053,4426.54896 651.528001,4425.25582 652.837875,4424.97649 L652.837875,4424.97649 L658.704904,4423.7299 C659.329289,4423.59241 659.982043,4423.7105 660.530531,4424.06404 C661.079747,4424.4183 661.45656,4424.96557 661.591863,4425.60475 L661.591863,4425.60475 L661.805245,4426.6091 L664.518104,4426.03297 L664.467183,4425.7934 C664.098615,4424.05822 665.21014,4422.34631 666.944837,4421.97726 L666.944837,4421.97726 L674.290991,4420.41593 C675.274487,4420.20546 676.23907,4420.83397 676.448087,4421.81649 C676.657104,4422.79902 676.02981,4423.76482 675.047526,4423.97359 L675.047526,4423.97359 L668.112133,4425.44787 L670.358219,4436.01414 C671.709798,4435.72693 677.530939,4434.48968 683.393332,4433.24364 L684.397891,4433.03012 C689.916101,4431.85723 695.24603,4430.72434 696.675955,4430.42039 C698.595907,4430.01181 700.595634,4430.93129 701.535484,4432.65605 L701.535484,4432.65605 L703.498354,4436.25687 L705.06768,4435.57477 C705.567672,4435.28549 705.926542,4434.86819 706.081729,4434.3939 C706.2374,4433.9184 706.179933,4433.41064 705.91563,4432.92593 L705.91563,4432.92593 L702.451328,4426.57224 C700.028232,4422.12808 694.878214,4419.75809 689.925816,4420.81118 L689.925816,4420.81118 L683.534303,4422.16979 C682.552019,4422.38074 681.586224,4421.75151 681.377449,4420.76923 C681.168675,4419.7867 681.795726,4418.82091 682.778252,4418.61213 L682.778252,4418.61213 Z M770.812556,4488.35355 L653.937518,4488.35355 L653.937518,4528.29062 L770.812556,4528.29062 L770.812556,4488.35355 Z M724.530768,4496.0724 C726.201936,4496.0724 727.56176,4497.43222 727.56176,4499.10339 L727.56176,4499.10339 L727.56176,4507.1052 C727.56176,4508.77661 726.202178,4510.1362 724.530768,4510.1362 L724.530768,4510.1362 L700.219548,4510.1362 C698.548138,4510.1362 697.188557,4508.77661 697.188557,4507.1052 L697.188557,4507.1052 L697.188557,4499.10339 C697.188557,4497.43198 698.548138,4496.0724 700.219548,4496.0724 L700.219548,4496.0724 Z M723.92457,4499.70959 L700.825747,4499.70959 L700.825747,4506.49901 L723.92457,4506.49901 L723.92457,4499.70959 Z M658.251711,4449.08766 L653.937518,4449.08766 L653.937518,4484.7166 L658.251226,4484.7166 L658.251226,4475.8552 C658.251226,4474.8506 659.065471,4474.0366 660.069821,4474.0366 C661.07417,4474.0366 661.888416,4474.8506 661.888416,4475.8552 L661.888416,4475.8552 L661.888416,4484.7166 L686.167386,4484.7166 L680.468637,4457.90445 L661.888901,4457.90445 L661.888901,4467.36939 C661.888901,4468.37398 661.074655,4469.18798 660.070306,4469.18798 C659.065956,4469.18798 658.251711,4468.37398 658.251711,4467.36939 L658.251711,4467.36939 L658.251711,4449.08766 Z M750.264372,4437.24739 L745.21474,4437.24739 L741.57852,4447.23439 C741.380172,4447.779 741.465525,4448.3869 741.806936,4448.85973 L741.806936,4448.85973 L744.766396,4452.94866 C745.415028,4453.83904 745.759349,4454.89916 745.759349,4456.01045 L745.759349,4456.01045 L745.759349,4484.7166 L749.719036,4484.7166 L749.719036,4456.01045 C749.719036,4454.90474 750.062387,4453.84607 750.711747,4452.94866 L750.711747,4452.94866 L753.672662,4448.85803 C754.013103,4448.3869 754.098456,4447.77924 753.900107,4447.23391 L753.900107,4447.23391 L750.264372,4437.24739 Z M685.897264,4436.43 L679.894203,4437.70617 L689.885807,4484.7166 L696.159959,4484.7166 L685.897264,4436.43 Z M742.122159,4457.90421 L731.934632,4457.90421 L731.934632,4464.87355 C734.754424,4465.16355 736.960986,4467.5527 736.960986,4470.44766 C736.960986,4473.53758 734.447203,4476.0516 731.357289,4476.0516 L731.357289,4476.0516 L729.3241,4476.0516 L729.3241,4484.71636 L742.122159,4484.71636 L742.122159,4457.90421 Z M725.68691,4476.0516 L719.100444,4476.0516 L719.100444,4484.71636 L725.68691,4484.71636 L725.68691,4476.0516 Z M712.988267,4457.90421 L694.179631,4457.90421 L699.878137,4484.71636 L715.463011,4484.71636 L715.463011,4476.0516 L713.565611,4476.0516 C710.475697,4476.0516 707.961913,4473.53758 707.961913,4470.44766 C707.961913,4467.5527 710.168718,4465.16355 712.988267,4464.87355 L712.988267,4464.87355 L712.988267,4457.90421 Z M762.861659,4457.90421 L753.356469,4457.90421 L753.356469,4484.71636 L762.861659,4484.71636 L762.861659,4457.90421 Z M731.357289,4468.48091 L713.565853,4468.48091 C712.481486,4468.48091 711.599346,4469.36305 711.599346,4470.44742 C711.599346,4471.53179 712.481486,4472.41417 713.565853,4472.41417 L713.565853,4472.41417 L731.357289,4472.41417 C732.441414,4472.41417 733.323796,4471.53203 733.323796,4470.44742 C733.323796,4469.3633 732.441657,4468.48091 731.357289,4468.48091 L731.357289,4468.48091 Z M722.461692,4433.75521 C719.243507,4433.75521 716.625457,4436.37326 716.625457,4439.59144 L716.625457,4439.59144 L716.625457,4464.84372 L728.297685,4464.84372 L728.297685,4439.5912 C728.297685,4436.37326 725.679636,4433.75521 722.461692,4433.75521 Z M762.861659,4449.08742 L757.491711,4449.08742 C757.329735,4449.762 757.039002,4450.40917 756.620241,4450.98894 L756.620241,4450.98894 L754.24758,4454.26702 L762.861659,4454.26702 L762.861659,4449.08742 Z M737.987159,4449.0879 L731.934632,4449.0879 L731.934632,4454.26726 L741.231047,4454.26726 L738.8596,4450.99064 C738.440353,4450.4099 738.149378,4449.76248 737.987159,4449.08766 L737.987159,4449.0879 Z M712.988267,4449.08766 L692.30575,4449.08766 L693.406606,4454.26702 L712.988267,4454.26702 L712.988267,4449.08766 Z M678.594757,4449.08766 L661.888901,4449.08766 L661.888901,4454.26702 L679.695613,4454.26702 L678.594757,4449.08766 Z M658.284445,4427.53804 L654.774072,4428.2839 L657.020401,4438.84994 L660.530531,4438.10262 L660.305996,4437.04589 C660.172632,4436.42369 660.290719,4435.78476 660.639405,4435.24961 C660.987362,4434.71567 661.522514,4434.35001 662.146414,4434.22053 L662.146414,4434.22053 L666.080883,4433.38518 L665.274397,4429.59087 L661.332653,4430.42791 C660.716028,4430.56151 660.07855,4430.44464 659.543398,4430.09789 C659.011156,4429.75309 658.644285,4429.22181 658.510436,4428.60179 L658.510436,4428.60179 L658.284445,4427.53804 Z" id="modularized"></path>
        </g>
    </g>
</svg>