<?xml version="1.0" encoding="UTF-8"?>
<svg width="111px" height="99px" viewBox="0 0 111 99" version="1.1" xmlns="http://www.w3.org/2000/svg" xmlns:xlink="http://www.w3.org/1999/xlink">
    <title>monetizable</title>
    <g id="Products" stroke="none" stroke-width="1" fill="none" fill-rule="evenodd">
        <g id="Homepage-Copy" transform="translate(-672.000000, -995.000000)" fill="#FFFFFF" fill-rule="nonzero">
            <path d="M674.63718,1034.22583 C675.032859,1034.24125 675.422135,1034.1331 675.737531,1033.92012 L694.81028,1018.83859 C695.911585,1019.50576 697.214215,1019.86101 698.546888,1019.85761 C700.601583,1019.84694 702.536936,1018.99791 703.796479,1017.55462 L710.673671,1020.20408 C710.611634,1020.51391 710.573339,1020.82713 710.559052,1021.14158 C710.559052,1024.42828 713.555968,1027.09267 717.252853,1027.09267 C720.949737,1027.09267 723.946654,1024.42828 723.946654,1021.14158 C723.953673,1019.95002 723.554014,1018.78459 722.800455,1017.79918 L734.033204,1006.48803 C734.968524,1006.92021 736.005127,1007.15061 737.059169,1007.16059 C738.768036,1007.1691 740.413109,1006.58408 741.643964,1005.53015 L757.140572,1014.29375 C756.333727,1016.52196 757.07657,1018.96365 759.036777,1020.52648 C760.996983,1022.0893 763.807792,1022.48086 766.211733,1021.52598 C768.615674,1020.5711 770.162964,1018.44843 770.161391,1016.10761 C770.159569,1015.57664 770.074702,1015.04849 769.909227,1014.53831 L782.242326,1008.26113 C782.93143,1007.81486 783.134126,1006.97854 782.710796,1006.31991 C782.287467,1005.66129 781.374556,1005.39128 780.5918,1005.6932 L768.167005,1011.90923 C765.638855,1009.56718 761.455878,1009.48515 758.814022,1011.72581 L743.317414,1002.96222 C743.555662,1002.38074 743.679729,1001.76719 743.684198,1001.14835 C743.684198,997.861658 740.687281,995.197263 736.990397,995.197263 C733.293512,995.197263 730.296595,997.861658 730.296595,1001.14835 C730.304801,1002.33789 730.703137,1003.49947 731.442794,1004.49075 L720.210046,1015.8019 C719.278593,1015.36072 718.239477,1015.12976 717.184081,1015.12934 C715.126946,1015.13078 713.187278,1015.98171 711.93449,1017.43234 L705.057297,1014.78288 C705.1307,1014.47457 705.1691,1014.1605 705.171917,1013.84538 C705.171917,1010.55868 702.175,1007.89428 698.478116,1007.89428 C694.781232,1007.89428 691.784315,1010.55868 691.784315,1013.84538 C691.797883,1014.7887 692.056801,1015.71643 692.540806,1016.55598 L673.536829,1031.63751 C672.884208,1032.17167 672.81381,1033.06577 673.376362,1033.67556 C673.689353,1034.01019 674.147957,1034.21035 674.63718,1034.22583 L674.63718,1034.22583 Z M763.375894,1013.05054 C764.744773,1013.0257 765.994482,1013.73967 766.537804,1014.85697 C767.081127,1015.97428 766.810042,1017.27278 765.851929,1018.14233 C764.893815,1019.01188 763.439159,1019.27961 762.171479,1018.81971 C760.903798,1018.35981 760.075126,1017.26371 760.074841,1016.04646 C760.074459,1014.41545 761.541703,1013.08382 763.375894,1013.05054 L763.375894,1013.05054 Z M736.990397,998.152428 C738.851499,998.152428 740.360221,999.49375 740.360221,1001.14835 C740.360221,1002.80296 738.851499,1004.14428 736.990397,1004.14428 C735.129294,1004.14428 733.620572,1002.80296 733.620572,1001.14835 C733.620572,999.49375 735.129294,998.152428 736.990397,998.152428 Z M717.184081,1018.08451 C718.549095,1018.07625 719.784874,1018.80093 720.313689,1019.91975 C720.842505,1021.03857 720.559883,1022.3305 719.597949,1023.19156 C718.636016,1024.05262 717.184813,1024.3127 715.92278,1023.85021 C714.660746,1023.38771 713.83718,1022.29402 713.83718,1021.08044 C713.83718,1019.43376 715.331937,1018.09571 717.184081,1018.08451 Z M698.546888,1010.84945 C700.407991,1010.84945 701.916712,1012.19077 701.916712,1013.84538 C701.916712,1015.49998 700.407991,1016.8413 698.546888,1016.8413 C696.685785,1016.8413 695.177063,1015.49998 695.177063,1013.84538 C695.177063,1012.19077 696.685785,1010.84945 698.546888,1010.84945 Z M755.329578,1045.90383 L780.889812,1052.26253 C781.312504,1052.37482 781.768361,1052.32975 782.152979,1052.13764 C782.537598,1051.94554 782.818028,1051.62286 782.930046,1051.2435 C783.056834,1050.86507 783.006716,1050.45717 782.791018,1050.11199 C782.575319,1049.76681 782.212246,1049.51349 781.783847,1049.40926 L756.246537,1043.05056 L756.246537,1042.92828 C756.294105,1040.55255 754.747527,1038.37934 752.31238,1037.40012 C749.877233,1036.4209 747.020278,1036.82336 745.044908,1038.42389 C743.069539,1040.02442 742.354387,1042.51623 743.225718,1044.76252 L720.874841,1057.45954 C719.559924,1056.31732 717.768868,1055.71426 715.932761,1055.79549 C714.096654,1055.87672 712.381791,1056.6349 711.200923,1057.88753 L705.240689,1055.19731 C705.360831,1054.77763 705.422424,1054.3464 705.424081,1053.91334 C705.424081,1050.62665 702.427164,1047.96225 698.73028,1047.96225 C695.033395,1047.96225 692.036479,1050.62665 692.036479,1053.91334 C692.053731,1054.75093 692.264404,1055.57643 692.655426,1056.33862 L673.582677,1070.27885 C672.901458,1070.79005 672.79057,1071.68627 673.330514,1072.31689 C673.911221,1072.91293 674.91036,1073.01064 675.622911,1072.54108 L694.718584,1058.66199 C695.85496,1059.42159 697.239782,1059.82959 698.661508,1059.82368 C700.578091,1059.80935 702.396498,1059.06777 703.658935,1057.78563 L709.642093,1060.53699 C709.549825,1060.93253 709.503733,1061.33548 709.504549,1061.73944 C709.504549,1065.02613 712.501466,1067.69053 716.19835,1067.69053 C719.895234,1067.69053 722.892151,1065.02613 722.892151,1061.73944 C722.881683,1061.14443 722.773564,1060.55396 722.571215,1059.98672 L744.96794,1047.26932 C746.203758,1048.31396 747.847525,1048.89121 749.552736,1048.87937 C751.936995,1048.87298 754.137454,1047.73957 755.329578,1045.90383 L755.329578,1045.90383 Z M698.73028,1056.90927 C697.365265,1056.91753 696.129487,1056.19285 695.600671,1055.07403 C695.071856,1053.95521 695.354478,1052.66328 696.316411,1051.80222 C697.278345,1050.94116 698.729547,1050.68108 699.991581,1051.14357 C701.253615,1051.60607 702.07718,1052.69976 702.07718,1053.91334 C702.07718,1055.56002 700.582424,1056.89807 698.73028,1056.90927 L698.73028,1056.90927 Z M716.244198,1064.73536 C714.383095,1064.73536 712.874373,1063.39404 712.874373,1061.73944 C712.874373,1060.08483 714.383095,1058.74351 716.244198,1058.74351 C718.105301,1058.74351 719.614022,1060.08483 719.614022,1061.73944 C719.614022,1063.39404 718.105301,1064.73536 716.244198,1064.73536 L716.244198,1064.73536 Z M746.320455,1042.92828 C746.464953,1041.3747 747.925383,1040.17924 749.678818,1040.17924 C751.432252,1040.17924 752.892682,1041.3747 753.03718,1042.92828 C753.141871,1044.05387 752.525646,1045.13615 751.443339,1045.72755 C750.361033,1046.31895 748.996603,1046.31895 747.914296,1045.72755 C746.831989,1045.13615 746.215764,1044.05387 746.320455,1042.92828 Z M676.42525,1079.61309 L676.42525,1091.45414 C676.452786,1091.88098 676.272436,1092.29773 675.930195,1092.5981 C675.587954,1092.89847 675.116905,1093.05342 674.63718,1093.02343 C673.712959,1093.02343 672.96373,1092.35733 672.96373,1091.53566 L672.96373,1079.69462 C672.96373,1079.16309 673.282688,1078.67193 673.800455,1078.40617 C674.318222,1078.1404 674.956138,1078.1404 675.473905,1078.40617 C675.991673,1078.67193 676.310631,1079.16309 676.310631,1079.69462 L676.42525,1079.61309 Z M689.629461,1072.23537 L689.629461,1091.53566 C689.704799,1092.10498 689.40552,1092.66214 688.860119,1092.96793 C688.314718,1093.27371 687.620227,1093.27371 687.074826,1092.96793 C686.529425,1092.66214 686.230146,1092.10498 686.305484,1091.53566 L686.305484,1072.23537 C686.230146,1071.66605 686.529425,1071.10888 687.074826,1070.8031 C687.620227,1070.49732 688.314718,1070.49732 688.860119,1070.8031 C689.40552,1071.10888 689.704799,1071.66605 689.629461,1072.23537 L689.629461,1072.23537 Z M702.971215,1066.28428 L702.971215,1091.53566 C703.046553,1092.10498 702.747274,1092.66214 702.201873,1092.96793 C701.656472,1093.27371 700.961982,1093.27371 700.416581,1092.96793 C699.87118,1092.66214 699.571901,1092.10498 699.647239,1091.53566 L699.647239,1066.28428 C699.571901,1065.71495 699.87118,1065.15779 700.416581,1064.85201 C700.961982,1064.54623 701.656472,1064.54623 702.201873,1064.85201 C702.747274,1065.15779 703.046553,1065.71495 702.971215,1066.28428 L702.971215,1066.28428 Z M716.31297,1073.72314 L716.31297,1091.53566 C716.31297,1092.35733 715.563741,1093.02343 714.639519,1093.02343 C713.724263,1093.01228 712.988907,1092.34944 712.988993,1091.53566 L712.988993,1073.72314 C712.988907,1072.90936 713.724263,1072.24652 714.639519,1072.23537 C715.563741,1072.23537 716.31297,1072.90147 716.31297,1073.72314 L716.31297,1073.72314 Z M729.654724,1066.28428 L729.654724,1091.53566 C729.654724,1092.35733 728.905495,1093.02343 727.981274,1093.02343 C727.057053,1093.02343 726.307824,1092.35733 726.307824,1091.53566 L726.307824,1066.28428 C726.307824,1065.4626 727.057053,1064.79651 727.981274,1064.79651 C728.905495,1064.79651 729.654724,1065.4626 729.654724,1066.28428 L729.654724,1066.28428 Z M742.996479,1058.82503 L742.996479,1091.53566 C742.996479,1092.35733 742.247249,1093.02343 741.323028,1093.02343 C740.398807,1093.02343 739.649578,1092.35733 739.649578,1091.53566 L739.649578,1058.82503 C739.649578,1058.00336 740.398807,1057.33726 741.323028,1057.33726 C742.247249,1057.33726 742.996479,1058.00336 742.996479,1058.82503 Z M756.315309,1054.30057 L756.315309,1091.53566 C756.390647,1092.10498 756.091368,1092.66214 755.545967,1092.96793 C755.000566,1093.27371 754.306075,1093.27371 753.760674,1092.96793 C753.215273,1092.66214 752.915994,1092.10498 752.991332,1091.53566 L752.991332,1054.30057 C752.915994,1053.73125 753.215273,1053.17409 753.760674,1052.8683 C754.306075,1052.56252 755.000566,1052.56252 755.545967,1052.8683 C756.091368,1053.17409 756.390647,1053.73125 756.315309,1054.30057 L756.315309,1054.30057 Z M769.657063,1057.27612 L769.657063,1091.53566 C769.732401,1092.10498 769.433122,1092.66214 768.887721,1092.96793 C768.34232,1093.27371 767.64783,1093.27371 767.102429,1092.96793 C766.557028,1092.66214 766.257749,1092.10498 766.333087,1091.53566 L766.333087,1057.33726 C766.257749,1056.76794 766.557028,1056.21077 767.102429,1055.90499 C767.64783,1055.59921 768.34232,1055.59921 768.887721,1055.90499 C769.433122,1056.21077 769.732401,1056.76794 769.657063,1057.33726 L769.657063,1057.27612 Z M782.998818,1060.41471 L782.998818,1091.53566 C782.998818,1092.35733 782.249588,1093.02343 781.325367,1093.02343 C780.410111,1093.01228 779.674755,1092.34944 779.674841,1091.53566 L779.674841,1060.41471 C779.674755,1059.60093 780.410111,1058.93808 781.325367,1058.92694 C782.249588,1058.92694 782.998818,1059.59303 782.998818,1060.41471 L782.998818,1060.41471 Z M672.96373,1060.41471 L672.96373,1042.43915 C672.96373,1041.61748 673.712959,1040.95138 674.63718,1040.95138 C675.561401,1040.95138 676.310631,1041.61748 676.310631,1042.43915 L676.310631,1060.25166 C676.310631,1060.64625 676.134321,1061.02467 675.820488,1061.30368 C675.506655,1061.58269 675.081007,1061.73944 674.63718,1061.73944 C674.193354,1061.73944 673.767705,1061.58269 673.453872,1061.30368 C673.140039,1061.02467 672.96373,1060.64625 672.96373,1060.25166 L672.96373,1060.41471 Z M687.978935,1030.51659 C688.894191,1030.52773 689.629547,1031.19058 689.629461,1032.00436 L689.629461,1046.84133 C689.530312,1047.59059 688.816057,1048.15527 687.967473,1048.15527 C687.118889,1048.15527 686.404633,1047.59059 686.305484,1046.84133 L686.305484,1032.00436 C686.305484,1031.18268 687.054714,1030.51659 687.978935,1030.51659 L687.978935,1030.51659 Z M701.297765,1023.07758 C701.73947,1023.07227 702.165201,1023.22445 702.479711,1023.50024 C702.79422,1023.77602 702.971258,1024.15238 702.971215,1024.54511 L702.971215,1042.35763 C703.046553,1042.92695 702.747274,1043.48412 702.201873,1043.7899 C701.656472,1044.09568 700.961982,1044.09568 700.416581,1043.7899 C699.87118,1043.48412 699.571901,1042.92695 699.647239,1042.35763 L699.647239,1024.54511 C699.647239,1023.73469 700.386205,1023.07758 701.297765,1023.07758 L701.297765,1023.07758 Z M714.639519,1030.51659 C715.083346,1030.51659 715.508995,1030.67333 715.822827,1030.95234 C716.13666,1031.23136 716.31297,1031.60978 716.31297,1032.00436 L716.31297,1049.81687 C716.31297,1050.21146 716.13666,1050.58988 715.822827,1050.86889 C715.508995,1051.1479 715.083346,1051.30465 714.639519,1051.30465 C713.724263,1051.2935 712.988907,1050.63065 712.988993,1049.81687 L712.988993,1032.00436 C712.988907,1031.19058 713.724263,1030.52773 714.639519,1030.51659 L714.639519,1030.51659 Z M727.981274,1021.56957 C728.905495,1021.56957 729.654724,1022.23567 729.654724,1023.05734 L729.654724,1045.35355 C729.654724,1046.17523 728.905495,1046.84133 727.981274,1046.84133 C727.057053,1046.84133 726.307824,1046.17523 726.307824,1045.35355 L726.307824,1023.05734 C726.307824,1022.23567 727.057053,1021.56957 727.981274,1021.56957 L727.981274,1021.56957 Z M741.323028,1012.64293 C742.247249,1012.64293 742.996479,1013.30903 742.996479,1014.1307 L742.996479,1033.43099 C742.996479,1034.25266 742.247249,1034.91876 741.323028,1034.91876 C740.398807,1034.91876 739.649578,1034.25266 739.649578,1033.43099 L739.649578,1014.1307 C739.649578,1013.30903 740.398807,1012.64293 741.323028,1012.64293 Z M754.664783,1023.07772 C755.576343,1023.07772 756.315309,1023.73469 756.315309,1024.54511 L756.315309,1031.88208 C756.21616,1032.63134 755.501905,1033.19602 754.653321,1033.19602 C753.804737,1033.19602 753.090481,1032.63134 752.991332,1031.88208 L752.991332,1024.54511 C752.99129,1024.15238 753.168327,1023.77602 753.482837,1023.50024 C753.797346,1023.22445 754.223077,1023.07227 754.664783,1023.07772 L754.664783,1023.07772 Z M768.006537,1026.05327 C768.448285,1026.05312 768.871614,1026.21062 769.181816,1026.49024 C769.492017,1026.76985 769.663199,1027.14834 769.657063,1027.54104 L769.657063,1037.99621 C769.732401,1038.56554 769.433122,1039.1227 768.887721,1039.42848 C768.34232,1039.73426 767.64783,1039.73426 767.102429,1039.42848 C766.557028,1039.1227 766.257749,1038.56554 766.333087,1037.99621 L766.333087,1027.54104 C766.326852,1027.14478 766.501159,1026.76313 766.816353,1026.48291 C767.131548,1026.20269 767.560828,1026.04772 768.006537,1026.05327 L768.006537,1026.05327 Z M782.998818,1017.10625 L782.998818,1040.86986 C782.998818,1041.69153 782.249588,1042.35763 781.325367,1042.35763 C780.88362,1042.35763 780.46029,1042.20027 780.150089,1041.92066 C779.839888,1041.64105 779.668706,1041.26255 779.674841,1040.86986 L779.674841,1017.10625 C779.674755,1016.29247 780.410111,1015.62962 781.325367,1015.61848 C782.249588,1015.61848 782.998818,1016.28457 782.998818,1017.10625 L782.998818,1017.10625 Z" id="monetizable"></path>
        </g>
    </g>
</svg>