<?xml version="1.0" encoding="UTF-8"?>
<svg width="116px" height="116px" viewBox="0 0 116 116" version="1.1" xmlns="http://www.w3.org/2000/svg" xmlns:xlink="http://www.w3.org/1999/xlink">
    <title>open-source</title>
    <g id="Products" stroke="none" stroke-width="1" fill="none" fill-rule="evenodd">
        <g id="Homepage-Copy" transform="translate(-231.000000, -4416.000000)" fill="#000000" fill-rule="nonzero">
            <path d="M321.134977,4416.92757 C325.369105,4416.92757 328.801598,4420.36007 328.801598,4424.59419 L328.800925,4424.59419 L328.800925,4478.26122 L331.752528,4478.26122 L342.679592,4465.51526 C343.115785,4464.96519 343.817917,4464.69768 344.509492,4464.81785 C345.201067,4464.93801 345.771801,4465.42676 345.996861,4466.09161 C346.22192,4466.75646 346.065592,4467.49116 345.589193,4468.00686 L345.589193,4468.00686 L334.551172,4480.88691 L334.551172,4524.26095 C334.551172,4528.49508 331.118678,4531.92757 326.88455,4531.92757 L326.88455,4531.92757 L250.217659,4531.92757 C245.983531,4531.92757 242.551037,4528.49508 242.551037,4524.26095 L242.551037,4524.26095 L242.551037,4480.88669 L231.514812,4468.00664 C231.038414,4467.49116 230.882085,4466.75623 231.107145,4466.09139 C231.332204,4465.42654 231.902939,4464.93779 232.594514,4464.81762 C233.286313,4464.69746 233.98822,4464.96497 234.424413,4465.51504 L234.424413,4465.51504 L245.349456,4478.26099 L248.301284,4478.26099 L248.301284,4424.59419 C248.301284,4420.36007 251.733778,4416.92757 255.967906,4416.92757 L255.967906,4416.92757 Z M330.718198,4482.09442 L246.38446,4482.09442 L246.38446,4524.2614 C246.38446,4526.37858 248.100707,4528.09482 250.217883,4528.09482 L250.217883,4528.09482 L326.884775,4528.09482 C329.001951,4528.09482 330.718198,4526.37858 330.718198,4524.2614 L330.718198,4524.2614 L330.718198,4482.09442 Z M288.551441,4485.92784 C292.785569,4485.92784 296.218063,4489.36033 296.218063,4493.59446 C296.218063,4494.65305 295.360052,4495.51106 294.301464,4495.51106 C293.242876,4495.51106 292.384864,4494.65305 292.384864,4493.59446 C292.384864,4491.47729 290.668617,4489.76104 288.551441,4489.76104 C286.434265,4489.76104 284.718018,4491.47729 284.718018,4493.59446 L284.718018,4493.59446 L284.718018,4499.34449 L296.218063,4499.34449 C299.393827,4499.34449 301.96831,4501.91897 301.96831,4505.09451 L301.96831,4505.09451 L301.96831,4518.51115 C301.96831,4521.68669 299.393827,4524.26117 296.218288,4524.26117 L296.218288,4524.26117 L280.884819,4524.26117 C277.70928,4524.26117 275.134797,4521.68669 275.134797,4518.51115 L275.134797,4518.51115 L275.134797,4505.09451 C275.134797,4501.91897 277.709055,4499.34449 280.884819,4499.34449 L280.884819,4499.34449 L280.884819,4493.59446 C280.884819,4489.36033 284.317313,4485.92784 288.551441,4485.92784 Z M296.218063,4503.17813 L280.884595,4503.17813 C279.826231,4503.17813 278.967996,4504.03614 278.967996,4505.09473 L278.967996,4505.09473 L278.967996,4518.51138 C278.967996,4519.56974 279.826007,4520.42798 280.884595,4520.42798 L280.884595,4520.42798 L296.218063,4520.42798 C297.276651,4520.42798 298.134662,4519.56996 298.134662,4518.51138 L298.134662,4518.51138 L298.134662,4505.09473 C298.134662,4504.03637 297.276651,4503.17813 296.218063,4503.17813 L296.218063,4503.17813 Z M324.968175,4436.09424 L252.134483,4436.09424 L252.134483,4478.26122 L324.968175,4478.26122 L324.968175,4436.09424 Z M286.634617,4470.59437 C287.693205,4470.59437 288.551217,4471.45261 288.551217,4472.51097 C288.551217,4473.56934 287.693205,4474.42757 286.634617,4474.42757 L286.634617,4474.42757 L267.467951,4474.42757 C266.409587,4474.42757 265.551351,4473.56956 265.551351,4472.51097 C265.551351,4471.45261 266.409363,4470.59437 267.467951,4470.59437 L267.467951,4470.59437 Z M259.801329,4470.59437 C260.859917,4470.59437 261.717928,4471.45261 261.717928,4472.51097 C261.717928,4473.56934 260.859917,4474.42757 259.801329,4474.42757 L259.801329,4474.42757 L257.88473,4474.42757 C256.826366,4474.42757 255.96813,4473.56956 255.96813,4472.51097 C255.96813,4471.45261 256.826142,4470.59437 257.88473,4470.59437 L257.88473,4470.59437 Z M286.634617,4462.92775 C287.693205,4462.92775 288.551217,4463.78599 288.551217,4464.84435 C288.551217,4465.90271 287.693205,4466.76095 286.634617,4466.76095 L286.634617,4466.76095 L267.467951,4466.76095 C266.409587,4466.76095 265.551351,4465.90271 265.551351,4464.84435 C265.551351,4463.78599 266.409363,4462.92775 267.467951,4462.92775 L267.467951,4462.92775 Z M307.718108,4462.92775 C308.776696,4462.92775 309.634707,4463.78599 309.634707,4464.84435 C309.634707,4465.90271 308.776696,4466.76095 307.718108,4466.76095 L307.718108,4466.76095 L294.301464,4466.76095 C293.242876,4466.76095 292.384864,4465.90271 292.384864,4464.84435 C292.384864,4463.78599 293.242876,4462.92775 294.301464,4462.92775 L294.301464,4462.92775 Z M319.218153,4462.92775 C320.276741,4462.92775 321.134752,4463.78599 321.134752,4464.84435 C321.134752,4465.90271 320.276741,4466.76095 319.218153,4466.76095 L319.218153,4466.76095 L315.38473,4466.76095 C314.326142,4466.76095 313.46813,4465.90271 313.46813,4464.84435 C313.46813,4463.78599 314.326142,4462.92775 315.38473,4462.92775 L315.38473,4462.92775 Z M259.801329,4462.92775 C260.859917,4462.92775 261.717928,4463.78599 261.717928,4464.84435 C261.717928,4465.90271 260.859917,4466.76095 259.801329,4466.76095 L259.801329,4466.76095 L257.88473,4466.76095 C256.826366,4466.76095 255.96813,4465.90271 255.96813,4464.84435 C255.96813,4463.78599 256.826142,4462.92775 257.88473,4462.92775 L257.88473,4462.92775 Z M277.051396,4455.26113 C278.10976,4455.26113 278.967996,4456.11914 278.967996,4457.17773 C278.967996,4458.23632 278.109984,4459.09433 277.051396,4459.09433 L277.051396,4459.09433 L267.467951,4459.09433 C266.409363,4459.09433 265.551351,4458.23609 265.551351,4457.17773 C265.551351,4456.11937 266.409363,4455.26113 267.467951,4455.26113 L267.467951,4455.26113 Z M259.801329,4455.26113 C260.859917,4455.26113 261.717928,4456.11914 261.717928,4457.17773 C261.717928,4458.23632 260.859917,4459.09433 259.801329,4459.09433 L259.801329,4459.09433 L257.88473,4459.09433 C256.826366,4459.09433 255.96813,4458.23609 255.96813,4457.17773 C255.96813,4456.11937 256.826142,4455.26113 257.88473,4455.26113 L257.88473,4455.26113 Z M298.134887,4447.59451 C299.19325,4447.59451 300.051486,4448.45252 300.051486,4449.51111 C300.051486,4450.56947 299.193475,4451.42771 298.134887,4451.42771 L298.134887,4451.42771 L294.301464,4451.42771 C293.242876,4451.42771 292.38464,4450.56947 292.384864,4449.51111 C292.384864,4448.45274 293.242876,4447.59451 294.301464,4447.59451 L294.301464,4447.59451 Z M317.301554,4447.59451 C318.359917,4447.59451 319.218153,4448.45252 319.218153,4449.51111 C319.218153,4450.56947 318.360142,4451.42771 317.301554,4451.42771 L317.301554,4451.42771 L305.801509,4451.42771 C304.74292,4451.42771 303.884685,4450.56947 303.884909,4449.51111 C303.884909,4448.45274 304.74292,4447.59451 305.801509,4447.59451 L305.801509,4447.59451 Z M286.634617,4447.59428 C287.693205,4447.59428 288.551217,4448.45252 288.551217,4449.51088 C288.551217,4450.56925 287.693205,4451.42748 286.634617,4451.42748 L286.634617,4451.42748 L267.467951,4451.42748 C266.409587,4451.42748 265.551351,4450.56947 265.551351,4449.51088 C265.551351,4448.45252 266.409363,4447.59428 267.467951,4447.59428 L267.467951,4447.59428 Z M259.801329,4447.59428 C260.859917,4447.59428 261.717928,4448.45252 261.717928,4449.51088 C261.717928,4450.56925 260.859917,4451.42748 259.801329,4451.42748 L259.801329,4451.42748 L257.88473,4451.42748 C256.826366,4451.42748 255.96813,4450.56947 255.96813,4449.51088 C255.96813,4448.45252 256.826142,4447.59428 257.88473,4447.59428 L257.88473,4447.59428 Z M259.801329,4439.92766 C260.859917,4439.92766 261.717928,4440.7859 261.717928,4441.84426 C261.717928,4442.90262 260.859917,4443.76086 259.801329,4443.76086 L259.801329,4443.76086 L257.88473,4443.76086 C256.826366,4443.76086 255.96813,4442.90285 255.96813,4441.84426 C255.96813,4440.7859 256.826142,4439.92766 257.88473,4439.92766 L257.88473,4439.92766 Z M286.634617,4439.92766 C287.693205,4439.92766 288.551217,4440.7859 288.551217,4441.84426 C288.551217,4442.90262 287.693205,4443.76086 286.634617,4443.76086 L286.634617,4443.76086 L267.467951,4443.76086 C266.409587,4443.76086 265.551351,4442.90285 265.551351,4441.84426 C265.551351,4440.7859 266.409363,4439.92766 267.467951,4439.92766 L267.467951,4439.92766 Z M321.134752,4420.76099 L255.967906,4420.76099 C253.850729,4420.76099 252.134483,4422.47724 252.134483,4424.59419 L252.134483,4424.59419 L252.134483,4432.26104 L324.968175,4432.26104 L324.968175,4424.59442 C324.968175,4422.47724 323.251928,4420.76099 321.134752,4420.76099 L321.134752,4420.76099 Z M319.218153,4424.59442 C320.276516,4424.59442 321.134752,4425.45265 321.134752,4426.51102 C321.134752,4427.56938 320.276741,4428.42762 319.218153,4428.42762 L319.218153,4428.42762 L305.801509,4428.42762 C304.74292,4428.42762 303.884909,4427.56938 303.884909,4426.51102 C303.884909,4425.45265 304.74292,4424.59442 305.801509,4424.59442 L305.801509,4424.59442 Z M257.884505,4424.59442 C258.943014,4424.59442 259.801104,4425.45251 259.801104,4426.51102 C259.801104,4427.56953 258.943014,4428.42762 257.884505,4428.42762 C256.825996,4428.42762 255.967906,4427.56953 255.967906,4426.51102 C255.967906,4425.45251 256.825996,4424.59442 257.884505,4424.59442 Z M265.551351,4424.59442 C266.60986,4424.59442 267.467951,4425.45251 267.467951,4426.51102 C267.467951,4427.56953 266.60986,4428.42762 265.551351,4428.42762 C264.492843,4428.42762 263.634752,4427.56953 263.634752,4426.51102 C263.634752,4425.45251 264.492843,4424.59442 265.551351,4424.59442 Z M273.217973,4424.59442 C274.276482,4424.59442 275.134572,4425.45251 275.134572,4426.51102 C275.134572,4427.56953 274.276482,4428.42762 273.217973,4428.42762 C272.159465,4428.42762 271.301374,4427.56953 271.301374,4426.51102 C271.301374,4425.45251 272.159465,4424.59442 273.217973,4424.59442 Z" id="open-source"></path>
        </g>
    </g>
</svg>