<?xml version="1.0" encoding="UTF-8"?>
<svg width="99px" height="99px" viewBox="0 0 99 99" version="1.1" xmlns="http://www.w3.org/2000/svg" xmlns:xlink="http://www.w3.org/1999/xlink">
    <title>reliable</title>
    <g id="Products" stroke="none" stroke-width="1" fill="none" fill-rule="evenodd">
        <g id="Homepage-Copy" transform="translate(-246.000000, -995.000000)" fill="#FFFFFF" fill-rule="nonzero">
            <path d="M291.875842,995.197263 C295.362722,995.197263 298.198223,998.032765 298.198223,1001.51964 C298.198223,1004.92904 295.487344,1007.71568 292.107312,1007.83785 L291.875842,1007.84203 L291.875842,1030.47896 C291.875842,1031.68622 292.29872,1032.82693 293.024627,1033.69024 L293.184772,1033.87091 L299.778819,1030.57389 L299.778819,1020.19583 C297.944309,1019.54136 296.617628,1017.80256 296.617628,1015.745 C296.617628,1013.131 298.745412,1011.00322 301.359414,1011.00322 C303.974188,1011.00322 306.1012,1013.131 306.1012,1015.745 C306.1012,1017.72635 304.871688,1019.41213 303.141792,1020.11869 L302.94001,1020.19583 L302.94001,1030.57389 L310.842986,1034.52538 L318.745963,1030.57389 L318.745963,1019.88326 L310.135269,1015.57907 L311.549933,1012.75129 L320.326559,1017.13883 L328.229535,1013.18734 L328.229535,1001.51964 L331.390726,1001.51964 L331.390726,1013.18734 L340.002193,1017.49153 L338.587529,1020.31931 L329.810131,1015.93177 L321.907154,1019.88326 L321.907154,1030.57389 L329.810131,1034.52538 L338.585985,1030.13629 L340.000649,1032.96408 L331.390726,1037.26981 L331.390726,1047.96044 L340.874298,1052.70222 L340.874298,1066.61501 C342.70958,1067.26948 344.035489,1069.00829 344.035489,1071.06584 C344.035489,1073.67984 341.908477,1075.80763 339.293703,1075.80763 C336.679701,1075.80763 334.551917,1073.67984 334.551917,1071.06584 C334.551917,1069.08449 335.782146,1067.39872 337.511405,1066.69216 L337.713108,1066.61501 L337.713108,1054.65636 L329.810131,1050.70487 L321.907154,1054.65636 L321.907154,1067.30112 L321.033505,1067.73717 L312.423582,1072.04291 L312.423582,1082.73354 L321.035048,1087.03773 L319.620385,1089.86551 L309.262391,1084.68767 L309.262391,1072.04291 L307.731189,1071.27731 C306.025566,1076.56011 302.945412,1081.36518 298.727661,1085.1407 C292.852909,1090.39958 285.495577,1093.19572 277.701421,1093.19726 C276.490506,1093.19726 275.270329,1093.12935 274.042435,1092.99351 C259.443538,1091.3751 247.741112,1079.58855 246.216085,1064.96805 C244.932623,1052.65823 250.687749,1041.01909 261.236371,1034.59484 C262.523398,1033.81424 263.34421,1032.36302 263.419464,1030.76987 L263.425125,1030.5299 L263.425125,1007.84203 C259.938246,1007.84203 257.102744,1005.00652 257.102744,1001.51964 C257.102744,998.110251 259.813624,995.323607 263.193656,995.20144 L263.425125,995.197263 L291.875842,995.197263 Z M291.875842,998.358454 L263.425125,998.358454 C261.681686,998.358454 260.263935,999.776204 260.263935,1001.51964 C260.263935,1003.20297 261.585595,1004.58267 263.245976,1004.67582 L263.425125,1004.68084 L266.586316,1004.68084 L266.586316,1011.00322 L279.231079,1011.00322 L279.231079,1014.16441 L266.586316,1014.16441 L266.586316,1017.3256 L276.069888,1017.3256 L276.069888,1020.48679 L266.586316,1020.48679 L266.586316,1023.64798 L279.231079,1023.64798 L279.231079,1026.80917 L266.586316,1026.80917 L266.586316,1029.97036 L276.069888,1029.97036 L276.069888,1033.13155 L266.147176,1033.13155 C265.563714,1034.8611 264.427661,1036.35757 262.881796,1037.29837 C253.385103,1043.07819 248.205721,1053.55581 249.359524,1064.64081 C250.733284,1077.79263 261.260296,1088.39528 274.392821,1089.85085 C282.621487,1090.7708 290.513659,1088.25482 296.620715,1082.78602 C302.64442,1077.39131 306.1012,1069.66353 306.1012,1061.58227 C306.1012,1051.60553 300.997452,1042.53486 292.451586,1037.31689 C290.225042,1035.95846 288.814373,1033.46902 288.719733,1030.76901 L288.714651,1030.47896 L288.714651,1007.84203 L272.908698,1007.84203 L272.908698,1004.68084 L291.875842,1004.68084 C293.619282,1004.68084 295.037033,1003.26308 295.037033,1001.51964 C295.037033,999.776204 293.619282,998.358454 291.875842,998.358454 Z M277.650484,1037.84787 L290.022038,1059.4977 C291.23604,1061.62009 291.875842,1064.03343 291.875842,1066.47918 C291.875842,1073.64599 286.489167,1079.57841 279.552328,1080.44068 L279.231079,1080.47687 L279.231079,1086.87179 L276.069888,1086.87179 L276.069888,1080.47841 C268.979591,1079.76066 263.425125,1073.75779 263.425125,1066.48072 C263.425125,1064.17884 263.992554,1061.9043 265.071431,1059.87523 L265.279701,1059.4977 L277.650484,1037.84787 Z M277.650484,1044.22119 L268.023361,1061.06518 C267.082567,1062.7106 266.586316,1064.58216 266.586316,1066.47918 C266.586316,1071.91421 270.583626,1076.4218 275.789843,1077.24355 L276.069888,1077.28403 L276.069888,1073.3009 L270.210572,1067.44158 L272.445632,1065.20652 L276.069888,1068.83078 L276.069888,1052.0987 L279.231079,1052.0987 L279.231079,1061.58227 L281.128102,1059.05316 L283.657209,1060.94864 L279.231079,1066.84886 L279.231079,1077.28403 C284.574078,1076.58249 288.714651,1072.01127 288.714651,1066.48072 C288.714651,1064.70873 288.282361,1062.96161 287.46045,1061.39874 L287.278378,1061.06672 L277.650484,1044.22119 Z M339.293703,1069.48525 C338.421597,1069.48525 337.713108,1070.19373 337.713108,1071.06584 C337.713108,1071.93795 338.421597,1072.64644 339.293703,1072.64644 C340.166581,1072.64644 340.874298,1071.93795 340.874298,1071.06584 C340.874298,1070.19373 340.166581,1069.48525 339.293703,1069.48525 Z M310.842986,1050.70487 L307.843097,1052.20443 C308.764596,1055.19197 309.262391,1058.34236 309.262391,1061.58227 C309.262391,1063.5635 309.075183,1065.52461 308.711608,1067.44337 L308.567022,1068.16088 L310.842986,1069.29848 L318.745963,1065.34699 L318.745963,1054.65636 L310.842986,1050.70487 Z M320.326559,1033.31832 L312.423582,1037.26981 L312.423582,1047.96044 L320.326559,1051.91193 L328.229535,1047.96044 L328.229535,1037.26981 L320.326559,1033.31832 Z M301.359414,1033.31832 L296.092821,1035.95007 C300.719819,1039.26403 304.278026,1043.66335 306.523443,1048.69283 L306.751035,1049.21534 L309.262391,1047.96044 L309.262391,1037.26981 L301.359414,1033.31832 Z M319.620385,1037.20498 L321.033505,1040.03276 L318.745963,1041.17654 L318.745963,1044.05371 L321.033505,1045.19748 L319.620385,1048.02527 L315.584772,1046.00708 L315.584772,1039.22317 L319.620385,1037.20498 Z M301.359414,1014.16441 C300.487308,1014.16441 299.778819,1014.8729 299.778819,1015.745 C299.778819,1016.61711 300.487308,1017.3256 301.359414,1017.3256 C302.232292,1017.3256 302.94001,1016.61711 302.94001,1015.745 C302.94001,1014.8729 302.232292,1014.16441 301.359414,1014.16441 Z" id="reliable"></path>
        </g>
    </g>
</svg>