<?xml version="1.0" encoding="UTF-8"?>
<svg viewBox="0 0 468 50" version="1.1" xmlns="http://www.w3.org/2000/svg" xmlns:xlink="http://www.w3.org/1999/xlink">
    <title>accuweather</title>
    <g id="Logos" stroke="none" stroke-width="1" fill="none" fill-rule="evenodd">
        <path d="M441.739443,13.3475955 L454.55025,13.3475955 L454.55025,20.5704503 L454.696659,20.5704503 C456.673184,15.0068999 460.138202,12.3471325 465.604146,12.3227309 C466.214185,12.3227309 466.824223,12.4447386 467.434261,12.5179432 L467.434261,26.6464329 C466.482602,26.5000237 465.457737,26.2316068 464.506077,26.2316068 C458.747314,26.2316068 455.81913,28.9401773 455.81913,36.6266613 L455.81913,48.9006342 L441.739443,48.9006342 L441.739443,13.3475955 Z M439.470101,34.2841138 C439.665313,21.4245041 431.734813,12.3227309 418.557984,12.3227309 C407.162466,12.3227309 398.426716,19.8140026 398.426716,31.4291341 C398.426716,43.4102885 407.235671,49.9010972 418.631188,49.9010972 C426.903309,49.9010972 435.883075,46.9973144 438.323228,38.1883597 L424.804777,38.1883597 C423.779913,40.2380887 421.754585,41.2629533 419.509644,41.2629533 C415.776209,41.2629533 412.506403,38.4811781 412.506403,34.2841138 L439.470101,34.2841138 Z M412.506403,27.0856605 C412.506403,23.3278239 414.897753,20.9608749 419.094818,20.9608749 C422.437828,20.9608749 425.341611,23.8646577 425.341611,27.0856605 L412.506403,27.0856605 Z M357.724953,-4.50350282e-05 L371.80464,-4.50350282e-05 L371.80464,17.8130767 C374.659619,14.2260508 377.831819,12.3227309 382.590119,12.2983294 C391.935907,12.2983294 396.328184,17.7886751 396.328184,27.5736913 L396.328184,48.9006342 L382.224096,48.9006342 L382.224096,30.0870495 C382.224096,26.5488267 381.272436,23.4254301 377.270584,23.4254301 C372.92711,23.4254301 371.780238,26.2072052 371.780238,30.7702926 L371.780238,48.8762327 L357.700552,48.8762327 L357.724953,-4.50350282e-05 Z M354.430746,48.9006342 C335.909979,49.9254988 333.68944,48.6322173 333.68944,36.3582444 L333.68944,21.4733071 L328.662723,21.4733071 L328.662723,13.3231939 L333.884652,13.3231939 L333.884652,2.24489633 L347.769126,2.24489633 L347.769126,13.3231939 L354.552753,13.3231939 L354.552753,21.4733071 L347.769126,21.4733071 L347.769126,34.38172 C347.769126,37.6271243 348.232755,38.7983981 352.185804,38.7983981 L354.430746,38.7983981 L354.430746,48.9006342 Z M328.833534,48.9006342 L328.833534,48.2173912 C327.003419,46.7288975 326.930214,45.7040329 326.930214,43.6787054 L326.930214,27.061259 C326.930214,18.5695243 325.905349,12.3227309 309.092691,12.3227309 C295.013004,12.3227309 289.644666,16.739409 289.644666,24.2794838 L303.236322,24.2794838 C303.577943,21.2292918 306.237711,20.8144656 308.214235,20.8144656 C309.727131,20.8144656 312.850527,21.1560872 312.850527,23.74265 C312.850527,30.379868 287.472929,23.059407 287.472929,39.2132242 C287.472929,46.6068898 293.451306,49.9254988 300.161728,49.9254988 C305.456862,49.9254988 309.531918,48.8518312 313.53377,45.1183961 L314.217013,48.9006342 L328.833534,48.9006342 Z M306.554931,41.9461963 C303.748754,41.9461963 302.065048,40.7261195 302.065048,38.9692088 C302.065048,34.3573184 308.189834,35.430986 312.826126,33.1860447 C313.192149,38.066352 311.532844,41.9461963 306.554931,41.9461963 L306.554931,41.9461963 Z M287.033702,34.2841138 C287.228914,21.4245041 279.298415,12.3227309 266.121585,12.3227309 C254.726067,12.3227309 245.990317,19.8140026 245.990317,31.4291341 C245.990317,43.4102885 254.799272,49.9010972 266.194789,49.9010972 C274.46691,49.9010972 283.446676,46.9973144 285.886829,38.1883597 L272.368378,38.1883597 C271.343514,40.2380887 269.318186,41.2629533 267.073245,41.2629533 C263.33981,41.2629533 260.094405,38.4811781 260.094405,34.2841138 L287.033702,34.2841138 Z M260.094405,27.0856605 C260.094405,23.3278239 262.461354,20.9608749 266.68282,20.9608749 C270.001429,20.9608749 272.929614,23.8646577 272.929614,27.0856605 L260.094405,27.0856605 Z M226.932717,30.2334588 L227.079126,30.2334588 L232.569472,0.0243565015 L248.040046,0.0243565015 L235.888081,48.9006342 L220.14909,48.9006342 L214.512335,20.5460487 L214.390327,20.5460487 L208.826777,48.9006342 L193.063384,48.9006342 L180.911419,0.0243565015 L196.381993,0.0243565015 L201.872339,30.2334588 L202.018748,30.2334588 L207.850716,0.0243565015 L221.076348,0.0243565015 L226.932717,30.2334588 Z M174.981846,48.9738388 L161.902622,48.9738388 L161.902622,43.8007131 C158.388801,48.6810204 154.923783,50.0475064 149.091816,49.9987034 C141.38093,49.9987034 136.354213,45.2404037 136.354213,35.064963 L136.354213,13.4208001 L150.4339,13.4208001 L150.4339,32.6248093 C150.4339,37.5051167 152.142008,39.066815 155.50942,39.066815 C159.584476,39.066815 160.877758,36.0166229 160.877758,30.5506787 L160.877758,13.4208001 L174.957444,13.4208001 L174.981846,48.9738388 Z M118.809509,26.9880544 C118.736304,25.4263561 118.19947,24.2062792 117.321015,23.3278239 C116.44256,22.376164 115.222483,21.9125348 113.660784,21.9125348 C108.365651,21.9125348 107.487196,27.4028805 107.487196,31.6243463 C107.487196,36.9926844 109.536925,40.5065057 113.660784,40.5065057 C117.321015,40.5065057 118.760706,37.9931474 119.15113,35.2357738 L133.401628,35.2357738 C132.181551,45.9968514 123.494604,49.9987034 113.636383,49.9987034 C102.167661,49.9987034 93.3831076,43.5566977 93.3831076,31.5511417 C93.3831076,19.3991765 101.923645,12.3959355 113.636383,12.3959355 C123.128581,12.3959355 132.108346,16.4709921 133.133211,26.9880544 L118.809509,26.9880544 Z M76.9120704,26.9880544 C76.8388658,25.4263561 76.302032,24.2062792 75.4235767,23.3278239 C74.5451214,22.376164 73.3250445,21.9125348 71.7633462,21.9125348 C66.4682128,21.9125348 65.5897574,27.4028805 65.5897574,31.6243463 C65.5897574,36.9926844 67.615085,40.5065057 71.7633462,40.5065057 C75.4235767,40.5065057 76.8388658,37.9931474 77.2536919,35.2357738 L91.5041893,35.2357738 C90.2841124,45.9968514 81.5971654,49.9987034 71.7389447,49.9987034 C60.2702225,49.9987034 51.4612678,43.5566977 51.4612678,31.5511417 C51.4612678,19.3991765 60.0018056,12.3959355 71.7389447,12.3959355 C81.2555439,12.3959355 90.2109078,16.4709921 91.2113708,26.9880544 L76.9120704,26.9880544 Z M16.2986536,48.9738388 L18.1287688,42.5318332 L34.1117753,42.5318332 L36.0150951,48.9738388 L51.9737,48.9738388 L34.4533968,0.0975611112 L18.1531704,0.0975611112 L0.632867133,48.9738388 L16.2986536,48.9738388 Z M31.3055986,32.3563924 L21.1789609,32.3563924 L26.1324728,14.8604907 L31.3055986,32.3563924 Z" id="accuweather" fill="#231F20"></path>
    </g>
</svg>