<?xml version="1.0" encoding="UTF-8"?>
<svg width="137px" height="29px" viewBox="0 0 137 29" version="1.1" xmlns="http://www.w3.org/2000/svg" xmlns:xlink="http://www.w3.org/1999/xlink">
    <title>Combined Shape</title>
    <g id="Logos" stroke="none" stroke-width="1" fill="none" fill-rule="evenodd">
        <path d="M23.0331892,23.8686052 C22.8509211,25.2218784 21.940251,26.3932186 20.6647098,26.9135537 C20.0401737,27.1738887 19.3633696,27.2519558 18.6869005,27.1738887 C18.0362304,27.0958217 17.3855603,26.8877547 16.7087562,26.4974197 C15.771952,25.9767496 14.8351479,25.1699454 13.7418747,23.9728063 C15.459684,21.8646619 16.5006892,19.9387857 16.8910242,18.2209764 C17.0732923,17.4141723 17.0994263,16.6854351 17.0213593,16.008631 C16.9171582,15.3579609 16.6826222,14.7595589 16.3184211,14.2388887 C15.511617,13.0678836 14.1583438,12.3910795 12.6489366,12.3910795 C11.1395294,12.3910795 9.78592112,13.0940176 8.979117,14.2388887 C8.61491597,14.7595589 8.38037988,15.3579609 8.27651391,16.008631 C8.17231287,16.6854351 8.1984469,17.4403063 8.40651391,18.2209764 C8.79684896,19.9387857 9.86398813,21.8904609 11.5556634,23.9989403 C10.4888593,25.1960795 9.52558607,26.0028836 8.58878195,26.5232186 C7.91197782,26.9135537 7.26130772,27.1219558 6.61063762,27.2000228 C5.90803452,27.2780898 5.2312304,27.1738887 4.63282834,26.9396877 C3.3572871,26.4193527 2.446617,25.2480125 2.26434896,23.8947393 C2.18628195,23.2440692 2.23821494,22.5933991 2.49854999,21.8646619 C2.57695205,21.6043269 2.70695205,21.3439918 2.83695205,21.0317238 C3.01922009,20.6155898 3.22762215,20.1729867 3.43568916,19.7303836 L3.46148813,19.6784506 C5.25736442,15.800564 7.18324071,11.8446104 9.18751906,7.99285782 L9.26558607,7.8367238 C9.47365308,7.4460537 9.68172009,7.02991968 9.89012215,6.63958462 C10.0981892,6.22311555 10.3323902,5.8327805 10.6188593,5.49437844 C11.1653283,4.86984236 11.8940655,4.53144029 12.7008696,4.53144029 C13.5076737,4.53144029 14.2364108,4.86984236 14.7828799,5.49437844 C15.069349,5.8327805 15.30355,6.22311555 15.511952,6.63958462 C15.7200191,7.02991968 15.9280861,7.4460537 16.1364881,7.8367238 L16.2142201,7.99285782 C18.1923644,11.8707444 20.1182407,15.826363 21.914117,19.7045846 L21.914117,19.7303836 C22.122184,20.1468527 22.304452,20.6155898 22.5128541,21.0317238 C22.6428541,21.3439918 22.7728541,21.6043269 22.8509211,21.8646619 C23.0593232,22.541131 23.1373902,23.1918011 23.0331892,23.8686052 L23.0331892,23.8686052 Z M12.6489366,22.645332 C11.2433953,20.8755898 10.3323902,19.2100485 10.0201222,17.8045073 C9.8897871,17.2061052 9.86398813,16.6854351 9.94205514,16.2170331 C9.99398813,15.800564 10.1501222,15.436363 10.3585242,15.1240949 C10.8530603,14.4211568 11.6856634,13.9788887 12.6489366,13.9788887 C13.6115397,13.9788887 14.4706118,14.3953578 14.9390139,15.1240949 C15.147416,15.436363 15.30355,15.800564 15.355483,16.2170331 C15.43355,16.6854351 15.407416,17.2319042 15.277416,17.8045073 C14.9651479,19.1839145 14.0541428,20.8494558 12.6489366,22.645332 L12.6489366,22.645332 Z M24.3864624,21.2920589 C24.2564624,20.9797908 24.1261273,20.6413887 23.9961273,20.3552547 C23.7880603,19.8868527 23.5796582,19.4442496 23.3973902,19.0277805 L23.3712562,19.0016465 C21.5757149,15.0979609 19.6498386,11.1420073 17.6197613,7.23798669 L17.5416943,7.08185266 C17.3332923,6.69151761 17.1252252,6.27504854 16.9171582,5.85857947 C16.6568232,5.39017741 16.3964881,4.89564132 15.9800191,4.42723926 C15.147416,3.38623411 13.9502768,2.81363102 12.6747356,2.81363102 C11.3733953,2.81363102 10.2023902,3.38623411 9.34331803,4.37497122 C8.95298298,4.84370833 8.66684896,5.33824442 8.40651391,5.80664648 C8.1984469,6.22311555 7.99004483,6.63958462 7.78197782,7.02991968 L7.70391081,7.1860537 C5.69963246,11.0897393 3.74762215,15.0460279 1.95208092,18.9497135 L1.9259469,19.0016465 C1.74401391,19.4184506 1.53561184,19.8607186 1.32720978,20.3291207 C1.19754483,20.6152547 1.06720978,20.9278578 0.937209782,21.2659248 C0.598472668,22.229198 0.494606689,23.1398681 0.624606689,24.0770073 C0.911075761,26.0290176 2.21241597,27.6684248 4.0079572,28.3971619 C4.68476133,28.683296 5.38736442,28.813631 6.11610153,28.813631 C6.3245036,28.813631 6.58483865,28.787497 6.79290566,28.761363 C7.65164277,28.657497 8.53651391,28.371363 9.39558607,27.8764918 C10.4623902,27.2780898 11.4775964,26.4193527 12.6228026,25.1699454 C13.7680088,26.4193527 14.8090139,27.2780898 15.8500191,27.8764918 C16.7087562,28.371363 17.5936273,28.657497 18.4523644,28.761363 C18.6607665,28.787497 18.9211015,28.813631 19.1291685,28.813631 C19.8579057,28.813631 20.5866428,28.683296 21.2373129,28.3971619 C23.0593232,27.6684248 24.3345294,26.0028836 24.6206634,24.0770073 C24.8290655,23.1660021 24.7248644,22.254997 24.3864624,21.2920589 L24.3864624,21.2920589 Z M72.4072401,8.73180112 C73.8589153,8.73180112 74.6095596,8.98180112 74.6095596,8.98180112 L74.6095596,13.436698 C74.6095596,13.436698 70.6056937,12.0848939 68.1031164,14.9373424 L68.1031164,28.1010021 L63.2983483,28.1010021 L63.2983483,9.23180112 L67.352472,9.23180112 C67.7526009,9.23180112 68.0528586,9.58231658 68.0528586,9.93283205 L68.0528586,10.7337341 C68.9536318,9.68283205 70.9059514,8.73180112 72.4072401,8.73180112 L72.4072401,8.73180112 Z M85.4201267,23.9966207 C83.5683225,23.9966207 82.1166473,23.0455898 81.3660029,21.94443 L81.3660029,15.2382444 C82.1166473,14.2369558 83.7184514,13.1860537 85.4201267,13.1860537 C88.6237349,13.1860537 91.0760545,15.1879867 91.0760545,18.5913372 C91.0760545,21.9946877 88.6237349,23.9966207 85.4201267,23.9966207 L85.4201267,23.9966207 Z M86.2210287,8.73180112 C82.9175493,8.73180112 81.3660029,10.7337341 81.3660029,10.7337341 L81.3660029,0.173167098 L76.5612349,0.173167098 L76.5612349,28.0507444 L80.6160029,28.0507444 C81.0161318,28.0507444 81.3163895,27.700229 81.3163895,27.3503578 L81.3163895,26.499198 C81.3163895,26.499198 82.8679359,28.5513887 86.1714153,28.5513887 C91.6263122,28.5513887 95.8808225,24.3471362 95.8808225,18.6415949 C95.9304359,12.9360537 91.67657,8.73180112 86.2210287,8.73180112 L86.2210287,8.73180112 Z M115.099895,16.8896619 L115.099895,28.1010021 L110.295127,28.1010021 L110.295127,17.4399197 C110.295127,14.3374712 109.293838,13.0861826 106.591518,13.0861826 C105.140487,13.0861826 103.638554,13.8368269 102.687524,14.9373424 L102.687524,28.0507444 L97.8827555,28.0507444 L97.8827555,9.23180112 L101.686879,9.23180112 C102.087008,9.23180112 102.387266,9.58231658 102.387266,9.93283205 L102.387266,10.7337341 C103.788683,9.28205885 105.640487,8.73180112 107.492292,8.73180112 C109.59474,8.73180112 111.346029,9.33231658 112.747446,10.5333475 C114.449766,11.934765 115.099895,13.7363114 115.099895,16.8896619 L115.099895,16.8896619 Z M126.461364,23.9966207 C124.60956,23.9966207 123.157884,23.0455898 122.40724,21.94443 L122.40724,15.2382444 C123.157884,14.2369558 124.759689,13.1860537 126.461364,13.1860537 C129.664972,13.1860537 132.117292,15.1879867 132.117292,18.5913372 C132.117292,21.9946877 129.664972,23.9966207 126.461364,23.9966207 L126.461364,23.9966207 Z M127.262266,8.73180112 C123.958786,8.73180112 122.40724,10.7337341 122.40724,10.7337341 L122.40724,0.173167098 L117.602472,0.173167098 L117.602472,28.0507444 L121.656596,28.0507444 C122.056725,28.0507444 122.357627,27.700229 122.357627,27.3503578 L122.357627,26.499198 C122.357627,26.499198 123.909173,28.5513887 127.212008,28.5513887 C132.667549,28.5513887 136.92206,24.3471362 136.92206,18.6415949 C136.92206,12.9360537 132.667549,8.73180112 127.262266,8.73180112 L127.262266,8.73180112 Z M55.4903586,28.0507444 L60.2951267,28.0507444 L60.2951267,9.23180112 L55.4903586,9.23180112 L55.4903586,28.0507444 Z M47.7326267,21.9946877 C46.9819823,23.0958475 45.4800493,24.0468784 43.6785029,24.0468784 C40.4748947,24.0468784 38.0232194,22.0449454 38.0232194,18.6415949 C38.0232194,15.2382444 40.4748947,13.2363114 43.6785029,13.2363114 C45.4304359,13.2363114 47.0315957,14.2369558 47.7326267,15.2878578 L47.7326267,21.9946877 Z M47.7326267,9.93283205 L47.7326267,10.7337341 C47.7326267,10.7337341 46.1810803,8.73180112 42.8776009,8.73180112 C37.4220596,8.73180112 33.1681937,12.885796 33.1681937,18.6415949 C33.1681937,24.3471362 37.3718019,28.5513887 42.8776009,28.5513887 C46.231338,28.5513887 47.7326267,26.499198 47.7326267,26.499198 L47.7326267,27.3503578 C47.7326267,27.7504867 48.0328844,28.0507444 48.4336576,28.0507444 L52.487137,28.0507444 L52.487137,9.23180112 L48.4336576,9.23180112 C48.0328844,9.23180112 47.7326267,9.58231658 47.7326267,9.93283205 L47.7326267,9.93283205 Z M61.1462865,3.37613102 C61.1462865,5.17832174 59.6946112,6.62935266 57.8930648,6.62935266 C56.0908741,6.62935266 54.6391988,5.17832174 54.6391988,3.37613102 C54.6391988,1.57458462 56.0406164,0.122909366 57.8930648,0.122909366 C59.7442246,0.173167098 61.1462865,1.62484236 61.1462865,3.37613102 L61.1462865,3.37613102 Z" id="Combined-Shape" fill="#231F20"></path>
    </g>
</svg>