<?xml version="1.0" encoding="UTF-8"?>
<svg viewBox="0 0 306 51" version="1.1" xmlns="http://www.w3.org/2000/svg" xmlns:xlink="http://www.w3.org/1999/xlink">
    <title>alibaba</title>
    <g id="Logos" stroke="none" stroke-width="1" fill="none" fill-rule="evenodd">
        <path d="M68.5370427,49.608566 L81.6410558,49.608566 L81.6410558,0.570891933 L68.5370427,0.570891933 L68.5370427,49.608566 Z M32.7876569,30.1368215 L41.7761909,30.1368215 L33.3609575,11.2383776 L32.808132,12.1802285 L24.0038732,30.1572965 L32.7876569,30.1368215 Z M32.7876569,0.570891933 L42.3290165,0.570891933 L66.2847904,49.608566 L50.5599747,49.608566 L46.2602204,39.6986561 L19.5198437,39.6986561 L14.851539,49.608566 L0.0685742195,49.608566 L25.7032999,0.570891933 L32.7876569,0.570891933 Z M134.794209,15.1695815 C136.514111,14.7805561 138.274962,14.596281 140.035814,14.616756 C145.461695,14.616756 149.761449,16.1114325 152.955552,19.3055357 C156.12918,22.4996389 157.644332,26.7789181 157.644332,32.2252736 C157.644332,38.0197044 156.149655,42.5242089 153.160302,45.6978371 C149.966199,48.8919403 145.85072,50.5708919 140.42484,50.5708919 C138.356863,50.5708919 136.493636,50.2023416 134.814684,49.8337912 C133.852358,49.5266659 132.910507,49.1581155 132.009606,48.7076651 C129.388804,47.3972638 127.136551,45.7183121 125.4576,43.2817846 L125.4576,44.4079108 C125.4576,45.3497617 125.4576,46.0868624 125.273324,47.0287134 C125.273324,47.9705643 125.089049,48.8919403 125.089049,49.649516 L111.800761,49.649516 C111.985036,48.3391147 112.169311,47.0287134 112.169311,45.7183121 C112.353587,44.4079108 112.353587,43.0975095 112.353587,41.9713833 L112.353587,0.611841974 L125.4576,0.611841974 L125.4576,20.2678616 C127.320826,18.4046348 129.552604,16.9304333 132.009606,15.9681073 C132.910507,15.5381319 133.852358,15.3538567 134.794209,15.1695815 L134.794209,15.1695815 Z M144.130818,31.631498 C144.130818,28.4578698 143.373243,26.0213424 141.694291,24.1581155 C140.015339,22.2948887 137.763087,21.3530377 134.773734,21.3530377 C131.600106,21.5373129 129.347853,22.2948887 127.668902,24.1581155 C125.98995,26.0213424 125.232374,28.642145 125.232374,32.0205234 C125.232374,35.3784267 125.98995,37.9992294 127.668902,39.8829312 C129.347853,41.7461581 131.784381,42.5037339 134.589459,42.5037339 L134.773734,42.5037339 C137.763087,42.5037339 140.015339,41.5618829 141.694291,39.6986561 C143.393718,37.8149542 144.130818,35.0098764 144.130818,31.631498 L144.130818,31.631498 Z M183.627133,43.0565594 C186.06366,42.8722842 187.742612,42.1147085 189.053013,41.0090574 C190.731965,39.6986561 191.489541,37.630679 191.489541,35.1941516 L191.489541,34.4570508 L190.363415,34.4570508 C187.742612,34.4570508 185.49036,34.4570508 183.627133,34.641326 C181.763906,34.8256012 180.248754,35.0098764 179.143103,35.5831769 C176.890851,36.1360025 175.969475,37.4464038 175.969475,39.3301057 C175.969475,40.4562318 176.522301,41.3776077 177.464152,42.1351835 C178.590278,42.6880091 180.269229,43.0770344 182.521482,43.0770344 L183.627133,43.0565594 Z M191.858091,44.5512359 C190.363415,46.619213 188.295437,47.9296143 185.49036,49.0352654 C184.937534,49.2195406 184.364234,49.4038158 183.627133,49.588091 C181.374881,50.1409165 178.754078,50.5299419 175.764725,50.5299419 C171.464971,50.5299419 168.086592,49.588091 165.854815,47.7248641 C163.418288,46.0459124 162.292161,43.4251098 162.292161,40.0467314 C162.292161,37.9787543 162.660712,36.1155275 163.602563,34.4365758 C164.544414,32.9418993 165.854815,31.631498 167.533767,30.5053719 C169.028443,29.5635209 170.89167,29.0106954 173.328197,28.642145 C175.58045,28.2735946 178.938353,28.0893195 183.627133,28.0893195 L191.489541,28.0893195 L191.489541,27.5364939 L191.489541,27.1474685 C191.489541,25.2842416 190.936715,23.7895652 189.810589,22.8477142 C188.684463,21.9058633 187.189786,21.3530377 185.121809,21.3530377 C184.568984,21.3530377 184.179958,21.5373129 183.627133,21.5373129 C181.948181,21.5373129 180.63778,21.9058633 179.695929,22.4791638 C178.569803,23.0319894 178.016977,24.1581155 177.627952,25.652792 L164.339663,25.652792 C164.892489,21.9058633 166.776191,19.1007855 170.134094,17.2375586 C173.307722,15.5586069 177.812227,14.8010312 183.606658,14.616756 L185.285609,14.616756 C191.653341,14.616756 196.505921,15.7428821 199.515749,17.8108592 C202.505102,19.8583612 204.204528,23.2367396 204.204528,27.7207691 L204.204528,47.7453391 C204.388804,48.2981647 204.573079,49.0557404 204.757354,49.608566 L192.595192,49.608566 C192.206166,48.9943154 192.021891,48.2776896 192.042366,47.5405889 C191.858091,46.9877634 191.858091,46.0459124 191.858091,45.2883367 L191.858091,44.5512359 Z M284.487084,43.0565594 C286.739336,42.8722842 288.602563,42.1147085 289.912964,41.0090574 C291.407641,39.6986561 292.349492,37.630679 292.349492,35.1941516 L292.349492,34.4570508 L291.223365,34.4570508 C288.602563,34.4570508 286.350311,34.4570508 284.487084,34.641326 C282.439582,34.8256012 280.92443,35.0098764 279.818779,35.5831769 C277.750802,36.1360025 276.624676,37.4464038 276.624676,39.3301057 C276.624676,40.4562318 277.177501,41.3776077 278.303627,42.1351835 C279.429754,42.6880091 281.108705,43.0770344 283.176682,43.0770344 L284.487084,43.0565594 Z M292.533767,44.5512359 C291.223365,46.619213 289.155388,47.9296143 286.350311,49.0352654 C285.797485,49.2195406 285.039909,49.4038158 284.487084,49.588091 C281.907231,50.2228166 279.286428,50.5299419 276.624676,50.5299419 C272.324921,50.5299419 268.946543,49.588091 266.530491,47.7248641 C264.278238,46.0459124 262.967837,43.4251098 262.967837,40.0467314 C262.967837,37.9787543 263.520663,36.1155275 264.462514,34.4365758 C265.404365,32.9418993 266.714766,31.631498 268.393718,30.5053719 C269.704119,29.5635209 271.772096,29.0106954 274.208623,28.642145 C276.460876,28.2735946 279.818779,28.0893195 284.507559,28.0893195 L292.369967,28.0893195 L292.369967,27.5364939 L292.369967,27.1474685 C292.369967,25.2842416 291.817141,23.7895652 290.691015,22.8477142 C289.564889,21.9058633 288.070212,21.3530377 286.002235,21.3530377 C285.44941,21.3530377 284.876109,21.5373129 284.507559,21.5373129 C282.828607,21.5373129 281.518206,21.9058633 280.576355,22.4791638 C279.450229,23.0319894 278.713128,24.1581155 278.508378,25.652792 L265.220089,25.652792 C265.58864,21.9058633 267.656617,19.1007855 271.01452,17.2375586 C274.003873,15.5586069 278.508378,14.8010312 284.487084,14.616756 L286.166035,14.616756 C292.533767,14.616756 297.386347,15.7428821 300.396175,17.8108592 C303.385528,19.8583612 304.880204,23.2367396 304.880204,27.7207691 L304.880204,45.1245365 C304.880204,46.0663874 305.064479,46.9877634 305.064479,47.7453391 C305.248754,48.2981647 305.43303,49.0557404 305.617305,49.608566 L293.455143,49.608566 C293.086592,49.0557404 292.902317,48.2981647 292.718042,47.5405889 C292.718042,46.9877634 292.533767,46.0459124 292.533767,45.2883367 L292.533767,44.5512359 Z M235.469885,15.1695815 C237.251211,14.7805561 239.073488,14.596281 240.895765,14.616756 C246.321645,14.616756 250.6214,16.1114325 253.795028,19.3055357 C256.784381,22.4996389 258.483808,26.7789181 258.483808,32.2252736 C258.483808,38.0197044 256.989131,42.5242089 253.795028,45.6978371 C250.805675,48.8919403 246.505921,50.5708919 241.08004,50.5708919 C239.216813,50.5708919 237.333111,50.2023416 235.469885,49.8337912 L232.664807,48.7076651 C230.228279,47.3972638 227.976027,45.7183121 226.1128,43.2817846 L226.1128,47.0287134 C226.1128,47.9705643 225.928525,48.8919403 225.74425,49.649516 L212.640237,49.649516 C212.824512,48.3391147 212.824512,47.0287134 213.008787,45.7183121 C213.008787,44.4079108 213.193062,43.0975095 213.193062,41.9713833 L213.193062,0.611841974 L226.1128,0.611841974 L226.1128,20.2678616 C228.180777,18.4046348 230.412555,16.9099583 232.849082,15.9681073 C233.770458,15.5381319 234.528034,15.3538567 235.469885,15.1695815 L235.469885,15.1695815 Z M245.011244,31.631498 C245.011244,28.4578698 244.274143,26.0213424 242.574717,24.1581155 C240.895765,22.2948887 238.459238,21.3530377 235.65416,21.3530377 L235.469885,21.3530377 C232.480532,21.5373129 230.228279,22.2948887 228.549328,24.1581155 C226.870376,26.0213424 226.1128,28.642145 226.1128,32.0205234 C226.1128,35.3784267 226.870376,37.9992294 228.549328,39.8829312 C230.228279,41.7461581 232.480532,42.5037339 235.469885,42.5037339 C238.459238,42.5037339 240.895765,41.5618829 242.574717,39.6986561 C244.253668,37.8149542 245.011244,35.0098764 245.011244,31.631498 L245.011244,31.631498 Z M90.2405644,49.608566 L103.344577,49.608566 L103.344577,15.3538567 L90.2405644,15.3538567 L90.2405644,49.608566 Z M89.872014,10.1122515 L103.897403,10.1122515 L103.897403,0.570891933 L89.872014,0.570891933 L89.872014,10.1122515 Z" id="alibaba" fill="#231F20"></path>
    </g>
</svg>