<?xml version="1.0" encoding="UTF-8"?>
<svg viewBox="0 0 224 51" version="1.1" xmlns="http://www.w3.org/2000/svg" xmlns:xlink="http://www.w3.org/1999/xlink">
    <title>allrecipes</title>
    <g id="Logos" stroke="none" stroke-width="1" fill="none" fill-rule="evenodd">
        <path d="M209.054163,20.80481 C209.054163,19.0263137 211.519806,18.5412692 213.864188,18.5412692 C216.168149,18.5412692 218.997575,18.9050525 222.352466,20.4006063 L222.109943,13.4887227 C220.008084,12.5590542 217.219078,11.8719078 213.621665,11.8719078 C204.446241,11.8719078 201.455133,16.2777284 201.455133,21.0069119 C201.455133,32.4862975 215.683104,27.8783751 215.683104,32.5267179 C215.683104,34.4264753 213.621665,34.8710994 211.600647,34.8710994 C208.043654,34.8710994 204.527082,33.9414309 201.414713,32.1629345 L200.929669,39.4790218 C203.799515,40.9341552 207.55861,41.8234034 211.560226,41.8234034 C220.371867,41.8234034 223.767262,37.4984236 223.767262,31.8799919 C223.807599,20.80481 209.054163,25.1702102 209.054163,20.80481 L209.054163,20.80481 Z M179.628133,26.0594584 C179.628133,20.7239693 182.942603,18.4200081 186.661277,18.4200081 C189.329022,18.4200081 190.622474,19.6730396 191.471302,21.2494341 L179.668553,26.7870251 C179.668553,26.5445028 179.628133,26.3019806 179.628133,26.0594584 L179.628133,26.0594584 Z M198.746968,20.5218674 L198.221504,19.2284155 C196.564268,15.145958 192.805174,11.8719078 186.540016,11.9123282 C179.264349,11.9123282 171.827001,16.3585691 171.827001,26.7870251 C171.827001,35.8816087 177.364592,41.8638238 187.025061,41.8638238 C192.320129,41.8638238 196.119644,40.2470089 198.261924,38.8322959 L198.787389,30.6269604 C195.472918,33.1330234 191.026677,34.0222716 187.954729,34.0222716 C184.963622,34.0222716 182.821342,33.1330234 181.48747,31.6778901 L197.008892,24.4426435 C198.706548,23.6746564 199.434115,22.1791027 198.746968,20.5218674 L198.746968,20.5218674 Z M155.012126,18.7433711 C159.700889,18.7433711 161.075182,22.4620453 161.034762,26.5445028 C161.075182,32.0820938 158.64996,35.3157235 153.476152,35.3157235 C152.546483,35.3157235 151.616815,35.2348828 150.687146,35.0327809 L150.687146,20.036823 C151.899757,19.2688359 153.27405,18.7433711 155.012126,18.7433711 L155.012126,18.7433711 Z M142.40097,13.1249394 L142.40097,50.15 L150.687146,50.15 L150.687146,41.1766774 C152.14228,41.6213015 153.637833,41.8638238 155.173808,41.8234034 C163.459984,41.8234034 169.725141,36.2858124 169.725141,25.6552546 C169.725141,16.1160469 165.359741,11.9123282 159.337106,11.9123282 C155.41633,11.9123282 152.667745,13.6908246 150.687146,15.6714228 L150.687146,12.1548504 L142.40097,13.1249394 Z M133.589329,0.15 C130.274859,0.15 128.21342,2.17101859 128.21342,4.96002425 C128.21342,7.78945028 130.234438,9.81046888 133.589329,9.81046888 C136.9038,9.81046888 138.843977,7.78945028 138.843977,4.96002425 C138.843977,2.13059822 136.9038,0.15 133.589329,0.15 L133.589329,0.15 Z M129.466451,41.2170978 L137.752627,41.2170978 L137.752627,12.1952708 L129.466451,13.1249394 L129.466451,41.2170978 Z M119.280517,19.2688359 C121.503638,19.2688359 123.726758,19.9964026 125.343573,20.8452304 L125.343573,13.0036783 C122.918351,12.2356912 120.048504,11.9527486 117.784964,11.9527486 C108.367017,11.9527486 103.476152,17.8541229 103.476152,26.9082862 C103.476152,35.9624495 108.367017,41.8638238 117.825384,41.8638238 C120.61439,41.8234034 123.403395,41.3383589 126.030719,40.36827 L126.030719,32.6075586 C123.969281,33.5776475 121.584479,34.3456346 119.320938,34.3456346 C114.955538,34.3456346 111.802749,32.001253 111.802749,26.9082862 C111.802749,21.8153193 114.955538,19.2688359 119.280517,19.2688359 L119.280517,19.2688359 Z M82.5383994,26.0594584 C82.5383994,20.7239693 85.8528698,18.4200081 89.5715441,18.4200081 C92.2392886,18.4200081 93.5327405,19.6730396 94.3815683,21.2494341 L82.5788197,26.7466047 C82.5383994,26.5445028 82.5383994,26.3019806 82.5383994,26.0594584 L82.5383994,26.0594584 Z M101.616815,20.5218674 L101.09135,19.2284155 C99.4341148,15.145958 95.6750202,11.8719078 89.4098626,11.9123282 C82.1341956,11.9123282 74.6968472,16.3585691 74.6968472,26.7870251 C74.6968472,35.8816087 80.2344382,41.8638238 89.894907,41.8638238 C95.1899757,41.8638238 98.9894907,40.2470089 101.13177,38.8322959 L101.657235,30.6269604 C98.3427648,33.1330234 93.8965238,34.0222716 90.8245756,34.0222716 C87.8334681,34.0222716 85.6911884,33.1330234 84.3573161,31.6778901 L99.8787389,24.4426435 C101.576395,23.6746564 102.303961,22.1791027 101.616815,20.5218674 L101.616815,20.5218674 Z M55.2546483,13.1249394 L55.2546483,41.1766774 L63.5812449,41.1766774 L63.5812449,24.1192805 C66.5723525,22.219523 70.2101859,21.6940582 73.3225546,21.8153193 L73.7671787,11.9527486 C68.3508488,11.9527486 65.6022635,14.175869 63.5812449,21.4919563 L63.5812449,12.1144301 L55.2546483,13.1249394 Z M42.3201293,2.7369038 L42.3201293,41.2170978 L50.6467259,41.2170978 L50.6467259,1.80723525 L42.3201293,2.7369038 Z M29.3856103,2.7369038 L29.3856103,41.2170978 L37.6717866,41.2170978 L37.6717866,1.80723525 L29.3856103,2.7369038 Z M11.4793856,36.0028698 C9.86257074,36.0028698 8.56911884,35.2348828 8.56911884,33.2542846 C8.56911884,30.909903 10.5092967,29.5356103 14.6321746,28.4038399 L16.7744543,27.757114 L16.7744543,33.6989086 C15.1576395,35.1136217 13.1366209,36.0028698 11.4793856,36.0028698 L11.4793856,36.0028698 Z M8.7712207,25.4127324 C3.92077607,26.6657639 0,28.8080437 0,34.4264753 C0,39.8832255 3.71867421,41.8638238 7.7607114,41.8638238 C10.9135004,41.8638238 14.3088116,40.691633 16.8148747,37.7005255 L16.8148747,41.1766774 L25.1010509,41.1766774 L25.1010509,21.8961601 C25.1010509,14.5396524 21.301536,11.9123282 13.7833468,11.9123282 C9.74130962,11.9123282 6.14389652,12.6803153 2.82942603,13.7312449 L2.22312045,20.9260711 C5.41632983,19.9964026 8.3265966,19.2688359 11.3177041,19.2688359 C14.9555376,19.2688359 16.7744543,20.2793452 16.7744543,23.1491916 L16.7744543,23.4321342 L8.7712207,25.4127324 Z" id="allrecipes" fill="#000000"></path>
    </g>
</svg>