<?xml version="1.0" encoding="UTF-8"?>
<svg viewBox="0 0 340 43" version="1.1" xmlns="http://www.w3.org/2000/svg" xmlns:xlink="http://www.w3.org/1999/xlink">
    <title>autotrader.com</title>
    <g id="Logos" stroke="none" stroke-width="1" fill="none" fill-rule="evenodd">
        <path d="M133.222687,14.418372 C143.295063,14.418372 147.436599,19.4445666 144.642068,28.6926566 C141.847536,37.9407467 134.730528,42.9467781 124.597838,42.9467781 C114.485252,42.9467781 110.343716,37.8804331 113.118143,28.6926566 C115.89257,19.5450893 123.190519,14.3983261 133.222687,14.418372 Z M298.321199,14.4184307 C307.328035,14.4184307 310.544762,18.7811166 307.931171,27.4461749 C307.770335,27.9688931 307.569289,28.5720294 307.328035,29.2153748 L307.328035,29.2153748 L288.188509,29.2153748 C288.067882,29.6576747 287.866836,30.1401838 287.726105,30.5623792 C286.097636,35.9101878 287.344118,38.7047194 291.103668,38.7047194 C291.537352,38.7047194 291.979652,38.7281063 292.431916,38.7555962 L292.822043,38.779714 C295.439576,38.9412011 298.395052,39.056754 301.940017,35.5282015 C302.00033,35.4477833 303.186499,34.1208834 303.407649,32.8945063 L303.407649,32.8945063 L305.920717,32.8945063 C305.900612,32.9548199 305.880507,33.0553426 305.860403,33.1156562 C303.950471,39.4284829 298.160363,42.9467781 289.394782,42.9467781 C279.845123,42.9467781 276.186096,37.8000149 279.040942,28.3709839 C281.714846,19.5450893 288.650914,14.4184307 298.321199,14.4184307 Z M87.8065227,15.3633442 L82.0365187,34.4425561 C81.9647167,34.6823746 81.8918891,34.9215776 81.8201604,35.1590882 L81.7136572,35.5139501 C80.8374263,38.4583105 80.2989117,41.0540789 84.2480185,41.1976828 L84.2480185,42.243119 L71.0192288,42.1828054 L71.6022605,39.0464966 C68.5262654,41.7002964 65.2693293,42.9266735 61.4695705,42.9266735 C54.4329803,42.9266735 52.1611668,39.7501556 54.1917258,33.0955517 L57.1873028,23.1840117 C58.2126345,19.8265529 58.4940981,16.7304532 54.0509939,16.5696168 L54.8350711,15.7453305 L58.896189,15.7453305 C61.0473751,15.7453305 64.4249385,15.5844942 69.1294017,15.3633442 L64.2641021,31.3062473 C62.8567841,35.9705014 63.0578295,38.2423149 66.4957065,38.2423149 C69.5717016,38.2423149 72.285815,35.5885151 73.874074,30.3814383 L76.0453647,23.1840117 C77.0706964,19.8265529 77.0103828,18.8012212 72.6879059,18.8012212 L73.6127149,15.7453305 L77.7542509,15.7453305 C79.9657507,15.7453305 83.3031049,15.5844942 87.8065227,15.3633442 Z M281.835473,2.15465906 L272.004351,34.6436016 C270.999124,37.9407467 270.999124,38.7449285 275.422124,38.7449285 L275.422124,38.7449285 L274.47721,41.8812373 L261.409257,41.8812373 L262.57532,37.5386558 C259.820998,41.1574737 256.222285,42.9266735 251.397194,42.9266735 C242.953286,42.9266735 239.595827,37.8201195 242.30994,28.8735975 C245.204995,19.3440439 251.316776,14.317908 259.820998,14.317908 C263.982638,14.317908 266.576125,15.6649124 267.601456,18.1578758 L267.601235,18.1559683 L270.154733,9.71396746 C271.121945,6.4767704 271.914735,3.8209768 267.738111,3.64936164 L267.500934,3.64239529 L267.701979,2.45622721 L274.095224,2.45622721 C276.668606,2.41601812 279.262092,2.31549541 281.835473,2.15465906 L281.835473,2.15465906 Z M227.814565,14.4184307 C237.685895,14.4184307 240.440218,16.9516032 238.389554,23.7469389 L238.389554,23.7469389 L235.192932,34.3018243 C234.1676,37.6592831 233.664987,40.5543374 238.087986,40.7754874 L238.087986,40.7754874 L237.565268,41.9013418 L225.120556,41.9013418 L226.065469,38.0211649 C222.768324,41.3585191 218.928356,42.9266735 214.284207,42.9266735 C207.649707,42.9266735 204.734548,39.7300511 206.161971,35.0255879 C208.031694,28.8132839 213.862011,26.0991705 224.316374,26.0991705 L224.316374,26.0991705 L228.839896,26.0991705 L229.583764,23.6062071 C230.689514,19.9471802 229.804914,18.1578758 226.749024,18.1578758 C223.512192,18.1578758 221.159961,19.8265529 220.074315,23.0030708 L220.074315,23.0030708 L211.147898,23.0030708 C212.917098,17.1727531 218.365429,14.4184307 227.814565,14.4184307 Z M109.459116,7.54267675 L107.08678,15.3633442 L114.78682,15.3633442 L113.68107,19.0022666 L105.960926,19.0022666 L101.618344,33.3971199 C100.532699,36.9556241 100.251235,38.6846148 102.342108,38.6846148 C104.071098,38.6846148 105.257267,37.1767741 106.161971,34.140988 L106.383121,33.4373289 L111.469571,33.4373289 C111.389152,33.919838 111.248421,34.3621379 111.127793,34.7843334 C109.439012,40.3532919 105.377894,42.906569 98.2809899,42.906569 C91.4454451,42.906569 89.997918,40.4136056 91.8877451,34.140988 L96.471581,18.9821621 L91.3248178,19.0022666 L91.3248178,17.9166213 C97.3360764,17.2732759 101.81939,12.5688127 104.191726,7.54267675 L109.459116,7.54267675 Z M41.7269087,0.867968266 L44.6420675,32.2109518 C45.0039493,36.1916514 44.6420675,39.8908874 48.8238126,40.0115147 L48.8238126,40.0115147 L48.1201536,42.2833281 L26.6686055,42.2833281 L27.0304873,41.278101 C30.9910824,41.278101 33.2830004,38.0814785 33.8258231,36.211756 C33.9464503,35.769456 33.9062412,35.2065288 33.8459276,34.5229743 L33.8459276,34.5229743 L33.6046731,30.3412292 L18.4056381,30.3412292 L15.6915247,34.4626607 C15.0883884,35.4075742 14.7265066,36.2318605 14.6058794,36.6540559 C14.3445203,37.5989695 14.6259839,39.1872284 17.66177,39.8707829 C17.9834427,39.9512011 19.069088,40.132142 19.3907607,40.132142 L19.3907607,40.132142 L18.4257426,42.3235372 L0.251235202,42.3436418 L0.532698813,41.31831 C3.6553517,41.5254248 6.17199109,37.9954563 8.78296277,34.0400396 L9.15667607,33.4724435 C9.4063469,33.0925933 9.65717586,32.7103147 9.90976791,32.3284681 L10.2900539,31.7563799 C10.4809337,31.4708555 10.6729754,31.1863787 10.8664342,30.9041564 L10.8664342,30.9041564 L31.5339051,0.867968266 L41.7269087,0.867968266 Z M337.283805,14.579267 C338.188509,14.579267 339.053004,14.6395807 339.957709,14.800417 L337.364223,23.3649526 L331.11171,23.3649526 C331.574114,21.6158573 330.930769,20.7513619 329.302301,20.7513619 C326.46756,20.7513619 324.215851,23.2443253 322.728115,28.1297294 L320.818183,34.4827652 C319.792852,37.840224 319.511388,39.3078557 323.974597,39.468692 L323.15031,42.0822827 L304.453085,42.0822827 L304.694339,40.8156965 C309.237966,40.6548601 310.363821,37.8603285 311.369048,34.4827652 L314.847134,23.0030708 C315.852361,19.645612 315.932779,16.5495123 311.549989,16.428885 L312.494902,15.5442851 L316.55602,15.5442851 C319.189715,15.5442851 322.567279,15.4437624 326.668606,15.1622988 L325.522647,18.8816394 C329.543555,15.9664805 333.283,14.579267 337.283805,14.579267 Z M190.962936,1.51131366 L187.344118,13.9962353 L179.241987,13.9761307 C179.463137,13.2121581 179.965751,12.2672445 180.146692,11.6641082 C180.830246,9.31187659 181.11171,7.88445399 180.508573,7.26121314 C179.764705,6.45703139 178.196551,6.39671776 175.763901,6.39671776 L172.989474,6.39671776 L165.530688,32.1506381 C164.183684,36.7947877 164.002743,38.4031512 170.014002,38.543883 L169.048983,42.0420736 L145.868445,42.0420736 L145.607086,40.5945465 C151.698762,40.4739192 153.789635,36.7947877 155.136639,32.1506381 L162.595425,6.39671776 L159.841103,6.39671776 C157.388348,6.39671776 155.639253,6.11525415 152.945244,6.9194359 C151.859599,7.2411086 148.964544,8.78915845 147.959317,10.1361629 C147.336076,10.9403446 145.345727,14.0766534 144.943636,15.4437624 L143.455899,15.2628215 L147.436599,1.51131366 L190.962936,1.51131366 Z M208.835875,14.3782216 C209.720475,14.3782216 210.605075,14.4385352 211.50978,14.5993716 L208.916294,23.1840117 L202.66378,23.1840117 C203.126185,21.4550209 202.48284,20.5905256 200.854372,20.5905256 C198.019631,20.5905256 195.747817,23.083489 194.280186,27.9688931 L192.35015,34.3219289 C191.324818,37.6793876 191.043354,39.1470193 195.526667,39.3078557 L194.702381,41.9214464 L176.005156,41.9214464 L176.226306,40.6347556 C180.769932,40.4739192 181.895787,37.6592831 182.901014,34.3018243 L186.3791,22.8221299 C187.404432,19.4646711 187.48485,16.3685714 183.081955,16.2479441 L184.026868,15.3633442 L188.108091,15.3633442 C191.485654,15.3432397 194.863218,15.2226124 198.220676,14.9813579 L197.074717,18.6805939 C201.095626,15.7855396 204.835071,14.3782216 208.835875,14.3782216 Z M227.79446,29.5169429 L224.25606,29.5169429 C219.611911,29.5169429 216.596229,31.3062473 215.651316,34.4425561 C214.78682,37.2571922 215.952884,38.986183 218.606684,38.986183 C222.406442,38.986183 225.723692,36.3524878 227.251637,31.3062473 L227.251637,31.3062473 L227.79446,29.5169429 Z M132.016414,18.4192349 C127.894983,18.4192349 125.020033,21.8370073 122.949265,28.6926566 C120.878497,35.5684106 121.722888,38.9258694 125.824215,38.9258694 C129.925542,38.9258694 132.740178,35.5684106 134.810946,28.6926566 C136.881714,21.8169027 136.057427,18.4192349 132.016414,18.4192349 Z M261.047375,18.8414303 C257.106885,18.8414303 254.21183,21.9174254 252.342108,28.1096249 C250.472385,34.3018243 251.779181,37.4783422 255.900612,37.4783422 C260.001939,37.4783422 262.79647,34.4224516 264.625984,28.3307749 C266.535916,22.0380527 265.108493,18.8615348 261.047375,18.8414303 Z M296.652522,18.3388167 C293.536318,18.3388167 290.922727,20.8317801 289.354573,25.6568706 L289.354573,25.6568706 L299.085172,25.6568706 C300.593012,20.7312574 299.929563,18.3388167 296.652522,18.3388167 Z M32.7602822,8.74894937 L21.9842469,25.0537342 L33.564464,25.0537342 L32.7602822,8.74894937 Z" id="autotrader.com" fill="#231F20"></path>
    </g>
</svg>