<?xml version="1.0" encoding="UTF-8"?>
<svg width="323px" height="51px" viewBox="0 0 323 51" version="1.1" xmlns="http://www.w3.org/2000/svg" xmlns:xlink="http://www.w3.org/1999/xlink">
    <title>barnesnoble</title>
    <g id="Logos" stroke="none" stroke-width="1" fill="none" fill-rule="evenodd">
        <path d="M177.806215,0.61071941 C184.275287,0.61071941 187.187658,5.10814209 186.324256,10.2241215 C185.847452,12.9045338 184.545906,15.2241215 181.83972,17.6983483 C179.120648,20.1725751 174.37838,22.4921627 171.646421,24.0256679 C173.295906,28.3040184 175.950545,33.0978328 179.468586,39.0901009 C180.486627,37.0411318 182.071679,33.3297916 183.489205,30.0952555 C184.90673,27.1828844 187.277864,25.0565957 190.422194,25.0565957 C194.90673,25.0565957 196.246936,28.3684514 195.950545,30.2756679 C195.718586,31.5385545 194.919617,32.8787606 193.347452,32.8787606 C191.771091,32.8787606 191.471542,31.7357633 191.28571,30.513022 L191.232208,30.1448705 C191.048752,28.85541 190.862436,27.5952555 189.326833,27.5952555 C187.432503,27.5952555 186.169617,29.0901009 184.120648,33.6648431 C183.0124,36.0230905 182.071679,38.7035029 180.808792,41.1519565 C181.040751,41.615874 181.362916,42.0926782 181.594875,42.5694823 C183.489205,45.559173 185.692813,47.4535029 187.819101,47.4535029 C189.004668,47.4535029 190.576833,46.6674204 192.625802,44.695771 L192.625802,44.695771 L193.579411,46.0359771 C191.362916,48.8839153 188.527864,50.6107194 185.847452,50.6107194 C182.535596,50.6107194 179.842297,47.8272143 177.741782,45.4174204 C174.98405,48.5746369 171.491782,50.6107194 166.91704,50.6107194 C160.216009,50.6107194 154.313947,46.2679359 155.886112,36.809173 C156.994359,31.0488637 161.246936,27.4019565 166.143844,24.0901009 C164.816524,20.2627813 164.004668,15.5849462 164.636112,11.9638122 C165.898998,4.87618333 172.355184,0.61071941 177.806215,0.61071941 Z M140.138689,2.5694823 C146.491782,2.5694823 149.816524,6.07463694 149.816524,12.7756679 C149.816524,14.373606 149.520132,15.5076266 149.223741,16.4612349 L142.44539,16.4612349 C142.561369,15.752472 142.625802,14.6184514 142.625802,13.252472 C142.625802,8.92257508 142.148998,7.62102869 140.254668,7.62102869 C138.476318,7.62102869 138.179926,9.33494621 138.179926,12.6081421 C138.179926,15.751714 140.109081,18.4054613 142.192497,20.9958196 L142.675216,21.5926635 L142.675216,21.5926635 L143.158565,22.1884214 C143.47993,22.5854902 143.798483,22.9826115 144.107761,23.381338 C147.986627,28.3555648 151.105184,32.3117503 151.105184,36.9638122 C151.105184,44.3864926 147.973741,49.8504101 140.963431,49.8504101 C134.726318,49.8504101 130.641266,46.4483483 130.641266,38.5488637 C130.641266,36.7060802 130.705699,35.1983483 131.169617,33.6004101 L138.463431,33.5617503 C138.257246,35.3143277 138.12838,36.3968019 138.12838,38.3684514 C138.12838,43.4715442 139.197967,44.24474 141.040751,44.24474 C142.458277,44.24474 143.566524,43.4071112 143.566524,38.3684514 C143.566524,33.8452555 140.538174,30.6107194 137.123225,26.4998947 C134.043328,22.7885545 130.576833,17.6983483 130.576833,13.381338 C130.576833,6.57721426 133.669617,2.5694823 140.138689,2.5694823 Z M237.509823,2.5565957 C245.293328,2.5565957 248.205699,6.12618333 248.205699,26.1390699 C248.205699,45.7911318 244.996936,49.8375235 237.509823,49.8375235 C230.563947,49.8375235 226.826833,46.809173 226.826833,26.1390699 C226.826833,6.12618333 229.739205,2.5565957 237.509823,2.5565957 Z M39.1721942,2.98185343 L47.0072457,48.9225751 L38.5278643,48.9225751 L37.703122,41.5643277 L32.6000292,41.5643277 L31.775287,48.9225751 L24.6876581,48.9225751 L31.3371426,2.98185343 L39.1721942,2.98185343 Z M320.834565,3.27824518 L320.834565,10.1081421 L312.174772,10.1081421 L312.174772,22.4535029 L319.829411,22.4535029 L319.829411,28.8065957 L312.174772,28.8065957 L312.174772,42.0540184 L322.084565,42.0540184 L322.084565,48.8839153 L304.146421,48.8839153 L304.146421,3.27824518 L320.834565,3.27824518 Z M124.893844,3.27824518 L124.893844,10.1081421 L116.221163,10.1081421 L116.221163,22.4535029 L123.875802,22.4535029 L123.875802,28.8065957 L116.221163,28.8065957 L116.221163,42.0540184 L126.130957,42.0540184 L126.130957,48.8839153 L108.205699,48.8839153 L108.205699,3.27824518 L124.893844,3.27824518 Z M87.831988,3.27824518 C87.831988,3.27824518 88.8632208,7.15284105 89.935841,11.1740168 L90.2119464,12.2089165 C91.0392594,15.3092218 91.8407112,18.3065957 92.1618849,19.4895854 C92.9350808,22.4019565 93.5278643,24.7730905 93.8758024,26.7318534 C93.6567303,21.8864926 93.5536375,17.0411318 93.5794107,12.1828844 L93.5794107,3.27824518 L100.898998,3.27824518 L100.898998,48.8839153 L94.1850808,48.8839153 C94.1850808,48.8839153 90.0871426,34.8117503 89.2624004,32.0282452 C88.6416959,29.9957423 88.1359367,27.6528872 87.5714277,24.5437303 L87.470256,23.9887194 L87.5051249,24.5649165 C87.8242554,30.0262001 87.8800029,31.9318131 87.8833648,36.7277272 L87.8835344,48.8710287 L80.3448746,48.8710287 L80.3448746,3.27824518 L87.831988,3.27824518 Z M63.953122,3.27824518 C69.6489983,3.27824518 73.5150173,6.60298745 73.5150173,14.8632967 C73.5278643,22.0282452 70.396421,25.1210287 66.8654932,25.4818534 C71.9685859,27.0282452 72.5613694,33.0462864 72.5613694,38.5746369 C72.5613694,42.865874 72.703122,46.6545338 73.2701323,48.8839153 L64.9582767,48.8839153 C64.9292818,48.6761189 64.8982734,48.4787929 64.866208,48.2845375 L64.8174365,47.9945324 C64.6036939,46.7398069 64.3654932,45.4584965 64.3654932,42.1184514 L64.3654932,36.2550493 C64.3654932,32.6339153 63.1412664,29.9019565 60.5381736,29.2189668 L59.9711633,29.2189668 L59.9711633,48.8710287 L51.775287,48.8710287 L51.775287,3.27824518 L63.953122,3.27824518 Z M207.587143,3.27824518 C207.587143,3.27824518 208.618375,7.15284105 209.690996,11.1740168 L209.967101,12.2089165 C210.794414,15.3092218 211.595866,18.3065957 211.91704,19.4895854 C212.690235,22.4019565 213.283019,24.7730905 213.630957,26.7318534 C213.411885,21.8864926 213.308792,17.0411318 213.334565,12.1828844 L213.334565,3.27824518 L220.62838,3.27824518 L220.62838,48.8839153 L213.927349,48.8839153 C213.927349,48.8839153 212.933218,45.4701065 211.824164,41.6727552 L211.621447,40.9787758 C210.535624,37.2622077 209.391843,33.3576805 208.991782,32.0282452 C208.395419,29.9957423 207.879517,27.6528872 207.324662,24.5437303 L207.226256,23.9887194 L207.26028,24.5649165 C207.57941,30.0262001 207.635158,31.9318131 207.638519,36.7277272 L207.638689,48.8710287 L200.100029,48.8710287 L200.100029,3.27824518 L207.587143,3.27824518 Z M290.035596,3.27824518 L290.035596,42.0540184 L299.726318,42.0540184 L299.726318,48.8839153 L281.723741,48.8839153 L281.723741,3.27824518 L290.035596,3.27824518 Z M264.636112,3.27824518 C272.535596,3.27824518 274.610339,8.02051322 274.610339,15.8040184 C274.610339,21.3839153 272.587143,24.4122658 268.978895,24.5926782 C272.896421,24.5926782 275.924772,28.5746369 275.924772,35.9844308 C275.924772,45.430307 271.710854,48.8710287 264.584565,48.8710287 L254.365493,48.8710287 L254.365493,3.27824518 L264.636112,3.27824518 Z M10.3448746,3.27824518 C18.2443591,3.27824518 20.3191014,8.02051322 20.3191014,15.8040184 C20.3191014,21.3839153 18.2959055,24.4122658 14.6747715,24.5926782 C18.6051839,24.5926782 21.6335344,28.5746369 21.6335344,35.9844308 C21.6335344,45.430307 17.4196169,48.8710287 10.2933282,48.8710287 L0.0742560464,48.8710287 L0.0742560464,3.27824518 L10.3448746,3.27824518 Z M167.161885,27.2086576 C164.094875,29.9792761 161.788174,33.0978328 160.924772,38.059173 C160.216009,42.2473173 162.587143,47.5308225 168.888689,47.5308225 C172.045906,47.5308225 174.197967,46.4612349 176.311369,43.9096885 C172.226318,38.2266988 169.365493,32.5565957 167.161885,27.2086576 Z M237.52271,7.31175034 C236.221163,7.31175034 235.679926,7.96896683 235.383534,11.2937091 C235.216009,13.611149 235.196361,16.6074819 235.198371,20.777874 L235.199162,21.7613388 C235.200223,22.7660957 235.20192,23.8354049 235.202702,24.9753518 L235.202483,27.6095226 C235.201027,29.3394669 235.197476,30.8279828 235.196059,32.1328032 L235.195846,33.8036648 C235.199655,36.939354 235.233629,38.9039027 235.383534,40.8684514 C235.679926,44.373606 236.15673,44.7344308 237.52271,44.7344308 C238.77271,44.7344308 239.185081,44.438039 239.481473,40.8684514 C239.49094,40.7348515 239.500129,40.6014664 239.509045,40.4679358 L239.547357,39.8648507 C239.717794,37.0345269 239.77288,33.9018161 239.777535,27.1313815 L239.777458,23.8468464 C239.774205,17.9960128 239.744932,14.1917618 239.481473,11.2937091 C239.236627,7.96896683 238.708277,7.31175034 237.52271,7.31175034 Z M7.97374058,27.4406163 L7.97374058,43.5359771 L10.0484829,43.5359771 C12.4840499,43.5359771 13.1283798,42.0540184 13.1283798,35.1081421 C13.1283798,30.0565957 12.5355963,27.4535029 9.91961687,27.4535029 L7.97374058,27.4406163 Z M262.264978,27.4406163 L262.264978,43.5359771 L264.33972,43.5359771 C266.775287,43.5359771 267.419617,42.0540184 267.419617,35.1081421 C267.419617,30.0565957 266.826833,27.4535029 264.210854,27.4535029 L262.264978,27.4406163 Z M34.9453901,14.5797916 C34.908765,16.0040998 34.8117407,17.6365926 34.6908408,19.2694912 L34.6285703,20.0850123 C34.3835361,23.2039317 34.0731544,26.1971254 33.9545912,27.6016049 L33.9402354,27.7756679 C33.8677841,28.6167332 33.7807025,29.5679105 33.6904724,30.525111 L33.6410128,31.0471921 C33.3762988,33.828137 33.1026066,36.4998947 33.1026066,36.4998947 L37.2520911,36.4998947 C37.2520911,36.4998947 36.9125149,33.658543 36.589109,30.7862368 L36.5305654,30.2642838 C36.4335535,29.3958791 36.3400063,28.5402727 36.2598231,27.7756679 C36.0278643,25.6364926 35.1902354,18.9870081 34.9453901,14.5797916 Z M61.517555,8.90968848 L59.9840499,8.90968848 L59.9840499,22.2730905 L62.4711633,22.2730905 C64.6103385,22.2730905 65.2546684,20.9071112 65.2546684,16.6287606 C65.2546684,9.97927611 64.0046684,8.90968848 61.517555,8.90968848 Z M9.40415295,8.61329673 L7.97374058,8.61329673 L7.97374058,21.7318534 L9.99693646,21.7318534 C12.1361117,21.7318534 12.5484829,19.8375235 12.5484829,15.9199978 C12.5484829,10.5720596 12.0201323,8.61329673 9.40415295,8.61329673 Z M263.682503,8.61329673 L262.264978,8.61329673 L262.264978,21.7318534 L264.275287,21.7318534 C266.414462,21.7318534 266.826833,19.8375235 266.826833,15.9199978 C266.826833,10.5720596 266.298483,8.61329673 263.682503,8.61329673 Z M177.574256,3.99989467 C173.308792,3.99989467 170.55106,7.46638951 169.996936,10.7009256 C169.33972,14.4122658 169.648998,17.865874 170.808792,21.6287606 C173.386112,20.2756679 178.746936,16.9509256 180.241782,15.0823689 C181.723741,13.2138122 182.148998,11.8864926 182.380957,10.3916472 C183.08972,6.52566786 180.886112,3.99989467 177.574256,3.99989467 Z" id="barnesnoble" fill="#231F20"></path>
    </g>
</svg>