<?xml version="1.0" encoding="UTF-8"?>
<svg width="124px" height="51px" viewBox="0 0 124 51" version="1.1" xmlns="http://www.w3.org/2000/svg" xmlns:xlink="http://www.w3.org/1999/xlink">
    <title>bing</title>
    <g id="Logos" stroke="none" stroke-width="1" fill="none" fill-rule="evenodd">
        <path d="M0.115807505,0.907819868 L0.115807505,45.3517097 L10.1138257,50.8880071 L35.0766835,36.4530278 L35.0766835,25.1328348 L12.9067342,17.3433932 L17.2595119,28.1782935 L24.1675036,31.4267829 L10.1138257,39.5629116 L10.1138257,4.40885943 L0.115807505,0.907819868 Z M63.1840393,36.2648581 C62.0500393,37.2354433 60.4505544,37.7207359 58.3756809,37.7207359 L53.5970343,37.7207359 L53.5970343,26.9006914 L57.6378381,26.9006914 C62.4759083,26.9006914 64.8726596,28.6635911 64.8726596,32.2240543 C64.9023714,33.9423863 64.3180394,35.2942728 63.1840393,36.2648581 L63.1840393,36.2648581 Z M53.5970343,14.0800529 L57.6378381,14.0800529 C61.4756113,14.0800529 63.3870699,15.5359307 63.3870699,18.4476864 C63.3870699,20.1363066 62.8274978,21.4337216 61.7281615,22.3894509 C60.6238732,23.3154684 59.1283797,23.7710493 57.1723533,23.7710493 L53.5722744,23.7710493 L53.5722744,14.0800529 L53.5970343,14.0800529 Z M66.7692623,27.2374251 C65.5510788,25.959818 63.9317861,25.1922633 61.9163362,24.9298092 L61.9163362,24.8703856 C63.5356289,24.3256694 64.813236,23.4442195 65.7243976,22.1814684 C66.6504152,20.9335731 67.105996,19.4479834 67.105996,17.7246995 C67.105996,15.6795377 66.3433933,14.0503411 64.8280919,12.772734 C63.2979346,11.4951269 61.2577248,10.8612754 58.6381351,10.8612754 L50.0959947,10.8612754 L50.0959947,40.8800899 L58.8411657,40.8800899 C61.6489301,40.8800899 63.9862578,40.0877754 65.8234369,38.4981945 C67.6606161,36.9086136 68.5866336,34.8238361 68.5866336,32.26367 C68.5816817,30.2383161 67.9775419,28.5447439 66.7692623,27.2374251 L66.7692623,27.2374251 Z M74.8261101,14.7139045 C74.2071144,14.7139045 73.69211,14.5059219 73.266241,14.0800529 C72.8255161,13.639328 72.6323894,13.1391795 72.6323894,12.490472 C72.6323894,11.8566204 72.840372,11.3119042 73.266241,10.8711793 C73.7069659,10.4304544 74.2071144,10.2373277 74.8261101,10.2373277 C75.4599617,10.2373277 75.9749661,10.4453103 76.4454028,10.8711793 C76.8861277,11.3119042 77.1089662,11.8417645 77.1089662,12.490472 C77.1089662,13.1094677 76.8712718,13.6244721 76.4454028,14.0503411 C75.9749661,14.4762101 75.4302499,14.7139045 74.8261101,14.7139045 M73.0632104,40.9246575 L76.4899705,40.9246575 L76.4899705,19.651014 L73.0632104,19.651014 L73.0632104,40.9246575 Z M99.8186747,40.9246575 L96.3919146,40.9246575 L96.3919146,28.8567178 C96.3919146,24.3009096 94.8617573,22.0329094 91.5389885,22.0329094 C89.8206565,22.0329094 88.3944905,22.666761 87.2753463,23.9740798 C86.1562021,25.2813987 85.586726,26.8858355 85.586726,28.8567178 L85.586726,40.9246575 L82.159966,40.9246575 L82.159966,19.651014 L85.586726,19.651014 L85.586726,23.1371977 L85.6610055,23.1371977 C87.2802982,20.4334246 89.60277,19.1508655 92.5689973,19.1508655 C94.9211809,19.1508655 96.7137924,19.9134682 97.9369279,21.4287696 C99.1848231,22.944071 99.8038188,25.1328398 99.8038188,28.0000277 L99.8186747,40.9246575 Z M120.463424,31.2386131 C120.463424,33.3828142 119.844428,35.120954 118.655956,36.5025524 C117.452629,37.8841508 115.967039,38.5477141 114.05558,38.5477141 C112.158978,38.5477141 110.62882,37.8296791 109.484916,36.4035131 C108.33606,34.977347 107.736872,33.2293032 107.736872,30.8474079 C107.736872,28.0544994 108.326156,25.9053464 109.529484,24.380141 C110.732812,22.8499837 112.396672,22.0725251 114.511161,22.0725251 C116.229493,22.0725251 117.55662,22.6915208 118.700524,23.8799925 C119.84938,25.098176 120.433712,26.5689097 120.433712,28.247626 L120.433712,31.2188053 L120.463424,31.2386131 Z M120.463424,19.651014 L120.463424,22.6221933 L120.389144,22.6221933 C118.977834,20.2997215 117.006952,19.1360096 114.124908,19.1360096 C111.079449,19.1360096 108.68765,20.2105861 106.934654,22.3547871 C105.171754,24.4989882 104.30516,27.395888 104.30516,31.0454865 C104.30516,34.264264 105.127187,36.8244302 106.731623,38.7210329 C108.365772,40.6324916 110.509973,41.4248061 113.169179,41.4248061 C116.44738,41.4248061 118.74014,40.1026313 120.374288,37.3542905 L120.448568,37.3542905 L120.448568,39.6767623 C120.448568,45.2774352 117.819074,48.0406319 112.525423,48.0406319 C108.969912,48.0406319 106.642488,46.4807628 106.642488,46.4807628 L105.746182,49.4222302 C107.746776,50.4225273 109.905833,50.9078199 112.569991,50.9078199 C120.111834,50.9078199 123.875328,46.9660554 123.875328,39.1023343 L123.875328,19.651014 L120.463424,19.651014 Z" id="bing" fill="#231F20"></path>
    </g>
</svg>