<?xml version="1.0" encoding="UTF-8"?>
<svg width="266px" height="51px" viewBox="0 0 266 51" version="1.1" xmlns="http://www.w3.org/2000/svg" xmlns:xlink="http://www.w3.org/1999/xlink">
    <title>bloomberg</title>
    <g id="Logos" stroke="none" stroke-width="1" fill="none" fill-rule="evenodd">
        <path d="M200.931109,14.7912319 L202.274846,14.8911257 L203.52251,15.1775376 L204.664973,15.6253083 L205.698413,16.2127818 L206.613593,16.9205312 L207.413487,17.7103401 L208.094803,18.5678773 L209.794485,21.2553508 L192.168583,21.2553508 L193.904888,18.5741406 L194.584718,17.7280684 L195.37113,16.9445227 L196.272404,16.2368794 L197.281321,15.6445227 L198.401173,15.1870917 L199.620069,14.8945227 C199.620069,14.8945227 200.931109,14.7912319 200.931109,14.7912319 L200.931109,14.7912319 Z M214.093423,18.6097032 L213.393423,17.0877287 L212.337479,15.3951597 L211.081109,13.8827393 L209.638434,12.5524845 L208.043848,11.4214866 L206.320069,10.5139495 L204.504994,9.84377964 L202.622192,9.43114694 L200.72888,9.28889641 L198.058604,9.58390702 L195.552234,10.4164973 L193.247139,11.7429304 L191.214973,13.5051384 L189.517521,15.6512106 L188.226226,18.117665 L187.404676,20.8465397 L187.116884,23.7752021 L187.434506,26.660234 L188.32665,29.2752021 L189.718901,31.6062 L191.537797,33.6086416 L193.697776,35.2449474 L196.120069,36.4657542 L198.709135,37.2266883 L201.394273,37.4866671 L203.482171,37.3204251 L205.507224,36.8342255 L207.422192,36.0496183 L209.199262,34.9797669 L210.796714,33.6537584 L212.184188,32.0856055 L213.328031,30.3018476 L213.502022,29.9040769 L207.131958,29.9040769 C206.678031,30.3619325 206.161576,30.7111894 205.629198,31.0608709 L204.866778,31.45482 L204.031746,31.7777499 L203.132914,32.0140556 L202.174421,32.159597 L201.140557,32.2101278 L199.575801,32.0851809 L198.135568,31.7248837 L196.842256,31.1666034 L195.708391,30.4392149 L194.729835,29.5908072 L193.911152,28.6496183 L193.244803,27.6532276 L191.88854,24.9547138 L214.64491,24.9547138 L214.64491,24.8984505 L214.907755,24.8984505 C214.985992,24.1187266 214.978349,23.3509983 214.956693,22.5813593 L214.882808,21.747389 L214.760302,20.9412319 L214.590132,20.1522722 L214.367733,19.3797669 L214.093423,18.6097032 Z M259.585568,22.8575801 L259.394379,21.0738221 L258.862001,19.4701066 L258.038115,18.0801915 L256.991725,16.9161788 L255.771873,15.9961151 L254.440663,15.3240344 L253.035886,14.9089601 L251.609453,14.7638433 L250.178349,14.9026968 L248.769219,15.3004675 L247.420175,15.9504675 L246.183126,16.8412319 L245.108391,17.9827393 L244.260408,19.3586416 L243.706905,20.9574739 L243.513275,22.7388964 L243.700748,24.5290238 L244.232064,26.1403826 L245.049262,27.5499367 L246.095653,28.7304038 L247.307755,29.6743529 L248.645653,30.3667096 L250.051916,30.7971767 L251.490769,30.9465397 L252.925377,30.80482 L254.340239,30.3902765 L255.689283,29.7228667 L256.926332,28.8042892 L257.995334,27.6465397 L258.840876,26.254183 L259.389495,24.6481321 L259.585568,22.8575801 Z M253.083869,50.813631 L250.155207,50.6618263 L247.53164,50.2020599 L245.243848,49.4569431 L243.313487,48.4417627 L241.740026,47.1739283 L240.522617,45.6557754 L239.657436,43.871062 L239.487372,43.1604463 L246.693742,43.1604463 L246.79268,43.3679835 L247.435037,44.1929304 L248.190239,44.8366671 L249.007436,45.3070493 L249.83854,45.6356055 L250.667309,45.8412319 L251.457648,45.9546077 L252.211364,45.9853932 L253.053614,45.92913 L254.08026,45.7489813 L255.215079,45.4232913 L256.390132,44.9144803 L257.524952,44.18189 L258.519856,43.1647987 L259.220812,41.832527 L259.464867,40.3067308 L259.464867,31.9175588 L256.559772,34.5243529 L255.666141,35.1138433 L254.742256,35.5677711 L253.824633,35.8954781 L252.941194,36.1207435 L252.138328,36.2529091 L250.966141,36.3354994 L248.62888,36.1140556 L246.273784,35.4563062 L243.98164,34.3594909 L241.870175,32.8255206 L240.048943,30.8605525 L238.618689,28.4603401 L237.678986,25.614268 L237.338859,22.2940981 L237.628986,19.6719113 L238.451491,17.2304038 L239.732808,15.0141618 L241.40181,13.0765822 L243.373997,11.4800854 L245.565186,10.2799792 L247.885674,9.52626371 L250.287797,9.26108324 L251.487903,9.32106201 L252.575589,9.48592401 L253.534506,9.73709174 L254.398307,10.0560939 L255.191512,10.4351809 C256.591406,11.2255206 257.905419,12.1085355 259.241937,12.9713805 L259.241937,9.48486244 L265.543211,9.48486244 L265.566778,39.6456905 L265.308285,42.1256268 L264.597245,44.2755206 L263.472192,46.1539707 L261.977075,47.7489813 L260.147139,49.0466459 L258.026969,50.0065185 L255.661788,50.6080047 L253.083869,50.813631 Z M0.34926195,36.4753083 L15.5682641,36.4753083 L17.4847184,36.2409134 L19.1984127,35.5942043 L20.7597715,34.5892149 L22.1308968,33.2689389 L23.2623193,31.7152234 L24.1122131,29.9952658 L24.6435295,28.1917627 L24.8308968,26.3546077 L24.7285613,24.6241406 L24.439814,23.13051 L23.9834445,21.8832701 L23.3776059,20.8518476 L22.620918,19.9995121 L21.71009,19.294735 L20.6286675,18.7211682 L16.4575422,17.2332701 L20.017521,15.6785992 L20.6622131,15.2260514 L21.2632747,14.6120387 L21.8032959,13.8332701 L22.2567991,12.900786 L22.6055252,11.8131002 L22.8280305,10.5816777 L22.9082853,9.24802592 L22.7804721,8.10269683 L22.3827014,6.77148664 L21.691831,5.35280299 L20.7116823,3.97148664 L19.4381155,2.73730405 L17.8647609,1.73995798 L15.970918,1.06978813 L13.6542513,0.813631015 L0.331533712,0.813631015 L0.34926195,36.4753083 Z M7.87569507,7.11501106 L12.9129562,7.14717666 L14.4042513,7.56755883 L15.5620008,8.49855671 L16.2519159,9.7208497 L16.5142301,11.0505737 L16.3816399,12.3857117 L15.8627439,13.6295546 L14.9038267,14.6557754 L13.5615762,15.2159665 L7.89533414,15.2159665 L7.87569507,7.11501106 Z M7.87134263,21.0814654 L13.5505358,21.1189389 L15.2319583,21.5902765 L16.5296229,22.6317839 L17.3036144,24.0029091 L17.5985189,25.502803 L17.4510666,27.0094909 L16.8659286,28.4065185 L15.7984127,29.5504675 L14.2994743,30.1755206 L7.89533414,30.1755206 C7.89533414,30.1755206 7.87134263,21.0814654 7.87134263,21.0814654 L7.87134263,21.0814654 Z M230.025801,11.3960089 L230.98716,10.7513168 L231.944591,10.2900641 L232.853614,10.0075801 L233.672298,9.87987305 L234.062319,9.88698558 L234.062319,15.7309346 L232.949687,15.7549261 L231.556481,15.9500429 L230.152659,16.3574739 L228.809878,17.0588539 L227.65871,18.1248837 L226.871343,19.5950535 L226.609984,21.3211682 L226.609984,36.8154357 L220.097245,36.8154357 L220.408179,10.0733975 L226.043105,10.0733975 L226.043105,15.9394272 L229.091831,12.2405949 L230.025801,11.3960089 Z M159.630684,23.3302977 L159.818052,25.1166034 L160.353296,26.7178773 L161.172829,28.1120387 L162.223997,29.2727605 L163.439071,30.1970705 L164.776544,30.8673465 L166.180366,31.2828455 L167.609135,31.4245652 L169.034081,31.2896395 L170.445546,30.8908072 L171.794591,30.2432488 L173.034612,29.3452658 L174.108391,28.2081108 L174.955844,26.8297669 L175.508285,25.2347563 L175.705738,23.4456905 L175.513593,21.6618263 L174.982277,20.0480259 L174.163593,18.6418688 L173.120175,17.4581108 L171.903721,16.5169219 L170.572404,15.8231852 L169.163805,15.3922934 L167.727818,15.239958 L166.288965,15.3835886 L164.875483,15.7972828 L163.526438,16.4684081 L162.290345,17.384544 L161.219963,18.5457966 L160.375801,19.9370917 L159.82527,21.5446289 L159.630684,23.3304038 L159.630684,23.3302977 Z M153.676757,0.927537597 L159.750748,0.927537597 L159.750748,14.2666034 L162.654994,11.6679835 L163.548094,11.0770068 L164.471024,10.624459 L165.391937,10.2944166 L166.27113,10.0705312 L167.075801,9.93411934 L168.253402,9.85046753 L170.582489,10.0753083 L172.937054,10.7330578 L175.229198,11.8304038 L177.342149,13.3628879 L179.162001,15.3316777 L180.594166,17.73051 L181.535249,20.5794484 L181.877818,23.891975 L181.585674,26.5179835 L180.76423,28.9585355 L179.479092,31.1757329 L177.812956,33.1104463 L175.837903,34.710234 L173.64767,35.9093847 L171.329092,36.6617202 L168.930366,36.9226544 L167.725377,36.8654357 L166.638646,36.7011045 L165.678774,36.4522722 L164.814973,36.1294484 L164.020387,35.7551384 L162.54544,34.8798731 L159.97665,33.1964336 L159.97665,36.7011045 L153.676226,36.7011045 L153.676226,0.927537597 L153.676757,0.927537597 Z M106.82113,10.0739283 L111.886311,10.0739283 L111.886311,15.0425057 L115.712425,11.4311469 L117.583657,10.2752021 L119.5275,9.60503229 L121.479941,9.4201066 L123.382383,9.73762252 L125.206162,10.5740344 L126.904888,11.9788115 L129.571343,15.5488752 L131.259984,12.7052446 L132.186311,11.6742467 L133.305207,10.8104463 L134.585037,10.1214866 L135.985037,9.62668834 L137.467627,9.32392826 L138.985249,9.23029768 L140.500111,9.34409811 L141.96009,9.67658218 L143.334612,10.219045 L144.583763,10.9752021 L145.677606,11.9442043 L146.586098,13.1361363 L147.286098,14.5688327 L147.741088,16.2666034 L147.90871,18.2988752 L147.90871,36.7011045 L141.617521,36.7011045 L141.723678,20.2186204 L140.970387,17.7497244 L139.552659,16.019682 L137.691512,15.1208497 L135.699156,15.0107648 L133.791406,15.565648 L132.130048,16.686561 L130.883869,18.3242467 L130.295334,20.3358179 L130.295334,36.5882595 L124.218901,36.5882595 L124.218901,21.6560939 L123.787903,18.9349686 L122.5206,16.8700004 L120.655525,15.6814654 L118.546926,15.3936735 L116.485462,15.9240344 L114.704039,17.1943104 L113.453933,19.1391087 L113.015292,21.5277499 L113.015292,36.5886841 L106.719326,36.5886841 L106.82113,10.0739283 Z M73.7485189,23.7747775 L74.0660348,26.6597032 L74.9587099,29.2746714 L76.3509605,31.6056692 L78.1698564,33.6081108 L80.3299414,35.2444166 L82.7522343,36.4652234 L85.341194,37.2262637 L88.01147,37.4851809 L90.6437418,37.2133125 L93.1400263,36.4248837 L95.4426802,35.1646926 L97.4840815,33.4774314 L99.183763,31.4169219 L100.483763,29.0258391 L101.314018,26.3570493 L101.606587,23.4480259 L101.292893,20.5443104 L100.404994,17.8693635 L99.0161409,15.4628879 L97.2048883,13.3739283 L95.0458649,11.6603401 L92.6273936,10.375096 L90.029729,9.57042507 L87.341194,9.29038261 L84.6897078,9.58295161 L82.1838692,10.4155418 L79.8787736,11.741975 L77.8460772,13.504183 L76.1487312,15.6502552 L74.8573299,18.1167096 L74.0363108,20.8455843 L73.7485189,23.7747775 Z M87.557436,15.5762637 L89.376332,15.7722297 L90.9814276,16.3247775 L92.3477758,17.1737159 L93.4628501,18.2450535 L94.3242089,19.4763699 L94.9353554,20.8052446 L95.3043575,22.1801915 L95.4321707,23.5465397 L95.328349,24.8974951 L95.0169902,26.235924 L94.4731473,27.5403826 L93.6728288,28.7443104 L92.5980942,29.7926119 L91.2505358,30.6107648 L89.639177,31.1306162 L87.7889647,31.3107648 L85.9186887,31.1209559 L84.2751643,30.5785992 L82.8838692,29.7479198 L81.763487,28.7005737 L80.9011728,27.5124633 L80.2948034,26.2417627 L79.9335507,24.9469643 L79.813487,23.6705312 L79.9311091,22.3882595 L80.2847184,21.0546077 L80.867521,19.7266883 L81.6961834,18.4617202 L82.7762259,17.3307223 L84.1237842,16.4098094 L85.7274997,15.7948412 L87.557436,15.5762637 Z M41.5680518,23.7747775 L41.8841876,26.6597032 L42.7768628,29.2746714 L44.1691133,31.6056692 L45.9880093,33.6081108 L48.1494743,35.2444166 L50.5708118,36.4652234 L53.1607269,37.2262637 L55.8319583,37.4851809 L58.4632747,37.2137372 L60.9609392,36.4253083 L63.2631685,35.1652234 L65.3021282,33.4779622 L67.0032959,31.4173465 L68.3032959,29.0262637 L69.1320645,26.3574739 L69.4255889,23.4485567 L69.1105146,20.5448412 L68.2231473,17.8697881 L66.8356738,15.4633125 L65.0244212,13.374459 L62.8653978,11.6607648 L60.4454403,10.3756268 L57.8477758,9.57095586 L55.1588161,9.29080724 L52.5073299,9.58337624 L50.0009605,10.4159665 L47.6973511,11.7423996 L45.6650794,13.5046077 L43.9663532,15.6506798 L42.676332,18.1172404 L41.8548883,20.8460089 L41.5680518,23.7747775 Z M55.3760135,15.5762637 L57.1949095,15.7722297 L58.800005,16.3247775 L60.1649732,17.1737159 L61.2800475,18.2450535 L62.1408755,19.4763699 L62.7535082,20.8052446 L63.1214488,22.1801915 L63.2487312,23.5465397 L63.1465019,24.8974951 L62.8336569,26.235924 L62.2913002,27.5403826 L61.4908755,28.7443104 L60.4161409,29.7916565 L59.0685825,30.6107648 L57.4581791,31.1306162 L55.6071176,31.3107648 L53.7368416,31.1209559 L52.0933172,30.5785992 L50.7028713,29.7479198 L49.5830199,28.7005737 L48.7207057,27.5143741 L48.1133808,26.2421873 L47.750642,24.9474951 L47.6305783,23.6709559 L47.749262,22.3886841 L48.1019159,21.0550323 L48.6841876,19.727113 L49.5143363,18.4621448 L50.5928925,17.3312531 L51.9404509,16.410234 L53.5441664,15.795372 L55.3760135,15.5762637 Z M29.716884,1.03995798 L36.1219796,1.03995798 L36.1219796,36.7011045 L29.7077545,36.7011045 L29.716884,1.03995798 Z" id="bloomberg" fill="#000000"></path>
    </g>
</svg>