<?xml version="1.0" encoding="UTF-8"?>
<svg width="283px" height="51px" viewBox="0 0 283 51" version="1.1" xmlns="http://www.w3.org/2000/svg" xmlns:xlink="http://www.w3.org/1999/xlink">
    <title>buzzfeed</title>
    <g id="Logos" stroke="none" stroke-width="1" fill="none" fill-rule="evenodd">
        <path d="M107.803558,22.3992117 L107.803558,15.2188786 C107.803558,14.9592125 107.848718,14.7108362 107.871297,14.3721412 L136.434572,14.3721412 C136.434572,16.5284991 136.457152,18.6509875 136.411993,20.7734759 C136.400703,21.0895912 136.084587,21.4282862 135.858791,21.7218218 C130.936424,27.9650989 126.014057,34.1970861 121.091691,40.4290734 C120.843314,40.7338989 120.628807,41.061304 120.256243,41.5919261 L121.690052,41.5919261 C126.341462,41.5919261 130.981583,41.6145057 135.632994,41.5806363 C136.491021,41.5693464 136.818427,41.7838532 136.795847,42.7096194 C136.728108,45.024035 136.773267,47.3384506 136.773267,49.7318949 L107.826138,49.7318949 C107.826138,47.4174794 107.803558,45.1482232 107.848718,42.8789669 C107.848718,42.5967211 108.153543,42.2918957 108.35676,42.0322295 C113.07591,36.0147491 117.806349,30.0085585 122.536789,24.0023679 C122.898064,23.5394848 123.248048,23.0766017 123.778671,22.3992117 L107.803558,22.3992117 Z M92.2461699,22.3992117 L76.4065357,22.3992117 L76.4065357,14.3721412 L105.048839,14.3721412 C105.048839,15.8849787 104.969811,17.409106 105.071419,18.9219435 C105.161738,20.3105928 104.732724,21.3944167 103.863407,22.4782406 C99.0990979,28.4054024 94.4138177,34.3890133 89.6946679,40.3613344 C89.4462916,40.6774497 89.1979153,41.0161447 88.8027712,41.5354769 L105.240767,41.5354769 L105.240767,49.7206051 L76.316217,49.7206051 C76.316217,47.4852184 76.2823475,45.2498316 76.3500865,43.0257347 C76.3613763,42.6418805 76.7452306,42.2467363 77.0161866,41.8967515 C81.8482347,35.7325033 86.7028624,29.5908347 91.5349105,23.4265865 C91.7381275,23.1669203 91.907475,22.8846745 92.2461699,22.3992117 L92.2461699,22.3992117 Z M258.150251,42.201577 L263.298414,42.201577 C269.338474,42.201577 273.143147,38.7920478 273.820537,32.7858572 C274.306,28.4731413 271.969005,24.1830052 268.25465,22.6588779 C264.980599,21.3153879 261.55978,22.0266473 258.150251,21.84601 L258.150251,42.201577 Z M249.231283,49.7093153 L249.231283,48.4222744 L249.231283,15.5914431 C249.231283,14.1576344 249.231283,14.1463446 250.710251,14.1576344 C255.847125,14.2027937 260.995288,13.9882869 266.098292,14.3834311 C273.368944,14.9479226 279.070309,18.2219739 281.768579,25.402307 C284.512008,32.6955385 282.423389,41.0274345 276.857502,45.5885266 C273.583451,48.2755066 269.722328,49.5964169 265.55638,49.7544746 C260.272739,49.9464017 254.989098,49.8109238 249.705456,49.8222136 C249.603848,49.8222136 249.502239,49.7770543 249.231283,49.7093153 L249.231283,49.7093153 Z M142.361734,49.7318949 L142.361734,0.824342863 L176.377998,0.824342863 L176.377998,5.56607229 C176.377998,6.61602666 176.310259,7.67727086 176.400577,8.71593541 C176.490896,9.75459995 176.073172,9.95781692 175.113537,9.94652709 C168.396087,9.91265759 161.689926,9.92394743 154.972476,9.92394743 L152.849988,9.92394743 L152.849988,20.2202742 L154.114449,20.2202742 C159.172294,20.2202742 164.241428,20.2541437 169.299273,20.1976945 C170.326648,20.1864047 170.563734,20.5138098 170.541155,21.4734455 C170.473416,24.0475272 170.518575,26.6328987 170.518575,29.3311686 L152.770959,29.3311686 L152.770959,49.7206051 L142.361734,49.7318949 Z M54.0639582,50.7479798 C52.934975,50.5221832 51.8059918,50.3189662 50.6882985,50.0480102 C43.7676315,48.3996948 39.6807123,43.2176619 39.6807123,36.1050678 L39.6807123,15.6366024 L39.6807123,14.4060107 L49.0286932,14.4060107 L49.0286932,15.7043414 C49.0286932,22.1508354 49.0512728,28.5973295 49.0174033,35.0551134 C49.0061135,37.9791799 49.8980102,40.4629429 52.6753089,41.7274041 C55.6784042,43.1047636 58.7605283,43.0596042 61.537827,41.0725938 C63.5699967,39.6274953 64.1457782,37.4033984 64.157068,35.0212439 C64.1683578,28.6086193 64.157068,22.1959948 64.157068,15.7833702 L64.157068,14.3721412 L73.4034404,14.3721412 L73.4034404,15.6366024 L73.4034404,35.8792711 C73.4034404,44.01924 68.3343058,49.6189966 60.2056268,50.4770238 C59.7991929,50.5221832 59.4153386,50.6463713 59.0201945,50.7254001 C57.3605892,50.7479798 55.7122737,50.7479798 54.0639582,50.7479798 L54.0639582,50.7479798 Z M220.611559,28.56346 L237.839843,28.56346 C238.06564,24.2959035 233.967431,20.8976641 228.807977,20.9992726 C224.246885,21.0895912 220.284154,24.7136273 220.611559,28.56346 L220.611559,28.56346 Z M228.220906,50.7479798 C226.696779,50.4431543 225.138782,50.2286475 223.637234,49.8109238 C216.479481,47.8352032 211.534534,41.7838532 210.891014,34.3777235 C210.281363,27.4006073 212.302243,21.4847354 217.902,17.0817009 C226.391953,10.4094102 243.078325,11.9222477 246.397536,27.7054328 C246.634622,28.834416 246.7701,29.9972687 246.849129,31.1488315 C246.928158,32.3794232 246.871709,33.6100149 246.871709,35.0325337 L220.55511,35.0325337 C220.780907,37.0082543 221.548615,38.5888308 222.824366,39.9097411 C225.737143,42.9128364 229.361179,43.477328 233.290041,42.7886483 C235.796383,42.3483448 238.099509,41.3999989 240.176838,39.6162055 L244.410525,45.8256131 C243.304122,46.5594521 242.310616,47.3384506 241.215503,47.9481015 C238.483363,49.4383593 235.536717,50.2286475 232.443303,50.5221832 C232.082029,50.5560527 231.732044,50.6802408 231.382059,50.7592696 C230.320815,50.7479798 229.27086,50.7479798 228.220906,50.7479798 L228.220906,50.7479798 Z M199.804399,28.5747498 C199.985036,24.1717154 195.796509,20.8073454 190.478998,21.0105624 C186.053384,21.1799099 182.124522,24.9281341 182.598695,28.5747498 L199.804399,28.5747498 Z M190.196752,50.7479798 C188.954871,50.5221832 187.701699,50.3415459 186.471107,50.0480102 C176.86346,47.7448845 171.963673,39.4807275 172.810411,30.3359636 C173.51038,22.6814575 177.371503,17.0929907 184.721184,14.5076192 C194.972351,10.894873 206.871834,15.7720804 208.621758,29.4214872 C208.858844,31.2278603 208.847554,33.0568131 208.949163,35.0438235 L182.463217,35.0438235 C183.072868,38.4081935 184.777633,40.7677684 187.724279,42.0209397 C192.522457,44.0531095 197.0271,43.0483144 201.272077,40.3161751 C201.520454,40.1581174 201.75754,39.9661903 201.994626,39.785553 C202.017206,39.7629733 202.062365,39.785553 202.231713,39.785553 C203.530044,41.6935346 204.873534,43.6692552 206.375081,45.8820622 C205.009012,46.7287996 203.74455,47.6545658 202.367191,48.3545354 C199.838269,49.6302864 197.117419,50.2963865 194.283671,50.533473 C193.956266,50.5560527 193.651441,50.6802408 193.335325,50.7592696 L190.196752,50.7479798 Z M11.2190459,20.231564 L20.1154335,20.231564 C20.6799251,20.231564 21.2444167,20.231564 21.7976185,20.1299555 C23.8523679,19.7122317 25.4103647,18.6622774 25.9409868,16.5172093 C26.799014,13.0963902 24.6200765,10.1384542 21.0863591,9.96910675 C19.4380436,9.89007793 17.7897281,9.94652709 16.1414127,9.94652709 L11.2980747,9.94652709 C11.2642052,10.2965119 11.2303357,10.5223085 11.2303357,10.7368153 C11.2190459,13.8189395 11.2190459,16.9236432 11.2190459,20.231564 L11.2190459,20.231564 Z M11.2980747,40.4742327 C11.4335527,40.519392 11.5690307,40.6097107 11.7045087,40.6097107 C15.0011396,40.6097107 18.2977706,40.7338989 21.5831117,40.5758412 C24.9813511,40.4177836 27.002231,38.3291646 27.0925497,35.2470405 C27.1828683,32.1536266 25.320046,29.9182398 21.9895456,29.5230957 C19.8896369,29.2747194 17.733279,29.3876177 15.6107906,29.3537482 C14.1995616,29.3311686 12.7883326,29.3537482 11.3093646,29.3537482 L11.2980747,40.4742327 Z M0.730792022,0.790473367 C8.67883372,0.801763199 16.6268754,0.677575047 24.5636273,0.858212358 C30.6827162,0.993690342 35.4808948,5.15963834 36.5195593,10.8384238 C37.6937019,17.273628 34.3519116,22.7604864 29.2037482,24.2281645 C29.0682703,24.262034 28.9666618,24.3862222 28.7860245,24.5104103 C33.6971014,25.9103495 36.6211678,29.1618211 37.4453256,34.0277387 C38.8001054,42.0548092 34.3744913,48.6480711 26.0087258,49.5851271 C24.1571933,49.7883441 22.2717914,49.7883441 20.3976793,49.7996339 C13.8382869,49.8335034 7.27889456,49.8335034 0.71950219,49.8447933 L0.730792022,0.790473367 Z" id="buzzfeed" fill="#231F20"></path>
    </g>
</svg>