<?xml version="1.0" encoding="UTF-8"?>
<svg width="330px" height="51px" viewBox="0 0 330 51" version="1.1" xmlns="http://www.w3.org/2000/svg" xmlns:xlink="http://www.w3.org/1999/xlink">
    <title>cbssports</title>
    <g id="Logos" stroke="none" stroke-width="1" fill="none" fill-rule="evenodd">
        <path d="M180.683385,1.4136751 L178.578713,14.4291585 L168.729076,14.4291585 L169.432613,9.856108 L159.583107,9.856108 C154.845947,9.95584047 154.845947,14.9039431 157.120665,16.5397667 C159.612394,18.1989404 168.301124,22.4142204 172.598591,24.6303656 C181.046828,29.7428421 179.581183,37.2531194 177.523343,42.2188994 C175.227435,47.0582793 169.887312,50.3218607 162.789162,50.3136033 L162.385511,50.3096302 L139.872224,50.3096302 L141.982965,36.9423129 L152.184172,36.9423129 L151.128934,42.2188994 L160.626737,42.2188994 C160.81855,42.2179996 161.002455,42.2176393 161.178912,42.217458 L161.92427,42.2166329 C164.561974,42.2088849 165.248128,42.0965543 166.255025,40.1082912 C167.667902,37.6224989 166.384044,35.2421117 164.150221,33.7764665 C163.920511,33.643214 163.69046,33.5069099 163.455813,33.3664045 L163.17176,33.1957077 C160.877332,31.8128229 158.002573,30.0003572 150.783036,26.7411057 C142.569223,22.7835999 143.483833,15.4551101 145.50645,9.856108 C147.838499,4.19590859 153.891775,1.62347537 160.950097,1.4223009 L161.336077,1.4136751 L180.683385,1.4136751 Z M324.557093,42.218873 L323.155957,50.3096038 L173.302114,50.3096038 C175.498732,50.2636608 179.844341,46.8457627 180.970745,42.5093042 L181.041011,42.218873 L324.557093,42.218873 Z M135.662709,42.218873 L134.249833,50.3096038 L0.231553173,50.3096038 L1.63862532,42.218873 L135.662709,42.218873 Z M22.0412639,0.710165406 C32.3906186,0.911213405 40.6773844,9.35443784 40.6850358,19.7056394 C40.6557493,29.912783 32.277694,38.2849019 22.0412639,38.3494114 C11.6171098,38.2849019 3.24499092,29.912783 3.3974919,19.7056394 C3.24499092,9.25219886 11.6171098,0.874275452 22.0412639,0.710165406 Z M231.99745,0.33551493 L232.399302,0.358357792 L232.767227,0.375577398 C244.329794,1.03055681 247.903171,12.0604551 246.470156,20.4092019 C244.986833,28.8281528 236.925521,39.0881968 225.715776,37.9977357 C215.924844,37.0186161 210.783212,28.4119412 211.650859,19.7466933 C209.553653,23.2518341 205.847906,25.469892 201.783241,25.6734998 L201.443715,25.6857884 L193.147847,25.6857884 L191.248181,36.9423656 L181.392739,36.9423656 L185.965789,9.85616077 L181.744573,9.85616077 L183.151645,1.41359594 L201.443715,1.41359594 C207.746253,1.55435593 212.993421,6.64335042 213.368605,13.1568307 C216.555863,5.22922248 223.319945,-0.0713635661 231.99745,0.33551493 Z M267.564576,1.41370148 C271.747043,1.50473879 274.72553,3.24155395 276.435507,6.12586512 L276.587463,6.39122251 L277.414213,1.41370148 L305.203954,1.41370148 L304.535509,4.62057537 C306.658269,2.70678878 309.873927,1.58117615 313.260703,1.42715136 L313.652192,1.41370148 L329.833653,1.41370148 L327.723045,13.0219808 L319.286417,13.0219808 L319.638251,9.85613439 L314.00983,9.85613439 C312.045786,9.95573494 311.858194,11.8787511 313.658128,12.6702787 C315.522439,13.9073043 318.917037,15.2675444 322.804097,17.2433291 C327.734786,19.8874269 328.625914,24.3372629 327.377147,29.2034424 C326.089622,33.9511851 320.513768,36.777295 316.036039,36.9360224 L315.768736,36.9423392 L298.180202,36.9423392 L300.290943,25.685762 L308.733375,25.685762 L308.029839,28.8516084 L313.646387,28.8516084 C317.984881,29.0099139 316.613032,24.524855 315.405293,23.9268559 C315.405293,23.9268559 312.034177,22.6018388 306.259324,20.0574734 C301.553688,17.793731 300.997764,13.6661464 301.727976,10.0752916 L301.774265,9.85613439 L294.650913,9.85613439 L290.077863,36.9423392 L280.228357,36.9423392 L284.801276,9.85613439 L277.812879,9.85613439 C277.995326,10.7836728 278.097301,11.7251948 278.117749,12.6702787 C277.977385,16.8456001 275.684222,20.6413105 272.073566,22.7117693 L271.785793,22.8716177 L274.951771,36.9423392 L265.102266,36.9423392 L262.639824,24.2786899 L257.744358,24.2786899 L255.604463,36.9423392 L245.754958,36.9423392 L250.327876,9.85613439 L246.10666,9.85613439 L247.513732,1.41370148 L267.564576,1.41370148 Z M99.4305092,1.41364871 C105.469205,1.52499026 110.235652,6.1097817 109.98355,10.5596177 C109.502829,14.9040486 108.21884,17.6477469 104.355262,19.7057186 C107.028778,21.4059198 108.951794,23.7861751 108.576478,28.1481515 C108.225342,32.3213726 104.511637,36.7264205 99.0331396,36.9351667 L98.7269731,36.9424184 L78.3184905,36.9424184 L82.8915409,9.85608162 L78.3184905,9.85608162 L80.0832011,1.41364871 L99.4305092,1.41364871 Z M140.229955,1.41364871 L138.119347,13.0220599 L129.682719,13.0220599 L130.034421,9.85608162 L124.757966,9.85608162 C122.506598,9.95581409 122.32481,11.8788303 124.05443,12.6702259 C125.91167,13.8578972 129.114421,15.1588797 132.744482,17.0091059 L133.200399,17.2432764 L133.479098,17.3948616 C138.234243,20.0554456 139.067642,24.4291543 137.77345,29.2033897 C136.554391,33.9529584 130.976068,36.7795428 126.431154,36.9362834 L126.165038,36.9424184 L108.576505,36.9424184 L110.687113,25.6857093 L119.129678,25.6857093 L118.426142,28.8516876 L124.05443,28.8516876 C128.463239,29.0099931 127.091389,24.5249341 125.813204,23.926935 C125.813204,23.926935 122.506598,22.6019179 116.661431,20.0574207 C110.962696,17.2843039 111.420067,11.6970428 112.791916,7.74547339 C114.134577,3.9009623 118.818895,1.62896601 123.728045,1.42407538 L124.048494,1.41364871 L140.229955,1.41364871 Z M22.0412639,8.44906223 C14.3374581,8.55459924 8.05259737,13.4323878 4.80456405,19.3539374 C8.02331085,25.4922336 14.267144,30.5342641 22.0412639,30.6105146 C29.6271529,30.6048119 35.6907753,25.6700469 39.0979824,19.6760363 L39.2779637,19.3539374 L39.0949615,19.0362178 C35.6902443,13.2314529 29.5613763,8.55271465 22.0412639,8.44906223 Z M22.0412639,9.50435316 C27.5374993,9.69392401 31.8940669,14.2061588 31.8907708,19.7056922 C31.815178,25.1138042 27.4493759,29.4796064 22.0412639,29.5551973 C16.4715483,29.5024288 12.0275168,25.0583973 12.1917588,19.7056922 C12.0275168,14.1007537 16.4715483,9.66265867 22.0412639,9.50435316 Z M96.6163649,22.5198629 L90.6362423,22.5198629 L89.5810041,28.8516876 L95.2092927,28.8516876 C99.2429172,29.0099931 99.9757397,22.6019179 96.6163649,22.5198629 Z M222.549797,18.2985937 C221.723179,21.6814505 221.728983,28.0367572 227.47455,28.4999327 C232.897701,29.1917278 235.459744,21.1302835 235.565281,19.7056658 C235.829123,18.1988612 236.925521,10.3251408 230.986426,9.15262469 C226.114442,8.6717717 223.183019,14.7222083 222.549797,18.2985937 Z M199.678872,9.85616077 L195.80949,9.85616077 L194.384872,18.2985937 L198.975336,18.2985937 C201.288048,18.1082313 203.173994,16.3673984 203.548387,14.0773772 C203.636378,11.7146675 201.965464,9.94995679 199.678872,9.85616077 Z M265.113875,9.85019793 L260.189122,9.85019793 L258.998929,16.8856906 L263.355101,16.8856906 C265.747097,16.9560046 267.371048,15.695497 267.576317,14.0773508 C268.162575,12.1543346 267.195197,9.9499304 265.113875,9.85019793 Z M98.375271,9.85608162 L92.7468505,9.85608162 L91.7501854,15.8362042 L97.319901,15.8362042 C101.165933,15.8186587 101.347721,9.95581409 98.375271,9.85608162 Z M77.2749273,1.4136619 L74.8124851,14.4291453 L66.7218862,14.4291453 L67.4254223,9.85609481 L63.9018055,9.85609481 C60.4954666,9.95582728 56.0983991,12.1542951 54.7558365,19.3538978 C53.3487643,26.6296191 56.0046031,29.0100063 60.7300226,28.8517008 L60.7300226,28.8517008 L63.8960009,28.8517008 L64.9571755,24.2786503 L73.393672,24.2786503 L71.2890002,36.9422997 L56.1629086,36.9422997 C53.6184114,36.8896631 41.3474916,35.6994695 43.5050638,20.0574339 C45.9322831,4.55022176 56.8371582,1.5309399 62.8523718,1.4136619 L62.8523718,1.4136619 L77.2749273,1.4136619 Z" id="cbssports" fill="#000000"></path>
    </g>
</svg>