<?xml version="1.0" encoding="UTF-8"?>
<svg width="109px" height="51px" viewBox="0 0 109 51" version="1.1" xmlns="http://www.w3.org/2000/svg" xmlns:xlink="http://www.w3.org/1999/xlink">
    <title>cnn</title>
    <g id="Logos" stroke="none" stroke-width="1" fill="none" fill-rule="evenodd">
        <path d="M108.511538,0.870680588 L108.514268,41.7141834 C108.514268,46.7695451 104.415844,50.8679683 99.3606127,50.8679683 C96.1672647,50.8679683 93.3559381,49.2326025 91.718146,46.7539038 L91.718146,46.7539038 L79.608233,27.653348 L79.6109193,41.7143134 C79.6109193,46.7697184 75.5125395,50.8679683 70.4573078,50.8679683 C67.2639597,50.8679683 64.4526332,49.2327325 62.8148411,46.7540337 L62.8148411,46.7540337 L50.7049281,27.653478 L50.6956559,42.886288 C50.6956559,47.2880926 47.1274355,50.8284533 42.7258041,50.8284533 L42.7258041,50.8284533 L25.2053278,50.8431847 C11.4122151,50.8431847 0.230340974,39.6613106 0.230340974,25.8681979 C0.230340974,12.0750852 11.4122151,0.893211062 25.2053278,0.893211062 L25.2053278,0.893211062 L25.2545116,0.893093877 C25.2706668,0.893055684 25.2906814,0.893008593 25.3143757,0.892953256 L25.6221332,0.892250148 C25.6662909,0.892151192 25.7135899,0.892045943 25.7638506,0.891935052 L26.0995208,0.891207205 C26.2836906,0.890814637 26.4912856,0.890383007 26.717459,0.889929893 L27.1931413,0.889000229 C27.9395138,0.887578389 28.8240136,0.886068661 29.7157833,0.884945642 L30.6051297,0.883969104 C30.7031382,0.883878828 30.800698,0.88379528 30.8976295,0.88371911 L33.231255,0.883930042 C34.0131691,0.885133137 34.5235851,0.887937972 34.5235851,0.893211062 L34.5235851,0.893211062 L34.5235851,7.12011408 L25.2053278,7.12695987 C14.8550881,7.12695987 6.4642631,15.5179582 6.4642631,25.8681979 C6.4642631,36.2183943 14.8550881,44.6092626 25.2055011,44.6094359 L25.2055011,44.6094359 L42.7259774,44.6225209 C43.6848657,44.6225209 44.4620371,43.8455229 44.4620371,42.8866346 L44.4620371,42.8866346 L44.4668465,10.0217358 C44.4668465,9.65799863 44.6458771,9.31757184 44.9455757,9.11141801 C45.4483086,8.76561856 46.1361813,8.89287241 46.4819807,9.3956486 L46.4819807,9.3956486 L68.036495,43.3472961 C68.5612384,44.1241209 69.4496757,44.6345227 70.4574811,44.6345227 C72.0699698,44.6345227 73.3771705,43.327322 73.3771705,41.71479 L73.3771705,41.71479 L73.3703247,10.0217358 C73.3702381,9.65786865 73.549312,9.31731187 73.8491839,9.11115804 C74.3519168,8.76553191 75.0396595,8.89287241 75.3852856,9.3956486 L75.3852856,9.3956486 L96.9397999,43.3471228 C97.4644134,44.1239909 98.3529806,44.6343494 99.360786,44.6343494 C100.973275,44.6343494 102.280519,43.3271487 102.280519,41.71466 L102.280519,41.71466 L102.280519,0.870680588 L108.511538,0.870680588 Z M74.4748249,0.867968266 C77.6795248,0.867968266 80.4996469,2.51498923 82.1350126,5.00872272 L94.2027677,23.9396933 L94.2027677,0.870654591 L100.476638,0.870654591 L100.465459,41.714634 C100.465286,42.3248199 99.9704823,42.8193638 99.3602964,42.8191472 C99.0127205,42.8190605 98.6854221,42.6554113 98.4768419,42.3773766 L76.8958109,8.38911701 C76.3711975,7.61255224 75.4826303,7.10189039 74.4748249,7.10189039 C72.8623362,7.10189039 71.5551354,8.40909115 71.5551354,10.0215798 L71.5621545,41.714634 C71.5618079,42.3249066 71.0668307,42.8193638 70.4565582,42.8190605 C70.109069,42.8188872 69.7819438,42.6552813 69.5733636,42.3773766 L47.9926793,8.38911701 C47.4678926,7.61255224 46.5794987,7.10189039 45.5715199,7.10189039 C43.9591612,7.10189039 42.6519605,8.40909115 42.6519605,10.0215798 L42.6650888,41.9657621 C42.6650888,42.4560599 42.2675993,42.8535495 41.7773015,42.8535495 L25.2053148,42.8501699 C15.8573346,42.8501699 8.27912309,35.2161955 8.27912309,25.8683452 C8.27912309,16.520365 15.8573346,8.88621726 25.2053148,8.88621726 L25.2544986,8.88602841 C25.2706538,8.88596686 25.2906684,8.88589097 25.3143627,8.88580179 L25.4992506,8.88511565 C26.3285533,8.8820766 28.7651237,8.87362113 30.8976165,8.87092061 L33.0114409,8.87079471 C33.9161348,8.87241041 34.5235721,8.87694694 34.5235721,8.88621726 L34.5235721,15.1829647 L25.2053148,15.1759023 C19.3002076,15.1759023 14.5130452,19.9630647 14.5130452,25.8683452 C14.5130452,31.7733224 19.3002076,36.6162478 25.2053148,36.6162478 L35.5280413,36.604116 C36.0183391,36.604116 36.4158286,36.2066264 36.4158286,35.7163286 L36.4182117,10.0214065 C36.4180384,4.9663481 40.5162882,0.867968266 45.5715199,0.867968266 C48.7762199,0.867968266 51.5965152,2.51498923 53.2317077,5.00872272 L65.299636,23.9396933 L65.3213433,10.0215798 C65.3213433,4.9663481 69.4194198,0.867968266 74.4748249,0.867968266 Z" id="cnn" fill="#000000"></path>
    </g>
</svg>