<?xml version="1.0" encoding="UTF-8"?>
<svg width="197px" height="51px" viewBox="0 0 197 51" version="1.1" xmlns="http://www.w3.org/2000/svg" xmlns:xlink="http://www.w3.org/1999/xlink">
    <title>craigslist</title>
    <g id="Logos" stroke="none" stroke-width="1" fill="none" fill-rule="evenodd">
        <path d="M190.101863,6.43369061 L190.101863,14.5070586 L195.825914,14.5070586 L195.825914,16.384586 L190.101863,16.384586 L190.101863,32.3178937 C190.101863,33.9113849 190.329733,34.9833408 190.782266,35.5369707 C191.239612,36.0922053 191.823732,36.3682179 192.536229,36.3682179 C193.123558,36.3682179 193.69484,36.186884 194.24847,35.8194021 C194.800495,35.453525 195.228957,34.9111282 195.530645,34.1954211 L196.57532,34.1954211 C195.951083,35.9477801 195.068484,37.2668635 193.925921,38.1526713 C192.786566,39.0384791 191.608699,39.4797783 190.395527,39.4797783 C189.575513,39.4797783 188.773151,39.2535122 187.988441,38.7977705 C187.20373,38.340424 186.624425,37.6873012 186.248919,36.8384021 C185.875019,35.9895029 185.688871,34.6784432 185.688871,32.9084323 L185.688871,16.384586 L181.810252,16.384586 L181.810252,15.500383 C182.790739,15.1056208 183.793691,14.4396602 184.81911,13.5008965 C185.842924,12.5621327 186.759222,11.4500588 187.561584,10.1614652 C187.970789,9.4826668 188.542071,8.24061018 189.27222,6.43369061 L190.101863,6.43369061 Z M177.530452,13.7833279 L177.530452,22.1519652 L176.647854,22.1519652 C175.969056,19.5234268 175.1009,17.7357639 174.040177,16.7873719 C172.979454,15.8389798 171.626672,15.3655861 169.986643,15.3655861 C168.738168,15.3655861 167.730401,15.6961593 166.964947,16.3589105 C166.196285,17.0200569 165.81436,17.7534159 165.81436,18.5573828 C165.81436,19.5587307 166.100001,20.4172582 166.669678,21.1329653 C167.223308,21.8663243 168.346615,22.6446156 170.041204,23.4662344 L173.945498,25.3710422 C177.565756,27.1426578 179.375885,29.475927 179.375885,32.3724543 C179.375885,34.6062306 178.533405,36.408336 176.84684,37.7771658 C175.161879,39.1443909 173.276328,39.8296082 171.188582,39.8296082 C169.692979,39.8296082 167.979133,39.5616192 166.055069,39.0240366 C165.466135,38.8459122 164.984718,38.7560476 164.610817,38.7560476 C164.200007,38.7560476 163.879063,38.9903374 163.646378,39.4541027 L162.763779,39.4541027 L162.763779,30.6826796 L163.646378,30.6826796 C164.147052,33.1860496 165.101863,35.0716006 166.509206,36.3425423 C167.918154,37.6118792 169.495598,38.24735 171.244747,38.24735 C172.473966,38.24735 173.476919,37.8846823 174.253605,37.1609517 C175.028687,36.437221 175.41703,35.564251 175.41703,34.5436463 C175.41703,33.3128228 174.983755,32.2745662 174.118808,31.4336906 C173.255467,30.5928151 171.528783,29.5288829 168.943573,28.2402892 C166.356757,26.9549051 164.663773,25.7914799 163.861411,24.754828 C163.059048,23.7342234 162.657867,22.4472345 162.657867,20.8922566 C162.657867,18.8719087 163.349504,17.1805293 164.731171,15.8213278 C166.111234,14.4637311 167.900502,13.7833279 170.09416,13.7833279 C171.05539,13.7833279 172.225234,13.9887327 173.595668,14.3995421 C174.507152,14.667531 175.113737,14.8023279 175.41703,14.8023279 C175.702671,14.8023279 175.925728,14.7397436 176.084596,14.6145751 C176.245068,14.4894066 176.432821,14.2117893 176.647854,13.7833279 L177.530452,13.7833279 Z M154.953586,13.7833279 L154.953586,33.5246464 C154.953586,35.063577 155.065917,36.0873911 155.287369,36.5960887 C155.51203,37.1079958 155.840999,37.4867107 156.277484,37.7370477 C156.713969,37.9873847 157.511517,38.1125532 158.671732,38.1125532 L158.671732,39.0785972 L146.769492,39.0785972 L146.769492,38.1125532 C147.963407,38.1125532 148.765769,37.997013 149.176578,37.764328 C149.587388,37.531643 149.913147,37.1449044 150.152251,36.6089265 C150.394564,36.0729486 150.513314,35.045925 150.513314,33.5246464 L150.513314,24.056773 C150.513314,21.3913259 150.433078,19.6662473 150.271,18.8799323 C150.147437,18.3086505 149.95166,17.9090741 149.683671,17.6860175 C149.415682,17.4629608 149.053015,17.3506301 148.589249,17.3506301 C148.088575,17.3506301 147.48199,17.4854269 146.769492,17.7534159 L146.393987,16.7873719 L153.777323,13.7833279 L154.953586,13.7833279 Z M152.734252,0.934300409 C153.482054,0.934300409 154.120734,1.1974752 154.647084,1.72542949 C155.171829,2.25338379 155.435003,2.89366879 155.435003,3.64307504 C155.435003,4.39569074 155.171829,5.03758047 154.647084,5.57516311 C154.120734,6.11114103 153.482054,6.37912999 152.734252,6.37912999 C151.984846,6.37912999 151.342956,6.11114103 150.806978,5.57516311 C150.271,5.03758047 150.004616,4.39569074 150.004616,3.64307504 C150.004616,2.89366879 150.267791,2.25338379 150.794141,1.72542949 C151.32049,1.1974752 151.967194,0.934300409 152.734252,0.934300409 Z M139.734381,0.934300409 L139.734381,33.5246464 C139.734381,35.063577 139.845107,36.0825769 140.068163,36.5832509 C140.29122,37.0839249 140.633026,37.4642446 141.098396,37.7242099 C141.562162,37.9825705 142.427108,38.1125532 143.693236,38.1125532 L143.693236,39.0785972 L131.681874,39.0785972 L131.681874,38.1125532 C132.805181,38.1125532 133.572239,37.997013 133.983049,37.764328 C134.392253,37.531643 134.713198,37.1449044 134.947488,36.6089265 C135.176964,36.0729486 135.292504,35.045925 135.292504,33.5246464 L135.292504,11.2077454 C135.292504,8.43638655 135.22992,6.73377406 135.106356,6.09830323 C134.981187,5.46283241 134.780597,5.02955684 134.502979,4.79687182 C134.226967,4.56418679 133.877137,4.44864664 133.448676,4.44864664 C132.98491,4.44864664 132.395976,4.59146711 131.681874,4.87710803 L131.227737,3.93834431 L138.530837,0.934300409 L139.734381,0.934300409 Z M125.851911,13.7833279 L125.851911,22.1519652 L124.967708,22.1519652 C124.292119,19.5234268 123.420753,17.7357639 122.360031,16.7873719 C121.299308,15.8389798 119.94813,15.3655861 118.306497,15.3655861 C117.059626,15.3655861 116.051859,15.6961593 115.286406,16.3589105 C114.517743,17.0200569 114.135819,17.7534159 114.135819,18.5573828 C114.135819,19.5587307 114.421459,20.4172582 114.991137,21.1329653 C115.544766,21.8663243 116.666469,22.6446156 118.362662,23.4662344 L122.266957,25.3710422 C125.887215,27.1426578 127.697344,29.475927 127.697344,32.3724543 C127.697344,34.6062306 126.854863,36.408336 125.169903,37.7771658 C123.483338,39.1443909 121.597787,39.8296082 119.511645,39.8296082 C118.014437,39.8296082 116.302196,39.5616192 114.374922,39.0240366 C113.787593,38.8459122 113.304571,38.7560476 112.930671,38.7560476 C112.521466,38.7560476 112.200521,38.9903374 111.967836,39.4541027 L111.085238,39.4541027 L111.085238,30.6826796 L111.967836,30.6826796 C112.46851,33.1860496 113.421716,35.0716006 114.830664,36.3425423 C116.238007,37.6118792 117.818661,38.24735 119.566206,38.24735 C120.795424,38.24735 121.798377,37.8846823 122.575064,37.1609517 C123.350145,36.437221 123.736884,35.564251 123.736884,34.5436463 C123.736884,33.3128228 123.305213,32.2745662 122.441872,31.4336906 C121.57532,30.5928151 119.850242,29.5288829 117.265031,28.2402892 C114.67982,26.9549051 112.985231,25.7914799 112.182869,24.754828 C111.380507,23.7342234 110.979326,22.4472345 110.979326,20.8922566 C110.979326,18.8719087 111.670962,17.1805293 113.05263,15.8213278 C114.434297,14.4637311 116.22196,13.7833279 118.415618,13.7833279 C119.376848,13.7833279 120.545087,13.9887327 121.918731,14.3995421 C122.82861,14.667531 123.435196,14.8023279 123.736884,14.8023279 C124.02413,14.8023279 124.247186,14.7397436 124.406054,14.6145751 C124.568131,14.4894066 124.754279,14.2117893 124.967708,13.7833279 L125.851911,13.7833279 Z M88.9111571,39.0785972 C88.073491,39.9900806 87.4396249,40.8389798 87.0111635,41.6268994 C86.5843069,42.4132143 86.3708785,43.1385497 86.3708785,43.7996961 C86.3708785,44.6566189 86.885995,45.4092346 87.9226469,46.0527291 C89.7038909,47.1599888 92.2826829,47.7152234 95.6509992,47.7152234 C98.8604478,47.7152234 101.229021,47.1487558 102.753509,46.0142157 C104.277997,44.8764661 105.040241,43.666504 105.040241,42.3779104 C105.040241,41.4471703 104.587709,40.7860239 103.676225,40.3928664 C102.748695,40.0013137 100.91289,39.7670239 98.1672069,39.6948114 C94.1553961,39.5872948 91.0695113,39.3818901 88.9111571,39.0785972 Z M93.8328466,15.0703168 C92.5137632,15.0703168 91.4081081,15.5982711 90.5158814,16.652575 C89.6236547,17.7084836 89.1775413,19.3260457 89.1775413,21.5084708 C89.1775413,24.3343903 89.7857318,26.524839 90.9972987,28.0814215 C91.9248293,29.2592892 93.1010923,29.8498277 94.5292969,29.8498277 C95.8836842,29.8498277 96.9973629,29.3411301 97.8719376,28.3205255 C98.7465124,27.3015255 99.1813927,25.7016154 99.1813927,23.520795 C99.1813927,20.6772236 98.568388,18.4498662 97.3359597,16.8403278 C96.4276858,15.6608554 95.2594465,15.0703168 93.8328466,15.0703168 Z M89.1775413,30.1178167 C87.6803336,29.3860624 86.5313509,28.363853 85.7273841,27.0479791 C84.9250219,25.7337099 84.5254456,24.2798296 84.5254456,22.6879431 C84.5254456,20.2567858 85.4385337,18.1642253 87.2663147,16.4118664 C89.0940957,14.6595074 91.4337837,13.7833279 94.2885883,13.7833279 C96.6234621,13.7833279 98.6470195,14.3562145 100.35926,15.500383 L105.548939,15.500383 C106.315997,15.500383 106.760506,15.5228491 106.885674,15.5677814 C107.010843,15.6111089 107.100707,15.6881357 107.153663,15.7956522 C107.26118,15.9561247 107.314135,16.2417656 107.314135,16.652575 C107.314135,17.1179451 107.269203,17.4404946 107.180943,17.618619 C107.127987,17.7084836 107.033309,17.7790915 106.900117,17.8336521 C106.766924,17.886608 106.315997,17.9138883 105.548939,17.9138883 L102.36677,17.9138883 C103.364909,19.2024819 103.862373,20.8473244 103.862373,22.8500203 C103.862373,25.1383572 102.989403,27.0961208 101.243463,28.7233113 C99.4943139,30.3521064 97.1498117,31.1657017 94.208352,31.1657017 C92.9951805,31.1657017 91.7547286,30.9859725 90.4886011,30.6297237 C89.7038909,31.3085221 89.1743319,31.9038748 88.8967146,32.4125724 C88.620702,32.9196653 88.4826957,33.3561503 88.4826957,33.7140039 C88.4826957,34.0172967 88.6303303,34.312566 88.9255996,34.5982069 C89.2176594,34.8838479 89.7937555,35.0908573 90.6490735,35.2160258 C91.1497475,35.2866337 92.398223,35.3492179 94.3945001,35.4037786 C98.067714,35.4936431 100.44752,35.6188116 101.535523,35.779284 C103.193203,36.0103643 104.518706,36.6281832 105.508821,37.6295312 C106.497331,38.6308791 106.994795,39.8649121 106.994795,41.3332349 C106.994795,43.3519781 106.048008,45.2471575 104.157643,47.0187731 C101.376656,49.6296595 97.7467691,50.9343004 93.271193,50.9343004 C89.8290594,50.9343004 86.9229037,50.1576138 84.5495164,48.6010313 C83.2127811,47.7071998 82.5452158,46.7764597 82.5452158,45.8120204 C82.5452158,45.3819543 82.6431039,44.9534929 82.8388803,44.5234268 C83.1421732,43.8622804 83.766411,42.9411686 84.7115936,41.7600915 C84.8367621,41.6012238 85.745036,40.6335751 87.4396249,38.8635642 C86.5120943,38.3099343 85.8573667,37.8124697 85.4738376,37.3759847 C85.0903085,36.9362903 84.8993463,36.4404305 84.8993463,35.8868006 C84.8993463,35.2593534 85.1528928,34.5275991 85.6615904,33.6867235 C86.170288,32.845848 87.3433414,31.6567473 89.1775413,30.1178167 Z M75.8856099,13.7833279 L75.8856099,33.5246464 C75.8856099,35.063577 75.9963359,36.0873911 76.2193925,36.5960887 C76.4424492,37.1079958 76.7714177,37.4867107 77.2095074,37.7370477 C77.6459925,37.9873847 78.4451452,38.1125532 79.6021514,38.1125532 L79.6021514,39.0785972 L67.6983065,39.0785972 L67.6983065,38.1125532 C68.8922214,38.1125532 69.6945835,37.997013 70.1053929,37.764328 C70.5162024,37.531643 70.8419614,37.1449044 71.0842748,36.6089265 C71.3233787,36.0729486 71.443733,35.045925 71.443733,33.5246464 L71.443733,24.056773 C71.443733,21.3913259 71.3634968,19.6662473 71.2046291,18.8799323 C71.0778559,18.3086505 70.8836842,17.9090741 70.6156953,17.6860175 C70.3477063,17.4629608 69.9818292,17.3506301 69.5180638,17.3506301 C69.0205993,17.3506301 68.4124088,17.4854269 67.6983065,17.7534159 L67.3244057,16.7873719 L74.7077422,13.7833279 L75.8856099,13.7833279 Z M73.6646714,0.934300409 C74.4140777,0.934300409 75.0495485,1.1974752 75.5758981,1.72542949 C76.1038524,2.25338379 76.3670272,2.89366879 76.3670272,3.64307504 C76.3670272,4.39569074 76.1038524,5.03758047 75.5758981,5.57516311 C75.0495485,6.11114103 74.4140777,6.37912999 73.6646714,6.37912999 C72.9152652,6.37912999 72.2733755,6.11114103 71.7390023,5.57516311 C71.2046291,5.03758047 70.9366401,4.39569074 70.9366401,3.64307504 C70.9366401,2.89366879 71.1998149,2.25338379 71.7245598,1.72542949 C72.2509093,1.1974752 72.8992179,0.934300409 73.6646714,0.934300409 Z M57.0268898,33.7942401 L57.0268898,24.4322785 C54.3341624,25.5042343 52.5946413,26.2648736 51.8099311,26.7125917 C50.4025879,27.4989066 49.394821,28.3205255 48.7882352,29.1806577 C48.1816494,30.0391852 47.8783565,30.9779489 47.8783565,31.9953441 C47.8783565,33.2839377 48.2618856,34.3526841 49.0289439,35.2015833 C49.7960021,36.0520872 50.6769957,36.4757344 51.676739,36.4757344 C53.032731,36.4757344 54.8155797,35.581903 57.0268898,33.7942401 Z M57.0268898,35.5369707 C54.5122868,37.4867107 52.9348428,38.6132272 52.2929531,38.9181248 C51.3301185,39.3642381 50.303095,39.5872948 49.2166966,39.5872948 C47.5221077,39.5872948 46.1259976,39.0063846 45.0299709,37.8445642 C43.9339442,36.6811391 43.3835237,35.1518368 43.3835237,33.2582622 C43.3835237,32.0579284 43.6515127,31.0212765 44.1858859,30.1467017 C44.9176402,28.9303207 46.1885818,27.7845475 47.9987109,26.7125917 C49.8088399,25.6390311 52.817698,24.3343903 57.0268898,22.7954597 L57.0268898,21.8310204 C57.0268898,19.3806063 56.6385465,17.70046 55.8634647,16.7873719 C55.0867781,15.8758884 53.9586569,15.4201467 52.4791011,15.4201467 C51.3557941,15.4201467 50.4635674,15.7234396 49.8040257,16.3316301 C49.126832,16.9382159 48.7882352,17.6378757 48.7882352,18.4241906 L48.8411911,19.9807732 C48.8411911,20.8023921 48.6309722,21.4362582 48.2121392,21.8839763 C47.7933061,22.3316943 47.2460952,22.554751 46.5672968,22.554751 C45.9077551,22.554751 45.3685677,22.322066 44.9497347,21.8566959 C44.5309016,21.3913259 44.3206827,20.7574598 44.3206827,19.9518882 C44.3206827,18.4145623 45.1053929,17.0024049 46.6748133,15.7138113 C48.2442337,14.4268224 50.4459154,13.7833279 53.2814633,13.7833279 C55.4574694,13.7833279 57.2403181,14.1508098 58.6316141,14.8825641 C59.6827085,15.436194 60.4593951,16.3043498 60.9584644,17.4854269 C61.2778045,18.2540899 61.4398817,19.8267197 61.4398817,22.2065258 L61.4398817,30.5478828 C61.4398817,32.8907803 61.4832092,34.3237991 61.5746785,34.8549628 C61.6645431,35.3813124 61.8089683,35.732747 62.014373,35.9140809 C62.2197777,36.0922053 62.4572769,36.1820698 62.7252658,36.1820698 C63.009302,36.1820698 63.259639,36.1178809 63.4730674,35.9943171 C63.8485728,35.7600273 64.5690941,35.1085093 65.6394452,34.0365534 L65.6394452,35.5369707 C63.6431681,38.2200697 61.7335462,39.5616192 59.9153936,39.5616192 C59.0408188,39.5616192 58.3459732,39.2583263 57.829252,38.6485311 C57.3125307,38.0419453 57.0445418,37.0036887 57.0268898,35.5369707 Z M32.0156567,13.7833279 L32.0156567,19.3083937 C34.0664944,15.6255515 36.1718927,13.7833279 38.3286422,13.7833279 C39.3091287,13.7833279 40.1211192,14.0834114 40.7630089,14.6819736 C41.4048987,15.2805357 41.7258435,15.9737766 41.7258435,16.7616963 C41.7258435,17.4581466 41.4947632,18.0486852 41.0309979,18.5317072 C40.5672326,19.0131245 40.0136027,19.2554378 39.371713,19.2554378 C38.7474752,19.2554378 38.0478154,18.945726 37.2727336,18.3295119 C36.496047,17.7116931 35.9215557,17.4051907 35.5476549,17.4051907 C35.2251054,17.4051907 34.8784849,17.5833151 34.5045841,17.9411686 C33.702222,18.6745276 32.8725795,19.8812803 32.0156567,21.5614267 L32.0156567,33.3384984 C32.0156567,34.6976999 32.1857575,35.7263281 32.5243544,36.4227785 C32.7570394,36.9074052 33.1678488,37.3085863 33.7551779,37.6295312 C34.3441117,37.9520808 35.1914062,38.1125532 36.2954565,38.1125532 L36.2954565,39.0785972 L23.7513266,39.0785972 L23.7513266,38.1125532 C24.9981973,38.1125532 25.9273327,37.9167768 26.5323138,37.5220146 C26.9784271,37.2363737 27.2913484,36.7822367 27.4694728,36.1547895 C27.5577326,35.8514966 27.6026649,34.9833408 27.6026649,33.5535314 L27.6026649,24.0294927 C27.6026649,21.1682692 27.5448948,19.4656567 27.4293547,18.9200505 C27.3138145,18.3744442 27.0987815,17.9764726 26.7874649,17.7261356 C26.4745437,17.4757986 26.0878051,17.3506301 25.6240398,17.3506301 C25.0704099,17.3506301 24.4461722,17.4854269 23.7513266,17.7534159 L23.4849423,16.7873719 L30.8923497,13.7833279 L32.0156567,13.7833279 Z M21.3699157,29.7439159 C20.7119787,32.9806448 19.4169662,35.471177 17.491297,37.2139076 C15.5656279,38.9566382 13.434554,39.8296082 11.0980754,39.8296082 C8.31708816,39.8296082 5.890745,38.6581594 3.82386009,36.315262 C1.75537046,33.9739692 0.720323283,30.8078481 0.720323283,26.8185035 C0.720323283,22.9575368 1.86609644,19.8186961 4.15764275,17.4051907 C6.44918906,14.9900806 9.19968653,13.7833279 12.4091351,13.7833279 C14.8162216,13.7833279 16.7964514,14.4220082 18.3466151,15.7009735 C19.8983835,16.9799388 20.6750701,18.3086505 20.6750701,19.6838992 C20.6750701,20.3643023 20.4568276,20.9147228 20.0203425,21.3351605 C19.5822528,21.7539936 18.9724576,21.9642125 18.1861427,21.9642125 C17.1350482,21.9642125 16.3423144,21.6240109 15.8063365,20.9452125 C15.5030436,20.569707 15.3024531,19.854 15.2045649,18.7996961 C15.1066767,17.7437875 14.7456137,16.9382159 14.121376,16.384586 C13.4971382,15.8486081 12.6321918,15.5806192 11.5265368,15.5806192 C9.74368807,15.5806192 8.30906454,16.2417656 7.21945673,17.5656631 C5.77520485,19.3180221 5.05468364,21.6336393 5.05468364,24.5125147 C5.05468364,27.4459507 5.77039068,30.034371 7.20661894,32.2777756 C8.64284719,34.5227849 10.5813542,35.6444872 13.0253493,35.6444872 C14.7712893,35.6444872 16.3423144,35.045925 17.7336104,33.8488007 C18.7124922,33.0255771 19.6673032,31.5315788 20.5948338,29.3684104 L21.3699157,29.7439159 L21.3699157,29.7439159 Z" id="craigslist" fill="#000000"></path>
    </g>
</svg>