<?xml version="1.0" encoding="UTF-8"?>
<svg width="200px" height="51px" viewBox="0 0 200 51" version="1.1" xmlns="http://www.w3.org/2000/svg" xmlns:xlink="http://www.w3.org/1999/xlink">
    <title>espn</title>
    <g id="Logos" stroke="none" stroke-width="1" fill="none" fill-rule="evenodd">
        <path d="M43.772981,32.4459202 L46.0612825,21.2789914 L4.94559556,21.2789914 L0.123892383,50.212272 L1.18695538,50.212272 L1.13587098,50.4676065 L42.2527825,50.4676065 L44.541084,39.2994531 L15.2639459,39.2994531 L16.4063472,32.4459202 L43.772981,32.4459202 Z M50.1308028,15.4396238 C50.1308028,15.4396238 51.5398227,0.719442162 61.8059514,0.719442162 L140.739407,0.719442162 C140.739407,0.719442162 143.89903,0.973552095 146.18392,4.52566781 C148.46881,8.07900815 147.59294,15.4396238 147.59294,15.4396238 L50.1308028,15.4396238 Z M151.145143,15.4396238 L152.921726,0.719442162 L189.212386,0.719442162 C202.54734,0.719442162 199.113226,15.4396238 199.113226,15.4396238 L151.145143,15.4396238 Z M88.963874,20.7695469 L49.8788797,20.7695469 C49.9934697,26.3535798 51.0088597,31.9377003 57.7456159,31.9377003 L80.0817477,31.9377003 L79.7652694,39.298316 L49.3615626,39.298316 L47.0721239,50.4664694 L88.188948,50.4664694 C91.8704367,50.4664694 96.1849697,44.1200191 96.1849697,33.4601731 C96.1849697,25.5878386 94.4082996,20.7695469 88.963874,20.7695469 Z M101.399166,20.770684 L97.70753,50.7194422 L113.443102,50.7194422 L116.119435,31.9377003 L139.216934,31.9377003 C147.475026,31.9377003 146.83061,20.7695469 146.83061,20.7695469 L101.399166,20.7695469 L101.399166,20.770684 Z M162.885022,50.7194422 L146.780663,50.7194422 L150.939756,20.770684 L167.046389,20.770684 L162.885022,50.7194422 Z M194.6115,50.7194422 L178.507228,50.7194422 L182.666234,20.770684 L198.770593,20.770684 L194.6115,50.7194422 Z M7.48345838,0.719442162 L5.19515688,15.186651 L46.3108438,15.186651 L48.5991453,0.719442162 L7.48345838,0.719442162 Z" id="espn" fill="#231F20"></path>
    </g>
</svg>