<?xml version="1.0" encoding="UTF-8"?>
<svg viewBox="0 0 107 51" version="1.1" xmlns="http://www.w3.org/2000/svg" xmlns:xlink="http://www.w3.org/1999/xlink">
    <title>etsy</title>
    <g id="Logos" stroke="none" stroke-width="1" fill="none" fill-rule="evenodd">
        <path d="M12.2644675,18.6885441 L12.2644675,4.55622328 C12.2644675,4.03256213 12.3167093,3.71848982 13.2069954,3.71848982 L25.1930518,3.71848982 C27.2870745,3.71848982 28.4385693,5.49844019 29.2763028,8.84813016 L29.9566891,11.5180557 L31.9978481,11.5180557 C32.3638512,3.92870059 32.6776126,0.630941391 32.6776126,0.630941391 C32.6776126,0.630941391 27.5482832,1.20653331 24.5123545,1.20653331 L9.17691911,1.20653331 L0.957864557,0.944702733 L0.957864557,3.14320887 L3.73258454,3.66655906 C5.6692601,4.03318405 6.13943566,4.45142886 6.29771567,6.23169019 C6.29771567,6.23169019 6.45506278,11.465814 6.45506278,20.1028024 C6.45506278,28.7385469 6.29771567,33.9210509 6.29771567,33.9210509 C6.29771567,35.4911015 5.6692601,36.0666934 3.73258454,36.4342513 L0.957864557,36.9579124 L0.957864557,39.1551747 L9.17691911,38.8939661 L22.8906842,38.8939661 C25.9788545,38.8939661 33.1496539,39.1551747 33.1496539,39.1551747 C33.3060681,37.2704299 34.3537014,28.7385469 34.5107375,27.7975739 L32.574062,27.7975739 L30.532592,32.4561057 C28.9096778,36.1192461 26.5547574,36.3813876 23.9370736,36.3813876 L16.1375077,36.3813876 C13.5201348,36.3813876 12.2638456,35.3343763 12.2638456,33.0839394 L12.2638456,21.1495028 C12.2638456,21.1495028 17.9690779,21.1495028 19.9576842,21.3068499 C21.4235623,21.4119553 22.3129155,21.830511 22.7846459,23.87167 L23.4131015,26.5935264 L25.6626055,26.5935264 L25.5061913,19.7358664 L25.8199526,12.8272086 L23.5698267,12.8272086 L22.8375096,15.8628263 C22.3657792,17.8517435 22.0523288,18.2189905 20.0105479,18.4276464 C17.7078692,18.6900989 12.2635347,18.6375462 12.2635347,18.6375462 L12.2635347,18.689477 L12.2644675,18.689477 L12.2644675,18.6885441 Z M43.3035182,6.02210134 C42.5705792,9.26730785 41.8376402,11.7795753 39.27282,13.4547313 C37.7027694,14.5011207 36.1320969,14.8671238 35.5048852,14.9196765 L35.5048852,16.9085937 L40.1631061,16.9085937 L40.1631061,32.9775901 C40.1631061,37.4797078 43.147104,39.6785249 47.1246276,39.6785249 C50.2131089,39.6785249 53.4054518,38.3699939 54.5050158,35.6475157 L53.4054518,34.2341903 C52.8817906,35.1244765 51.2078786,36.4326965 49.1138559,36.4326965 C46.8111772,36.4326965 45.554888,34.862024 45.554888,30.8848113 L45.554888,16.7002488 L53.3022122,17.2764626 L53.720457,13.7162509 L45.555199,14.0306342 L45.555199,6.07403211 L43.3035182,6.02210134 L43.3035182,6.02210134 Z M59.844245,30.7386589 L57.8553277,30.7909006 C57.9598112,31.9420844 58.0126748,33.4082735 58.0126748,34.7690461 C58.0126748,36.1823715 57.9604331,37.4909025 57.8553277,38.1187361 C57.8553277,38.1187361 61.8334733,39.5830594 65.8638605,39.5830594 C71.3075732,39.5830594 75.6523437,36.9659975 75.6523437,31.8363571 C75.6523437,23.0438874 62.4619288,24.3527293 62.4619288,18.4369753 C62.4619288,15.9772605 64.660124,15.0347326 67.067908,15.0347326 C68.9523419,15.0347326 70.5223924,15.715119 70.8364647,16.7105105 L72.1453066,20.6361034 L74.0822932,20.5316199 C74.2396403,18.4375972 74.3438128,16.0298132 74.658196,14.0934486 C72.9827291,13.3605096 69.4753811,12.9410209 67.2787407,12.9410209 C62.1478565,12.9410209 58.0136077,15.1920798 58.0136077,20.2172366 C58.0136077,28.9580866 70.8893284,27.1784472 70.8893284,33.6175513 C70.8893284,35.919608 69.4753811,37.5425223 66.2833492,37.5425223 C63.3528369,37.5425223 61.8866479,36.0250244 61.3119889,34.5062827 L59.844245,30.7386589 L59.844245,30.7386589 Z M91.3923416,36.7856391 C88.3620103,45.2503542 84.6525365,47.443263 81.3090658,47.443263 C79.8976062,47.443263 79.2190856,46.8157403 79.0091858,45.8247022 L78.2255599,41.7482925 L76.0307853,41.8527759 C75.6128515,44.2565174 75.1949176,46.9220895 74.6208805,49.1159312 C75.9272347,50.1072802 78.1204545,50.6309414 79.8453645,50.6309414 C83.4512877,50.6309414 88.9366693,50.1598329 93.9515645,38.2480966 L102.364038,18.3946844 C103.043802,16.7745688 103.304078,16.6178436 105.289575,15.8335958 L106.386962,15.4165948 L106.386962,13.5878233 L101.423065,13.849032 L96.0940973,13.5878233 L96.0940973,15.4165948 L97.4517604,15.8335958 C98.8097344,16.2524625 99.437879,16.7745688 99.437879,17.7152309 C99.437879,18.1850955 99.2805319,18.6555821 99.0187013,19.3863444 C98.2350753,21.3730849 93.3759725,33.1803378 92.0711731,35.6888737 L93.3756616,35.2177653 C91.0764035,29.5231058 87.5774515,20.0132451 87.0544122,18.3949953 C86.9499288,18.081234 86.8976871,17.8200254 86.8976871,17.5575729 C86.8976871,16.7220161 87.4723461,16.0425627 88.7264586,15.781665 L90.4507466,15.4169058 L90.4507466,13.5878233 L83.2920748,13.8493429 L77.5974153,13.5878233 L77.5974153,15.4169058 L78.5380774,15.7300452 C79.8441206,16.147979 80.157882,16.5139821 80.9415079,18.3424427 C85.2766386,28.2699262 87.3156209,33.7027551 90.0834997,40.8091852 L91.3923416,36.7856391 L91.3923416,36.7856391 Z" id="etsy" fill="#000000" fill-rule="nonzero"></path>
    </g>
</svg>