<?xml version="1.0" encoding="UTF-8"?>
<svg viewBox="0 0 313 51" version="1.1" xmlns="http://www.w3.org/2000/svg" xmlns:xlink="http://www.w3.org/1999/xlink">
    <title>eventbrite</title>
    <g id="Logos" stroke="none" stroke-width="1" fill="none" fill-rule="evenodd">
        <path d="M290.004272,29.4275882 C290.098094,28.9767543 290.222987,28.5289667 290.375905,28.093973 C290.927263,26.5282393 291.727188,25.1129866 293.08761,24.110186 C295.268062,22.5018059 297.659309,22.2709059 300.135848,23.274925 C301.972082,24.0188008 302.926753,25.5559004 303.417797,27.4043191 C303.567059,27.9660337 303.652352,28.547853 303.723023,29.1260169 C303.815018,29.875985 303.61458,30.0843434 302.834759,30.0873895 C300.813927,30.0934819 298.793095,30.0892173 296.772263,30.0892173 C294.873277,30.0898265 292.974292,30.0898265 291.075307,30.0892173 C290.880352,30.0892173 290.683569,30.101402 290.49166,30.0745956 C290.092611,30.0197645 289.923244,29.81628 290.004272,29.4275882 M309.583254,40.8312469 C307.950504,41.5483164 306.269625,42.1191694 304.515638,42.4414547 C302.136576,42.8788854 299.74472,43.1487764 297.336414,42.6571239 C295.162055,42.2129916 293.224079,41.3131517 291.697945,39.6505497 C290.823693,38.6983155 290.234563,37.5876803 289.940912,36.3302195 C289.774591,35.6186331 289.967109,35.400527 290.701237,35.3792038 C290.896192,35.3737207 291.091147,35.3773761 291.286102,35.3773761 L299.98354,35.3773761 C303.004736,35.3773761 306.025931,35.3517883 309.046518,35.3877331 C310.674394,35.4072286 312.171284,34.4312343 312.033597,32.3360755 C311.961707,31.2431081 311.949522,30.1458761 311.853872,29.0559549 C311.655262,26.7871641 311.168483,24.5835615 310.202846,22.5078982 C308.651125,19.171728 306.105132,16.9991963 302.547809,16.035996 C300.11879,15.3780223 297.646515,15.2525199 295.162664,15.5863806 C289.388945,16.3613274 285.224824,19.3983634 282.85551,24.7127193 C280.809699,29.3008673 280.583064,34.0961551 281.874033,38.9267786 C282.867085,42.6443299 284.991487,45.6058207 288.258205,47.6991518 C290.971128,49.437299 293.986231,50.2390521 297.164001,50.4394904 C299.550374,50.5899714 301.933091,50.4632505 304.292049,50.0197275 C305.926626,49.7126732 307.522212,49.3057042 308.958179,48.4186582 C311.76797,46.6835573 312.035424,43.7129279 310.833404,41.2765976 C310.473346,40.5455157 310.331394,40.5028693 309.583254,40.8312469 M275.740865,41.1925232 C275.177932,41.422814 274.618654,41.6695541 274.038053,41.8450137 C272.578936,42.2854906 271.09423,42.5139537 269.571752,42.2136009 C268.116899,41.926042 267.056221,41.1340366 266.641332,39.6840576 C266.415916,38.8981446 266.268481,38.0616651 266.26117,37.2465088 C266.224007,33.0799513 266.243502,28.9127847 266.244721,24.745618 C266.244721,24.5512721 266.23741,24.3532707 266.267262,24.1625802 C266.322093,23.8122702 266.523141,23.5874625 266.892947,23.5588284 C267.087292,23.5435976 267.282857,23.5478622 267.477203,23.5478622 C269.865404,23.547253 272.253604,23.547253 274.641805,23.547253 C275.873678,23.5466437 275.874287,23.5466437 275.874287,22.2794352 L275.874287,17.3811866 C275.874287,17.2349702 275.877943,17.0887539 275.873069,16.9425375 C275.853573,16.3296472 275.743911,16.2138926 275.154781,16.1889139 C274.984804,16.1816031 274.813609,16.186477 274.643024,16.186477 C272.231063,16.186477 269.818492,16.1883047 267.405922,16.1858678 C266.403731,16.1846493 266.249594,16.0347775 266.24533,15.0563463 C266.239847,13.9353541 266.244111,12.8143619 266.243502,11.6933697 C266.242893,10.5236387 266.250813,9.35390767 266.23741,8.18478591 C266.231317,7.62977293 266.138714,7.54813545 265.607461,7.50670748 C265.462463,7.49574125 265.315637,7.50000589 265.169421,7.50000589 C262.927437,7.50000589 260.685452,7.49918961 258.443468,7.50061513 C258.272882,7.50061513 258.102296,7.5036613 257.93232,7.51158136 C257.580182,7.52863993 257.396802,7.70470882 257.40655,8.06842205 C257.411424,8.26276798 257.404113,8.45772315 257.404113,8.65267831 C257.403504,10.7971851 257.407159,12.941692 257.401676,15.0861988 C257.399848,16.0177189 257.228653,16.1809939 256.283121,16.1852585 C255.284585,16.1901324 254.28544,16.1846493 253.286294,16.1876955 C252.361476,16.1901324 252.3103,16.2425266 252.308472,17.1965884 C252.306035,18.707491 252.307254,20.2183935 252.307863,21.7292961 C252.309082,23.8025224 252.148853,23.5295852 254.088657,23.547253 C254.234873,23.5484714 254.38109,23.5460345 254.527306,23.5478622 C256.217323,23.56553 257.379744,24.6901776 257.396802,26.3887245 C257.419953,28.7525559 257.402285,31.1163873 257.402285,33.4802187 L257.404113,33.4802187 C257.404113,34.7474272 257.385836,36.0146358 257.408378,37.2812352 C257.435184,38.7897008 257.416298,40.3042587 257.558859,41.8029765 C257.956689,45.998168 260.640369,49.0260654 264.730772,50.0221645 C266.819229,50.5308756 268.927182,50.5698666 271.042445,50.2713415 C272.499126,50.0654202 273.900366,49.6627159 275.148079,48.8420765 C277.872578,47.0509259 278.224106,44.1789926 277.012947,41.6604156 C276.674213,40.9555308 276.454888,40.9006997 275.740865,41.1925232 M242.437649,0.502333914 C239.726553,0.418259498 237.088566,2.60114812 237.095862,5.89284425 C237.103797,9.14006623 239.831951,11.1529783 242.419981,11.1609221 C244.940386,11.1688184 247.762971,9.19124196 247.777661,5.91112129 C247.793433,2.57251408 245.077463,0.421914908 242.437649,0.502333914 M246.91126,16.7171206 C246.89542,16.4045831 246.727881,16.2218126 246.410469,16.1980525 C246.217342,16.1852585 246.021168,16.1876955 245.826822,16.1876955 C243.586666,16.1867816 241.3459,16.1867816 239.104525,16.1876955 C238.064561,16.1876955 238.060905,16.1895232 238.060905,17.255075 C238.059077,25.8525978 238.054813,34.4507299 238.068825,43.0482527 C238.069434,43.7982208 238.125484,44.5609829 238.267436,45.2963294 C238.64638,47.2519734 239.5779,48.8487781 241.426319,49.7815167 C242.873252,50.5113801 244.414616,50.6125131 245.982787,50.3797854 C246.877753,50.2463629 246.919181,50.1501038 246.919181,49.2313776 C246.919181,43.8975261 246.919181,38.5630654 246.919181,33.2292139 C246.919181,27.9447104 246.919181,22.6595977 246.919181,17.3738758 C246.919181,17.1545512 246.922836,16.9352267 246.91126,16.7171206 M229.404896,16.2023171 C228.322285,15.7313785 227.17205,15.5175371 225.998054,15.4633152 C224.121002,15.3768038 222.251869,15.4645336 220.388829,15.7344247 C217.652146,16.1310366 215.013549,16.8548077 212.459027,17.9154856 C211.696265,18.2322878 211.404442,18.67642 211.410441,19.514118 C211.44587,24.3380399 211.427593,29.162571 211.427593,33.9871021 L211.427593,34.4988594 C211.427593,39.2259129 211.426374,43.9529665 211.428811,48.68002 C211.42942,49.6950053 211.456227,49.7187655 212.438313,49.7193747 C214.558451,49.7205932 216.677979,49.7260763 218.798116,49.717547 C220.138433,49.7120639 220.301708,50.0111983 220.298662,48.1853213 C220.28404,40.7538741 220.29257,33.3218176 220.29257,25.8903704 C220.29257,25.6710458 220.287696,25.4517212 220.294397,25.2323967 C220.313893,24.6432665 220.399186,24.4885209 220.959073,24.3459599 C221.712087,24.1546602 222.472412,23.9523942 223.241876,23.8683198 C225.934694,23.5746685 228.586084,23.819581 231.182643,24.6091494 C231.813811,24.8004491 231.942359,24.7431811 232.165339,24.1333369 C232.546111,23.0897176 232.669786,22.0077164 232.635059,20.9019551 C232.564388,18.6416936 231.453144,17.0930185 229.404896,16.2023171 M196.22109,36.1309997 C195.184172,39.7583842 192.718598,41.8706016 189.068672,42.6485946 C186.984479,43.0927268 184.906989,42.9787999 182.842291,42.5048151 C181.795017,42.2647766 181.556197,41.9686884 181.55376,40.8921704 C181.548277,38.4071012 181.552541,35.9226414 181.552541,33.4375722 C181.551932,30.9774817 181.570209,28.516782 181.539138,26.0566915 C181.531218,25.4370996 181.732265,25.0496262 182.281795,24.7809536 C185.674015,23.1226163 189.096697,22.8027679 192.490135,24.6968792 C194.85153,26.0158728 196.140061,28.1299178 196.57932,30.7825266 C196.879673,32.5950004 196.720053,34.386151 196.22109,36.1309997 M196.456254,16.8389676 C194.032109,15.7776804 191.473931,15.3761946 188.834726,15.4322442 C186.648791,15.4785461 184.52378,15.8184991 182.493809,16.6555879 C181.623822,17.0144272 181.55376,16.97239 181.552541,16.0158912 C181.550104,13.6282997 181.579348,11.2407081 181.53792,8.85372583 C181.522079,7.959369 181.431303,7.04856284 181.228428,6.17918465 C180.697175,3.90186462 179.364169,2.29957685 177.064308,1.61845224 C176.045667,1.31627173 174.997783,1.31809944 173.948071,1.40339232 C172.751534,1.5008699 172.692438,1.56301186 172.692438,2.76503231 C172.691515,10.0734141 172.692438,17.3824051 172.692438,24.6907869 L172.692438,39.7468088 C172.692438,41.9881839 172.690001,44.2295591 172.693047,46.4703251 C172.695484,48.1298809 172.752143,48.2048168 174.364788,48.7171833 C178.534392,50.0410508 182.807565,50.5985007 187.176998,50.4650782 C189.7236,50.3870962 192.21598,50.0008413 194.619411,49.1406016 C199.800954,47.2848721 203.314412,43.7811622 204.914262,38.4850833 C206.034645,34.7766705 206.170505,30.9957588 205.206086,27.2361702 C203.962637,22.3915344 201.076083,18.8616274 196.456254,16.8389676 M164.439133,41.1559691 C164.009622,41.3283826 163.590469,41.5276024 163.154257,41.6786926 C161.545877,42.2343148 159.906425,42.5371046 158.203005,42.2172563 C156.712207,41.9370082 155.696612,41.1084488 155.217144,39.6420204 C154.940552,38.7976208 154.849167,37.9276334 154.84673,37.0515536 C154.835763,32.9812553 154.841247,28.9121754 154.843074,24.8418771 C154.843074,24.6225526 154.839419,24.4007911 154.874145,24.1857311 C154.943598,23.7562205 155.118448,23.5984287 155.548568,23.5563915 C155.741696,23.536896 155.937869,23.547253 156.132825,23.547253 L163.298036,23.547253 C163.492991,23.547253 163.687946,23.5460345 163.882902,23.5435976 C164.231384,23.5393329 164.442788,23.3724026 164.443398,23.0141724 C164.447662,20.8934258 164.447053,18.7732884 164.44157,16.6537602 C164.440961,16.3637644 164.269157,16.2090187 163.980379,16.196834 C163.786033,16.1876955 163.590469,16.1876955 163.396123,16.1876955 C161.007313,16.186477 158.619112,16.1876955 156.230911,16.186477 C154.92593,16.186477 154.843683,16.1036211 154.842465,14.7633043 C154.840028,12.6437761 154.844902,10.5230294 154.839419,8.402892 C154.837591,7.55361856 154.785806,7.50305207 153.916428,7.5018336 C151.576966,7.49695972 149.237504,7.49695972 146.897433,7.50244283 C146.043895,7.50487977 145.98419,7.57006791 145.982971,8.41629517 C145.980534,10.5120632 145.982362,12.6084405 145.981753,14.7042085 C145.981753,16.186477 145.981753,16.186477 144.53482,16.186477 C143.608783,16.1876955 142.682746,16.1816031 141.756709,16.1889139 C141.034765,16.1943971 140.969577,16.2571482 140.962266,16.9912763 C140.951909,18.0878991 140.95922,19.1851311 140.958611,20.2817539 C140.958611,21.0378144 140.956174,21.7932657 140.95983,22.5481077 C140.964094,23.5234928 140.985417,23.5435976 141.927295,23.547253 C142.292835,23.5484714 142.660204,23.5697947 143.023917,23.5435976 C144.738304,23.4235783 146.050596,24.8455325 145.999421,26.5026514 C145.929359,28.7415897 145.981753,30.9854018 145.981753,33.2279954 C145.981753,35.2750247 145.950073,37.3220539 145.995156,39.3690831 C146.018916,40.4602228 146.082276,41.5659842 146.291244,42.6345822 C146.983944,46.1705815 148.995029,48.6221427 152.467058,49.758975 C155.172061,50.6448025 157.924584,50.6423656 160.689902,50.070294 C162.019252,49.7943106 163.249297,49.2874272 164.317895,48.4326706 C166.748743,46.4879929 166.62324,43.4710617 165.522353,41.4977499 C165.226265,40.9671063 165.0307,40.9195859 164.439133,41.1559691 M135.480371,23.7129649 C134.548241,20.1873225 132.417747,17.7412444 128.967041,16.4856113 C127.188684,15.8386039 125.340875,15.5492173 123.461385,15.4657521 C118.975588,15.2653138 114.568992,15.8361669 110.227585,16.9340082 C108.955502,17.2556842 107.704134,17.6638716 106.453374,18.0635297 C105.804539,18.2706696 105.750317,18.3876427 105.731431,19.0718134 C105.725339,19.291138 105.728994,19.5104626 105.728994,19.7297871 L105.728994,33.9846652 C105.728994,38.8335657 105.728385,43.6824662 105.728994,48.5313667 C105.729603,49.7193747 105.730822,49.7193747 106.948682,49.7193747 C109.093189,49.719984 111.237696,49.719984 113.381594,49.7193747 C114.57874,49.7193747 114.579349,49.7187655 114.579349,48.4942034 C114.579349,40.818453 114.57874,33.1433118 114.580568,25.4675614 C114.580568,24.5195919 114.7146,24.2929565 115.635763,24.0992198 C116.895051,23.8342026 118.163478,23.5545638 119.441653,23.4534308 C120.572393,23.363264 121.739687,23.3949442 122.858242,23.5752778 C125.013715,23.9231509 126.405208,25.2153381 126.88955,27.3726389 C127.037594,28.0312218 127.094862,28.7233126 127.097908,29.4001726 C127.115576,33.9079016 127.089988,38.4156305 127.121059,42.9233595 C127.127151,43.8408673 127.227675,44.7760428 127.431769,45.6697904 C127.820461,47.3719927 128.705679,48.7774976 130.277505,49.6480943 C131.934015,50.5662112 133.707497,50.6502857 135.526063,50.2987571 C135.853832,50.2353967 136.029292,50.0178998 136.051224,49.6852576 C136.06219,49.515281 136.059753,49.344086 136.059753,49.1735003 C136.060362,42.2538104 136.072547,35.3335112 136.050615,28.4132121 C136.045741,26.831029 135.887949,25.2531107 135.480371,23.7129649 M77.6731181,29.4562222 C78.2007155,27.1332096 79.1803652,25.0642479 81.2736963,23.7507374 C83.2317772,22.5219106 85.3549608,22.3811774 87.5134801,23.1469856 C89.2961013,23.7799807 90.3653086,25.1330914 90.9294601,26.8889064 C91.1512216,27.5785603 91.2748963,28.3053775 91.3845586,29.0242747 C91.5124979,29.8662373 91.305358,30.0855618 90.4640046,30.0879988 C88.4681511,30.0934819 86.4716884,30.0898265 84.4752256,30.0898265 C82.5524803,30.0898265 80.6291258,30.0904357 78.7057712,30.0892173 C78.5114253,30.0892173 78.3134239,30.101402 78.1227334,30.070331 C77.766331,30.0130629 77.5920898,29.8120154 77.6731181,29.4562222 M78.2933192,35.3810315 C78.4876651,35.371893 78.6832295,35.3779854 78.8781847,35.3779854 C81.8012937,35.3773761 84.7250119,35.3773761 87.6487302,35.3773761 C90.6942954,35.3773761 93.7392514,35.3609268 96.7848167,35.3834685 C98.5637825,35.3968716 99.8157602,34.1960697 99.7006148,32.4889935 C99.6220235,31.3241364 99.6201958,30.1525777 99.5178444,28.9901575 C99.3204523,26.7463454 98.8312367,24.5658937 97.8783933,22.5127721 C96.3425121,19.2015805 93.8214981,17.021738 90.2952466,16.0573192 C87.5049508,15.2951663 84.6683531,15.1952518 81.8311462,15.7399078 C76.635591,16.7372253 72.8589439,19.646322 70.6498582,24.442219 C68.4907298,29.1321092 68.2184018,34.0394963 69.5715125,38.9913575 C70.8021669,43.4948218 73.5997736,46.7603209 77.8497962,48.7452081 C80.0393864,49.7687228 82.3636175,50.2908371 84.7591291,50.4370534 C87.4409811,50.6015469 90.1118669,50.4352257 92.7480263,49.8668096 C94.2577103,49.5414781 95.7095171,49.0766319 96.9895196,48.1737458 C99.5062689,46.3996538 99.6920856,43.4527846 98.4005076,41.0913902 C98.1141672,40.5674482 97.9551569,40.5181001 97.3940515,40.7709326 C94.6561499,42.0046333 91.7878721,42.6888041 88.7934826,42.8782761 C86.2078897,43.0409418 83.7435345,42.6485946 81.4735253,41.3393488 C80.0022231,40.4906846 78.8398029,39.334966 78.1257796,37.7765431 C77.9046273,37.2934199 77.7255123,36.7804441 77.6036653,36.2632037 C77.4531843,35.6271624 77.6499671,35.410884 78.2933192,35.3810315 M67.6073392,16.207191 C67.4172579,16.1749015 67.2186473,16.1889139 67.0236921,16.1889139 C65.0991191,16.1883047 63.1745461,16.1883047 61.2499731,16.1883047 C60.6651076,16.1883047 60.0802421,16.2004894 59.4959858,16.186477 C59.1261802,16.1773385 58.894671,16.3308657 58.7801348,16.6769111 C58.7265221,16.8383583 58.6662079,16.9979779 58.6101583,17.1588159 C56.0330947,24.5579737 53.4560311,31.9571314 50.8783582,39.3562892 C50.7985485,39.5853615 50.7321419,39.8241816 50.6188242,40.0368046 C50.5463252,40.172664 50.3623363,40.3822408 50.294102,40.3596991 C50.1387471,40.3085233 49.9840014,40.1562146 49.9029732,40.0051244 C49.7774708,39.7717874 49.7110642,39.5067702 49.6233344,39.2539377 C47.4891845,33.1177239 45.3544255,26.9815101 43.2221033,20.844687 C42.8681379,19.8260462 42.3959808,18.8713752 41.7696874,17.9910307 C39.3187354,14.5415428 35.3355576,15.0545186 32.7968758,16.6653356 C32.4538766,16.8834417 32.3752853,17.1795299 32.5087077,17.5475077 C32.5665851,17.7077365 32.6317732,17.8649191 32.6926967,18.0239294 C33.9794008,21.3881245 35.2654956,24.7529288 36.5534182,28.1165147 C39.2157747,35.070931 41.8793496,42.0253473 44.5435338,48.9785451 C44.8219542,49.7047531 44.8426682,49.7181563 45.5999471,49.719984 C47.1108497,49.7236394 48.621143,49.7212024 50.1314363,49.7212024 C51.6179694,49.7212024 53.1038933,49.7224209 54.5898172,49.7205932 C55.4183767,49.7193747 55.4518846,49.6974423 55.7516281,48.9115293 C59.7640491,38.4083197 63.7752517,27.9051102 67.785845,17.4019006 C67.8638271,17.1971977 67.9539938,16.9943225 68.0033418,16.7823087 C68.0782777,16.4618512 67.9204859,16.2601944 67.6073392,16.207191 M28.0192558,41.1529229 C22.2930571,41.1523137 16.5674675,41.1529229 10.8412688,41.1517044 C10.5732054,41.1517044 10.3027051,41.160843 10.0382972,41.1279443 C9.57588791,41.0694577 9.40408367,40.8879057 9.34072324,40.424278 C9.31757231,40.2567384 9.32366466,40.0843249 9.32366466,39.9137391 C9.32305543,37.4767996 9.32305543,35.0404692 9.32366466,32.6041389 C9.32366466,32.4335531 9.31757231,32.2605304 9.34376941,32.0929908 C9.41383142,31.6427662 9.60574042,31.4740082 10.0748513,31.4453741 C10.2935666,31.431971 10.5135004,31.4405002 10.732825,31.4405002 C15.6060949,31.4405002 20.4787555,31.4405002 25.3520255,31.439891 C25.5469806,31.439891 25.7419358,31.4405002 25.936891,31.4337987 C26.2597854,31.4234417 26.4254973,31.2431081 26.4456021,30.9299614 C26.4602237,30.7112461 26.4620514,30.4913123 26.4620514,30.272597 C26.4632699,28.2986759 26.4638791,26.3253641 26.4626607,24.351443 C26.4620514,23.1683089 26.460833,23.1658719 25.3045051,23.1658719 C20.5049527,23.1652627 15.7047909,23.1658719 10.9046292,23.1646535 C10.6365659,23.1646535 10.3666748,23.1750105 10.1010484,23.1500318 C9.5618755,23.0982469 9.38519738,22.9112117 9.33402165,22.3616819 C9.31635384,22.1679452 9.32305543,21.9717715 9.32305543,21.7768164 C9.32244619,19.4867024 9.32183696,17.1959792 9.32305543,14.9058653 C9.3242739,13.5917456 9.42236071,13.4924403 10.7340434,13.4924403 C16.265287,13.4912218 21.7959214,13.4918311 27.327165,13.4912218 C27.5708589,13.4912218 27.8145529,13.4887849 28.0576376,13.4766002 C28.312907,13.4638063 28.4652158,13.3224638 28.4877575,13.0678036 C28.5066437,12.8496975 28.5090807,12.6297637 28.5090807,12.4110484 C28.5109084,10.3396497 28.5109084,8.26886033 28.5096899,6.19746169 C28.5090807,5.03382305 28.5078622,5.03260458 27.3369127,5.03260458 C20.8552627,5.03214765 14.3742219,5.03214765 7.8925719,5.03260458 C7.62450854,5.03260458 7.35644519,5.0399154 7.08899107,5.04539851 C4.25300265,5.10022965 1.18245879,7.15396047 0.345370044,10.5668943 C0.162599576,11.3132071 0.127873187,12.1094771 0.125436248,12.8832054 C0.107768436,18.6825124 0.115688489,24.4818193 0.115688489,30.280517 C0.115688489,36.3235179 0.115688489,42.3659096 0.116297724,48.4089105 C0.116297724,48.6769738 0.118125429,48.9450372 0.133965536,49.2124913 C0.152242583,49.5250288 0.316126769,49.7065808 0.642067437,49.7145009 C0.788283811,49.7181563 0.934500185,49.719984 1.08071656,49.719984 C8.09849329,49.719984 15.1156608,49.730341 22.1328283,49.7059716 C23.0015972,49.7029254 23.8892525,49.5926539 24.7348705,49.3922156 C26.9646702,48.8640089 28.5096899,47.54136 29.1451219,45.2804893 C29.412576,44.3288644 29.404656,43.3540886 29.3333755,42.3787035 C29.2493011,41.2321234 29.1621805,41.1529229 28.0192558,41.1529229" id="eventbrite" fill="#231F20"></path>
    </g>
</svg>