<?xml version="1.0" encoding="UTF-8"?>
<svg width="193px" height="51px" viewBox="0 0 193 51" version="1.1" xmlns="http://www.w3.org/2000/svg" xmlns:xlink="http://www.w3.org/1999/xlink">
    <title>expedia</title>
    <g id="Logos" stroke="none" stroke-width="1" fill="none" fill-rule="evenodd">
        <path d="M95.9644712,38.2326827 L89.7721307,38.2326827 C89.7329296,38.2326827 89.7329296,38.2326827 89.713329,38.2130822 L84.3832535,31.7072125 L79.053178,38.2130822 C79.0335774,38.2326827 79.0139769,38.2326827 78.9943763,38.2326827 L74.0366316,38.2326827 C73.9974305,38.2326827 73.97783,38.2130822 73.9582294,38.1934816 C73.9582294,38.173881 73.9582294,38.1346799 73.97783,38.1150794 L81.8358191,28.473918 L74.0758327,18.9306798 C74.0562322,18.8914787 74.0562322,18.8718781 74.0562322,18.8327567 C74.0758327,18.8131561 74.0954333,18.7935556 74.1150338,18.7935556 L80.3072947,18.7935556 C80.3268952,18.7935556 80.3464958,18.8131561 80.3660963,18.8327567 L85.049513,24.6330861 L89.8113318,18.8327567 C89.8309324,18.8131561 89.8505329,18.7935556 89.8701335,18.7935556 L94.9062804,18.7935556 C94.9258809,18.7935556 94.965082,18.8131561 94.9846826,18.8327567 C95.0042831,18.8718781 94.9846826,18.8914787 94.965082,18.9306798 L87.6166276,27.7684575 L96.0428734,38.1150794 C96.062474,38.1346799 96.062474,38.173881 96.062474,38.1934816 C96.0232729,38.2326827 96.0036723,38.2326827 95.9644712,38.2326827 M138.42883,29.7280507 C138.409229,29.7476512 138.389629,29.7672518 138.370028,29.7672518 L124.202175,29.7672518 C124.496104,33.0593479 126.632086,34.9406025 130.100587,34.9406025 C132.236489,34.9406025 134.509675,34.2155414 137.703769,32.5106917 C137.76257,32.4714906 137.821372,32.5302923 137.821372,32.5890939 L137.821372,36.9393809 C137.821372,36.9785023 137.801771,36.9981028 137.782171,36.9981028 C134.803604,38.2522992 131.805437,39.1144845 129.453928,39.1144845 C123.35959,39.1144845 118.930901,34.6661948 118.930901,28.5522565 C118.930901,22.4383979 123.35951,17.9901082 129.453928,17.9901082 C135.01913,17.9901082 138.585555,21.7329374 138.585555,26.8866079 C138.585555,27.7292723 138.44843,29.669249 138.42883,29.7280507 M129.453928,22.2031913 C126.710488,22.2031913 124.848834,23.8688399 124.300178,26.7494837 L133.62781,26.7494837 L133.62781,26.5534782 C133.62781,24.2607713 131.92296,22.2031913 129.453928,22.2031913 M164.648179,38.2326827 C164.589377,38.2326827 164.569776,38.2130822 164.569776,38.1542805 L164.569776,18.8522776 C164.569776,18.8131561 164.589377,18.773955 164.628578,18.773955 L169.743127,18.773955 C169.782328,18.773955 169.801929,18.8131561 169.801929,18.8522776 L169.801929,38.1542805 C169.801929,38.2130822 169.762728,38.2326827 169.723527,38.2326827 L164.648179,38.2326827 Z M167.195613,14.7567978 C165.451562,14.7567978 164.040721,13.3654773 164.040721,11.6606276 C164.040721,9.89697623 165.451642,8.46645458 167.195613,8.46645458 C168.939664,8.46645458 170.350585,9.89697623 170.350585,11.6606276 C170.350585,13.3654773 168.939664,14.7567978 167.195613,14.7567978 L167.195613,14.7567978 Z M106.722633,17.9900843 C105.272511,17.9900843 103.822468,18.2448118 102.293944,18.7739471 L97.1989953,18.7739471 C97.1597942,18.7739471 97.1206728,18.8131482 97.1206728,18.8522696 L97.1206728,50.4997524 C98.6491175,50.2841463 100.530292,49.7354902 102.372346,48.4421724 L102.372346,38.820532 C103.626463,38.9969369 104.665053,39.1144606 105.664442,39.1144606 C112.640566,39.1144606 117.147657,34.9405786 117.147657,28.4739101 C117.147657,22.3011701 112.856172,17.9900843 106.722633,17.9900843 M105.331312,35.33251 C104.410325,35.33251 103.469738,35.1953061 102.372346,34.9209781 L102.391947,22.5363768 C103.665664,22.1248448 104.763056,21.9484399 105.860448,21.9484399 C109.407271,21.9484399 111.77838,24.5547556 111.77838,28.4543095 C111.77838,32.6282711 109.250547,35.33251 105.331312,35.33251 M155.340115,8.56444938 L155.340115,18.6563438 C153.850792,18.2252113 152.537873,18.0292854 151.205355,18.0292854 C145.130617,18.0292854 140.564804,22.5950987 140.564804,28.6698359 C140.564804,34.7054517 144.601562,39.0949397 150.166764,39.0949397 C152.08722,39.0949397 153.889993,38.6050056 156.006374,37.5272142 L156.006374,39.271265 C157.397695,38.9969369 159.004542,38.4482011 160.591868,37.3116878 L160.591868,6.48726884 C159.043743,6.70279525 157.201769,7.2319305 155.340115,8.56444938 L155.340115,8.56444938 Z M155.340115,33.7255834 C153.752869,34.5682478 152.322347,34.9601792 150.989828,34.9601792 C147.834856,34.9601792 145.934081,32.7261942 145.934081,28.9833651 C145.934081,24.6722793 148.344391,21.8701173 152.08722,21.8701173 C153.12581,21.8701173 154.125199,22.1248448 155.340115,22.673501 L155.340115,33.7255834 Z M192.787951,18.5387723 C192.787951,18.421169 192.689948,18.3232459 192.572425,18.3232459 L188.437664,18.3232459 C188.320061,18.3232459 188.202458,18.421169 188.202458,18.5387723 L188.202458,19.2442329 L188.104535,19.2442329 C186.203759,18.4015684 184.557631,18.0293173 182.970385,18.0293173 C177.248378,18.0293173 172.760887,22.7714559 172.760887,28.8461931 C172.760887,34.9797319 176.778044,39.0948919 182.754858,39.0948919 C184.342105,39.0948919 186.399685,38.9772886 188.320061,36.7825844 L188.320061,39.2712969 C189.67218,38.9772886 191.279107,38.4090319 192.787951,37.31164 L192.787951,18.5387723 Z M187.536278,33.6864142 C185.988153,34.5682797 184.675235,34.9993325 183.49952,34.9993325 C180.109342,34.9993325 178.091042,32.7654272 178.091042,29.0225981 C178.091042,24.7703139 180.481752,21.9092706 184.028576,21.9092706 C184.969163,21.9092706 186.125357,22.2816014 187.536278,23.0262631 L187.536278,33.6864142 L187.536278,33.6864142 Z M59.888363,33.4120861 L72.7236974,33.4120861 C72.5277715,34.8426077 72.0378374,36.5278569 70.9404454,38.2327066 L57.5956561,38.2327066 C55.9692086,38.2327066 54.6170891,36.9589894 54.4602847,35.3716633 C54.4602847,35.3520628 54.4406842,35.3324622 54.4406842,35.2932611 L54.4406842,9.97532266 C54.4406842,9.95572211 54.4602847,9.93620124 54.4602847,9.91660068 C54.6170891,8.30967406 55.9692086,7.03595684 57.5956561,7.03595684 L72.7040968,7.03595684 C72.508171,8.46647848 72.0182368,10.1909287 70.9012443,11.8957785 L59.888363,11.8957785 L59.888363,18.7934998 L70.8033212,18.7934998 C70.8425224,18.7934998 70.8816438,18.8327009 70.8816438,18.871902 L70.8816438,23.6533214 C70.8816438,23.6925225 70.8424427,23.7317236 70.8033212,23.7317236 L59.888363,23.7317236 L59.888363,33.4120861 Z M45.1522212,15.9771952 C46.8374704,20.7978157 46.9550737,26.2062934 45.1130201,31.359964 C40.8215349,43.3919147 27.6138697,49.6821783 15.5819986,45.390693 C7.68480842,42.5884514 2.27633068,35.9062564 0.689084287,28.2638734 L0.689084287,28.2638734 L20.598545,23.6195782 L28.1233247,21.4640751 L28.7504627,24.1879146 L27.6138697,37.3171775 L29.0051902,36.8664445 L34.3548663,19.6612227 L42.3891807,17.3685157 C43.4081704,17.035386 44.4467607,16.4279282 45.1522212,15.9771952 Z M1.57087013,15.8792163 C5.84275484,3.84734528 19.0700206,-2.44299798 31.0823707,1.84856696 C37.1571079,4.00407003 41.7817229,8.47196026 44.2900359,13.9000386 C43.4865726,13.9000386 42.4087812,13.9588402 41.4681937,14.1939672 L41.4681937,14.1939672 L33.4534799,16.4866741 L19.8342828,4.70953057 L18.4233617,5.06226085 L26.3401524,15.6244888 L27.2611394,18.2503255 L19.6774784,20.4255088 L0.493078759,27.0881032 C-0.0555773655,23.4432768 0.238351249,19.6024449 1.57087013,15.8792163 Z" id="expedia" fill="#231F20"></path>
    </g>
</svg>