<?xml version="1.0" encoding="UTF-8"?>
<svg viewBox="0 0 245 51" version="1.1" xmlns="http://www.w3.org/2000/svg" xmlns:xlink="http://www.w3.org/1999/xlink">
    <title>facebook</title>
    <g id="Logos" stroke="none" stroke-width="1" fill="none" fill-rule="evenodd">
        <path d="M196.249411,24.7658649 C192.773409,24.7658649 191.567147,26.6658834 191.567147,29.0316011 L191.567147,37.6647779 C191.567147,40.0363465 192.773409,41.9422157 196.249411,41.9422157 C199.720682,41.9422157 200.949227,40.0363465 200.949227,37.6647779 L200.949227,29.0316011 C200.949227,26.6658834 199.720682,24.7658649 196.249411,24.7658649 Z M244.817332,50.0081132 L233.72719,50.0081132 L224.347475,34.3503581 L224.347475,50.0081132 L214.112546,50.0081132 L214.112546,3.03011725 L224.347475,1.32305097 L224.347475,31.5657474 L233.72719,16.6988471 L244.817332,16.6988471 L234.577798,32.9228857 L244.817332,50.0081132 Z M211.18179,36.6738753 C211.18179,43.6340948 208.304811,50.3848056 196.284515,50.3848056 C184.256003,50.3848056 181.328733,43.6340948 181.328733,36.6738753 L181.328733,29.9535389 C181.328733,22.9898338 184.256003,16.2378782 196.284515,16.2378782 C208.304811,16.2378782 211.18179,22.9898338 211.18179,29.9535389 L211.18179,36.6738753 Z M178.406068,36.6738753 C178.406068,43.6340948 175.532699,50.3848056 163.510038,50.3848056 C151.481526,50.3848056 148.554255,43.6340948 148.554255,36.6738753 L148.554255,29.9535389 C148.554255,22.9898338 151.481526,16.2378782 163.510038,16.2378782 C175.532699,16.2378782 178.406068,22.9898338 178.406068,29.9535389 L178.406068,36.6738753 Z M145.608187,36.4983511 C145.608187,44.5664893 143.302222,50.4515297 129.332736,50.4515297 C124.287847,50.4515297 121.328957,50.0081132 115.76098,49.1516547 L115.76098,3.03123762 L125.992423,1.32429582 L125.992423,17.4570867 C128.203655,16.635733 131.065446,16.218085 133.669802,16.218085 C143.902366,16.218085 145.607067,20.8054911 145.607067,28.1775078 L145.607067,36.4983511 L145.608187,36.4983511 Z M112.337636,36.3403793 L93.568994,36.3403793 L93.568994,37.0284093 C93.568994,40.9244243 94.9565067,41.9410954 99.5427924,41.9410954 C103.665868,41.9410954 106.182462,41.737562 111.481302,40.8237157 L111.481302,49.1504098 C106.370809,50.1929738 103.707944,50.4667169 98.6945499,50.4667169 C87.7049917,50.4667169 83.3351858,44.6882359 83.3351858,36.3403793 L83.3351858,29.5031513 C83.3351858,22.198979 86.5771553,16.2168401 97.8382158,16.2168401 C109.099152,16.2168401 112.337636,22.1298897 112.337636,29.5031513 L112.337636,36.3403793 Z M80.3084514,25.8609617 C75.0002757,24.9507255 73.4758293,24.7506777 70.9217653,24.7506777 C66.3342348,24.7506777 64.9478425,25.7627428 64.9478425,29.6587578 L64.9478425,37.0284093 C64.9478425,40.9244243 66.3342348,41.9410954 70.9217653,41.9410954 C73.4758293,41.9410954 75.0002757,41.737562 80.3084514,40.8237157 L80.3084514,49.1504098 C75.6589272,50.1928494 72.629952,50.4667169 70.0700372,50.4667169 C59.0815994,50.4667169 54.7141588,44.6881114 54.7141588,36.3403793 L54.7141588,30.3607302 C54.7141588,22.0059024 59.0815994,16.2168401 70.0700372,16.2168401 C72.629952,16.2168401 75.6589272,16.4918281 80.3084514,17.5388735 L80.3084514,25.8609617 Z M51.3012711,50.0723476 L42.7710436,50.0723476 L42.4024427,47.9150182 C38.5076726,50.0723476 35.0316709,50.4222757 32.7384035,50.4222757 C26.4826461,50.4222757 23.1529145,46.2430567 23.1529145,40.4634554 C23.1529145,33.6447756 27.0383483,31.2112134 33.9892314,31.2112134 L41.0639773,31.2112134 L41.0639773,29.737059 C41.0639773,26.2564514 40.665002,25.2350499 35.3123851,25.2350499 L26.5609473,25.2350499 L27.4162855,16.6988471 L36.9819813,16.6988471 C48.7261691,16.6988471 51.3012711,20.4088811 51.3012711,29.8061484 L51.3012711,50.0723476 Z M16.3225332,50.0081132 L6.08760458,50.0081132 L6.08760458,25.2350499 L0.973625885,25.2350499 L0.973625885,16.6988471 L6.08884944,16.6988471 L6.08884944,11.5720464 C6.08884944,4.60722092 8.97516452,0.466716909 17.1789917,0.466716909 L24.0092486,0.466716909 L24.0092486,9.00516044 L19.7400268,9.00516044 C16.5459842,9.00516044 16.3354796,10.1984761 16.3354796,12.4250193 L16.3225332,16.6977267 L24.056055,16.6977267 L23.1516697,25.233805 L16.3225332,25.233805 L16.3225332,50.0081132 Z M163.476053,24.7658649 C159.994201,24.7658649 158.787939,26.6658834 158.787939,29.0316011 L158.787939,37.6647779 C158.787939,40.0363465 159.994201,41.9422157 163.476053,41.9422157 C166.948569,41.9422157 168.164168,40.0363465 168.164168,37.6647779 L168.164168,29.0316011 C168.162923,26.6658834 166.947449,24.7658649 163.476053,24.7658649 L163.476053,24.7658649 Z M33.3854779,40.327642 C33.3854779,42.197286 34.2675804,43.1683955 36.2144053,43.1683955 C38.3028944,43.1683955 39.5395309,42.4874611 41.0639773,41.787854 L41.0639773,38.0450804 L36.4976092,38.0450804 C34.3354248,38.0450804 33.3854779,38.4475412 33.3854779,40.327642 Z M97.8393362,23.9048004 C94.3633344,23.9048004 93.5701144,25.8130349 93.5701144,28.1763874 L93.5701144,29.5042716 L102.103828,29.5042716 L102.103828,28.1763874 C102.103828,25.8130349 101.310607,23.9048004 97.8393362,23.9048004 L97.8393362,23.9048004 Z M131.111132,24.7658649 C129.023888,24.7658649 127.519235,25.4502849 125.993668,26.1476512 L125.993668,41.9259082 C127.454876,42.0650827 128.292662,42.0650827 129.679054,42.0650827 C134.688838,42.0650827 135.375624,39.7708194 135.375624,36.5674404 L135.375624,29.0316011 C135.375624,26.6658834 134.59062,24.7658649 131.111132,24.7658649 Z" id="facebook" fill="#231F20"></path>
    </g>
</svg>