<?xml version="1.0" encoding="UTF-8"?>
<svg viewBox="0 0 301 50" version="1.1" xmlns="http://www.w3.org/2000/svg" xmlns:xlink="http://www.w3.org/1999/xlink">
    <title>fortune</title>
    <g id="Logos" stroke="none" stroke-width="1" fill="none" fill-rule="evenodd">
        <path d="M62.7454514,0.295422881 L63.1761472,0.296710645 C77.3620034,0.449406561 88.8346072,11.4840837 88.7810102,25.1478234 C88.8351486,38.7868407 77.1290576,49.9109625 62.7454514,49.9997843 C48.2386484,49.9109625 36.5325574,38.7868407 36.4141684,25.1478234 C36.5325574,11.3460662 48.2435763,0.226752034 62.7454514,0.295422881 Z M185.230274,1.18332339 C184.435498,1.48198071 180.813617,3.10721585 180.512308,7.38230792 L180.496516,7.69219606 L180.792428,35.2068886 C180.708534,41.8538618 186.201665,45.650604 192.922556,45.5619024 C199.632238,45.6443873 205.056098,41.0708804 205.338996,34.3405342 L205.348477,34.0234791 L205.052684,7.69219606 C205.13937,3.28778812 201.538748,1.56764645 200.394682,1.20634259 L200.318926,1.18332339 L213.928376,1.18332339 C213.099577,1.48214233 209.46862,3.10897515 209.207304,7.38925033 L209.194618,7.69219606 L209.49053,35.5028011 C209.44618,45.5471188 201.275533,50.0194597 191.147322,49.9998495 C181.23441,50.0241023 173.137526,45.6554466 172.812469,35.8510957 L172.804234,35.5028011 L172.804234,7.69219606 C172.93438,3.28778812 169.334631,1.56764645 168.425378,1.20634259 L168.366388,1.18332339 L185.230274,1.18332339 Z M36.7100448,1.18331137 L36.7100448,11.8342376 C35.3630746,8.65917779 32.4719279,5.3526719 29.2592938,5.32150777 L29.0177626,5.32536496 L13.0414934,5.32536496 L13.0414934,21.5975467 L25.7633262,21.5975467 C30.1484707,21.6746006 32.5275325,17.5557092 32.8450937,16.6273738 L32.8639037,16.5678758 L32.8639037,31.0649432 C32.6422561,30.0191944 30.3578193,25.8747847 26.066011,25.7421361 L25.7633262,25.73948 L13.0414934,25.73948 L13.0414934,42.307454 C13.1426789,46.8443514 16.7560703,48.5668877 17.7141174,48.8025475 L17.7752517,48.8163267 L0.615452782,48.8163267 C3.453117,48.0608705 5.39873652,45.4729281 5.3576259,42.558065 L5.34921114,42.307454 L5.34935361,7.38923832 C5.26975463,3.20850441 1.80866869,1.55923202 0.691208345,1.20633057 L0.615452782,1.18331137 L36.7100448,1.18331137 Z M110.383383,1.18328232 C122.395122,1.1587201 126.211696,7.04127274 126.063739,14.2011048 C126.204214,19.7026212 122.011518,24.1291635 116.031725,25.9391955 L115.703798,26.0353204 L125.467107,43.4909117 L125.608023,43.7059906 C126.806188,45.5181613 128.605541,47.801905 131.346705,48.7136669 L131.680187,48.8163748 L119.254146,48.8163748 L107.419811,27.21873 L99.4317361,27.21873 L99.4317361,42.3075021 C99.5136483,46.8443995 103.1219,48.5669358 104.102649,48.8025955 L104.165374,48.8163748 L87.0106234,48.8163748 C89.8383551,48.0465456 91.7771095,45.4672926 91.7514197,42.5576727 L91.7443818,42.3075021 L91.7443818,7.69223212 C91.811804,3.28770671 88.2060378,1.56767717 87.0847447,1.20630648 L87.0106234,1.18328232 L110.383383,1.18328232 Z M165.999533,-5.00998638e-05 L168.662264,11.8341655 L168.070559,11.8341655 C167.029626,8.65369364 162.150666,5.34144202 160.212714,5.32142487 L160.082365,5.32541303 L152.390082,5.32541303 L152.390082,42.3075021 C152.365991,46.8443995 155.971887,48.5669358 157.054041,48.8025955 L157.123841,48.8163748 L139.964162,48.8163748 C140.865665,48.6476147 144.496842,47.0221481 144.690028,42.6124905 L144.6978,42.3075021 L144.6978,5.32541303 L137.005518,5.32541303 C135.15035,5.19045118 130.252769,8.42735204 129.092261,11.6121014 L129.017443,11.8341655 L128.425739,11.8341655 L131.08847,-5.00998638e-05 C131.397458,0.694186956 134.631766,1.22324261 135.976614,1.18945056 L136.118021,1.18335944 L160.969982,1.18335944 C162.148464,1.26220534 165.619846,0.719899439 165.999533,-5.00998638e-05 Z M226.058504,1.18332339 L252.981492,33.4317743 L252.6857,7.69219606 C252.75469,3.18536002 248.982467,1.4890916 247.951941,1.18332339 L261.561392,1.18332339 C260.693486,1.4890916 256.916335,3.18536002 256.827633,7.69219606 L257.123546,48.8163387 L255.052519,48.8163387 L223.987478,11.5383372 L223.691685,42.3074661 C223.785315,46.9474747 227.562466,48.6437431 228.425323,48.8163387 L214.815993,48.8163387 C215.851447,48.6437431 219.62367,46.9474747 219.549632,42.3074661 L219.845544,7.69219606 C219.781482,5.49797256 218.316943,2.03151769 215.703491,1.18332339 L226.058504,1.18332339 Z M62.7454514,3.54990847 C53.2928384,3.49104411 45.6892578,13.1507477 45.5857726,25.1478234 C45.6881451,36.8547893 53.1350102,46.4337556 62.4413323,46.7387004 L62.7454514,46.745348 L63.0424532,46.7388058 C72.1311791,46.4392625 79.520277,37.0633041 79.609063,25.5288528 L79.6091237,24.7697539 C79.5227859,12.9484624 71.9717872,3.49166373 62.7454514,3.54990847 Z M108.307428,4.43779578 L99.4317361,4.43779578 L99.4317361,23.6685013 L108.307428,23.6685013 C113.604045,23.7156166 117.954872,19.4966401 118.070737,14.2011048 C117.975905,8.84871867 113.659814,4.53250701 108.307428,4.43779578 Z M286.413304,45.266062 L282.567163,45.266062 C275.372956,45.6408204 275.254567,42.7857818 275.170794,41.1240084 L275.170794,25.7395642 L287.892626,25.7395642 C292.355112,25.6803096 294.74657,29.9949587 294.993204,31.0649071 L294.993204,16.5679599 C294.74657,17.3618275 292.355112,21.6763565 287.892626,21.5975106 L275.170794,21.5975106 L275.170794,5.3253289 L291.147063,5.3253289 C294.440922,5.18734859 297.443917,8.57976524 298.543433,11.8342016 L298.543433,1.1833955 L262.744753,1.1833955 C263.775399,1.48904353 267.547502,3.18531195 267.478511,7.69226818 L267.478511,42.3075382 C267.547502,46.9475468 263.775399,48.6438153 262.744753,48.8162907 L298.24752,48.8162907 L300.910252,36.3903703 C297.369879,42.1694377 294.633229,45.4041625 286.413304,45.266062" id="fortune" fill="#000000"></path>
    </g>
</svg>