<?xml version="1.0" encoding="UTF-8"?>
<svg viewBox="0 0 149 49" version="1.1" xmlns="http://www.w3.org/2000/svg" xmlns:xlink="http://www.w3.org/1999/xlink">
    <title>google</title>
    <g id="Products" stroke="none" stroke-width="1" fill="none" fill-rule="evenodd">
        <g id="Ulixee-Hero" transform="translate(-312.000000, -2137.000000)" fill="#000000" fill-rule="nonzero">
            <path d="M349.121134,2154.6731 L331.943764,2154.6731 L331.943764,2159.77024 L344.125934,2159.77024 C343.524117,2166.9178 337.577573,2169.96594 331.964361,2169.96594 C324.782847,2169.96594 318.516284,2164.31556 318.516284,2156.39579 C318.516284,2148.6808 324.48996,2142.73915 331.980224,2142.73915 C337.759039,2142.73915 341.16421,2146.42306 341.16421,2146.42306 L344.733117,2142.72725 C344.733117,2142.72725 340.152336,2137.62768 331.797813,2137.62768 C321.160332,2137.62768 312.930192,2146.60659 312.930192,2156.30496 C312.930192,2165.80825 320.672073,2175.07543 332.069445,2175.07543 C342.09407,2175.07543 349.432178,2168.20816 349.432178,2158.05373 C349.432178,2155.91133 349.121134,2154.6731 349.121134,2154.6731 Z M363.192433,2150.98216 C356.144227,2150.98216 351.093091,2156.49241 351.093091,2162.91904 C351.093091,2169.44069 355.992404,2175.05342 363.275262,2175.05342 C369.868225,2175.05342 375.269476,2170.01429 375.269476,2163.05921 C375.269476,2155.08769 368.986564,2150.98216 363.192433,2150.98216 L363.192433,2150.98216 Z M363.262519,2155.70976 C366.728649,2155.70976 370.013048,2158.51193 370.013048,2163.02735 C370.013048,2167.44697 366.742456,2170.32901 363.24659,2170.32901 C359.405313,2170.32901 356.375006,2167.25254 356.375006,2162.99231 C356.375006,2158.82344 359.367739,2155.70976 363.262519,2155.70976 L363.262519,2155.70976 Z M389.507874,2150.98216 C382.459667,2150.98216 377.408531,2156.49241 377.408531,2162.91904 C377.408531,2169.44069 382.307845,2175.05342 389.590702,2175.05342 C396.183664,2175.05342 401.584916,2170.01429 401.584916,2163.05921 C401.584916,2155.08769 395.302004,2150.98216 389.507874,2150.98216 Z M389.577958,2155.70976 C393.044088,2155.70976 396.328487,2158.51193 396.328487,2163.02735 C396.328487,2167.44697 393.057897,2170.32901 389.562031,2170.32901 C385.720752,2170.32901 382.690445,2167.25254 382.690445,2162.99231 C382.690445,2158.82344 385.683178,2155.70976 389.577958,2155.70976 L389.577958,2155.70976 Z M415.317094,2150.99491 C408.847613,2150.99491 403.762504,2156.66118 403.762504,2163.02098 C403.762504,2170.26538 409.657967,2175.06935 415.205589,2175.06935 C418.635844,2175.06935 420.459826,2173.70772 421.806389,2172.14486 L421.806389,2174.51822 C421.806389,2178.67068 419.285087,2181.15725 415.479561,2181.15725 C411.803216,2181.15725 409.959186,2178.42363 409.31839,2176.87246 L404.692732,2178.80619 C406.333741,2182.27587 409.637011,2185.89441 415.517789,2185.89441 C421.950017,2185.89441 426.85256,2181.84286 426.85256,2173.34588 L426.85256,2151.71806 L421.806389,2151.71806 L421.806389,2153.75692 C420.255859,2152.08505 418.134112,2150.99491 415.317094,2150.99491 Z M415.785389,2155.71295 C418.95725,2155.71295 422.214161,2158.42125 422.214161,2163.04646 C422.214161,2167.74759 418.964191,2170.33856 415.715304,2170.33856 C412.266291,2170.33856 409.057161,2167.53804 409.057161,2163.09106 C409.057161,2158.47026 412.390142,2155.71295 415.785389,2155.71295 L415.785389,2155.71295 Z M449.28955,2150.96623 C443.186976,2150.96623 438.063094,2155.82153 438.063094,2162.98594 C438.063094,2170.56682 443.774452,2175.06298 449.875722,2175.06298 C454.96801,2175.06298 458.09339,2172.27713 459.958509,2169.78106 L455.797952,2167.01268 C454.718319,2168.68819 452.913414,2170.32582 449.901207,2170.32582 C446.517632,2170.32582 444.961903,2168.47306 443.998073,2166.67818 L460.136896,2159.98181 L459.299056,2158.01941 C457.739342,2154.17628 454.102181,2150.96623 449.28955,2150.96623 L449.28955,2150.96623 Z M449.499797,2155.59508 C451.698797,2155.59508 453.281357,2156.76422 453.953436,2158.16595 L443.17616,2162.67055 C442.711525,2159.18305 446.015462,2155.59508 449.499797,2155.59508 Z M430.369589,2174.34807 L435.670618,2174.34807 L435.670618,2138.87196 L430.369589,2138.87196 L430.369589,2174.34807 Z" id="google"></path>
        </g>
    </g>
</svg>