<?xml version="1.0" encoding="UTF-8"?>
<svg viewBox="0 0 136 51" version="1.1" xmlns="http://www.w3.org/2000/svg" xmlns:xlink="http://www.w3.org/1999/xlink">
    <title>hubspot</title>
    <g id="Logos" stroke="none" stroke-width="1" fill="none" fill-rule="evenodd">
        <path d="M14.7115335,12.6416794 L14.7115335,22.3582875 L5.18611128,22.3582875 L5.18611128,12.6416794 L0.457267357,12.6416794 L0.457267357,37.0348011 L5.18611128,37.0348011 L5.18611128,26.8604397 L14.7115335,26.8604397 L14.7115335,37.0348011 L19.439285,37.0348011 L19.439285,12.6416794 L14.7115335,12.6416794 Z M51.3030733,33.0308245 C48.5221394,33.0308245 46.1929503,30.5661665 46.1929503,27.5661884 C46.1929503,24.530158 48.487726,22.1015523 51.3030733,22.1015523 C54.0151803,22.1015523 56.3443694,24.6017162 56.3443694,27.5306824 C56.3443694,30.5306606 54.0495937,33.0308245 51.3030733,33.0308245 M51.5466986,18.0298412 C49.4256288,18.0298412 47.7918097,18.7443298 46.470989,20.315877 L46.470989,12.2085071 L42.3337286,12.2085071 L42.3337286,24.530158 C42.3337286,28.6734272 42.3686882,29.1732415 42.9597255,30.959463 C44.1417999,34.6023716 47.5487306,37.1019893 51.3729927,37.1019893 C56.5879947,37.1019893 60.6203761,32.9237604 60.6203761,27.5661884 C60.6203761,22.3156804 56.5524888,18.0298412 51.5466986,18.0298412 M87.9876386,0.110707348 C90.6128926,0.110707348 92.7416098,2.2388783 92.7416098,4.86467855 C92.7416098,5.40780226 92.6485029,5.92885321 92.4801766,6.41475973 L92.3898279,6.65472378 L107.249334,17.8265288 C108.396945,17.1908981 109.665091,16.7502905 111.010681,16.5412317 L111.416638,16.485497 L111.416638,11.0427108 C109.79429,10.4128901 108.642805,8.84079671 108.642805,6.99558073 C108.642805,4.5964722 110.587984,2.65129336 112.987092,2.65129336 C115.386747,2.65129336 117.33138,4.5964722 117.33138,6.99558073 C117.33138,8.92132885 116.077315,10.5504492 114.342553,11.1198579 L114.147863,11.1787258 L114.147863,16.485497 C119.817887,17.1617485 124.216799,21.9790841 124.216799,27.831008 C124.216799,34.1456015 119.09739,39.2650107 112.78225,39.2650107 C111.686847,39.2650107 110.628993,39.1066131 109.626335,38.8182076 L109.252961,38.7040169 L105.59585,44.5242586 C106.039947,45.1087409 106.307061,45.8363394 106.307061,46.626756 C106.307061,48.5506313 104.746985,50.1107073 102.82311,50.1107073 C100.899234,50.1107073 99.3397045,48.5506313 99.3397045,46.626756 C99.3397045,44.7028807 100.899234,43.143351 102.82311,43.143351 L103.024401,43.1499059 L103.024401,43.1499059 L103.222415,43.167932 L106.760444,37.5372374 C103.515202,35.5199542 101.348248,31.9327625 101.348248,27.831008 C101.348248,24.6674294 102.639899,21.8111451 104.716766,19.7416537 L104.950734,19.5149724 L90.6768033,8.78344098 C89.9120601,9.30947502 88.9861746,9.61864975 87.9876386,9.61864975 C85.3618383,9.61864975 83.2331211,7.4904788 83.2331211,4.86467855 C83.2331211,2.2388783 85.3618383,0.110707348 87.9876386,0.110707348 Z M89.8134082,18.1434602 C95.0284103,18.1434602 99.0607917,22.3222353 99.0607917,27.6792611 C99.0607917,32.9297691 94.9929044,37.2156083 89.9871142,37.2156083 C87.967568,37.2156083 86.3889815,36.567546 85.1022449,35.1482643 L84.9114046,34.9295725 L84.9114046,43.0369424 L80.7741441,43.0369424 L80.7742481,30.3590388 C80.7766816,26.5415086 80.8264873,26.0196721 81.400141,24.2859865 C82.5822155,20.6430778 85.9891462,18.1434602 89.8134082,18.1434602 Z M112.946124,21.1755576 C109.256784,21.1755576 106.265546,24.1667958 106.265546,27.8561353 C106.265546,31.5454748 109.256784,34.536713 112.946124,34.536713 C116.63601,34.536713 119.626155,31.5454748 119.626155,27.8561353 C119.626155,24.1667958 116.63601,21.1755576 112.946124,21.1755576 Z M89.7434889,22.214625 C86.962555,22.214625 84.6333659,24.679283 84.6333659,27.6792611 C84.6333659,30.7152914 86.9281416,33.1444434 89.7434889,33.1444434 C92.4555958,33.1444434 94.784785,30.6437333 94.784785,27.714767 C94.784785,24.7147889 92.4900093,22.214625 89.7434889,22.214625 Z M71.3781274,22.2715438 L69.2701675,21.5483152 C68.14818,21.1501025 67.4347839,20.2815728 67.4347839,19.1961838 C67.4347839,17.7491805 68.658373,16.7358958 70.5276237,16.7358958 C71.9560547,16.7358958 72.8398793,17.1701607 74.1312027,18.4363568 L74.6069822,18.9066739 L77.7009145,15.6865589 C75.2870574,12.8286045 73.8253055,12.1048298 70.3921549,12.1048298 C65.9386185,12.1048298 62.7092175,15.1801897 62.7092175,19.4135893 C62.7092175,22.7052624 64.5790145,25.1294982 68.0804456,26.32359 L69.8825083,26.938662 C72.4995686,27.8437901 73.2129647,28.5304202 73.2129647,29.978516 C73.2129647,31.6423786 71.8539069,32.7638199 69.8825083,32.7638199 C68.0127112,32.7638199 66.6525609,31.9673945 65.326824,30.0866726 L62.233438,33.4509962 C64.7150295,36.5990068 66.3466636,37.4309381 69.9841098,37.4309381 C74.5736613,37.4309381 77.9390774,34.2474216 77.9390774,29.8698133 C77.9390774,26.1067307 75.9671325,23.8272498 71.3781274,22.2715438 M134.43639,33.1492504 C131.65491,33.1492504 130.785288,32.417282 130.785288,30.0017861 L130.785288,23.0109411 L134.923094,23.0109411 L134.923094,18.9851147 L130.785288,18.9851147 L130.785288,13.784315 L126.648027,15.9436219 L126.648027,30.0017861 C126.648027,35.1987621 128.630351,37.4312658 133.21881,37.4312658 C133.774887,37.4312658 134.053472,37.3946674 134.923094,37.358069 L136.034703,32.9662583 C135.270506,33.1131982 134.956961,33.1492504 134.43639,33.1492504 M34.6628631,29.3409934 C34.6628631,31.452777 32.9509309,33.1647091 30.8391473,33.1647091 L30.6343054,33.1647091 C28.5225218,33.1647091 26.8105896,31.452777 26.8105896,29.3409934 L26.8105896,18.6209331 L22.5089094,18.6209331 L22.5089094,29.4546123 C22.5089094,33.6781795 25.9327737,37.1020439 30.1563409,37.1020439 L31.1805505,37.1020439 C35.4041177,37.1020439 38.8279821,33.6781795 38.8279821,29.4546123 L38.8279821,18.6209331 L34.6628631,18.6209331 L34.6628631,29.3409934 Z" id="hubspot" fill="#231F20"></path>
    </g>
</svg>