<?xml version="1.0" encoding="UTF-8"?>
<svg width="183px" height="51px" viewBox="0 0 183 51" version="1.1" xmlns="http://www.w3.org/2000/svg" xmlns:xlink="http://www.w3.org/1999/xlink">
    <title>indeed</title>
    <g id="Logos" stroke="none" stroke-width="1" fill="none" fill-rule="evenodd">
        <path d="M174.313749,40.7800113 C173.642543,42.217886 172.750748,43.2833479 171.661016,43.9774757 C170.543238,44.6724125 169.328379,45.0186674 167.990552,45.0186674 L167.965742,45.0186674 C166.627106,45.0186674 165.411438,44.6476029 164.295548,43.9289353 C163.179119,43.1851884 162.288403,42.0932989 161.643085,40.6562333 C160.998306,39.1938187 160.675782,37.4331503 160.675782,35.3494186 C160.675782,33.3894649 160.972958,31.6554938 161.591578,30.1917309 C162.187277,28.7047764 163.05642,27.5629982 164.146421,26.7690929 C165.262311,25.9530748 166.50117,25.5803924 167.915045,25.5803924 L167.990552,25.5803924 C169.305997,25.5803924 170.519237,25.9776147 171.635667,26.7467104 C172.750748,27.5149972 173.642543,28.6300782 174.313749,30.093841 C174.982258,31.5562556 175.304243,33.316115 175.304243,35.3494186 C175.304243,37.5310402 174.982258,39.3421366 174.313749,40.7800113 M182.023583,9.58740746 C181.379344,8.84285157 180.51101,8.47205681 179.346849,8.47205681 C178.18134,8.47205681 177.287658,8.86847012 176.668767,9.68745463 C176.047989,10.4800116 175.725196,11.6708695 175.725196,13.2336009 L175.725196,24.5386613 C174.28813,22.9516597 172.800097,21.8117692 171.286176,21.0426735 C170.345571,20.5710225 169.23049,20.224498 167.990552,20.0508312 C167.271615,19.9518627 166.527059,19.9017043 165.708074,19.9017043 C161.914641,19.9017043 158.841225,21.2416891 156.485397,23.9189621 C154.155458,26.5967745 152.98914,30.3155089 152.98914,35.1026715 C152.98914,37.358452 153.288472,39.4653753 153.882553,41.4007891 C154.475824,43.3343153 155.318809,45.0186674 156.460588,46.456542 C157.602366,47.895765 158.963654,48.9863062 160.526656,49.7820991 C162.089387,50.5493072 163.775357,50.9454508 165.610724,50.9454508 C166.453439,50.9454508 167.245726,50.8710222 167.990552,50.7227043 C168.485934,50.6482757 168.957854,50.5236887 169.429505,50.3745617 C170.593936,49.9781484 171.683668,49.4080683 172.676319,48.691558 C173.692701,47.9456538 174.710971,46.9794301 175.725196,45.813921 L175.725196,46.5576679 C175.725196,47.9710027 176.073338,49.0367342 176.743466,49.8036726 C177.436784,50.5493072 178.305118,50.9454508 179.346849,50.9454508 C180.412042,50.9454508 181.281185,50.5743864 181.950233,49.8543704 C182.619012,49.1100842 182.967694,48.0195431 182.967694,46.5576679 L182.967694,12.8361089 C182.967694,11.4227741 182.643822,10.3308847 182.023583,9.58740746 M132.779989,27.093262 C133.996466,25.779435 135.559197,25.1338476 137.467913,25.1338476 L137.492723,25.1338476 C139.476677,25.1338476 141.086601,25.779435 142.30092,27.0687221 C143.517936,28.3574698 144.238491,30.3155359 144.408652,32.9442685 L130.548479,32.9442685 C130.797383,30.3646156 131.541939,28.4073586 132.779989,27.093262 M150.633689,41.1017533 C150.162039,40.6821484 149.518608,40.4572446 148.722815,40.4572446 C148.002799,40.4572446 147.458608,40.6317203 147.061385,40.953705 C146.09624,41.8463092 145.328223,42.5641678 144.731446,43.0854378 C144.138174,43.5816287 143.467238,44.0770105 142.748031,44.5492007 C142.053633,44.9963118 141.311235,45.341488 140.567758,45.5415824 C139.797314,45.7640592 138.979408,45.8632974 138.063612,45.8632974 C137.864057,45.8632974 137.66612,45.8632974 137.492723,45.8387575 C136.352293,45.7640592 135.286292,45.4404565 134.320338,44.8471849 C133.17856,44.1759789 132.284338,43.1852153 131.591019,41.8964676 C130.92224,40.5564827 130.573828,39.0204486 130.548479,37.2840504 L145.502699,37.2840504 C147.509845,37.2840504 149.071497,36.9868752 150.162039,36.441335 C151.278468,35.845097 151.82266,34.606238 151.82266,32.6961731 C151.82266,30.6156774 151.278468,28.5810254 150.213276,26.5722616 C149.144038,24.5896557 147.558655,22.9516867 145.401573,21.6882878 C143.269301,20.4240799 140.715536,19.8038414 137.71493,19.8038414 L137.492723,19.8038414 C135.286292,19.8283813 133.25164,20.1999851 131.441892,20.8943825 C129.558524,21.6389384 127.971523,22.7033216 126.656078,24.068925 C125.3916,25.4558323 124.400027,27.1186108 123.730709,29.052946 C123.060852,30.9853935 122.714866,33.0933954 122.714866,35.3494456 C122.714866,40.1597997 124.078852,43.9289622 126.805204,46.7313616 C129.384857,49.3849038 132.953656,50.7720807 137.492723,50.9209379 C137.740818,50.9454778 138.012105,50.9454778 138.28501,50.9454778 C140.418631,50.9454778 142.327347,50.6733819 143.987969,50.1016838 C145.649668,49.5318733 147.014193,48.8385546 148.105274,47.9947605 C149.194736,47.1277749 150.012912,46.2349011 150.558452,45.3177572 C151.103992,44.3995345 151.376627,43.5816287 151.376627,42.9115014 C151.376627,42.1426753 151.131498,41.5237851 150.633689,41.1017533 M102.158086,27.093262 C103.374832,25.779435 104.937293,25.1338476 106.843853,25.1338476 L106.87082,25.1338476 C108.851807,25.1338476 110.464697,25.779435 111.679016,27.0687221 C112.92192,28.3574698 113.613352,30.3155359 113.812637,32.9442685 L99.9265752,32.9442685 C100.198132,30.3646156 100.943766,28.4073586 102.158086,27.093262 M118.1268,40.4572446 C117.384402,40.4572446 116.836704,40.6317203 116.44056,40.953705 C115.499146,41.8463092 114.705241,42.5641678 114.109812,43.0854378 C113.51654,43.5816287 112.870953,44.0770105 112.152016,44.5492007 C111.432,44.9963118 110.713062,45.341488 109.945854,45.5415824 C109.200489,45.7640592 108.357504,45.8632974 107.441439,45.8632974 C107.242423,45.8632974 107.044217,45.8632974 106.87082,45.8387575 C105.73012,45.7640592 104.662231,45.4404565 103.697625,44.8471849 C102.581735,44.1759789 101.662973,43.1852153 100.994734,41.8964676 C100.299527,40.5564827 99.9508454,39.0204486 99.9265752,37.2840504 L114.903717,37.2840504 C116.887132,37.2840504 118.450673,36.9868752 119.564945,36.441335 C120.655755,35.845097 121.201026,34.606238 121.201026,32.6961731 C121.201026,30.6156774 120.680835,28.5810254 119.615642,26.5722616 C118.548562,24.5896557 116.937021,22.9516867 114.804479,21.6882878 C112.671668,20.4240799 110.094981,19.8038414 107.118645,19.8038414 L106.87082,19.8038414 C104.662231,19.8283813 102.655625,20.1999851 100.820528,20.8943825 C98.9358116,21.6389384 97.34881,22.7033216 96.0587139,24.068925 C94.7699661,25.4558323 93.7773149,27.1186108 93.1079966,29.052946 C92.438139,30.9853935 92.0908054,33.0933954 92.0908054,35.3494456 C92.0908054,40.1597997 93.480679,43.9289622 96.2070318,46.7313616 C98.7866847,49.3849038 102.331483,50.7720807 106.87082,50.9209379 C107.143185,50.9454778 107.390741,50.9454778 107.663107,50.9454778 C109.821267,50.9454778 111.704635,50.6733819 113.366065,50.1016838 C115.026956,49.5318733 116.392829,48.8385546 117.48337,47.9947605 C118.598451,47.1277749 119.391278,46.2349011 119.936548,45.3177572 C120.483167,44.3995345 120.754724,43.5816287 120.754724,42.9115014 C120.754724,42.1426753 120.506628,41.5237851 120.036865,41.1017533 C119.540405,40.6821484 118.896975,40.4572446 118.1268,40.4572446 M24.721469,25.8297282 L24.721469,45.8631625 C24.721469,47.5739422 24.3261343,48.8384197 23.5570386,49.6808654 C22.7890215,50.5235808 21.7718303,50.9456126 20.5318926,50.9456126 C19.3175735,50.9456126 18.3513498,50.5235808 17.5555568,49.6560559 C16.7886184,48.8138798 16.3913961,47.549672 16.3913961,45.8631625 L16.3913961,27.6127791 C16.9123964,27.6629375 17.4075085,27.6885561 17.9295876,27.6885561 C20.4083843,27.6885561 22.7380541,27.0173502 24.721469,25.8297282 Z M46.8904114,19.8529751 C48.8978269,19.8529751 50.7073053,20.2981985 52.2943069,21.1673414 C53.8826568,22.0354056 55.0468175,23.2742647 55.8418015,24.8858061 C56.3622625,25.830726 56.6834382,26.8438721 56.8322955,27.9357616 C56.9803437,29.0020325 57.0561207,30.3908274 57.0561207,32.0759885 L57.0561207,46.2851135 C57.0561207,47.8219567 56.6834382,48.9861174 55.9909284,49.7568312 C55.294913,50.5491184 54.3780386,50.9455317 53.2616093,50.9455317 C52.1219885,50.9455317 51.2045748,50.5491184 50.4859071,49.7309429 C49.7658911,48.9362286 49.4185575,47.7717982 49.4185575,46.2851135 L49.4185575,33.5651003 C49.4185575,31.0345271 49.072033,29.1020797 48.3776355,27.7620948 C47.6821594,26.425346 46.2688246,25.753331 44.1872502,25.753331 C42.8238041,25.753331 41.5835968,26.1750932 40.4671675,26.9695379 C39.3510078,27.7874437 38.5085621,28.903064 37.9886404,30.3409387 C37.616767,31.4805595 37.4422912,33.5888311 37.4422912,36.7385641 L37.4422912,46.2851135 C37.4422912,47.8456875 37.0714964,48.9861174 36.3525591,49.78218 C35.6322734,50.5491184 34.7162081,50.9455317 33.5744299,50.9455317 C32.4590792,50.9455317 31.5653964,50.5491184 30.8475378,49.7309429 C30.1272521,48.9362286 29.7801882,47.7717982 29.7801882,46.2851135 L29.7801882,24.1916783 C29.7801882,22.7287244 30.1040606,21.6389923 30.7472209,20.9443252 C31.3674595,20.2245789 32.2363327,19.8529751 33.352762,19.8529751 C34.0196533,19.8529751 34.6172396,20.002102 35.1614315,20.3235474 C35.7069717,20.646341 36.1521951,21.117183 36.4757978,21.7627704 C36.7985915,22.4059307 36.9479881,23.1750265 36.9479881,24.0679003 L36.9479881,25.0095842 C38.3103554,23.2243759 39.7749273,21.9364372 41.3600412,21.0939915 C42.9707737,20.2744676 44.808028,19.8529751 46.8904114,19.8529751 Z M31.8902127,4.18132768 C32.7070398,4.95042343 33.6489933,5.91772585 34.0197881,7.0573467 C34.4679779,8.49656972 32.4589444,6.91037714 32.1865788,6.71136147 C30.7473558,5.76859893 29.3081328,4.97685099 27.6987487,4.43077143 C19.0202635,1.75376807 10.81289,6.58650476 5.70401231,14.1008292 C3.5714705,17.4220716 2.18456325,20.9191381 1.04386372,24.7632686 C0.919276684,25.1844914 0.819229515,25.7294923 0.596482988,26.1013657 C0.372657785,26.5231279 0.498323501,24.9595875 0.498323501,24.9115865 C0.671181278,23.3243152 0.993705305,21.785854 1.39092762,20.2503592 C3.74621596,12.0661772 8.95298344,5.24867726 16.4414196,2.12348416 C21.5982984,0.264656303 27.4749235,0.364703472 31.8902127,4.18132768 Z M25.9134325,13.9769433 C27.4996251,17.0746302 26.2596874,20.8688718 23.1598432,22.4318729 C20.0610777,24.0188745 16.266836,22.7800155 14.706262,19.6793622 C13.117912,16.579518 14.3570407,12.7852763 17.4576939,11.2236236 C20.5575382,9.63850972 24.3517798,10.8773687 25.9134325,13.9769433 Z M80.7346697,40.7800113 C80.0656212,42.217886 79.1732867,43.2833479 78.0565877,43.9774757 C76.9668556,44.6724125 75.7261089,45.0186674 74.4114729,45.0186674 L74.3880117,45.0186674 C73.0488359,45.0186674 71.8326291,44.6476029 70.7183571,43.9289353 C69.5776576,43.1851884 68.7104023,42.0932989 68.0648149,40.6562333 C67.4205759,39.1938187 67.0980519,37.4331503 67.0980519,35.3494186 C67.0980519,33.3894649 67.3946877,31.6554938 67.9903863,30.1917309 C68.6103552,28.7047764 69.4530705,27.5629982 70.5684212,26.7690929 C71.6603106,25.9530748 72.9245185,25.5803924 74.3135831,25.5803924 L74.4114729,25.5803924 C75.7261089,25.5803924 76.9415067,25.9776147 78.0333962,26.7467104 C79.1732867,27.5149972 80.0656212,28.6300782 80.7346697,30.093841 C81.3794481,31.5562556 81.727321,33.316115 81.727321,35.3494186 C81.727321,37.5310402 81.3794481,39.3421366 80.7346697,40.7800113 M88.4213126,9.58740746 C87.7778826,8.84285157 86.8852784,8.47205681 85.7688491,8.47205681 C84.6036097,8.47205681 83.7085786,8.86847012 83.0907671,9.68637595 C82.4451797,10.4800116 82.1501619,11.6708695 82.1501619,13.2336009 L82.1501619,24.5386613 C80.7101299,22.9516597 79.2237148,21.8117692 77.7106025,21.0426735 C76.7433001,20.5710225 75.6522196,20.224498 74.4114729,20.0508312 C73.6936143,19.9518627 72.9501371,19.9017043 72.1306132,19.9017043 C68.3374502,19.9017043 65.2378757,21.2416891 62.9071272,23.9189621 C60.5777271,26.5967745 59.412218,30.3155089 59.412218,35.1026715 C59.412218,37.358452 59.7093932,39.4653753 60.2783946,41.4007891 C60.8746325,43.3343153 61.7418878,45.0186674 62.8825873,46.456542 C64.0235565,47.895765 65.3870026,48.9863062 66.9486553,49.7820991 C68.511117,50.5493072 70.1965477,50.9454508 72.0329931,50.9454508 C72.8498202,50.9454508 73.6434559,50.8710222 74.4114729,50.7227043 C74.9079334,50.6482757 75.3787753,50.5236887 75.8496173,50.3745617 C77.016205,49.9781484 78.1067461,49.4080683 79.0985884,48.691558 C80.1147009,47.9456538 81.1073522,46.9794301 82.1501619,45.813921 L82.1501619,46.5576679 C82.1501619,47.9710027 82.4953381,49.0367342 83.1651957,49.8036726 C83.834514,50.5493072 84.7268484,50.9454508 85.7688491,50.9454508 C86.7852313,50.9454508 87.6775657,50.5743864 88.346884,49.8543704 C89.0167416,49.1100842 89.3403443,48.0195431 89.3403443,46.5576679 L89.3403443,12.8361089 C89.3403443,11.4227741 89.0399331,10.3308847 88.4213126,9.58740746" id="indeed" fill="#000000"></path>
    </g>
</svg>