<?xml version="1.0" encoding="UTF-8"?>
<svg width="179px" height="51px" viewBox="0 0 179 51" version="1.1" xmlns="http://www.w3.org/2000/svg" xmlns:xlink="http://www.w3.org/1999/xlink">
    <title>instagram</title>
    <g id="Logos" stroke="none" stroke-width="1" fill="none" fill-rule="evenodd">
        <path d="M102.413831,36.4130393 L102.413831,38.891369 C102.413831,47.1151171 100.222503,48.5188192 98.4616777,48.5188192 C97.7944623,48.5188192 96.1602097,48.0148662 96.1602097,45.9803551 C96.1602097,43.136332 99.1336386,39.9009749 100.057611,38.9012852 L102.413831,36.4130393 Z M98.878156,15.3651571 C100.966568,15.3651571 101.8904,17.5176703 101.8904,21.6908828 C101.8904,27.982752 100.020072,31.5652452 97.7485647,31.5652452 C96.2984691,31.5652452 94.6310682,29.1841646 94.7189678,24.5010494 C94.7189678,21.5067257 95.6952838,15.3651571 98.8782269,15.3651571 L98.878156,15.3651571 Z M135.430438,15.3351961 C137.030692,15.3351961 138.654533,16.7946412 138.654533,21.972714 C138.654533,28.4923714 136.279331,31.5256514 134.452917,31.5256514 C132.740681,31.5256514 131.440745,29.1088727 131.440745,24.3617275 C131.440886,19.5633016 132.710225,15.3351961 135.430438,15.3351961 Z M77.8004545,15.3351961 C79.4007089,15.3351961 81.0244788,16.7946412 81.0244788,21.972714 C81.0244788,28.4923714 78.6493479,31.5256514 76.8229344,31.5256514 C75.1106983,31.5256514 73.8109033,29.1088727 73.8109033,24.3617275 C73.8109033,19.5633016 75.0801707,15.3351961 77.8004545,15.3351961 Z M59.6354101,0.733166723 C58.8372307,0.733166723 58.4960442,1.15042423 58.458292,2.4415072 L58.2812179,7.78744632 L53.6058231,7.6254589 C53.3222212,7.61816344 53.1940903,7.70783379 53.0699968,7.95708335 C52.6729257,8.70150303 52.4639782,9.28485608 52.4639782,10.256214 C52.4639782,11.0470979 52.8225179,11.131456 53.1423138,11.131456 L58.0068238,11.2711321 L57.9918787,21.484556 C57.9918787,23.6507394 56.6249372,26.460906 54.1994465,28.798143 C54.1994465,28.798143 54.4080398,28.0924672 54.3962112,27.3520848 C54.3962112,25.2564477 53.0474729,23.357363 51.2494621,22.0134411 L46.8608566,18.712 C47.7807922,17.6477844 49.3393988,15.5370607 49.3393988,13.754774 C49.3393988,12.3729583 48.4704605,11.7924384 46.850728,11.7924384 C44.5647717,11.7924384 41.9136176,13.886163 41.9136176,16.991406 C41.9136176,18.1233347 42.4171456,19.1421485 43.1827434,19.9213455 C42.1257524,21.9268164 40.6302551,24.5653628 39.5197877,26.4444027 C38.6810229,27.8831655 37.2621633,30.0874552 36.4226902,30.0874552 C35.8037098,30.0874552 35.5176288,29.1136183 35.5176288,25.3721834 C35.5176288,22.2637531 35.7384757,18.8841161 35.8492533,15.640047 C35.8492533,14.8964772 35.7273555,14.210492 34.7620181,13.5380353 C33.8739558,12.9690606 32.7773003,12.1744227 31.6477089,12.1744227 C29.1364435,12.1744227 27.4255531,14.4852403 26.2519766,16.7448479 C25.0374604,19.0866889 24.3807279,21.0602156 23.454276,23.9235044 L23.556554,14.0692577 C23.5880732,13.3666275 23.4106449,13.0937917 22.8483991,12.8547416 C22.1189953,12.5454285 21.0454302,12.1888012 20.0930546,12.1888012 C19.2972126,12.1888012 19.2003885,12.5319 19.2003885,13.3681858 L19.0933649,25.1924885 L19.0811113,29.7529976 C19.0811113,33.8646591 19.5960429,34.5502902 22.0359121,34.5502902 C23.3867045,34.5502902 23.8194028,34.3916318 23.8461765,33.2687692 C23.8832204,32.5261203 24.2384311,30.7268346 24.7189395,28.9223782 C26.1244123,23.5963422 27.7896176,19.3837484 30.660981,16.1730401 C30.9603071,15.8614605 31.1918493,15.9729464 31.1446767,16.4147818 C31.1446767,16.4147818 30.6907294,23.6227617 30.6907294,26.5709753 C30.6907294,31.8144239 31.4975501,34.5505027 34.1065604,34.5505027 C36.6671233,34.5505027 39.1819303,31.260536 40.5547507,29.0395305 L44.9585845,21.6736712 C47.8121697,24.1052533 49.8034038,25.9904554 49.8034038,28.2839197 C49.8034038,29.7093665 48.9040089,31.1040025 47.5340925,31.1040025 C45.821998,31.1040025 44.7281757,29.2984837 43.5717399,29.2984837 C42.6119272,29.2984837 41.3800578,31.1515292 41.3800578,32.2036329 C41.3800578,33.1970188 43.5476578,34.6022084 47.4369142,34.6022084 C53.1782953,34.6022084 56.2581812,30.6620962 58.1065519,26.2989186 C58.4603461,31.4774872 60.5237556,34.5024094 63.7419719,34.5024094 C65.8528373,34.5024094 68.292494,31.8355312 69.4023238,28.577792 C69.4023238,28.577792 69.5118265,29.423498 70.3546286,31.1561331 C71.5147475,33.4187156 73.2784059,34.4575742 75.4690964,34.4575742 C78.1937716,34.4575742 80.5242798,32.8057558 81.9471059,30.0341205 C82.1627822,32.1343615 83.926299,34.4473039 86.7621059,34.4473039 C88.5422677,34.4473039 90.1651876,33.0833372 91.2304656,30.8366913 C91.2304656,30.8366913 92.610369,34.5473154 96.6015492,34.5473154 C98.843237,34.5473154 101.497791,32.4705899 102.132141,30.9616349 L102.201979,33.1560084 L96.2801951,38.6169749 C94.5606635,40.2861466 92.7316293,42.6843679 92.7316293,45.3396301 C92.7316293,48.7165756 95.9200263,50.6583706 98.7258723,50.6583706 C101.642567,50.6583706 103.577775,48.8105665 104.637953,47.2622303 C105.9721,45.2588134 106.535621,41.4828136 106.535621,37.7916678 L106.403382,32.2414559 C110.394562,27.854267 113.518292,21.7903277 114.90882,17.4997504 L117.938417,17.4199962 C118.52524,17.3804733 118.495988,17.6115905 118.414817,17.9536977 C117.88239,20.2037434 117.417464,22.7519111 117.417464,25.289596 C117.417464,29.482145 118.383085,31.3065753 119.771134,32.7976104 C120.978071,34.0469039 122.178209,34.4682695 123.441527,34.4682695 C125.911994,34.4682695 127.462951,32.4280921 127.954863,31.1419672 C129.114982,33.4045497 130.824031,34.4582825 133.014155,34.4582825 C135.739042,34.4582825 138.069551,32.8065349 139.492518,30.0348288 C139.708195,32.1350698 141.471357,34.4480122 144.307377,34.4480122 C146.426033,34.4480122 147.654928,33.2254923 148.621328,30.9221119 C148.640806,31.6630609 148.66935,32.4528824 148.691166,33.1934065 C148.716664,33.5766658 149.023003,33.8191157 149.297184,33.9191272 C150.197783,34.2599595 150.988313,34.4304464 151.69838,34.4304464 C153.550363,34.4304464 153.952534,34.0500912 153.952534,32.8394707 C153.952534,30.8427119 154.01104,27.6878173 154.578385,25.1547363 C155.180721,22.6327756 156.089607,19.7777738 157.343858,17.7913561 C157.456761,17.5860918 157.733492,17.6399931 157.745533,17.8886761 C157.925582,22.1389512 158.209892,29.3339694 159.326451,31.196506 C159.877293,32.0849224 160.729374,32.7323763 162.004379,32.7323763 C162.602181,32.7323763 163.335126,32.4775312 163.522683,32.3185186 C163.712719,32.1703429 163.80841,32.005664 163.796865,31.7002465 C163.796865,26.2668328 165.491394,21.0065267 167.18826,17.4697895 C167.234866,17.3648908 167.367104,17.3567453 167.362642,17.4947923 L167.268014,21.4097599 C167.268014,27.8397469 167.731523,31.9019694 170.943294,33.8549555 C171.574811,34.2083246 172.286791,34.3928359 173.010387,34.3907818 C174.653705,34.3907818 176.14382,33.4729711 176.880377,31.9970228 C177.480375,30.8500073 178.04241,28.6423178 178.04241,27.3918202 C178.04241,26.9077703 178.048075,26.1198612 177.2545,26.1198612 C176.819393,26.1198612 176.557961,26.4406487 176.453841,26.9252652 C176.200908,27.975669 175.993377,28.8764806 175.60091,29.914985 C175.225867,30.9063877 174.666101,31.4836494 174.002498,31.4836494 C173.222946,31.4836494 172.827292,30.8701938 172.601133,30.4910426 C171.606401,28.9738006 171.526647,25.488344 171.526647,22.5790867 L171.766122,15.0911171 C171.766122,14.4715701 171.507523,13.7301253 170.551606,13.1835328 C169.90996,12.8140854 168.28704,12.1187506 167.292663,12.1187506 C166.370602,12.1187506 165.924234,12.6409777 165.591901,13.407567 C164.967821,14.7844247 162.882242,20.1851152 162.323041,24.5759872 C162.302997,24.6917229 162.158717,24.7162299 162.148588,24.5685501 C161.857903,21.4634488 161.708877,17.7222264 161.712065,15.1981407 C161.712065,14.4350929 161.525429,13.3442453 159.906758,12.6373654 C159.120124,12.3110531 158.469412,12.1113135 157.674774,12.1113135 C156.688896,12.1113135 156.476903,12.5938051 156.123817,13.2331136 C155.006975,15.2966648 154.234649,17.9877668 153.07708,21.3820655 L153.094575,13.6149563 C153.094575,13.2517418 152.871957,12.7756249 152.234207,12.647494 C150.652935,12.2841379 149.920414,12.1191048 149.296972,12.1191048 C148.843025,12.1191048 148.593633,12.4809027 148.593633,12.8720948 L148.508779,26.1152573 C148.202795,27.7364065 146.963276,31.6059722 145.204788,31.6059722 C143.761422,31.6059722 143.087832,30.1436232 143.087832,24.030953 L143.349831,14.0965271 C143.349831,13.4690472 142.937885,13.20549 142.337533,12.939808 C141.479149,12.5987632 140.796209,12.4633369 139.923729,12.4633369 C138.828703,12.4633369 138.452951,12.9874764 138.674507,14.2464735 C137.470757,12.6178872 136.267432,11.7177839 134.141479,11.7177839 C129.873214,11.7177839 126.655918,16.8518716 126.655918,24.3127842 C126.614129,26.4048798 127.11964,28.484226 127.11964,28.484226 C126.733406,30.2205442 125.825511,31.6359332 124.57133,31.6359332 C122.988996,31.6359332 121.980594,29.3988493 121.980594,25.5217756 C121.980594,21.6332983 123.461713,17.247526 123.461713,16.0588627 C123.461713,14.6768345 122.556085,13.8024424 120.95321,13.8024424 C120.150285,13.8024424 117.171544,14.4781573 115.644527,14.6999249 C115.644527,14.6999249 115.816856,13.972646 115.804106,13.4008382 C115.804106,12.0380756 115.164727,11.1840825 113.577435,11.1840825 C111.637764,11.1840825 110.213593,12.5691564 110.213593,14.9321046 C110.213593,15.992212 110.824215,16.9731319 111.632452,17.5001046 C110.583323,21.8761024 108.877462,25.1304418 106.363647,28.7660572 L106.575498,14.0442548 C106.575498,13.5656588 106.448005,13.2683868 105.510574,12.9045348 C105.014979,12.6904168 104.207238,12.4431504 103.189061,12.4431504 C101.713467,12.4431504 101.811141,13.4968832 101.890046,14.2858548 C101.214897,13.0886919 99.7367531,11.6676365 97.4563924,11.6676365 C91.242365,11.6676365 89.3345682,21.1435113 90.2700863,27.8730369 C90.2700863,28.6935276 89.468932,31.6059722 87.659376,31.6059722 C86.2160093,31.6059722 85.5424901,30.1436232 85.5424901,24.030953 L85.8068972,14.0965271 C85.8068972,13.4689055 85.3921187,13.2052775 84.7917665,12.939808 C83.9333819,12.5987632 83.2529214,12.4633369 82.3804417,12.4633369 C81.2852027,12.4633369 80.9094514,12.9874764 81.1310066,14.2463318 C79.9273274,12.6177455 78.7214525,11.7176423 76.5953587,11.7176423 C72.3270928,11.7176423 69.0672996,16.413011 69.0672996,23.8735695 C69.0672996,26.7214175 66.6151769,31.0673127 64.8956453,31.0673127 C63.9404366,31.0673127 62.9233935,29.3137829 62.9233935,24.8335238 C62.9281391,21.7797032 63.3446883,11.3835388 63.3446883,11.3835388 L69.3466517,11.2862188 C69.6330869,11.2835273 69.7989699,10.9705311 69.9051436,10.7776619 C70.1807418,10.2184618 70.3140432,9.84603945 70.3140432,9.17691169 C70.3140432,8.5731597 70.1932078,8.35266698 69.4189688,8.30910674 L63.4369085,7.95000038 L63.6913995,2.37719387 C63.7093194,2.02531214 63.4969721,1.79596571 63.1128629,1.6242038 C61.9548688,1.17131898 60.5347342,0.733166723 59.6354101,0.733166723 L59.6354101,0.733166723 Z M11.1139791,0.658370606 C9.49467154,0.658370606 7.39528053,2.37556479 6.156824,3.51868461 C3.43406119,5.93553413 0.967985051,10.3795992 0.967985051,13.9465807 C0.967985051,19.0150801 5.27853626,20.9283308 6.36881716,20.9283308 C6.72827766,20.9283308 7.03475758,20.7429695 7.03475758,20.2551657 C7.03475758,19.8728272 6.79223684,19.5546604 6.55099103,19.2277815 C5.55271786,17.7016858 5.23207201,16.2452156 5.23207201,14.2806842 C5.23207201,10.1849594 7.12102811,6.43077509 8.68799259,4.71287261 C8.97690675,4.40193042 9.62967287,3.73032362 9.82502106,3.73032362 C10.0189527,3.73032362 10.0669752,3.88827375 10.0669752,4.37643174 L9.88494295,31.1841108 C9.88494295,35.3748891 8.67573906,37.0395985 8.67573906,38.0263972 C8.67573906,38.4599456 8.86343765,38.5724939 9.22183571,38.5724939 C10.9188434,38.5724939 12.6100431,36.5041263 13.0891349,35.7497904 C14.5748578,33.1834903 14.9392764,31.1802152 14.9392764,25.4017902 L14.9392764,2.87526801 C14.9392764,2.2654955 14.7682228,2.00193835 14.1889778,1.62597454 C13.3418551,1.0880233 12.3712764,0.658370606 11.1139791,0.658370606 L11.1139791,0.658370606 Z" id="instagram" fill="#231F20"></path>
    </g>
</svg>