<?xml version="1.0" encoding="UTF-8"?>
<svg width="152px" height="35px" viewBox="0 0 152 35" version="1.1" xmlns="http://www.w3.org/2000/svg" xmlns:xlink="http://www.w3.org/1999/xlink">
    <title>kayak</title>
    <g id="Products" stroke="none" stroke-width="1" fill="none" fill-rule="evenodd">
        <g id="Ulixee-Hero" transform="translate(-504.000000, -2144.000000)" fill="#000000">
            <path d="M513.112901,2171.61047 C513.112901,2172.23837 513.626619,2172.75209 514.254518,2172.75209 L515.898173,2172.75209 C516.526072,2172.75209 517.03979,2172.23837 517.03979,2171.61047 L517.03979,2162.34805 C517.543342,2163.32447 518.268139,2164.73015 519.00923,2166.16811 L519.426462,2166.97775 C520.675207,2169.40118 521.860924,2171.70456 521.998746,2171.9802 C522.300814,2172.58434 522.779089,2172.7102 523.081157,2172.7102 L525.422187,2172.7102 C526.30322,2172.7102 526.177358,2171.72848 525.925634,2171.2502 C525.721839,2170.86295 522.547503,2164.65021 521.280024,2162.11263 L534.408721,2162.11263 L534.408721,2177.11456 C534.408721,2178.05641 533.638044,2178.82708 532.696195,2178.82708 L532.696195,2178.82708 L506.518547,2178.82708 C505.576698,2178.82708 504.806021,2178.05641 504.806021,2177.11456 L504.806021,2177.11456 L504.806021,2162.11263 L513.112901,2162.11263 L513.112901,2171.61047 Z M551.623598,2162.11263 L552.262774,2164.96557 L547.869291,2164.96557 L548.508266,2162.11263 L551.623598,2162.11263 Z M578.334899,2162.1376 C578.428994,2162.34543 578.445608,2162.53195 578.448034,2162.61223 L578.448074,2162.65394 L578.448074,2162.65394 L578.460359,2171.61047 C578.460359,2172.23837 578.974076,2172.75209 579.601976,2172.75209 L581.24563,2172.75209 C581.87353,2172.75209 582.387247,2172.23837 582.387247,2171.61047 L582.387247,2162.71677 L582.387247,2162.71677 C582.387247,2162.42779 582.476055,2162.20285 582.518144,2162.11263 L595.023774,2162.11263 L595.023774,2177.11456 C595.023774,2178.05641 594.253097,2178.82708 593.311248,2178.82708 L593.311248,2178.82708 L567.1336,2178.82708 C566.191751,2178.82708 565.421074,2178.05641 565.421074,2177.11456 L565.421074,2177.11456 L565.421074,2162.11263 L578.32322,2162.11263 C578.328455,2162.12371 578.332684,2162.13277 578.334899,2162.1376 Z M612.305911,2162.11263 L612.944886,2164.96557 L608.551604,2164.96557 L609.190579,2162.11263 L612.305911,2162.11263 Z M634.745966,2171.61047 C634.745966,2172.23837 635.259885,2172.75209 635.887583,2172.75209 L637.531238,2172.75209 C638.158936,2172.75209 638.672855,2172.23837 638.672855,2171.61047 L638.672855,2162.34805 C639.176337,2163.32447 639.901113,2164.73015 640.642206,2166.16811 L641.059441,2166.97775 C642.308202,2169.40118 643.493989,2171.70456 643.631811,2171.9802 C643.933879,2172.58434 644.412154,2172.7102 644.714222,2172.7102 L647.055252,2172.7102 C647.936285,2172.7102 647.810423,2171.72848 647.5587,2171.2502 C647.354904,2170.86295 644.180568,2164.65021 642.913089,2162.11263 L655.638827,2162.11263 L655.638827,2177.11456 C655.638827,2178.05641 654.86815,2178.82708 653.926301,2178.82708 L653.926301,2178.82708 L627.748653,2178.82708 C626.806804,2178.82708 626.036127,2178.05641 626.036127,2177.11456 L626.036127,2177.11456 L626.036127,2162.11263 L634.745966,2162.11263 L634.745966,2171.61047 Z M563.003721,2144.76042 C563.945571,2144.76042 564.716248,2145.53109 564.716248,2146.47294 L564.716248,2146.47294 L564.716248,2161.30712 L555.106849,2161.30712 L552.960754,2151.71645 C552.857849,2151.2569 552.525372,2151.03679 552.054549,2151.03679 L548.183844,2151.03679 C547.712819,2151.03679 547.337046,2151.23173 547.234141,2151.69127 L545.05502,2161.30712 L535.113547,2161.30712 L535.113547,2146.47294 C535.113547,2145.53109 535.884225,2144.76042 536.826074,2144.76042 L536.826074,2144.76042 Z M593.311248,2144.76042 C594.253097,2144.76042 595.023774,2145.53109 595.023774,2146.47294 L595.023774,2146.47294 L595.023774,2161.30712 L582.933387,2161.30712 L587.842804,2151.80183 C588.054251,2151.38095 587.729024,2151.03679 587.258201,2151.03679 L585.422028,2151.03679 C584.951002,2151.03679 584.473936,2151.24522 584.262689,2151.6661 C584.262689,2151.6661 580.768161,2158.62213 580.646327,2158.84445 C580.524492,2159.06678 580.403262,2158.86943 580.403262,2158.86943 L576.71098,2151.5781 C576.499532,2151.15722 576.086303,2151.03679 575.615479,2151.03679 L573.666534,2151.03679 C573.19571,2151.03679 572.983658,2151.38095 573.195307,2151.80163 L573.291112,2151.99383 C573.390386,2152.193 573.562077,2152.53747 573.783776,2152.98236 L573.959076,2153.33415 C574.419018,2154.25718 575.035073,2155.49377 575.659528,2156.74796 L575.909408,2157.24988 C576.699895,2158.83782 577.472259,2160.39071 577.926302,2161.30712 L565.421074,2161.30712 L565.421074,2146.47294 C565.421074,2145.53109 566.191751,2144.76042 567.1336,2144.76042 L567.1336,2144.76042 Z M623.618774,2144.76042 C624.560624,2144.76042 625.331301,2145.53109 625.331301,2146.47294 L625.331301,2146.47294 L625.331301,2161.30712 L615.788961,2161.30712 L613.643067,2151.71645 C613.539961,2151.2569 613.207686,2151.03679 612.736862,2151.03679 L608.865957,2151.03679 C608.394931,2151.03679 608.019158,2151.23173 607.916254,2151.69127 L605.737334,2161.30712 L595.7286,2161.30712 L595.7286,2146.47294 C595.7286,2145.53109 596.499277,2144.76042 597.441127,2144.76042 L597.441127,2144.76042 Z M653.926301,2144.76042 C654.86815,2144.76042 655.638827,2145.53109 655.638827,2146.47294 L655.638827,2146.47294 L655.638827,2161.30712 L642.514963,2161.30712 C642.449112,2161.17119 642.408434,2161.08379 642.398365,2161.05539 C642.272503,2160.70298 642.473882,2160.45126 642.473882,2160.45126 L644.663878,2156.34816 C644.663878,2156.34816 646.576977,2152.77369 646.929391,2152.06886 C647.281804,2151.36403 646.803529,2151.01162 646.274909,2151.01162 L644.110086,2151.01162 C643.7325,2151.01162 643.505949,2151.23817 643.229053,2151.71645 C643.10047,2151.93854 641.96183,2153.96356 640.779156,2156.06878 L640.50589,2156.55524 C639.822968,2157.77102 639.150123,2158.96938 638.672855,2159.81953 L638.672855,2152.17841 C638.672855,2151.55051 638.158936,2151.03679 637.531238,2151.03679 L635.887583,2151.03679 C635.259885,2151.03679 634.745966,2151.55051 634.745966,2152.17841 L634.745966,2161.30712 L626.036127,2161.30712 L626.036127,2146.47294 C626.036127,2145.53109 626.806804,2144.76042 627.748653,2144.76042 L627.748653,2144.76042 Z M532.696195,2144.76042 C533.638044,2144.76042 534.408721,2145.53109 534.408721,2146.47294 L534.408721,2146.47294 L534.408721,2161.30712 L520.881898,2161.30712 C520.816047,2161.17119 520.775369,2161.08379 520.7653,2161.05539 C520.639438,2160.70298 520.840817,2160.45126 520.840817,2160.45126 L523.030813,2156.34816 C523.030813,2156.34816 524.943912,2152.77369 525.296325,2152.06886 C525.648738,2151.36403 525.170464,2151.01162 524.641844,2151.01162 L522.477021,2151.01162 C522.099435,2151.01162 521.872884,2151.23817 521.595988,2151.71645 C521.467405,2151.93854 520.328764,2153.96356 519.146091,2156.06878 L518.872825,2156.55524 C518.189903,2157.77102 517.517058,2158.96938 517.03979,2159.81953 L517.03979,2152.17841 C517.03979,2151.55051 516.526072,2151.03679 515.898173,2151.03679 L514.254518,2151.03679 C513.626619,2151.03679 513.112901,2151.55051 513.112901,2152.17841 L513.112901,2161.30712 L504.806021,2161.30712 L504.806021,2146.47294 C504.806021,2145.53109 505.576698,2144.76042 506.518547,2144.76042 L506.518547,2144.76042 Z M610.748245,2155.15781 L612.125476,2161.30712 L609.371015,2161.30712 L610.748245,2155.15781 Z M550.065932,2155.15781 L551.443364,2161.30712 L548.688701,2161.30712 L550.065932,2155.15781 Z M625.331301,2162.11263 L625.331301,2177.11456 C625.331301,2178.05641 624.560624,2178.82708 623.618774,2178.82708 L623.618774,2178.82708 L597.441127,2178.82708 C596.499277,2178.82708 595.7286,2178.05641 595.7286,2177.11456 L595.7286,2177.11456 L595.7286,2162.11263 L605.554884,2162.11263 L603.333272,2171.91656 C603.230368,2172.37611 603.531429,2172.75209 604.002454,2172.75209 L605.9514,2172.75209 C606.422223,2172.75209 606.891839,2172.37611 606.994542,2171.91656 L607.822411,2168.22106 L613.67408,2168.22106 L614.501747,2171.91656 C614.604651,2172.37611 615.074267,2172.75209 615.545091,2172.75209 L617.494036,2172.75209 C617.96486,2172.75209 618.266123,2172.37611 618.163017,2171.91656 L615.969396,2162.11263 L625.331301,2162.11263 Z M564.716248,2162.11263 L564.716248,2177.11456 C564.716248,2178.05641 563.945571,2178.82708 563.003721,2178.82708 L563.003721,2178.82708 L536.826074,2178.82708 C535.884225,2178.82708 535.113547,2178.05641 535.113547,2177.11456 L535.113547,2177.11456 L535.113547,2162.11263 L544.872571,2162.11263 L542.650959,2171.91656 C542.548054,2172.37611 542.849317,2172.75209 543.320141,2172.75209 L545.269086,2172.75209 C545.73991,2172.75209 546.209526,2172.37611 546.31243,2171.91656 L547.140098,2168.22106 L552.991766,2168.22106 L553.819635,2171.91656 C553.922539,2172.37611 554.391954,2172.75209 554.862979,2172.75209 L556.811924,2172.75209 C557.282748,2172.75209 557.584011,2172.37611 557.480905,2171.91656 L555.287083,2162.11263 L564.716248,2162.11263 Z" id="kayak"></path>
        </g>
    </g>
</svg>