<?xml version="1.0" encoding="UTF-8"?>
<svg viewBox="0 0 429 51" version="1.1" xmlns="http://www.w3.org/2000/svg" xmlns:xlink="http://www.w3.org/1999/xlink">
    <title>kickstarter</title>
    <g id="Logos" stroke="none" stroke-width="1" fill="none" fill-rule="evenodd">
        <path d="M15.8029777,17.7062414 L24.6282395,4.91902952 C26.2958612,2.51203099 28.4499511,1.30656256 31.0915366,1.30656256 C33.245284,1.30656256 35.109308,2.07213775 36.6848073,3.59917858 C38.2597929,5.12913034 39.0472857,6.95839443 39.0472857,9.0893681 C39.0472857,10.6652099 38.6305087,12.0544095 37.7962698,13.2598779 L29.8398357,24.8294639 L39.5686851,37.1641114 C40.5417926,38.392696 41.028432,39.828813 41.028432,41.4722911 C41.028432,43.6505246 40.2635417,45.5200281 38.7349598,47.0840549 C37.2062067,48.6482529 35.3529702,49.4297526 33.1752504,49.4297526 C30.7896558,49.4297526 28.9718642,48.6540748 27.7210194,47.1010068 L15.8033202,32.2307661 L15.8033202,40.4306911 C15.8033202,42.7703957 15.3976732,44.588701 14.5870642,45.8857782 C13.1047147,48.2482566 10.9501112,49.4297526 8.12428083,49.4297526 C5.5537564,49.4297526 3.5609664,48.5614386 2.14796562,46.8239545 C0.827600987,45.2249965 0.168017978,43.1058378 0.168017978,40.4656223 L0.168017978,10.0616195 C0.168017978,7.56147111 0.839415948,5.49950367 2.18323927,3.87862808 C3.59589759,2.16443143 5.54125651,1.30707625 8.0201722,1.30707625 C10.3826506,1.30707625 12.3516394,2.16443143 13.9274812,3.87862808 C14.8070964,4.82896185 15.362742,5.78956951 15.5945892,6.76216335 C15.7334578,7.36404141 15.8033202,8.48749004 15.8033202,10.1326805 L15.8033202,17.7062414 L15.8029777,17.7062414 Z M59.6344262,11.0013369 L59.6344262,40.4306911 C59.6344262,42.9791267 58.9743295,45.074313 57.6536224,46.7188185 C56.2406216,48.526165 54.283619,49.4294101 51.7817583,49.4294101 C49.4887998,49.4294101 47.5542285,48.5842124 45.9792429,46.893132 C44.6590495,45.4796175 43.9994665,43.3255276 43.9994665,40.4306911 L43.9994665,11.0013369 C43.9994665,7.71129851 44.6590495,5.32570389 45.9792429,3.84249827 C47.4848798,2.15124661 49.4196224,1.30656256 51.7817583,1.30656256 C54.1445792,1.30656256 56.0782943,2.1408015 57.5846162,3.8092794 C58.9512133,5.33666269 59.6344262,7.73492843 59.6344262,11.0013369 L59.6344262,11.0013369 Z M87.7718401,0.368181473 C93.5394244,0.34526998 98.8438279,2.2796701 103.685051,6.1712441 C107.483989,9.22823669 109.383115,12.3912215 109.383115,15.656945 C109.383115,18.4360292 108.224735,20.5909752 105.909003,22.1193859 C104.588638,23.0010559 103.151665,23.440093 101.601166,23.440093 C100.326691,23.440093 99.1102638,23.1390684 97.9520552,22.5368479 C97.4659296,22.2817132 96.2608036,21.1120321 94.3390746,19.0274621 C92.5545019,17.0815895 90.3195908,16.1076258 87.6329715,16.1076258 C85.0386459,16.1076258 82.8664055,17.0062478 81.1179626,18.8009231 C79.3686635,20.5964546 78.4950414,22.7911264 78.4950414,25.3857944 C78.4950414,27.9575175 79.3688348,30.1407167 81.1179626,31.9357345 C82.8658918,33.7317797 85.0271734,34.6281756 87.5980403,34.6281756 C89.7286715,34.6281756 91.7093041,33.9105452 93.5394244,32.4740857 C94.6736606,31.386082 95.7983078,30.2977358 96.9099415,29.207506 C98.1140401,28.1650498 99.6431357,27.6434792 101.496372,27.6434792 C103.626832,27.6434792 105.474589,28.3910751 107.03776,29.8860957 C108.60093,31.3785478 109.382601,33.1917162 109.382601,35.3226898 C109.382601,38.2180401 107.680562,41.148664 104.275114,44.1126779 C99.5034109,48.2825028 93.9901052,50.367929 87.7360528,50.367929 C83.867595,50.367929 80.2198544,49.5451625 76.7916323,47.9011707 C72.4598226,45.8155733 69.0143062,42.7531013 66.4549118,38.7099876 C63.8946612,34.6690999 62.6155633,30.2501335 62.6155633,25.4548006 C62.6155633,18.275243 65.2785527,12.1600592 70.6074423,7.11027661 C75.3096253,2.66100223 81.0304634,0.415132355 87.7718401,0.368181473 L87.7718401,0.368181473 Z M127.904007,17.7062414 L136.729269,4.91902952 C138.397747,2.51203099 140.550981,1.30656256 143.192566,1.30656256 C145.346142,1.30656256 147.210338,2.07213775 148.786179,3.59917858 C150.361165,5.12913034 151.148658,6.95839443 151.148658,9.0893681 C151.148658,10.6652099 150.732052,12.0544095 149.897813,13.2598779 L141.940694,24.8289502 L151.669372,37.1637689 C152.642822,38.3923535 153.128948,39.8282993 153.128948,41.4719487 C153.128948,43.6500109 152.364571,45.5196856 150.836332,47.0837124 C149.30638,48.6477392 147.454,49.4297526 145.27765,49.4297526 C142.890343,49.4297526 141.072894,48.6535611 139.822049,47.1004931 L127.904007,32.2304236 L127.904007,40.4306911 C127.904007,42.7703957 127.499045,44.588701 126.688094,45.8857782 C125.205573,48.2482566 123.050627,49.4297526 120.22531,49.4297526 C117.654444,49.4297526 115.661482,48.5614386 114.248995,46.8239545 C112.928631,45.2249965 112.268705,43.1058378 112.268705,40.4656223 L112.268705,10.0616195 C112.268705,7.56147111 112.940788,5.49950367 114.283926,3.87862808 C115.696414,2.16443143 117.642286,1.30707625 120.120859,1.30707625 C122.484194,1.30707625 124.452327,2.16443143 126.027655,3.87862808 C126.907784,4.82896185 127.463772,5.78956951 127.695276,6.76216335 C127.835344,7.3645551 127.904007,8.48749004 127.904007,10.1326805 L127.904007,17.7062414 Z M162.913037,31.1529163 C164.650863,31.1529163 166.502901,31.9172929 168.472575,33.4463885 C170.926833,35.3698298 172.606612,36.3294101 173.51157,36.3294101 C174.853681,36.3294101 175.525079,35.6359233 175.525079,34.2460387 C175.525079,33.4816622 175.131932,32.8335516 174.344953,32.2994812 C173.927319,32.0215728 171.586759,31.1318549 167.325325,29.6241632 C160.353642,27.1695623 156.867373,22.628508 156.867373,16.0037398 C156.867373,11.001902 158.708794,7.05176687 162.391466,4.15641663 C165.610957,1.63229588 169.596023,0.368437576 174.344439,0.368437576 C178.443545,0.368437576 182.010978,1.34788067 185.045711,3.3041984 C188.080272,5.26120105 189.59721,7.78121225 189.59721,10.8621772 C189.59721,12.7160986 189.023928,14.2621461 187.877877,15.5003197 C186.730969,16.7395207 185.242284,17.3585219 183.412164,17.3585219 C181.489579,17.3585219 179.358605,16.444318 177.019243,14.6147114 C175.560524,13.4799615 174.459849,12.9123297 173.719102,12.9123297 C172.444627,12.9123297 171.807304,13.537324 171.807304,14.7878263 C171.807304,15.9700072 173.381948,17.0470522 176.533117,18.0193036 C180.888043,19.3864143 184.257704,21.0540361 186.643299,23.0221688 C189.817243,25.663583 191.404557,29.3703984 191.404557,34.1412452 C191.404557,39.3317799 189.620327,43.3836264 186.052893,46.302949 C182.740937,49.0121708 178.432586,50.3679803 173.127327,50.3679803 C167.822752,50.3679803 163.433237,48.9558357 159.959125,46.1282931 C157.180041,43.8824232 155.789472,41.2538513 155.789472,38.2415501 C155.789472,36.2263288 156.472513,34.5479195 157.84048,33.203925 C159.206564,31.8607866 160.898671,31.1760326 162.913037,31.1529163 L162.913037,31.1529163 Z M204.746387,16.2129845 L200.612349,16.2129845 C198.319048,16.2129845 196.419922,15.5874765 194.914285,14.3366318 C193.315841,12.9934934 192.515677,11.1979618 192.515677,8.95089334 C192.515677,7.60775493 192.893584,6.31649962 193.645803,5.07644247 C194.398365,3.83775516 195.371815,2.95728376 196.565126,2.43588442 C197.757923,1.91482754 200.589233,1.65472718 205.060425,1.65472718 L220.835452,1.65472718 C224.702197,1.65472718 227.205599,1.88657438 228.340007,2.34958384 C229.590851,2.85882576 230.60437,3.73433145 231.379191,4.9716489 C232.156581,6.21204852 232.545105,7.51477633 232.545105,8.88137342 C232.545105,11.0354633 231.686894,12.9123297 229.97304,14.510774 C228.746167,15.6460376 226.741391,16.2129845 223.962649,16.2129845 L220.383401,16.2129845 L220.383401,39.839652 C220.383401,42.4110325 219.944022,44.4022815 219.063037,45.815111 C217.579831,48.1784456 215.437899,49.3594279 212.635527,49.3594279 C209.831957,49.3594279 207.678723,48.2820405 206.172401,46.1277794 C205.222752,44.7848122 204.747243,42.7473308 204.747243,40.0139654 L204.747243,16.2129845 L204.746387,16.2129845 Z M242.758882,42.9324319 C242.01608,44.6926898 241.25256,46.0012394 240.465409,46.8580809 C238.890424,48.5719351 236.97914,49.429804 234.732585,49.429804 C231.976104,49.429804 229.833829,48.3178278 228.305075,46.0928482 C227.402173,44.7735109 226.94978,43.2918464 226.94978,41.646656 C226.94978,40.2800589 227.274263,38.9007907 227.922887,37.5117623 L242.758539,5.92797578 C244.194999,2.84838065 246.593264,1.30661393 249.950254,1.30661393 C253.357072,1.30661393 255.799516,2.89290079 257.282208,6.06735806 L272.258441,37.8934369 C272.861175,39.1684252 273.161686,40.4307424 273.161686,41.6810735 C273.161686,43.5339675 272.558095,45.1796716 271.354339,46.6147612 C269.779354,48.4924838 267.76379,49.429804 265.309189,49.429804 C263.293797,49.429804 261.614531,48.8039535 260.270194,47.5525951 C259.27397,46.6282885 258.278945,45.0865218 257.282208,42.9320894 L242.758882,42.9320894 L242.758882,42.9324319 Z M307.714966,30.8061729 L311.397809,36.7121121 C312.416635,38.3564463 312.926904,40.0485542 312.926904,41.7850109 C312.926904,43.9863606 312.167493,45.8096316 310.650555,47.2575636 C309.133788,48.7054955 307.275586,49.429804 305.076291,49.429804 C302.248406,49.429804 300.106816,48.2251917 298.646727,45.815111 L292.112882,35.1143527 L292.112882,41.5422049 C292.112882,43.7430409 291.390115,45.6075787 289.942697,47.1354756 C288.494422,48.6645712 286.670295,49.4292903 284.469802,49.4292903 C281.782497,49.4292903 279.744845,48.4676552 278.355131,46.5445564 C277.104287,44.8543321 276.479121,42.6302086 276.479121,39.8730421 L276.479121,10.653275 C276.479121,4.65435729 279.71077,1.65421349 286.173211,1.65421349 L296.110449,1.65421349 C299.37583,1.65421349 302.410391,2.5987254 305.213105,4.48637937 C308.016675,6.3748895 310.065972,8.82418217 311.36322,11.8356272 C312.335129,14.1054695 312.822796,16.3862705 312.822796,18.6794003 C312.822796,22.9648063 311.1199,27.0075775 307.714966,30.8061729 L307.714966,30.8061729 Z M326.296131,16.2129845 L322.161238,16.2129845 C319.867423,16.2129845 317.969153,15.5874765 316.463173,14.3366318 C314.864215,12.9934934 314.064908,11.1979618 314.064908,8.95089334 C314.064908,7.60775493 314.441959,6.31649962 315.194178,5.07644247 C315.947938,3.83775516 316.92019,2.95728376 318.113501,2.43588442 C319.306641,1.91482754 322.136752,1.65472718 326.607944,1.65472718 L342.383827,1.65472718 C346.250915,1.65472718 348.753118,1.88657438 349.887525,2.34958384 C351.13837,2.85882576 352.153258,3.73433145 352.928422,4.9716489 C353.7041,6.21204852 354.092624,7.51477633 354.092624,8.88137342 C354.092624,11.0354633 353.235269,12.9123297 351.521414,14.510774 C350.293686,15.6460376 348.290965,16.2129845 345.511538,16.2129845 L341.931776,16.2129845 L341.931776,39.839652 C341.931776,42.4110325 341.49154,44.4022815 340.611411,45.815111 C339.129062,48.1784456 336.985417,49.3594279 334.184415,49.3594279 C331.381701,49.3594279 329.227098,48.2820405 327.720776,46.1277794 C326.770271,44.7848122 326.296816,42.7473308 326.296816,40.0139654 L326.296816,16.2129845 L326.29596,16.2129845 L326.296131,16.2129845 Z M372.645536,34.419496 L379.751978,34.419496 C382.688938,34.419496 384.873335,35.0222303 386.306028,36.2259864 C387.993855,37.6627883 388.838196,39.5156823 388.838196,41.7850109 C388.838196,44.1017705 387.990944,45.977952 386.301062,47.4137265 C384.980697,48.5265588 382.815135,49.0816907 379.804204,49.0816907 L367.608425,49.0816907 C364.735335,49.0816907 362.766517,48.8620009 361.700773,48.4221077 C359.616032,47.5652662 358.23762,46.1644229 357.566736,44.2173516 C357.149103,42.9665069 356.941228,40.9168681 356.941228,38.0674079 L356.941228,12.2876779 C356.941228,10.1327318 357.01109,8.68565604 357.149103,7.94405323 C357.403381,6.43893001 358.01793,5.16445536 358.99138,4.12199914 C360.102158,2.93964694 361.516015,2.18742779 363.229869,1.8620883 C364.040478,1.72458956 365.684812,1.65472718 368.163557,1.65472718 L377.510732,1.65472718 C380.057969,1.65472718 381.541174,1.67784341 381.95778,1.72458956 C383.626258,1.88657438 384.991143,2.37304253 386.056886,3.18296663 C387.956355,4.61976856 388.90686,6.4957788 388.90686,8.81185351 C388.90686,11.312858 388.074334,13.2246556 386.410479,14.5453627 C384.930527,15.7268588 382.909826,16.3181205 380.342555,16.3181205 L372.645536,16.3181205 L372.645536,19.5483992 L378.779213,19.5483992 C380.579368,19.5483992 382.071135,20.0232236 383.248693,20.9735574 C384.495085,21.9916987 385.12008,23.3933982 385.12008,25.1762587 C385.12008,28.9524227 382.81993,30.8405904 378.223225,30.8405904 L372.645194,30.8405904 L372.645194,34.419496 L372.645536,34.419496 Z M422.949871,30.8061729 L426.63357,36.7121121 C427.65291,38.3564463 428.161809,40.0485542 428.161809,41.7850109 C428.161809,43.9863606 427.402056,45.8096316 425.885632,47.2575636 C424.369036,48.7054955 422.510491,49.429804 420.309655,49.429804 C417.482455,49.429804 415.341036,48.2251917 413.882146,45.815111 L407.349842,35.1143527 L407.349842,41.5422049 C407.349842,43.7430409 406.624335,45.6075787 405.177602,47.1354756 C403.730184,48.6645712 401.9052,49.4292903 399.70522,49.4292903 C397.017402,49.4292903 394.979921,48.4676552 393.590379,46.5445564 C392.338336,44.8543321 391.714198,42.6302086 391.714198,39.8730421 L391.714198,10.653275 C391.714198,4.65435729 394.945675,1.65421349 401.408116,1.65421349 L411.344497,1.65421349 C414.611933,1.65421349 417.645296,2.5987254 420.44801,4.48637937 C423.249868,6.3748895 425.300021,8.82418217 426.597783,11.8356272 C427.57089,14.1054695 428.057016,16.3862705 428.057016,18.6794003 C428.057016,22.9648063 426.355662,27.0075775 422.949871,30.8061729 Z" id="kickstarter" fill="#231F20"></path>
    </g>
</svg>