<?xml version="1.0" encoding="UTF-8"?>
<svg width="124px" height="19px" viewBox="0 0 124 19" version="1.1" xmlns="http://www.w3.org/2000/svg" xmlns:xlink="http://www.w3.org/1999/xlink">
    <title>monster</title>
    <g id="Logos" stroke="none" stroke-width="1" fill="none" fill-rule="evenodd">
        <path d="M100.244941,3.77388646 C103.227755,3.77388646 106.488599,5.63800795 106.488599,8.06038074 C106.488599,9.92340762 104.531436,11.0420994 102.388188,11.0420994 L102.388188,11.0420994 L98.6610401,11.0420994 C97.6353901,11.0420994 96.7049713,11.7875291 96.7049713,12.6260007 L96.7049713,12.6260007 L96.7049713,13.650556 C96.7049713,15.5146775 98.9412603,17.3777044 101.084507,17.3777044 C102.667314,17.3777044 104.158173,16.7253166 105.183823,15.7938031 L105.183823,15.7938031 L105.836211,16.353149 C104.717519,17.8440084 102.482325,18.5883435 100.431025,18.5883435 C95.680416,18.5883435 92.1393514,14.9553316 92.1393514,11.1351413 C92.1393514,7.1288673 95.4001957,3.77388646 100.244941,3.77388646 Z M123.073041,3.77388646 L121.862402,3.77388646 C120.278501,3.77388646 118.97263,4.05301211 117.763086,4.98562016 L115.712881,6.56952139 C115.153535,7.03582542 114.687231,7.22190918 114.315063,7.1288673 C113.941801,7.1288673 113.755717,6.84864704 113.755717,6.56952139 L113.755717,6.38343763 C113.755717,5.17170392 112.731162,4.42627425 111.240303,4.42627425 L109.56336,4.42627425 L109.56336,7.22190918 L109.656401,7.22190918 L109.656401,18.0300922 L113.196371,18.0300922 L113.662675,15.0483735 C114.034843,12.1596966 114.781367,9.55124009 117.20374,7.40799295 L118.507421,6.38343763 C119.438934,5.63800795 120.371543,4.98562016 121.862402,4.98562016 L123.073041,4.98562016 L123.073041,3.77388646 Z M87.8528571,4.79953639 L89.9961042,4.79953639 L89.9961042,3.77388646 L85.1513586,3.77388646 C83.7524466,3.77388646 83.0081115,3.68084457 82.4487656,2.46911087 C82.0765981,1.81781769 82.4487656,0.233916459 80.3985603,0.233916459 L80.3985603,6.19735386 L80.3985603,6.38343763 L80.3985603,15.5146775 C80.3985603,17.4707463 82.2626818,18.5883435 84.4989709,18.5883435 C86.642218,18.5883435 88.8774124,17.3777044 89.8100205,15.7007613 L89.2506746,15.3274991 C88.7843705,16.0740234 87.3876477,17.1916206 86.175914,17.1916206 C85.3374424,17.1916206 84.8711384,16.5392328 84.8711384,15.886845 L84.8711384,7.03582542 C84.8711384,5.45192418 86.0828721,4.79953639 87.8528571,4.79953639 L87.8528571,4.79953639 Z M21.9781093,18.0300922 L21.9781093,8.06038074 C21.9781093,7.22190918 21.6048471,5.54496607 20.4872499,5.54496607 C18.624223,5.54496607 17.5055312,10.0175441 17.3194474,11.2281832 L16.1077137,18.0300922 L13.5922991,18.0300922 L13.5922991,8.340601 C13.5922991,7.50103483 13.4062153,5.54496607 12.1014397,5.54496607 C10.1442763,5.54496607 9.02667913,10.110586 8.84059536,11.3212251 L7.72190355,18.0300922 L4.83322673,18.0300922 L4.92626861,7.40799295 C4.92626861,6.29039574 4.4610592,4.61345263 2.50389582,4.61345263 L0.36174329,4.61345263 L0.36174329,3.58780269 L6.97647387,3.58780269 C8.74645887,3.58780269 9.39884666,5.17170392 9.39884666,6.38343763 C10.4244966,5.26474581 12.3805654,3.77388646 14.3377287,3.77388646 C16.2937975,3.77388646 17.3194474,4.98562016 17.5055312,6.47647951 C18.8092122,5.17170392 20.6733337,3.77388646 23.0026646,3.77388646 C25.3319955,3.77388646 25.8913414,5.54496607 25.8913414,7.1288673 L25.8913414,18.0300922 L21.9781093,18.0300922 Z M76.0201188,6.66256327 C75.2746891,5.9171336 73.7838298,4.79953639 72.3860123,4.79953639 C71.2673205,4.79953639 69.6845138,5.63800795 69.6845138,6.84864704 C69.6845138,9.73732386 76.3922863,10.8549211 76.3922863,14.3029438 C76.3922863,16.5392328 73.875777,18.4022597 71.0812367,18.4022597 C68.8449477,18.4022597 67.3551829,17.8440084 66.0504074,16.5392328 L66.7947424,15.9798869 C67.633214,16.7253166 68.2856018,17.2846625 69.6845138,17.2846625 C70.7090692,17.2846625 71.9197083,16.6322747 71.9197083,15.3274991 C71.9197083,12.9062209 64.9317155,11.2281832 64.9317155,7.78125509 C64.9317155,5.35778769 68.1936545,3.77388646 70.8951529,3.77388646 C72.9442636,3.77388646 75.5538148,4.7053999 76.671412,6.01017548 L76.0201188,6.66256327 Z M57.757639,3.77388646 C54.6828785,3.77388646 52.5396313,5.35778769 51.515076,6.38343763 C51.515076,5.17170392 50.5824679,4.42627425 49.0916086,4.42627425 L47.0424979,4.42627425 L47.0424979,7.22190918 L47.0424979,7.31495107 L47.0424979,18.0300922 L50.2103004,18.0300922 L51.515076,11.880571 C52.0744219,9.4571036 53.5652813,4.79953639 56.0806959,4.79953639 C57.8506809,4.79953639 58.316985,6.75669977 58.316985,7.87429698 L58.316985,18.0300922 L62.0441333,18.0300922 L62.0441333,7.96733886 C62.0441333,5.72995522 60.7393577,3.77388646 57.757639,3.77388646 L57.757639,3.77388646 Z M43.5014333,10.5757954 C42.6629618,8.06038074 40.3336309,6.75669977 38.8427715,7.40799295 C39.6812431,8.340601 40.1475471,9.64428197 40.1475471,11.1351413 C40.1475471,11.9736129 39.9614633,12.8120844 39.6812431,13.4644722 C39.4021174,14.2099019 38.4695094,15.4216356 36.4193041,15.4216356 C34.3701935,15.4216356 32.972376,13.650556 32.6921557,11.9736129 L32.6921557,11.880571 C32.6921557,11.6944872 32.6002085,11.414267 32.6002085,11.1351413 C32.6002085,11.0420994 32.6002085,10.8549211 32.6921557,10.6688373 C32.6921557,7.87429698 35.1156231,4.98562016 37.9112581,4.98562016 C39.5882012,4.98562016 41.173197,5.72995522 42.3827415,7.1288673 L42.6629618,6.94168892 C41.3581862,4.98562016 39.1218972,3.68084457 36.4193041,3.68084457 C31.9478207,3.68084457 28.8719655,7.03582542 28.8719655,11.1351413 C28.8719655,15.2344572 31.9478207,18.5883435 36.4193041,18.5883435 C39.5882012,18.5883435 42.1036159,16.8183585 43.2223077,14.3029438 C43.8736009,12.7190426 43.5955698,11.1351413 43.5014333,10.6688373 L43.5014333,10.5757954 Z" id="monster" fill="#231F20"></path>
    </g>
</svg>