<?xml version="1.0" encoding="UTF-8"?>
<svg viewBox="0 0 293 51" version="1.1" xmlns="http://www.w3.org/2000/svg" xmlns:xlink="http://www.w3.org/1999/xlink">
    <title>motleyfool</title>
    <g id="Logos" stroke="none" stroke-width="1" fill="none" fill-rule="evenodd">
        <path d="M0.285453105,40.0305309 L8.44586719,40.0305309 L8.44586719,37.7287582 L8.44586719,34.767373 L8.44586719,33.7802446 L9.75135022,19.6375118 L9.75135022,16.0188045 L10.4040917,17.663255 L19.8699889,33.7802446 L28.6831445,18.6503834 L29.9886275,16.0188045 L29.9886275,18.9778993 L30.9688849,29.8340214 C31.2941105,34.1100509 31.2941105,35.4246952 31.6216264,40.0305309 L39.4568149,40.0305309 C38.8017831,36.0843077 38.4765575,34.767373 38.1490416,30.4913435 L35.8655914,10.0983244 L35.5380755,3.84803814 L35.2128499,0.556846714 L30.9688849,0.556846714 L20.8502463,17.9930613 L19.8699889,19.9650277 L19.2172473,18.3205772 L8.44586719,0.556846714 L4.20190219,0.556846714 L4.20190219,3.19071598 L3.54916068,8.12406764 L1.59093613,30.1615373 C1.26342022,34.767373 1.26342022,36.0843077 0.285453105,40.0305309 M58.0613223,13.0578774 C50.8811656,13.0578774 44.3514602,19.3081636 44.3514602,26.8753846 C44.3514602,34.7678311 50.5536497,41.0181174 58.3865479,41.0181174 C65.8965108,41.0181174 72.09641,34.7678311 72.09641,27.2029005 C72.09641,19.3081636 65.8965108,13.0578774 58.0613223,13.0578774 M65.2437693,26.8753846 C65.2437693,30.8193175 62.3052873,33.7807027 58.3865479,33.7807027 C54.4700988,33.7807027 51.5339071,30.8193175 51.5339071,27.2029005 C51.5339071,23.2543869 54.4700988,20.2930017 58.3865479,20.2930017 C62.3052873,20.2930017 65.2437693,23.2543869 65.2437693,26.8753846 M75.0360371,20.2941469 L76.6667458,20.2941469 L77.9745191,20.2941469 L77.9745191,30.8204627 C77.9745191,34.43917 78.2997447,35.7538143 79.2777118,37.3982649 C80.5854852,39.7023279 82.8689353,40.6894563 85.1546758,40.6894563 C86.7853844,40.6894563 88.4183833,40.3596501 91.6820909,39.0427154 L89.7238664,33.1245257 C88.0908674,33.7818479 87.7656418,33.7818479 86.7853844,33.7818479 C85.4821917,33.7818479 85.1546758,32.7947195 85.1546758,29.8333343 L85.1546758,20.2941469 C87.7656418,20.6239531 88.4183833,20.6239531 91.0293494,20.6239531 L91.0293494,13.7163447 L87.7656418,13.7163447 L85.1546758,13.7163447 L85.1546758,4.17715728 L77.9745191,4.17715728 L77.9745191,8.12338054 L77.9745191,13.7163447 L75.0360371,13.7163447 L75.0360371,20.2941469 Z M96.9058553,40.0305309 L104.738753,40.0305309 L104.738753,35.7545014 L104.738753,6.47961709 C104.738753,5.16268245 104.738753,3.84803814 105.066269,0.556846714 L97.2333712,0.556846714 C97.5585968,5.16268245 97.5585968,6.14981085 97.5585968,12.4000971 L97.5585968,28.1895708 C97.5585968,33.7802446 97.5585968,35.4246952 96.9058553,40.0305309 M137.707697,28.1886547 C137.707697,23.255303 137.382471,21.6108525 135.749472,18.9792735 C133.791248,15.3605662 129.222057,13.0587935 124.978092,13.0587935 C117.142904,13.0587935 111.26823,19.3067895 111.26823,27.2015263 C111.26823,35.0962631 117.142904,41.0167432 124.650576,41.0167432 C126.611091,41.0167432 128.2418,40.6892273 129.874799,40.0296148 C133.138506,39.0424864 134.443989,37.7278421 137.382471,34.438941 L132.485765,29.8331052 C129.547283,32.7944904 127.261542,34.1091347 124.650576,34.1091347 C121.386869,34.1091347 119.428644,32.134878 118.448387,28.1886547 L137.382471,28.1886547 L137.707697,28.1886547 Z M118.775902,23.255303 C121.386869,20.2939179 122.367126,19.6365957 124.650576,19.6365957 C126.936317,19.6365957 128.569316,20.6237241 130.200024,23.255303 L118.775902,23.255303 Z M140.319579,15.0314471 L141.625062,17.663026 L142.930545,20.2946049 L151.418475,37.0689167 C150.765733,38.7156576 150.112992,39.702786 149.785476,40.6899144 C149.132734,42.6618808 148.154767,43.319203 147.17451,43.319203 C145.869027,43.319203 145.216285,43.319203 142.930545,42.0045587 L140.647095,48.5823609 C143.910802,49.8992955 145.541511,50.5566177 147.17451,50.5566177 C149.46025,50.5566177 151.743701,49.5694893 153.049184,48.2525547 C154.682183,46.6081041 155.987666,44.3063314 158.273406,39.0431735 L166.43382,20.2946049 L167.739303,17.0034135 L169.370012,13.7145124 L161.209598,13.7145124 C160.884372,14.3718346 160.556856,15.358963 160.556856,15.6887692 C160.556856,15.6887692 160.231631,16.6758976 159.578889,17.9928322 L155.009698,28.5168577 L149.132734,16.3460914 L148.154767,14.3718346 L146.846994,12.0700619 L140.319579,15.0314471 Z M186.997926,0.557075746 L186.997926,33.4529577 L186.997926,40.03076 L194.503308,40.03076 C194.503308,39.0436316 194.178083,38.3863094 194.178083,37.7266969 L194.178083,33.4529577 L194.178083,23.5839641 L209.193428,23.5839641 L211.151653,16.3465494 L206.254946,16.6763557 L202.013271,16.6763557 L194.178083,16.3465494 L194.178083,7.46468419 L202.666013,7.46468419 C203.318754,7.46468419 204.949463,7.46468419 207.560429,7.79449043 L211.804394,7.79449043 L214.41765,0.557075746 L186.997926,0.557075746 Z M231.716675,13.0578774 C224.534228,13.0578774 218.009103,19.3081636 218.009103,26.8753846 C218.009103,34.7678311 224.209002,41.0181174 232.044191,41.0181174 C239.551863,41.0181174 245.754053,34.7678311 245.754053,27.2029005 C245.754053,19.3081636 239.551863,13.0578774 231.716675,13.0578774 M238.899122,26.8753846 C238.899122,30.8193175 235.96064,33.7807027 232.044191,33.7807027 C228.125451,33.7807027 225.186969,30.8193175 225.186969,27.2029005 C225.186969,23.2543869 228.125451,20.2930017 232.044191,20.2930017 C235.633124,20.2930017 238.899122,23.2543869 238.899122,26.8753846 M264.685618,13.0578774 C257.177945,13.0578774 250.975756,19.3081636 250.975756,26.8753846 C250.975756,34.7678311 257.177945,41.0181174 264.685618,41.0181174 C272.518516,41.0181174 278.720706,34.7678311 278.720706,27.2029005 C278.720706,19.3081636 272.518516,13.0578774 264.685618,13.0578774 M271.540549,26.8753846 C271.540549,30.8193175 268.602067,33.7807027 264.685618,33.7807027 C261.094395,33.7807027 257.830687,30.8193175 257.830687,27.2029005 C257.830687,23.2543869 261.094395,20.2930017 264.685618,20.2930017 C268.602067,20.2930017 271.540549,23.2543869 271.540549,26.8753846 M284.922666,40.0305309 L292.757855,40.0305309 C292.430339,38.3860804 292.430339,37.398952 292.430339,35.7545014 L292.430339,6.47961709 C292.430339,5.16268245 292.430339,3.84803814 292.757855,0.556846714 L285.250182,0.556846714 L285.250182,12.4000971 L285.250182,28.1895708 C285.250182,33.7802446 285.250182,35.4246952 284.922666,40.0305309" id="motleyfool" fill="#050607"></path>
    </g>
</svg>