<?xml version="1.0" encoding="UTF-8"?>
<svg width="365px" height="50px" viewBox="0 0 365 50" version="1.1" xmlns="http://www.w3.org/2000/svg" xmlns:xlink="http://www.w3.org/1999/xlink">
    <title>nextdoor</title>
    <g id="Logos" stroke="none" stroke-width="1" fill="none" fill-rule="evenodd">
        <path d="M108.323267,7.24209453e-05 L108.323267,34.3855372 L88.4190942,7.24209453e-05 L77.9006761,7.24209453e-05 L77.9006761,49.0949554 L86.7555851,49.0949554 L86.7555851,15.6031651 L106.468566,49.0051535 L106.520709,49.0949554 L117.248424,49.0949554 L117.248424,7.24209453e-05 L108.323267,7.24209453e-05 Z M148.267256,26.4547919 L131.95299,26.4547919 C132.474421,21.1637177 135.413987,18.2538441 140.248085,18.2538441 C145.049594,18.2538441 147.818971,21.0883999 148.267256,26.4547919 M140.317609,11.1392104 C129.256034,11.1392104 122.384011,18.5971194 122.384011,30.6037879 C122.384011,42.3866757 129.642038,49.9995655 140.874526,49.9995655 C148.214389,49.9995655 153.972579,47.0093046 157.527723,41.3517804 L157.632733,41.184488 L150.060399,37.3259 L149.975667,37.477984 C148.127484,40.7883454 145.206023,42.467063 141.292395,42.467063 C135.495823,42.467063 132.266573,39.1509079 131.943575,32.8734603 L157.833339,32.8734603 L157.833339,30.8826085 C157.833339,18.8889758 150.957695,11.1392104 140.317609,11.1392104 M213.858979,42.3280147 C210.794125,42.3280147 209.654219,41.1504502 209.654219,37.9834822 L209.654219,18.9613967 L218.774189,18.9613967 L218.774189,12.0553354 L209.654219,12.0553354 L209.654219,2.78473019 L200.381441,2.78473019 L200.381441,12.0553354 L195.368463,12.0553354 L195.368463,18.9613967 L200.381441,18.9613967 L200.381441,39.3066129 C200.381441,46.502358 204.0836,49.9995655 211.700835,49.9995655 C214.447037,49.9995655 217.042604,49.5983534 219.415838,48.8075167 L219.539678,48.7662368 L219.539678,41.4394097 L219.313,41.4987949 C217.739293,41.9086975 215.860694,42.3280147 213.858979,42.3280147 M239.704494,18.7413095 C245.003534,18.7413095 248.295066,23.2603765 248.295066,30.5343362 C248.295066,38.0733566 245.164309,42.3976113 239.704494,42.3976113 C234.030313,42.3976113 230.904625,38.1848849 230.904625,30.5343362 C230.904625,23.0402168 234.112148,18.7413095 239.704494,18.7413095 L239.704494,18.7413095 Z M247.877921,15.2259968 C245.369984,12.4768977 242.075555,11.1392829 237.824446,11.1392829 C228.085277,11.1392829 221.283502,19.1439699 221.283502,30.6045845 C221.283502,42.2049716 227.818768,49.9996379 237.546349,49.9996379 C241.790217,49.9996379 245.574935,48.3049878 248.01697,45.3299353 L248.01697,49.0951003 L257.150699,49.0951003 L257.150699,0.000217262836 L247.877921,0.000217262836 L247.877921,15.2259968 Z M289.033441,30.4651742 C289.033441,38.0483714 285.699181,42.3979734 279.885951,42.3979734 C274.072722,42.3979734 270.737738,38.0483714 270.737738,30.4651742 C270.737738,23.0145074 274.072722,18.7416716 279.885951,18.7416716 C285.699181,18.7416716 289.033441,23.0145074 289.033441,30.4651742 M279.885951,11.1389208 C268.618701,11.1389208 261.047091,18.9618313 261.047091,30.6042224 C261.047091,36.1987405 262.772882,40.9988007 266.039067,44.4865934 C269.416055,48.0931565 274.204528,50 279.885951,50 C291.329909,50 298.724812,42.386386 298.724812,30.6042224 C298.724812,19.1436078 290.977943,11.1389208 279.885951,11.1389208 M329.409567,30.4651742 C329.409567,38.0483714 326.075306,42.3979734 320.262077,42.3979734 C314.448848,42.3979734 311.113863,38.0483714 311.113863,30.4651742 C311.113863,23.0145074 314.448848,18.7416716 320.262077,18.7416716 C326.075306,18.7416716 329.409567,23.0145074 329.409567,30.4651742 M320.262077,11.1389208 C308.994102,11.1389208 301.422492,18.9618313 301.422492,30.6042224 C301.422492,42.2053337 308.994102,50 320.262077,50 C331.706035,50 339.100213,42.386386 339.100213,30.6042224 C339.100213,19.1436078 331.354069,11.1389208 320.262077,11.1389208 M364.429004,11.2792725 C363.738108,11.2104726 362.552578,11.1395001 361.765362,11.1395001 C357.7909,11.1395001 354.341491,13.3917915 351.991431,17.5031286 L351.991431,12.0440377 L342.927226,12.0440377 L342.927226,49.0945933 L352.200003,49.0945933 L352.200003,32.9715183 C352.200003,21.7144066 357.937191,20.412278 362.252755,20.412278 C362.735803,20.412278 363.152947,20.412278 364.401484,20.4818021 L364.592676,20.4926652 L364.592676,11.2952052 L364.429004,11.2792725 Z M193.524336,12.0441101 L183.830069,12.0441101 L176.769751,23.4062323 L169.789096,12.0441101 L159.592951,12.0441101 L170.77909,29.210771 L158.064869,49.0946658 L167.980745,49.0946658 L176.495999,34.7871838 L185.098884,49.0077606 L185.151751,49.0946658 L195.274751,49.0946658 L182.420033,28.8674957 L193.524336,12.0441101 Z M61.80838,18.9380772 L30.90419,0 L20.2843826,6.50774614 L20.2843826,0 L10.604599,0 L10.604599,12.4397458 L0,18.9380772 L5.05787882,27.1911681 L10.604599,23.7924532 L10.604599,49.094883 L51.203781,49.094883 L51.203781,23.7924532 L56.7505012,27.1911681 L61.80838,18.9380772 Z" id="nextdoor" fill="#231F20"></path>
    </g>
</svg>