<?xml version="1.0" encoding="UTF-8"?>
<svg viewBox="0 0 198 50" version="1.1" xmlns="http://www.w3.org/2000/svg" xmlns:xlink="http://www.w3.org/1999/xlink">
    <title>pinterest</title>
    <g id="Logos" stroke="none" stroke-width="1" fill="none" fill-rule="evenodd">
        <path d="M20.5251862,-5.68434189e-14 C6.88002007,-5.68434189e-14 0,9.78304155 0,17.9411537 C0,22.8808156 1.87010469,27.2753797 5.88128069,28.91273 C6.53903728,29.1819561 7.12812263,28.9219863 7.31894641,28.1937389 C7.45162116,27.6897805 7.76546773,26.4186505 7.90550011,25.8888218 C8.09814352,25.1685649 8.02322224,24.9159528 7.49244415,24.2881805 C6.33579255,22.9239329 5.59678553,21.1577053 5.59678553,18.6560309 C5.59678553,11.3980025 11.0270354,4.90042114 19.7369701,4.90042114 C27.4498268,4.90042114 31.6867951,9.61302484 31.6867951,15.9067286 C31.6867951,24.1877053 28.0224563,31.1768241 22.5816052,31.1768241 C19.5771591,31.1768241 17.3280967,28.692001 18.0489866,25.6444376 C18.912124,22.0062066 20.5842055,18.0796038 20.5842055,15.4534825 C20.5842055,13.1026 19.3223318,11.1418303 16.7108467,11.1418303 C13.6394699,11.1418303 11.1721311,14.3192203 11.1721311,18.5756507 C11.1721311,21.2865826 12.0882751,23.1200573 12.0882751,23.1200573 C12.0882751,23.1200573 8.94506249,36.4376901 8.39418937,38.7700599 C7.29687351,43.4150208 8.22891952,49.1090379 8.3077174,49.6841991 C8.35431574,50.0247863 8.79229271,50.1058785 8.99063235,49.8487569 C9.27394079,49.4790556 12.9316339,44.9629719 14.1756278,40.4501319 C14.5274492,39.1722772 16.1957332,32.5560243 16.1957332,32.5560243 C17.1934441,34.4594361 20.109915,36.135948 23.2112762,36.135948 C32.4434446,36.135948 38.7074804,27.719132 38.7074804,16.4528548 C38.7074804,7.93390215 31.4919365,-5.68434189e-14 20.5251862,-5.68434189e-14 L20.5251862,-5.68434189e-14 Z M103.279257,23.7803456 C105.372385,23.7803456 106.09905,25.052425 106.09905,26.5685722 C106.09905,29.1328261 104.111144,30.6964418 101.000843,30.6964418 C99.88723,30.6964418 98.3309719,30.4325955 97.4122962,30.126423 C97.7963963,27.7681829 99.3099327,23.7803456 103.279257,23.7803456 L103.279257,23.7803456 Z M148.262957,23.7803456 C150.17523,23.7803456 151.0837,25.052425 151.0837,26.5685722 C151.0837,29.1328261 149.094844,30.6964418 145.984227,30.6964418 C144.871009,30.6964418 143.314672,30.4325955 142.39568,30.126423 C142.781995,27.7681829 144.488808,23.7803456 148.262957,23.7803456 L148.262957,23.7803456 Z M190.901866,23.9969606 L195.698964,23.9969606 C196.356404,23.9969606 196.741375,23.7299498 196.889398,23.1165763 C197.119066,22.1664131 197.355223,21.2179113 197.597866,20.2709918 C197.739798,19.7188529 197.418277,19.300338 196.806169,19.300338 L192.072521,19.300338 C192.413504,17.9436854 193.741122,13.5393111 193.741122,10.6678563 C193.741122,4.9333327 188.871634,0.0555382645 181.962263,0.0555382645 C174.159137,0.0555382645 169.082607,5.29211622 169.082607,12.6608256 C169.082607,14.8101247 169.88451,17.3153593 170.878423,18.8694022 C170.450731,18.8449559 170.022327,18.8328514 169.593923,18.8330097 C163.664778,18.8330097 159.930186,22.0492448 159.930186,26.7293325 C159.930186,31.1216022 163.392704,32.8284941 166.65261,33.9643386 C169.548353,34.9736002 172.214981,35.4431438 172.214981,37.70526 C172.214981,39.2306635 170.747647,40.125684 167.876271,40.125684 C164.469213,40.125684 162.596814,38.5212453 162.120941,37.9126187 C162.443727,37.6590572 162.923793,37.0552566 162.923793,36.0491596 C162.923793,34.6418738 161.935259,33.4932127 160.099253,33.4932127 C158.545843,33.4932127 157.232624,34.7601497 156.902796,36.4268514 C154.407768,38.4680013 151.684652,39.7907931 147.822448,39.7907931 C144.01966,39.7907931 142.045836,37.8127764 142.045836,33.6038937 C142.937376,33.875335 145.258828,34.2013652 146.793171,34.2013652 C153.232366,34.2013652 157.620838,31.275717 157.620838,25.4167465 C157.620838,22.2661763 154.855001,18.9574565 149.383216,18.9574565 L149.370795,18.9574565 C142.174001,18.9574565 138.142809,23.5162619 136.382674,28.5305286 C135.889554,28.4116198 135.395564,28.2964293 134.900704,28.184799 C135.294377,27.0725305 135.576973,25.7835206 135.576973,24.3544783 C135.576973,21.8779622 134.043342,18.9574565 129.939365,18.9574565 C127.080647,18.9574565 124.369082,20.8298555 122.489642,23.6361993 C122.957287,21.8055726 123.267336,20.5864207 123.287431,20.5047747 C123.4099,20.0259747 123.210532,19.492665 122.463772,19.492665 L118.251725,19.492665 C117.651405,19.492665 117.227827,19.7047705 117.057177,20.3883184 C116.94262,20.8441752 115.49546,26.5226067 114.086513,32.0517495 C113.199167,35.4992358 108.608399,39.7907931 102.838432,39.7907931 C99.0349313,39.7907931 97.0627691,37.6826333 97.0627691,33.4721683 C98.0579483,33.8682938 100.275444,34.2010487 101.809075,34.2010487 C108.510218,34.2010487 112.636822,31.2753214 112.636822,25.4164301 C112.636822,22.2658598 109.871222,18.95714 104.398883,18.95714 L104.387095,18.95714 C96.2831764,18.95714 91.31891,25.2514767 90.4777664,32.3883019 C90.1278437,35.3550895 87.6238749,39.4290032 84.9093829,39.4290032 C83.5869076,39.4290032 82.8494829,38.5984609 82.8494829,37.1882478 C82.8494829,35.9703617 83.706845,32.992419 84.6465651,29.2603584 C84.9614401,28.0119341 85.4392116,26.1072565 85.9690403,23.9969606 L90.3747595,23.9969606 C91.0306174,23.9969606 91.4152713,23.7299498 91.5642436,23.1165763 C91.7750833,22.2333438 92.1619524,20.6923548 92.271684,20.2709918 C92.4136942,19.7188529 92.0940723,19.300338 91.4799868,19.300338 L87.1476857,19.300338 C87.1476857,19.300338 89.1422372,11.3418313 89.1897059,11.1373999 C89.3817955,10.3281393 88.7045767,9.8611274 87.9961079,10.0100997 C87.9961079,10.0100997 84.6475144,10.6656411 84.0264669,10.7951513 C83.4022548,10.9214177 82.9176795,11.2643784 82.6922036,12.1641457 L80.9186975,19.300338 L77.4398819,19.300338 C76.7841032,19.300338 76.3984208,19.5679818 76.2514263,20.1800895 C76.0202542,21.1299362 75.7844144,22.0787544 75.5439068,23.0263068 C75.4000769,23.5784458 75.7212811,23.9969606 76.3346546,23.9969606 L79.7460648,23.9969606 C79.7218558,24.0945086 78.5139381,28.6897066 77.5368761,32.8048389 C77.0769053,34.7838049 75.5365492,39.414367 73.0140677,39.414367 C71.507256,39.414367 70.8705438,38.6542365 70.8705438,37.0239273 C70.8705438,34.4565089 73.3978513,28.0294184 73.3978513,25.1130266 C73.3978513,21.2173575 71.3078879,18.9603046 67.0262991,18.9603046 C64.3273926,18.9603046 61.5290394,20.702877 60.3430364,22.2323945 C60.3430364,22.2323945 60.7028484,20.9804101 60.8260294,20.4990785 C60.9574383,19.9906106 60.6846521,19.4910827 60.0170853,19.4910827 L55.8308293,19.4910827 C54.9399227,19.4910827 54.6936398,19.9672719 54.5628638,20.4910879 C54.5105692,20.7012947 53.0020962,26.6246642 51.5539873,32.3110863 C50.563555,36.2048566 48.1568968,39.4583546 45.583703,39.4583546 C44.2605949,39.4583546 43.6714304,38.6281288 43.6714304,37.2179157 C43.6714304,35.9993967 44.4586972,32.9927354 45.3980217,29.2609913 C46.5409074,24.7178505 47.5492196,20.9765335 47.6570524,20.539585 C47.7977177,19.9794555 47.5473209,19.4913992 46.8254817,19.4913992 L42.6139882,19.4913992 C41.8510095,19.4913992 41.5786188,19.8917177 41.4178585,20.4479706 C41.4178585,20.4479706 40.2325675,24.9350193 38.9773394,29.9302195 C38.0657049,33.5553966 37.0590541,37.2479 37.0590541,38.9827983 C37.0590541,42.0787797 38.4491721,44.4124153 42.2707902,44.4124153 C45.22041,44.4124153 47.5546785,42.9167587 49.3371245,41.0108152 C49.0751769,42.0423871 48.9080875,42.6953968 48.891157,42.7620111 C48.7374378,43.3518085 48.923673,43.8730137 49.6184551,43.8730137 L53.9281295,43.8730137 C54.6783707,43.8730137 54.9667425,43.5712716 55.1233098,42.9170752 C55.2741808,42.292784 58.4930267,29.6322749 58.4930267,29.6322749 C59.3437432,26.2313869 61.4480263,23.9793973 64.4084057,23.9793973 C65.8122105,23.9793973 67.0272484,24.9089116 66.8865832,26.7152501 C66.7302532,28.7025232 64.3338008,35.8414845 64.3338008,38.9748078 C64.3338008,41.3464183 65.2132358,44.4146305 69.6775787,44.4146305 C72.7206326,44.4146305 74.9608341,42.955683 76.5897983,41.0727618 C77.1863204,43.0711108 78.7665502,44.4146305 81.6650622,44.4146305 C86.482255,44.4146305 89.3859094,41.5575744 91.0917727,38.687781 C92.5074447,42.0219756 95.8228892,44.4130482 100.684703,44.4130482 C105.640029,44.4130482 109.47478,42.3241132 112.192437,39.484225 L111.344885,42.8086094 C111.190849,43.4073467 111.451452,43.8781561 112.154462,43.8781561 L116.419832,43.8781561 C117.003854,43.8781561 117.419521,43.5811609 117.571025,42.9677875 C117.645946,42.6666783 118.262247,40.2848621 119.132742,36.900509 C120.797466,30.4242885 123.473033,23.7054243 127.493466,23.7054243 C128.911274,23.7054243 129.492764,24.4980709 129.492764,25.7468907 C129.492764,26.3356596 129.321798,26.8444439 129.174171,27.117151 C127.225506,26.7299654 125.657776,27.6919957 125.657776,29.7726237 C125.657776,31.128327 127.084207,32.3605328 129.009534,32.3605328 C130.480665,32.3605328 131.69689,31.9997714 132.666911,31.3468408 C133.621662,31.5437564 134.574278,31.7508777 135.524679,31.9682048 C135.378475,32.9072128 135.303712,33.8560311 135.301022,34.8064316 C135.301022,40.0044809 139.012671,44.4127317 145.665554,44.4127317 C150.878952,44.4127317 154.456581,42.5056015 157.544888,40.0606521 C159.02939,42.4896204 162.777748,44.4526053 167.695416,44.4526053 C174.435404,44.4526053 178.257971,40.9479985 178.257971,36.3155376 C178.257971,32.1225568 174.815944,30.5793526 171.266321,29.2945358 C168.380863,28.2521253 165.974205,27.685271 165.974205,25.6460199 C165.974205,23.9746504 167.289955,23.2100103 169.545109,23.2100103 C171.00825,23.2100103 172.106832,23.5252019 172.693464,23.6897597 C173.275271,25.145859 174.479075,26.7582883 176.534228,26.7582883 C178.273319,26.7582883 179.054178,25.3828856 179.054178,24.1162651 C179.054178,20.5105501 173.047817,20.1325417 173.047817,12.39959 C173.047817,7.59102062 175.768718,3.62422777 181.403715,3.62422777 C185.319163,3.62422777 187.876138,6.10715212 187.876138,10.1144515 C187.876138,13.4184244 185.872331,19.3000216 185.872331,19.3000216 L182.4663,19.3000216 C181.811708,19.3000216 181.425472,19.5676654 181.277449,20.179773 C181.04691,21.1299362 180.810674,22.0786753 180.568664,23.0259904 C180.425467,23.5781293 180.746671,23.9966442 181.360361,23.9966442 L184.686011,23.9966442 C184.686011,23.9966442 181.248098,36.6759825 181.248098,38.981849 C181.248098,42.0778303 182.992885,44.410833 186.816165,44.410833 C192.223788,44.410833 195.602998,40.8966533 197.072231,35.7866582 C197.186393,35.391403 196.962499,35.0695659 196.562181,35.0695659 L194.499037,35.0695659 C194.087247,35.0695659 193.848322,35.3043772 193.744365,35.706911 C193.278303,37.5209236 192.123313,39.4293988 189.849013,39.4293988 C188.526537,39.4293988 187.78935,38.5987773 187.78935,37.1888807 C187.78935,35.9706782 188.595762,33.1186855 189.587777,29.2609913 C190.060485,27.4240355 190.901945,23.9969606 190.901945,23.9969606 L190.901866,23.9969606 Z M45.3776102,17.6247755 C47.5220834,17.6247755 49.5795308,15.8394023 49.937365,13.6369382 C50.3603893,11.4930188 48.9068216,9.7077247 46.7639307,9.7077247 C44.6204069,9.7077247 42.562643,11.4930188 42.1993499,13.6369382 C41.7811515,15.8394023 43.175067,17.6247755 45.3776102,17.6247755 L45.3776102,17.6247755 Z" id="pinterest" fill="#231F20"></path>
    </g>
</svg>