<?xml version="1.0" encoding="UTF-8"?>
<svg viewBox="0 0 231 51" version="1.1" xmlns="http://www.w3.org/2000/svg" xmlns:xlink="http://www.w3.org/1999/xlink">
    <title>priceline</title>
    <g id="Logos" stroke="none" stroke-width="1" fill="none" fill-rule="evenodd">
        <path d="M136.233551,28.5941987 C136.511126,18.0674243 129.86194,10.5878214 119.197533,10.5878214 C109.779059,10.5878214 102.576877,16.6817026 102.576877,26.2381177 C102.576877,36.0739556 109.779059,41.4750528 119.197533,41.4750528 C125.984352,41.4750528 133.326322,38.9831861 135.40298,31.7790033 L124.323056,31.7790033 C123.490484,33.5799336 121.691401,34.4106584 119.890317,34.4106584 C116.843453,34.4106584 114.211644,32.0545774 114.211644,28.5921974 L136.233551,28.5921974 L136.233551,28.5941987 Z M114.211644,22.7757377 C114.211644,19.5889317 116.150515,17.6502145 119.612895,17.6502145 C122.24455,17.6502145 124.738418,20.0042942 124.738418,22.7757377 L114.211644,22.7757377 Z M101.883939,22.4981623 C101.053368,13.9102591 93.7113986,10.5858201 85.9540663,10.5858201 C76.2600182,10.5858201 69.1936224,16.2644927 69.1936224,26.2361163 C69.1936224,36.0719542 76.5355922,41.4730515 85.9540663,41.4730515 C89.9714432,41.4730515 93.7113986,40.6423266 96.6186277,38.7036093 C99.5278583,36.7607354 101.606364,33.7157192 102.159513,29.2829799 L90.3868056,29.2829799 C90.1092302,31.6372135 88.8632968,33.5759308 85.9540663,33.5759308 C82.4918403,33.5759308 80.8305445,30.8064887 80.8305445,26.3737494 C80.8305445,22.9115233 81.5233284,18.340997 85.9540663,18.340997 C87.2020011,18.340997 88.1705129,18.7563594 88.8632968,19.5869304 C89.6940217,20.2798682 90.1092302,21.2502275 90.1092302,22.4961609 L101.883939,22.4961609 L101.883939,22.4981623 Z M56.4525567,40.6444819 L68.0874774,40.6444819 L68.0874774,11.4183924 L56.4525567,11.4183924 L56.4525567,40.6444819 L56.4525567,40.6444819 Z M56.4525567,8.78673725 L68.0874774,8.78673725 L68.0874774,0.476409474 L56.4525567,0.476409474 L56.4525567,8.78673725 Z M34.2930168,40.6444819 L45.9277836,40.6444819 L45.9277836,30.53307 C45.9277836,24.2992465 48.2820173,21.9451668 52.9921781,21.9451668 C53.8229029,21.9451668 54.6554752,22.2225882 55.4862001,22.3603753 L55.4862001,11.4183924 C54.9330506,11.2806053 54.3778998,11.4183924 53.9626913,11.4183924 C49.392165,11.4183924 46.6227229,12.8041141 44.9594257,17.3746404 L44.8216387,17.3746404 L44.8216387,11.4183924 L34.2950182,11.4183924 L34.2950182,40.6444819 L34.2930168,40.6444819 L34.2930168,40.6444819 Z M16.701848,32.6095742 C13.6528291,32.6095742 11.9935347,29.8381307 11.9935347,25.6829668 C11.9935347,21.8053784 13.9324059,19.1737233 16.701848,19.1737233 C19.7488656,19.1737233 21.6877368,21.3900159 21.6877368,25.9605423 C21.6877368,29.9779191 19.7488656,32.6095742 16.701848,32.6095742 L16.701848,32.6095742 Z M0.634187977,11.4183924 L0.634187977,50.4763171 L12.2691087,50.4763171 L12.2691087,37.7352514 C14.2079799,40.0913325 16.5620596,41.4750528 19.6110786,41.4750528 C26.1203221,41.4750528 33.3225036,37.3218903 33.3225036,25.8227552 C33.3225036,17.7900029 29.0295527,10.5878214 20.3018611,10.5878214 C16.9774221,10.5878214 12.8222582,12.2509647 11.158961,15.7113433 L11.021174,15.7113433 L11.021174,11.4183924 L0.634187977,11.4183924 Z M230.694374,28.5942603 C230.834162,18.0674859 224.32692,10.5877291 213.52257,10.5877291 C204.100093,10.5877291 197.0377,16.6817642 197.0377,26.2380253 C197.0377,36.0738632 204.239882,41.4749605 213.52257,41.4749605 C220.307542,41.4749605 227.647356,38.9830938 229.726016,31.7789109 L218.646246,31.7789109 C217.811518,33.5799951 216.150223,34.4105661 214.211505,34.4105661 C211.166489,34.4105661 208.532833,32.054485 208.532833,28.592105 L230.694374,28.592105 L230.694374,28.5941064 L230.694374,28.5942603 Z M208.536836,22.7757993 C208.536836,19.5889933 210.475553,17.6501221 213.937933,17.6501221 C216.707375,17.6501221 219.061455,20.0043558 219.061455,22.7757993 L208.536836,22.7757993 Z M163.936024,40.6443896 L175.570945,40.6443896 L175.570945,25.6850298 C175.570945,21.9450744 176.401515,19.7287817 180.003684,19.7287817 C183.328277,19.7287817 184.021061,22.2226498 184.021061,25.1318803 L184.021061,40.6463909 L195.655981,40.6463909 L195.655981,23.0552221 C195.655981,15.1602568 192.051966,10.5897304 184.298636,10.5897304 C180.005685,10.5897304 177.096455,12.5286017 174.4648,15.9908277 L174.4648,11.4184539 L163.936024,11.4184539 L163.936024,40.6443896 Z M150.639961,8.78664488 L162.13494,8.78664488 L162.13494,0.476317103 L150.639807,0.476317103 L150.639807,8.78664488 L150.639961,8.78664488 Z M150.639961,40.6443896 L162.13494,40.6443896 L162.13494,11.4184539 L150.639807,11.4184539 L150.639807,40.6443896 L150.639961,40.6443896 Z M137.203956,40.6443896 L148.699089,40.6443896 L148.699089,0.476317103 L137.203956,0.476317103 L137.203956,40.6443896 Z" id="priceline" fill="#231F20"></path>
    </g>
</svg>