<?xml version="1.0" encoding="UTF-8"?>
<svg viewBox="0 0 148 26" version="1.1" xmlns="http://www.w3.org/2000/svg" xmlns:xlink="http://www.w3.org/1999/xlink">
    <title>reuters</title>
    <g id="Logos" stroke="none" stroke-width="1" fill="none" fill-rule="evenodd">
        <path d="M106.162489,16.7055223 C106.162489,18.6735585 106.235399,18.7249513 108.013881,18.7249513 L113.957614,18.7249513 C114.214647,18.7287117 114.421402,18.9373468 114.422934,19.1943802 L114.422934,20.6930571 C114.422934,21.0242549 114.304828,21.1416643 113.957614,21.1867897 C113.202113,21.3048259 111.676347,21.5138822 108.886096,21.5138822 C104.984007,21.5138822 102.922238,21.540968 102.922238,16.7055223 L102.922238,9.28191504 C102.922238,4.44786212 104.984007,4.47494958 108.886096,4.47494958 C111.676416,4.47494958 113.202113,4.68678969 113.957614,4.80273677 C114.304828,4.84786212 114.422934,4.96736072 114.422934,5.29646936 L114.422934,6.79577298 C114.422934,7.05204039 114.209703,7.2680571 113.957614,7.2680571 L108.013881,7.2680571 C106.235399,7.2680571 106.162489,7.3200766 106.162489,9.28191504 L106.162489,11.4347006 L113.672238,11.4347006 C113.932614,11.4347006 114.137489,11.6478621 114.137489,11.901344 L114.137489,13.5950766 C114.138255,13.8529457 113.930037,14.062695 113.672238,14.0638788 L106.162489,14.0638788 L106.162489,16.7055223 Z M140.861792,21.5242549 C138.788185,21.5242549 136.686792,21.1686838 135.55831,20.9097006 C135.326416,20.8624861 135.113185,20.6992549 135.113185,20.4416643 L135.113185,18.751344 C135.113185,18.4950766 135.326416,18.3048259 135.55831,18.3048259 L135.604132,18.3048259 C136.545149,18.4228621 138.741667,18.7277368 140.910399,18.7277368 C142.996542,18.7277368 143.635399,17.9805223 143.635399,16.6214694 C143.635399,14.8610933 139.434703,13.8867897 137.384007,13.0423607 C135.34306,12.1978621 134.620149,10.5812187 134.620149,8.94096797 C134.620149,6.3583078 136.697934,4.48121866 141.061096,4.48121866 C143.297934,4.48121866 145.345845,4.90621866 146.14306,5.09786212 C146.379132,5.1450766 146.563185,5.30970056 146.563185,5.5430571 L146.563185,7.27912953 C146.563185,7.51109331 146.403436,7.70064763 146.164578,7.70064763 L146.120149,7.70064763 C144.570149,7.56109331 142.963881,7.27564763 140.924327,7.27564763 C139.185399,7.27564763 137.884703,7.88539694 137.884703,8.94096797 C137.884703,9.71318245 138.766667,10.4221657 139.80831,10.8360933 C140.849954,11.2464694 142.21597,11.7777368 143.777043,12.4055223 C145.753436,13.2048259 147.034703,14.3693802 147.034703,16.6214694 C147.034007,18.9895752 145.556918,21.5242549 140.861792,21.5242549 Z M128.387489,9.77704039 C128.387489,8.01736072 127.021542,7.26736072 124.670845,7.26736072 C124.181221,7.26736072 122.046542,7.31387883 121.622934,7.35970056 L121.622934,12.4485585 C122.002739,12.4714694 124.278436,12.5193802 124.670845,12.5193802 C127.091667,12.5193802 128.387489,12.0527368 128.387489,9.98887883 L128.387489,9.77704039 Z M131.906918,21.3277368 L129.042363,21.3277368 C128.784703,21.3277368 128.692363,21.0902716 128.57565,20.8597006 L125.194452,15.1700766 L124.670845,15.1700766 C124.064578,15.1700766 122.16597,15.1034331 121.622934,15.0735585 L121.622934,20.8597006 C121.622934,21.115968 121.436792,21.3277368 121.180525,21.3277368 L118.836792,21.3277368 C118.578018,21.3273886 118.367851,21.1184749 118.36597,20.8597006 L118.36597,5.48261142 C118.36597,5.01178969 118.643756,4.84786212 119.114578,4.77843315 C120.334007,4.59027159 122.961096,4.47425487 124.670149,4.47425487 C128.286096,4.47425487 131.621542,5.76527159 131.621542,9.77704039 L131.621542,9.98887883 C131.621542,12.4735585 130.376416,13.8333078 128.453505,14.5798259 L132.141667,20.8597006 C132.177391,20.9161769 132.193895,20.9826114 132.188881,21.0492549 C132.188881,21.2083078 132.09306,21.3277368 131.906918,21.3277368 Z M100.043756,7.38121866 L95.363185,7.38121866 L95.363185,20.8597006 C95.3590067,21.1191713 95.1476557,21.3273886 94.888185,21.3277368 L92.5659705,21.3277368 C92.3076139,21.3266226 92.0980735,21.1180571 92.0958451,20.8597006 L92.0958451,7.38121866 L87.4117922,7.38121866 C87.1569175,7.38121866 86.9451487,7.2200766 86.9451487,6.96178969 L86.9451487,5.1083078 C86.9451487,4.84786212 87.1569175,4.66109331 87.4117922,4.66109331 L100.04306,4.66109331 C100.296542,4.66109331 100.508312,4.84786212 100.508312,5.1083078 L100.508312,6.96178969 C100.509007,7.2200766 100.297934,7.38121866 100.043756,7.38121866 Z M77.5826139,21.5138788 C73.8083103,21.5138788 70.5562212,19.8728621 70.5562212,14.8721657 L70.5562212,5.1083078 C70.5562212,4.84786212 70.7708451,4.66109331 71.0284357,4.66109331 L73.3472379,4.66109331 C73.6076139,4.66109331 73.8173632,4.84786212 73.8173632,5.1083078 L73.8173632,14.8721657 C73.8173632,17.5485585 75.054132,18.8179875 77.5833103,18.8179875 C80.1194524,18.8179875 81.3555248,17.5485585 81.3555248,14.8721657 L81.3555248,5.1083078 C81.3555248,4.84786212 81.5652741,4.66109331 81.8229343,4.66109331 L84.1451487,4.66109331 C84.4055248,4.66109331 84.6173632,4.84786212 84.6173632,5.1083078 L84.6173632,14.8721657 C84.6159705,19.8721657 81.3624886,21.5138788 77.5826139,21.5138788 L77.5826139,21.5138788 Z M58.7874886,16.7055223 C58.7874886,18.6735585 58.863185,18.7249513 60.6374886,18.7249513 L66.5770429,18.7249513 C66.8362351,18.7257173 67.0464022,18.9352577 67.0479343,19.1943802 L67.0479343,20.6929875 C67.0479343,21.0242549 66.9298284,21.1416643 66.5770429,21.1867897 C65.8270429,21.3048259 64.2986306,21.5138822 61.5083103,21.5138822 C57.6138813,21.5138822 55.5472379,21.540968 55.5472379,16.7055223 L55.5472379,9.28191504 C55.5472379,4.44786212 57.6138813,4.47494958 61.5083103,4.47494958 C64.2986306,4.47494958 65.8270429,4.68678969 66.5770429,4.80273677 C66.9298284,4.84786212 67.0479343,4.96736072 67.0479343,5.29646936 L67.0479343,6.79577298 C67.0479343,7.05204039 66.8360958,7.26798747 66.5770429,7.26798747 L60.6374886,7.26798747 C58.863185,7.26798747 58.7874886,7.3200766 58.7874886,9.28191504 L58.7874886,11.4347006 L66.2965415,11.4347006 C66.5543409,11.4358148 66.7636028,11.6435446 66.7666669,11.901344 L66.7666669,13.5950766 C66.7643688,13.8535724 66.5550373,14.0623468 66.2965415,14.0638788 L58.7874886,14.0638788 L58.7874886,16.7055223 Z M48.7305248,9.77704039 C48.7305248,8.01729109 47.3652741,7.26729109 45.018756,7.26729109 C44.524327,7.26729109 42.3895777,7.31387883 41.9701487,7.35970056 L41.9701487,12.4485585 C42.3416669,12.4714694 44.6152741,12.5193802 45.018756,12.5193802 C47.4326139,12.5193802 48.7305248,12.0527368 48.7305248,9.98887883 L48.7305248,9.77704039 Z M52.2507198,21.3277368 L49.3860958,21.3277368 C49.129132,21.3277368 49.0333103,21.0902716 48.9173632,20.8597006 L45.5374886,15.1700766 L45.018756,15.1700766 C44.4062212,15.1700766 42.5097031,15.1034331 41.9701487,15.0735585 L41.9701487,20.8597006 C41.9701487,21.115968 41.7805248,21.3277368 41.5215415,21.3277368 L39.1756501,21.3277368 C38.9178507,21.3262047 38.709146,21.1175696 38.7076139,20.8597006 L38.7076139,5.48261142 C38.7076139,5.01178969 38.9853994,4.84786212 39.4576139,4.77843315 C40.6798284,4.59027159 43.3027393,4.47425487 45.0180596,4.47425487 C48.6305248,4.47425487 51.9680596,5.76527159 51.9680596,9.77704039 L51.9680596,9.98887883 C51.9680596,12.4735585 50.7249538,13.8333078 48.8013465,14.5798259 L52.4826139,20.8597006 C52.531225,20.9305223 52.531225,20.9964694 52.531225,21.0492549 C52.5319175,21.2083078 52.438185,21.3277368 52.2507198,21.3277368 L52.2507198,21.3277368 Z M14.604515,24.8823259 C14.9131474,24.8823259 15.163334,25.1325487 15.163334,25.4411811 C15.163334,25.7497772 14.9131474,26 14.604515,26 C14.3069273,25.9924318 14.0674593,25.7529638 14.0598911,25.455376 C14.0520694,25.1467437 14.2958827,24.8901838 14.604515,24.8823259 Z M11.4429768,24.4219629 L11.539412,24.4374652 C11.5478855,24.4395292 11.5563591,24.4418106 11.5647602,24.4442368 C11.8829524,24.5370111 12.065749,24.8701588 11.9729747,25.1883872 C11.8802365,25.5066156 11.5470526,25.689376 11.2288604,25.5966017 C10.9204092,25.5067242 10.7374677,25.1898719 10.8138019,24.8778357 C10.8925624,24.5558412 11.2174175,24.3587047 11.539412,24.4374652 Z M17.6688939,24.4374652 C17.989476,24.3512813 18.319256,24.5412117 18.4055847,24.8617577 C18.4057657,24.8625543 18.405983,24.8633148 18.4062003,24.8641114 C18.490646,25.1842228 18.2995568,25.5121922 17.9794454,25.5966017 C17.6593702,25.6826045 17.3301696,25.493 17.2438772,25.1730334 C17.1586348,24.8525961 17.3487462,24.523649 17.6688939,24.4374652 Z M20.6672226,23.0251365 C21.0827518,22.9368162 21.4912198,23.2020306 21.5795401,23.6175599 C21.6678967,24.0330891 21.4026822,24.4415571 20.9871529,24.5299136 C20.5716237,24.618234 20.1631557,24.3530195 20.0747992,23.9374903 C19.9864426,23.521961 20.2516933,23.113493 20.6672226,23.0251365 Z M7.63108329,23.6166546 C7.72005543,23.2021755 8.12732841,22.9376128 8.54216964,23.0247744 C8.95722813,23.1132396 9.22222535,23.5210557 9.13441198,23.9362228 C9.04616407,24.3513538 8.63809443,24.616351 8.22296351,24.5281031 C7.80783259,24.4398552 7.54283538,24.0317855 7.63108329,23.6166546 Z M13.3583292,22.0624159 C13.6830033,21.9981763 13.9986245,22.2082404 14.0646384,22.5325886 C14.1298195,22.8578783 13.9195744,23.1745496 13.5945019,23.2407446 L13.5945019,23.2407446 L13.4973397,23.2520677 C13.2082343,23.2621558 12.9461315,23.061685 12.8877944,22.7687613 C12.8231203,22.4438699 13.0335827,22.1279228 13.3583292,22.0624159 Z M16.0290912,22.1424367 C16.2515421,22.1501094 16.443566,22.3157569 16.4768808,22.543778 C16.4769532,22.5442487 16.4770256,22.5447195 16.4770981,22.5451903 C16.5138167,22.8012432 16.3360535,23.0385747 16.0800006,23.0753295 C16.0797109,23.0754019 16.0794212,23.0754382 16.0790953,23.0754744 L15.9947651,23.0801534 C15.7730152,23.0724509 15.581635,22.9072791 15.548449,22.679934 C15.5111872,22.4239173 15.6877192,22.1858978 15.9435187,22.1472961 C15.9438446,22.1472237 15.9441705,22.1471875 15.9444964,22.1471513 Z M10.8377777,21.3243128 C11.2264741,21.2249841 11.6220869,21.4595997 11.7214156,21.8482961 C11.8207081,22.2369925 11.5861287,22.6326053 11.1974323,22.731934 C11.196346,22.7322237 11.1952234,22.7324772 11.1941008,22.7327669 C10.8059838,22.8306471 10.4120368,22.5953435 10.3141565,22.2072265 C10.2149365,21.8188198 10.449371,21.4235329 10.8377777,21.3243128 Z M23.2570833,20.878 C23.7587602,20.8039471 24.227412,21.1450975 24.3111334,21.6452173 C24.3960499,22.1523259 24.0538131,22.6322033 23.5467045,22.7171198 L23.5467045,22.7171198 L23.5288521,22.7199443 C23.0202226,22.7949749 22.5470443,22.443468 22.4720136,21.9348384 C22.3969468,21.4262089 22.7484538,20.9530306 23.2570833,20.878 Z M5.84603371,20.8674857 L5.95419192,20.8783621 C6.4617351,20.9591866 6.80770167,21.4361309 6.72691337,21.9436741 C6.64612507,22.4512535 6.16914457,22.7971838 5.66160139,22.7163955 C5.66004429,22.7161783 5.6585234,22.7159248 5.65700251,22.7156713 C5.15101643,22.6339415 4.80707772,22.157468 4.88880752,21.6514819 C4.96966825,21.1435404 5.44664875,20.7975738 5.95419192,20.8783621 Z M18.2788111,21.5196749 C18.5002819,21.4237864 18.7576022,21.5254326 18.8537081,21.7468309 C18.9490535,21.9689173 18.8457777,22.2256582 18.6244156,22.3209674 C18.4031259,22.4164214 18.146385,22.3144131 18.0509671,22.0931234 C17.9555131,21.8718337 18.0575577,21.6150928 18.2788111,21.5196749 Z M8.53279443,19.927193 C9.01071643,19.7781457 9.51902006,20.0442655 9.66886407,20.521934 L9.66886407,20.521934 C9.81700613,21.0028616 9.54954652,21.5085579 9.07263844,21.6554688 L9.07263844,21.6554688 C8.58921226,21.8039368 8.08518162,21.5367306 7.93913983,21.0610538 C7.9387415,21.0598588 7.93837939,21.0586638 7.93801727,21.0574688 C7.79012869,20.5811039 8.05642953,20.0750454 8.53279443,19.927193 Z M20.3611287,20.2344855 C20.5690201,20.0802599 20.8625883,20.1237864 21.0168139,20.3316777 C21.1710396,20.5396053 21.1275493,20.8331735 20.9196217,20.9873992 C20.7209643,21.1347808 20.4419532,21.1024075 20.282332,20.9134549 C20.1152513,20.7157028 20.1401287,20.4199618 20.3378808,20.2528811 L20.3378808,20.2528811 Z M13.1651398,19.8325755 C13.429449,19.5546507 13.8686245,19.5423749 14.1480702,19.805127 C14.1486858,19.8057064 14.1493014,19.8062858 14.149917,19.8069014 L14.2251348,19.890761 C14.4268047,20.1560756 14.4123866,20.5359443 14.1755187,20.7855226 C13.9129838,21.0643164 13.4767777,21.0773164 13.1950869,20.8118847 C13.1946524,20.8114864 13.1941816,20.8110518 13.1937471,20.8106173 C12.9157499,20.5484446 12.9029309,20.1105365 13.1651398,19.8325755 Z M15.577346,19.8672301 C15.7847666,19.6473164 16.1310228,19.636634 16.3515883,19.8434028 L16.3515883,19.8434028 C16.5714295,20.0518373 16.5805911,20.3960657 16.3739671,20.614024 C16.1670535,20.832127 15.8218111,20.8458513 15.6015354,20.6382134 C15.3830702,20.4314808 15.3722429,20.0872524 15.577346,19.8672301 Z M10.8894156,19.1316618 C11.1844685,18.8178513 11.6780702,18.8026423 11.9918808,19.0976953 C12.3056914,19.3927844 12.3209003,19.8863499 12.0258111,20.2001604 C12.0252318,20.2008123 12.0246162,20.2014641 12.0240368,20.2020797 C11.728839,20.5141883 11.2365409,20.5278763 10.9244323,20.2326786 C10.9238891,20.2321716 10.923346,20.2316646 10.9228028,20.2311577 C10.6099699,19.9367565 10.5950145,19.4444947 10.8894156,19.1316618 Z M25.2572727,18.0663788 C25.8945262,17.9994234 26.465476,18.4615933 26.5327212,19.0987744 C26.5329022,19.1002591 26.5330471,19.1017075 26.5331919,19.103156 C26.5987713,19.7393593 26.1361669,20.3082813 25.4999635,20.3738607 C24.8627462,20.4408886 24.2918688,19.9786462 24.2248772,19.3414652 C24.1578493,18.7042479 24.6200916,18.1333705 25.2572727,18.0663788 Z M3.82443042,18.0601983 L3.95067103,18.0667409 L3.95067103,18.0667409 L4.07576384,18.0867165 C4.64749582,18.210092 5.04624875,18.7471829 4.98379081,19.3421894 L4.98379081,19.3421894 C4.91538691,19.9817242 4.34450947,20.4422646 3.70834234,20.3742228 C3.70653175,20.3740418 3.70468496,20.3738607 3.70287437,20.3736435 C3.06754011,20.3052758 2.60794123,19.7348329 2.67630891,19.0994986 L2.67630891,19.0994986 C2.74402479,18.4604345 3.31443148,17.9993148 3.95067103,18.0667409 Z M6.63588078,18.0887613 C7.14212033,17.913388 7.69655766,18.1686443 7.89249916,18.6672794 C8.09423454,19.1806889 7.8415493,19.7604744 7.32813983,19.9622097 L7.32813983,19.9622097 C6.80578607,20.1536248 6.23389471,19.8884465 6.04472479,19.3721401 C5.85425125,18.8545301 6.11870529,18.2804298 6.63588078,18.0887613 Z M17.8271788,19.1596173 C17.9946217,18.9831214 18.2734518,18.9757705 18.4499838,19.1432134 C18.4505994,19.1437565 18.451215,19.1443359 18.4517944,19.1449153 C18.6284351,19.3119599 18.6361844,19.5905727 18.4691398,19.7672134 C18.4685967,19.7677928 18.4680535,19.7683721 18.4675103,19.7689515 C18.3000312,19.9459905 18.0207666,19.9538123 17.8436914,19.7863331 C17.6661816,19.618673 17.6581064,19.3389014 17.8256217,19.1612468 L17.8256217,19.1612468 Z M22.0516357,18.3131652 C22.3217387,18.1217501 22.6959142,18.1855552 22.8873292,18.4556582 C22.8876189,18.4560928 22.8879448,18.4565273 22.8882708,18.4569618 C23.0797944,18.7269925 23.0161705,19.101168 22.7461398,19.2926916 C22.4800563,19.4726638 22.1194964,19.4113574 21.9278279,19.1536025 C21.7298947,18.8874827 21.7852262,18.5112794 22.051346,18.3133825 Z M8.89932925,17.747868 C9.23848802,17.3950574 9.79770529,17.3787621 10.1568529,17.7112217 C10.5208529,18.0481354 10.542761,18.6163694 10.2058111,18.9803331 C9.86944067,19.3162329 9.32963287,19.331985 8.97425125,19.0162552 C8.60329861,18.6866925 8.56976657,18.1188206 8.89932925,17.747868 Z M14.1787705,18.3585167 C14.2733916,18.0359067 14.6116089,17.8511184 14.9342189,17.9457758 C15.2567928,18.0403969 15.4415811,18.3786142 15.3469599,18.701188 L15.3469599,18.701188 C15.2474139,19.0277813 14.91079,19.2070292 14.5925978,19.1099819 C14.2713638,19.0160487 14.0863944,18.6801852 14.1787705,18.3585167 Z M12.4135427,18.0091942 C12.5563852,17.7003544 12.9076477,17.534457 13.2438568,17.6334136 C13.2447621,17.6336671 13.2456674,17.6339206 13.2466089,17.6342103 C13.6169822,17.7440404 13.8281688,18.1333162 13.7183387,18.5036894 C13.6128903,18.8709123 13.2218039,19.0839819 12.851322,18.9767228 C12.8504529,18.9764694 12.8495838,18.9762159 12.848751,18.9759624 C12.4785226,18.8663858 12.2672273,18.4773997 12.3768039,18.1071713 C12.3769487,18.106773 12.3770574,18.1063747 12.377166,18.1060125 Z M15.9449599,18.0555334 C16.0294056,17.7692437 16.3299627,17.6056393 16.6162524,17.690085 L16.6162524,17.690085 L16.7075347,17.7258461 C16.9362476,17.8403792 17.0575362,18.105413 16.9831493,18.3596031 L16.9831493,18.3596031 C16.8968206,18.6494053 16.5961549,18.8119958 16.3104084,18.7268259 C16.0241187,18.6423802 15.8605142,18.3418231 15.9449599,18.0555334 Z M19.7343766,17.8228262 C19.859307,17.6928262 20.0659671,17.6886981 20.1959671,17.8135922 C20.1981036,17.8155476 20.2002039,17.8175393 20.202268,17.8195309 C20.3306384,17.9435922 20.3341148,18.1481883 20.2100535,18.2765226 L20.2100535,18.2765226 C20.0846162,18.4105058 19.8771231,18.4172774 19.7449504,18.2935058 C19.6128864,18.168322 19.6064407,17.9600685 19.7305019,17.8269543 L19.7305019,17.8269543 Z M10.903024,17.3899262 C10.9975003,17.0697423 11.3336535,16.8867646 11.6538735,16.9812409 C11.9766284,17.0758259 12.1621047,17.4135724 12.0687872,17.7366894 C11.9726451,18.0583579 11.6350435,18.2422772 11.3126145,18.1487061 C11.3121799,18.1485613 11.3117092,18.1484526 11.3112747,18.1483078 L11.2192351,18.1129207 C10.9563348,17.9864991 10.8161955,17.6847075 10.901322,17.3957925 L10.901322,17.3957925 Z M5.25737382,15.8477641 C5.80746574,15.6113741 6.44500891,15.8656526 6.68136267,16.4157446 C6.91963565,16.966778 6.66637103,17.6066749 6.11551866,17.8453825 C5.56397827,18.0826777 4.92440724,17.8285078 4.6862429,17.2773295 L4.6855413,17.2757317 C4.44869415,16.7230733 4.70395042,16.0849507 5.25498384,15.848778 C5.2557805,15.8484521 5.25657716,15.84809 5.25737382,15.8477641 Z M18.0186583,16.9544753 L18.1036841,16.9704136 C18.105024,16.9707758 18.1063276,16.9711741 18.1076674,16.9716086 C18.3316006,17.0399763 18.4576897,17.2769457 18.389322,17.5008788 C18.322946,17.7252827 18.0872802,17.8534721 17.8628039,17.7872409 C17.6381103,17.7195975 17.5088708,17.4845474 17.5721326,17.2585501 C17.6399933,17.032734 17.8773972,16.9040376 18.1036841,16.9704136 Z M26.5565847,14.9423955 C27.2624955,14.9057131 27.8648772,15.4473677 27.9031529,16.1532061 L27.9031529,16.1532061 L27.9033917,16.2874415 C27.870833,16.9340028 27.3531719,17.4636328 26.6927045,17.4972758 L26.6927045,17.4972758 L26.5556116,17.4975779 C25.9096249,17.4646453 25.3807863,16.9471137 25.3475847,16.2871894 C25.3110833,15.5823287 25.8518326,14.9808524 26.5565847,14.9423955 Z M2.52073073,14.9419364 L2.65172117,14.9420334 C3.35708886,14.9797298 3.89881588,15.5813872 3.86253175,16.2868273 C3.8221195,16.9988579 3.21926713,17.5368914 2.51560139,17.4969136 L2.51560139,17.4969136 C1.80769889,17.4588914 1.26734791,16.857234 1.30515292,16.152844 C1.34400808,15.4472953 1.94602758,14.9059666 2.65172117,14.9420334 Z M15.1024911,16.5417758 C15.3359117,16.4166281 15.626583,16.5033914 15.7532153,16.7360515 C15.8774214,16.9675167 15.7940259,17.2603607 15.5593017,17.3831546 C15.5555719,17.3852187 15.5518421,17.3872465 15.548076,17.3892019 C15.3184577,17.5096058 15.034739,17.421032 14.9143351,17.1914136 C14.787232,16.9556031 14.8684911,16.6656198 15.1024911,16.5417758 Z M13.8667669,16.6157925 C14.0762153,16.5088955 14.3373017,16.582188 14.4466972,16.7884136 C14.4479284,16.7906226 14.4491234,16.7928315 14.4502822,16.7950404 C14.5593518,17.0020265 14.4799758,17.258188 14.2730259,17.3672577 C14.0664744,17.4784638 13.8082487,17.4015501 13.6948699,17.193188 C13.5846415,16.9860933 13.6612292,16.7288816 13.8667669,16.6157925 Z M23.244449,15.9726582 C23.5787192,15.7701624 24.0132596,15.8682237 24.228176,16.1946359 C24.4489588,16.5299201 24.3561482,16.9807195 24.0208641,17.2015022 C24.0132234,17.2065357 24.0055103,17.2114242 23.9976886,17.216168 C23.654293,17.4241318 23.207332,17.3144103 22.999332,16.9710148 C22.791332,16.6276192 22.9010897,16.1806582 23.244449,15.9726582 Z M7.57637103,16.0044919 C7.87117047,15.6923109 8.36325125,15.6781883 8.67543231,15.973024 C8.98841003,16.2691632 9.00278607,16.7627287 8.7075883,17.0765755 C8.41101448,17.3884669 7.91864401,17.4034223 7.60367465,17.1101437 C7.60313148,17.109673 7.60262451,17.109166 7.60208134,17.1086591 C7.29011755,16.8121939 7.27755209,16.3189181 7.57405348,16.0069543 L7.57405348,16.0069543 Z M16.2696304,16.0631295 C16.5336136,15.9236783 16.8606777,16.0246365 17.000129,16.2886198 C17.1413184,16.546085 17.0434744,16.8772409 16.7809396,17.0224136 C16.5165942,17.1610682 16.1865607,17.0649986 16.0435607,16.8021379 C16.0423657,16.7999652 16.041207,16.7978287 16.0400482,16.795656 C15.90009,16.5335195 15.9991652,16.207578 16.2613017,16.0676198 L16.2613017,16.0676198 Z M12.6870259,16.3034304 C12.8673602,16.2059847 13.0925245,16.2726504 13.1907669,16.4525501 C13.2869089,16.6351657 13.2193379,16.8611267 13.0387501,16.9609986 C12.8581986,17.0585167 12.6303184,16.9891713 12.5364214,16.8075334 L12.5364214,16.8075334 C12.4379256,16.6199206 12.5072348,16.3977256 12.6870259,16.3034304 Z M9.70821894,16.224344 C9.79201281,15.9378733 10.0916284,15.7730376 10.3784251,15.8556365 C10.6653666,15.9415669 10.8298763,16.2422326 10.7474947,16.530188 C10.7472774,16.5309123 10.7470602,16.5316003 10.7468429,16.5323245 C10.6612747,16.8183607 10.3600295,16.9808426 10.0740295,16.8952744 C10.0730156,16.8949847 10.0720017,16.894695 10.0709877,16.8944053 C9.7857844,16.8095251 9.62333872,16.5095474 9.70821894,16.224344 Z M20.9492429,15.8447983 C21.1169755,15.6669265 21.3968919,15.6578735 21.5757777,15.8245922 C21.7428947,15.9908039 21.7510423,16.2586256 21.5943905,16.4347231 C21.4313292,16.6179905 21.1505799,16.6343944 20.9672763,16.4713331 C20.7896217,16.303166 20.7815465,16.0229237 20.9492429,15.8447983 Z M19.2006778,15.7778484 L19.2693387,15.7902744 C19.4513749,15.8456421 19.5553749,16.0367312 19.5029766,16.2196365 C19.4483331,16.4029401 19.2555421,16.5073384 19.072166,16.4529123 C18.8904557,16.3977981 18.7871437,16.2064916 18.8407008,16.0242744 C18.8955616,15.8422019 19.0865058,15.7379847 19.2693387,15.7902744 Z M17.2980426,15.3569652 C17.5295078,15.2291379 17.8184047,15.3190515 17.946232,15.5508788 C18.072285,15.7816198 17.9863184,16.0773607 17.7537669,16.1979819 C17.7513045,16.1993579 17.7488421,16.2006978 17.7463435,16.2020376 C17.5150231,16.3251936 17.2276471,16.2375251 17.1044911,16.0062409 L17.1044911,16.0062409 C16.978583,15.77311 17.0653462,15.4826198 17.2980426,15.3569652 Z M11.673388,15.6335501 C11.8282292,15.5516393 12.020115,15.6088175 12.1049228,15.7621379 C12.1050677,15.7623914 12.1052125,15.7626448 12.1053212,15.7629345 L12.1322819,15.8310556 C12.1694617,15.9702074 12.1077525,16.121658 11.9752487,16.1925501 C11.9724604,16.1941435 11.9696359,16.1957006 11.9667752,16.1971852 C11.8133825,16.2774304 11.6239953,16.2181156 11.5437501,16.0647228 L11.5437501,16.0647228 C11.4603546,15.9089763 11.5186554,15.7164025 11.673388,15.6335501 Z M4.55276657,13.509466 C5.04644067,13.2669201 5.64328189,13.470466 5.88586407,13.9641401 C6.13094485,14.4585384 5.92884735,15.0580231 5.43444903,15.3031401 C4.93932646,15.5480036 4.33947967,15.3455078 4.09400056,14.8506749 C4.09385571,14.8503852 4.09371086,14.8500955 4.09356602,14.8498058 C3.84931811,14.3556248 4.05195877,13.7570092 4.54613983,13.5127613 C4.54834875,13.5116387 4.55055766,13.5105524 4.55276657,13.509466 Z M9.43659364,14.4356444 L9.51970084,14.4527228 C9.52129415,14.4531936 9.52288747,14.4536643 9.52448078,14.4541351 C9.74696546,14.5204749 9.87348914,14.7546198 9.8071493,14.9770682 C9.74142507,15.2023412 9.50554206,15.3316532 9.28030529,15.2659652 C9.05503231,15.2002409 8.92568412,14.9643579 8.99140836,14.739085 C8.99249471,14.7352103 8.99365348,14.7312994 8.99484847,14.727461 C9.06394039,14.5066421 9.29891811,14.3836671 9.51970084,14.4527228 Z M10.9334744,14.6777061 C11.0628226,14.609266 11.223168,14.6571379 11.2938532,14.7853273 C11.3635245,14.9152187 11.3164855,15.0769763 11.1880426,15.1493273 C11.0578253,15.2176226 10.8969006,15.1695334 10.8254911,15.0409819 L10.8254911,15.0409819 C10.7548421,14.9096783 10.8035106,14.7476309 10.9334744,14.6777061 Z M18.0394047,14.3642577 C18.2468978,14.2530877 18.5051958,14.3303635 18.6175607,14.5372409 C18.7255078,14.7463273 18.6518532,15.0019819 18.440232,15.1157228 C18.233934,15.2253719 17.9778448,15.1489652 17.8653351,14.944188 C17.7545997,14.7358621 17.8322376,14.4772019 18.0394047,14.3642577 Z M6.85796713,13.8926618 C7.12086407,13.6134334 7.5601844,13.599854 7.83981114,13.8623164 C8.11929304,14.125829 8.13240167,14.565946 7.86907019,14.8456089 C7.60689749,15.1244028 7.16851866,15.1384891 6.88831253,14.8737816 C6.60973593,14.6108847 6.59619276,14.1722524 6.85796713,13.8926618 Z M23.8106914,13.3376777 C24.2467164,13.093466 24.7981844,13.2489591 25.0424323,13.6850203 L25.0424323,13.6850203 C25.2876217,14.1249563 25.1312958,14.6747947 24.6957777,14.9174855 C24.6951259,14.9178476 24.6944741,14.9182097 24.6938585,14.9185719 C24.2585214,15.1632543 23.7072708,15.0086666 23.4625883,14.5733295 C23.2177248,14.1367251 23.3726747,13.5842794 23.8088808,13.3386916 C23.8094602,13.3383657 23.8100758,13.3380398 23.8106914,13.3376777 Z M19.9240701,14.3017329 L19.9825281,14.3111713 L19.9825281,14.3111713 C20.1205671,14.3528872 20.1971549,14.4957786 20.1562357,14.6311379 C20.1558735,14.6324053 20.1554752,14.6337089 20.1551131,14.6350125 C20.1144474,14.770227 19.9718819,14.8469234 19.8366674,14.8062577 C19.7017788,14.7643969 19.6249738,14.6225195 19.6636841,14.4866894 C19.7043136,14.3510042 19.8461911,14.2729318 19.9825281,14.3111713 Z M21.5161733,13.5596953 C21.7235577,13.3406869 22.0688362,13.3300407 22.2893292,13.535868 C22.2905242,13.5369905 22.2917192,13.5381131 22.2929142,13.5392719 C22.5107638,13.745751 22.5199978,14.0897259 22.3135187,14.3075755 L22.3135187,14.3075755 C22.1045047,14.5282496 21.7595883,14.5376284 21.5410869,14.3306786 C21.3225855,14.1240908 21.3114685,13.779971 21.5161733,13.5596953 Z M27.0466014,11.6075515 C27.8138187,11.6061393 28.4369134,12.2269526 28.4383256,12.9942061 L28.4383256,12.9996379 C28.4379273,13.7689192 27.8140721,14.3922674 27.0447908,14.3920502 C26.2758354,14.3910724 25.6532114,13.7671086 25.6537891,12.9981894 C25.6525958,12.2313343 26.2732643,11.6087465 27.0400833,11.6075153 L27.0466014,11.6075515 Z M2.16749833,11.6075503 C2.93431727,11.6087465 3.55498579,12.2313343 3.55379253,12.9981894 C3.55418914,13.7667465 2.93210836,14.3904568 2.16351504,14.3920501 C1.39477688,14.3912535 0.771573538,13.7687019 0.769980223,13 L0.769980223,13 C0.77099415,12.2288357 1.39488552,11.6065376 2.16351504,11.6075503 L2.16351504,11.6075503 Z M10.4867669,13.4412577 C10.6423323,13.3579345 10.8359563,13.4154387 10.9208365,13.5701713 C10.9225747,13.5733217 10.9242766,13.5765084 10.9259423,13.579695 C11.0050649,13.7334499 10.9445552,13.9222214 10.7908365,14.001344 L10.78741,14.0032406 C10.6308532,14.0867312 10.4405607,14.0287925 10.3589396,13.8756894 C10.2757975,13.7202688 10.3327223,13.5268983 10.4867669,13.4412577 Z M18.428246,13.2034554 C18.6085078,13.1070599 18.8328031,13.1750292 18.9291986,13.3553273 C19.0277669,13.5351546 18.9627669,13.7615501 18.7814911,13.8601546 C18.6027501,13.9558259 18.3694744,13.8901017 18.2734047,13.712085 C18.1779145,13.5293607 18.2459201,13.3038343 18.4265078,13.2043607 C18.4270872,13.204071 18.4276666,13.2037451 18.428246,13.2034554 Z M9.10640738,12.8129001 L9.17521894,12.825188 C9.35779833,12.8793607 9.46190696,13.0712465 9.40777047,13.2538259 C9.40744457,13.2549485 9.40711866,13.2560348 9.40679276,13.2571212 C9.35222173,13.4381435 9.16124123,13.5406226 8.98021894,13.4860515 C8.97982061,13.4859429 8.9794585,13.4858343 8.97909638,13.4857256 L8.91460674,13.4596567 C8.77333415,13.3851176 8.69904415,13.2192573 8.74549471,13.0599123 C8.8008624,12.8776588 8.99195153,12.7732967 9.17521894,12.825188 Z M20.163707,12.499702 L20.2324251,12.5125 C20.4151131,12.5662382 20.5196201,12.7579067 20.4658819,12.9405947 C20.4121437,13.1232465 20.2204752,13.2277897 20.0377872,13.1740515 C20.036556,13.1736894 20.0352886,13.1733273 20.0340574,13.1729652 C19.8525281,13.1187563 19.7492524,12.9276671 19.8034251,12.7461379 C19.8577788,12.5634861 20.0495198,12.4590515 20.2324251,12.5125 Z M10.4368309,12.1331462 C10.6177084,12.0357368 10.843271,12.1034164 10.9406805,12.2842577 C11.0378365,12.4622744 10.9692153,12.6916031 10.7897501,12.7898092 C10.6081123,12.8866031 10.3834911,12.8205167 10.2834744,12.6370682 C10.1872599,12.4572409 10.2537808,12.2335251 10.4325942,12.1354638 L10.4325942,12.1354638 Z M4.55707577,11.0568838 C5.00012591,10.8242961 5.54782786,10.9948532 5.78045181,11.4379033 C6.01303955,11.8809173 5.84248245,12.4286554 5.39943231,12.6612432 C4.96456602,12.9037167 4.41556045,12.7497084 4.1702624,12.3164354 C3.92384178,11.8811708 4.07690864,11.328544 4.51217326,11.0821234 C4.52691142,11.0732877 4.54186685,11.0648866 4.55707577,11.0568838 Z M6.89953816,11.7096033 C7.10098384,11.4846925 7.44662451,11.4656813 7.67153538,11.667127 C7.88978329,11.8750908 7.8997415,12.2200072 7.69395042,12.4402468 C7.48584178,12.6585671 7.14059944,12.6680908 6.92079443,12.4615755 C6.71500334,12.2564 6.70566072,11.9260769 6.89953816,11.7096033 Z M23.7745883,10.6975552 C24.2690953,10.4528365 24.8683989,10.6548253 25.1139504,11.148934 C25.1147109,11.1504911 25.1154713,11.1520482 25.116268,11.1536415 C25.3590312,11.6469897 25.1558836,12.2437223 24.6625354,12.4864855 C24.6608696,12.4873184 24.6591677,12.4881513 24.6574657,12.4889841 C24.1635744,12.7320008 23.56619,12.5286359 23.3231733,12.0347446 C23.0793237,11.5407808 23.2812039,10.9426359 23.7745883,10.6975552 Z M18.4926805,11.9625287 C18.6323004,11.9245255 18.7847398,11.9857646 18.8565942,12.1185167 C18.9385774,12.2712577 18.8786109,12.4662577 18.7215607,12.5565334 C18.5666109,12.6362354 18.3763908,12.5773189 18.2936471,12.4239986 L18.2936471,12.4239986 C18.2090928,12.2620961 18.2692766,12.0708259 18.4243351,11.9899652 L18.4243351,11.9899652 Z M21.3421398,11.1532468 C21.6028279,10.8858596 22.028424,10.8728596 22.3049727,11.1238067 C22.5886914,11.3812719 22.6099838,11.8199766 22.3525187,12.1036953 C22.3520841,12.104166 22.3516134,12.1046368 22.3511788,12.1051075 C22.0887164,12.3833582 21.6503376,12.3961409 21.3720869,12.1336786 L21.3720869,12.1336786 C21.0922067,11.8693694 21.0796412,11.431244 21.3421398,11.1532468 Z M9.31406716,11.1853283 L9.37268586,11.1957023 L9.37268586,11.1957023 C9.50959777,11.2359652 9.58756156,11.3788565 9.54751142,11.515085 C9.50742507,11.6516031 9.3651493,11.7310515 9.22721894,11.6913273 L9.22721894,11.6913273 L9.17231514,11.6675338 C9.07076445,11.608772 9.01908961,11.4859656 9.05459777,11.3688259 L9.05459777,11.3688259 C9.09511866,11.232344 9.23703231,11.1554304 9.37202953,11.1955167 Z M10.7713184,10.8788092 C10.978232,10.7687618 11.235154,10.8451323 11.348388,11.050344 L11.348388,11.050344 C11.4598838,11.2590682 11.3815217,11.5172214 11.1739563,11.6281379 C10.968129,11.7404304 10.7099396,11.6609819 10.5961986,11.4555167 C10.4873825,11.2476978 10.56531,10.9910292 10.7713184,10.8788092 Z M19.8502949,10.7200983 L19.9348735,10.7365334 C20.1605811,10.8015334 20.2887705,11.037344 20.222322,11.2634136 C20.1558735,11.4894471 19.9211493,11.6194471 19.6936674,11.5522744 C19.6923276,11.5519123 19.6909877,11.5515139 19.6896479,11.5511156 C19.4648095,11.483617 19.3372719,11.2466476 19.4047705,11.0218092 C19.4726312,10.7962827 19.7099265,10.6688175 19.9348735,10.7365334 Z M18.0245942,10.8445167 C18.155934,10.7770543 18.317076,10.8275696 18.3864214,10.9578955 C18.3873992,10.9596699 18.3883407,10.9614443 18.3892822,10.9632549 C18.4558393,11.0914081 18.4059033,11.2492187 18.2777501,11.3157758 C18.1520593,11.385085 17.9895774,11.3381546 17.9209563,11.2085167 C17.8491123,11.0817758 17.9007501,10.9163607 18.0245942,10.8445167 Z M26.5620252,8.50067029 L26.6927045,8.50127577 L26.6927045,8.50127577 C27.4009329,8.53926184 27.9413201,9.14091922 27.903515,9.84530919 C27.9031891,9.85291365 27.9027908,9.86048189 27.9023201,9.86805014 C27.8590471,10.5735265 27.2520666,11.1103649 26.5465903,11.0670919 C25.8411139,11.0238189 25.3043117,10.4168022 25.3475847,9.71132591 L25.3475847,9.71132591 C25.3866571,9.00168524 25.9887852,8.46245682 26.6927045,8.50127577 Z M2.65287769,8.50015164 C3.29943064,8.53280781 3.82899067,9.05053256 3.86253175,9.711 C3.89943148,10.416766 3.35748719,11.0189666 2.65172117,11.0564819 C1.94541198,11.0935627 1.34266825,10.5512563 1.30515292,9.84494708 L1.30515292,9.84494708 C1.26857911,9.13820334 1.8105234,8.53705292 2.51560139,8.50055153 L2.51560139,8.50055153 Z M11.4655329,9.7902493 C11.6984103,9.66698468 11.9870538,9.75581198 12.1103184,9.98868942 C12.1112599,9.99042758 12.1122014,9.99216574 12.1131067,9.9939039 C12.2352487,10.2266727 12.1455524,10.5143747 11.9127836,10.6365167 C11.680232,10.7625334 11.3935078,10.6747925 11.267129,10.4440515 C11.2660788,10.4420961 11.2650287,10.4401769 11.2640148,10.4382214 C11.1403156,10.2049457 11.2291791,9.91554178 11.4624911,9.79187883 C11.463505,9.79133565 11.4645189,9.79079248 11.4655329,9.7902493 Z M17.2416972,9.79629666 C17.3964298,9.7134805 17.5890036,9.77181755 17.6717836,9.92655014 C17.7545635,10.0830209 17.6969507,10.2769345 17.5421457,10.3627925 C17.3851318,10.4439429 17.1920148,10.3855696 17.1063017,10.2309819 C17.0233045,10.0743301 17.0828727,9.88045265 17.2391986,9.79763649 C17.2400315,9.79720195 17.2408643,9.7967312 17.2416972,9.79629666 Z M7.61881114,9.54631643 C7.78665237,9.36840836 8.06689471,9.36026072 8.24480279,9.52806574 C8.42271086,9.69590696 8.4308585,9.97618552 8.26305348,10.1540574 C8.09405348,10.3306618 7.81453538,10.3375058 7.63869136,10.1714028 C7.45922618,10.0024028 7.44908691,9.7232468 7.61881114,9.54631643 Z M24.511605,8.75353008 C24.7305409,9.29355515 24.4849894,9.91020418 23.9547777,10.1519173 C23.4030201,10.3890677 22.763449,10.1343546 22.5258641,9.58277799 C22.2880981,9.03221532 22.5416524,8.39318747 23.092215,8.15542145 C23.0931203,8.15502312 23.0940618,8.15462479 23.0949671,8.15422646 C23.6516496,7.92851894 24.2858975,8.19684763 24.511605,8.75353008 Z M20.5021733,8.92304067 C20.7986747,8.61031643 21.2933627,8.59333315 21.6046747,8.88874819 C21.6050368,8.88907409 21.6053989,8.88943621 21.6057972,8.88979833 L21.6839889,8.97504374 C21.9198568,9.27370728 21.9077304,9.70800826 21.6390396,9.99342228 C21.3434435,10.3073415 20.849371,10.3222245 20.5354156,10.0266284 C20.2214964,9.73106852 20.2066134,9.23695989 20.5021733,8.92304067 Z M10.0691731,9.53398165 L10.1379432,9.54596518 C10.3192189,9.60227437 10.4275281,9.7933273 10.3704947,9.97496518 C10.3135337,10.1467535 10.1334891,10.2452855 9.95807967,10.2006727 C9.77350864,10.1536699 9.6619766,9.96598468 9.70894318,9.78141365 C9.76431086,9.59948607 9.95471198,9.49497911 10.1379432,9.54596518 Z M18.4658735,9.47082591 C18.5518763,9.18620195 18.8507677,9.02361142 19.1364418,9.10613788 C19.1382524,9.10664485 19.1400267,9.10715181 19.1418011,9.10769499 C19.4258819,9.19206825 19.5877482,9.49081476 19.5033387,9.77489554 C19.4194,10.0614025 19.1190602,10.2255864 18.8325894,10.1416114 C18.5460825,10.0576365 18.3818986,9.75733287 18.4658735,9.47082591 Z M5.18853538,8.79774457 C5.52747688,8.58282813 5.97646574,8.68338802 6.19134596,9.02232953 L6.19134596,9.02232953 C6.4065883,9.36275571 6.30530418,9.81217911 5.96563844,10.0269507 C5.62651588,10.2410343 5.17803398,10.1396777 4.96395042,9.80055515 C4.74903398,9.46161365 4.84959387,9.01262479 5.18853538,8.79774457 Z M13.1675552,9.19033008 C13.168207,9.19148886 13.1688226,9.19268384 13.1694744,9.19387883 C13.3103017,9.45641365 13.2145942,9.78572284 12.950973,9.92799861 C12.6862292,10.0701295 12.3563769,9.97087326 12.2139563,9.70627437 C12.0695078,9.44413788 12.1691986,9.11406825 12.4320593,8.97251671 C12.6953184,8.82955292 13.0245914,8.92707103 13.1675552,9.19033008 Z M16.1756972,9.03244708 C16.3567919,8.93681198 16.5810872,9.00517967 16.6780259,9.18555014 C16.7769563,9.36613788 16.7108699,9.59144708 16.5256109,9.68968942 C16.350129,9.78825766 16.1197501,9.72217131 16.0218699,9.54089554 C15.9258365,9.3578454 15.9942766,9.1315585 16.1756972,9.03244708 Z M13.6489173,8.62738301 C13.8779925,8.49481198 14.1711262,8.57302925 14.3036972,8.80206825 C14.4285552,9.03548886 14.3426248,9.32590669 14.1108699,9.45387883 L14.1108699,9.45387883 C13.8764354,9.57906267 13.5854744,9.49066992 13.4605078,9.25670613 C13.3470203,9.03009331 13.429583,8.75434123 13.6489173,8.62738301 Z M14.9464187,8.62597075 C15.151739,8.51632173 15.4070315,8.59388719 15.5166805,8.79917131 C15.5170426,8.79985933 15.5174047,8.80051114 15.5177669,8.80119916 C15.627778,9.00854735 15.5489089,9.26583148 15.3415607,9.37587883 C15.3400036,9.3767117 15.3384465,9.37754457 15.3368894,9.37837744 C15.1321847,9.48737465 14.8778337,9.40980919 14.7688365,9.20506825 L14.7688365,9.20506825 C14.6570872,8.99743036 14.734363,8.74014624 14.9406972,8.62908496 L14.9406972,8.62908496 Z M11.2650541,8.19755368 L11.3494418,8.21344708 C11.5748596,8.28040251 11.704244,8.51646657 11.6394251,8.7425 C11.5723248,8.96770056 11.3361521,9.09668663 11.1104084,9.03136072 C11.1094669,9.03110724 11.1085616,9.03081755 11.1076201,9.03056407 C10.8830713,8.96360864 10.7552802,8.72729109 10.8222357,8.50270613 L10.8222357,8.50270613 C10.8891549,8.27565877 11.1248568,8.14725209 11.3494418,8.21344708 Z M17.1445811,8.26617131 C17.2394557,7.94280084 17.578361,7.75743315 17.9018039,7.85198189 C17.9028178,7.85227159 17.903868,7.85256128 17.9048819,7.85288719 C18.2255727,7.94852228 18.4080435,8.28601532 18.3124084,8.60670613 C18.2183666,8.92920752 17.8807287,9.11439415 17.5582273,9.02035237 C17.2357259,8.92631058 17.0505393,8.5886727 17.1445811,8.26617131 Z M20.2721565,6.97821894 L20.2739671,6.97988468 C20.6347805,7.32139721 20.651112,7.89050028 20.3104323,8.25211031 C19.969644,8.61154763 19.4021343,8.62704624 19.0422262,8.2867649 C18.6823905,7.94887354 18.6646468,7.3832468 19.0025382,7.02344735 C19.0039504,7.02192646 19.0053989,7.02040557 19.0068111,7.01888468 C19.3449922,6.65825237 19.9115242,6.64003788 20.2721565,6.97821894 Z M16.3634947,7.02791226 C16.7333248,7.1379234 16.9440045,7.52690947 16.8340295,7.89677577 C16.7252858,8.26494011 16.3386535,8.47529387 15.9704529,8.36655014 C15.9696563,8.36633287 15.9688596,8.36607939 15.968063,8.36582591 C15.5990295,8.25929109 15.3862496,7.87374513 15.4928206,7.5047117 L15.4946674,7.49844708 C15.6046423,7.12861699 15.9936284,6.91793733 16.3634947,7.02791226 Z M12.2287705,7.63999861 C12.3152802,7.35446936 12.6152217,7.19144429 12.9018735,7.27418802 C13.1863889,7.36073398 13.3493053,7.65900975 13.2684084,7.9451546 C13.2679376,7.9467117 13.2675031,7.9482688 13.2670323,7.94982591 C13.181971,8.2345585 12.8821744,8.39638858 12.597478,8.3113273 C12.3108624,8.22702646 12.1460992,7.92708496 12.2287705,7.63999861 Z M9.00043231,7.71979833 C9.12579721,7.58820501 9.333761,7.58208524 9.46662173,7.70611031 C9.59864958,7.83162006 9.60411755,8.04034429 9.47889749,8.17266184 C9.4779922,8.17363955 9.47708691,8.17458106 9.4761454,8.17555877 C9.35107019,8.30621058 9.14372201,8.31073705 9.01307019,8.18566184 C9.01263565,8.1852273 9.01220111,8.18482897 9.01176657,8.18439443 C8.88035432,8.0592468 8.87528468,7.8512468 9.00043231,7.71979833 Z M13.8659376,7.29678412 C13.9620435,6.97580362 14.3001521,6.79351393 14.6211326,6.88961978 C14.6227983,6.89009053 14.6244641,6.89059749 14.6261298,6.89110446 C14.9463136,6.98771727 15.1275894,7.32557242 15.0309766,7.64579248 C14.9351967,7.9671351 14.597776,8.15076462 14.2758903,8.05672284 C14.2749125,8.05643315 14.2738986,8.05614345 14.2729209,8.05585376 C13.9517955,7.96025487 13.7689989,7.62239972 13.8645978,7.30127437 C13.8650323,7.29978969 13.8654669,7.2982688 13.8659376,7.29678412 Z M21.8833599,6.03576964 C22.4001733,5.84515125 22.9736579,6.10956908 23.1642763,6.62638245 C23.3558362,7.14392006 23.0915994,7.71874457 22.5740618,7.91030446 C22.0565242,8.10186435 21.4816997,7.83759136 21.2901398,7.32005376 L21.2901398,7.32005376 C21.0989058,6.7983156 21.3642652,6.22598969 21.8808975,6.03667493 C21.8817304,6.03638524 21.8825632,6.03605933 21.8833599,6.03576964 Z M3.70870446,5.62429248 C4.3260415,5.57457382 4.87374345,6.01820334 4.95326435,6.63242618 C5.03560975,7.26830362 4.58687437,7.85051532 3.95099694,7.93286072 C3.95052618,7.93293315 3.95001922,7.93296936 3.94951226,7.93304178 C3.31280195,7.99949025 2.74275738,7.53717549 2.67630891,6.90046518 C2.67609164,6.89872702 2.67591058,6.89695265 2.67572953,6.89521448 C2.6100415,6.25901114 3.07250111,5.69001671 3.70870446,5.62429248 Z M6.46930696,6.70499805 C6.73930139,6.51582813 7.11152145,6.5813351 7.30069136,6.85132953 L7.30069136,6.85132953 L7.3505468,6.93540458 C7.47701011,7.19459869 7.40078412,7.51464095 7.15769136,7.68658858 C6.88773315,7.87775014 6.5139922,7.81441588 6.32207019,7.54503705 C6.32112869,7.54369721 6.32015097,7.54235738 6.31920947,7.54101755 C6.12946017,7.27069721 6.19474986,6.89775292 6.46507019,6.70796741 C6.46648245,6.70698969 6.46789471,6.70597577 6.46930696,6.70499805 Z M17.1888752,5.79579833 C17.484761,5.48354485 17.9777833,5.47029136 18.2900006,5.76621337 C18.6026524,6.06242507 18.6168836,6.55570084 18.3217944,6.86940279 C18.0253292,7.18227187 17.5316914,7.19664791 17.2175187,6.90152256 L17.2175187,6.90152256 L17.1394941,6.81615586 C16.904321,6.51714435 16.9172973,6.08305586 17.186449,5.79833315 C17.1872457,5.79750028 17.1880423,5.7966312 17.1888752,5.79579833 Z M10.741346,6.2305922 C10.9097304,6.05373426 11.1892123,6.04569526 11.3675187,6.21252256 C11.5441231,6.38018273 11.5521621,6.6589766 11.3855883,6.83652256 C11.217566,7.0139961 10.9377582,7.022361 10.7594156,6.85531643 C10.5827387,6.68740279 10.5746635,6.40842786 10.741346,6.2305922 Z M15.0338808,5.2122468 C15.2973209,4.93464791 15.7355187,4.92190139 16.0146384,5.18374819 C16.293034,5.44697103 16.3062875,5.88571198 16.0442596,6.16523008 C15.7842596,6.42446964 15.367463,6.43663677 15.092761,6.19304067 C14.8056747,5.93847242 14.7793125,5.49936936 15.0338808,5.2122468 Z M12.8379671,5.38305738 C13.0450256,5.16451978 13.3896886,5.15401838 13.6096384,5.3595922 C13.8282123,5.56690418 13.8388585,5.91160334 13.6335019,6.13202396 C13.4265883,6.35092368 13.0818167,6.36189582 12.8614323,6.15657549 L12.8614323,6.15657549 L12.7956949,6.08257283 C12.6416336,5.87391278 12.6538508,5.57860056 12.8379671,5.38305738 Z M20.1408529,4.34272786 C20.6173627,4.19531003 21.1231677,4.4620454 21.2706217,4.93855515 C21.4017805,5.40195627 21.1475744,5.88701198 20.6918864,6.04293955 C20.2182735,6.20498691 19.7029448,5.95237409 19.5408975,5.47876128 L19.5408975,5.47876128 C19.392176,4.99870279 19.6591649,4.49199248 20.1363627,4.34414011 L20.1363627,4.34414011 Z M8.28905348,5.01184763 C8.49256323,4.85164708 8.78725404,4.88601198 8.94843231,5.08876128 C9.10932089,5.29212618 9.07484735,5.58736017 8.87151866,5.74821253 C8.66815376,5.9090649 8.37291978,5.87459136 8.21210362,5.67126267 C8.05125125,5.46793398 8.08568858,5.1727 8.28905348,5.01184763 Z M23.4403659,3.27448073 L23.5488772,3.28284401 C23.5496738,3.28295265 23.5504343,3.28309749 23.5512309,3.28320613 C24.0579412,3.36424791 24.4030387,3.84068524 24.3219969,4.34739554 C24.2413897,4.85515599 23.765061,5.20191922 23.2570833,5.12268802 C22.7670304,5.03353482 22.4338103,4.57469638 22.5006209,4.08109471 C22.5696766,3.57119777 23.0389802,3.21382451 23.5488772,3.28284401 Z M5.6634844,3.28211978 C6.17091894,3.20187465 6.64735627,3.54816713 6.72760139,4.05563788 C6.80770167,4.56397772 6.46090223,5.04117549 5.95267103,5.122 C5.44480195,5.20181058 4.96836462,4.8548663 4.8884454,4.34703343 L4.8884454,4.34703343 C4.80820028,3.83807799 5.15434791,3.36240111 5.66123928,3.28248189 L5.66123928,3.28248189 Z M18.0159142,3.26792841 C18.4039588,3.16972228 18.7981231,3.4047 18.8963292,3.79274457 C18.9956579,4.18162201 18.7608975,4.57741588 18.3719838,4.67674457 C17.9830702,4.77603705 17.5873125,4.54131281 17.4879838,4.15239916 C17.4876217,4.15091448 17.4872234,4.14942981 17.4868613,4.14794513 C17.3892708,3.75997298 17.624683,3.36635181 18.0126914,3.26876128 C18.0137415,3.26847159 18.0148279,3.26821811 18.0159142,3.26792841 Z M10.5863237,3.67951058 C10.8075772,3.58420139 11.0642095,3.68631838 11.1595187,3.90757187 C11.2552262,4.12857187 11.1519504,4.38567493 10.9305883,4.48102033 C10.7094072,4.57643816 10.4527387,4.47450223 10.3573209,4.25332117 C10.2618669,4.03214011 10.3638028,3.7755078 10.5849838,3.68005376 C10.5854184,3.6798727 10.5858529,3.67969164 10.5863237,3.67951058 Z M15.6198947,2.76096462 C15.9438084,2.69755794 16.2578,2.90874457 16.3212429,3.23265822 C16.3721203,3.54389777 16.1734267,3.84141309 15.8664602,3.91365543 C15.5438139,3.98962758 15.2206969,3.78966657 15.1447248,3.46702033 C15.1443989,3.46539081 15.144073,3.46376128 15.1437471,3.46209554 C15.0807749,3.13832674 15.2921788,2.82476964 15.6159838,2.76176128 C15.6172875,2.7615078 15.6185911,2.76121811 15.6198947,2.76096462 Z M13.1309198,2.92503983 C13.3868641,2.8874883 13.6248111,3.06449109 13.6623627,3.32039916 C13.6995521,3.57685042 13.5219337,3.81494234 13.2655187,3.85231281 C13.0095382,3.89000919 12.7714825,3.71304262 12.7337861,3.45706212 C12.6960897,3.20111783 12.8730563,2.96302591 13.1290006,2.92532953 L13.1290006,2.92532953 Z M20.0759579,2.05783844 C20.1658716,1.64469916 20.5736515,1.38267131 20.9867908,1.47258496 C20.9881669,1.47287465 20.9895429,1.47316435 20.9909189,1.47349025 C21.4042755,1.56242618 21.6672448,1.96962674 21.5783089,2.38294708 C21.4897351,2.79807799 21.0814482,3.06282173 20.6663173,2.97428412 C20.2511864,2.88571031 19.9864426,2.4774234 20.0749802,2.06229248 L20.0749802,2.06229248 Z M8.22575181,1.4708468 C8.63979638,1.3832507 9.04645376,1.64788579 9.13404986,2.06193036 C9.22229777,2.47724234 8.95715571,2.88549304 8.54180752,2.97374095 C8.12700251,3.06188022 7.71925877,2.79706407 7.63108329,2.38222284 C7.54294401,1.96741783 7.80776017,1.55967409 8.22260139,1.47149861 C8.22365153,1.47128134 8.22470167,1.47106407 8.22575181,1.4708468 Z M17.8826507,0.389514727 L17.9794454,0.402963788 C17.9798799,0.403072423 17.9802783,0.403181058 17.9806766,0.403289694 L18.0727119,0.435968181 C18.3362552,0.554401838 18.4827953,0.84961337 18.4059468,1.13784401 L18.4059468,1.13784401 C18.3191111,1.45918663 17.9894398,1.64864624 17.669256,1.56213649 C17.3718493,1.46874652 17.1953535,1.16330084 17.2629607,0.858977716 C17.3349134,0.535208914 17.6556766,0.331047354 17.9794454,0.402963788 Z M11.230671,0.402493036 C11.5506014,0.316562674 11.8795847,0.506275766 11.965515,0.826206128 C12.0512643,1.14700557 11.8607546,1.47656825 11.5399552,1.56231755 C11.2191557,1.64810306 10.889593,1.4575571 10.8038075,1.13675766 L10.8038075,1.13675766 C10.7186376,0.815958217 10.9090749,0.487880223 11.2288604,0.402963788 L11.2288604,0.402963788 Z M14.604515,-5.68434189e-14 C14.9136181,-5.68434189e-14 15.1646014,0.248050139 15.1646014,0.558275766 C15.1646014,0.867740947 14.9136181,1.11727577 14.604515,1.11727577 C14.3115624,1.10673816 14.0765123,0.871651811 14.0659747,0.578699164 C14.0548577,0.270175487 14.2959914,0.0110807799 14.604515,-5.68434189e-14 Z" id="reuters" fill="#231F20"></path>
    </g>
</svg>