<?xml version="1.0" encoding="UTF-8"?>
<svg width="183px" height="25px" viewBox="0 0 183 25" version="1.1" xmlns="http://www.w3.org/2000/svg" xmlns:xlink="http://www.w3.org/1999/xlink">
    <title>stackoverflow</title>
    <g id="Logos" stroke="none" stroke-width="1" fill="none" fill-rule="evenodd">
        <path d="M177.635006,24.1199636 L174.270725,24.1199636 L170.843521,13.8380794 L167.416226,24.1199636 L164.051945,24.1199636 L159.020961,7.73730694 L163.360329,7.73730694 L166.000765,17.86265 L169.334533,7.73730694 L172.321002,7.73730694 L175.685735,17.86265 L178.327074,7.73730694 L182.634664,7.73730694 L177.635006,24.1195122 L177.635006,24.1199636 Z M157.435869,22.2963583 C156.429546,23.3653341 154.762842,24.3086436 152.341871,24.3086436 C149.92099,24.3086436 148.286425,23.3653341 147.279651,22.2963583 C145.802079,20.7556826 145.424268,18.8999384 145.424268,15.9134687 C145.424268,12.9577835 145.802079,11.1024908 147.280102,9.56136369 C148.285974,8.49247817 149.920538,7.54907837 152.341871,7.54907837 C154.762842,7.54907837 156.429455,8.49247817 157.435869,9.56136369 C158.913892,11.1024908 159.291703,12.9577835 159.291703,15.9134687 C159.291703,18.8999384 158.913892,20.7556826 157.435869,22.2963583 L157.435869,22.2963583 Z M154.260268,11.9514603 C153.788568,11.4797604 153.159604,11.2285182 152.341871,11.2285182 C151.524589,11.2285182 150.926952,11.4797604 150.455252,11.9514603 C149.606282,12.8004299 149.511852,14.2149879 149.511852,15.9134687 C149.511852,17.6114078 149.606192,19.0577435 150.455252,19.9062616 C150.926952,20.3779615 151.524589,20.6296552 152.341871,20.6296552 C153.159604,20.6296552 153.788658,20.3784129 154.260268,19.9062616 C155.108876,19.0577435 155.203577,17.6114078 155.203577,15.9134687 C155.203577,14.2149879 155.108876,12.8004299 154.260268,11.9514603 L154.260268,11.9514603 Z M132.76953,10.8573874 L132.76953,24.1199636 L128.681946,24.1199636 L128.681946,10.8573874 L126.984368,10.8573874 L126.984368,7.74525136 L128.681946,7.74525136 L128.681946,5.70082725 C128.681946,3.3741957 130.128191,1.01587674 133.461146,1.01587674 L135.78868,1.01587674 L135.78868,4.47449778 L134.215866,4.47449778 C133.241681,4.47449778 132.769981,5.00921137 132.769981,5.9525209 L132.769981,7.74479997 L135.788229,7.74479997 L135.788229,10.8573874 L132.769981,10.8573874 L132.76953,10.8573874 Z M142.511464,24.1199636 C139.147183,24.1199636 137.732174,21.7616447 137.732174,19.434652 L137.732174,1.03483502 L141.819758,1.03483502 L141.819758,19.1828681 C141.819758,20.1579553 142.228444,20.6609815 143.265643,20.6609815 L144.838006,20.6609815 L144.838006,24.1199636 L142.511464,24.1199636 Z M122.773825,12.2027026 C122.144772,11.573649 121.610509,11.2285182 120.604547,11.2285182 C119.346531,11.2285182 117.962847,12.1713763 117.962847,14.2467656 L117.962847,24.1199636 L113.875173,24.1199636 L113.875173,7.73730694 L117.868959,7.73730694 L117.868959,9.30967004 C118.654463,8.36636051 120.227278,7.54862698 121.987869,7.54862698 C123.591469,7.54862698 124.723007,7.95731319 125.855447,9.08975406 L122.774186,12.2022512 L122.773825,12.2027026 Z M101.588587,17.2023604 C101.588587,19.3094371 102.87793,20.8495712 105.173235,20.8495712 C106.965514,20.8495712 107.84581,20.3470866 108.883911,19.3089857 L111.367896,21.729867 C109.701193,23.3961187 108.097052,24.3086436 105.141909,24.3086436 C101.27424,24.3086436 97.5640159,22.5480519 97.5640159,15.9134687 C97.5640159,10.5677772 100.456597,7.54907837 104.701084,7.54907837 C109.260819,7.54907837 111.839144,10.8820331 111.839144,15.3787551 L111.839144,17.2023604 L101.588587,17.2023604 Z M107.437214,12.6430762 C106.997292,11.6684404 106.085218,10.9451371 104.701084,10.9451371 C103.318303,10.9451371 102.405778,11.667989 101.966308,12.6430762 C101.714162,13.2403521 101.619823,13.6802743 101.588587,14.4041193 L107.814574,14.4041193 C107.782796,13.6802743 107.688908,13.2403521 107.437214,12.6430762 L107.437214,12.6430762 Z M91.7418398,24.1199636 L88.5349124,24.1199636 L82.497605,7.73730694 L86.8051956,7.73730694 L90.1386018,17.86265 L93.4402303,7.73730694 L97.7473694,7.73730694 L91.7422009,24.1195122 L91.7418398,24.1199636 Z M80.6999996,22.2963583 C79.6936764,23.3653341 78.0274247,24.3086436 75.6064531,24.3086436 C73.1851205,24.3086436 71.5501048,23.3653341 70.5437816,22.2963583 C69.0662099,20.7556826 68.68885,18.8999384 68.68885,15.9134687 C68.68885,12.9577835 69.0662099,11.1024908 70.5437816,9.56136369 C71.5501048,8.49247817 73.1851205,7.54907837 75.6064531,7.54907837 C78.0274247,7.54907837 79.6936764,8.49247817 80.6999996,9.56136369 C82.1780227,11.1024908 82.555834,12.9577835 82.555834,15.9134687 C82.555834,18.8999384 82.1780227,20.7556826 80.6999996,22.2963583 L80.6999996,22.2963583 Z M77.5243985,11.9514603 C77.0526986,11.4797604 76.4237353,11.2285182 75.6064531,11.2285182 C74.7887196,11.2285182 74.1914437,11.4797604 73.7197438,11.9514603 C72.8703229,12.8004299 72.7764343,14.2149879 72.7764343,15.9134687 C72.7764343,17.6114078 72.8703229,19.0577435 73.7197438,19.9062616 C74.1914437,20.3779615 74.7887196,20.6296552 75.6064531,20.6296552 C76.4237353,20.6296552 77.0526986,20.3784129 77.5243985,19.9062616 C78.3729166,19.0577435 78.467708,17.6114078 78.467708,15.9134687 C78.467708,14.2149879 78.3730069,12.8004299 77.5243985,11.9514603 L77.5243985,11.9514603 Z M64.9367368,24.1098525 L59.7611281,15.748622 L56.5763187,19.3984507 L56.5763187,24.1098525 L54.1875762,24.1098525 L54.1875762,0.486940909 L56.5767701,0.486940909 L56.5767701,16.2792731 L63.9417885,7.78623734 L66.9278069,7.78623734 L61.3868452,14.0236899 L67.8896233,24.1094012 L64.9370979,24.1094012 L64.9367368,24.1098525 Z M46.48492,24.3086436 C42.3708843,24.3086436 39.252158,21.5214163 39.252158,15.9478644 C39.252158,10.3742222 42.3708843,7.5874463 46.48492,7.5874463 C48.7409545,7.5874463 50.1674292,8.18427081 51.8592294,10.0092303 L50.2339637,11.5353714 C49.0063703,10.1749798 48.0440123,9.71086322 46.48492,9.71086322 C44.8922444,9.71086322 43.5654361,10.3411807 42.7027444,11.5688643 C41.939719,12.6302568 41.6409005,13.8914334 41.6409005,15.9478644 C41.6409005,18.0046565 41.939719,19.2657428 42.7027444,20.3272256 C43.5654361,21.5549092 44.8922444,22.1852267 46.48492,22.1852267 C48.0440123,22.1852267 49.0063703,21.6876171 50.2339637,20.3272256 L51.8592294,21.8868596 C50.1674292,23.7109163 48.7409545,24.3086436 46.48492,24.3086436 L46.48492,24.3086436 Z M34.74045,24.1098525 L34.74045,22.5502186 C33.4131903,23.8774783 32.2189997,24.3086436 30.0291385,24.3086436 C27.7730137,24.3086436 26.445754,23.8774783 25.4169517,22.8160858 C24.6212458,22.0190258 24.1897194,20.7918838 24.1897194,19.4976657 C24.1897194,16.6447164 26.1804284,14.7862639 29.8298961,14.7862639 L34.74045,14.7862639 L34.74045,13.2271716 C34.74045,10.8388805 33.5458983,9.64423843 30.5597896,9.64423843 C28.4699559,9.64423843 27.4080218,10.1423896 26.445754,11.5022395 L24.8200369,10.0092303 C26.2800045,8.11818768 27.9387632,7.5874463 30.5933728,7.5874463 C34.9722826,7.5874463 37.1287411,9.47848895 37.1287411,13.0279291 L37.1287411,24.1098525 L34.74045,24.1098525 Z M34.74045,16.5781818 L30.1617561,16.5781818 C27.7064792,16.5781818 26.5119274,17.5739426 26.5119274,19.4646241 C26.5119274,21.3556668 27.6734376,22.2518515 30.2614225,22.2518515 C31.6547653,22.2518515 32.8819976,22.1517337 33.9108902,21.1568757 C34.4751245,20.6261344 34.74045,19.6969081 34.74045,18.3365166 L34.74045,16.5781818 Z M20.694536,24.1098525 C17.9073087,24.1098525 16.5139658,22.1517337 16.5139658,19.7304011 L16.5139658,9.71086322 L14.4570834,9.71086322 L14.4570834,7.88590369 L16.5139658,7.88590369 L16.5139658,2.7769198 L18.9030694,2.7769198 L18.9030694,7.88590369 L22.3863362,7.88590369 L22.3863362,9.71086322 L18.9027083,9.71086322 L18.9027083,19.6638666 C18.9027083,21.1568757 19.5995603,22.052609 21.1257013,22.052609 L22.3863362,22.052609 L22.3863362,24.1098525 L20.694536,24.1098525 L20.694536,24.1098525 Z M6.79496176,24.3086436 C4.040776,24.3086436 1.88440779,23.6782358 0.0929412209,21.9533941 L1.68516537,20.3607185 C2.97938351,21.7206587 4.73771824,22.2518515 6.7619202,22.2518515 C9.44912006,22.2518515 11.1083301,21.2894934 11.1083301,19.3649578 C11.1083301,17.9384831 10.2782286,17.1424162 8.3871859,16.9762153 L5.69998604,16.7443827 C2.51472525,16.4785155 0.822925031,15.0521311 0.822925031,12.3649312 C0.822925031,9.37891287 3.34437541,7.5874463 6.8280936,7.5874463 C9.15021128,7.5874463 11.2404964,8.15168063 12.700464,9.34541992 L11.1409203,10.9045122 C9.97986144,10.0096817 8.48721337,9.61074548 6.79451037,9.61074548 C4.4057679,9.61074548 3.14513299,10.6396381 3.14513299,12.2983967 C3.14513299,13.6917396 3.94119992,14.5213897 5.99844344,14.6871392 L8.61946989,14.9194232 C11.4728706,15.1847487 13.4299964,16.2792731 13.4299964,19.3319162 C13.4299964,22.4836841 10.7428868,24.3086436 6.79496176,24.3086436 L6.79496176,24.3086436 Z" id="stackoverflow" fill="#231F20"></path>
    </g>
</svg>