<?xml version="1.0" encoding="UTF-8"?>
<svg viewBox="0 0 242 51" version="1.1" xmlns="http://www.w3.org/2000/svg" xmlns:xlink="http://www.w3.org/1999/xlink">
    <title>tumblr</title>
    <g id="Logos" stroke="none" stroke-width="1" fill="none" fill-rule="evenodd">
        <path d="M22.1711234,41.8970115 C18.2112865,41.9986571 17.4455172,39.1737186 17.4115388,37.1228509 L17.4115388,22.8921689 L26.6397678,22.8921689 L26.6397678,14.6449701 L17.4485096,14.6449701 L17.4485096,2.38715989 L10.2020332,2.38715989 C10.0833018,2.38715989 9.8755701,2.48986738 9.84641816,2.74943545 C9.42130184,6.52403208 7.61552276,13.1503059 0.113918586,15.7970508 L0.113918586,22.8921689 L5.82422313,22.8921689 L5.82422313,37.871824 C5.82422313,43.2878098 9.20198661,50.9817975 19.9752682,50.8006114 C23.6108623,50.7408596 27.6494673,49.2499601 28.5434279,47.9648616 L26.1645526,41.0601964 C25.2433707,41.4883052 23.4860495,41.8622608 22.1711234,41.8970115 Z M66.3487599,41.0187852 L66.3487599,14.6457424 L50.1426963,14.6457424 L50.1426963,22.3893462 L53.264946,22.3901185 C54.2929861,22.3901185 54.7240873,22.8272045 54.737891,23.7846815 L54.7218671,35.8153576 C54.7218671,36.99437 53.8720206,41.4233407 47.967402,41.5342532 C43.9440486,41.6115734 43.0979667,39.238683 43.0979667,36.1268586 L43.0979667,14.6457424 L31.1643994,14.6457424 L31.1643994,36.7406902 C31.1643994,42.3314911 33.7177036,51.1266884 45.6310962,50.8050518 C49.5427649,50.6975178 54.0232824,48.7299551 56.3517692,45.8456509 L56.4492641,50.2888115 L69.7474703,50.2888115 L69.7474703,42.7132657 C69.7474703,42.7132657 68.6719376,42.6291884 67.8664947,42.5758075 C66.9262965,42.5141251 66.3487599,42.0090823 66.3487599,41.0187852 Z M135.510475,40.944747 L135.511247,30.1322744 C135.511247,26.2792957 135.464913,22.2966778 132.914215,19.0459473 C130.577909,16.0711948 126.70215,13.8896261 120.81732,14.1727474 C116.909126,14.3610766 112.740496,16.1773774 110.438941,19.2876574 L110.076182,19.7455938 L109.855419,19.480427 C107.489575,16.0637621 103.712083,13.8900122 97.8280251,14.1727474 C93.9186732,14.3610766 89.7500428,16.1773774 87.4484877,19.2876574 L87.1029118,14.6438118 L72.6817768,14.6438118 L72.6817768,22.3897323 L76.0005607,22.4386728 C77.027153,22.4386728 77.4600882,22.8753727 77.474278,23.8332359 L77.4746641,38.9910846 L77.4746641,40.9444574 C77.4746641,41.9332101 76.8929768,42.4757064 75.9534543,42.5376784 C75.148494,42.5907696 73.5182058,42.7058329 73.5182058,42.7058329 L73.5182058,50.2813787 L93.0183417,50.2884254 L93.0183417,42.7061225 C93.0183417,42.7061225 91.4818802,42.5974302 90.5824174,42.5380645 C89.6421227,42.4737758 89.0623659,41.9339823 89.0623659,40.944747 C89.0623659,40.944747 89.0780037,31.2697791 89.0780037,29.3321406 C89.0780037,27.397398 90.6791401,23.4263636 95.7625814,23.4263636 C99.8636412,23.4263636 100.703738,25.9255148 100.703738,28.8341444 C100.703738,31.7416157 100.708275,40.9462915 100.708275,40.9462915 C100.708275,41.9351406 100.127746,42.4759959 99.1882236,42.5380645 C98.3831668,42.5922176 96.7525889,42.7087288 96.7525889,42.7087288 L96.7525889,50.2816683 L116.232164,50.2816683 L116.232164,42.7061225 C116.232164,42.7061225 114.696475,42.5974302 113.796143,42.5380645 C112.856235,42.4737758 112.284297,41.9339823 112.284297,40.944747 L112.255241,40.944747 C112.255241,40.944747 112.272038,31.2697791 112.272038,29.3321406 C112.272038,27.397398 113.699421,23.4263636 118.78402,23.4263636 C122.884694,23.4263636 123.9109,25.9255148 123.9109,28.8341444 L123.9109,38.9910846 L123.908583,40.9455193 C123.908583,41.9343684 123.32622,42.4757064 122.388242,42.5369061 C121.582413,42.5914453 119.952125,42.707667 119.952125,42.707667 L119.952125,50.2809926 L139.457184,50.2809926 L139.457184,42.7061225 C139.457184,42.7061225 137.921108,42.5974302 137.022321,42.5380645 C136.081641,42.4737758 135.510475,41.9335962 135.510475,40.944747 L135.510475,40.944747 Z M161.23426,41.985143 C159.611887,42.104357 156.610299,41.832047 154.679997,38.444148 L154.679997,33.4808859 L154.681542,33.47799 L154.679997,33.47799 L154.679997,27.7392093 C154.679997,25.2583988 156.972189,23.0804981 160.518493,22.9489283 C164.109201,22.816007 167.289368,25.2672795 167.289368,32.190961 C167.289368,41.5316469 163.19217,41.8394798 161.23426,41.985143 Z M163.000462,14.1343286 C160.051193,14.2635817 156.939755,15.3921092 154.680383,17.3559072 L154.680383,0.813631015 L150.505478,0.813631015 C150.505478,0.813631015 143.679292,3.23884048 138.394393,3.88732628 L138.222184,11.4621964 L141.562301,11.4670229 C142.587735,11.4670229 143.029648,11.9037228 143.043451,12.861972 L143.043451,50.2566672 L152.589552,50.2473038 L153.954963,47.1785315 C154.246,47.3421492 158.626802,51.4592328 165.621047,50.6358354 C174.427152,49.5977562 179.052271,42.6251342 179.052271,32.0460701 C179.052271,26.4956185 177.350744,13.5070793 163.000558,14.1343286 L163.000462,14.1343286 Z M236.376369,21.0112898 C235.989093,12.5607997 224.544448,12.1719785 218.562509,17.880449 L217.470276,14.6083854 L203.638937,14.6083854 L203.638937,22.3527615 L206.539265,22.3486107 C207.567692,22.3486107 207.947632,22.785021 207.961436,23.7417258 L207.961436,40.9149194 C207.961436,41.9033824 207.379073,42.4453961 206.438778,42.5066924 C205.633432,42.5604593 204.012796,42.6751365 204.012796,42.6751365 L204.012796,50.2526129 L223.488028,50.2526129 L223.488028,42.6751365 C223.488028,42.6751365 221.877142,42.5596871 221.074402,42.5066924 C220.132659,42.4453961 219.549524,41.9041546 219.549524,40.9149194 L219.544987,29.2712304 C219.544987,27.0887929 220.045203,23.4469244 223.896348,22.5152208 C224.37108,26.1571858 227.889391,27.2449778 229.606652,27.2449778 C233.941121,27.2442055 236.376369,23.9990737 236.376369,21.0112898 Z M196.214267,40.9145333 L196.225175,0.813631015 L192.006446,0.813631015 C192.006446,0.813631015 184.998301,3.34830504 179.951058,3.88732628 L179.951058,11.4621964 L183.137983,11.4621964 C184.162258,11.4621964 184.592684,11.899572 184.607549,12.8566629 L184.607549,40.9149194 C184.607549,41.9033824 184.026344,42.4453961 183.08605,42.5066924 C182.281379,42.5604593 180.477434,42.676681 180.477434,42.676681 L180.477434,50.2526129 L200.346699,50.2526129 L200.346699,42.676681 C200.346699,42.676681 198.540148,42.5600732 197.736925,42.5066924 C196.79441,42.4450099 196.214267,41.9029963 196.214267,40.9145333 L196.214267,40.9145333 Z M234.454079,37.0238115 C230.59666,37.0238115 227.470935,40.0863094 227.470935,43.8631262 C227.470935,47.6364679 230.59666,50.6993519 234.454079,50.6993519 C238.311884,50.6993519 241.437898,47.6364679 241.437898,43.8631262 C241.437898,40.0863094 238.311884,37.0238115 234.454079,37.0238115 L234.454079,37.0238115 Z" id="tumblr" fill="#231F20"></path>
    </g>
</svg>