<?xml version="1.0" encoding="UTF-8"?>
<svg viewBox="0 0 212 51" version="1.1" xmlns="http://www.w3.org/2000/svg" xmlns:xlink="http://www.w3.org/1999/xlink">
    <title>walmart</title>
    <g id="Logos" stroke="none" stroke-width="1" fill="none" fill-rule="evenodd">
        <path d="M178.510094,29.6651493 C179.097802,30.6769287 179.053442,31.8174953 178.434,32.327678 L167.681782,39.8628251 C166.563858,40.5092865 164.887688,39.7262938 163.936346,38.083457 C162.981806,36.4343912 163.150997,34.5922288 164.26589,33.9440839 L176.171722,28.4043813 C176.916079,28.1252581 177.930804,28.6517706 178.513798,29.6675062 L178.510094,29.6675062 M192.656488,29.6665803 C193.243185,28.6510972 194.25286,28.1245847 194.997806,28.4037079 L206.903638,33.9434105 C208.025602,34.5914712 208.184945,36.4336337 207.239242,38.0827836 C206.283355,39.7256204 204.60407,40.5086131 203.489177,39.8621517 L192.736285,32.3266679 C192.121558,31.8174112 192.075767,30.6768445 192.660191,29.6644759 L192.655562,29.6644759 M185.580092,33.7534283 C186.751719,33.7534283 187.716108,34.3574657 187.846327,35.145088 L189.002971,48.2246515 C189.002971,49.5216147 187.488332,50.5807002 185.58388,50.5807002 C183.68128,50.5807002 182.167988,49.5216147 182.167988,48.2246515 L183.323959,35.145088 C183.451147,34.3573815 184.415536,33.7534283 185.584133,33.7534283 L185.580092,33.7534283 M192.656488,21.4916216 C193.243185,22.5043269 194.25286,23.035469 194.997806,22.7593761 L206.903638,17.2159698 C208.025602,16.5685825 208.184945,14.7280194 207.239242,13.0803004 C206.283355,11.4321606 204.60407,10.6511881 203.489177,11.2986596 L192.736285,18.8410457 C192.121558,19.3463462 192.075767,20.4862394 192.660191,21.4993656 L192.656488,21.4916216 M178.510094,21.4986922 C179.097802,20.4853135 179.053442,19.3463462 178.434,18.8403723 L167.681782,11.297902 C166.563858,10.6505147 164.887688,11.4298037 163.936346,13.079627 C162.981806,14.727346 163.150997,16.5676565 164.26589,17.2152964 L176.171722,22.7587027 C176.916079,23.0345431 177.930804,22.5036535 178.513798,21.4909482 L178.510094,21.4986081 M185.580092,17.4126859 C186.751719,17.4126859 187.716108,16.8035981 187.846327,16.016565 L189.002971,2.93514964 C189.002971,1.64222687 187.488332,0.580700248 185.58388,0.580700248 C183.68128,0.580700248 182.167988,1.64222687 182.167988,2.93540216 L183.323959,16.016565 C183.451147,16.8033456 184.415536,17.4126859 185.584133,17.4126859 L185.580092,17.4126859 M69.818741,18.2911916 L69.818741,40.0884721 L75.7414383,40.0884721 L75.7414383,27.3065501 C75.7414383,26.7067215 75.8118925,26.0723813 76.0196356,25.5224682 C76.510458,24.235606 77.7081792,22.7283746 79.619449,22.7283746 C82.0105144,22.7283746 83.1270071,24.7488189 83.1270071,27.6647975 L83.1270071,40.0868728 L89.0450748,40.0868728 L89.0450748,27.1492277 C89.0450748,26.5769242 89.1232731,25.8870287 89.2924642,25.3824858 C89.7783203,23.9177625 91.0685495,22.7267753 92.8455607,22.7267753 C95.2683599,22.7267753 96.431317,24.7116979 96.431317,28.1439196 L96.431317,40.0861994 L102.353341,40.0861994 L102.353341,27.2474595 C102.353341,20.4775442 98.9154795,17.7975914 95.0342702,17.7975914 C93.317023,17.7975914 91.9600433,18.2277239 90.7329451,18.9796561 C89.7024789,19.6145014 88.7783253,20.5139918 87.9719321,21.6963091 L87.8843905,21.6963091 C86.9485366,19.3472469 84.7465275,17.7987699 81.8770134,17.7987699 C78.1905842,17.7987699 76.5337744,19.6674473 75.5288131,21.2522036 L75.4405981,21.2522036 L75.4405981,18.2905182 L69.818741,18.2905182 L69.818741,18.2911916 Z M127.5735,18.2911916 L127.5735,40.0884721 L133.652594,40.0884721 L133.652594,28.9278382 C133.652594,28.3245584 133.689041,27.7989719 133.784495,27.3181662 C134.234156,24.979205 136.021942,23.4859465 138.589942,23.4859465 C139.293811,23.4859465 139.79768,23.5624613 140.343637,23.6399861 L140.343637,17.9336177 C139.885475,17.8423723 139.574618,17.7996958 139.004671,17.7996958 C136.73608,17.7996958 134.155116,19.2634931 133.071957,22.4034604 L132.907648,22.4034604 L132.907648,18.2911916 L127.5735,18.2911916 L127.5735,18.2911916 Z M142.784366,11.0732146 L142.784366,32.4772311 C142.784366,35.4295731 143.341013,37.4958084 144.527791,38.7602801 C145.567769,39.8658301 147.276431,40.5813989 149.325578,40.5813989 C151.068499,40.5813989 152.782042,40.2488248 153.590708,39.9489105 L153.514615,35.3451459 C152.912934,35.4921148 152.222113,35.611222 151.276495,35.611222 C149.268424,35.611222 148.596963,34.3247807 148.596963,31.6755516 L148.596963,23.4859465 L153.728671,23.4859465 L153.728671,17.9336177 L148.596963,17.9336177 L148.596963,11.0732146 L142.784366,11.0732146 L142.784366,11.0732146 Z M65.692415,33.9284864 L65.692415,11.0732146 L59.7993471,11.0732146 L59.7993471,40.0884721 L65.692415,40.0884721 L65.692415,33.9284864 L65.692415,33.9284864 Z M55.870074,27.0834031 C55.870074,22.1447075 53.7597312,17.7989382 46.6306426,17.7989382 C42.9694658,17.7989382 40.0621572,18.8270475 38.4774851,19.7433728 L39.6374119,23.7137231 C41.0863103,22.7988288 43.3958946,22.0415094 45.5822472,22.0415094 C49.2016734,22.0314926 49.7940105,24.0897313 49.7940105,25.4069806 L49.7940105,25.7187635 C41.9066765,25.7071474 36.9252202,28.4370158 36.9252202,33.9982672 C36.9252202,37.3963981 39.4621603,40.5791262 43.8713131,40.5791262 C46.5862825,40.5791262 48.8557997,39.4968926 50.2163989,37.761632 L50.348974,37.761632 C50.348974,37.761632 51.2508213,41.528953 56.2140117,40.0875462 C55.9545012,38.5208032 55.870074,36.8483369 55.870074,34.837236 L55.870074,27.0834031 L55.870074,27.0834031 Z M49.9846661,32.3029054 C49.9846661,32.7043343 49.948976,33.1183895 49.8374446,33.482024 C49.3823122,34.9922857 47.8176736,36.2693836 45.8613704,36.2693836 C44.2300655,36.2693836 42.9363852,35.342789 42.9363852,33.3858123 C42.9363852,30.3907096 46.2319914,29.5636094 49.9854236,29.5844006 L49.9846661,32.3026528 L49.9846661,32.3029054 Z M0.801833644,11.0732146 C0.801833644,11.0732146 5.95382783,32.1841349 6.77655094,35.6102119 C7.73622623,39.6093499 9.46584713,41.0815647 14.4503337,40.0875462 L17.6671525,26.9996493 C18.482805,23.7471405 19.0287618,21.4281286 19.5543484,18.1229265 L19.6458462,18.1229265 C20.0147837,21.4631453 20.538266,23.7571573 21.2095589,27.0103395 C21.2095589,27.0103395 22.5183906,32.952397 23.1898519,36.0723308 C23.8619865,39.1913386 25.7328525,41.158332 30.6157403,40.0875462 L38.2811898,11.0722045 L32.0940157,11.0722045 L29.4759312,23.6175957 C28.7719786,27.2677456 28.1339347,30.1232867 27.6414287,33.4619062 L27.5539713,33.4619062 C27.1065829,30.1526637 26.5368047,27.4136203 25.8219935,23.856315 L23.098354,11.0722045 L16.6507435,11.0722045 L13.7356909,23.5340102 C12.910695,27.3219541 12.1369616,30.3792619 11.6468967,33.606855 L11.5577558,33.606855 C11.0545596,30.5676448 10.3846977,26.7234723 9.65978554,23.0585918 C9.65978554,23.0585918 7.92923872,14.1448321 7.32057176,11.0722045 L0.801833644,11.0732146 L0.801833644,11.0732146 Z M123.643974,27.0834031 C123.643974,22.1447075 121.533631,17.7989382 114.403196,17.7989382 C110.742945,17.7989382 107.837993,18.8270475 106.252311,19.7433728 L107.413669,23.7137231 C108.862736,22.7988288 111.172404,22.0415094 113.358083,22.0415094 C116.9749,22.0314926 117.567237,24.0897313 117.567237,25.4069806 L117.567237,25.7187635 C109.683102,25.7071474 104.699373,28.4370158 104.699373,33.9982672 C104.699373,37.3963981 107.23766,40.5791262 111.650095,40.5791262 C114.361361,40.5791262 116.632309,39.4968926 117.991309,37.761632 L118.125484,37.761632 C118.125484,37.761632 119.024721,41.528953 123.989174,40.0875462 C123.730085,38.5208032 123.6449,36.8483369 123.6449,34.837236 L123.644227,27.0834031 L123.643974,27.0834031 Z M117.757893,32.3029054 C117.757893,32.7043343 117.722203,33.1183895 117.612271,33.482024 C117.156212,34.9922857 115.5925,36.2693836 113.636281,36.2693836 C112.005144,36.2693836 110.709528,35.342789 110.709528,33.3858123 C110.709528,30.3907096 114.006228,29.5636094 117.758819,29.5844006 L117.757893,32.3026528 L117.757893,32.3029054 Z M210.026644,37.9779777 C210.656775,37.9779777 211.159298,38.4741873 211.159298,39.086558 C211.159298,39.7062518 210.656775,40.2031348 210.017974,40.2031348 C209.379257,40.2031348 208.870421,39.7054942 208.870421,39.0868105 C208.870421,38.4741873 209.37993,37.9782302 210.017974,37.9782302 L210.025045,37.9782302 L210.026644,37.9779777 Z M210.006358,38.2564275 C209.554256,38.2564275 209.213264,38.6246916 209.213264,39.094302 C209.213264,39.5517071 209.555182,39.9249376 210.018732,39.9249376 C210.484133,39.9325975 210.825967,39.5519597 210.825967,39.0868105 C210.825967,38.6237657 210.484049,38.2564275 210.013344,38.2564275 L210.006358,38.2564275 Z M209.87614,39.6163533 L209.561242,39.6163533 L209.561242,38.5906009 C209.632707,38.5766279 209.799372,38.551628 210.012671,38.551628 C210.244404,38.551628 210.348275,38.5842878 210.424369,38.6356343 C210.48851,38.6804994 210.535227,38.7570142 210.535227,38.8603807 C210.535227,38.9656832 210.438342,39.0548241 210.295498,39.093797 L210.295498,39.1068441 C210.411996,39.1379045 210.475463,39.2224159 210.508796,39.3706474 C210.54053,39.5185423 210.560143,39.5790639 210.580008,39.6170267 L210.22336,39.6170267 C210.192384,39.5790639 210.17395,39.4882394 210.152906,39.3976675 C210.132788,39.293796 210.083799,39.241776 209.97858,39.241776 L209.875382,39.241776 L209.876055,39.6163533 L209.87614,39.6163533 Z M209.88986,39.02873 L209.979254,39.02873 C210.097856,39.02873 210.17395,38.9796561 210.17395,38.9068451 C210.17395,38.8240172 210.102485,38.7789838 209.992301,38.7789838 C209.954506,38.7789838 209.915786,38.7866437 209.890113,38.7866437 L209.890113,39.0307502 L209.890113,39.0284774 L209.88986,39.02873 Z" id="walmart" fill="#231F20"></path>
    </g>
</svg>