<?xml version="1.0" encoding="UTF-8"?>
<svg viewBox="0 0 342 51" version="1.1" xmlns="http://www.w3.org/2000/svg" xmlns:xlink="http://www.w3.org/1999/xlink">
    <title>wikipedia</title>
    <g id="Logos" stroke="none" stroke-width="1" fill="none" fill-rule="evenodd">
        <path d="M51.1584362,0.239313723 C51.2604162,0.23940451 51.3620367,0.239501444 51.4632206,0.239604053 L52.0644686,0.240284011 C52.3618563,0.240654252 52.6539266,0.24106705 52.9385973,0.241509638 L53.4974555,0.242430749 C54.2277994,0.24370177 54.8956515,0.245124102 55.4615237,0.246455648 L55.8661896,0.247433501 C56.1864484,0.248227889 56.4630151,0.24896317 56.686249,0.24958024 L56.9279129,0.250260198 C56.9637179,0.250362806 56.9972354,0.25045974 57.0283881,0.250550528 L57.3170926,0.25141868 L57.4807623,0.400493609 L57.4807623,1.82348157 C57.4807623,2.21545481 57.2597561,2.41144143 56.8239986,2.41144143 C54.6848255,2.5115197 54.2459406,2.72314355 53.4630366,3.8511091 C53.0356189,4.46408852 52.192251,5.78699821 51.3176086,7.27253509 L51.3176086,7.27253509 L43.809653,21.3137254 C43.809653,21.3137254 43.735487,21.4686753 43.5978252,21.7557143 L52.7743729,40.531256 L53.3310583,40.6834584 L67.7850715,6.38058747 C68.2865054,4.99825631 68.2093617,4.01728073 67.5640654,3.44078817 C66.9156415,2.88097533 66.4600769,2.5463386 64.7848083,2.4764923 L63.4285392,2.41081594 C63.2627845,2.41081594 63.1043273,2.35035198 62.9521249,2.23567896 C62.80305,2.13038827 62.7259063,1.9896532 62.7259063,1.82077111 L62.7259063,0.391528263 L62.9323177,0.245580781 L79.2627986,0.245580781 L79.4285532,0.391528263 L79.4285532,1.82077111 C79.4285532,2.20753194 79.207547,2.40247608 78.7717896,2.40247608 C76.6326165,2.49734194 75.0470013,2.96124644 74.0201565,3.79106213 C72.9901843,4.62504775 72.1874731,5.77177797 71.6109806,7.26982463 L71.5756853,7.35059635 C71.5445762,7.42178466 71.4932565,7.53921433 71.4231367,7.69963861 L71.2342369,8.13177692 C69.9663899,11.0319456 65.7000812,20.7866793 61.5338932,30.2628916 L61.0537998,31.3546588 C58.9768484,36.0767767 56.9547212,40.6606768 55.3747411,44.2147234 L54.8460797,45.4024674 C54.4495594,46.2921451 54.0883277,47.0997163 53.7699433,47.8077805 C52.0289983,51.1228733 50.3162003,50.8184686 48.8108563,47.7129146 C47.7073784,45.4404953 45.9086163,41.5644425 44.0298338,37.4710047 L43.6975786,36.7466589 C42.472232,34.0737218 41.2283859,31.3434477 40.1347604,28.935979 C39.2039834,30.8560691 38.1688794,32.9832354 37.1201015,35.1232937 L36.589088,36.2055172 L36.589088,36.2055172 L36.2350664,36.9254733 C34.1128299,41.2374264 32.0385147,45.3796124 30.7598631,47.750027 C28.7291081,51.2809136 27.0580095,50.819094 25.7267599,47.8417654 C21.1064796,36.9405309 11.6198932,17.800561 7.15390025,7.0744635 C6.32825449,5.09791759 5.70589272,3.83025946 5.11793286,3.3288256 C4.52684556,2.83260416 3.29984422,2.5344543 1.43275892,2.43437603 C0.746805752,2.35931733 0.405914132,2.1925202 0.405914132,1.92355984 L0.405914132,1.92355984 L0.405914132,0.429683105 L0.572711255,0.282693141 C1.01975207,0.280240242 1.71922955,0.278508784 2.58722978,0.277339625 L3.12758133,0.276704333 C3.22078661,0.276609272 3.31550929,0.276519517 3.41166545,0.276434906 L4.95103007,0.275531779 C5.05942324,0.275494646 5.16883033,0.275461863 5.27916742,0.275433271 L7.70417416,0.275394281 C7.8234195,0.275416561 7.94300744,0.275441917 8.06285408,0.275470192 L10.5888785,0.276438248 C10.708235,0.276499571 10.8272629,0.276562697 10.9458781,0.276627468 L12.0000084,0.277250506 C12.1153927,0.277323711 12.2301126,0.277398083 12.3440842,0.277473463 L13.6704558,0.278416216 C13.7770986,0.278497113 13.8826574,0.278578381 13.9870484,0.278659862 L14.89277,0.279394618 C14.9893987,0.279475939 15.0846078,0.279556995 15.1783134,0.279637626 L15.9788037,0.280347556 C16.0627331,0.280424209 16.1449073,0.28049996 16.2252423,0.280574651 L17.095612,0.281409825 C17.1598912,0.281473481 17.2219954,0.28153544 17.281841,0.281595543 L18.0969934,0.282442493 C18.1267133,0.282474586 18.153671,0.282503868 18.1777827,0.28253018 L18.3251376,0.282693141 L18.4908922,0.429683105 L18.4908922,1.85162858 C18.4908922,2.2446443 18.241739,2.43437603 17.75073,2.43437603 L17.75073,2.43437603 L15.8982394,2.5115197 C14.3094968,2.57719607 13.5151255,3.05361035 13.5151255,3.93346518 C13.5151255,4.34420309 13.6819227,5.01243407 14.0520038,5.90688364 C15.2254528,8.76705816 17.349344,13.5039358 19.6685968,18.5674195 L20.0922638,19.4913068 C24.7016691,29.5315982 29.8914756,40.474545 29.8914756,40.474545 L29.8914756,40.474545 L30.3418278,40.5913029 L38.258414,24.7980128 C37.2904705,22.6596137 36.6732381,21.2901653 36.6732381,21.2901653 L31.2304395,10.5932573 C31.2304395,10.5932573 30.9215137,9.96561798 30.5813385,9.27712384 L30.4231268,8.95710011 C30.238317,8.58351351 30.0568328,8.21756477 29.9220256,7.9477414 L29.8189188,7.74206899 L29.8189188,7.74206899 C27.4274651,3.00503069 27.4795892,2.75275004 25.0610309,2.4306231 C24.3844601,2.34201212 24.0352286,2.2565286 24.0352286,1.92084939 L24.0352286,0.42071776 L24.2385126,0.274770277 C24.3865804,0.274558247 24.540797,0.274353404 24.7005756,0.274155505 L25.1960097,0.273582396 C25.2811673,0.273490269 25.3675686,0.273399816 25.4551403,0.273311008 L26.272903,0.27255532 C26.3668363,0.272476105 26.4617198,0.272398444 26.55748,0.272322306 L27.743995,0.271479788 C27.8455959,0.271415345 27.9477801,0.271352302 28.0504742,0.27129063 L29.6199592,0.270464528 C29.7259183,0.2704158 29.8320205,0.270368289 29.9381923,0.270321967 L32.1528745,0.269513346 C32.2564263,0.26948216 32.3595341,0.269451948 32.4621247,0.269422681 L38.3255721,0.268515385 L38.3255721,0.268515385 L38.6987807,0.391528263 L38.6987807,1.88644748 C38.6987807,2.2273391 38.4548399,2.40247608 37.9586185,2.40247608 L36.9380286,2.54842356 C34.4690685,2.74087481 34.7470585,3.71448996 36.2766856,6.78850168 L36.4928887,7.22082798 L36.4928887,7.22082798 L41.7139141,17.9044456 L47.4916995,6.38329792 C48.4235668,4.35068137 48.2726715,3.78759747 47.9036381,3.31251659 L47.8617807,3.26002179 C47.6324346,2.98793398 46.8630829,2.54592161 45.1919842,2.48024524 L45.1919842,2.48024524 L44.5352205,2.40831398 C44.3684234,2.40831398 44.2130936,2.35097747 44.0619337,2.23943189 C43.9128588,2.13309873 43.8378001,1.9954911 43.8378001,1.82035412 L43.8378001,1.82035412 L43.8378001,0.397366163 L44.0410841,0.25141868 C44.8303161,0.245785619 45.8093604,0.242326722 46.8755634,0.240412626 L47.4651554,0.239517994 C47.5646557,0.239393162 47.6647221,0.23928015 47.7652775,0.239178488 Z M82.3965706,15.344965 L82.5635052,15.3452031 C84.5765379,15.3452031 90.3185289,15.1961282 90.3185289,15.1961282 L90.3925451,15.3452031 L90.3925451,16.9860698 C90.3925451,17.209161 90.2434702,17.3582359 89.9453203,17.3582359 L88.3795124,17.5104383 C86.0683297,17.7314445 85.2478964,18.3308716 85.2478964,19.8247483 L85.2478964,44.6556276 C85.2478964,46.2964943 85.993271,47.2649601 88.3795124,47.4890937 L89.9453203,47.6412961 C90.169454,47.6412961 90.3925451,47.7872436 90.3925451,48.0853934 L90.3925451,49.6512014 L90.3185289,49.8034038 C90.3185289,49.8034038 88.3106873,49.7494772 86.1976483,49.7058224 L85.4356976,49.6906613 C84.2536002,49.6681128 83.1101132,49.6512014 82.3393715,49.6512014 C81.6436885,49.6512014 80.533561,49.6681128 79.3625834,49.6906613 L78.8580413,49.7006372 C76.6644824,49.7450768 74.4352729,49.8034038 74.4352729,49.8034038 L74.2861979,49.6512014 L74.2861979,48.0853934 C74.2861979,47.7872436 74.5103316,47.6412961 74.8084814,47.6412961 L76.3002732,47.4890937 C78.7605308,47.2649601 79.5059054,46.0723607 79.5059054,44.6556276 L79.5059054,19.8247483 C79.5059054,18.1901365 78.6083284,17.7345719 76.3002732,17.5166932 L74.8084814,17.3613633 C74.5103316,17.3613633 74.2861979,17.2925595 74.2861979,17.0632135 L74.2861979,15.3452031 L74.3612566,15.1961282 C74.3612566,15.1961282 79.9815055,15.33835 82.3965706,15.344965 Z M107.253545,44.6556276 C107.253545,46.2964943 108.223053,47.1158852 110.385161,47.4890937 L111.205594,47.6412961 C111.429728,47.7132274 111.652819,47.7872436 111.652819,48.0853934 L111.652819,49.6512014 L111.578803,49.8034038 C111.578803,49.8034038 106.880337,49.6512014 104.644213,49.6512014 C102.556121,49.6512014 96.4409216,49.8034038 96.4409216,49.8034038 L96.2918466,49.6512014 L96.2918466,48.0853934 C96.2918466,47.7872436 96.5159803,47.6412961 96.8141301,47.6412961 L98.3059219,47.4890937 C100.543088,47.2649601 101.511554,46.0723607 101.511554,44.6556276 L101.511554,19.8247483 C101.511554,18.1901365 100.692163,17.7345719 98.3059219,17.5166932 L96.8141301,17.3613633 C96.5159803,17.3613633 96.2918466,17.2925595 96.2918466,17.0632135 L96.2918466,15.3452031 L96.3669053,15.1961282 C96.3669053,15.1961282 102.481062,15.3452031 104.793288,15.3452031 C106.883464,15.3452031 111.578803,15.1961282 111.578803,15.1961282 L111.652819,15.3452031 L111.652819,16.9860698 C111.652819,17.209161 111.503744,17.2842197 111.205594,17.3582359 L110.385161,17.5104383 C108.073978,17.9555781 107.253545,18.3308716 107.253545,19.8247483 L107.253545,31.0877241 C109.713803,31.0877241 111.130536,29.8252784 114.412269,26.3152414 C117.39481,23.0282956 119.705993,20.2813555 119.705993,18.8552401 C119.705993,18.2568554 119.034634,17.5907094 117.543885,17.3613633 C117.245735,17.2925595 117.09666,17.2122884 117.09666,16.9891973 L117.09666,15.2680594 L117.170677,15.1992556 C117.170677,15.1992556 123.210817,15.3483306 125.372925,15.3483306 C127.311942,15.3483306 130.592633,15.1992556 130.592633,15.1992556 L130.816766,15.2680594 L130.816766,16.9891973 C130.816766,17.2122884 130.592633,17.3613633 130.220466,17.3613633 C127.311942,17.585497 125.298909,17.7345719 122.614518,20.7911292 L116.201168,28.167732 C114.93351,29.5156612 114.486285,30.3298397 114.486285,30.9292668 C114.486285,31.3775341 114.784435,31.7465727 115.157644,32.19484 L126.417492,45.7658709 C127.311942,46.806268 129.101883,47.2566202 130.592633,47.5526851 L130.965841,47.6235739 C131.188932,47.6955052 131.487082,47.8445801 131.487082,48.0687137 L131.487082,49.6345217 L131.263991,49.7085379 C131.263991,49.7085379 127.311942,49.6345217 125.22385,49.6345217 C123.359892,49.6345217 120.675501,49.7085379 120.675501,49.7085379 L120.600442,49.6345217 L120.600442,48.7390297 C120.600442,47.7674364 120.526426,46.953258 119.482902,45.7596161 L111.205594,35.4671911 C110.087011,33.9722718 108.894412,33.6053182 107.253545,33.6053182 L107.253545,44.6556276 Z M147.45332,44.6556276 C147.45332,46.2964943 148.198694,47.2649601 150.584936,47.4890937 L152.150744,47.6412961 C152.374877,47.6412961 152.597969,47.7872436 152.597969,48.0853934 L152.597969,49.6512014 L152.523952,49.8034038 C152.523952,49.8034038 146.85702,49.6512014 144.544795,49.6512014 C142.457746,49.6512014 136.640696,49.8034038 136.640696,49.8034038 L136.491621,49.6512014 L136.491621,48.0853934 C136.491621,47.7872436 136.715755,47.6412961 137.013905,47.6412961 L138.505697,47.4890937 C140.965954,47.2649601 141.711329,46.0723607 141.711329,44.6556276 L141.711329,19.8247483 C141.711329,18.1901365 140.816879,17.7345719 138.505697,17.5166932 L137.013905,17.3613633 C136.715755,17.3613633 136.491621,17.2925595 136.491621,17.0632135 L136.491621,15.3452031 L136.56668,15.1961282 C136.56668,15.1961282 142.457746,15.3452031 144.768929,15.3452031 C146.781961,15.3452031 152.523952,15.1961282 152.523952,15.1961282 L152.597969,15.3452031 L152.597969,16.9860698 C152.597969,17.209161 152.448894,17.3582359 152.150744,17.3582359 L150.584936,17.5104383 C148.273753,17.7314445 147.45332,18.3308716 147.45332,19.8247483 L147.45332,44.6556276 Z M169.306975,32.948763 C170.798766,33.5481902 172.662724,33.6201214 174.153474,33.6201214 C178.630934,33.6201214 180.784702,30.9294753 180.784702,25.1937393 C180.784702,18.7814323 177.876177,17.3646993 173.781307,17.3646993 C170.199339,17.3646993 169.303847,18.0350152 169.303847,19.9740318 L169.306975,32.948763 Z M163.564984,19.9709043 C163.564984,17.6597217 162.596518,17.5857055 159.091693,17.3615718 C158.644468,17.3615718 158.56941,17.1405656 158.56941,16.9883633 L158.56941,15.2734803 L158.718485,15.1994641 C159.837068,15.1994641 164.236342,15.3485391 166.39845,15.3485391 C168.486541,15.3485391 171.469082,15.1994641 174.228532,15.1994641 C184.810767,15.1994641 186.749784,20.4160442 186.749784,24.2992897 C186.749784,28.7757075 184.587676,35.7822291 174.004399,35.7822291 C172.140441,35.7822291 170.648649,35.6300268 169.303847,35.0368545 L169.303847,45.0227898 C169.303847,46.660529 170.199339,47.03895 172.587666,47.4090311 L174.082585,47.6321223 C174.380735,47.7040535 174.606953,47.7843246 174.606953,48.0772621 L174.606953,49.6430701 L174.538149,49.7952724 C174.538149,49.7952724 168.56994,49.6430701 166.258757,49.6430701 C164.170666,49.6430701 158.57775,49.7952724 158.57775,49.7952724 L158.503733,49.6430701 L158.503733,48.0772621 C158.503733,47.7791122 158.652808,47.7040535 158.950958,47.6321223 L160.516766,47.4090311 C162.827949,47.1108812 163.574366,46.4395228 163.574366,45.0227898 L163.564984,19.9709043 Z M199.592328,49.6515142 C197.355162,49.6515142 192.213641,49.8037166 192.213641,49.8037166 L192.135454,49.6515142 L192.135454,48.0106475 C192.135454,47.8647 192.213641,47.6416088 192.582679,47.6416088 L194.303817,47.4894065 C196.618127,47.2652728 197.289485,45.7745235 197.289485,44.2858592 L197.289485,19.6791136 C197.289485,17.9579758 196.395036,17.6629534 194.303817,17.5159634 L192.582679,17.3616761 C192.135454,17.2928723 192.135454,17.1406699 192.135454,17.0635262 L192.135454,15.3455159 L192.213641,15.1964409 C192.213641,15.1964409 198.02652,15.3455159 200.263687,15.3455159 L211.224343,15.3455159 C213.461509,15.3455159 218.75836,15.1964409 218.75836,15.1964409 L218.91369,15.3455159 C218.982494,18.5521905 219.504777,21.4659278 220.032273,24.2962665 L218.173528,24.5944163 C217.356222,21.8328815 215.939489,17.8839596 211.167006,17.8839596 L205.201924,17.8839596 C203.785191,17.8839596 203.039816,18.4052006 203.039816,19.6697313 L203.039816,30.4854822 L208.629605,30.4854822 C210.719781,30.4854822 211.238937,29.5899902 211.540215,28.0992409 L211.984312,26.5334329 C211.984312,26.3092993 212.136514,26.1570969 212.431537,26.1570969 L213.693983,26.1570969 C213.849312,26.1570969 213.849312,26.235283 213.849312,26.3812305 C213.693983,28.0189698 213.401045,30.1122737 213.401045,31.9022153 C213.401045,33.7630457 213.699195,35.3319811 213.849312,37.0468641 L213.693983,37.1990664 L212.431537,37.1990664 C212.062498,37.1990664 211.904041,37.0468641 211.904041,36.8237729 L211.531875,35.1860337 C211.233725,33.6911144 210.562367,32.8717236 208.61501,32.8717236 L203.028349,32.8717236 L203.028349,44.2827318 C203.028349,45.6942524 203.8394,47.1109855 205.190457,47.1109855 L212.274122,47.1109855 C216.077096,47.1109855 218.1704,44.7247442 219.059638,40.8414986 L220.918383,41.0645898 L219.424506,49.6369194 L219.275431,49.7859944 C219.275431,49.7859944 214.875115,49.6369194 212.638991,49.6369194 L199.592328,49.6515142 Z M244.266019,47.6411919 C252.46514,47.6411919 257.09376,44.589847 257.09376,34.1420922 C257.09376,26.3901959 255.376792,17.3612591 242.849286,17.3612591 C239.940761,17.3612591 238.076803,17.8084839 238.076803,19.6786966 L238.076803,44.2854422 C238.076803,46.3683213 238.595959,47.6411919 244.266019,47.6411919 M227.635303,47.6411919 L229.350186,47.4889895 C231.589437,47.2658983 232.335855,46.5945399 232.335855,44.2854422 L232.335855,19.6786966 C232.335855,17.7344677 231.807316,17.7344677 229.350186,17.5165889 L227.715574,17.3612591 C227.417424,17.3612591 227.187036,17.2121842 227.187036,16.989093 L227.187036,15.3482263 L227.258967,15.1991514 C227.258967,15.1991514 233.823476,15.3482263 235.169321,15.3482263 C236.579799,15.3482263 243.073419,15.1991514 245.011393,15.1991514 C257.463841,15.1991514 263.581126,22.9541751 263.581126,32.8713066 C263.581126,45.9231815 254.332225,49.7949597 246.061173,49.7949597 C240.096091,49.7949597 237.488843,49.6427573 235.177661,49.6427573 C232.937367,49.6427573 227.267307,49.7949597 227.267307,49.7949597 L227.196418,49.6427573 L227.196418,48.0769493 C227.187036,47.8653255 227.339238,47.6411919 227.635303,47.6411919 M281.184894,44.6556276 C281.184894,46.2964943 281.930269,47.2649601 284.31651,47.4890937 L285.882318,47.6412961 C286.106452,47.6412961 286.329543,47.7872436 286.329543,48.0853934 L286.329543,49.6512014 L286.255527,49.8034038 C286.255527,49.8034038 280.588594,49.6512014 278.279497,49.6512014 C276.18932,49.6512014 270.375398,49.8034038 270.375398,49.8034038 L270.223196,49.6512014 L270.223196,48.0853934 C270.223196,47.7872436 270.447329,47.6412961 270.745479,47.6412961 L272.239356,47.4890937 C274.697528,47.2649601 275.446031,46.0723607 275.446031,44.6556276 L275.446031,19.8247483 C275.446031,18.1901365 274.548454,17.7345719 272.239356,17.5166932 L270.745479,17.3613633 C270.447329,17.3613633 270.223196,17.2925595 270.223196,17.0632135 L270.223196,15.3452031 L270.298254,15.1961282 C270.298254,15.1961282 276.18932,15.3452031 278.49529,15.3452031 C280.505196,15.3452031 286.252399,15.1961282 286.252399,15.1961282 L286.321203,15.3452031 L286.321203,16.9860698 C286.321203,17.209161 286.166916,17.3582359 285.873978,17.3582359 L284.30817,17.5104383 C281.99386,17.7314445 281.176554,18.3308716 281.176554,19.8247483 L281.184894,44.6556276 Z M322.425796,28.5435467 L315.193055,8.63735255 L315.04398,8.63735255 L307.587106,27.5771659 C307.288957,28.3287954 307.808113,28.5466742 309.447937,28.5466742 L322.425796,28.5466742 L322.425796,28.5435467 Z M304.157341,47.4885725 L306.319448,47.6407749 C306.617598,47.6407749 306.915748,47.8649085 306.915748,48.2349896 L306.915748,49.6517227 L306.766673,49.803925 C306.766673,49.803925 298.639483,49.6517227 296.849542,49.6517227 C294.90844,49.6517227 290.135957,49.803925 290.135957,49.803925 L289.983755,49.6517227 L289.983755,48.2349896 C289.983755,47.8649085 290.207889,47.6407749 290.583182,47.6407749 C293.867001,47.4176837 295.725746,46.8182565 297.812795,42.0457739 L314.364282,3.26857014 C315.181588,1.32955359 315.781015,0.581051495 316.904811,0.581051495 C317.943123,0.581051495 318.318416,1.32955359 318.912631,2.82134536 L334.198545,43.2362883 C335.245197,46.1468981 336.740116,47.2623539 339.722657,47.5605037 L340.539963,47.632435 C340.915257,47.632435 341.288465,47.8534412 341.288465,48.2318622 L341.288465,49.6433828 L341.064332,49.7945427 C341.064332,49.7945427 335.323383,49.6433828 332.411731,49.6433828 C329.802398,49.6433828 322.491472,49.7945427 322.491472,49.7945427 L322.422668,49.6433828 L322.422668,48.2318622 C322.422668,47.8534412 322.571743,47.632435 322.953291,47.632435 L325.041383,47.4802326 C327.871722,47.2592264 328.921501,46.3595645 328.172999,44.2766854 L323.62465,31.6699503 L308.10939,31.6699503 C306.319448,31.6699503 305.872224,31.9681002 305.502142,32.9313536 L301.1748,43.746062 C300.428382,45.6225297 301.397891,47.2654813 304.157341,47.4885725 L304.157341,47.4885725 Z" id="wikipedia" fill="#000000"></path>
    </g>
</svg>