<?xml version="1.0" encoding="UTF-8"?>
<svg width="100px" height="36px" viewBox="0 0 100 36" version="1.1" xmlns="http://www.w3.org/2000/svg" xmlns:xlink="http://www.w3.org/1999/xlink">
    <title>yelp</title>
    <g id="Logos" stroke="none" stroke-width="1" fill="none" fill-rule="evenodd">
        <path d="M86.7563511,20.5500357 C87.0720074,20.1574576 87.6340289,20.0333674 88.1558356,20.2343794 C88.6622272,20.4287454 88.971699,20.8646459 88.9414534,21.3433457 L88.9411387,21.3659585 C88.9394166,21.544017 88.9332461,22.7184512 88.9309927,23.1526041 L88.9301612,23.3135592 C88.9187887,27.2275397 88.9106554,27.786335 88.8578951,28.0106326 L88.8494196,28.0429083 C88.8449993,28.058134 88.8403005,28.0722971 88.8353013,28.0867723 C88.7153033,28.4152284 88.4311849,28.6349479 88.0406991,28.7057159 C86.9166254,28.8975281 83.3977299,27.6031804 82.6638959,26.7314102 C82.516206,26.5496286 82.4264537,26.3552626 82.4075001,26.1578505 C82.3931619,26.0207143 82.4104232,25.882132 82.4579916,25.7527187 C82.4662042,25.7293149 82.4750433,25.7064567 82.488092,25.6798176 L82.5060004,25.645759 C82.6419182,25.402911 83.138982,24.8073288 85.8317818,21.643833 C85.8343356,21.643833 86.7563511,20.5500357 86.7563511,20.5500357 Z M84.5523261,15.6455324 C84.5548799,15.6455324 85.8722735,16.1824466 85.8722735,16.1824466 C86.3494656,16.3616744 86.6389377,16.8567739 86.6084151,17.4175338 C86.5784156,17.9644478 86.2650977,18.3926254 85.7989516,18.5113618 C85.7912594,18.5152079 83.9233519,19.1113519 83.9233519,19.1113519 C81.0818254,20.0249434 80.0976486,20.3383058 79.6890473,20.4419716 L79.6123014,20.4605557 C79.5198026,20.4816866 79.464378,20.4889093 79.4191191,20.4904221 L79.3874459,20.4906294 C79.3772323,20.4904384 79.3672331,20.4900269 79.3570584,20.4895137 C79.0086026,20.4766831 78.7032231,20.2710558 78.5211646,19.9249076 C78.3886129,19.6746656 78.297599,19.2551649 78.2419384,18.7526194 C78.0840026,17.2293216 78.2760609,14.9344981 78.7309149,14.2055563 C78.9468191,13.8683927 79.2560139,13.692734 79.6047466,13.7068569 C79.8321582,13.7094107 80.0355087,13.7824864 84.5523261,15.6455324 Z M87.5230153,0.769194427 C87.9196857,0.86894662 88.1963273,1.12149628 88.2922334,1.47533657 C88.3591553,1.86557625 88.928869,10.2899904 89.0109291,12.1822668 C89.0891432,13.79504 88.3970932,14.0099288 88.1709431,14.0794045 C87.9424853,14.1514649 87.2463738,14.3660767 86.3938033,12.9830227 C86.3938033,12.9830227 80.6229143,3.90298863 80.4865166,3.62376249 C80.4031949,3.30786004 80.5055009,2.95171209 80.7831886,2.66248612 C81.6459743,1.77200857 86.3040817,0.467414815 87.5230153,0.769194427 Z M93.8028805,16.1242322 C98.577109,14.9673283 98.7617213,14.9065601 98.9499336,14.7829621 C99.2391596,14.58835 99.3845418,14.2624784 99.3591576,13.8658081 C99.3591576,13.8532545 99.3617114,13.8394085 99.3591576,13.8255626 C99.236575,12.6532743 97.1827937,9.60437104 96.171272,9.10927156 C95.8122933,8.93745902 95.4538685,8.94875114 95.1559042,9.14822476 C94.9712919,9.26822277 94.8361864,9.45028129 92.2795826,12.9463464 C92.2795826,12.9463464 91.1252326,14.5188742 91.1113866,14.5340124 C90.8070532,14.9042524 90.8019148,15.4347667 91.1001253,15.8893745 C91.4083048,16.3603821 91.9285423,16.5903783 92.4059806,16.4577959 C92.4059806,16.4577959 92.3869963,16.4919184 92.3821348,16.4980721 C92.6169924,16.4096121 93.0375085,16.3062599 93.8028805,16.1242322 M95.974106,26.5496286 C97.0351038,26.1265587 99.3491578,23.182269 99.5119551,22.0492109 C99.5688772,21.6551251 99.44531,21.3153769 99.1734991,21.0982113 C98.9953175,20.9643673 98.8601812,20.9125836 94.6592663,19.5333757 C94.6592663,19.5333757 92.8164661,18.9244319 92.7926511,18.9128937 C92.3465046,18.7400657 91.8375284,18.9005862 91.4952264,19.3223638 C91.1390785,19.7556797 91.0860024,20.3277317 91.3703669,20.7597553 L92.1116162,21.9674276 C94.6048979,26.0165605 94.795664,26.3032327 94.975138,26.4434765 C95.2528257,26.6619344 95.606666,26.6973185 95.974106,26.5496286 M67.2560675,7.29089304 C65.0669078,6.84367183 63.1940211,7.21872242 61.3929264,8.4385242 C61.3929264,8.4385242 61.1910379,8.60179543 61.1133303,8.6486945 L60.9519994,8.73033012 L60.4590622,8.95157448 L60.3186489,8.39787203 L60.2003365,8.19797124 L60.159353,8.07374313 L60.1459127,8.03664033 C60.1459127,8.03664033 60.0256599,7.87535674 60.007913,7.85013252 C59.491266,7.04560759 58.0865182,6.67685122 56.8201959,7.39936193 C56.2002385,7.75112863 55.8448751,8.24643204 55.8448751,9.72495957 L55.8448751,32.883683 C55.8448751,34.1523715 56.2432096,34.9411372 57.113185,35.3567927 C57.847527,35.7259277 58.6733481,35.7551272 59.3824186,35.4502596 C59.9846291,35.1860441 60.4274964,34.719467 60.5927553,34.1523715 L60.7386583,33.1597297 L60.7386583,29.1517285 L60.6956872,28.5069254 L60.7130555,28.3164423 L60.7382797,28.2253417 L60.9772709,27.4618475 L61.7021006,27.9433794 C61.7021006,27.9433794 61.8847277,28.0640581 61.962388,28.1456937 L62.180083,28.2892304 C62.1816921,28.2912181 62.4325146,28.4371211 62.4325146,28.4371211 C62.4364425,28.4371211 62.6655902,28.5495179 62.6655902,28.5495179 C64.6082339,29.4664397 67.2075593,29.3595799 69.3000814,28.2813745 C71.9345219,26.9061574 73.235912,24.4661753 73.5368516,20.3690611 C74.1662741,12.1803223 72.2819347,8.26772829 67.2560675,7.29051444 L67.2560675,7.29089304 Z M67.0135268,24.6156749 C63.7457359,24.6156749 63.2251609,21.7150786 63.1222764,19.5259189 C63.1163607,19.5200033 63.0792579,18.2434115 63.0792579,18.2434115 C63.0792579,18.2434115 63.1163607,17.2957285 63.1163607,17.258673 C63.3280928,13.4703071 64.1109429,11.9764463 66.109998,11.5607435 C67.4524662,11.2500076 68.4782355,11.4014476 69.2476453,12.0209791 C70.4031324,12.9517198 70.912302,14.9216227 70.8657342,18.208675 C70.8326067,22.0570017 70.1625794,24.6156749 67.0135268,24.6156749 Z M48.3399826,0.648498562 C47.5571798,0.329812038 46.6733855,0.415422956 45.8980601,0.877598868 C45.1522655,1.31890446 44.8411036,1.9909194 44.8411036,3.20518415 L44.8411036,26.8012852 C44.8411036,26.8012852 44.9712474,27.6444747 44.9850663,27.6811516 C45.1522655,28.2699218 45.5872768,28.7711882 46.1914277,29.0448687 C46.861881,29.3560305 47.6348401,29.3501149 48.3265896,29.0255601 C49.1871,28.6524498 49.694282,27.7919394 49.694282,26.7255652 L49.694282,3.08450541 C49.694282,3.08450541 49.5444037,1.94241128 49.5444037,1.92111503 C49.4063567,1.3729496 48.9540244,0.899321041 48.3399826,0.648498562 L48.3399826,0.648498562 Z M39.3688197,14.8884952 C39.1026166,12.1960816 38.0634543,10.0940945 36.3597544,8.80605012 C34.5448408,7.42851413 31.9767026,6.98957479 28.9364975,7.53343365 C25.124895,8.19399594 22.8363529,10.9175495 22.3118026,15.4209014 C21.6666209,20.8040724 22.5524029,24.8605818 24.8819285,27.154661 C26.6380644,28.8898793 29.2358281,29.5792625 32.3947243,29.1517285 C36.899638,28.5183781 38.9255264,26.045647 38.9255264,24.4816032 C38.9255264,23.3316058 38.2302749,22.4261367 37.2084336,22.2884683 C36.6235913,22.1717648 36.1302282,22.2884683 35.0382039,23.2653508 C33.4646478,24.6369712 31.6406951,25.188686 30.0241679,24.7789462 C28.7925349,24.4662226 27.8310803,23.6171175 27.3956903,22.4533012 C27.3956903,22.4533012 27.2016578,21.6843174 27.2130631,21.7695024 C27.0809791,21.0761912 27.0210183,20.3883697 27.4481264,20.108395 L27.5625109,20.0306873 L37.4588775,20.0306873 C38.3722499,20.0306873 38.8344258,19.9123749 39.1006289,19.6244969 C39.6448664,19.0207246 39.6015167,17.2957285 39.3688197,14.8884952 L39.3688197,14.8884952 Z M34.2944443,16.3259447 L26.0378415,16.3259447 C25.8142309,16.1630994 25.705762,15.888993 25.8725826,15.0651595 C25.9775021,14.6321357 26.0902776,14.2436922 26.4207954,13.6994547 C26.5272766,13.5365621 26.6380644,13.3693629 26.7449716,13.2025423 C27.3491225,12.4386222 28.1670404,11.9492344 29.0977811,11.7315394 C32.0003651,11.0224217 34.0242659,12.4970212 34.352796,15.0127234 C34.5101516,16.1106159 34.4068412,16.3259447 34.2944443,16.3259447 Z M3.91236468,33.9950159 C4.83718976,34.8515984 6.58935041,35.0945176 8.71859664,34.6614938 C10.7141024,34.2671347 11.9512725,33.3754844 13.1422533,29.5891061 L19.0732111,10.9542263 C19.3800664,9.96513392 19.3571611,9.10656384 19.0053944,8.46966404 C18.7194568,7.95661376 18.2438879,7.60877504 17.571447,7.43012318 C16.5145379,7.14063618 15.1957796,7.1698357 14.3640427,10.0100927 L11.2520457,20.5808404 C11.2520457,20.5808404 4.91290975,8.60572341 4.90893445,8.60378308 C4.50865963,7.80318612 3.33542565,7.23055367 2.1404695,7.70460816 C0.582672605,8.29692781 0.0637066975,9.69774769 0.685225871,11.5023918 C0.685225871,11.5023918 8.39598214,27.1937041 8.41372901,27.2362966 C8.41372901,27.2362966 8.62356804,27.7958674 8.62356804,27.886968 C8.62356804,27.886968 8.69337241,28.3128929 8.69337241,28.3282736 C8.67756587,28.9324718 8.47567743,29.4412155 8.11439841,29.7811509 C7.75908234,30.1155967 7.26534066,30.2902733 6.6883543,30.2670367 C6.6883543,30.2670367 5.4859208,30.2394462 5.39482018,30.2394462 C4.15925919,30.3912648 3.38194613,31.1003352 3.25733941,32.1959089 C3.17054537,32.9014299 3.39770535,33.5210088 3.91236468,33.9950159 L3.91236468,33.9950159 Z" id="yelp" fill="#000000"></path>
    </g>
</svg>