<?xml version="1.0" encoding="UTF-8"?>
<svg width="129px" height="51px" viewBox="0 0 129 51" version="1.1" xmlns="http://www.w3.org/2000/svg" xmlns:xlink="http://www.w3.org/1999/xlink">
    <title>youtube</title>
    <g id="Logos" stroke="none" stroke-width="1" fill="none" fill-rule="evenodd">
        <path d="M116.275953,0.0563700973 C123.298628,0.0563700973 128.992418,5.75016009 128.992418,12.7728355 L128.992418,12.7728355 L128.992418,37.3399047 C128.993498,44.3625801 123.299657,50.0563701 116.277033,50.0563701 L116.277033,50.0563701 L65.952798,50.0563701 C58.9301226,50.0563701 53.2363326,44.3625801 53.2363326,37.3399047 L53.2363326,37.3399047 L53.2363326,12.7728355 C53.2363326,5.75016009 58.9301226,0.0563700973 65.952798,0.0563700973 L65.952798,0.0563700973 Z M115.366726,15.4209867 C113.015238,15.4209867 111.313351,16.2539256 110.253658,17.9176944 C109.606217,18.9349993 109.189747,20.4196492 108.997922,22.3737017 C108.90255,23.3359129 108.854864,24.9509153 108.854864,27.2208179 L108.855188,27.617668 C108.859514,30.2224405 108.907092,32.0093277 108.997922,32.9792183 C109.21197,35.3021056 109.703698,37.0686029 110.477274,38.280922 C111.450082,39.8068794 113.04389,40.5709383 115.256539,40.5709383 C117.396089,40.5709383 118.971842,39.9415015 119.988118,38.6846855 C121.004394,37.4246801 121.511966,35.4218612 121.511966,32.6697984 C121.511966,32.5606397 121.507696,32.4048752 121.49499,32.2056427 C121.484393,32.0064102 121.479095,31.851726 121.479095,31.7414871 L121.479095,31.7414871 L117.479784,31.7414871 L117.477551,32.0385304 C117.432891,34.960269 116.718309,36.4211616 115.332826,36.4211616 C114.370615,36.4211616 113.7348,35.6433163 113.427489,34.0865971 C113.278052,33.3299971 113.204953,32.0625842 113.204953,30.28549 C113.204953,29.5299189 113.221878,29.0201862 113.25264,28.7573722 L113.25264,28.7573722 L121.604149,28.7573722 L121.604149,26.9442176 C121.604149,22.5178405 121.182381,19.5782224 120.334627,18.1211451 C119.28656,16.3217768 117.632411,15.4209867 115.366726,15.4209867 Z M81.8801319,16.0557734 L77.7727429,16.0557734 L77.7727429,34.8125379 C77.7727429,38.6507856 79.1397463,40.5709383 81.8716441,40.5709383 C83.5682325,40.5709383 84.8536499,39.5684485 85.7331947,37.5624402 L85.7331947,37.5624402 L85.7331947,39.9351227 L89.9042168,39.9351227 L89.9042168,16.0557734 L85.6261966,16.0557734 L85.6261966,31.3091222 C85.6261966,32.69948 85.5456394,33.6881835 85.3898749,34.2816114 C85.1047867,35.3148116 84.5357421,35.8298428 83.6816093,35.8298428 C82.8921383,35.8298428 82.3644011,35.35401 82.1005582,34.4045563 C81.9532301,33.8534647 81.8801319,32.9389911 81.8801319,31.6588208 L81.8801319,31.6588208 L81.8801319,16.0557734 Z M97.8275794,8.13765778 L93.5728622,8.13765778 L93.5728622,39.9351227 L97.6167211,39.9330136 L97.6167211,37.4363573 C98.304441,39.5260608 99.5474707,40.569858 101.347919,40.569858 C103.506554,40.569858 104.936059,39.070393 105.634427,36.0724918 C106.004239,34.4765742 106.189737,31.8220443 106.189737,28.1088506 C106.189737,24.2843892 106.021215,21.5959079 105.680004,20.0412978 C105.013427,16.9607817 103.597657,15.4199578 101.435884,15.4199578 C99.7435139,15.4199578 98.5396825,16.3048011 97.8275794,18.0766483 L97.8275794,18.0766483 L97.8275794,8.13765778 Z M75.672391,8.13765778 L60.6214126,8.13765778 L60.6214126,13.388486 L65.8722408,13.388486 L65.8722408,39.9351227 L70.4236719,39.9351227 L70.4236719,13.388486 L75.672391,13.388486 L75.672391,8.13765778 Z M99.9247419,20.0582683 C100.970648,20.0582683 101.604355,21.1518607 101.829051,23.3412062 C101.871387,23.7248561 101.893661,25.3027178 101.893661,28.0674866 L101.893523,28.3955121 C101.891406,30.8660327 101.864918,32.3167638 101.813155,32.7524595 C101.58954,34.9269384 100.962212,36.0142036 99.926851,36.0142036 C98.8162828,36.0142036 98.1232645,35.1251421 97.8466641,33.3511858 C97.7502115,32.7725731 97.7025254,31.3218745 97.7025254,28.9968781 L97.7029788,28.323522 C97.7066118,25.7196301 97.7321437,24.1900603 97.7820023,23.7322636 C98.0480057,21.2832935 98.7622694,20.0582683 99.9247419,20.0582683 Z M115.256549,19.6545254 C116.155179,19.6545254 116.753905,20.1144114 117.049539,21.0342349 C117.241364,21.6107385 117.336736,22.5856557 117.336736,23.9590378 L117.336736,23.9590378 L117.336736,24.9678549 L113.21767,24.9678549 C113.21767,24.7485088 113.211291,24.5217552 113.198585,24.2886228 L113.198585,24.2886228 L113.176362,23.9590378 C113.1117,22.5040696 113.271683,21.3850137 113.652144,20.6019214 C113.968971,19.9703241 114.505196,19.6545254 115.256549,19.6545254 Z M47.7619144,16.1013402 L47.7619144,40.1152602 L43.5675895,40.1152602 L43.5675895,37.7288428 C42.6827462,39.7464769 41.3878121,40.7542651 39.684845,40.7542651 C36.9359715,40.7542651 35.5615605,38.8245443 35.5615605,34.9651028 L35.5615605,16.1013402 L39.6922525,16.1013402 L39.6922525,31.7923523 C39.6922525,33.0809591 39.766431,33.9997023 39.9137591,34.5518227 C40.1786823,35.5077065 40.7096088,35.9866773 41.503298,35.9866773 C42.361649,35.9866773 42.9349633,35.4674279 43.2210803,34.429958 C43.3779251,33.8333408 43.4595111,32.8383101 43.4595111,31.4416249 L43.4595111,16.1013402 L47.7619144,16.1013402 Z M23.8051972,28.4299375 C23.8051972,31.4034554 23.8210926,33.0194866 23.8528834,33.2823007 C24.07439,35.4250402 24.751513,36.49641 25.883275,36.49641 C27.0161172,36.49641 27.7081068,35.5776154 27.9613527,33.7390488 C28.0143373,33.3373944 28.0408297,31.8379294 28.0408297,29.2384932 L28.0408297,26.8954923 C28.0408297,24.4613373 28.0090389,22.9957721 27.9465376,22.4987455 C27.6805342,20.6739651 27.0034112,19.7615492 25.9150657,19.7615492 C24.8564534,19.7615492 24.1951744,20.5648065 23.9302512,22.1681317 C23.8465561,22.6788932 23.8041684,24.0268633 23.8041684,26.2109103 L23.8051972,28.4299375 Z M19.4190988,28.1194372 C19.4190988,23.9833953 19.7327883,21.0512362 20.3611963,19.3196677 C21.2969152,16.7477526 23.1481878,15.4602261 25.9150657,15.4602261 C28.6798346,15.4602261 30.5385662,16.7467238 31.484882,19.3196677 C32.11329,21.0353409 32.4269281,23.9685802 32.4269281,28.1194372 C32.4269281,32.2681852 32.11329,35.2014245 31.484882,36.9160174 C30.5385662,39.4752265 28.6809148,40.7553454 25.9150657,40.7553454 C23.1481878,40.7553454 21.2969152,39.4688477 20.3611963,36.8959038 C19.7327883,35.1813109 19.4190988,32.2543989 19.4190988,28.1194372 Z M6.8838614,40.1152602 L6.8838614,26.5574195 L0.433471475,8.13764749 L5.5115595,8.13764749 L9.23216075,20.1674218 L12.904047,8.13764749 L17.8379963,8.13764749 L11.5030922,26.5563907 L11.5030922,40.1152602 L6.8838614,40.1152602 Z" id="youtube" fill="#231F20"></path>
    </g>
</svg>