<?xml version="1.0" encoding="UTF-8"?>
<svg width="240px" height="51px" viewBox="0 0 240 51" version="1.1" xmlns="http://www.w3.org/2000/svg" xmlns:xlink="http://www.w3.org/1999/xlink">
    <title>zillow</title>
    <g id="Logos" stroke="none" stroke-width="1" fill="none" fill-rule="evenodd">
        <path d="M149.9018,34.394335 C149.9018,25.1430878 157.364344,18.2921643 166.490575,18.2921643 C175.530255,18.2921643 182.992799,25.1430878 182.992799,34.394335 C182.992799,43.6705855 175.530255,50.5330491 166.490575,50.5330491 C157.364344,50.521509 149.9018,43.6705855 149.9018,34.394335 Z M93.5557425,7.29068116 L93.5557425,9.16593396 C93.5557425,9.86602834 93.4057223,10.0795187 93.2691654,10.3660958 L75.6033224,40.4451507 C75.566779,40.4951574 75.589859,40.5701675 75.6667925,40.5701675 L94.4808672,40.5701675 L94.4808672,49.5213742 L60.6013,49.5213742 L60.6013,47.7711383 C60.6013,46.9960338 60.7013134,46.8344735 61.1263708,46.059369 L78.5921868,16.3919081 C78.6287302,16.3303613 78.6037268,16.2668912 78.5287167,16.2668912 L61.1379108,16.2668912 L61.1379108,7.29068116 L93.5557425,7.29068116 Z M202.406955,49.5098342 L193.357658,49.5098342 L183.51787,19.0672687 L193.244181,19.0672687 L196.058022,28.2819725 C196.994687,31.3323837 198.569899,37.0581556 198.569899,37.0581556 C198.594903,37.1331657 198.694916,37.1197024 198.706456,37.0581556 C198.706456,37.0581556 200.331675,31.2189069 201.258723,28.2819725 L204.209121,19.0672687 L211.385088,19.0672687 L214.285479,28.2819725 C215.260611,31.4323972 216.785816,37.0581556 216.785816,37.0581556 C216.808896,37.1331657 216.89737,37.1331657 216.935837,37.0581556 C216.935837,37.0581556 218.511049,31.3689271 219.447714,28.2819725 L222.261555,19.0672687 L231.299311,19.0672687 L221.522994,49.5098342 L212.635257,49.5098342 L210.20993,41.8588028 C209.282882,38.8583983 207.646123,33.0326129 207.646123,33.0326129 C207.621119,32.9576028 207.521106,32.9576028 207.509566,33.0326129 C207.509566,33.0326129 205.870884,38.7449215 204.884212,41.808796 L202.406955,49.5098342 Z M110.596501,49.5098342 L100.756713,49.5098342 L100.756713,19.0672687 L110.596501,19.0672687 L110.596501,49.5098342 Z M118.059046,2.97663806 L127.898834,2.97663806 L127.898834,49.5098342 L118.059046,49.5098342 L118.059046,2.97663806 Z M135.186355,2.97663806 L145.026143,2.97663806 L145.026143,49.5098342 L135.186355,49.5098342 L135.186355,2.97663806 Z M173.554989,34.394335 C173.554989,29.8687249 170.31609,26.7798469 166.490575,26.7798469 C162.578509,26.7798469 159.339611,29.8687249 159.339611,34.394335 C159.339611,38.9584118 162.578509,42.0069006 166.490575,42.0069006 C170.31609,42.008823 173.554989,38.9584118 173.554989,34.394335 L173.554989,34.394335 Z M236.199972,11.7662845 C234.174699,11.7662845 232.524477,13.416507 232.524477,15.44178 C232.524477,17.467053 234.174699,19.1172755 236.199972,19.1172755 C238.225245,19.1172755 239.875468,17.467053 239.875468,15.44178 C239.875468,13.416507 238.225245,11.7662845 236.199972,11.7662845 Z M236.199972,18.4056411 C234.563213,18.4056411 233.236111,17.0804624 233.236111,15.44178 C233.236111,13.8050209 234.56129,12.4798422 236.199972,12.4798422 C237.836731,12.4798422 239.163833,13.8050209 239.163833,15.44178 C239.163833,17.0804624 237.838655,18.4056411 236.199972,18.4056411 Z M236.413462,13.2414834 C237.263577,13.2414834 237.875198,13.8665676 237.875198,14.7301456 C237.875198,15.3917733 237.513611,15.905304 236.975077,16.116871 L237.813651,17.4920564 L237.013543,17.4920564 L236.236516,16.2168845 L235.549884,16.2168845 L235.549884,17.4920564 L234.84979,17.4920564 L234.84979,13.2414834 L236.413462,13.2414834 Z M236.374996,13.8665676 L235.549884,13.8665676 L235.549884,15.5918002 L236.374996,15.5918002 C236.83852,15.5918002 237.175104,15.2282897 237.175104,14.7301456 C237.175104,14.2300782 236.83852,13.8665676 236.374996,13.8665676 Z M105.670837,3.81521264 C108.732788,3.81521264 111.271592,6.29054634 111.271592,9.34095756 C111.271592,12.3913688 108.732788,14.8667025 105.670837,14.8667025 C102.606963,14.8667025 100.070081,12.3913688 100.070081,9.34095756 C100.068159,6.29054634 102.606963,3.81521264 105.670837,3.81521264 Z M12.5601028,44.3730933 C12.37281,44.4734977 12.2202725,44.4483966 12.0696659,44.29779 L7.87778144,39.3026702 C7.7657919,39.1636487 7.75227592,39.0883454 7.90288255,38.8759514 C11.1428559,34.1318427 17.7560314,26.738602 21.973017,23.61448 C22.0483203,23.5642778 22.0232192,23.5005596 21.9343999,23.5391767 C17.5417066,24.9699396 5.05487262,30.3415759 0.436269416,32.9520908 L0.436269416,49.9185065 L45.3807623,49.9185065 L45.3807623,33.5796184 C39.2560928,34.6203488 20.9071855,40.0808045 12.5601028,44.3730933 L12.5601028,44.3730933 Z M30.8337068,13.8501504 C31.0596168,13.7999482 31.1600212,13.8752515 31.2971118,14.0258581 C32.0752461,14.8908808 34.5621863,17.9281144 35.2379852,18.7564508 C35.3634908,18.9070575 35.2766023,19.0711801 35.1761979,19.1580685 C30.155977,23.0738408 24.5700159,28.6211849 21.4574789,32.5871594 C21.3956916,32.6759787 21.4458938,32.6759787 21.496096,32.6624627 C26.9179346,30.32806 39.6557796,26.5995805 45.3923474,25.5588501 L45.3923474,18.2930458 L22.9403749,0.533049052 L0.449785395,18.2795299 L0.449785395,26.223064 C7.41437644,22.0833126 23.5292855,15.669015 30.8337068,13.8501504 Z" id="zillow" fill="#000000" fill-rule="nonzero"></path>
    </g>
</svg>