<?xml version="1.0" encoding="UTF-8"?>
<svg viewBox="0 0 51 45" version="1.1" xmlns="http://www.w3.org/2000/svg" xmlns:xlink="http://www.w3.org/1999/xlink">
    <title>data-vault</title>
    <g id="Products" stroke="none" stroke-width="1" fill="none" fill-rule="evenodd">
        <g id="Homepage-Copy-8" transform="translate(-104.000000, -1538.000000)" fill="#F3D6F7" fill-rule="nonzero">
            <path d="M151.891233,1538.16901 C153.120876,1538.16901 154.130784,1539.12984 154.212808,1540.34179 L154.218186,1540.50124 L154.218186,1576.50026 C154.218186,1577.73412 153.259514,1578.74752 152.050317,1578.82983 L151.891233,1578.83522 L151.646507,1578.83522 L151.646507,1581.34684 C151.646507,1581.94285 151.194788,1582.43515 150.616327,1582.49814 L150.49055,1582.50495 L143.182444,1582.50495 C142.587535,1582.50495 142.096156,1582.05238 142.033283,1581.47285 L142.026487,1581.34684 L142.026487,1578.83522 L131.041038,1578.83522 C130.636546,1578.83522 130.308616,1578.50729 130.308616,1578.1028 C130.308616,1577.73202 130.584168,1577.42557 130.941655,1577.37707 L131.041038,1577.37038 L151.891233,1577.37038 C152.330055,1577.37038 152.693323,1577.03779 152.746613,1576.60926 L152.753342,1576.50026 L152.753342,1540.50124 C152.753342,1540.05971 152.423831,1539.69424 151.999229,1539.64063 L151.891233,1539.63386 L106.542307,1539.63386 C106.104928,1539.63386 105.742853,1539.96536 105.689737,1540.39258 L105.68303,1540.50124 L105.68303,1576.50026 C105.68303,1576.94314 106.01146,1577.3098 106.434666,1577.36359 L106.542307,1577.37038 L127.854905,1577.37038 C128.259397,1577.37038 128.587327,1577.69831 128.587327,1578.1028 C128.587327,1578.47359 128.311775,1578.78004 127.954288,1578.82854 L127.854905,1578.83522 L116.993967,1578.83522 L116.993967,1581.34684 C116.993967,1581.94285 116.542249,1582.43515 115.963788,1582.49814 L115.83801,1582.50495 L108.529905,1582.50495 C107.934996,1582.50495 107.443617,1582.05238 107.380744,1581.47285 L107.373948,1581.34684 L107.373948,1578.83522 L106.542307,1578.83522 C105.314162,1578.83522 104.305483,1577.87323 104.223558,1576.65989 L104.218186,1576.50026 L104.218186,1540.50124 C104.218186,1539.26879 105.175693,1538.25661 106.383417,1538.1744 L106.542307,1538.16901 L151.891233,1538.16901 Z M115.529124,1578.83522 L108.838792,1578.83522 L108.838792,1581.04011 L115.529124,1581.04011 L115.529124,1578.83522 Z M150.181663,1578.83522 L143.491331,1578.83522 L143.491331,1581.04011 L150.181663,1581.04011 L150.181663,1578.83522 Z M127.854905,1542.25046 C128.259397,1542.25046 128.587327,1542.57839 128.587327,1542.98288 C128.587327,1543.35366 128.311775,1543.66011 127.954288,1543.70861 L127.854905,1543.7153 L110.290452,1543.7153 C110.027483,1543.7153 109.808653,1543.91021 109.767517,1544.16476 L109.760569,1544.25163 L109.760569,1545.93972 L111.129319,1545.93972 C111.788407,1545.93972 112.332311,1546.44457 112.397724,1547.08945 L112.404319,1547.22018 L112.404319,1550.77311 C112.404319,1551.43358 111.901609,1551.97868 111.259493,1552.04424 L111.129319,1552.05085 L109.760569,1552.05085 L109.760569,1564.95065 L111.129319,1564.95065 C111.788407,1564.95065 112.332311,1565.45448 112.397724,1566.09794 L112.404319,1566.22839 L112.404319,1569.78405 C112.404319,1570.44451 111.901609,1570.98962 111.259493,1571.05518 L111.129319,1571.06179 L109.760667,1571.06179 L109.760667,1572.75261 C109.760667,1573.01426 109.957234,1573.23936 110.205921,1573.28177 L110.29055,1573.28893 L148.472581,1573.28893 C148.731067,1573.28893 148.953483,1573.08999 148.995381,1572.83827 L149.002464,1572.75261 L149.002464,1544.25163 C149.002464,1543.98541 148.80993,1543.76396 148.558419,1543.72233 L148.472581,1543.7153 L131.295725,1543.7153 C130.891233,1543.7153 130.563303,1543.38737 130.563303,1542.98288 C130.563303,1542.61209 130.838855,1542.30564 131.196343,1542.25714 L131.295725,1542.25046 L148.472581,1542.25046 C149.522488,1542.25046 150.385536,1543.06845 150.461826,1544.1025 L150.467307,1544.25163 L150.467307,1572.75251 C150.467307,1573.80586 149.651982,1574.67165 148.621232,1574.74818 L148.472581,1574.75368 L110.29055,1574.75368 C109.24055,1574.75368 108.377497,1573.93577 108.301292,1572.9019 L108.295823,1572.7528 L108.295823,1571.05749 C107.677672,1571.01511 107.178873,1570.53053 107.115114,1569.91739 L107.108225,1569.78415 L107.108225,1566.22848 C107.108225,1565.59848 107.565899,1565.07482 108.165321,1564.97088 L108.295823,1564.95514 L108.295823,1552.04655 C107.677672,1552.00417 107.178873,1551.51959 107.115114,1550.90645 L107.108225,1550.77321 L107.108225,1547.22028 C107.108225,1546.58891 107.565899,1546.06414 108.165321,1545.95998 L108.295823,1545.94421 L108.295823,1544.25163 C108.295823,1543.19827 109.111148,1542.33249 110.141899,1542.25596 L110.29055,1542.25046 L127.854905,1542.25046 Z M110.939378,1566.4154 L108.573069,1566.4154 L108.573069,1569.59684 L110.939378,1569.59684 L110.939378,1566.4154 Z M123.184983,1548.26286 C125.948948,1548.26286 128.459592,1549.35983 130.300999,1551.13815 C130.342405,1551.1654 130.381565,1551.19723 130.417796,1551.23376 C130.451096,1551.26735 130.480198,1551.30358 130.505686,1551.34147 C132.266331,1553.14001 133.363792,1555.58259 133.402171,1558.27556 C133.410276,1558.31931 133.415061,1558.36423 133.415061,1558.41032 C133.415061,1558.45563 133.410374,1558.49987 133.402464,1558.54304 C133.370335,1561.24431 132.271995,1563.69509 130.506663,1565.49841 C130.483518,1565.53122 130.45803,1565.56286 130.428831,1565.59235 C130.397385,1565.62399 130.363499,1565.65163 130.328147,1565.67634 C128.489964,1567.46423 125.977952,1568.57009 123.210569,1568.57692 L123.207395,1568.57707 L123.184885,1568.57722 C117.548557,1568.57722 112.96301,1564.02136 112.96301,1558.42145 C112.96301,1552.81999 117.54846,1548.26286 123.184983,1548.26286 Z M123.917307,1549.75847 L123.917307,1550.82878 C123.917307,1551.23327 123.58928,1551.561 123.184788,1551.561 C122.814003,1551.561 122.507553,1551.28545 122.459052,1550.92796 L122.452366,1550.82858 L122.452366,1549.75827 C120.704533,1549.90265 119.101067,1550.55884 117.794371,1551.57507 L117.537034,1551.78307 L118.299925,1552.54011 C118.587034,1552.82497 118.588792,1553.28874 118.303928,1553.57585 C118.160764,1553.72009 117.972385,1553.79235 117.784007,1553.79235 C117.634788,1553.79235 117.485569,1553.7471 117.3587,1553.6564 L117.268089,1553.57985 L116.497483,1552.8152 C115.426041,1554.07305 114.707278,1555.63576 114.49424,1557.35199 L114.458421,1557.69723 L115.550217,1557.69723 C115.95471,1557.69723 116.282639,1558.02516 116.282639,1558.42966 C116.282639,1558.80044 116.007087,1559.10689 115.6496,1559.15539 L115.550217,1559.16208 L114.460081,1559.16208 C114.608396,1560.89728 115.272382,1562.48854 116.299234,1563.78426 L116.509397,1564.03942 L117.278733,1563.27438 C117.565745,1562.98923 118.029319,1562.9905 118.314573,1563.27731 C118.573806,1563.53814 118.596323,1563.94506 118.382786,1564.2312 L118.311643,1564.31315 L117.551194,1565.06931 C118.819749,1566.12994 120.395062,1566.83919 122.124007,1567.04738 L122.4718,1567.08229 L122.4718,1566.0112 C122.4718,1565.60671 122.799729,1565.27878 123.204221,1565.27878 C123.575006,1565.27878 123.881457,1565.55433 123.929957,1565.91182 L123.936643,1566.0112 L123.936643,1567.07956 C125.681181,1566.93143 127.281265,1566.2738 128.584574,1565.25692 L128.841233,1565.0488 L128.089182,1564.30261 C127.802073,1564.01774 127.800315,1563.55397 128.085178,1563.26686 C128.344145,1563.00577 128.750968,1562.98058 129.038505,1563.19225 L129.120921,1563.26286 L129.879124,1564.01511 C130.946079,1562.75873 131.661387,1561.19928 131.873206,1559.48716 L131.908811,1559.14274 L130.836253,1559.14274 C130.43176,1559.14274 130.103831,1558.81481 130.103831,1558.41032 C130.103831,1558.03954 130.379383,1557.73309 130.73687,1557.68459 L130.836253,1557.6779 L131.906858,1557.6779 C131.758543,1555.94755 131.097818,1554.36037 130.076283,1553.06667 L129.86721,1552.81188 L129.107151,1553.56608 C128.96428,1553.70778 128.777757,1553.77858 128.591233,1553.77858 C128.402854,1553.77858 128.214475,1553.70641 128.071311,1553.56208 C127.812345,1553.30116 127.790255,1552.89408 128.004088,1552.6082 L128.075315,1552.52634 L128.827268,1551.78024 C127.477561,1550.64753 125.779319,1549.91237 123.917307,1549.75847 Z M145.064866,1565.12028 C145.469358,1565.12028 145.797288,1565.44821 145.797288,1565.8527 C145.797288,1566.2572 145.469358,1566.58513 145.064866,1566.58513 L145.064866,1566.58513 L136.713108,1566.58513 C136.308616,1566.58513 135.980686,1566.2572 135.980686,1565.8527 C135.980686,1565.44821 136.308616,1565.12028 136.713108,1565.12028 L136.713108,1565.12028 Z M123.184788,1552.76169 C126.316331,1552.76169 128.863987,1555.2944 128.863987,1558.40749 C128.863987,1561.52057 126.316331,1564.05329 123.184788,1564.05329 C120.053245,1564.05329 117.505589,1561.52057 117.505589,1558.40749 C117.505589,1555.2944 120.053245,1552.76169 123.184788,1552.76169 Z M145.064866,1561.62028 C145.469358,1561.62028 145.797288,1561.94821 145.797288,1562.3527 C145.797288,1562.7572 145.469358,1563.08513 145.064866,1563.08513 L145.064866,1563.08513 L136.713108,1563.08513 C136.308616,1563.08513 135.980686,1562.7572 135.980686,1562.3527 C135.980686,1561.94821 136.308616,1561.62028 136.713108,1561.62028 L136.713108,1561.62028 Z M123.184885,1554.22653 C120.861057,1554.22653 118.97053,1556.10212 118.97053,1558.40749 C118.97053,1560.71286 120.861057,1562.58845 123.184885,1562.58845 C125.508714,1562.58845 127.399241,1560.71286 127.399241,1558.40749 C127.399241,1556.10212 125.508714,1554.22653 123.184885,1554.22653 Z M145.064866,1558.12028 C145.469358,1558.12028 145.797288,1558.44821 145.797288,1558.8527 C145.797288,1559.2572 145.469358,1559.58513 145.064866,1559.58513 L145.064866,1559.58513 L136.713108,1559.58513 C136.308616,1559.58513 135.980686,1559.2572 135.980686,1558.8527 C135.980686,1558.44821 136.308616,1558.12028 136.713108,1558.12028 L136.713108,1558.12028 Z M144.250999,1549.7069 C144.924369,1549.7069 145.480066,1550.22163 145.546897,1550.87917 L145.553635,1551.01247 L145.553635,1553.90319 C145.553635,1554.57665 145.040025,1555.13236 144.383994,1555.19919 L144.250999,1555.20593 L137.526975,1555.20593 C136.853605,1555.20593 136.297908,1554.69232 136.231077,1554.0362 L136.224339,1553.90319 L136.224339,1551.01247 C136.224339,1550.33754 136.737949,1549.78063 137.39398,1549.71366 L137.526975,1549.7069 L144.250999,1549.7069 Z M144.088889,1551.17165 L137.689182,1551.17165 L137.689182,1553.74098 L144.088889,1553.74098 L144.088889,1551.17165 Z M110.939378,1547.40456 L108.573069,1547.40456 L108.573069,1550.586 L110.939378,1550.586 L110.939378,1547.40456 Z" id="data-vault"></path>
        </g>
    </g>
</svg>