<?xml version="1.0" encoding="UTF-8"?>
<svg viewBox="0 0 51 54" version="1.1" xmlns="http://www.w3.org/2000/svg" xmlns:xlink="http://www.w3.org/1999/xlink">
    <title>emulator-plugin-protocol</title>
    <g id="Products" stroke="none" stroke-width="1" fill="none" fill-rule="evenodd">
        <g id="Homepage-Copy-8" transform="translate(-104.000000, -1228.000000)" fill="#F3D6F7" fill-rule="nonzero">
            <path d="M111.137863,1251.7655 C111.137863,1252.23232 111.516289,1252.61074 111.9831,1252.61074 L116.817858,1252.61074 C117.28467,1252.61074 117.663096,1252.23232 117.663096,1251.7655 L117.663096,1246.93638 C117.663096,1246.46957 117.28467,1246.09114 116.817858,1246.09114 L111.9831,1246.09114 C111.516289,1246.09114 111.137863,1246.46957 111.137863,1246.93638 L111.137863,1251.7655 Z M112.828338,1247.78162 L115.972621,1247.78162 L115.972621,1250.92027 L112.828338,1250.92027 L112.828338,1247.78162 Z M120.773569,1250.92027 L128.09896,1250.92027 C128.565772,1250.92027 128.944197,1251.29869 128.944197,1251.7655 C128.944197,1252.23232 128.565772,1252.61074 128.09896,1252.61074 L120.773569,1252.61074 C120.306757,1252.61074 119.928332,1252.23232 119.928332,1251.7655 C119.928332,1251.29869 120.306757,1250.92027 120.773569,1250.92027 Z M116.829128,1256.76931 L111.9831,1256.76931 C111.516289,1256.76931 111.137863,1257.14774 111.137863,1257.61455 L111.137863,1262.4493 C111.137863,1262.91612 111.516289,1263.29454 111.9831,1263.29454 L116.817858,1263.29454 C117.28467,1263.29454 117.663096,1262.91612 117.663096,1262.4493 L117.663096,1257.61455 C117.663096,1257.14774 117.28467,1256.76931 116.817858,1256.76931 L116.829128,1256.76931 Z M115.983891,1261.60407 L112.828338,1261.60407 L112.828338,1258.45978 L115.972621,1258.45978 L115.983891,1261.60407 Z M116.829128,1267.45311 L111.9831,1267.45311 C111.516289,1267.45311 111.137863,1267.83154 111.137863,1268.29835 L111.137863,1273.12747 C111.137863,1273.59428 111.516289,1273.97271 111.9831,1273.97271 L116.817858,1273.97271 C117.28467,1273.97271 117.663096,1273.59428 117.663096,1273.12747 L117.663096,1268.29835 C117.663096,1267.83154 117.28467,1267.45311 116.817858,1267.45311 L116.829128,1267.45311 Z M115.983891,1272.28223 L112.828338,1272.28223 L112.828338,1269.14359 L115.972621,1269.14359 L115.983891,1272.28223 Z M115.133018,1243.34131 C115.133018,1242.87449 115.511444,1242.49607 115.978256,1242.49607 L125.557613,1242.49607 C126.024424,1242.49607 126.40285,1242.87449 126.40285,1243.34131 C126.40285,1243.80812 126.024424,1244.18654 125.557613,1244.18654 L115.978256,1244.18654 C115.511444,1244.18654 115.133018,1243.80812 115.133018,1243.34131 Z M138.889824,1250.54836 C137.869846,1250.54911 136.852458,1250.65104 135.852604,1250.85265 L135.852604,1238.16845 C135.849501,1236.1749 134.234178,1234.55957 132.240623,1234.55647 L128.932927,1234.55647 L128.932927,1233.9479 C128.932927,1233.48109 128.554502,1233.10266 128.08769,1233.10266 L123.489599,1233.10266 L123.489599,1232.23489 C123.540939,1230.9604 122.89027,1229.76013 121.794295,1229.1076 C120.69832,1228.45507 119.333026,1228.45507 118.237051,1229.1076 C117.141076,1229.76013 116.490407,1230.9604 116.541747,1232.23489 L116.541747,1233.10266 L111.9831,1233.10266 C111.516289,1233.10266 111.137863,1233.48109 111.137863,1233.9479 L111.137863,1234.55647 L107.830167,1234.55647 C105.835325,1234.55647 104.218186,1236.17361 104.218186,1238.16845 L104.218186,1277.55088 C104.221289,1279.54444 105.836612,1281.15976 107.830167,1281.16286 L132.240623,1281.16286 C132.999727,1281.16145 133.739091,1280.92091 134.353716,1280.4754 C140.110648,1282.26905 146.384245,1280.51651 150.378118,1275.99894 C154.371992,1271.48137 155.342224,1265.04024 152.856343,1259.54663 C150.370462,1254.05301 144.891502,1250.53016 138.861649,1250.54836 L138.889824,1250.54836 Z M128.932927,1236.24695 L132.240623,1236.24695 C133.301842,1236.24695 134.162129,1237.10723 134.162129,1238.16845 L134.162129,1251.29781 C133.716971,1251.44431 133.283082,1251.60773 132.854829,1251.78804 L132.854829,1238.39385 C132.854829,1237.92704 132.476403,1237.54861 132.009591,1237.54861 L128.932927,1237.54861 L128.932927,1236.24695 Z M118.226587,1232.23489 C118.189413,1231.5738 118.520973,1230.94638 119.088096,1230.60464 C119.65522,1230.26289 120.364856,1230.26289 120.93198,1230.60464 C121.499103,1230.94638 121.830663,1231.5738 121.793489,1232.23489 L121.793489,1233.10266 L118.249127,1233.10266 L118.226587,1232.23489 Z M112.805798,1234.79314 L127.242453,1234.79314 L127.242453,1238.90099 L112.828338,1238.90099 L112.805798,1234.79314 Z M111.9831,1240.59147 L128.08769,1240.59147 C128.554502,1240.59147 128.932927,1240.21304 128.932927,1239.74623 L128.932927,1239.23909 L131.186894,1239.23909 L131.186894,1252.65019 C127.796687,1254.63212 125.292803,1257.83556 124.188328,1261.60407 L120.773569,1261.60407 C120.306757,1261.60407 119.928332,1261.98249 119.928332,1262.4493 C119.928332,1262.91612 120.306757,1263.29454 120.773569,1263.29454 L123.805154,1263.29454 C123.282428,1266.34279 123.701105,1269.47796 125.005391,1272.28223 L120.773569,1272.28223 C120.306757,1272.28223 119.928332,1272.66066 119.928332,1273.12747 C119.928332,1273.59428 120.306757,1273.97271 120.773569,1273.97271 L125.923882,1273.97271 C126.417818,1274.75797 126.983749,1275.49556 127.614357,1276.17596 L108.900801,1276.17596 L108.900801,1239.23909 L111.154768,1239.23909 L111.154768,1239.74623 C111.154676,1240.20652 111.522903,1240.58226 111.9831,1240.59147 L111.9831,1240.59147 Z M107.830167,1279.47239 C106.768949,1279.47239 105.908661,1278.6121 105.908661,1277.55088 L105.908661,1238.16845 C105.908661,1237.10723 106.768949,1236.24695 107.830167,1236.24695 L111.137863,1236.24695 L111.137863,1237.54861 L108.055564,1237.54861 C107.588752,1237.54861 107.210327,1237.92704 107.210327,1238.39385 L107.210327,1277.0212 C107.210327,1277.48801 107.588752,1277.86643 108.055564,1277.86643 L129.423165,1277.86643 C130.207821,1278.48341 131.051523,1279.02134 131.941972,1279.47239 L107.830167,1279.47239 Z M138.889824,1279.47239 C131.367931,1279.47239 125.270232,1273.37469 125.270232,1265.85279 C125.270232,1258.3309 131.367931,1252.2332 138.889824,1252.2332 C146.411717,1252.2332 152.509416,1258.3309 152.509416,1265.85279 C152.503201,1273.37211 146.409141,1279.46617 138.889824,1279.47239 Z M148.587514,1258.9951 C148.985915,1258.75271 149.505353,1258.87879 149.748307,1259.27685 C151.466672,1262.11282 152.006703,1265.50875 151.252829,1268.73787 C151.163794,1269.12045 150.822933,1269.39127 150.430132,1269.39152 C150.366517,1269.39948 150.302159,1269.39948 150.238544,1269.39152 C149.784364,1269.28546 149.501933,1268.83155 149.607434,1268.37724 C149.799389,1267.55714 149.895823,1266.71759 149.894815,1265.87533 C149.894815,1265.5316 149.894815,1265.19351 149.838465,1264.84978 C149.682249,1263.18755 149.150455,1261.58254 148.283229,1260.15589 C148.168752,1259.96183 148.136499,1259.73008 148.193632,1259.51213 C148.250766,1259.29418 148.392556,1259.10806 148.587514,1258.9951 L148.587514,1258.9951 Z M144.468391,1255.36622 C144.58785,1255.1763 144.777913,1255.04168 144.996704,1254.992 C145.215495,1254.94232 145.44506,1254.98167 145.634818,1255.10137 C146.233582,1255.47691 146.799135,1255.90296 147.325293,1256.37487 C147.587359,1256.60834 147.677872,1256.97947 147.552716,1257.30738 C147.427561,1257.63529 147.112781,1257.85173 146.761801,1257.85121 C146.55423,1257.85048 146.353988,1257.77438 146.19831,1257.63709 C145.740714,1257.22304 145.250799,1256.84618 144.733232,1256.5101 C144.351306,1256.26235 144.234215,1255.75661 144.468391,1255.36622 Z M146.891404,1262.34224 L142.383472,1262.34224 L142.383472,1257.83431 C142.383472,1257.3675 142.005046,1256.98907 141.538234,1256.98907 L136.224509,1256.98907 C135.757697,1256.98907 135.379271,1257.3675 135.379271,1257.83431 L135.379271,1262.34224 L130.871338,1262.34224 C130.404527,1262.34224 130.026101,1262.72067 130.026101,1263.18748 L130.026101,1268.52374 C130.026101,1268.99056 130.404527,1269.36898 130.871338,1269.36898 L135.379271,1269.36898 L135.379271,1273.87691 C135.403143,1274.32698 135.773819,1274.68036 136.224509,1274.68271 L141.560774,1274.68271 C142.026307,1274.67963 142.402938,1274.303 142.406011,1273.83747 L142.406011,1269.32954 L146.913944,1269.32954 C147.379477,1269.32646 147.756108,1268.94983 147.759181,1268.4843 L147.759181,1263.18748 C147.757719,1262.95983 147.665094,1262.74227 147.502016,1262.58342 C147.338939,1262.42458 147.11901,1262.33771 146.891404,1262.34224 L146.891404,1262.34224 Z M146.029262,1267.67851 L141.52133,1267.67851 C141.054518,1267.67851 140.676092,1268.05693 140.676092,1268.52374 L140.676092,1273.03168 L137.069746,1273.03168 L137.069746,1268.52374 C137.069746,1268.05693 136.69132,1267.67851 136.224509,1267.67851 L131.716576,1267.67851 L131.716576,1264.03272 L136.224509,1264.03272 C136.69132,1264.03272 137.069746,1263.65429 137.069746,1263.18748 L137.069746,1258.67955 L140.715537,1258.67955 L140.715537,1263.18748 C140.715537,1263.65429 141.093962,1264.03272 141.560774,1264.03272 L146.068707,1264.03272 L146.029262,1267.67851 Z" id="emulator-plugin-protocol"></path>
        </g>
    </g>
</svg>