<?xml version="1.0" encoding="UTF-8"?>
<svg viewBox="0 0 51 43" version="1.1" xmlns="http://www.w3.org/2000/svg" xmlns:xlink="http://www.w3.org/1999/xlink">
    <title>js-path</title>
    <g id="Products" stroke="none" stroke-width="1" fill="none" fill-rule="evenodd">
        <g id="Homepage-Copy-8" transform="translate(-104.000000, -1879.000000)" fill="#F3D6F7" fill-rule="nonzero">
            <path d="M124.823167,1879.83099 C125.362522,1879.83099 125.799729,1880.26819 125.799729,1880.80755 C125.799729,1881.34691 125.362522,1881.78411 124.823167,1881.78411 L124.823167,1881.78411 L106.171311,1881.78411 L106.171311,1887.64349 L152.265061,1887.64349 L152.265061,1881.78411 L133.613206,1881.78411 C133.07385,1881.78411 132.636643,1881.34691 132.636643,1880.80755 C132.636643,1880.26819 133.07385,1879.83099 133.613206,1879.83099 L133.613206,1879.83099 L152.265061,1879.83099 C153.342014,1879.83099 154.218186,1880.70716 154.218186,1881.78411 L154.218186,1881.78411 L154.218186,1919.16751 C154.218186,1920.24446 153.342014,1921.12064 152.265061,1921.12064 L152.265061,1921.12064 L106.171311,1921.12064 C105.094358,1921.12064 104.218186,1920.24446 104.218186,1919.16751 L104.218186,1919.16751 L104.218186,1881.78411 C104.218186,1880.70716 105.094358,1879.83099 106.171311,1879.83099 L106.171311,1879.83099 Z M152.265061,1889.59661 L106.171311,1889.59661 L106.171311,1919.16751 L152.265061,1919.16751 L152.265061,1889.59661 Z M129.218186,1897.86116 C132.395237,1897.86116 135.0343,1900.27152 135.494456,1903.4055 L135.494456,1903.4055 L142.890061,1903.4055 C143.429417,1903.4055 143.866624,1903.84271 143.866624,1904.38206 C143.866624,1904.92142 143.429417,1905.35862 142.890061,1905.35862 L142.890061,1905.35862 L135.494456,1905.35862 C135.0343,1908.49261 132.395237,1910.90296 129.218186,1910.90296 C126.041135,1910.90296 123.402073,1908.49261 122.941917,1905.35862 L122.941917,1905.35862 L115.546311,1905.35862 C115.006956,1905.35862 114.569749,1904.92142 114.569749,1904.38206 C114.569749,1903.84271 115.006956,1903.4055 115.546311,1903.4055 L115.546311,1903.4055 L122.941917,1903.4055 C123.402073,1900.27152 126.041135,1897.86116 129.218186,1897.86116 Z M129.218186,1899.81429 C126.795042,1899.81429 124.823655,1901.86341 124.823655,1904.38206 C124.823655,1906.90071 126.795042,1908.94984 129.218186,1908.94984 C131.641331,1908.94984 133.612717,1906.90071 133.612717,1904.38206 C133.612717,1901.86341 131.641331,1899.81429 129.218186,1899.81429 Z M121.509397,1883.73724 C122.048753,1883.73724 122.48596,1884.17444 122.48596,1884.7138 C122.48596,1885.25316 122.048753,1885.69036 121.509397,1885.69036 L121.509397,1885.69036 L113.449143,1885.69036 C112.909788,1885.69036 112.472581,1885.25316 112.472581,1884.7138 C112.472581,1884.17444 112.909788,1883.73724 113.449143,1883.73724 L113.449143,1883.73724 Z M109.542893,1883.73724 C110.082234,1883.73724 110.519456,1884.17446 110.519456,1884.7138 C110.519456,1885.25314 110.082234,1885.69036 109.542893,1885.69036 C109.003553,1885.69036 108.566331,1885.25314 108.566331,1884.7138 C108.566331,1884.17446 109.003553,1883.73724 109.542893,1883.73724 Z M129.218186,1879.83099 C129.757527,1879.83099 130.194749,1880.26821 130.194749,1880.80755 C130.194749,1881.34689 129.757527,1881.78411 129.218186,1881.78411 C128.678846,1881.78411 128.241624,1881.34689 128.241624,1880.80755 C128.241624,1880.26821 128.678846,1879.83099 129.218186,1879.83099 Z" id="js-path"></path>
        </g>
    </g>
</svg>