<?xml version="1.0" encoding="UTF-8"?>
<svg viewBox="0 0 51 51" version="1.1" xmlns="http://www.w3.org/2000/svg" xmlns:xlink="http://www.w3.org/1999/xlink">
    <title>locked-chromes</title>
    <g id="Products" stroke="none" stroke-width="1" fill="none" fill-rule="evenodd">
        <g id="Homepage-Copy-8" transform="translate(-861.000000, -1879.000000)" fill="#F3D6F7" fill-rule="nonzero">
            <path d="M909.078998,1895.76722 C909.499213,1895.76722 909.874115,1896.03089 910.016205,1896.4263 C910.984467,1899.11986 911.475385,1901.947 911.475385,1904.82952 C911.475385,1911.50794 908.875092,1917.78655 904.153217,1922.50862 C899.43183,1927.2305 893.154096,1929.83099 886.47685,1929.83099 C886.322553,1929.83099 886.175775,1929.82161 886.046088,1929.81331 C885.936615,1929.80628 885.833197,1929.79974 885.742963,1929.79974 C885.394818,1929.79974 885.071869,1929.6178 884.891303,1929.32005 C884.710736,1929.0223 884.698822,1928.65189 884.859955,1928.3431 C884.989411,1928.09492 886.536136,1925.13355 888.408987,1921.71012 L888.707251,1921.16606 C888.80747,1920.98365 888.908433,1920.80029 889.009981,1920.6163 L889.316223,1920.06279 L889.316223,1920.06279 L889.868221,1919.07234 C891.469416,1916.21364 893.10464,1913.42426 894.186127,1911.91683 C895.567279,1909.98821 896.979779,1907.63743 896.979779,1904.82952 C896.979779,1902.07034 895.886908,1899.4555 893.902436,1897.46683 C893.618061,1897.18177 893.533197,1896.75355 893.687592,1896.38157 C893.826459,1896.0468 894.134287,1895.81699 894.488058,1895.77438 L894.607514,1895.76722 L909.078998,1895.76722 Z M866.21269,1891.02567 C866.513898,1891.02819 866.795143,1891.16667 866.980863,1891.39811 L867.054389,1891.50286 L867.136152,1891.637 C867.607551,1892.4111 869.819414,1896.05385 872.036813,1899.87465 L872.416669,1900.53088 C874.123352,1903.48727 875.774331,1906.45812 876.573139,1908.20823 C878.609369,1912.66956 882.311811,1915.33314 886.476947,1915.33314 C887.207221,1915.33314 887.954975,1915.24515 888.699408,1915.07142 C889.086127,1914.98128 889.489057,1915.12923 889.725483,1915.44778 C889.935639,1915.73112 889.978588,1916.10126 889.846306,1916.42151 L889.788471,1916.539 L882.688666,1928.8513 C882.508686,1929.16361 882.177143,1929.34974 881.826068,1929.34974 C881.762299,1929.34974 881.697943,1929.34349 881.633588,1929.33099 C876.028608,1928.22864 870.919623,1925.19466 867.247748,1920.78802 C863.525385,1916.32064 861.475385,1910.65306 861.475385,1904.82952 C861.475385,1900.11409 862.819721,1895.50081 865.362983,1891.48851 C865.547358,1891.19778 865.871381,1891.0223 866.21269,1891.02567 Z M908.367279,1897.75921 L896.738666,1897.75921 C898.190229,1899.83187 898.971772,1902.27767 898.971772,1904.82943 C898.971772,1908.22073 897.279584,1911.01859 895.80517,1913.07728 C893.688471,1916.02777 889.180951,1924.43138 887.386225,1927.82122 C899.652436,1927.34241 909.483295,1917.21263 909.483295,1904.82943 C909.483295,1902.41165 909.1081,1900.03655 908.367279,1897.75921 Z M866.218158,1893.96741 C864.414154,1897.31234 863.467377,1901.03548 863.467377,1904.82952 C863.467377,1915.41871 870.762205,1924.63503 880.963552,1927.14321 L881.324799,1927.22894 L887.04394,1917.31077 C886.854389,1917.32034 886.665229,1917.32523 886.476947,1917.32523 C881.510053,1917.32523 877.130268,1914.2262 874.761029,1909.03548 C873.22558,1905.67171 868.241108,1897.32142 866.218158,1893.96741 Z M907.201264,1907.23861 C907.741986,1907.34007 908.098041,1907.86058 907.996479,1908.4012 C907.30185,1912.10364 905.67226,1915.61087 903.283783,1918.54398 C900.923822,1921.44202 897.862397,1923.73558 894.430658,1925.1765 C894.304779,1925.22933 894.174115,1925.25443 894.045502,1925.25443 C893.65644,1925.25443 893.286811,1925.02503 893.126752,1924.64378 C892.913764,1924.13655 893.152338,1923.55277 893.659565,1923.33978 C900.121967,1920.6263 904.749604,1914.90452 906.038666,1908.03382 C906.140229,1907.4931 906.660736,1907.13743 907.201264,1907.23861 Z M886.476947,1896.07767 C891.302143,1896.07767 895.228608,1900.00374 895.229389,1904.82923 C895.229389,1909.66253 891.303022,1913.59446 886.476947,1913.59446 C881.643842,1913.59446 877.711811,1909.66243 877.711811,1904.82943 C877.711811,1900.00364 881.643842,1896.07767 886.476947,1896.07767 Z M886.476947,1898.06966 C882.742279,1898.06966 879.703803,1901.10208 879.703803,1904.82943 C879.703803,1908.56409 882.742279,1911.60247 886.476947,1911.60247 C890.204779,1911.60247 893.237397,1908.56419 893.237397,1904.82943 C893.236713,1901.10208 890.203998,1898.06966 886.476947,1898.06966 Z M907.391693,1903.18148 C907.941693,1903.18148 908.38769,1903.62737 908.38769,1904.17747 C908.38769,1904.40491 908.384272,1904.6346 908.377631,1904.86038 C908.361615,1905.40032 907.919037,1905.82698 907.382611,1905.82698 L907.382611,1905.82698 L907.352533,1905.82659 C906.802631,1905.81038 906.370209,1905.3514 906.38642,1904.80159 C906.392572,1904.59534 906.395697,1904.38538 906.395697,1904.17747 C906.395697,1903.62737 906.841693,1903.18148 907.391693,1903.18148 Z M886.476947,1879.83099 C891.008783,1879.83099 895.445502,1881.05687 899.307611,1883.37611 C903.05224,1885.62484 906.161127,1888.83216 908.298236,1892.6514 C908.469916,1892.95823 908.467084,1893.33284 908.290717,1893.63694 C908.114447,1893.94114 907.790815,1894.12982 907.43935,1894.13353 L907.404795,1894.13389 C906.998465,1894.13818 903.183725,1894.17787 898.798465,1894.2217 L898.168425,1894.22798 C897.957322,1894.23008 897.745232,1894.23219 897.532461,1894.2343 L896.892412,1894.24064 C896.678586,1894.24275 896.464385,1894.24486 896.250116,1894.24697 L895.507519,1894.25426 C891.921555,1894.28934 888.415924,1894.32217 886.432123,1894.33685 C881.892865,1894.37054 877.9039,1897.28021 876.506049,1901.57698 C876.383686,1901.95345 876.049799,1902.22161 875.655854,1902.26019 C875.623334,1902.26351 875.590815,1902.26497 875.558588,1902.26497 C875.240185,1902.26497 874.940995,1902.11235 874.754023,1901.8558 L874.68935,1901.75482 L867.733783,1889.30804 C867.526361,1888.93685 867.577436,1888.47493 867.860834,1888.15804 C872.595111,1882.86614 879.380365,1879.83099 886.476947,1879.83099 Z M886.476947,1881.82298 C880.328705,1881.82298 874.43425,1884.2988 870.129737,1888.65247 L869.824994,1888.96663 L875.435834,1899.00726 C877.55224,1894.9848 881.739252,1892.37972 886.417279,1892.34505 C890.572455,1892.31439 901.411322,1892.20394 905.667572,1892.15989 C901.423627,1885.74319 894.218842,1881.82298 886.476947,1881.82298 Z" id="locked-chromes"></path>
        </g>
    </g>
</svg>