<?xml version="1.0" encoding="UTF-8"?>
<svg viewBox="0 0 51 47" version="1.1" xmlns="http://www.w3.org/2000/svg" xmlns:xlink="http://www.w3.org/1999/xlink">
    <title>mission-impossible</title>
    <g id="Products" stroke="none" stroke-width="1" fill="none" fill-rule="evenodd">
        <g id="Homepage-Copy-8" transform="translate(-104.000000, -1702.000000)" fill="#F3D6F7" fill-rule="nonzero">
            <path d="M125.507226,1702.53914 C131.193743,1702.53914 136.539929,1704.75359 140.560725,1708.77458 C143.327812,1711.54177 145.263454,1714.9819 146.185719,1718.75729 L146.185719,1718.75729 L153.241473,1718.75729 C153.636492,1718.75729 153.992547,1718.99518 154.143718,1719.36012 C154.29489,1719.72496 154.211394,1720.14508 153.932097,1720.42438 L153.932097,1720.42438 L150.528293,1723.82818 L153.932195,1727.23208 C154.211394,1727.51138 154.294988,1727.9315 154.143816,1728.29634 C153.992644,1728.66118 153.636492,1728.89917 153.241571,1728.89917 L153.241571,1728.89917 L146.185719,1728.89917 C145.263552,1732.67427 143.326933,1736.11586 140.56092,1738.88188 C139.365219,1740.07758 138.051646,1741.11205 136.647448,1741.97758 L136.647448,1741.97758 L139.589535,1747.17532 C139.760628,1747.47757 139.758285,1747.84808 139.583285,1748.14817 C139.408285,1748.44827 139.087094,1748.63284 138.739633,1748.63284 L138.739633,1748.63284 L133.710342,1748.63284 C133.358487,1748.63284 133.03378,1748.44358 132.86044,1748.13733 L132.86044,1748.13733 L130.780169,1744.46205 C129.077534,1744.89398 127.309568,1745.11722 125.507226,1745.11722 C123.704884,1745.11722 121.936917,1744.89398 120.234282,1744.46205 L120.234282,1744.46205 L118.154011,1748.13733 C117.980671,1748.44358 117.655965,1748.63284 117.30411,1748.63284 L117.30411,1748.63284 L112.274818,1748.63284 C111.927358,1748.63284 111.606167,1748.44827 111.431264,1748.14808 C111.256265,1747.84808 111.253921,1747.47757 111.425014,1747.17523 L111.425014,1747.17523 L114.367101,1741.97748 C112.962903,1741.11205 111.649331,1740.07748 110.453629,1738.88178 C106.432637,1734.86088 104.218186,1729.5147 104.218186,1723.82818 C104.218186,1718.14166 106.432637,1712.79558 110.453629,1708.77458 C114.474523,1704.75359 119.820708,1702.53914 125.507226,1702.53914 Z M116.075302,1742.92455 L113.949719,1746.67972 L116.734677,1746.67972 L118.319929,1743.87914 C117.553719,1743.60511 116.804794,1743.28568 116.075302,1742.92455 L116.075302,1742.92455 Z M134.939149,1742.92455 C134.209658,1743.28568 133.460733,1743.60511 132.694523,1743.87914 L132.694523,1743.87914 L134.279775,1746.67972 L137.064733,1746.67972 Z M125.507226,1704.49226 C120.342388,1704.49226 115.486729,1706.50359 111.834682,1710.15564 C108.182635,1713.80768 106.171309,1718.66334 106.171309,1723.82818 C106.171309,1728.99302 108.182635,1733.84868 111.83478,1737.50073 C113.124817,1738.79086 114.565636,1739.87504 116.116611,1740.7393 C116.135751,1740.74857 116.15499,1740.75736 116.173837,1740.76801 L116.173837,1740.76801 L116.207822,1740.78959 C117.397469,1741.44408 118.651178,1741.96957 119.951958,1742.35765 C120.003228,1742.36781 120.053814,1742.38285 120.103814,1742.4016 C121.837601,1742.90326 123.652247,1743.1641 125.507226,1743.1641 C127.362204,1743.1641 129.176851,1742.90326 130.910638,1742.4015 C130.96054,1742.38275 131.011126,1742.36771 131.062298,1742.35756 C132.363175,1741.96947 133.616885,1741.44398 134.80663,1740.78949 L134.80663,1740.78949 L134.840614,1740.76791 C134.859462,1740.75726 134.878798,1740.74848 134.897938,1740.7392 C136.448913,1739.87494 137.889732,1738.79076 139.17977,1737.50073 C141.578497,1735.102 143.290703,1732.14477 144.169803,1728.89917 L144.169803,1728.89917 L143.664042,1728.89917 C143.405058,1728.89917 143.156621,1728.79624 142.973516,1728.61314 L142.973516,1728.61314 L140.385139,1726.02476 C139.913753,1729.24028 138.449497,1732.15444 136.141394,1734.46245 C133.300967,1737.30287 129.524311,1738.86723 125.507226,1738.86723 C121.49014,1738.86723 117.713484,1737.30287 114.87296,1734.46235 C112.032533,1731.62192 110.468179,1727.84527 110.468179,1723.82818 C110.468179,1719.8111 112.032533,1716.03454 114.873058,1713.19401 C117.225692,1710.84128 120.20811,1709.36453 123.497658,1708.92331 C126.680955,1708.49617 129.974799,1709.11169 132.772159,1710.65613 C133.244327,1710.91687 133.415713,1711.51091 133.155069,1711.98308 C132.894327,1712.45524 132.300187,1712.62653 131.828117,1712.36599 C126.758201,1709.56687 120.353911,1710.47527 116.254111,1714.57507 C113.782434,1717.04665 112.421302,1720.33278 112.421302,1723.82818 C112.421302,1727.32359 113.782434,1730.60972 116.254111,1733.0813 C118.72569,1735.55297 122.011917,1736.9141 125.507226,1736.9141 C129.002534,1736.9141 132.288761,1735.55297 134.760341,1733.0813 C137.021569,1730.81997 138.309751,1727.85747 138.542661,1724.80474 L138.542661,1724.80474 L134.241005,1724.80474 C134.023623,1726.78296 133.149503,1728.61548 131.721965,1730.04302 C130.062006,1731.70298 127.854879,1732.61723 125.507226,1732.61723 C123.159572,1732.61723 120.952446,1731.70298 119.292389,1730.04292 C117.63243,1728.38296 116.718173,1726.17584 116.718173,1723.82818 C116.718173,1721.48053 117.63243,1719.2735 119.292486,1717.61334 C120.952446,1715.95339 123.159572,1715.03913 125.507226,1715.03913 C127.854879,1715.03913 130.062006,1715.95339 131.722063,1717.61354 C133.1496,1719.04108 134.02372,1720.87359 134.241103,1722.85172 L134.241103,1722.85172 L138.546958,1722.85172 C138.414438,1721.01207 137.896568,1719.18649 136.969518,1717.50739 C136.708874,1717.03522 136.88026,1716.44108 137.352428,1716.18044 C137.824595,1715.91989 138.418735,1716.09118 138.67938,1716.56335 C139.546175,1718.13336 140.120198,1719.85973 140.381721,1721.63522 L140.381721,1721.63522 L142.973613,1719.04332 C143.156718,1718.86022 143.405156,1718.75729 143.66414,1718.75729 L143.66414,1718.75729 L144.169803,1718.75729 C143.290996,1715.51149 141.579474,1712.55534 139.17977,1710.15564 C135.527723,1706.50359 130.672064,1704.49226 125.507226,1704.49226 Z M125.507226,1716.99225 C123.681251,1716.99225 121.964651,1717.70329 120.67354,1718.9944 C119.38233,1720.28561 118.671296,1722.00221 118.671296,1723.82818 C118.671296,1725.65416 119.38233,1727.37076 120.673442,1728.66187 C121.964651,1729.95308 123.681251,1730.66411 125.507226,1730.66411 C127.3332,1730.66411 129.0498,1729.95308 130.340912,1728.66187 L130.340912,1728.66187 L130.547288,1728.44653 C131.485895,1727.42428 132.080396,1726.16309 132.273625,1724.80474 L132.273625,1724.80474 L128.750875,1724.80474 C128.864253,1725.07613 128.855171,1725.39517 128.696675,1725.66959 C128.515816,1725.98287 128.187594,1726.15796 127.850094,1726.15796 C127.684372,1726.15796 127.516501,1726.11578 127.362693,1726.02701 L127.362693,1726.02701 L125.018945,1724.67388 C124.716797,1724.49947 124.530664,1724.17711 124.530664,1723.82818 C124.530664,1723.47926 124.716797,1723.15689 125.018945,1722.98248 L125.018945,1722.98248 L127.362693,1721.62936 C127.829782,1721.35963 128.427047,1721.51959 128.696675,1721.98678 C128.855171,1722.26119 128.864253,1722.58014 128.750972,1722.85162 L128.750972,1722.85162 L132.273625,1722.85162 C132.066691,1721.39625 131.398919,1720.0524 130.34101,1718.9945 C129.0498,1717.70329 127.3332,1716.99225 125.507226,1716.99225 Z M148.74265,1724.80474 L141.927325,1724.80474 L144.068534,1726.94595 L150.883956,1726.94595 L148.74265,1724.80474 Z M150.883956,1720.71041 L144.068534,1720.71041 L141.927325,1722.85162 L148.74265,1722.85162 L150.883956,1720.71041 Z M134.760243,1713.19392 C135.141688,1712.81257 135.760047,1712.81257 136.141394,1713.19392 L136.141394,1713.19392 L136.154578,1713.2071 C136.535925,1713.58854 136.535925,1714.2069 136.154578,1714.58825 C135.963953,1714.77897 135.713953,1714.87428 135.464051,1714.87428 C135.214149,1714.87428 134.964247,1714.77897 134.773524,1714.58825 L134.773524,1714.58825 L134.760243,1714.57507 C134.378896,1714.19362 134.378896,1713.57526 134.760243,1713.19392 Z" id="mission-impossible"></path>
        </g>
    </g>
</svg>