<?xml version="1.0" encoding="UTF-8"?>
<svg viewBox="0 0 51 51" version="1.1" xmlns="http://www.w3.org/2000/svg" xmlns:xlink="http://www.w3.org/1999/xlink">
    <title>notes-collective</title>
    <g id="Products" stroke="none" stroke-width="1" fill="none" fill-rule="evenodd">
        <g id="Homepage-Copy-8" transform="translate(-861.000000, -1698.000000)" fill="#F3D6F7" fill-rule="nonzero">
            <path d="M904.460286,1739.07311 L904.460286,1746.45997 L902.379481,1746.45997 L902.380003,1742.44728 C897.927668,1746.11435 892.31511,1748.12461 886.461321,1748.12461 C885.628999,1748.12461 884.692636,1748.12461 883.860314,1748.02057 L884.068395,1745.93976 C890.138838,1746.57399 896.051477,1744.84115 900.706916,1741.15351 L896.969387,1741.15391 L896.969387,1739.07311 L904.460286,1739.07311 Z M880.531026,1745.31552 C881.155267,1745.5236 881.779509,1745.62764 882.507791,1745.73168 L882.09163,1747.81249 C881.363348,1747.70845 880.635066,1747.50037 880.010824,1747.29229 L880.531026,1745.31552 Z M876.785576,1743.963 C877.409818,1744.27512 878.034059,1744.4832 878.658301,1744.69128 L877.930019,1746.66805 C877.305778,1746.45997 876.577496,1746.14785 875.953254,1745.83572 L876.785576,1743.963 Z M873.352248,1741.98624 C873.872449,1742.4024 874.496691,1742.71452 875.016892,1743.02664 L873.976489,1744.79532 C873.352248,1744.4832 872.728006,1744.06704 872.103765,1743.65088 L873.352248,1741.98624 Z M861.595698,1720.55394 L863.676503,1720.76202 C863.001914,1727.21881 865.005278,1733.49707 869.190492,1738.27385 L869.190637,1734.3913 L871.271442,1734.3913 L871.271442,1741.77815 L863.780544,1741.77815 L863.780544,1739.69735 L867.700624,1739.69808 C863.120737,1734.501 860.918374,1727.61746 861.595698,1720.55394 Z M886.461321,1732.72665 C888.750206,1732.72665 890.518891,1734.49534 890.518891,1736.78422 C890.518891,1739.07311 888.750206,1740.84179 886.461321,1740.84179 C884.172435,1740.84179 882.40375,1738.96907 882.40375,1736.78422 C882.40375,1734.59938 884.172435,1732.72665 886.461321,1732.72665 Z M886.461321,1734.80746 C885.420918,1734.80746 884.484556,1735.74382 884.484556,1736.78422 C884.484556,1737.82462 885.420918,1738.76099 886.461321,1738.76099 C887.501723,1738.76099 888.438086,1737.82462 888.438086,1736.78422 C888.438086,1735.74382 887.501723,1734.80746 886.461321,1734.80746 Z M906.437051,1734.49534 L908.205735,1735.53574 C907.893614,1736.05594 907.477453,1736.68018 907.061292,1737.30442 L905.396648,1736.15998 C905.812809,1735.63978 906.12493,1735.01554 906.437051,1734.49534 Z M879.386583,1726.9004 C881.259308,1726.9004 882.715871,1728.35696 882.715871,1730.22969 C882.715871,1732.10241 881.259308,1733.55897 879.386583,1733.55897 C877.513858,1733.55897 876.057295,1732.10241 876.057295,1730.22969 C876.057295,1728.35696 877.513858,1726.9004 879.386583,1726.9004 Z M893.536058,1726.9004 C895.408783,1726.9004 896.865347,1728.35696 896.865347,1730.22969 C896.865347,1732.10241 895.408783,1733.55897 893.536058,1733.55897 C891.663334,1733.55897 890.20677,1732.10241 890.20677,1730.22969 C890.20677,1728.35696 891.663334,1726.9004 893.536058,1726.9004 Z M908.101695,1730.74989 L910.07846,1731.47817 C909.766339,1732.20645 909.558259,1732.83069 909.246138,1733.45493 L907.373413,1732.62261 C907.685534,1731.99837 907.893614,1731.37413 908.101695,1730.74989 Z M879.386583,1728.9812 C878.658301,1728.9812 878.1381,1729.5014 878.1381,1730.22969 C878.1381,1730.95797 878.658301,1731.47817 879.386583,1731.47817 C880.114865,1731.47817 880.635066,1730.95797 880.635066,1730.22969 C880.635066,1729.5014 880.114865,1728.9812 879.386583,1728.9812 Z M893.536058,1728.9812 C892.807777,1728.9812 892.287575,1729.5014 892.287575,1730.22969 C892.287575,1730.95797 892.807777,1731.47817 893.536058,1731.47817 C894.26434,1731.47817 894.784542,1730.95797 894.784542,1730.22969 C894.784542,1729.5014 894.26434,1728.9812 893.536058,1728.9812 Z M909.142098,1727.10848 L911.222903,1727.52464 C911.014822,1728.14888 910.806742,1728.77312 910.702701,1729.39736 L908.725936,1728.87716 C908.829977,1728.25292 909.038057,1727.73272 909.142098,1727.10848 Z M872.832046,1719.09738 C875.120932,1719.09738 876.889617,1720.86606 876.889617,1723.15495 C876.889617,1725.44383 875.120932,1727.21252 872.832046,1727.21252 C870.543161,1727.21252 868.774476,1725.44383 868.774476,1723.15495 C868.774476,1720.86606 870.543161,1719.09738 872.832046,1719.09738 Z M886.461321,1719.09738 C888.750206,1719.09738 890.518891,1720.86606 890.518891,1723.15495 C890.518891,1725.44383 888.750206,1727.21252 886.461321,1727.21252 C884.172435,1727.21252 882.40375,1725.33979 882.40375,1723.15495 C882.40375,1720.9701 884.172435,1719.09738 886.461321,1719.09738 Z M900.090595,1719.09738 C902.379481,1719.09738 904.148165,1720.86606 904.148165,1723.15495 C904.148165,1725.44383 902.379481,1727.21252 900.090595,1727.21252 C897.801709,1727.21252 896.033025,1725.33979 896.033025,1723.15495 C896.033025,1720.9701 897.801709,1719.09738 900.090595,1719.09738 Z M909.766339,1705.15598 L909.766339,1707.23679 L905.757241,1707.23607 C909.991393,1712.35349 912.070422,1718.97171 911.326943,1725.75595 L909.246138,1725.54787 C909.880363,1719.47743 908.147519,1713.56479 904.459878,1708.90935 L904.460286,1712.64688 L902.379481,1712.64688 L902.379481,1705.15598 L909.766339,1705.15598 Z M900.090595,1721.17818 C899.050192,1721.17818 898.11383,1722.11455 898.11383,1723.15495 C898.11383,1724.19535 899.050192,1725.13171 900.090595,1725.13171 C901.130997,1725.13171 902.06736,1724.19535 902.06736,1723.15495 C902.06736,1722.11455 901.130997,1721.17818 900.090595,1721.17818 Z M886.461321,1721.17818 C885.420918,1721.17818 884.484556,1722.11455 884.484556,1723.15495 C884.484556,1724.19535 885.420918,1725.13171 886.461321,1725.13171 C887.501723,1725.13171 888.438086,1724.19535 888.438086,1723.15495 C888.438086,1722.11455 887.501723,1721.17818 886.461321,1721.17818 Z M872.832046,1721.17818 C871.791644,1721.17818 870.855281,1722.11455 870.855281,1723.15495 C870.855281,1724.19535 871.791644,1725.13171 872.832046,1725.13171 C873.872449,1725.13171 874.808811,1724.19535 874.808811,1723.15495 C874.808811,1722.11455 873.872449,1721.17818 872.832046,1721.17818 Z M893.536058,1712.75092 C895.408783,1712.75092 896.865347,1714.20749 896.865347,1716.08021 C896.865347,1717.95293 895.408783,1719.4095 893.536058,1719.4095 C891.663334,1719.4095 890.20677,1717.95293 890.20677,1716.08021 C890.20677,1714.20749 891.663334,1712.75092 893.536058,1712.75092 Z M879.386583,1712.75092 C881.259308,1712.75092 882.715871,1714.20749 882.715871,1716.08021 C882.715871,1717.95293 881.259308,1719.4095 879.386583,1719.4095 C877.513858,1719.4095 876.057295,1717.95293 876.057295,1716.08021 C876.057295,1714.20749 877.513858,1712.75092 879.386583,1712.75092 Z M862.21994,1716.80849 L864.196705,1717.32869 C864.092664,1717.84889 863.988624,1718.47314 863.884584,1719.20142 L861.803779,1718.8893 C861.907819,1718.16102 862.1159,1717.43273 862.21994,1716.80849 Z M893.536058,1714.83173 C892.807777,1714.83173 892.287575,1715.35193 892.287575,1716.08021 C892.287575,1716.80849 892.807777,1717.32869 893.536058,1717.32869 C894.26434,1717.32869 894.784542,1716.80849 894.784542,1716.08021 C894.784542,1715.35193 894.26434,1714.83173 893.536058,1714.83173 Z M879.386583,1714.83173 C878.658301,1714.83173 878.1381,1715.35193 878.1381,1716.08021 C878.1381,1716.80849 878.658301,1717.32869 879.386583,1717.32869 C880.114865,1717.32869 880.635066,1716.80849 880.635066,1716.08021 C880.635066,1715.35193 880.114865,1714.83173 879.386583,1714.83173 Z M863.780544,1712.64688 L865.653268,1713.4792 C865.341148,1714.10345 865.133067,1714.72769 864.924987,1715.35193 L862.948222,1714.62365 C863.156302,1713.89536 863.468423,1713.27112 863.780544,1712.64688 Z M886.461321,1705.4681 C888.750206,1705.4681 890.518891,1707.23679 890.518891,1709.52567 C890.518891,1711.81456 888.750206,1713.58324 886.461321,1713.58324 C884.172435,1713.58324 882.40375,1711.81456 882.40375,1709.52567 C882.40375,1707.23679 884.172435,1705.4681 886.461321,1705.4681 Z M865.965389,1708.79739 L867.630033,1710.04587 C867.213872,1710.56608 866.901752,1711.19032 866.589631,1711.71052 L864.820946,1710.67012 C865.237107,1710.04587 865.549228,1709.42163 865.965389,1708.79739 Z M886.461321,1707.54891 C885.420918,1707.54891 884.484556,1708.48527 884.484556,1709.52567 C884.484556,1710.56608 885.420918,1711.50244 886.461321,1711.50244 C887.501723,1711.50244 888.438086,1710.56608 888.438086,1709.52567 C888.438086,1708.48527 887.501723,1707.54891 886.461321,1707.54891 Z M889.062327,1698.28933 L888.854247,1700.37013 C882.784668,1699.736 876.872849,1701.46826 872.217715,1705.15481 L875.953254,1705.15598 L875.953254,1707.23679 L868.462355,1707.23679 L868.462355,1699.84993 L870.543161,1699.84993 L870.542339,1703.8649 C875.676851,1699.64557 882.369589,1697.63864 889.062327,1698.28933 Z M899.050192,1701.51457 L899.128222,1701.57635 L899.128222,1701.57635 L899.284283,1701.66088 C899.310293,1701.67714 899.336303,1701.69664 899.362313,1701.72265 L899.986555,1702.03477 L899.986555,1702.03477 L898.842112,1703.80346 L898.764081,1703.74169 L898.764081,1703.74169 L898.608021,1703.65715 C898.582011,1703.6409 898.556001,1703.62139 898.529991,1703.59538 L897.905749,1703.28326 L897.905749,1703.28326 L899.050192,1701.51457 Z M894.36838,1699.53781 C895.096662,1699.84993 895.928984,1700.05801 896.761306,1700.47417 L895.928984,1702.3469 C895.200703,1702.03477 894.472421,1701.72265 893.640099,1701.51457 L894.36838,1699.53781 Z M890.935052,1698.49741 C891.039092,1698.49741 891.143132,1698.49741 891.247173,1698.60145 C891.455253,1698.60145 891.767374,1698.70549 891.975454,1698.70549 L891.351213,1700.68225 C891.247173,1700.68225 891.143132,1700.68225 891.039092,1700.57821 C890.831012,1700.57821 890.518891,1700.47417 890.31081,1700.47417 L890.935052,1698.49741 Z" id="notes-collective"></path>
        </g>
    </g>
</svg>