<?xml version="1.0" encoding="UTF-8"?>
<svg width="48px" height="53px" viewBox="0 0 48 53" version="1.1" xmlns="http://www.w3.org/2000/svg" xmlns:xlink="http://www.w3.org/1999/xlink">
    <title>face5</title>
    <g id="Products" stroke="none" stroke-width="1" fill="none" fill-rule="evenodd" opacity="0.5">
        <g id="Homepage-Copy" transform="translate(-906.000000, -5145.000000)" fill="#000000" fill-rule="nonzero">
            <g id="Group-4" transform="translate(212.238277, 5077.985347)">
                <g id="Group-2" transform="translate(134.761723, 54.782419)">
                    <g id="face5" transform="translate(559.000000, 13.000000)">
                        <path d="M48,29.76287 C48,28.8134276 47.7179563,27.9290322 47.2344689,27.1863548 C47.4305318,25.9625296 47.5309735,24.711322 47.5309735,23.4608967 C47.5309735,10.5245614 36.9748499,0 23.9997197,0 C11.0245896,0 0.468353928,10.5245614 0.468353928,23.4608967 C0.468353928,24.7119926 0.568795555,25.9635354 0.764970609,27.1873606 C0.281931577,27.9298146 0,28.8138746 0,29.7627583 C0,32.1263615 1.74203448,34.091523 4.013069,34.4502882 C5.22498243,44.3729959 13.7256398,52.0851064 23.9999439,52.0851064 C34.2742481,52.0851064 42.7749055,44.3731076 43.9868189,34.4502882 C46.2580776,34.0916348 48,32.1264733 48,29.76287 Z M1.79371259,29.76287 C1.79371259,28.4432624 2.66495403,27.3230432 3.86386385,26.9431544 L3.86397595,32.0094555 C3.86397595,32.2022498 3.86733896,32.3942619 3.87283186,32.5857151 C2.66921383,32.2085087 1.79371259,31.0857189 1.79371259,29.76287 Z M24.0000561,50.2968686 C13.8859429,50.2968686 5.65757644,42.0931045 5.65757644,32.0093437 L5.65757644,22.7637075 C5.65757644,21.3825174 6.38409674,20.1605922 7.60116677,19.4950325 C8.8062421,18.8359551 10.214779,18.8804375 11.3692972,19.6140621 C15.1400059,22.0103006 19.5076473,23.2769318 23.9997197,23.2769318 C28.4920164,23.2769318 32.8597699,22.0103006 36.6307028,19.6139503 C37.7849968,18.8804375 39.1935337,18.8357316 40.3987211,19.494809 C41.6156791,20.1602569 42.3425357,21.3822939 42.3425357,22.7633722 L42.3425357,32.0093437 C42.3425357,42.0931045 34.1141692,50.2968686 24.0000561,50.2968686 Z M41.2611067,17.9269715 C39.4729991,16.949029 37.3815488,17.0161997 35.6666425,18.1061306 C32.184143,20.3191866 28.149775,21.4889176 23.9996076,21.4889176 C19.8495524,21.4889176 15.8154086,20.3191866 12.3331333,18.1062424 C10.6181149,17.0163115 8.52644043,16.9494761 6.73833284,17.9271951 C4.93834265,18.9115082 3.86363965,20.7195283 3.86375175,22.7637075 L3.86375175,25.1019401 C3.33015561,25.2037579 2.82828377,25.3947641 2.37360605,25.6586409 C2.30006843,24.9303811 2.26184232,24.1956389 2.26184232,23.460785 C2.26184232,11.510551 12.0135361,1.78823773 23.9997197,1.78823773 C35.9859034,1.78823773 45.737373,11.510551 45.737373,23.4608967 C45.737373,24.1955271 45.6991469,24.9301576 45.6256093,25.6583056 C45.1710436,25.3945405 44.669396,25.2037579 44.136024,25.1019401 L44.136024,22.763484 C44.1357998,20.7193047 43.061209,18.9112846 41.2611067,17.9269715 Z M44.1272802,32.5857151 C44.1327731,32.3942619 44.1361361,32.2022498 44.1361361,32.0094555 L44.136024,26.9430427 C45.3351581,27.3229314 46.2063995,28.4432624 46.2063995,29.76287 C46.2063995,31.0857189 45.3308983,32.2085087 44.1272802,32.5857151 Z" id="Shape"></path>
                        <circle id="Oval" cx="15.8297872" cy="32.1702128" r="1.53191489"></circle>
                        <circle id="Oval" cx="33.1914894" cy="32.1702128" r="1.53191489"></circle>
                        <path d="M29.8877184,27.8483338 C29.5267889,28.2530456 29.5267889,28.9088729 29.8877184,29.3135846 C30.2485325,29.7180373 30.8335271,29.7180373 31.1943411,29.3135846 C32.0140265,28.3943385 33.3476756,28.3943385 34.1672455,29.3135846 C34.3476525,29.5158757 34.5840758,29.6170213 34.8206146,29.6170213 C35.0571534,29.6170213 35.2935767,29.5158757 35.4739837,29.3135846 C35.8349132,28.9088729 35.8349132,28.2530456 35.4739837,27.8483338 C33.9338252,26.1214774 31.427877,26.1214774 29.8877184,27.8483338 Z" id="Path"></path>
                        <path d="M15.319185,26.5531915 C14.2640934,26.5531915 13.2720648,27.0136589 12.5259354,27.849696 C12.1651137,28.2539962 12.1651137,28.9094958 12.5259354,29.3137961 C12.8867571,29.7179669 13.4717641,29.7180963 13.8327013,29.3136667 C14.22979,28.8687293 14.7576245,28.6238714 15.3190695,28.6238714 C15.88063,28.6238714 16.4084646,28.8688587 16.8055533,29.3136667 C16.9860796,29.5159462 17.2223924,29.6170213 17.4589362,29.6170213 C17.6953645,29.6170213 17.9319083,29.5159462 18.1123191,29.3137961 C18.4731408,28.9094958 18.4732563,28.2539962 18.1123191,27.849696 C17.3664208,27.0135295 16.3743921,26.5531915 15.319185,26.5531915 Z" id="Path"></path>
                        <path d="M26.766546,37.787234 C26.3203711,37.787234 25.958624,38.2402635 25.958624,38.7990251 C25.958624,40.5040195 24.8509628,41.8913115 23.4894122,41.8913115 C22.1278616,41.8913115 21.0200994,40.5040195 21.0200994,38.7990251 C21.0200994,38.2402635 20.6583523,37.787234 20.2121774,37.787234 C19.7660024,37.787234 19.4042553,38.2402635 19.4042553,38.7990251 C19.4042553,41.620025 21.2368245,43.9148936 23.4894122,43.9148936 C25.7418989,43.9148936 27.5744681,41.6198986 27.5744681,38.7990251 C27.5744681,38.2402635 27.212721,37.787234 26.766546,37.787234 Z" id="Path"></path>
                    </g>
                </g>
            </g>
        </g>
    </g>
</svg>