<?xml version="1.0" encoding="UTF-8"?>
<svg width="48px" height="57px" viewBox="0 0 48 57" version="1.1" xmlns="http://www.w3.org/2000/svg" xmlns:xlink="http://www.w3.org/1999/xlink">
    <title>winking-boy</title>
    <g id="Products" stroke="none" stroke-width="1" fill="none" fill-rule="evenodd" opacity="0.5">
        <g id="Homepage-Copy" transform="translate(-347.000000, -5170.000000)" fill="#000000" fill-rule="nonzero">
            <g id="Group-4" transform="translate(212.238277, 5077.985347)">
                <g id="Group-2" transform="translate(134.761723, 54.782419)">
                    <g id="winking-boy" transform="translate(0.000000, 38.000000)">
                        <path d="M25.5721247,44.6579081 C23.5611973,45.5224074 21.2285374,44.5742122 20.372226,42.5448219 C20.1419417,41.9988506 19.516447,41.7445387 18.9752124,41.977087 C18.434111,42.2096353 18.1822625,42.8409146 18.4126799,43.3870202 C19.3986427,45.723385 21.6570259,47.1272727 24.0273565,47.1272727 C24.8224363,47.1272727 25.6302948,46.969285 26.4066057,46.6355762 C26.9477072,46.4030279 27.1995557,45.7717486 26.9691383,45.225643 C26.7385878,44.679403 26.1132262,44.4253598 25.5721247,44.6579081 Z" id="Path"></path>
                        <path d="M48,33.0207736 C48,31.5975935 47.4983443,30.2637247 46.5802029,29.2131258 C46.951256,21.4808108 47.15083,16.3127458 44.7494885,11.5521874 C43.1136656,8.30875972 40.4656725,5.59810634 36.8794162,3.49574867 C32.6970956,1.04387872 27.926304,-0.158407467 23.0817321,0.0167353067 C18.825125,0.171386762 14.8627534,2.19590319 12.1361709,5.59140477 C8.61065997,5.79399818 5.40089853,7.74299315 3.67674168,10.7605008 C3.52880133,11.019542 3.38566999,11.2859291 3.25139736,11.5520585 C0.848284153,16.3158388 1.04823775,21.483775 1.41954399,29.2175076 C0.537217102,30.231119 0,31.562797 0,33.0205158 C0,36.0265535 2.2811162,38.4987859 5.17285018,38.740171 C6.37700112,42.6915157 9.56714686,47.1686753 14.7055747,52.101799 C17.3115522,54.6036729 20.6559659,55.8545455 24.0002531,55.8545455 C27.3446668,55.8545455 30.688954,54.6035441 33.2949316,52.1016701 C38.4333593,47.1686753 41.6235051,42.6915157 42.827656,38.7402999 C45.7191369,38.4987859 48,36.0266823 48,33.0207736 Z M23.1539938,2.07746595 C27.6187805,1.91559743 32.0157347,3.02367511 35.8692708,5.28274624 C39.111936,7.18367038 41.4937884,9.61002284 42.9483875,12.4942725 C44.9705764,16.5032248 44.9433676,20.8669734 44.5806669,28.6271257 L42.3191664,28.7540688 C27.0783995,29.2622277 18.6570627,22.0497993 16.1552382,19.4767857 L13.7189682,6.87926477 C16.0761427,3.95441912 19.4899074,2.2104662 23.1539938,2.07746595 Z M5.05249837,12.4942725 C5.17069878,12.2599755 5.29661893,12.0255497 5.42684187,11.7975677 C6.73982831,9.49944705 9.13990424,7.97393932 11.8110565,7.68590099 L14.1664593,19.8644454 C12.5559469,23.6280174 9.80342115,25.6069117 5.52745144,26.0815627 C5.01377318,26.138526 4.62474953,26.5803137 4.62474953,27.1065153 L4.62474953,27.3744489 C4.19041994,27.4549965 3.77330155,27.5859348 3.3794689,27.7619797 C3.05739174,20.5406588 3.10586151,16.3533418 5.05249837,12.4942725 Z M2.02484655,33.0206447 C2.02484655,31.3501512 3.12433823,29.9371524 4.62474953,29.4900808 L4.62474953,35.3079397 C4.62474953,35.7227922 4.65246462,36.1452485 4.70473097,36.5744062 C3.16344308,36.1546564 2.02484655,34.7207797 2.02484655,33.0206447 Z M31.9058868,50.601551 C27.4729915,54.8574302 20.5277678,54.8575591 16.0946194,50.601551 C9.91567358,44.6693789 6.64972264,39.3810724 6.64972264,35.3080686 L6.64972264,28.0080044 C10.7726899,27.3329508 13.6959355,25.268225 15.5331041,21.7286398 C17.0907173,23.1866164 19.6422771,25.214097 23.2621965,26.9882069 C28.6439856,29.6256586 34.7249794,30.9189314 41.3510367,30.8385126 L41.3510367,35.3079397 C41.3510367,39.3809435 38.0849592,44.6693789 31.9058868,50.601551 Z M43.2957752,36.5744062 C43.3480416,36.1452485 43.3757567,35.7227922 43.3757567,35.3079397 L43.3757567,30.7597693 L45.1339563,30.661179 C45.67864,31.3217984 45.97528,32.1450597 45.97528,33.0207736 C45.9751534,34.7206508 44.83681,36.1543987 43.2957752,36.5744062 Z" id="Shape"></path>
                        <path d="M11.6428176,33.3300821 C11.2463335,33.6913023 11.2463335,34.2769555 11.6428176,34.6381757 C12.0391749,34.999396 12.6817964,34.999396 13.0781536,34.6381757 C13.8071769,33.9740115 14.9929499,33.9741271 15.7217195,34.6381757 C15.9198981,34.8187859 16.1796111,34.9090909 16.4394509,34.9090909 C16.6992908,34.9090909 16.9590037,34.8187859 17.1571824,34.6381757 C17.5536665,34.2769555 17.5536665,33.6913023 17.1571824,33.3300821 C15.6370939,31.9445181 13.1631598,31.9445181 11.6428176,33.3300821 Z" id="Path"></path>
                        <circle id="Oval" cx="34.0363636" cy="33.1636364" r="1.74545455"></circle>
                    </g>
                </g>
            </g>
        </g>
    </g>
</svg>