<?xml version="1.0" encoding="UTF-8"?>
<svg width="48px" height="56px" viewBox="0 0 48 56" version="1.1" xmlns="http://www.w3.org/2000/svg" xmlns:xlink="http://www.w3.org/1999/xlink">
    <title>face2</title>
    <g id="Products" stroke="none" stroke-width="1" fill="none" fill-rule="evenodd" opacity="0.5">
        <g id="Homepage-Copy" transform="translate(-487.000000, -5145.000000)" fill="#000000" fill-rule="nonzero">
            <g id="Group-4" transform="translate(212.238277, 5077.985347)">
                <g id="Group-2" transform="translate(134.761723, 54.782419)">
                    <g id="face2" transform="translate(140.000000, 13.000000)">
                        <path d="M48,32.4309078 C48,31.03301 47.4980912,29.7227023 46.5798232,28.6907338 C46.9508764,21.0957084 47.1505769,16.0206711 44.7489823,11.3449789 C43.1137922,8.16059702 40.4659256,5.49846495 36.87891,3.43237604 C32.6954504,1.02453378 27.9230136,-0.155781057 23.0813524,0.01648795 C20.9138807,0.0936988937 18.7429921,0.670502615 16.8030626,1.68487721 C15.0230959,2.61634497 13.4185316,3.92639951 12.1371834,5.49061728 C8.61154584,5.68959368 5.40153129,7.60391878 3.67699479,10.5667938 C3.5296872,10.8196913 3.38630276,11.081449 3.25114425,11.3447257 C0.847904495,16.0237089 1.04798464,21.0997588 1.41916433,28.6959234 C0.537090549,29.6913117 0,30.9990878 0,32.4306547 C0,35.3828974 2.28098964,37.8108651 5.17259708,38.0480673 C6.37674801,41.9293728 9.56714686,46.3264728 14.7059543,51.1705102 C17.3119318,53.6286028 20.6555863,54.8571429 24.0001266,54.8571429 C27.3441606,54.8571429 30.6892071,53.6280965 33.2951847,51.1706367 C38.4332328,46.3259665 41.623252,41.9288665 42.8274029,38.0481939 C45.7191369,37.8109917 48,35.3831505 48,32.4309078 Z M17.7413259,3.47958863 C19.414735,2.60457347 21.2860729,2.10700589 23.1534876,2.04055385 C27.6172618,1.8813221 32.0145958,2.96923696 35.8688912,5.18746939 C39.1120626,7.05546793 41.4937884,9.43837485 42.9480078,12.2702444 C44.9703233,16.2074963 44.9431145,20.4934631 44.5802873,28.1150692 L42.3187868,28.2397459 C40.8236907,28.2883509 39.3440341,28.2649344 37.9138597,28.1719016 C36.8055093,27.2127138 35.362553,26.6305939 33.7854506,26.6305939 C32.8723714,26.6305939 32.0048512,26.8267857 31.2203497,27.1767664 C22.9389804,25.2000397 18.0541646,21.0501413 16.1554913,19.1286014 L13.7190947,6.75637045 C14.826053,5.40986223 16.2083905,4.281823 17.7413259,3.47958863 Z M38.079644,32.9508792 C38.079644,35.31923 36.153129,37.2460861 33.7851975,37.2460861 C31.4171395,37.2460861 29.4906245,35.31923 29.4906245,32.9508792 C29.4906245,32.5477369 29.5476999,32.1578849 29.6519795,31.7876521 L31.8838666,31.7876521 C31.9163907,32.8110135 32.7540444,33.6312216 33.785071,33.6312216 C34.8160975,33.6312216 35.6537512,32.8110135 35.6862753,31.7876521 L37.9181625,31.7876521 C38.0226952,32.1578849 38.079644,32.5477369 38.079644,32.9508792 Z M24,29.9734481 C22.6333551,29.9734481 21.3412499,30.4050699 20.2797241,31.1800906 C19.5120542,28.5545387 17.0845163,26.6305939 14.2145494,26.6305939 C11.4617705,26.6305939 9.11585919,28.4008763 8.25150282,30.8625131 L6.64934298,29.2600696 L6.64934298,27.507128 C10.7724368,26.8439999 13.6955559,24.8163899 15.5327245,21.3396191 C17.8072599,23.4289978 22.2610365,26.7614728 29.0990698,28.7152894 C28.4675708,29.4133523 27.9909726,30.2531795 27.7200228,31.1800906 C26.6587501,30.4049433 25.3666449,29.9734481 24,29.9734481 Z M18.5092489,32.9508792 C18.5092489,35.31923 16.582734,37.2460861 14.2146759,37.2460861 C11.8467444,37.2460861 9.92022948,35.31923 9.92022948,32.9508792 C9.92022948,32.5477369 9.97730484,32.1578849 10.0815844,31.7876521 L12.3134716,31.7876521 C12.3459957,32.8110135 13.1836494,33.6312216 14.2146759,33.6312216 C15.245829,33.6312216 16.0833562,32.8110135 16.1158803,31.7876521 L18.3477674,31.7876521 C18.4521735,32.1578849 18.5092489,32.5477369 18.5092489,32.9508792 Z M11.3407859,29.762447 C12.1025079,29.0750164 13.1105018,28.6556724 14.2146759,28.6556724 C15.3189766,28.6556724 16.3270971,29.0750164 17.0886925,29.762447 L11.3407859,29.762447 Z M30.9113075,29.762447 C31.6730295,29.0750164 32.6810234,28.6556724 33.7853241,28.6556724 C34.8896248,28.6556724 35.8976187,29.0750164 36.6592141,29.762447 L30.9113075,29.762447 Z M39.7483706,30.8623865 C39.6773744,30.6603723 39.5967602,30.4629148 39.5064015,30.2707735 C39.7781106,30.2781148 40.0509586,30.2830513 40.3248191,30.2857094 L39.7483706,30.8623865 Z M5.05237181,12.2699913 C5.17107844,12.038485 5.29699859,11.8086242 5.42658877,11.586358 C6.73944865,9.33065926 9.13775284,7.83264038 11.8111831,7.54809906 L14.1664593,19.508454 C12.5558204,23.2050861 9.80342115,25.1489033 5.52745144,25.6149536 C5.01377318,25.6710264 4.62474953,26.1048001 4.62474953,26.6216071 L4.62474953,26.8852635 C4.19029339,26.964373 3.77304845,27.0931001 3.37921579,27.266002 C3.05701209,20.1731009 3.1053553,16.0604157 5.05237181,12.2699913 Z M2.02484655,32.4306547 C2.02484655,30.7899854 3.12421168,29.4022136 4.62462298,28.9631239 L4.62462298,34.6769868 C4.62462298,35.0845594 4.65233807,35.4994733 4.70460442,35.9209691 C3.16331653,35.5085867 2.02484655,34.1004363 2.02484655,32.4306547 Z M31.9062665,49.6971735 C27.4729915,53.8779562 20.5278944,53.8782094 16.0949991,49.6970469 C9.91567358,43.8720508 6.64934298,38.6782858 6.64934298,34.6769868 L6.64934298,32.1240893 L7.91208791,33.3870578 C8.13709899,36.6692823 10.8769695,39.2712911 14.2145494,39.2712911 C17.3926726,39.2712911 20.0291494,36.912307 20.4684145,33.8533613 C21.2713927,32.6888683 22.5757736,31.9986531 23.9998734,31.9986531 C25.4239733,31.9986531 26.7282276,32.6887418 27.5312058,33.8531081 C27.970471,36.9121804 30.6069478,39.2712911 33.785071,39.2712911 C37.1227774,39.2712911 39.8625214,36.6692823 40.0875324,33.3870578 L41.3505305,32.1238361 L41.3505305,34.6769868 C41.3505305,38.6773998 38.0849592,43.8711648 31.9062665,49.6971735 Z M43.2956487,35.9210956 C43.347915,35.4995998 43.3756301,35.0845594 43.3756301,34.6769868 L43.3756301,30.2097642 L45.13345,30.1129341 C45.6783869,30.7618857 45.9751534,31.5705754 45.9751534,32.4309078 C45.9751534,34.1005629 44.8366835,35.5085867 43.2956487,35.9210956 Z" id="Shape"></path>
                        <path d="M27.1600002,41.80614 C26.191111,41.3722375 25.0984271,41.1428571 23.9999585,41.1428571 C22.9016184,41.1428571 21.8089345,41.3722375 20.8400453,41.80614 C19.3321416,42.4814397 18.5742046,43.9467881 18.9542015,45.4525462 C19.3386977,46.9763296 20.7383614,48 22.4371634,48 L25.562882,48 C27.2616841,48 28.6613478,46.9762117 29.045844,45.4524284 C29.4257123,43.9467881 28.6679039,42.4814397 27.1600002,41.80614 Z M27.0419903,45.0277153 C26.9094542,45.5532757 26.4511697,46.1150044 25.5630106,46.1150044 L22.4371634,46.1150044 C21.5490043,46.1150044 21.0907198,45.5533935 20.9581837,45.0278331 C20.8291184,44.5167637 20.9676965,43.8470012 21.7431164,43.4996907 C22.4322785,43.1910227 23.2128404,43.0278528 23.9999585,43.0278528 C24.787205,43.0278528 25.5676384,43.1910227 26.2569291,43.4996907 C27.032349,43.8470012 27.1707985,44.5167637 27.0419903,45.0277153 Z" id="Shape"></path>
                    </g>
                </g>
            </g>
        </g>
    </g>
</svg>