<?xml version="1.0" encoding="UTF-8"?>
<svg width="48px" height="55px" viewBox="0 0 48 55" version="1.1" xmlns="http://www.w3.org/2000/svg" xmlns:xlink="http://www.w3.org/1999/xlink">
    <title>face3</title>
    <g id="Products" stroke="none" stroke-width="1" fill="none" fill-rule="evenodd" opacity="0.5">
        <g id="Homepage-Copy" transform="translate(-627.000000, -5136.000000)" fill="#000000" fill-rule="nonzero">
            <g id="Group-4" transform="translate(212.238277, 5077.985347)">
                <g id="Group-2" transform="translate(134.761723, 54.782419)">
                    <g id="face3" transform="translate(280.000000, 4.000000)">
                        <path d="M13.5271454,30.6514194 C14.02434,30.6514194 14.4917488,30.8274199 14.8433237,31.1470212 C15.0421506,31.327766 15.3027132,31.4182541 15.563403,31.4181384 C15.8239656,31.4181384 16.0846554,31.327766 16.2834823,31.1470212 C16.6812635,30.7855316 16.6812635,30.1994416 16.2834823,29.8378363 C15.5472372,29.1685482 14.5683773,28.8 13.5272727,28.8 C12.4861681,28.8 11.5073083,29.1685482 10.7710631,29.8378363 C10.373282,30.1993259 10.373282,30.7854159 10.7710631,31.1470212 C11.1688443,31.5086265 11.8135679,31.5085108 12.2110945,31.1470212 C12.5625421,30.8274199 13.0299508,30.6514194 13.5271454,30.6514194 Z" id="Path"></path>
                        <path d="M31.7165115,29.8368488 C31.3187386,30.1985742 31.3187386,30.7850465 31.7165115,31.1468877 C32.114157,31.5086132 32.7588673,31.5086132 33.1565128,31.1468877 C33.8821778,30.4866578 35.0631495,30.4867735 35.7888144,31.1468877 C35.9876372,31.3277505 36.2481943,31.4181818 36.5088788,31.4181818 C36.7695632,31.4181818 37.0301203,31.3277505 37.2289431,31.1468877 C37.6267159,30.7851623 37.6267159,30.19869 37.2289431,29.8368488 C35.7093872,28.4544416 33.2364493,28.4543258 31.7165115,29.8368488 Z" id="Path"></path>
                        <path d="M34.0516019,40.4566105 C28.2684844,46.5190379 18.8587884,46.5190379 13.0755442,40.4566105 C12.6797838,40.0417359 12.0381301,40.0417359 11.6423698,40.4566105 C11.2464828,40.871485 11.2464828,41.5442617 11.6423698,41.9591363 C14.9290555,45.4045606 19.2463143,47.1272727 23.563573,47.1272727 C27.8809585,47.1272727 32.1982172,45.4045606 35.4849029,41.9591363 C35.8807899,41.5442617 35.8807899,40.8716178 35.4849029,40.4566105 C35.0891426,40.0417359 34.4473622,40.0417359 34.0516019,40.4566105 Z" id="Path"></path>
                        <path d="M48,32.4187838 C48,29.6471355 46.0025641,27.3360468 43.3762728,26.8540598 L43.3762728,9.78452714 C43.3762728,7.57011645 42.278128,5.51717586 40.4387324,4.29288555 C38.7109694,3.14308067 36.5663004,2.88212662 34.6268423,3.56767307 L28.2408959,1.39331104 C23.3338914,-0.27763669 18.1686568,-0.449055189 13.303737,0.897421812 C6.93482798,2.66020088 3.28349986,6.38778796 2.71986947,11.6864562 C2.22108263,12.3463664 1.82477405,13.0875218 1.55548257,13.8872197 L1.06012863,15.3579241 C0.794270033,16.1475461 1.08733749,16.9773443 1.78968225,17.4227263 C2.49189985,17.8681083 3.36499931,17.7780625 3.96206864,17.1983772 C4.16600799,17.0003021 4.38901898,16.8334752 4.62372723,16.6939426 L4.62372723,26.8540598 C1.99743592,27.3360468 0,29.6470079 0,32.4187838 C0,35.3013951 2.16030769,37.6858213 4.94184211,38.0324846 C5.64037253,41.901645 7.47595385,45.4706955 10.2826628,48.3267776 C13.9470868,52.0556401 18.818491,54.1090909 24,54.1090909 C24.0006357,54.1090909 24.0012714,54.1090909 24.0019072,54.1090909 C29.1768047,54.1090909 34.0418516,52.0867608 37.7010627,48.4161856 C40.5593923,45.5488796 42.4146809,41.9434793 43.0901982,38.0284032 C45.8562211,37.6673275 48,35.2901712 48,32.4187838 Z M39.3140145,5.99342338 C40.6028756,6.85115359 41.341965,8.23296015 41.341965,9.78452714 L41.341965,23.1369313 C38.1848465,22.6447408 35.7607146,19.899494 35.7607146,16.5966268 L35.6765451,5.37789833 C36.9186171,5.04947375 38.2138354,5.261196 39.3140145,5.99342338 Z M3.28515273,15.1271979 L3.48286202,14.5403701 C4.00072048,13.0028329 5.15074009,11.7545644 6.6379462,11.1158265 C8.12502516,10.4770885 9.81922209,10.5036175 11.2858308,11.1889089 C14.3660271,12.6279825 18.0897003,11.849967 20.3409161,9.29705578 L20.5929159,9.01123074 C20.9651943,8.58918922 20.9257796,7.94432915 20.5050593,7.57100925 C20.0842119,7.19768935 19.4413706,7.2371003 19.0692194,7.65914183 L18.8172196,7.94496687 C17.1582416,9.82623387 14.4143419,10.3994145 12.1446901,9.3390176 C10.1545014,8.40909776 7.85535224,8.37300294 5.83719181,9.23991628 C5.65346839,9.31886573 5.47483074,9.4069983 5.29899026,9.49921227 C6.4813045,6.33728073 9.34281264,4.11062585 13.84499,2.86452561 C18.3155084,1.62709832 23.067397,1.78665527 27.5872474,3.32559545 L33.6422373,5.38733655 L33.7215753,10.6596033 C31.0254818,14.3368107 27.0934192,16.8260776 22.6126021,17.6820223 C18.0243481,18.5583738 13.3436603,17.6310048 9.43244933,15.0706961 C7.52134434,13.8198767 5.11183395,13.8733175 3.28515273,15.1271979 Z M2.03430775,32.4187838 C2.03430775,30.7781915 3.12889247,29.3900077 4.62372723,28.9483245 L4.62372723,34.4788669 C4.62372723,34.9566449 4.6408917,35.4317445 4.67433064,35.9037831 C3.15381274,35.4786806 2.03430775,34.07787 2.03430775,32.4187838 Z M36.26268,46.9730306 C32.9876988,50.2582968 28.6333902,52.0677568 24.00178,52.068267 C24.0010172,52.068267 24.00089,52.068267 24,52.068267 C19.3677541,52.068267 15.0102669,50.2304923 11.7313442,46.8940812 C8.45979593,43.5649401 6.65803499,39.1557604 6.65803499,34.4787393 L6.65803499,16.2128484 C7.23412551,16.2559581 7.80576599,16.4429369 8.32044585,16.7797793 C12.6746273,19.6299945 17.8852523,20.6624594 22.9928905,19.6867514 C27.1389369,18.8947061 30.8635001,16.8472499 33.7262797,13.8276569 L33.7262797,16.5964993 C33.7262797,21.0262135 37.0596201,24.6874779 41.3418379,25.1942084 L41.3418379,34.6717127 C41.3418379,39.3186335 39.5381698,43.6873819 36.26268,46.9730306 Z M43.3369852,35.900467 C43.3621598,35.493093 43.3762728,35.0835507 43.3762728,34.6718402 L43.3762728,28.9483245 C44.8711075,29.3900077 45.9656922,30.7781915 45.9656922,32.4187838 C45.9656922,34.0736611 44.8519088,35.4716657 43.3369852,35.900467 Z" id="Shape"></path>
                    </g>
                </g>
            </g>
        </g>
    </g>
</svg>