<?xml version="1.0" encoding="UTF-8"?>
<svg viewBox="0 0 747 94" version="1.1" xmlns="http://www.w3.org/2000/svg" xmlns:xlink="http://www.w3.org/1999/xlink">
    <!-- Generator: Sketch 55.2 (78181) - https://sketchapp.com -->
    <title>Group 2</title>
    <desc>Created with Sketch.</desc>
    <g id="MVP" stroke="none" stroke-width="1" fill="none" fill-rule="evenodd" opacity="0.5">
        <g id="Latest-Home" transform="translate(-138.000000, -1554.000000)" fill="#000000" fill-rule="nonzero">
            <g id="Group-2" transform="translate(138.000000, 1554.000000)">
                <g id="boy-broad-smile" transform="translate(280.000000, 4.000000)">
                    <path d="M13.5271454,30.6514194 C14.02434,30.6514194 14.4917488,30.8274199 14.8433237,31.1470212 C15.0421506,31.327766 15.3027132,31.4182541 15.563403,31.4181384 C15.8239656,31.4181384 16.0846554,31.327766 16.2834823,31.1470212 C16.6812635,30.7855316 16.6812635,30.1994416 16.2834823,29.8378363 C15.5472372,29.1685482 14.5683773,28.8 13.5272727,28.8 C12.4861681,28.8 11.5073083,29.1685482 10.7710631,29.8378363 C10.373282,30.1993259 10.373282,30.7854159 10.7710631,31.1470212 C11.1688443,31.5086265 11.8135679,31.5085108 12.2110945,31.1470212 C12.5625421,30.8274199 13.0299508,30.6514194 13.5271454,30.6514194 Z" id="Path"></path>
                    <path d="M31.7165115,29.8368488 C31.3187386,30.1985742 31.3187386,30.7850465 31.7165115,31.1468877 C32.114157,31.5086132 32.7588673,31.5086132 33.1565128,31.1468877 C33.8821778,30.4866578 35.0631495,30.4867735 35.7888144,31.1468877 C35.9876372,31.3277505 36.2481943,31.4181818 36.5088788,31.4181818 C36.7695632,31.4181818 37.0301203,31.3277505 37.2289431,31.1468877 C37.6267159,30.7851623 37.6267159,30.19869 37.2289431,29.8368488 C35.7093872,28.4544416 33.2364493,28.4543258 31.7165115,29.8368488 Z" id="Path"></path>
                    <path d="M34.0516019,40.4566105 C28.2684844,46.5190379 18.8587884,46.5190379 13.0755442,40.4566105 C12.6797838,40.0417359 12.0381301,40.0417359 11.6423698,40.4566105 C11.2464828,40.871485 11.2464828,41.5442617 11.6423698,41.9591363 C14.9290555,45.4045606 19.2463143,47.1272727 23.563573,47.1272727 C27.8809585,47.1272727 32.1982172,45.4045606 35.4849029,41.9591363 C35.8807899,41.5442617 35.8807899,40.8716178 35.4849029,40.4566105 C35.0891426,40.0417359 34.4473622,40.0417359 34.0516019,40.4566105 Z" id="Path"></path>
                    <path d="M48,32.4187838 C48,29.6471355 46.0025641,27.3360468 43.3762728,26.8540598 L43.3762728,9.78452714 C43.3762728,7.57011645 42.278128,5.51717586 40.4387324,4.29288555 C38.7109694,3.14308067 36.5663004,2.88212662 34.6268423,3.56767307 L28.2408959,1.39331104 C23.3338914,-0.27763669 18.1686568,-0.449055189 13.303737,0.897421812 C6.93482798,2.66020088 3.28349986,6.38778796 2.71986947,11.6864562 C2.22108263,12.3463664 1.82477405,13.0875218 1.55548257,13.8872197 L1.06012863,15.3579241 C0.794270033,16.1475461 1.08733749,16.9773443 1.78968225,17.4227263 C2.49189985,17.8681083 3.36499931,17.7780625 3.96206864,17.1983772 C4.16600799,17.0003021 4.38901898,16.8334752 4.62372723,16.6939426 L4.62372723,26.8540598 C1.99743592,27.3360468 0,29.6470079 0,32.4187838 C0,35.3013951 2.16030769,37.6858213 4.94184211,38.0324846 C5.64037253,41.901645 7.47595385,45.4706955 10.2826628,48.3267776 C13.9470868,52.0556401 18.818491,54.1090909 24,54.1090909 C24.0006357,54.1090909 24.0012714,54.1090909 24.0019072,54.1090909 C29.1768047,54.1090909 34.0418516,52.0867608 37.7010627,48.4161856 C40.5593923,45.5488796 42.4146809,41.9434793 43.0901982,38.0284032 C45.8562211,37.6673275 48,35.2901712 48,32.4187838 Z M39.3140145,5.99342338 C40.6028756,6.85115359 41.341965,8.23296015 41.341965,9.78452714 L41.341965,23.1369313 C38.1848465,22.6447408 35.7607146,19.899494 35.7607146,16.5966268 L35.6765451,5.37789833 C36.9186171,5.04947375 38.2138354,5.261196 39.3140145,5.99342338 Z M3.28515273,15.1271979 L3.48286202,14.5403701 C4.00072048,13.0028329 5.15074009,11.7545644 6.6379462,11.1158265 C8.12502516,10.4770885 9.81922209,10.5036175 11.2858308,11.1889089 C14.3660271,12.6279825 18.0897003,11.849967 20.3409161,9.29705578 L20.5929159,9.01123074 C20.9651943,8.58918922 20.9257796,7.94432915 20.5050593,7.57100925 C20.0842119,7.19768935 19.4413706,7.2371003 19.0692194,7.65914183 L18.8172196,7.94496687 C17.1582416,9.82623387 14.4143419,10.3994145 12.1446901,9.3390176 C10.1545014,8.40909776 7.85535224,8.37300294 5.83719181,9.23991628 C5.65346839,9.31886573 5.47483074,9.4069983 5.29899026,9.49921227 C6.4813045,6.33728073 9.34281264,4.11062585 13.84499,2.86452561 C18.3155084,1.62709832 23.067397,1.78665527 27.5872474,3.32559545 L33.6422373,5.38733655 L33.7215753,10.6596033 C31.0254818,14.3368107 27.0934192,16.8260776 22.6126021,17.6820223 C18.0243481,18.5583738 13.3436603,17.6310048 9.43244933,15.0706961 C7.52134434,13.8198767 5.11183395,13.8733175 3.28515273,15.1271979 Z M2.03430775,32.4187838 C2.03430775,30.7781915 3.12889247,29.3900077 4.62372723,28.9483245 L4.62372723,34.4788669 C4.62372723,34.9566449 4.6408917,35.4317445 4.67433064,35.9037831 C3.15381274,35.4786806 2.03430775,34.07787 2.03430775,32.4187838 Z M36.26268,46.9730306 C32.9876988,50.2582968 28.6333902,52.0677568 24.00178,52.068267 C24.0010172,52.068267 24.00089,52.068267 24,52.068267 C19.3677541,52.068267 15.0102669,50.2304923 11.7313442,46.8940812 C8.45979593,43.5649401 6.65803499,39.1557604 6.65803499,34.4787393 L6.65803499,16.2128484 C7.23412551,16.2559581 7.80576599,16.4429369 8.32044585,16.7797793 C12.6746273,19.6299945 17.8852523,20.6624594 22.9928905,19.6867514 C27.1389369,18.8947061 30.8635001,16.8472499 33.7262797,13.8276569 L33.7262797,16.5964993 C33.7262797,21.0262135 37.0596201,24.6874779 41.3418379,25.1942084 L41.3418379,34.6717127 C41.3418379,39.3186335 39.5381698,43.6873819 36.26268,46.9730306 Z M43.3369852,35.900467 C43.3621598,35.493093 43.3762728,35.0835507 43.3762728,34.6718402 L43.3762728,28.9483245 C44.8711075,29.3900077 45.9656922,30.7781915 45.9656922,32.4187838 C45.9656922,34.0736611 44.8519088,35.4716657 43.3369852,35.900467 Z" id="Shape"></path>
                </g>
                <g id="delighted-granny" transform="translate(699.000000, 38.000000)">
                    <path d="M12.2578153,27.2903194 C11.9141166,27.6815292 11.9140065,28.3154768 12.2578153,28.7066866 C12.4297748,28.902354 12.6548733,29 12.8801918,29 C13.1054003,29 13.3307189,28.9022289 13.5025683,28.7066866 C14.3282595,27.767032 15.6719193,27.7671572 16.4975005,28.7066866 C16.8411993,29.0977711 17.3984446,29.0977711 17.7421434,28.7066866 C18.0859522,28.315602 18.0859522,27.6815292 17.7421434,27.2904446 C16.2300448,25.5698727 13.769804,25.5698727 12.2578153,27.2903194 Z" id="Path"></path>
                    <path d="M16.4974317,35.2933573 C15.6717405,36.2328769 14.3280807,36.2328769 13.5024995,35.2933573 C13.1588007,34.9022768 12.6015554,34.9022768 12.2578566,35.2933573 C11.9140478,35.6844378 11.9140478,36.318504 12.2578566,36.7095845 C13.0140159,37.5699867 14.0068258,38 14.9999656,38 C15.9928854,38 16.9862454,37.5697363 17.7421847,36.7095845 C18.0858834,36.318504 18.0859935,35.6844378 17.7421847,35.2933573 C17.3984859,34.9021516 16.8412406,34.9022768 16.4974317,35.2933573 Z" id="Path"></path>
                    <path d="M34.4974902,35.2933573 C33.6717933,36.2328769 32.3282342,36.2328769 31.5025373,35.2933573 C31.1588362,34.9021516 30.601587,34.9022768 30.2577759,35.2933573 C29.9140747,35.684563 29.9140747,36.318504 30.2577759,36.7095845 C31.0138304,37.5698615 32.0068671,38 33.0000138,38 C33.9931604,38 34.9861971,37.5698615 35.7421416,36.7095845 C36.0859528,36.318504 36.0859528,35.6844378 35.7421416,35.2933573 C35.3984405,34.9022768 34.8411913,34.9022768 34.4974902,35.2933573 Z" id="Path"></path>
                    <path d="M31.5024892,28.7066758 C32.3281747,27.7671121 33.6717153,27.7671121 34.4974008,28.7066758 C34.669249,28.9022253 34.894456,29 35.119773,29 C35.34509,29 35.570297,28.9022253 35.7421452,28.7066758 C36.0859516,28.315577 36.0859516,27.681481 35.7421452,27.2903821 C34.230167,25.5698726 31.7699431,25.5698726 30.2578548,27.2903821 C29.9140484,27.681481 29.9140484,28.315577 30.2578548,28.7066758 C30.6015513,29.0977747 31.1587927,29.0977747 31.5024892,28.7066758 Z" id="Path"></path>
                    <circle id="Oval" cx="15.5" cy="32.5" r="1.5"></circle>
                    <circle id="Oval" cx="32.5" cy="32.5" r="1.5"></circle>
                    <path d="M48,25.9618477 C48,24.6171001 47.4150568,23.3675139 46.4523854,22.5093629 C47.3542881,21.6578793 47.8880894,20.457268 47.8880894,19.152767 C47.8880894,17.7806224 47.2924365,16.5123677 46.2845195,15.6488828 C46.6241019,14.9948745 46.8050841,14.2638884 46.8050841,13.5158096 C46.8050841,11.5485721 45.5839354,9.86245514 43.8479982,9.20444644 C44.0128557,8.72500201 44.0975708,8.21816075 44.0975708,7.6982272 C44.0975708,5.1582021 42.0462383,3.09168141 39.5248815,3.09168141 C39.2994961,3.09168141 39.0761563,3.10804677 38.8559452,3.14065627 C38.071007,1.66765264 36.5484219,0.727796079 34.8318584,0.727796079 C33.946321,0.727796079 33.1044649,0.977276901 32.379814,1.44423517 C31.5264058,0.535048506 30.3281205,0 29.0558299,0 C28.1854546,0 27.3433578,0.248957768 26.6177442,0.711430719 C25.8920103,0.249078993 25.0489508,0 24.1774925,0 C24.1174459,0 24.058362,0.00153776928 23.9993983,0.00408349195 C23.0681341,-0.0357994965 22.1562436,0.217681746 21.3814134,0.71118827 C20.6565218,0.248957768 19.8141844,0 18.9429667,0 C17.6699541,0 16.4708265,0.53638198 15.6174183,1.44714457 C14.8901201,0.982732021 14.0382762,0.727796079 13.1669383,0.727796079 C11.4509765,0.727796079 9.92875229,1.66753142 9.14393442,3.14077749 C8.92348266,3.108168 8.7001429,3.09168141 8.47511845,3.09168141 C5.95376169,3.09168141 3.90242924,5.1582021 3.90242924,7.6982272 C3.90242924,8.21876687 3.98702399,8.72560813 4.1516408,9.20456767 C2.41582391,9.86257637 1.19491589,11.5485721 1.19491589,13.5158096 C1.19491589,14.2637672 1.37589812,14.9947533 1.71536012,15.6486403 C0.707443155,16.5118828 0.111910552,17.7800163 0.111910552,19.152767 C0.111910552,20.4575104 0.645591516,21.6580005 1.54725363,22.5093629 C0.584822884,23.3675139 0,24.6169788 0,25.9618477 C0,27.3404172 0.614184362,28.6307349 1.6429191,29.4968867 C1.50044373,29.9667544 1.42318935,30.4649887 1.42318935,30.9811643 C1.42318935,33.4569402 3.18680338,35.5245519 5.51454286,35.9789028 L5.51454286,40.0702428 C5.51454286,42.1922845 6.37998446,44.2761403 7.88909223,45.787451 C9.38412094,47.2845784 11.3479706,48.1013917 13.4092908,48.0899965 C14.7642508,48.0819957 16.0614505,47.7326256 17.2182206,47.0708589 C18.6077164,49.4905077 21.1608413,51 24.0022863,51 C26.843611,51 29.3967359,49.4905077 30.7863521,47.0708589 C31.9431222,47.7325043 33.2403219,48.0818745 34.5952819,48.0899965 C34.6106846,48.0899965 34.6258467,48.0901178 34.6411291,48.0901178 C36.6889719,48.0901178 38.6315225,47.2734257 40.1153601,45.7873298 C41.6243476,44.2761403 42.4897892,42.1922845 42.4897892,40.0702428 L42.4897892,35.9789028 C44.8175286,35.5246731 46.5811427,33.4569402 46.5811427,30.9811643 C46.5811427,30.4634128 46.5035273,29.9637238 46.3603299,29.4926439 C47.3868986,28.6268557 48,27.3379927 48,25.9618477 Z M3.34853218,30.9811643 C3.34853218,29.4972504 4.37209256,28.2503312 5.74510266,27.9173264 C5.60274762,29.9364482 5.52657625,31.9593279 5.51731054,33.9806317 C4.26030234,33.5713765 3.34853218,32.3817966 3.34853218,30.9811643 Z M40.5644463,40.0702428 C40.5644463,41.6796244 39.9059791,43.2620941 38.7578731,44.411791 C37.6292612,45.542213 36.1597433,46.1575506 34.606473,46.1503983 C33.2854471,46.1426399 32.0372233,45.7046544 30.9964552,44.8839619 C30.757472,44.6955784 30.4442428,44.6316929 30.1512297,44.7115801 C29.8582166,44.7915885 29.6199554,45.0060354 29.5081652,45.2903077 C28.607225,47.5804883 26.4459074,49.0604018 24.0020457,49.0604018 C21.5580636,49.0604018 19.396746,47.5804883 18.4959262,45.2903077 C18.384136,45.0060354 18.1457545,44.7915885 17.8527414,44.7115801 C17.7697109,44.6889111 17.6851162,44.6777584 17.6010028,44.6777584 C17.3882524,44.6777584 17.1788714,44.7487961 17.0075159,44.8838407 C15.9668681,45.7045332 14.7185239,46.1425187 13.3976184,46.1502771 C11.8456717,46.1574294 10.3749505,45.5420918 9.24621826,44.411791 C8.09811226,43.2620941 7.43964501,41.6795032 7.43964501,40.0702428 L7.43964501,34.4020094 C7.43964501,28.3918007 8.04384166,22.3603775 9.23598987,16.4700602 C10.0588333,17.8668133 11.5412269,18.7235096 13.1671789,18.7235096 C14.0379152,18.7235096 14.8893981,18.4685737 15.6168167,18.0041611 C16.4703452,18.9149237 17.6697135,19.4507377 18.9428464,19.4507377 C19.8132217,19.4507377 20.6554388,19.2022267 21.3809321,18.7399962 C22.1065457,19.2022267 22.9496052,19.4507377 23.8215448,19.4507377 C23.8811101,19.4507377 23.9403144,19.4494043 23.9993983,19.4469798 C24.058362,19.4494043 24.1175662,19.4507377 24.1771315,19.4507377 C25.0490712,19.4507377 25.8921307,19.2022267 26.6178646,18.739875 C27.3432375,19.2021055 28.185575,19.4507377 29.0559503,19.4507377 C30.3292035,19.4507377 31.5283311,18.915045 32.38198,18.0041611 C33.1093986,18.4685737 33.9610018,18.7235096 34.8317381,18.7235096 C36.4580511,18.7235096 37.9404447,17.8665709 38.7632881,16.469454 C39.9584447,22.3669237 40.5644463,28.4064689 40.5644463,34.4246785 L40.5644463,40.0702428 L40.5644463,40.0702428 Z M42.4869012,33.9807529 C42.4771541,31.9593279 42.4003811,29.936327 42.2575447,27.917084 C43.6313971,28.2494826 44.6556795,29.4967655 44.6556795,30.9812855 C44.6557998,32.3819179 43.7439093,33.5714977 42.4869012,33.9807529 Z M42.0952142,25.9228133 C41.780541,22.5197883 41.2789892,19.1336134 40.5907995,15.7928979 C40.4408634,15.0653062 39.8507458,14.501368 39.1236882,14.3898411 C39.1032315,14.3866892 39.0826544,14.3832949 39.0619569,14.3796582 C38.3027702,14.2448561 37.5483968,14.6305937 37.184868,15.3391532 C36.7278398,16.2303986 35.8260573,16.7839114 34.8317381,16.7839114 C34.0974605,16.7839114 33.4144451,16.4871529 32.9086816,15.948187 C32.6980972,15.723921 32.3943744,15.6137275 32.0901702,15.6521558 C31.7860864,15.6903417 31.5182231,15.8720578 31.3687683,16.1416619 C30.9004287,16.986357 30.0142897,17.5111395 29.0560706,17.5111395 C28.393512,17.5111395 27.7587505,17.2616587 27.2687508,16.8087625 C26.900529,16.468363 26.3349595,16.4684842 25.966858,16.809005 C25.4773396,17.2617799 24.8417358,17.5111395 24.1772519,17.5111395 C24.1330893,17.5111395 24.0892878,17.5096848 24.0454862,17.507624 C24.0146807,17.5061693 23.9839956,17.5061693 23.9534308,17.507624 C23.9098699,17.5096848 23.865948,17.5111395 23.8217855,17.5111395 C23.1573015,17.5111395 22.521818,17.2617799 22.0322996,16.809005 C21.6640778,16.468363 21.098388,16.468363 20.7302865,16.8087625 C20.2402868,17.2616587 19.6055253,17.5111395 18.9429667,17.5111395 C17.9847477,17.5111395 17.0984883,16.986357 16.630269,16.1416619 C16.4809346,15.8720578 16.2130713,15.6903417 15.9089874,15.6521558 C15.6050239,15.6137275 15.3009401,15.723921 15.0903557,15.948187 C14.5844719,16.4870317 13.9015769,16.7839114 13.1672993,16.7839114 C12.17298,16.7839114 11.2713179,16.2302773 10.8141693,15.339032 C10.4507609,14.6305937 9.69650781,14.2452198 8.93611773,14.3797794 C8.9165033,14.3832949 8.89676853,14.386568 8.8771541,14.3895986 C8.14829151,14.501368 7.55817393,15.0656698 7.40823786,15.7949588 L7.40414651,15.8147184 C6.71908546,19.1482816 6.21994033,22.527183 5.90683146,25.9230558 C4.57834491,26.074102 3.40424678,26.7453242 2.59103011,27.730034 C2.16889869,27.2492561 1.92522249,26.6228871 1.92522249,25.9618477 C1.92522249,24.8367596 2.63206398,23.8270775 3.68390283,23.4495832 C4.06187169,23.3139325 4.31661862,22.9563191 4.32335732,22.5522765 C4.33009602,22.1481127 4.08726215,21.7821348 3.71398631,21.6338768 C2.69535962,21.2292281 2.03713304,20.2553073 2.03713304,19.152767 C2.03713304,18.1444183 2.59307579,17.2330496 3.4879992,16.7743346 C3.75273384,16.638684 3.94045476,16.3876272 3.99677104,16.0937781 C4.05308732,15.799929 3.97162125,15.4965031 3.77607862,15.2713885 C3.35310487,14.7843069 3.12013838,14.1608473 3.12013838,13.5158096 C3.12013838,12.0912959 4.2257665,10.9214758 5.63716313,10.85262 C5.99347188,10.8351636 6.31115345,10.6205956 6.4624132,10.2951068 C6.61367294,9.96949672 6.57384241,9.58642607 6.35892602,9.29960798 C6.01140164,8.83592278 5.82765173,8.28216749 5.82765173,7.6982272 C5.82765173,6.22764807 7.01522726,5.03127964 8.47499812,5.03127964 C8.78642232,5.03127964 9.09170949,5.08534594 9.38243626,5.19202384 C9.63092582,5.28342741 9.90600918,5.26754695 10.142706,5.14826166 C10.3794028,5.02909759 10.5568954,4.81695404 10.6335481,4.56177564 C10.9684374,3.44638544 12.0101682,2.66751553 13.1669383,2.66751553 C13.9019379,2.66751553 14.5850736,2.96427406 15.0904761,3.50323991 C15.3010604,3.72774841 15.6046629,3.83830551 15.9092281,3.79951354 C16.2134323,3.7613277 16.4812956,3.57949037 16.6307503,3.30988622 C17.0989696,2.46494874 17.984868,1.94016619 18.9428464,1.94016619 C19.6062473,1.94016619 20.2406478,2.18940457 20.7293239,2.6420583 C21.0974254,2.98294269 21.6634761,2.98306391 22.031698,2.64266443 C22.5216977,2.18964702 23.1576625,1.94016619 23.8223871,1.94016619 C23.8618567,1.94016619 23.9013262,1.94089354 23.9407957,1.94331804 C23.9799042,1.94574254 24.0188924,1.94574254 24.05764,1.94331804 C24.0973501,1.94089354 24.13694,1.94016619 24.1773722,1.94016619 C24.8413748,1.94016619 25.4768583,2.18976824 25.9669784,2.64266443 C26.3352002,2.98306391 26.9006493,2.98306391 27.2686304,2.64266443 C27.7586302,2.18964702 28.3932713,1.94016619 29.0557096,1.94016619 C30.0145303,1.94016619 30.90091,2.46519119 31.3691293,3.31000744 C31.5185841,3.57961159 31.7864474,3.76144893 32.0906516,3.79963477 C32.3949761,3.83842673 32.6989396,3.72774841 32.9094036,3.50336114 C33.4149264,2.96439528 34.0975808,2.66763675 34.8317381,2.66763675 C36.0075209,2.66763675 37.0260272,3.42892906 37.3663316,4.56189687 C37.4429843,4.81719649 37.6207175,5.02946127 37.857655,5.14862533 C38.0945925,5.26791062 38.3697962,5.28330618 38.6184061,5.19190262 C38.9074482,5.08546716 39.2124947,5.03140086 39.5248815,5.03140086 C40.9846524,5.03140086 42.1722279,6.22776929 42.1722279,7.69834842 C42.1722279,8.28107646 41.9882374,8.83507421 41.6402316,9.300699 C41.4257966,9.58763832 41.3863271,9.97058774 41.5377071,10.2957129 C41.6890872,10.6209593 42.0065281,10.8352849 42.3625962,10.85262 C43.7739928,10.921597 44.8796209,12.0914172 44.8796209,13.5158096 C44.8796209,14.1608473 44.6466545,14.7844281 44.2236807,15.2713885 C44.0281381,15.4965031 43.9467923,15.799929 44.0029883,16.0935357 C44.0591842,16.3872636 44.2467848,16.6384415 44.5113991,16.7740922 C45.4065632,17.2332921 45.9626263,18.144782 45.9626263,19.1526457 C45.9626263,20.2548224 45.3042794,21.2287432 44.285412,21.6338768 C43.9122565,21.782256 43.6696633,22.1481127 43.6762817,22.5521553 C43.6829,22.9561979 43.937647,23.31369 44.3154955,23.4493407 C45.367575,23.8273199 46.0744165,24.837002 46.0744165,25.9617265 C46.0744165,26.6213111 45.8312216,27.2464679 45.4102936,27.7266397 C44.5969566,26.7433846 43.4232194,26.0732534 42.0952142,25.9228133 Z" id="Shape"></path>
                    <path d="M27.0970432,39 L19.902844,39 C19.4042484,39 19,39.4489378 19,40.0026529 C19,42.7581936 21.0186462,45 23.5,45 C25.9813538,45 28,42.7581936 28,40.0026529 C27.9998871,39.4489378 27.5957516,39 27.0970432,39 Z M23.5,42.9946943 C22.3309299,42.9946943 21.3334002,42.1634951 20.9613156,41.0053057 L26.0385715,41.0053057 C25.6665998,42.1634951 24.6690701,42.9946943 23.5,42.9946943 Z" id="Shape"></path>
                </g>
                <g id="fat-boy-smiling" transform="translate(559.000000, 13.000000)">
                    <path d="M48,29.76287 C48,28.8134276 47.7179563,27.9290322 47.2344689,27.1863548 C47.4305318,25.9625296 47.5309735,24.711322 47.5309735,23.4608967 C47.5309735,10.5245614 36.9748499,0 23.9997197,0 C11.0245896,0 0.468353928,10.5245614 0.468353928,23.4608967 C0.468353928,24.7119926 0.568795555,25.9635354 0.764970609,27.1873606 C0.281931577,27.9298146 0,28.8138746 0,29.7627583 C0,32.1263615 1.74203448,34.091523 4.013069,34.4502882 C5.22498243,44.3729959 13.7256398,52.0851064 23.9999439,52.0851064 C34.2742481,52.0851064 42.7749055,44.3731076 43.9868189,34.4502882 C46.2580776,34.0916348 48,32.1264733 48,29.76287 Z M1.79371259,29.76287 C1.79371259,28.4432624 2.66495403,27.3230432 3.86386385,26.9431544 L3.86397595,32.0094555 C3.86397595,32.2022498 3.86733896,32.3942619 3.87283186,32.5857151 C2.66921383,32.2085087 1.79371259,31.0857189 1.79371259,29.76287 Z M24.0000561,50.2968686 C13.8859429,50.2968686 5.65757644,42.0931045 5.65757644,32.0093437 L5.65757644,22.7637075 C5.65757644,21.3825174 6.38409674,20.1605922 7.60116677,19.4950325 C8.8062421,18.8359551 10.214779,18.8804375 11.3692972,19.6140621 C15.1400059,22.0103006 19.5076473,23.2769318 23.9997197,23.2769318 C28.4920164,23.2769318 32.8597699,22.0103006 36.6307028,19.6139503 C37.7849968,18.8804375 39.1935337,18.8357316 40.3987211,19.494809 C41.6156791,20.1602569 42.3425357,21.3822939 42.3425357,22.7633722 L42.3425357,32.0093437 C42.3425357,42.0931045 34.1141692,50.2968686 24.0000561,50.2968686 Z M41.2611067,17.9269715 C39.4729991,16.949029 37.3815488,17.0161997 35.6666425,18.1061306 C32.184143,20.3191866 28.149775,21.4889176 23.9996076,21.4889176 C19.8495524,21.4889176 15.8154086,20.3191866 12.3331333,18.1062424 C10.6181149,17.0163115 8.52644043,16.9494761 6.73833284,17.9271951 C4.93834265,18.9115082 3.86363965,20.7195283 3.86375175,22.7637075 L3.86375175,25.1019401 C3.33015561,25.2037579 2.82828377,25.3947641 2.37360605,25.6586409 C2.30006843,24.9303811 2.26184232,24.1956389 2.26184232,23.460785 C2.26184232,11.510551 12.0135361,1.78823773 23.9997197,1.78823773 C35.9859034,1.78823773 45.737373,11.510551 45.737373,23.4608967 C45.737373,24.1955271 45.6991469,24.9301576 45.6256093,25.6583056 C45.1710436,25.3945405 44.669396,25.2037579 44.136024,25.1019401 L44.136024,22.763484 C44.1357998,20.7193047 43.061209,18.9112846 41.2611067,17.9269715 Z M44.1272802,32.5857151 C44.1327731,32.3942619 44.1361361,32.2022498 44.1361361,32.0094555 L44.136024,26.9430427 C45.3351581,27.3229314 46.2063995,28.4432624 46.2063995,29.76287 C46.2063995,31.0857189 45.3308983,32.2085087 44.1272802,32.5857151 Z" id="Shape"></path>
                    <circle id="Oval" cx="15.8297872" cy="32.1702128" r="1.53191489"></circle>
                    <circle id="Oval" cx="33.1914894" cy="32.1702128" r="1.53191489"></circle>
                    <path d="M29.8877184,27.8483338 C29.5267889,28.2530456 29.5267889,28.9088729 29.8877184,29.3135846 C30.2485325,29.7180373 30.8335271,29.7180373 31.1943411,29.3135846 C32.0140265,28.3943385 33.3476756,28.3943385 34.1672455,29.3135846 C34.3476525,29.5158757 34.5840758,29.6170213 34.8206146,29.6170213 C35.0571534,29.6170213 35.2935767,29.5158757 35.4739837,29.3135846 C35.8349132,28.9088729 35.8349132,28.2530456 35.4739837,27.8483338 C33.9338252,26.1214774 31.427877,26.1214774 29.8877184,27.8483338 Z" id="Path"></path>
                    <path d="M15.319185,26.5531915 C14.2640934,26.5531915 13.2720648,27.0136589 12.5259354,27.849696 C12.1651137,28.2539962 12.1651137,28.9094958 12.5259354,29.3137961 C12.8867571,29.7179669 13.4717641,29.7180963 13.8327013,29.3136667 C14.22979,28.8687293 14.7576245,28.6238714 15.3190695,28.6238714 C15.88063,28.6238714 16.4084646,28.8688587 16.8055533,29.3136667 C16.9860796,29.5159462 17.2223924,29.6170213 17.4589362,29.6170213 C17.6953645,29.6170213 17.9319083,29.5159462 18.1123191,29.3137961 C18.4731408,28.9094958 18.4732563,28.2539962 18.1123191,27.849696 C17.3664208,27.0135295 16.3743921,26.5531915 15.319185,26.5531915 Z" id="Path"></path>
                    <path d="M26.766546,37.787234 C26.3203711,37.787234 25.958624,38.2402635 25.958624,38.7990251 C25.958624,40.5040195 24.8509628,41.8913115 23.4894122,41.8913115 C22.1278616,41.8913115 21.0200994,40.5040195 21.0200994,38.7990251 C21.0200994,38.2402635 20.6583523,37.787234 20.2121774,37.787234 C19.7660024,37.787234 19.4042553,38.2402635 19.4042553,38.7990251 C19.4042553,41.620025 21.2368245,43.9148936 23.4894122,43.9148936 C25.7418989,43.9148936 27.5744681,41.6198986 27.5744681,38.7990251 C27.5744681,38.2402635 27.212721,37.787234 26.766546,37.787234 Z" id="Path"></path>
                </g>
                <g id="philosophizing-boy" transform="translate(140.000000, 13.000000)">
                    <path d="M48,32.4309078 C48,31.03301 47.4980912,29.7227023 46.5798232,28.6907338 C46.9508764,21.0957084 47.1505769,16.0206711 44.7489823,11.3449789 C43.1137922,8.16059702 40.4659256,5.49846495 36.87891,3.43237604 C32.6954504,1.02453378 27.9230136,-0.155781057 23.0813524,0.01648795 C20.9138807,0.0936988937 18.7429921,0.670502615 16.8030626,1.68487721 C15.0230959,2.61634497 13.4185316,3.92639951 12.1371834,5.49061728 C8.61154584,5.68959368 5.40153129,7.60391878 3.67699479,10.5667938 C3.5296872,10.8196913 3.38630276,11.081449 3.25114425,11.3447257 C0.847904495,16.0237089 1.04798464,21.0997588 1.41916433,28.6959234 C0.537090549,29.6913117 0,30.9990878 0,32.4306547 C0,35.3828974 2.28098964,37.8108651 5.17259708,38.0480673 C6.37674801,41.9293728 9.56714686,46.3264728 14.7059543,51.1705102 C17.3119318,53.6286028 20.6555863,54.8571429 24.0001266,54.8571429 C27.3441606,54.8571429 30.6892071,53.6280965 33.2951847,51.1706367 C38.4332328,46.3259665 41.623252,41.9288665 42.8274029,38.0481939 C45.7191369,37.8109917 48,35.3831505 48,32.4309078 Z M17.7413259,3.47958863 C19.414735,2.60457347 21.2860729,2.10700589 23.1534876,2.04055385 C27.6172618,1.8813221 32.0145958,2.96923696 35.8688912,5.18746939 C39.1120626,7.05546793 41.4937884,9.43837485 42.9480078,12.2702444 C44.9703233,16.2074963 44.9431145,20.4934631 44.5802873,28.1150692 L42.3187868,28.2397459 C40.8236907,28.2883509 39.3440341,28.2649344 37.9138597,28.1719016 C36.8055093,27.2127138 35.362553,26.6305939 33.7854506,26.6305939 C32.8723714,26.6305939 32.0048512,26.8267857 31.2203497,27.1767664 C22.9389804,25.2000397 18.0541646,21.0501413 16.1554913,19.1286014 L13.7190947,6.75637045 C14.826053,5.40986223 16.2083905,4.281823 17.7413259,3.47958863 Z M38.079644,32.9508792 C38.079644,35.31923 36.153129,37.2460861 33.7851975,37.2460861 C31.4171395,37.2460861 29.4906245,35.31923 29.4906245,32.9508792 C29.4906245,32.5477369 29.5476999,32.1578849 29.6519795,31.7876521 L31.8838666,31.7876521 C31.9163907,32.8110135 32.7540444,33.6312216 33.785071,33.6312216 C34.8160975,33.6312216 35.6537512,32.8110135 35.6862753,31.7876521 L37.9181625,31.7876521 C38.0226952,32.1578849 38.079644,32.5477369 38.079644,32.9508792 Z M24,29.9734481 C22.6333551,29.9734481 21.3412499,30.4050699 20.2797241,31.1800906 C19.5120542,28.5545387 17.0845163,26.6305939 14.2145494,26.6305939 C11.4617705,26.6305939 9.11585919,28.4008763 8.25150282,30.8625131 L6.64934298,29.2600696 L6.64934298,27.507128 C10.7724368,26.8439999 13.6955559,24.8163899 15.5327245,21.3396191 C17.8072599,23.4289978 22.2610365,26.7614728 29.0990698,28.7152894 C28.4675708,29.4133523 27.9909726,30.2531795 27.7200228,31.1800906 C26.6587501,30.4049433 25.3666449,29.9734481 24,29.9734481 Z M18.5092489,32.9508792 C18.5092489,35.31923 16.582734,37.2460861 14.2146759,37.2460861 C11.8467444,37.2460861 9.92022948,35.31923 9.92022948,32.9508792 C9.92022948,32.5477369 9.97730484,32.1578849 10.0815844,31.7876521 L12.3134716,31.7876521 C12.3459957,32.8110135 13.1836494,33.6312216 14.2146759,33.6312216 C15.245829,33.6312216 16.0833562,32.8110135 16.1158803,31.7876521 L18.3477674,31.7876521 C18.4521735,32.1578849 18.5092489,32.5477369 18.5092489,32.9508792 Z M11.3407859,29.762447 C12.1025079,29.0750164 13.1105018,28.6556724 14.2146759,28.6556724 C15.3189766,28.6556724 16.3270971,29.0750164 17.0886925,29.762447 L11.3407859,29.762447 Z M30.9113075,29.762447 C31.6730295,29.0750164 32.6810234,28.6556724 33.7853241,28.6556724 C34.8896248,28.6556724 35.8976187,29.0750164 36.6592141,29.762447 L30.9113075,29.762447 Z M39.7483706,30.8623865 C39.6773744,30.6603723 39.5967602,30.4629148 39.5064015,30.2707735 C39.7781106,30.2781148 40.0509586,30.2830513 40.3248191,30.2857094 L39.7483706,30.8623865 Z M5.05237181,12.2699913 C5.17107844,12.038485 5.29699859,11.8086242 5.42658877,11.586358 C6.73944865,9.33065926 9.13775284,7.83264038 11.8111831,7.54809906 L14.1664593,19.508454 C12.5558204,23.2050861 9.80342115,25.1489033 5.52745144,25.6149536 C5.01377318,25.6710264 4.62474953,26.1048001 4.62474953,26.6216071 L4.62474953,26.8852635 C4.19029339,26.964373 3.77304845,27.0931001 3.37921579,27.266002 C3.05701209,20.1731009 3.1053553,16.0604157 5.05237181,12.2699913 Z M2.02484655,32.4306547 C2.02484655,30.7899854 3.12421168,29.4022136 4.62462298,28.9631239 L4.62462298,34.6769868 C4.62462298,35.0845594 4.65233807,35.4994733 4.70460442,35.9209691 C3.16331653,35.5085867 2.02484655,34.1004363 2.02484655,32.4306547 Z M31.9062665,49.6971735 C27.4729915,53.8779562 20.5278944,53.8782094 16.0949991,49.6970469 C9.91567358,43.8720508 6.64934298,38.6782858 6.64934298,34.6769868 L6.64934298,32.1240893 L7.91208791,33.3870578 C8.13709899,36.6692823 10.8769695,39.2712911 14.2145494,39.2712911 C17.3926726,39.2712911 20.0291494,36.912307 20.4684145,33.8533613 C21.2713927,32.6888683 22.5757736,31.9986531 23.9998734,31.9986531 C25.4239733,31.9986531 26.7282276,32.6887418 27.5312058,33.8531081 C27.970471,36.9121804 30.6069478,39.2712911 33.785071,39.2712911 C37.1227774,39.2712911 39.8625214,36.6692823 40.0875324,33.3870578 L41.3505305,32.1238361 L41.3505305,34.6769868 C41.3505305,38.6773998 38.0849592,43.8711648 31.9062665,49.6971735 Z M43.2956487,35.9210956 C43.347915,35.4995998 43.3756301,35.0845594 43.3756301,34.6769868 L43.3756301,30.2097642 L45.13345,30.1129341 C45.6783869,30.7618857 45.9751534,31.5705754 45.9751534,32.4309078 C45.9751534,34.1005629 44.8366835,35.5085867 43.2956487,35.9210956 Z" id="Shape"></path>
                    <path d="M27.1600002,41.80614 C26.191111,41.3722375 25.0984271,41.1428571 23.9999585,41.1428571 C22.9016184,41.1428571 21.8089345,41.3722375 20.8400453,41.80614 C19.3321416,42.4814397 18.5742046,43.9467881 18.9542015,45.4525462 C19.3386977,46.9763296 20.7383614,48 22.4371634,48 L25.562882,48 C27.2616841,48 28.6613478,46.9762117 29.045844,45.4524284 C29.4257123,43.9467881 28.6679039,42.4814397 27.1600002,41.80614 Z M27.0419903,45.0277153 C26.9094542,45.5532757 26.4511697,46.1150044 25.5630106,46.1150044 L22.4371634,46.1150044 C21.5490043,46.1150044 21.0907198,45.5533935 20.9581837,45.0278331 C20.8291184,44.5167637 20.9676965,43.8470012 21.7431164,43.4996907 C22.4322785,43.1910227 23.2128404,43.0278528 23.9999585,43.0278528 C24.787205,43.0278528 25.5676384,43.1910227 26.2569291,43.4996907 C27.032349,43.8470012 27.1707985,44.5167637 27.0419903,45.0277153 Z" id="Shape"></path>
                </g>
                <g id="smiling-girl" transform="translate(419.000000, 0.000000)">
                    <path d="M27.6575477,41.6587684 C25.6611662,43.6551499 22.412861,43.6551499 20.4166104,41.6587684 C20.0080218,41.2501798 19.3455695,41.2501798 18.9369809,41.6587684 C18.5282616,42.0673569 18.5282616,42.7298093 18.9369809,43.1383978 C20.3431063,44.5445232 22.1901253,45.2475204 24.0371444,45.2475204 C25.8841635,45.2475204 27.7311826,44.5445232 29.1373079,43.1383978 C29.5460272,42.7298093 29.5460272,42.0673569 29.1373079,41.6587684 C28.7287193,41.2501798 28.0661362,41.2501798 27.6575477,41.6587684 Z" id="Path"></path>
                    <path d="M47.7152698,52.0391935 C45.2642616,49.3250354 45.160545,42.4091117 45.4506376,35.2533188 C46.5182779,34.2505504 47.187139,32.8278147 47.187139,31.2510082 C47.187139,29.8663324 46.6710409,28.6006757 45.8226049,27.6334823 C46.179139,20.3348665 46.3682616,15.4540381 44.0531444,10.9472698 C42.4737221,7.87213079 39.9180817,5.30275749 36.4573733,3.31056131 C32.4239346,0.988773842 27.8229973,-0.15093188 23.1514332,0.0160871935 C19.0480218,0.162310627 15.2277711,2.07407084 12.5933951,5.28170027 C9.19180381,5.4840327 6.09743869,7.33523706 4.43261035,10.1964033 C4.28965668,10.4420272 4.15141144,10.6945831 4.02166757,10.947139 C1.70524251,15.4563924 1.89423433,20.3368283 2.25076839,27.6346594 C1.40285559,28.6017221 0.887280654,29.8668556 0.887280654,31.2510082 C0.887280654,32.8272916 1.55561853,34.2496349 2.62273569,35.2524033 C2.91282834,42.4087193 2.80911172,49.3251662 0.358103542,52.0393243 C0.126343324,52.2959346 0.036359673,52.6506376 0.117711172,52.9867684 C0.19906267,53.3228992 0.441286104,53.5971662 0.764730245,53.719455 C3.52348774,54.7618529 6.19526975,55.1346049 8.6066485,55.1346049 C11.111673,55.1346049 13.3356294,54.7320327 15.0815477,54.2598801 C18.1152262,53.439564 20.2549537,52.2880872 20.9850245,51.8631499 C21.9786376,52.0268992 22.9978856,52.1136131 24.0371444,52.1136131 C25.0761417,52.1136131 26.0951281,52.02703 27.0884796,51.8632807 C27.8186812,52.2883488 29.9582779,53.439564 32.9916948,54.2598801 C35.3206757,54.8896349 37.4797602,55.1359128 39.4329809,55.1359128 C42.6866485,55.1359128 45.3685014,54.4522725 47.3085123,53.7191935 C47.6320872,53.5969046 47.8741798,53.3227684 47.9555313,52.9865068 C48.0370136,52.6505068 47.94703,52.2959346 47.7152698,52.0391935 Z M42.7401417,33.4107466 L42.7401417,28.2164142 C42.7404033,28.2026812 42.7404033,28.1888174 42.7401417,28.1749537 L42.7401417,28.015782 C44.1046757,28.4582452 45.0943651,29.7409046 45.0943651,31.2508774 C45.0943651,32.7728828 44.0892425,34.0645668 42.7078365,34.4969591 C42.7285014,34.1374169 42.7401417,33.7755204 42.7401417,33.4107466 Z M5.88307357,11.903346 C5.99620708,11.6832262 6.11666485,11.4629755 6.2413079,11.2488719 C7.61944414,8.88039237 10.2552589,7.38886104 13.1200872,7.35629428 C13.1233569,7.35629428 13.1312044,7.35616349 13.1346049,7.3560327 C13.4524251,7.3493624 13.749842,7.1986921 13.9432807,6.94652861 C16.2013733,4.00100272 19.5847847,2.23716621 23.2259837,2.10729155 C27.5053079,1.9546594 31.7197602,2.99797275 35.4131444,5.12409809 C38.5187575,6.91186921 40.799346,9.19271935 42.1914768,11.903346 C44.0445123,15.5105395 44.0994441,19.434376 43.7956185,26.1764796 C43.4592262,26.0366649 43.1060926,25.9298093 42.7401417,25.8587902 L42.7401417,24.794812 C42.7401417,24.2169809 42.2716512,23.7484905 41.6938202,23.7484905 C41.1159891,23.7484905 40.6474986,24.2169809 40.6474986,24.794812 L40.6474986,27.171139 C26.2345504,27.325079 18.4321308,20.3828665 16.3502125,18.2108338 C16.1052425,17.9552698 15.7476621,17.8409591 15.4002834,17.9067466 C15.0525123,17.9725341 14.7616349,18.2096567 14.6270518,18.5370245 C13.1066158,22.2355095 10.4501362,24.1705504 6.26720436,24.626485 C5.73632698,24.6842943 5.33427793,25.1326431 5.33427793,25.6666594 L5.33427793,25.8586594 C4.9679346,25.9296785 4.61440872,26.0366649 4.27775477,26.1767411 C3.97379837,19.4362071 4.02912262,15.5125014 5.88307357,11.903346 Z M5.36645232,34.4970899 C3.98504632,34.0646975 2.97992371,32.7730136 2.97992371,31.2510082 C2.97992371,29.7409046 3.96961308,28.4582452 5.33414714,28.0159128 L5.33414714,33.4107466 C5.33414714,33.7755204 5.34578747,34.1374169 5.36645232,34.4970899 Z M2.81041962,52.2039891 C4.67627248,49.019248 4.99984741,43.7249918 4.76259401,36.5006649 C5.04039237,36.5864632 5.32786921,36.6497657 5.62240872,36.6905722 C6.81246866,43.3905613 11.5822561,48.8677929 17.8767956,51.0700381 C14.8493951,52.3727084 9.11947684,54.0988774 2.81041962,52.2039891 Z M24.0371444,50.02097 C14.8781689,50.02097 7.42679019,42.5695913 7.42679019,33.4106158 L7.42679019,26.5798365 C11.3510191,25.9341253 14.1448283,24.0023542 15.9158583,20.7061798 C17.423346,22.0814387 19.860752,23.967564 23.2958256,25.6206213 C28.4607302,28.106158 34.2935804,29.3320545 40.6474986,29.2641744 L40.6474986,33.4106158 C40.6474986,42.5697221 33.1961199,50.02097 24.0371444,50.02097 Z M33.6068011,52.258267 C32.2651553,51.8996403 31.1075313,51.4663324 30.1937003,51.071346 C36.4902016,48.8701471 41.2616894,43.392 42.4520109,36.6905722 C42.7462888,36.6497657 43.0333733,36.586594 43.3109101,36.5009264 C43.0735259,43.7261689 43.39697,49.0204251 45.2637384,52.2050354 C41.5685232,53.3213297 37.6539728,53.3401635 33.6068011,52.258267 Z" id="Shape"></path>
                    <path d="M11.5309864,30.309842 C11.122267,30.7184305 11.122267,31.3808828 11.5309864,31.7894714 C11.9395749,32.1980599 12.6020272,32.1980599 13.0106158,31.7894714 C13.6813079,31.1190409 14.7723597,31.1189101 15.4430518,31.7894714 C15.647346,31.9937657 15.9150736,32.0959128 16.1829319,32.0959128 C16.4507902,32.0959128 16.7185177,31.9937657 16.922812,31.7894714 C17.3315313,31.3808828 17.3315313,30.7184305 16.922812,30.309842 C15.4363815,28.8232807 13.0174169,28.8231499 11.5309864,30.309842 Z" id="Path"></path>
                    <path d="M36.5434332,31.7894714 C36.9521526,31.3808828 36.9521526,30.7184305 36.5434332,30.309842 C35.0568719,28.8232807 32.6380381,28.8232807 31.1516076,30.309842 C30.7428883,30.7184305 30.7428883,31.3808828 31.1516076,31.7894714 C31.5601962,32.1980599 32.2226485,32.1980599 32.6312371,31.7894714 C33.3019292,31.1189101 34.3931117,31.1190409 35.063673,31.7894714 C35.2679673,31.9937657 35.5356948,32.0959128 35.8035531,32.0959128 C36.0714114,32.0959128 36.339139,31.9937657 36.5434332,31.7894714 Z" id="Path"></path>
                </g>
                <g id="winking-boy" transform="translate(0.000000, 38.000000)">
                    <path d="M25.5721247,44.6579081 C23.5611973,45.5224074 21.2285374,44.5742122 20.372226,42.5448219 C20.1419417,41.9988506 19.516447,41.7445387 18.9752124,41.977087 C18.434111,42.2096353 18.1822625,42.8409146 18.4126799,43.3870202 C19.3986427,45.723385 21.6570259,47.1272727 24.0273565,47.1272727 C24.8224363,47.1272727 25.6302948,46.969285 26.4066057,46.6355762 C26.9477072,46.4030279 27.1995557,45.7717486 26.9691383,45.225643 C26.7385878,44.679403 26.1132262,44.4253598 25.5721247,44.6579081 Z" id="Path"></path>
                    <path d="M48,33.0207736 C48,31.5975935 47.4983443,30.2637247 46.5802029,29.2131258 C46.951256,21.4808108 47.15083,16.3127458 44.7494885,11.5521874 C43.1136656,8.30875972 40.4656725,5.59810634 36.8794162,3.49574867 C32.6970956,1.04387872 27.926304,-0.158407467 23.0817321,0.0167353067 C18.825125,0.171386762 14.8627534,2.19590319 12.1361709,5.59140477 C8.61065997,5.79399818 5.40089853,7.74299315 3.67674168,10.7605008 C3.52880133,11.019542 3.38566999,11.2859291 3.25139736,11.5520585 C0.848284153,16.3158388 1.04823775,21.483775 1.41954399,29.2175076 C0.537217102,30.231119 0,31.562797 0,33.0205158 C0,36.0265535 2.2811162,38.4987859 5.17285018,38.740171 C6.37700112,42.6915157 9.56714686,47.1686753 14.7055747,52.101799 C17.3115522,54.6036729 20.6559659,55.8545455 24.0002531,55.8545455 C27.3446668,55.8545455 30.688954,54.6035441 33.2949316,52.1016701 C38.4333593,47.1686753 41.6235051,42.6915157 42.827656,38.7402999 C45.7191369,38.4987859 48,36.0266823 48,33.0207736 Z M23.1539938,2.07746595 C27.6187805,1.91559743 32.0157347,3.02367511 35.8692708,5.28274624 C39.111936,7.18367038 41.4937884,9.61002284 42.9483875,12.4942725 C44.9705764,16.5032248 44.9433676,20.8669734 44.5806669,28.6271257 L42.3191664,28.7540688 C27.0783995,29.2622277 18.6570627,22.0497993 16.1552382,19.4767857 L13.7189682,6.87926477 C16.0761427,3.95441912 19.4899074,2.2104662 23.1539938,2.07746595 Z M5.05249837,12.4942725 C5.17069878,12.2599755 5.29661893,12.0255497 5.42684187,11.7975677 C6.73982831,9.49944705 9.13990424,7.97393932 11.8110565,7.68590099 L14.1664593,19.8644454 C12.5559469,23.6280174 9.80342115,25.6069117 5.52745144,26.0815627 C5.01377318,26.138526 4.62474953,26.5803137 4.62474953,27.1065153 L4.62474953,27.3744489 C4.19041994,27.4549965 3.77330155,27.5859348 3.3794689,27.7619797 C3.05739174,20.5406588 3.10586151,16.3533418 5.05249837,12.4942725 Z M2.02484655,33.0206447 C2.02484655,31.3501512 3.12433823,29.9371524 4.62474953,29.4900808 L4.62474953,35.3079397 C4.62474953,35.7227922 4.65246462,36.1452485 4.70473097,36.5744062 C3.16344308,36.1546564 2.02484655,34.7207797 2.02484655,33.0206447 Z M31.9058868,50.601551 C27.4729915,54.8574302 20.5277678,54.8575591 16.0946194,50.601551 C9.91567358,44.6693789 6.64972264,39.3810724 6.64972264,35.3080686 L6.64972264,28.0080044 C10.7726899,27.3329508 13.6959355,25.268225 15.5331041,21.7286398 C17.0907173,23.1866164 19.6422771,25.214097 23.2621965,26.9882069 C28.6439856,29.6256586 34.7249794,30.9189314 41.3510367,30.8385126 L41.3510367,35.3079397 C41.3510367,39.3809435 38.0849592,44.6693789 31.9058868,50.601551 Z M43.2957752,36.5744062 C43.3480416,36.1452485 43.3757567,35.7227922 43.3757567,35.3079397 L43.3757567,30.7597693 L45.1339563,30.661179 C45.67864,31.3217984 45.97528,32.1450597 45.97528,33.0207736 C45.9751534,34.7206508 44.83681,36.1543987 43.2957752,36.5744062 Z" id="Shape"></path>
                    <path d="M11.6428176,33.3300821 C11.2463335,33.6913023 11.2463335,34.2769555 11.6428176,34.6381757 C12.0391749,34.999396 12.6817964,34.999396 13.0781536,34.6381757 C13.8071769,33.9740115 14.9929499,33.9741271 15.7217195,34.6381757 C15.9198981,34.8187859 16.1796111,34.9090909 16.4394509,34.9090909 C16.6992908,34.9090909 16.9590037,34.8187859 17.1571824,34.6381757 C17.5536665,34.2769555 17.5536665,33.6913023 17.1571824,33.3300821 C15.6370939,31.9445181 13.1631598,31.9445181 11.6428176,33.3300821 Z" id="Path"></path>
                    <circle id="Oval" cx="34.0363636" cy="33.1636364" r="1.74545455"></circle>
                </g>
            </g>
        </g>
    </g>
</svg>
