<?xml version="1.0" encoding="UTF-8"?>
<svg width="48px" height="56px" viewBox="0 0 48 56" version="1.1" xmlns="http://www.w3.org/2000/svg" xmlns:xlink="http://www.w3.org/1999/xlink">
    <title>face4</title>
    <g id="Products" stroke="none" stroke-width="1" fill="none" fill-rule="evenodd" opacity="0.5">
        <g id="Homepage-Copy" transform="translate(-766.000000, -5132.000000)" fill="#000000" fill-rule="nonzero">
            <g id="Group-4" transform="translate(212.238277, 5077.985347)">
                <g id="Group-2" transform="translate(134.761723, 54.782419)">
                    <g id="face4" transform="translate(419.000000, 0.000000)">
                        <path d="M27.6575477,41.6587684 C25.6611662,43.6551499 22.412861,43.6551499 20.4166104,41.6587684 C20.0080218,41.2501798 19.3455695,41.2501798 18.9369809,41.6587684 C18.5282616,42.0673569 18.5282616,42.7298093 18.9369809,43.1383978 C20.3431063,44.5445232 22.1901253,45.2475204 24.0371444,45.2475204 C25.8841635,45.2475204 27.7311826,44.5445232 29.1373079,43.1383978 C29.5460272,42.7298093 29.5460272,42.0673569 29.1373079,41.6587684 C28.7287193,41.2501798 28.0661362,41.2501798 27.6575477,41.6587684 Z" id="Path"></path>
                        <path d="M47.7152698,52.0391935 C45.2642616,49.3250354 45.160545,42.4091117 45.4506376,35.2533188 C46.5182779,34.2505504 47.187139,32.8278147 47.187139,31.2510082 C47.187139,29.8663324 46.6710409,28.6006757 45.8226049,27.6334823 C46.179139,20.3348665 46.3682616,15.4540381 44.0531444,10.9472698 C42.4737221,7.87213079 39.9180817,5.30275749 36.4573733,3.31056131 C32.4239346,0.988773842 27.8229973,-0.15093188 23.1514332,0.0160871935 C19.0480218,0.162310627 15.2277711,2.07407084 12.5933951,5.28170027 C9.19180381,5.4840327 6.09743869,7.33523706 4.43261035,10.1964033 C4.28965668,10.4420272 4.15141144,10.6945831 4.02166757,10.947139 C1.70524251,15.4563924 1.89423433,20.3368283 2.25076839,27.6346594 C1.40285559,28.6017221 0.887280654,29.8668556 0.887280654,31.2510082 C0.887280654,32.8272916 1.55561853,34.2496349 2.62273569,35.2524033 C2.91282834,42.4087193 2.80911172,49.3251662 0.358103542,52.0393243 C0.126343324,52.2959346 0.036359673,52.6506376 0.117711172,52.9867684 C0.19906267,53.3228992 0.441286104,53.5971662 0.764730245,53.719455 C3.52348774,54.7618529 6.19526975,55.1346049 8.6066485,55.1346049 C11.111673,55.1346049 13.3356294,54.7320327 15.0815477,54.2598801 C18.1152262,53.439564 20.2549537,52.2880872 20.9850245,51.8631499 C21.9786376,52.0268992 22.9978856,52.1136131 24.0371444,52.1136131 C25.0761417,52.1136131 26.0951281,52.02703 27.0884796,51.8632807 C27.8186812,52.2883488 29.9582779,53.439564 32.9916948,54.2598801 C35.3206757,54.8896349 37.4797602,55.1359128 39.4329809,55.1359128 C42.6866485,55.1359128 45.3685014,54.4522725 47.3085123,53.7191935 C47.6320872,53.5969046 47.8741798,53.3227684 47.9555313,52.9865068 C48.0370136,52.6505068 47.94703,52.2959346 47.7152698,52.0391935 Z M42.7401417,33.4107466 L42.7401417,28.2164142 C42.7404033,28.2026812 42.7404033,28.1888174 42.7401417,28.1749537 L42.7401417,28.015782 C44.1046757,28.4582452 45.0943651,29.7409046 45.0943651,31.2508774 C45.0943651,32.7728828 44.0892425,34.0645668 42.7078365,34.4969591 C42.7285014,34.1374169 42.7401417,33.7755204 42.7401417,33.4107466 Z M5.88307357,11.903346 C5.99620708,11.6832262 6.11666485,11.4629755 6.2413079,11.2488719 C7.61944414,8.88039237 10.2552589,7.38886104 13.1200872,7.35629428 C13.1233569,7.35629428 13.1312044,7.35616349 13.1346049,7.3560327 C13.4524251,7.3493624 13.749842,7.1986921 13.9432807,6.94652861 C16.2013733,4.00100272 19.5847847,2.23716621 23.2259837,2.10729155 C27.5053079,1.9546594 31.7197602,2.99797275 35.4131444,5.12409809 C38.5187575,6.91186921 40.799346,9.19271935 42.1914768,11.903346 C44.0445123,15.5105395 44.0994441,19.434376 43.7956185,26.1764796 C43.4592262,26.0366649 43.1060926,25.9298093 42.7401417,25.8587902 L42.7401417,24.794812 C42.7401417,24.2169809 42.2716512,23.7484905 41.6938202,23.7484905 C41.1159891,23.7484905 40.6474986,24.2169809 40.6474986,24.794812 L40.6474986,27.171139 C26.2345504,27.325079 18.4321308,20.3828665 16.3502125,18.2108338 C16.1052425,17.9552698 15.7476621,17.8409591 15.4002834,17.9067466 C15.0525123,17.9725341 14.7616349,18.2096567 14.6270518,18.5370245 C13.1066158,22.2355095 10.4501362,24.1705504 6.26720436,24.626485 C5.73632698,24.6842943 5.33427793,25.1326431 5.33427793,25.6666594 L5.33427793,25.8586594 C4.9679346,25.9296785 4.61440872,26.0366649 4.27775477,26.1767411 C3.97379837,19.4362071 4.02912262,15.5125014 5.88307357,11.903346 Z M5.36645232,34.4970899 C3.98504632,34.0646975 2.97992371,32.7730136 2.97992371,31.2510082 C2.97992371,29.7409046 3.96961308,28.4582452 5.33414714,28.0159128 L5.33414714,33.4107466 C5.33414714,33.7755204 5.34578747,34.1374169 5.36645232,34.4970899 Z M2.81041962,52.2039891 C4.67627248,49.019248 4.99984741,43.7249918 4.76259401,36.5006649 C5.04039237,36.5864632 5.32786921,36.6497657 5.62240872,36.6905722 C6.81246866,43.3905613 11.5822561,48.8677929 17.8767956,51.0700381 C14.8493951,52.3727084 9.11947684,54.0988774 2.81041962,52.2039891 Z M24.0371444,50.02097 C14.8781689,50.02097 7.42679019,42.5695913 7.42679019,33.4106158 L7.42679019,26.5798365 C11.3510191,25.9341253 14.1448283,24.0023542 15.9158583,20.7061798 C17.423346,22.0814387 19.860752,23.967564 23.2958256,25.6206213 C28.4607302,28.106158 34.2935804,29.3320545 40.6474986,29.2641744 L40.6474986,33.4106158 C40.6474986,42.5697221 33.1961199,50.02097 24.0371444,50.02097 Z M33.6068011,52.258267 C32.2651553,51.8996403 31.1075313,51.4663324 30.1937003,51.071346 C36.4902016,48.8701471 41.2616894,43.392 42.4520109,36.6905722 C42.7462888,36.6497657 43.0333733,36.586594 43.3109101,36.5009264 C43.0735259,43.7261689 43.39697,49.0204251 45.2637384,52.2050354 C41.5685232,53.3213297 37.6539728,53.3401635 33.6068011,52.258267 Z" id="Shape"></path>
                        <path d="M11.5309864,30.309842 C11.122267,30.7184305 11.122267,31.3808828 11.5309864,31.7894714 C11.9395749,32.1980599 12.6020272,32.1980599 13.0106158,31.7894714 C13.6813079,31.1190409 14.7723597,31.1189101 15.4430518,31.7894714 C15.647346,31.9937657 15.9150736,32.0959128 16.1829319,32.0959128 C16.4507902,32.0959128 16.7185177,31.9937657 16.922812,31.7894714 C17.3315313,31.3808828 17.3315313,30.7184305 16.922812,30.309842 C15.4363815,28.8232807 13.0174169,28.8231499 11.5309864,30.309842 Z" id="Path"></path>
                        <path d="M36.5434332,31.7894714 C36.9521526,31.3808828 36.9521526,30.7184305 36.5434332,30.309842 C35.0568719,28.8232807 32.6380381,28.8232807 31.1516076,30.309842 C30.7428883,30.7184305 30.7428883,31.3808828 31.1516076,31.7894714 C31.5601962,32.1980599 32.2226485,32.1980599 32.6312371,31.7894714 C33.3019292,31.1189101 34.3931117,31.1190409 35.063673,31.7894714 C35.2679673,31.9937657 35.5356948,32.0959128 35.8035531,32.0959128 C36.0714114,32.0959128 36.339139,31.9937657 36.5434332,31.7894714 Z" id="Path"></path>
                    </g>
                </g>
            </g>
        </g>
    </g>
</svg>