<?xml version="1.0" encoding="UTF-8"?>
<svg width="48px" height="52px" viewBox="0 0 48 52" version="1.1" xmlns="http://www.w3.org/2000/svg" xmlns:xlink="http://www.w3.org/1999/xlink">
    <title>face6</title>
    <g id="Products" stroke="none" stroke-width="1" fill="none" fill-rule="evenodd" opacity="0.5">
        <g id="Homepage-Copy" transform="translate(-1046.000000, -5170.000000)" fill="#000000" fill-rule="nonzero">
            <g id="Group-4" transform="translate(212.238277, 5077.985347)">
                <g id="Group-2" transform="translate(134.761723, 54.782419)">
                    <g id="face6" transform="translate(699.000000, 38.000000)">
                        <path d="M12.2578153,27.2903194 C11.9141166,27.6815292 11.9140065,28.3154768 12.2578153,28.7066866 C12.4297748,28.902354 12.6548733,29 12.8801918,29 C13.1054003,29 13.3307189,28.9022289 13.5025683,28.7066866 C14.3282595,27.767032 15.6719193,27.7671572 16.4975005,28.7066866 C16.8411993,29.0977711 17.3984446,29.0977711 17.7421434,28.7066866 C18.0859522,28.315602 18.0859522,27.6815292 17.7421434,27.2904446 C16.2300448,25.5698727 13.769804,25.5698727 12.2578153,27.2903194 Z" id="Path"></path>
                        <path d="M16.4974317,35.2933573 C15.6717405,36.2328769 14.3280807,36.2328769 13.5024995,35.2933573 C13.1588007,34.9022768 12.6015554,34.9022768 12.2578566,35.2933573 C11.9140478,35.6844378 11.9140478,36.318504 12.2578566,36.7095845 C13.0140159,37.5699867 14.0068258,38 14.9999656,38 C15.9928854,38 16.9862454,37.5697363 17.7421847,36.7095845 C18.0858834,36.318504 18.0859935,35.6844378 17.7421847,35.2933573 C17.3984859,34.9021516 16.8412406,34.9022768 16.4974317,35.2933573 Z" id="Path"></path>
                        <path d="M34.4974902,35.2933573 C33.6717933,36.2328769 32.3282342,36.2328769 31.5025373,35.2933573 C31.1588362,34.9021516 30.601587,34.9022768 30.2577759,35.2933573 C29.9140747,35.684563 29.9140747,36.318504 30.2577759,36.7095845 C31.0138304,37.5698615 32.0068671,38 33.0000138,38 C33.9931604,38 34.9861971,37.5698615 35.7421416,36.7095845 C36.0859528,36.318504 36.0859528,35.6844378 35.7421416,35.2933573 C35.3984405,34.9022768 34.8411913,34.9022768 34.4974902,35.2933573 Z" id="Path"></path>
                        <path d="M31.5024892,28.7066758 C32.3281747,27.7671121 33.6717153,27.7671121 34.4974008,28.7066758 C34.669249,28.9022253 34.894456,29 35.119773,29 C35.34509,29 35.570297,28.9022253 35.7421452,28.7066758 C36.0859516,28.315577 36.0859516,27.681481 35.7421452,27.2903821 C34.230167,25.5698726 31.7699431,25.5698726 30.2578548,27.2903821 C29.9140484,27.681481 29.9140484,28.315577 30.2578548,28.7066758 C30.6015513,29.0977747 31.1587927,29.0977747 31.5024892,28.7066758 Z" id="Path"></path>
                        <circle id="Oval" cx="15.5" cy="32.5" r="1.5"></circle>
                        <circle id="Oval" cx="32.5" cy="32.5" r="1.5"></circle>
                        <path d="M48,25.9618477 C48,24.6171001 47.4150568,23.3675139 46.4523854,22.5093629 C47.3542881,21.6578793 47.8880894,20.457268 47.8880894,19.152767 C47.8880894,17.7806224 47.2924365,16.5123677 46.2845195,15.6488828 C46.6241019,14.9948745 46.8050841,14.2638884 46.8050841,13.5158096 C46.8050841,11.5485721 45.5839354,9.86245514 43.8479982,9.20444644 C44.0128557,8.72500201 44.0975708,8.21816075 44.0975708,7.6982272 C44.0975708,5.1582021 42.0462383,3.09168141 39.5248815,3.09168141 C39.2994961,3.09168141 39.0761563,3.10804677 38.8559452,3.14065627 C38.071007,1.66765264 36.5484219,0.727796079 34.8318584,0.727796079 C33.946321,0.727796079 33.1044649,0.977276901 32.379814,1.44423517 C31.5264058,0.535048506 30.3281205,0 29.0558299,0 C28.1854546,0 27.3433578,0.248957768 26.6177442,0.711430719 C25.8920103,0.249078993 25.0489508,0 24.1774925,0 C24.1174459,0 24.058362,0.00153776928 23.9993983,0.00408349195 C23.0681341,-0.0357994965 22.1562436,0.217681746 21.3814134,0.71118827 C20.6565218,0.248957768 19.8141844,0 18.9429667,0 C17.6699541,0 16.4708265,0.53638198 15.6174183,1.44714457 C14.8901201,0.982732021 14.0382762,0.727796079 13.1669383,0.727796079 C11.4509765,0.727796079 9.92875229,1.66753142 9.14393442,3.14077749 C8.92348266,3.108168 8.7001429,3.09168141 8.47511845,3.09168141 C5.95376169,3.09168141 3.90242924,5.1582021 3.90242924,7.6982272 C3.90242924,8.21876687 3.98702399,8.72560813 4.1516408,9.20456767 C2.41582391,9.86257637 1.19491589,11.5485721 1.19491589,13.5158096 C1.19491589,14.2637672 1.37589812,14.9947533 1.71536012,15.6486403 C0.707443155,16.5118828 0.111910552,17.7800163 0.111910552,19.152767 C0.111910552,20.4575104 0.645591516,21.6580005 1.54725363,22.5093629 C0.584822884,23.3675139 0,24.6169788 0,25.9618477 C0,27.3404172 0.614184362,28.6307349 1.6429191,29.4968867 C1.50044373,29.9667544 1.42318935,30.4649887 1.42318935,30.9811643 C1.42318935,33.4569402 3.18680338,35.5245519 5.51454286,35.9789028 L5.51454286,40.0702428 C5.51454286,42.1922845 6.37998446,44.2761403 7.88909223,45.787451 C9.38412094,47.2845784 11.3479706,48.1013917 13.4092908,48.0899965 C14.7642508,48.0819957 16.0614505,47.7326256 17.2182206,47.0708589 C18.6077164,49.4905077 21.1608413,51 24.0022863,51 C26.843611,51 29.3967359,49.4905077 30.7863521,47.0708589 C31.9431222,47.7325043 33.2403219,48.0818745 34.5952819,48.0899965 C34.6106846,48.0899965 34.6258467,48.0901178 34.6411291,48.0901178 C36.6889719,48.0901178 38.6315225,47.2734257 40.1153601,45.7873298 C41.6243476,44.2761403 42.4897892,42.1922845 42.4897892,40.0702428 L42.4897892,35.9789028 C44.8175286,35.5246731 46.5811427,33.4569402 46.5811427,30.9811643 C46.5811427,30.4634128 46.5035273,29.9637238 46.3603299,29.4926439 C47.3868986,28.6268557 48,27.3379927 48,25.9618477 Z M3.34853218,30.9811643 C3.34853218,29.4972504 4.37209256,28.2503312 5.74510266,27.9173264 C5.60274762,29.9364482 5.52657625,31.9593279 5.51731054,33.9806317 C4.26030234,33.5713765 3.34853218,32.3817966 3.34853218,30.9811643 Z M40.5644463,40.0702428 C40.5644463,41.6796244 39.9059791,43.2620941 38.7578731,44.411791 C37.6292612,45.542213 36.1597433,46.1575506 34.606473,46.1503983 C33.2854471,46.1426399 32.0372233,45.7046544 30.9964552,44.8839619 C30.757472,44.6955784 30.4442428,44.6316929 30.1512297,44.7115801 C29.8582166,44.7915885 29.6199554,45.0060354 29.5081652,45.2903077 C28.607225,47.5804883 26.4459074,49.0604018 24.0020457,49.0604018 C21.5580636,49.0604018 19.396746,47.5804883 18.4959262,45.2903077 C18.384136,45.0060354 18.1457545,44.7915885 17.8527414,44.7115801 C17.7697109,44.6889111 17.6851162,44.6777584 17.6010028,44.6777584 C17.3882524,44.6777584 17.1788714,44.7487961 17.0075159,44.8838407 C15.9668681,45.7045332 14.7185239,46.1425187 13.3976184,46.1502771 C11.8456717,46.1574294 10.3749505,45.5420918 9.24621826,44.411791 C8.09811226,43.2620941 7.43964501,41.6795032 7.43964501,40.0702428 L7.43964501,34.4020094 C7.43964501,28.3918007 8.04384166,22.3603775 9.23598987,16.4700602 C10.0588333,17.8668133 11.5412269,18.7235096 13.1671789,18.7235096 C14.0379152,18.7235096 14.8893981,18.4685737 15.6168167,18.0041611 C16.4703452,18.9149237 17.6697135,19.4507377 18.9428464,19.4507377 C19.8132217,19.4507377 20.6554388,19.2022267 21.3809321,18.7399962 C22.1065457,19.2022267 22.9496052,19.4507377 23.8215448,19.4507377 C23.8811101,19.4507377 23.9403144,19.4494043 23.9993983,19.4469798 C24.058362,19.4494043 24.1175662,19.4507377 24.1771315,19.4507377 C25.0490712,19.4507377 25.8921307,19.2022267 26.6178646,18.739875 C27.3432375,19.2021055 28.185575,19.4507377 29.0559503,19.4507377 C30.3292035,19.4507377 31.5283311,18.915045 32.38198,18.0041611 C33.1093986,18.4685737 33.9610018,18.7235096 34.8317381,18.7235096 C36.4580511,18.7235096 37.9404447,17.8665709 38.7632881,16.469454 C39.9584447,22.3669237 40.5644463,28.4064689 40.5644463,34.4246785 L40.5644463,40.0702428 L40.5644463,40.0702428 Z M42.4869012,33.9807529 C42.4771541,31.9593279 42.4003811,29.936327 42.2575447,27.917084 C43.6313971,28.2494826 44.6556795,29.4967655 44.6556795,30.9812855 C44.6557998,32.3819179 43.7439093,33.5714977 42.4869012,33.9807529 Z M42.0952142,25.9228133 C41.780541,22.5197883 41.2789892,19.1336134 40.5907995,15.7928979 C40.4408634,15.0653062 39.8507458,14.501368 39.1236882,14.3898411 C39.1032315,14.3866892 39.0826544,14.3832949 39.0619569,14.3796582 C38.3027702,14.2448561 37.5483968,14.6305937 37.184868,15.3391532 C36.7278398,16.2303986 35.8260573,16.7839114 34.8317381,16.7839114 C34.0974605,16.7839114 33.4144451,16.4871529 32.9086816,15.948187 C32.6980972,15.723921 32.3943744,15.6137275 32.0901702,15.6521558 C31.7860864,15.6903417 31.5182231,15.8720578 31.3687683,16.1416619 C30.9004287,16.986357 30.0142897,17.5111395 29.0560706,17.5111395 C28.393512,17.5111395 27.7587505,17.2616587 27.2687508,16.8087625 C26.900529,16.468363 26.3349595,16.4684842 25.966858,16.809005 C25.4773396,17.2617799 24.8417358,17.5111395 24.1772519,17.5111395 C24.1330893,17.5111395 24.0892878,17.5096848 24.0454862,17.507624 C24.0146807,17.5061693 23.9839956,17.5061693 23.9534308,17.507624 C23.9098699,17.5096848 23.865948,17.5111395 23.8217855,17.5111395 C23.1573015,17.5111395 22.521818,17.2617799 22.0322996,16.809005 C21.6640778,16.468363 21.098388,16.468363 20.7302865,16.8087625 C20.2402868,17.2616587 19.6055253,17.5111395 18.9429667,17.5111395 C17.9847477,17.5111395 17.0984883,16.986357 16.630269,16.1416619 C16.4809346,15.8720578 16.2130713,15.6903417 15.9089874,15.6521558 C15.6050239,15.6137275 15.3009401,15.723921 15.0903557,15.948187 C14.5844719,16.4870317 13.9015769,16.7839114 13.1672993,16.7839114 C12.17298,16.7839114 11.2713179,16.2302773 10.8141693,15.339032 C10.4507609,14.6305937 9.69650781,14.2452198 8.93611773,14.3797794 C8.9165033,14.3832949 8.89676853,14.386568 8.8771541,14.3895986 C8.14829151,14.501368 7.55817393,15.0656698 7.40823786,15.7949588 L7.40414651,15.8147184 C6.71908546,19.1482816 6.21994033,22.527183 5.90683146,25.9230558 C4.57834491,26.074102 3.40424678,26.7453242 2.59103011,27.730034 C2.16889869,27.2492561 1.92522249,26.6228871 1.92522249,25.9618477 C1.92522249,24.8367596 2.63206398,23.8270775 3.68390283,23.4495832 C4.06187169,23.3139325 4.31661862,22.9563191 4.32335732,22.5522765 C4.33009602,22.1481127 4.08726215,21.7821348 3.71398631,21.6338768 C2.69535962,21.2292281 2.03713304,20.2553073 2.03713304,19.152767 C2.03713304,18.1444183 2.59307579,17.2330496 3.4879992,16.7743346 C3.75273384,16.638684 3.94045476,16.3876272 3.99677104,16.0937781 C4.05308732,15.799929 3.97162125,15.4965031 3.77607862,15.2713885 C3.35310487,14.7843069 3.12013838,14.1608473 3.12013838,13.5158096 C3.12013838,12.0912959 4.2257665,10.9214758 5.63716313,10.85262 C5.99347188,10.8351636 6.31115345,10.6205956 6.4624132,10.2951068 C6.61367294,9.96949672 6.57384241,9.58642607 6.35892602,9.29960798 C6.01140164,8.83592278 5.82765173,8.28216749 5.82765173,7.6982272 C5.82765173,6.22764807 7.01522726,5.03127964 8.47499812,5.03127964 C8.78642232,5.03127964 9.09170949,5.08534594 9.38243626,5.19202384 C9.63092582,5.28342741 9.90600918,5.26754695 10.142706,5.14826166 C10.3794028,5.02909759 10.5568954,4.81695404 10.6335481,4.56177564 C10.9684374,3.44638544 12.0101682,2.66751553 13.1669383,2.66751553 C13.9019379,2.66751553 14.5850736,2.96427406 15.0904761,3.50323991 C15.3010604,3.72774841 15.6046629,3.83830551 15.9092281,3.79951354 C16.2134323,3.7613277 16.4812956,3.57949037 16.6307503,3.30988622 C17.0989696,2.46494874 17.984868,1.94016619 18.9428464,1.94016619 C19.6062473,1.94016619 20.2406478,2.18940457 20.7293239,2.6420583 C21.0974254,2.98294269 21.6634761,2.98306391 22.031698,2.64266443 C22.5216977,2.18964702 23.1576625,1.94016619 23.8223871,1.94016619 C23.8618567,1.94016619 23.9013262,1.94089354 23.9407957,1.94331804 C23.9799042,1.94574254 24.0188924,1.94574254 24.05764,1.94331804 C24.0973501,1.94089354 24.13694,1.94016619 24.1773722,1.94016619 C24.8413748,1.94016619 25.4768583,2.18976824 25.9669784,2.64266443 C26.3352002,2.98306391 26.9006493,2.98306391 27.2686304,2.64266443 C27.7586302,2.18964702 28.3932713,1.94016619 29.0557096,1.94016619 C30.0145303,1.94016619 30.90091,2.46519119 31.3691293,3.31000744 C31.5185841,3.57961159 31.7864474,3.76144893 32.0906516,3.79963477 C32.3949761,3.83842673 32.6989396,3.72774841 32.9094036,3.50336114 C33.4149264,2.96439528 34.0975808,2.66763675 34.8317381,2.66763675 C36.0075209,2.66763675 37.0260272,3.42892906 37.3663316,4.56189687 C37.4429843,4.81719649 37.6207175,5.02946127 37.857655,5.14862533 C38.0945925,5.26791062 38.3697962,5.28330618 38.6184061,5.19190262 C38.9074482,5.08546716 39.2124947,5.03140086 39.5248815,5.03140086 C40.9846524,5.03140086 42.1722279,6.22776929 42.1722279,7.69834842 C42.1722279,8.28107646 41.9882374,8.83507421 41.6402316,9.300699 C41.4257966,9.58763832 41.3863271,9.97058774 41.5377071,10.2957129 C41.6890872,10.6209593 42.0065281,10.8352849 42.3625962,10.85262 C43.7739928,10.921597 44.8796209,12.0914172 44.8796209,13.5158096 C44.8796209,14.1608473 44.6466545,14.7844281 44.2236807,15.2713885 C44.0281381,15.4965031 43.9467923,15.799929 44.0029883,16.0935357 C44.0591842,16.3872636 44.2467848,16.6384415 44.5113991,16.7740922 C45.4065632,17.2332921 45.9626263,18.144782 45.9626263,19.1526457 C45.9626263,20.2548224 45.3042794,21.2287432 44.285412,21.6338768 C43.9122565,21.782256 43.6696633,22.1481127 43.6762817,22.5521553 C43.6829,22.9561979 43.937647,23.31369 44.3154955,23.4493407 C45.367575,23.8273199 46.0744165,24.837002 46.0744165,25.9617265 C46.0744165,26.6213111 45.8312216,27.2464679 45.4102936,27.7266397 C44.5969566,26.7433846 43.4232194,26.0732534 42.0952142,25.9228133 Z" id="Shape"></path>
                        <path d="M27.0970432,39 L19.902844,39 C19.4042484,39 19,39.4489378 19,40.0026529 C19,42.7581936 21.0186462,45 23.5,45 C25.9813538,45 28,42.7581936 28,40.0026529 C27.9998871,39.4489378 27.5957516,39 27.0970432,39 Z M23.5,42.9946943 C22.3309299,42.9946943 21.3334002,42.1634951 20.9613156,41.0053057 L26.0385715,41.0053057 C25.6665998,42.1634951 24.6690701,42.9946943 23.5,42.9946943 Z" id="Shape"></path>
                    </g>
                </g>
            </g>
        </g>
    </g>
</svg>