<?xml version="1.0" encoding="UTF-8"?>
<svg width="38px" height="46px" viewBox="0 0 38 46" version="1.1" xmlns="http://www.w3.org/2000/svg" xmlns:xlink="http://www.w3.org/1999/xlink">
    <title>mac</title>
    <g id="Products" stroke="none" stroke-width="1" fill="none" fill-rule="evenodd">
        <g id="Homepage-Copy" transform="translate(-117.000000, -6419.000000)" fill="#FFFFFF" fill-rule="nonzero">
            <g id="Group-6" transform="translate(89.812699, 6412.377295)">
                <path d="M58.7432078,31.408762 C58.6845199,25.7062631 63.3925865,22.9772799 63.6012543,22.8403416 C60.9570424,18.9767274 56.8423748,18.4452767 55.3719191,18.3865889 C51.8734735,18.0279412 48.5380496,20.4471831 46.7578526,20.4471831 C44.9841766,20.4471831 42.2388912,18.4354954 39.3338446,18.4876623 C35.512616,18.5463501 31.9946078,20.7112783 30.0253057,24.128213 C26.0573576,31.0142495 29.0080503,41.2128868 32.874925,46.804531 C34.7659766,49.5367746 37.0221969,52.604843 39.9794105,52.4972486 C42.8290297,52.3831335 43.9049729,50.651843 47.3512516,50.651843 C50.7975303,50.651843 51.7658791,52.4972486 54.7785201,52.4418213 C57.8465884,52.3831335 59.7865466,49.6541503 61.6612961,46.9153858 C63.8327451,43.7429835 64.726104,40.6683943 64.7815314,40.515154 C64.7098018,40.4760287 58.805156,38.216548 58.7432078,31.408762 Z M53.0765736,14.6859964 C54.6448423,12.7851634 55.7077438,10.137691 55.4175651,7.5 C53.1515636,7.59129215 50.4160595,9.00306004 48.789103,10.9071535 C47.331689,12.5927978 46.0633802,15.2826558 46.4024653,17.8681799 C48.9260412,18.0670664 51.5083049,16.5835689 53.0765736,14.6859964 Z" id="mac"></path>
            </g>
        </g>
    </g>
</svg>