<?xml version="1.0" encoding="UTF-8"?>
<svg width="29px" height="29px" viewBox="0 0 29 29" version="1.1" xmlns="http://www.w3.org/2000/svg" xmlns:xlink="http://www.w3.org/1999/xlink">
    <title>selectors</title>
    <g id="HeroAlive" stroke="none" stroke-width="1" fill="none" fill-rule="evenodd">
        <g id="Artboard" transform="translate(-22.000000, -375.000000)" fill="#000000" fill-rule="nonzero">
            <g id="Group-3" transform="translate(-0.500000, 248.000000)">
                <path d="M26.4648696,149.081571 C28.3377621,149.081571 29.8560415,150.59985 29.8560415,152.472743 C29.8560415,154.345635 28.3377621,155.863915 26.4648696,155.863915 C24.5919771,155.863915 23.0736977,154.345635 23.0736977,152.472743 C23.0736977,150.59985 24.5919771,149.081571 26.4648696,149.081571 Z M47.6825258,149.081571 C49.5554184,149.081571 51.0736977,150.59985 51.0736977,152.472743 C51.0736977,154.345635 49.5554184,155.863915 47.6825258,155.863915 C45.8096333,155.863915 44.291354,154.345635 44.291354,152.472743 C44.291354,150.59985 45.8096333,149.081571 47.6825258,149.081571 Z M42.7179946,151.65243 C42.6740258,151.919524 42.6507837,152.193454 42.6507837,152.472743 C42.6507837,152.752032 42.6740258,153.026016 42.7179946,153.293055 L42.7179946,153.293055 L31.4294008,153.293055 C31.4733696,153.026016 31.4966118,152.752032 31.4966118,152.472743 C31.4966118,152.193454 31.4733696,151.919469 31.4294008,151.65243 L31.4294008,151.65243 Z M27.2851821,136.219618 L27.2851821,147.508211 C27.0180883,147.464243 26.7441587,147.441001 26.4648696,147.441001 C26.1855805,147.441001 25.9115962,147.464243 25.6445571,147.508211 L25.6445571,147.508211 L25.6445571,136.219618 C25.9115962,136.263586 26.1855805,136.286829 26.4648696,136.286829 C26.7441587,136.286829 27.018143,136.263586 27.2851821,136.219618 L27.2851821,136.219618 Z M48.5028383,136.219618 L48.5028383,147.508211 C48.2357993,147.464243 47.9618149,147.441001 47.6825258,147.441001 C47.4032368,147.441001 47.1292524,147.464243 46.8622133,147.508211 L46.8622133,147.508211 L46.8622133,136.219618 C47.1293071,136.263586 47.4032368,136.286829 47.6825258,136.286829 C47.9618149,136.286829 48.2357993,136.263586 48.5028383,136.219618 L48.5028383,136.219618 Z M37.073643,137.763008 C37.5266743,137.763008 37.8939555,138.13029 37.8939555,138.583321 L37.8939555,138.583321 L37.8939555,139.544399 C38.5918227,139.791969 39.1455883,140.34579 39.3931587,141.043602 L39.3931587,141.043602 L40.3542368,141.043602 C40.807268,141.043602 41.1745493,141.410883 41.1745493,141.863915 C41.1745493,142.316946 40.807268,142.684227 40.3542368,142.684227 L40.3542368,142.684227 L39.3931587,142.684227 C39.1455883,143.382094 38.591768,143.93586 37.8939555,144.18343 L37.8939555,144.18343 L37.8939555,145.144508 C37.8939555,145.59754 37.5266743,145.964821 37.073643,145.964821 C36.6206118,145.964821 36.2533305,145.59754 36.2533305,145.144508 L36.2533305,145.144508 L36.2533305,144.18343 C35.5554633,143.93586 35.0016977,143.38204 34.7541274,142.684227 L34.7541274,142.684227 L33.7930493,142.684227 C33.340018,142.684227 32.9727368,142.316946 32.9727368,141.863915 C32.9727368,141.410883 33.340018,141.043602 33.7930493,141.043602 L33.7930493,141.043602 L34.7541274,141.043602 C35.0016977,140.345735 35.555518,139.791969 36.2533305,139.544399 L36.2533305,139.544399 L36.2533305,138.583321 C36.2533305,138.13029 36.6206118,137.763008 37.073643,137.763008 Z M37.0736977,141.04393 C36.6215962,141.04393 36.2537133,141.411813 36.2537133,141.863915 C36.2537133,142.316016 36.6215962,142.683899 37.0736977,142.683899 C37.5257993,142.683899 37.8936821,142.316071 37.8936821,141.863915 C37.8936821,141.411758 37.5257993,141.04393 37.0736977,141.04393 Z M26.4648696,127.863915 C28.3377621,127.863915 29.8560415,129.382194 29.8560415,131.255086 C29.8560415,133.127979 28.3377621,134.646258 26.4648696,134.646258 C24.5919771,134.646258 23.0736977,133.127979 23.0736977,131.255086 C23.0736977,129.382194 24.5919771,127.863915 26.4648696,127.863915 Z M47.6825258,127.863915 C49.5554184,127.863915 51.0736977,129.382194 51.0736977,131.255086 C51.0736977,133.127979 49.5554184,134.646258 47.6825258,134.646258 C45.8096333,134.646258 44.291354,133.127979 44.291354,131.255086 C44.291354,129.382194 45.8096333,127.863915 47.6825258,127.863915 Z M42.7179946,130.434774 C42.6740258,130.701813 42.6507837,130.975797 42.6507837,131.255086 C42.6507837,131.534376 42.6740258,131.80836 42.7179946,132.075399 L42.7179946,132.075399 L31.4294008,132.075399 C31.4733696,131.808305 31.4966118,131.534376 31.4966118,131.255086 C31.4966118,130.975797 31.4733696,130.701813 31.4294008,130.434774 L31.4294008,130.434774 Z" id="selectors"></path>
            </g>
        </g>
    </g>
</svg>