<?xml version="1.0" encoding="UTF-8"?>
<svg width="30px" height="30px" viewBox="0 0 30 30" version="1.1" xmlns="http://www.w3.org/2000/svg" xmlns:xlink="http://www.w3.org/1999/xlink">
    <title>server</title>
    <g id="Products" stroke="none" stroke-width="1" fill="none" fill-rule="evenodd">
        <g id="-" transform="translate(-37.000000, -14.000000)" fill="#B700C0" fill-rule="nonzero">
            <path d="M50.8383989,35.548411 L50.8383989,33.6774489 C50.8383989,32.903806 50.2150301,32.2742273 49.4490182,32.2742273 L49.4490182,31.3387462 C50.2150301,31.3387462 50.8383989,30.7091675 50.8383989,29.9355246 L50.8383989,28.0645625 C50.8383989,27.2909197 50.2150301,26.6613409 49.4490182,26.6613409 L49.4490182,25.7258599 C50.2150301,25.7258599 50.8383989,25.0962811 50.8383989,24.3226383 L50.8383989,22.4516761 C50.8383989,21.6780333 50.2150301,21.0484545 49.4490182,21.0484545 L39.2602265,21.0484545 C38.4942146,21.0484545 37.8708458,21.6780333 37.8708458,22.4516761 L37.8708458,24.3226383 C37.8708458,25.0962811 38.4942146,25.7258599 39.2602265,25.7258599 L39.2602265,26.6613409 C38.4942146,26.6613409 37.8708458,27.2909197 37.8708458,28.0645625 L37.8708458,29.9355246 C37.8708458,30.7091675 38.4942146,31.3387462 39.2602265,31.3387462 L39.2602265,32.2742273 C38.4942146,32.2742273 37.8708458,32.903806 37.8708458,33.6774489 L37.8708458,35.548411 C37.8708458,36.3220538 38.4942146,36.9516326 39.2602265,36.9516326 L49.4490182,36.9516326 C50.2150301,36.9516326 50.8383989,36.3220538 50.8383989,35.548411 Z M38.7970996,24.3226383 L38.7970996,22.4516761 C38.7970996,22.1934834 39.0045804,21.9839356 39.2602265,21.9839356 L49.4490182,21.9839356 C49.7046642,21.9839356 49.9121451,22.1934834 49.9121451,22.4516761 L49.9121451,24.3226383 C49.9121451,24.580831 49.7046642,24.7903788 49.4490182,24.7903788 L39.2602265,24.7903788 C39.0045804,24.7903788 38.7970996,24.580831 38.7970996,24.3226383 Z M40.1864803,25.7258599 L48.5227644,25.7258599 L48.5227644,26.6613409 L40.1864803,26.6613409 L40.1864803,25.7258599 Z M38.7970996,29.9355246 L38.7970996,28.0645625 C38.7970996,27.8063697 39.0045804,27.596822 39.2602265,27.596822 L49.4490182,27.596822 C49.7046642,27.596822 49.9121451,27.8063697 49.9121451,28.0645625 L49.9121451,29.9355246 C49.9121451,30.1937174 49.7046642,30.4032652 49.4490182,30.4032652 L39.2602265,30.4032652 C39.0045804,30.4032652 38.7970996,30.1937174 38.7970996,29.9355246 Z M40.1864803,31.3387462 L48.5227644,31.3387462 L48.5227644,32.2742273 L40.1864803,32.2742273 L40.1864803,31.3387462 Z M38.7970996,35.548411 L38.7970996,33.6774489 C38.7970996,33.4192561 39.0045804,33.2097083 39.2602265,33.2097083 L49.4490182,33.2097083 C49.7046642,33.2097083 49.9121451,33.4192561 49.9121451,33.6774489 L49.9121451,35.548411 C49.9121451,35.8066038 49.7046642,36.0161515 49.4490182,36.0161515 L39.2602265,36.0161515 C39.0045804,36.0161515 38.7970996,35.8066038 38.7970996,35.548411 Z M66.5847134,24.3226383 L66.5847134,22.4516761 C66.5847134,21.6780333 65.9613446,21.0484545 65.1953327,21.0484545 L55.006541,21.0484545 C54.2405291,21.0484545 53.6171603,21.6780333 53.6171603,22.4516761 L53.6171603,24.3226383 C53.6171603,25.0962811 54.2405291,25.7258599 55.006541,25.7258599 L55.006541,26.6613409 C54.2405291,26.6613409 53.6171603,27.2909197 53.6171603,28.0645625 L53.6171603,29.9355246 C53.6171603,30.7091675 54.2405291,31.3387462 55.006541,31.3387462 L55.006541,32.2742273 C54.2405291,32.2742273 53.6171603,32.903806 53.6171603,33.6774489 L53.6171603,35.548411 C53.6171603,36.3220538 54.2405291,36.9516326 55.006541,36.9516326 L65.1953327,36.9516326 C65.9613446,36.9516326 66.5847134,36.3220538 66.5847134,35.548411 L66.5847134,33.6774489 C66.5847134,32.903806 65.9613446,32.2742273 65.1953327,32.2742273 L65.1953327,31.3387462 C65.9613446,31.3387462 66.5847134,30.7091675 66.5847134,29.9355246 L66.5847134,28.0645625 C66.5847134,27.2909197 65.9613446,26.6613409 65.1953327,26.6613409 L65.1953327,25.7258599 C65.9613446,25.7258599 66.5847134,25.0962811 66.5847134,24.3226383 Z M54.5434141,24.3226383 L54.5434141,22.4516761 C54.5434141,22.1934834 54.7508949,21.9839356 55.006541,21.9839356 L65.1953327,21.9839356 C65.4509787,21.9839356 65.6584596,22.1934834 65.6584596,22.4516761 L65.6584596,24.3226383 C65.6584596,24.580831 65.4509787,24.7903788 65.1953327,24.7903788 L55.006541,24.7903788 C54.7508949,24.7903788 54.5434141,24.580831 54.5434141,24.3226383 Z M65.6584596,33.6774489 L65.6584596,35.548411 C65.6584596,35.8066038 65.4509787,36.0161515 65.1953327,36.0161515 L55.006541,36.0161515 C54.7508949,36.0161515 54.5434141,35.8066038 54.5434141,35.548411 L54.5434141,33.6774489 C54.5434141,33.4192561 54.7508949,33.2097083 55.006541,33.2097083 L65.1953327,33.2097083 C65.4509787,33.2097083 65.6584596,33.4192561 65.6584596,33.6774489 Z M64.2690789,32.2742273 L55.9327948,32.2742273 L55.9327948,31.3387462 L64.2690789,31.3387462 L64.2690789,32.2742273 Z M65.6584596,28.0645625 L65.6584596,29.9355246 C65.6584596,30.1937174 65.4509787,30.4032652 65.1953327,30.4032652 L55.006541,30.4032652 C54.7508949,30.4032652 54.5434141,30.1937174 54.5434141,29.9355246 L54.5434141,28.0645625 C54.5434141,27.8063697 54.7508949,27.596822 55.006541,27.596822 L65.1953327,27.596822 C65.4509787,27.596822 65.6584596,27.8063697 65.6584596,28.0645625 Z M64.2690789,26.6613409 L55.9327948,26.6613409 L55.9327948,25.7258599 L64.2690789,25.7258599 L64.2690789,26.6613409 Z M58.0238127,14.5585547 C58.1706239,14.4767001 58.3503172,14.480442 58.4938865,14.5711837 L62.1989017,16.9098863 C62.3341347,16.9954829 62.4165713,17.1451598 62.4165713,17.3065303 C62.4165713,17.4679008 62.3341347,17.6175778 62.1989017,17.7031743 L58.4938865,20.0418769 C58.4188599,20.0891187 58.3341077,20.1129735 58.2484292,20.1129735 C58.1710871,20.1129735 58.0937449,20.0933284 58.0242758,20.0545059 C57.8765383,19.9717158 57.7853023,19.8150228 57.7853023,19.645233 L57.7853023,18.7097519 L43.4283685,18.7097519 L43.4283685,17.7742708 L58.2484292,17.7742708 C58.5045384,17.7742708 58.7115561,17.9833509 58.7115561,18.2420114 L58.7115561,18.8009613 L61.079524,17.3065303 L58.7115561,15.8120993 L58.7115561,16.3710492 C58.7115561,16.6297098 58.5045384,16.8387898 58.2484292,16.8387898 L42.5021147,16.8387898 L42.5021147,15.9033087 L57.7853023,15.9033087 L57.7853023,14.9678277 C57.7853023,14.7980378 57.8765383,14.6413448 58.0238127,14.5585547 Z M42.5021147,17.7742708 L42.5021147,18.7097519 L41.575861,18.7097519 L41.575861,17.7742708 L42.5021147,17.7742708 Z M45.9612095,37.9582102 C46.1043158,37.8674685 46.2849352,37.8637266 46.4312833,37.9455812 C46.5790208,38.0283713 46.6702568,38.1850644 46.6702568,38.3548542 L46.6702568,39.2903352 L61.0271906,39.2903352 L61.0271906,40.2258163 L46.2071299,40.2258163 C45.9510208,40.2258163 45.744003,40.0167363 45.744003,39.7580758 L45.744003,39.1991258 L43.3760352,40.6935568 L45.744003,42.1879878 L45.744003,41.6290379 C45.744003,41.3703774 45.9510208,41.1612973 46.2071299,41.1612973 L61.9534444,41.1612973 L61.9534444,42.0967784 L46.6702568,42.0967784 L46.6702568,43.0322595 C46.6702568,43.2020493 46.5790208,43.3587424 46.4312833,43.4415324 C46.3618143,43.4803549 46.2844721,43.5 46.2071299,43.5 C46.1214514,43.5 46.0366992,43.4761452 45.9616727,43.4289034 L42.2566575,41.0902008 C42.1214244,41.0046043 42.0389879,40.8549273 42.0389879,40.6935568 C42.0389879,40.5321863 42.1214244,40.3825094 42.2561944,40.2969128 Z M62.8796982,39.2903352 L62.8796982,40.2258163 L61.9534444,40.2258163 L61.9534444,39.2903352 L62.8796982,39.2903352 Z M63.805952,39.2903352 L64.7322058,39.2903352 L64.7322058,40.2258163 L63.805952,40.2258163 L63.805952,39.2903352 Z M39.7233534,17.7742708 L40.6496072,17.7742708 L40.6496072,18.7097519 L39.7233534,18.7097519 L39.7233534,17.7742708 Z" id="server"></path>
        </g>
    </g>
</svg>