<?xml version="1.0" encoding="UTF-8"?>
<svg width="194px" height="95px" viewBox="0 0 194 95" version="1.1" xmlns="http://www.w3.org/2000/svg" xmlns:xlink="http://www.w3.org/1999/xlink">
    <title>databox</title>
    <defs>
        <linearGradient x1="50%" y1="0%" x2="50%" y2="100%" id="linearGradient-1">
            <stop stop-color="#EEEEEE" offset="0%"></stop>
            <stop stop-color="#FFFFFF" offset="50.0298773%"></stop>
            <stop stop-color="#D8D8D8" offset="100%"></stop>
        </linearGradient>
        <linearGradient x1="0%" y1="50%" x2="100%" y2="50%" id="linearGradient-2">
            <stop stop-color="#000000" stop-opacity="0" offset="0%"></stop>
            <stop stop-color="#000000" offset="100%"></stop>
        </linearGradient>
        <linearGradient x1="50%" y1="0%" x2="50%" y2="100%" id="linearGradient-3">
            <stop stop-color="#EEEEEE" offset="0%"></stop>
            <stop stop-color="#FFFFFF" offset="50.0298773%"></stop>
            <stop stop-color="#D8D8D8" offset="100%"></stop>
        </linearGradient>
        <rect id="path-4" x="0" y="0" width="13.244898" height="22"></rect>
        <rect id="path-6" x="0" y="0" width="13.244898" height="22"></rect>
    </defs>
    <g id="Products" stroke="none" stroke-width="1" fill="none" fill-rule="evenodd">
        <g id="Homepage-Copy-8" transform="translate(-452.000000, -1106.000000)">
            <g id="Group-6" transform="translate(191.500000, 1092.500000)">
                <g id="databox" transform="translate(261.162209, 14.523200)">
                    <path d="M139.875423,12.5962904 C142.985534,12.5962904 145.506776,15.117533 145.506776,18.2276434 C145.506776,21.3377538 142.985534,23.8589964 139.875423,23.8589964 C136.765313,23.8589964 134.24407,21.3377538 134.24407,18.2276434 C134.24407,15.117533 136.765313,12.5962904 139.875423,12.5962904 Z M139.875423,14.4988543 C137.81607,14.4988543 136.146634,16.16829 136.146634,18.2276434 C136.146634,20.2869968 137.81607,21.9564325 139.875423,21.9564325 C141.934777,21.9564325 143.604212,20.2869968 143.604212,18.2276434 C143.604212,16.16829 141.934777,14.4988543 139.875423,14.4988543 Z" id="Oval" fill="#000000" fill-rule="nonzero"></path>
                    <polygon id="Line" fill="#000000" fill-rule="nonzero" points="54.8232956 20.6092276 54.8232956 22.5117915 48.2461703 22.5117915 48.2461703 20.6092276"></polygon>
                    <polygon id="Line" fill="#000000" fill-rule="nonzero" points="64.2002927 20.6092276 64.2002927 22.5117915 57.6231674 22.5117915 57.6231674 20.6092276"></polygon>
                    <polygon id="Line" fill="#000000" fill-rule="nonzero" points="81.7461703 20.6092276 81.7461703 22.5117915 67.991186 22.5117915 67.991186 20.6092276"></polygon>
                    <polygon id="Line" fill="#000000" fill-rule="nonzero" points="78.7494924 15.9213295 78.7494924 17.8238934 48.2461703 17.8238934 48.2461703 15.9213295"></polygon>
                    <g id="DATABOX" transform="translate(68.157640, 73.310573)" fill="#404040" fill-rule="nonzero" opacity="0.244471959">
                        <path d="M3.13923032,8.97664207 L0,8.97664207 L0,0.121072244 L3.16517437,0.121072244 C4.05592016,0.121072244 4.82271104,0.297635932 5.465547,0.65076331 C6.10838296,1.00389069 6.60348196,1.51052037 6.95084399,2.17065237 C7.29820603,2.83078437 7.47188704,3.62063662 7.47188704,4.54020914 C7.47188704,5.46266433 7.29820603,6.25539926 6.95084399,6.91841393 C6.60348196,7.5814286 6.10622096,8.09022029 5.45906099,8.444789 C4.81190102,8.79935771 4.03862413,8.97664207 3.13923032,8.97664207 Z M1.87229577,7.37243484 L3.06139816,7.37243484 C3.61487128,7.37243484 4.08114355,7.27370331 4.46021498,7.07624025 C4.83928641,6.87877718 5.12467098,6.57177256 5.3163687,6.15522639 C5.50806642,5.73868022 5.60391528,5.20034114 5.60391528,4.54020914 C5.60391528,3.88584249 5.50806642,3.35110675 5.3163687,2.93600191 C5.12467098,2.52089707 4.84000708,2.21533379 4.46237698,2.01931207 C4.08474689,1.82329034 3.61919529,1.72527947 3.06572217,1.72527947 L1.87229577,1.72527947 L1.87229577,7.37243484 Z" id="Shape"></path>
                        <path d="M9.70428844,8.97664207 L7.6979484,8.97664207 L10.7550226,0.121072244 L13.1678194,0.121072244 L16.2205696,8.97664207 L14.2142295,8.97664207 L11.9960131,2.14470832 L11.9268289,2.14470832 L9.70428844,8.97664207 Z M9.57889219,5.49581506 L14.3180057,5.49581506 L14.3180057,6.95733001 L9.57889219,6.95733001 L9.57889219,5.49581506 Z" id="Shape"></path>
                        <polygon id="Path" points="15.6751965 1.66474335 15.6751965 0.121072244 22.9481792 0.121072244 22.9481792 1.66474335 20.2370257 1.66474335 20.2370257 8.97664207 18.38635 8.97664207 18.38635 1.66474335"></polygon>
                        <path d="M24.4083037,8.97664207 L22.4019637,8.97664207 L25.4590378,0.121072244 L27.8718347,0.121072244 L30.9245848,8.97664207 L28.9182448,8.97664207 L26.7000283,2.14470832 L26.6308442,2.14470832 L24.4083037,8.97664207 Z M24.2829075,5.49581506 L29.022021,5.49581506 L29.022021,6.95733001 L24.2829075,6.95733001 L24.2829075,5.49581506 Z" id="Shape"></path>
                        <path d="M31.8061347,8.97664207 L31.8061347,0.121072244 L35.3518218,0.121072244 C36.0033058,0.121072244 36.5466896,0.217641771 36.9819731,0.410780827 C37.4172566,0.603919882 37.74444,0.871287754 37.9635231,1.21288444 C38.1826062,1.55448113 38.2921477,1.94724525 38.2921477,2.39117681 C38.2921477,2.73709751 38.2229636,3.04049879 38.0845953,3.30138065 C37.946227,3.5622625 37.7566913,3.77558027 37.5159882,3.94133393 C37.275285,4.1070876 37.0007105,4.2245565 36.6922645,4.29374064 L36.6922645,4.38022082 C37.0295372,4.39463418 37.3459105,4.48976237 37.6413844,4.66560539 C37.9368584,4.84144841 38.1768408,5.08719624 38.3613319,5.40284888 C38.5458229,5.71850151 38.6380684,6.0939696 38.6380684,6.52925314 C38.6380684,6.99912876 38.5220409,7.41783693 38.2899857,7.78537767 C38.0579306,8.15291841 37.7156132,8.44334766 37.2630337,8.65666543 C36.8104541,8.86998319 36.252657,8.97664207 35.5896423,8.97664207 L31.8061347,8.97664207 Z M33.6784304,7.44594299 L35.2048055,7.44594299 C35.7265692,7.44594299 36.107082,7.34577012 36.3463438,7.14542438 C36.5856056,6.94507865 36.7052365,6.67771078 36.7052365,6.34332077 C36.7052365,6.09829361 36.6461418,5.88209317 36.5279522,5.69471946 C36.4097626,5.50734575 36.2418469,5.36032946 36.0242052,5.25367058 C35.8065634,5.14701169 35.5478435,5.09368225 35.2480456,5.09368225 L33.6784304,5.09368225 L33.6784304,7.44594299 Z M33.6784304,3.8267477 L35.0664372,3.8267477 C35.3229951,3.8267477 35.5514469,3.78134561 35.7517926,3.69054143 C35.9521384,3.59973725 36.1106853,3.47073765 36.2274336,3.30354265 C36.3441818,3.13634765 36.4025559,2.93600191 36.4025559,2.70250544 C36.4025559,2.3825288 36.289411,2.12452961 36.0631212,1.92850788 C35.8368315,1.73248615 35.5161341,1.63447529 35.1010293,1.63447529 L33.6784304,1.63447529 L33.6784304,3.8267477 Z" id="Shape"></path>
                        <path d="M47.8096382,4.54885716 C47.8096382,5.51455243 47.6273091,6.33611409 47.2626511,7.01354212 C46.897993,7.69097015 46.4021733,8.20768919 45.7751921,8.56369924 C45.1482108,8.91970929 44.444118,9.09771431 43.6629138,9.09771431 C42.8759442,9.09771431 42.1696895,8.91898862 41.5441495,8.56153724 C40.9186096,8.20408585 40.4242313,7.68664614 40.0610146,7.00921811 C39.6977978,6.33179008 39.5161895,5.51166976 39.5161895,4.54885716 C39.5161895,3.58316188 39.6977978,2.76160023 40.0610146,2.0841722 C40.4242313,1.40674417 40.9186096,0.890025125 41.5441495,0.534015075 C42.1696895,0.178005025 42.8759442,0 43.6629138,0 C44.444118,0 45.1482108,0.178005025 45.7751921,0.534015075 C46.4021733,0.890025125 46.897993,1.40674417 47.2626511,2.0841722 C47.6273091,2.76160023 47.8096382,3.58316188 47.8096382,4.54885716 Z M45.9113983,4.54885716 C45.9113983,3.92331723 45.8184321,3.39578817 45.6324998,2.96626997 C45.4465674,2.53675177 45.1849649,2.21100978 44.8476922,1.989044 C44.5104195,1.76707822 44.1154934,1.65609533 43.6629138,1.65609533 C43.2103342,1.65609533 42.8154081,1.76707822 42.4781354,1.989044 C42.1408627,2.21100978 41.8792602,2.53675177 41.6933278,2.96626997 C41.5073955,3.39578817 41.4144293,3.92331723 41.4144293,4.54885716 C41.4144293,5.17439708 41.5073955,5.70192615 41.6933278,6.13144434 C41.8792602,6.56096254 42.1408627,6.88670453 42.4781354,7.10867031 C42.8154081,7.33063609 43.2103342,7.44161898 43.6629138,7.44161898 C44.1154934,7.44161898 44.5104195,7.33063609 44.8476922,7.10867031 C45.1849649,6.88670453 45.4465674,6.56096254 45.6324998,6.13144434 C45.8184321,5.70192615 45.9113983,5.17439708 45.9113983,4.54885716 Z" id="Shape"></path>
                        <polygon id="Path" points="50.3602807 0.121072244 52.1460963 3.13923032 52.2152804 3.13923032 54.009744 0.121072244 56.1241843 0.121072244 53.4216788 4.54885716 56.1847204 8.97664207 54.0313641 8.97664207 52.2152804 5.95415999 52.1460963 5.95415999 50.3300126 8.97664207 48.1853043 8.97664207 50.9569939 4.54885716 48.2371924 0.121072244"></polygon>
                    </g>
                    <path d="M160.5,0 L160.5,92 L32,92 L32,0 L160.5,0 Z M158.161615,2.2830766 L34.3380134,2.2830766 L34.3380134,89.7169195 L158.161615,89.7169195 L158.161615,2.2830766 Z" id="Rectangle" stroke="#000000" stroke-width="2" fill="#000000" fill-rule="nonzero"></path>
                    <path d="M69.5031847,31.6433121 L69.5031847,41.0191083 L47.2356688,41.0191083 L47.2356688,31.6433121 L69.5031847,31.6433121 Z M67.6002488,33.5456249 L49.1381499,33.5456249 L49.1381499,39.1163318 L67.6002488,39.1163318 L67.6002488,33.5456249 Z" id="Rectangle" fill="#000000" fill-rule="nonzero"></path>
                    <path d="M94.7006369,31.6433121 L94.7006369,41.0191083 L72.433121,41.0191083 L72.433121,31.6433121 L94.7006369,31.6433121 Z M92.7978042,33.5456249 L74.3353248,33.5456249 L74.3353248,39.1163318 L92.7978042,39.1163318 L92.7978042,33.5456249 Z" id="Rectangle" fill="#000000" fill-rule="nonzero"></path>
                    <path d="M121.070064,31.6433121 L121.070064,41.0191083 L98.8025478,41.0191083 L98.8025478,31.6433121 L121.070064,31.6433121 Z M119.167339,33.5456249 L100.704859,33.5456249 L100.704859,39.1163318 L119.167339,39.1163318 L119.167339,33.5456249 Z" id="Rectangle" fill="#000000" fill-rule="nonzero"></path>
                    <path d="M69.5031847,45.1285982 L69.5031847,54.5043944 L47.2356688,54.5043944 L47.2356688,45.1285982 L69.5031847,45.1285982 Z M67.6002488,47.0309974 L49.1381499,47.0309974 L49.1381499,52.6017043 L67.6002488,52.6017043 L67.6002488,47.0309974 Z" id="Rectangle" fill="#000000" fill-rule="nonzero"></path>
                    <path d="M94.7006369,45.1285982 L94.7006369,54.5043944 L72.433121,54.5043944 L72.433121,45.1285982 L94.7006369,45.1285982 Z M92.7978042,47.0309974 L74.3353248,47.0309974 L74.3353248,52.6017043 L92.7978042,52.6017043 L92.7978042,47.0309974 Z" id="Rectangle" fill="#000000" fill-rule="nonzero"></path>
                    <path d="M121.070064,45.1285982 L121.070064,54.5043944 L98.8025478,54.5043944 L98.8025478,45.1285982 L121.070064,45.1285982 Z M119.167339,47.0309974 L100.704859,47.0309974 L100.704859,52.6017043 L119.167339,52.6017043 L119.167339,47.0309974 Z" id="Rectangle" fill="#000000" fill-rule="nonzero"></path>
                    <path d="M69.5031847,58.0660322 L69.5031847,67.4418284 L47.2356688,67.4418284 L47.2356688,58.0660322 L69.5031847,58.0660322 Z M67.6002488,59.9684314 L49.1381499,59.9684314 L49.1381499,65.5391383 L67.6002488,65.5391383 L67.6002488,59.9684314 Z" id="Rectangle" fill="#000000" fill-rule="nonzero"></path>
                    <path d="M94.7006369,58.0660322 L94.7006369,67.4418284 L72.433121,67.4418284 L72.433121,58.0660322 L94.7006369,58.0660322 Z M92.7978042,59.9684314 L74.3353248,59.9684314 L74.3353248,65.5391383 L92.7978042,65.5391383 L92.7978042,59.9684314 Z" id="Rectangle" fill="#000000" fill-rule="nonzero"></path>
                    <path d="M121.070064,58.0660322 L121.070064,67.4418284 L98.8025478,67.4418284 L98.8025478,58.0660322 L121.070064,58.0660322 Z M119.167339,59.9684314 L100.704859,59.9684314 L100.704859,65.5391383 L119.167339,65.5391383 L119.167339,59.9684314 Z" id="Rectangle" fill="#000000" fill-rule="nonzero"></path>
                    <path d="M147.070064,31.6433121 L147.070064,41.0191083 L124.802548,41.0191083 L124.802548,31.6433121 L147.070064,31.6433121 Z M145.167339,33.5456249 L126.704859,33.5456249 L126.704859,39.1163318 L145.167339,39.1163318 L145.167339,33.5456249 Z" id="Rectangle" fill="#000000" fill-rule="nonzero"></path>
                    <path d="M147.070064,45.1285982 L147.070064,54.5043944 L124.802548,54.5043944 L124.802548,45.1285982 L147.070064,45.1285982 Z M145.167339,47.0309974 L126.704859,47.0309974 L126.704859,52.6017043 L145.167339,52.6017043 L145.167339,47.0309974 Z" id="Rectangle" fill="#000000" fill-rule="nonzero"></path>
                    <path d="M147.070064,58.0660322 L147.070064,67.4418284 L124.802548,67.4418284 L124.802548,58.0660322 L147.070064,58.0660322 Z M145.167339,59.9684314 L126.704859,59.9684314 L126.704859,65.5391383 L145.167339,65.5391383 L145.167339,59.9684314 Z" id="Rectangle" fill="#000000" fill-rule="nonzero"></path>
                    <path d="M28,65.55 L2,65.55 C0.666666667,60.2916667 0,55.0333333 0,49.775 C0,44.5166667 0.666666667,39.2583333 2,34 L28,34" id="Path" stroke="url(#linearGradient-2)" fill="url(#linearGradient-1)"></path>
                    <polyline id="Path" stroke="#000000" fill="url(#linearGradient-3)" points="165.755776 34.0281012 177.485063 34.0281012 177.485063 29.0281012 192.681112 49.7836198 177.485063 70.5391383 177.485063 65.5391383 165.755776 65.5391383"></polyline>
                    <g id="Group-5" transform="translate(12.868819, 39.170081)">
                        <mask id="mask-5" fill="white">
                            <use xlink:href="#path-4"></use>
                        </mask>
                        <use id="Rectangle" fill="#D8D8D8" xlink:href="#path-4"></use>
                        <g id="Group-4" mask="url(#mask-5)" fill="#000000" fill-rule="nonzero">
                            <g transform="translate(0.797374, 0.417836)">
                                <path d="M9.67158471,0 L9.64139762,0.000740780578 C9.32137212,0.0164824238 9.0663694,0.281129922 9.0663694,0.605215304 L9.06636364,1.21385336 L8.99990952,1.22498232 C8.42428971,1.3218157 7.94535503,1.43903588 7.50761363,1.59121271 L7.43618204,1.61633315 L7.0484691,0.970201833 C6.88772502,0.695480581 6.4801986,0.536503987 6.18102732,0.706536589 L4.4963369,1.71727597 C4.34627428,1.80276685 4.23100721,1.96355957 4.18403508,2.13815411 L4.17619856,2.1705448 C4.14547372,2.31130029 4.15736683,2.45673185 4.23463933,2.58850178 L4.62042707,3.23150011 L4.60795715,3.24209945 C4.26288059,3.53558837 3.95411199,3.83967189 3.66209371,4.17392966 L3.56721577,4.2842741 L2.92656045,3.89991383 L2.89987989,3.88492543 C2.61256033,3.73446103 2.240949,3.88312322 2.07018374,4.13399524 L1.05277109,5.6604345 L1.04261231,5.67641339 C0.960779405,5.81150264 0.954559076,5.95871707 0.98809456,6.09921918 L0.997038339,6.13273079 C1.04602426,6.29959477 1.15838213,6.45483754 1.30560876,6.5440095 L1.94927912,6.93005752 L1.92092248,7.00567586 C1.69533895,7.61493394 1.5638437,8.20349273 1.52404299,8.78725377 L1.5176447,8.89843292 L0.605215304,8.89847368 C0.27118941,8.89847368 0,9.16947593 0,9.50368898 L0,11.5184377 L0.000741280536,11.5486408 C0.0164934229,11.8688263 0.281311406,12.123653 0.605215304,12.123653 L1.55219294,12.123519 L1.58812909,12.3339625 L1.62391177,12.5341302 L1.64712441,12.6572043 L1.67013092,12.7731433 C1.67396282,12.7919273 1.67779713,12.8104554 1.68163934,12.8287485 L1.70483144,12.9358522 C1.70872726,12.9532881 1.71264198,12.9705303 1.71658109,12.9875998 L1.74055251,13.0881088 C1.7446112,13.10457 1.74870528,13.1208999 1.75284025,13.1371192 L1.77818473,13.2332741 L1.80477442,13.3277711 C1.80932447,13.3434378 1.81393739,13.3590768 1.81861869,13.3747091 L1.84757099,13.4685863 C1.85254779,13.4842741 1.85760396,13.5 1.862745,13.5157745 L1.89426373,13.6095925 C1.90503204,13.640693 1.91606654,13.6716287 1.92737959,13.7024215 L1.95831705,13.7846045 L1.28703151,14.321633 L1.30816067,14.3082199 C1.14183982,14.4092926 1.0169551,14.5844358 0.9771987,14.7708796 C0.947216107,14.9104838 0.956312787,15.0542509 1.05558356,15.1976421 L2.2316412,16.8777826 L2.25093639,16.9039468 C2.46146939,17.1729379 2.8205467,17.1210802 3.09586647,16.9536297 L3.73937391,16.567269 L3.80158851,16.6381004 C4.05185222,16.920059 4.28421144,17.1552948 4.5251843,17.3700503 L4.62101017,17.4538615 L4.23604108,18.0957342 C4.150757,18.2404032 4.14411335,18.3986583 4.18410568,18.5478189 C4.23072416,18.7215387 4.34509421,18.8828581 4.50177269,18.9721595 L6.17548415,19.9764469 L6.20277864,19.9909171 C6.50568551,20.1406744 6.89343191,19.9817651 7.05028192,19.7136189 L7.43647359,19.0697574 L7.50630323,19.0945393 C7.94522621,19.2472452 8.42431145,19.3645232 9.00002252,19.4612809 L9.06636364,19.4720914 L9.0663694,20.2490157 C9.0663694,20.5832287 9.33755881,20.854231 9.67158471,20.854231 L11.6863335,20.854231 L11.7165206,20.8534902 C12.0365461,20.8377486 12.2915488,20.5731011 12.2915488,20.2490157 L12.2914497,19.4722371 L12.3580087,19.4613529 C12.9336285,19.3645196 13.4125631,19.2472994 13.8503045,19.0951225 L13.9216313,19.0697574 L14.3094491,19.7161334 C14.4704354,19.9912686 14.8790432,20.1509233 15.178658,19.9787888 L16.8615813,18.9690593 C17.0116439,18.8835684 17.126911,18.7227757 17.1738831,18.5481811 L17.1817196,18.5157905 C17.2124445,18.375035 17.2005513,18.2296034 17.1232788,18.0978335 L16.736949,17.4538615 L16.7494018,17.4433293 C17.0240987,17.2057519 17.2839837,16.9458486 17.5675639,16.6255394 L17.6184395,16.567269 L18.263462,16.9543172 C18.5458046,17.1265879 18.9194533,17.1775742 19.1275609,16.8761242 L20.3017082,15.1988349 C20.4023658,15.0540835 20.4104971,14.9141097 20.3814527,14.7735722 L20.3728976,14.7382952 C20.3284618,14.5745699 20.2216032,14.4244521 20.0836081,14.3298251 L20.071365,14.3219245 L19.3994963,13.7844588 L19.430682,13.7024777 C19.4533326,13.6408358 19.4748445,13.5786788 19.4953411,13.5157745 L19.5105151,13.4685863 L19.5394674,13.3747091 C19.5441487,13.3590768 19.5487616,13.3434378 19.5533116,13.3277711 L19.5799013,13.2332741 L19.6052458,13.1371192 L19.6296089,13.0383105 C19.6336024,13.0215659 19.6375659,13.0046693 19.641505,12.9875998 L19.6648909,12.8829433 L19.6879551,12.7731433 L19.7109617,12.6572043 L19.7459404,12.4696063 L19.769957,12.3339625 L19.8057662,12.123519 L20.7527029,12.123653 C21.0867288,12.123653 21.3579182,11.8526508 21.3579182,11.5184377 L21.3579182,9.50368898 L21.3571769,9.47348589 C21.3414248,9.1533004 21.0766068,8.89847368 20.7527029,8.89847368 L19.8401687,8.89843292 L19.8399487,8.89024374 C19.8092262,8.27272521 19.6758862,7.6508709 19.4371408,7.00598142 L19.40868,6.93049484 L20.051757,6.54478192 C20.2099408,6.44896362 20.3268135,6.27854885 20.3696687,6.1002018 C20.4042904,5.9576126 20.3944075,5.80601251 20.3110919,5.66986273 L20.3019447,5.65554693 L19.2907482,4.13858428 C19.1122476,3.87631245 18.7239199,3.7225856 18.4299012,3.90109696 L17.7907434,4.28441987 L17.7829226,4.27506075 C17.494213,3.93476202 17.1906122,3.62646673 16.8527666,3.33079946 L16.7375321,3.23164588 L17.1222129,2.59076899 C17.207497,2.44609991 17.2141406,2.28784485 17.1741483,2.13868427 C17.1275298,1.96496443 17.0131598,1.80364503 16.8564813,1.71434365 L15.1827973,0.70990487 L15.1555796,0.695326338 C14.8534723,0.54443558 14.4650853,0.704120158 14.307972,0.97271634 L13.9216313,1.61633315 L13.8516004,1.59169021 C13.412546,1.43893108 12.933442,1.32164545 12.3577282,1.22488665 L12.2914497,1.21385336 L12.2915488,0.605215304 C12.2915488,0.271002253 12.0203594,0 11.6863335,0 L9.67158471,0 Z M9.94100279,0.874639148 L11.4168106,0.874639148 L11.4169096,1.44469395 C11.4169096,1.74448467 11.6365071,1.99911664 11.9330038,2.04328859 C12.7170917,2.15949772 13.2947071,2.30368599 13.8124663,2.51034861 L13.8409948,2.52109009 C14.1084882,2.61412234 14.4081399,2.50571005 14.5557588,2.25967861 L14.9554548,1.59330098 L16.2384047,2.36342075 L15.8685288,2.98024951 C15.7131092,3.23908052 15.7723429,3.57292643 16.0073955,3.76254363 C16.4851458,4.14876931 16.881823,4.5454466 17.259295,5.0143737 L17.2794317,5.03808217 C17.4719948,5.2534804 17.7916046,5.30379669 18.0417878,5.15392003 L18.6664029,4.77902831 L19.4172806,5.90541776 L18.7622802,6.29847222 C18.5050651,6.45280128 18.3997097,6.77212029 18.5146699,7.04923475 C18.8237356,7.79463789 18.9722175,8.48601007 18.9722175,9.16789752 L18.9729583,9.19811496 C18.988701,9.51844398 19.2533661,9.77311282 19.5774328,9.77311282 L20.4831742,9.77307207 L20.4831742,11.2488799 L19.5774328,11.2490139 C19.2817426,11.2490139 19.0291894,11.4628375 18.9806619,11.7546091 L18.9206882,12.1120126 L18.8979881,12.2426237 L18.876095,12.3642156 L18.8547755,12.4777051 L18.8337961,12.5840092 L18.8129234,12.6840449 L18.7919241,12.7787289 L18.7705648,12.8689782 L18.7486121,12.9557097 C18.7448909,12.9699228 18.7411352,12.9840275 18.7373403,12.9980429 L18.7140598,13.0812169 C18.7061164,13.1086864 18.6979769,13.1359517 18.6896023,13.1631655 L18.6637346,13.2448054 C18.6209328,13.3761644 18.5731188,13.5028592 18.5188721,13.6276819 L18.5070643,13.6567131 C18.415355,13.9000806 18.4903897,14.1775086 18.6960234,14.3417825 L19.4254439,14.9252797 L18.5843326,16.1268882 L17.8739815,15.7006331 C17.6187186,15.5486878 17.2914088,15.6021004 17.0999935,15.8292545 C16.7008262,16.3006302 16.3752851,16.6263539 16.00684,16.9242726 L15.9831917,16.9443624 C15.7683452,17.1365115 15.7183033,17.4563523 15.8684382,17.7063824 L16.2384047,18.3229613 L14.9554548,19.0927895 L14.5557588,18.4266566 C14.4032303,18.1724426 14.0895239,18.0668562 13.8143194,18.1752519 C13.2950061,18.3824353 12.7172168,18.5266576 11.9332427,18.6430111 L11.9038316,18.6481272 C11.6221113,18.7042443 11.4169096,18.9518436 11.4169096,19.2416413 L11.4168106,19.9795278 L9.94100279,19.9795278 L9.94100855,19.2416413 C9.94100855,18.9419595 9.72164197,18.6876241 9.42547966,18.6429886 C8.64065855,18.5266696 8.06304319,18.3824814 7.54528402,18.1758188 C7.47447399,18.1471377 7.39783465,18.1327388 7.32104449,18.1327388 L7.28772843,18.1336563 C7.08862664,18.1446335 6.90501842,18.2535296 6.80121199,18.4288093 L6.40265011,19.0927895 L5.11970026,18.3229613 L5.48972515,17.7062536 C5.64514474,17.4474226 5.58591109,17.1135767 5.35085846,16.9239595 C4.98246385,16.6260813 4.65692859,16.3004 4.25745771,15.8285029 L4.2363222,15.8049016 C4.04163654,15.5984587 3.72866548,15.5535461 3.48371012,15.7008701 L2.77362651,16.1267424 L1.9325152,14.9252797 L2.6622988,14.3415937 C2.8757032,14.1700231 2.94804955,13.8780037 2.83918567,13.6276168 C2.78496727,13.5028592 2.73715328,13.3761644 2.69435151,13.2448054 L2.66848375,13.1631655 L2.64402632,13.0812169 L2.62074581,12.9980429 C2.61695084,12.9840275 2.61319518,12.9699228 2.60947397,12.9557097 L2.58752123,12.8689782 L2.56616192,12.7787289 L2.54516265,12.6840449 L2.52429002,12.5840092 L2.50331062,12.4777051 L2.47113079,12.3044898 L2.43739789,12.1120126 L2.37739997,11.7544636 L2.3715952,11.7245423 C2.31077717,11.4479953 2.06575016,11.2490139 1.78048541,11.2490139 L0.874639148,11.2488799 L0.874639148,9.77307207 L1.78048541,9.77311282 C2.1146792,9.77311282 2.38570072,9.50227847 2.38570072,9.16789752 C2.38570072,8.48596211 2.53420449,7.79458942 2.84344225,7.04883617 L2.85454898,7.02003338 C2.9509299,6.74995868 2.84415148,6.4471438 2.59580586,6.29813643 L1.9406785,5.90512621 L2.69141043,4.77888253 L3.31604097,5.1535979 C3.57511499,5.30916341 3.90965533,5.24987089 4.09919142,5.01370772 C4.47626303,4.5452787 4.87294032,4.14860141 5.35104564,3.76208899 L5.37469717,3.74199656 C5.58957295,3.54982372 5.63961488,3.22998298 5.48947994,2.97995281 L5.11940871,2.36312921 L6.40235857,1.59344676 L6.80215941,2.25967861 C6.95546911,2.51418612 7.26942461,2.62027647 7.54513691,2.5104742 C8.0629121,2.30389995 8.64070142,2.15967762 9.42467547,2.04332412 L9.45408662,2.03820808 C9.73580689,1.982091 9.94100855,1.73449164 9.94100855,1.44469395 L9.94100279,0.874639148 Z" id="Path"></path>
                                <path d="M10.6789591,5.48833998 C13.4065695,5.48833998 15.6177346,7.6995051 15.6177346,10.4271155 C15.6177346,13.1547259 13.4065695,15.365891 10.6789591,15.365891 C7.95134869,15.365891 5.74018358,13.1547259 5.74018358,10.4271155 C5.74018358,7.6995051 7.95134869,5.48833998 10.6789591,5.48833998 Z M10.6789591,6.36297913 C8.43439855,6.36297913 6.61482273,8.18255496 6.61482273,10.4271155 C6.61482273,12.671676 8.43439855,14.4912519 10.6789591,14.4912519 C12.9235196,14.4912519 14.7430954,12.671676 14.7430954,10.4271155 C14.7430954,8.18255496 12.9235196,6.36297913 10.6789591,6.36297913 Z" id="Oval"></path>
                            </g>
                        </g>
                    </g>
                    <g id="Group-3" transform="translate(165.755776, 39.170081)">
                        <mask id="mask-7" fill="white">
                            <use xlink:href="#path-6" transform="translate(6.622449, 11.000000) scale(-1, 1) translate(-6.622449, -11.000000) "></use>
                        </mask>
                        <use id="Rectangle" fill="#D8D8D8" transform="translate(6.622449, 11.000000) scale(-1, 1) translate(-6.622449, -11.000000) " xlink:href="#path-6"></use>
                        <g id="Group-4" mask="url(#mask-7)" fill="#000000" fill-rule="nonzero">
                            <g transform="translate(1.768565, 10.844952) scale(-1, 1) translate(-1.768565, -10.844952) translate(-8.910395, 0.417836)">
                                <path d="M9.67158471,0 L9.64139762,0.000740780578 C9.32137212,0.0164824238 9.0663694,0.281129922 9.0663694,0.605215304 L9.06636364,1.21385336 L8.99990952,1.22498232 C8.42428971,1.3218157 7.94535503,1.43903588 7.50761363,1.59121271 L7.43618204,1.61633315 L7.0484691,0.970201833 C6.88772502,0.695480581 6.4801986,0.536503987 6.18102732,0.706536589 L4.4963369,1.71727597 C4.34627428,1.80276685 4.23100721,1.96355957 4.18403508,2.13815411 L4.17619856,2.1705448 C4.14547372,2.31130029 4.15736683,2.45673185 4.23463933,2.58850178 L4.62042707,3.23150011 L4.60795715,3.24209945 C4.26288059,3.53558837 3.95411199,3.83967189 3.66209371,4.17392966 L3.56721577,4.2842741 L2.92656045,3.89991383 L2.89987989,3.88492543 C2.61256033,3.73446103 2.240949,3.88312322 2.07018374,4.13399524 L1.05277109,5.6604345 L1.04261231,5.67641339 C0.960779405,5.81150264 0.954559076,5.95871707 0.98809456,6.09921918 L0.997038339,6.13273079 C1.04602426,6.29959477 1.15838213,6.45483754 1.30560876,6.5440095 L1.94927912,6.93005752 L1.92092248,7.00567586 C1.69533895,7.61493394 1.5638437,8.20349273 1.52404299,8.78725377 L1.5176447,8.89843292 L0.605215304,8.89847368 C0.27118941,8.89847368 0,9.16947593 0,9.50368898 L0,11.5184377 L0.000741280536,11.5486408 C0.0164934229,11.8688263 0.281311406,12.123653 0.605215304,12.123653 L1.55219294,12.123519 L1.58812909,12.3339625 L1.62391177,12.5341302 L1.64712441,12.6572043 L1.67013092,12.7731433 C1.67396282,12.7919273 1.67779713,12.8104554 1.68163934,12.8287485 L1.70483144,12.9358522 C1.70872726,12.9532881 1.71264198,12.9705303 1.71658109,12.9875998 L1.74055251,13.0881088 C1.7446112,13.10457 1.74870528,13.1208999 1.75284025,13.1371192 L1.77818473,13.2332741 L1.80477442,13.3277711 C1.80932447,13.3434378 1.81393739,13.3590768 1.81861869,13.3747091 L1.84757099,13.4685863 C1.85254779,13.4842741 1.85760396,13.5 1.862745,13.5157745 L1.89426373,13.6095925 C1.90503204,13.640693 1.91606654,13.6716287 1.92737959,13.7024215 L1.95831705,13.7846045 L1.28703151,14.321633 L1.30816067,14.3082199 C1.14183982,14.4092926 1.0169551,14.5844358 0.9771987,14.7708796 C0.947216107,14.9104838 0.956312787,15.0542509 1.05558356,15.1976421 L2.2316412,16.8777826 L2.25093639,16.9039468 C2.46146939,17.1729379 2.8205467,17.1210802 3.09586647,16.9536297 L3.73937391,16.567269 L3.80158851,16.6381004 C4.05185222,16.920059 4.28421144,17.1552948 4.5251843,17.3700503 L4.62101017,17.4538615 L4.23604108,18.0957342 C4.150757,18.2404032 4.14411335,18.3986583 4.18410568,18.5478189 C4.23072416,18.7215387 4.34509421,18.8828581 4.50177269,18.9721595 L6.17548415,19.9764469 L6.20277864,19.9909171 C6.50568551,20.1406744 6.89343191,19.9817651 7.05028192,19.7136189 L7.43647359,19.0697574 L7.50630323,19.0945393 C7.94522621,19.2472452 8.42431145,19.3645232 9.00002252,19.4612809 L9.06636364,19.4720914 L9.0663694,20.2490157 C9.0663694,20.5832287 9.33755881,20.854231 9.67158471,20.854231 L11.6863335,20.854231 L11.7165206,20.8534902 C12.0365461,20.8377486 12.2915488,20.5731011 12.2915488,20.2490157 L12.2914497,19.4722371 L12.3580087,19.4613529 C12.9336285,19.3645196 13.4125631,19.2472994 13.8503045,19.0951225 L13.9216313,19.0697574 L14.3094491,19.7161334 C14.4704354,19.9912686 14.8790432,20.1509233 15.178658,19.9787888 L16.8615813,18.9690593 C17.0116439,18.8835684 17.126911,18.7227757 17.1738831,18.5481811 L17.1817196,18.5157905 C17.2124445,18.375035 17.2005513,18.2296034 17.1232788,18.0978335 L16.736949,17.4538615 L16.7494018,17.4433293 C17.0240987,17.2057519 17.2839837,16.9458486 17.5675639,16.6255394 L17.6184395,16.567269 L18.263462,16.9543172 C18.5458046,17.1265879 18.9194533,17.1775742 19.1275609,16.8761242 L20.3017082,15.1988349 C20.4023658,15.0540835 20.4104971,14.9141097 20.3814527,14.7735722 L20.3728976,14.7382952 C20.3284618,14.5745699 20.2216032,14.4244521 20.0836081,14.3298251 L20.071365,14.3219245 L19.3994963,13.7844588 L19.430682,13.7024777 C19.4533326,13.6408358 19.4748445,13.5786788 19.4953411,13.5157745 L19.5105151,13.4685863 L19.5394674,13.3747091 C19.5441487,13.3590768 19.5487616,13.3434378 19.5533116,13.3277711 L19.5799013,13.2332741 L19.6052458,13.1371192 L19.6296089,13.0383105 C19.6336024,13.0215659 19.6375659,13.0046693 19.641505,12.9875998 L19.6648909,12.8829433 L19.6879551,12.7731433 L19.7109617,12.6572043 L19.7459404,12.4696063 L19.769957,12.3339625 L19.8057662,12.123519 L20.7527029,12.123653 C21.0867288,12.123653 21.3579182,11.8526508 21.3579182,11.5184377 L21.3579182,9.50368898 L21.3571769,9.47348589 C21.3414248,9.1533004 21.0766068,8.89847368 20.7527029,8.89847368 L19.8401687,8.89843292 L19.8399487,8.89024374 C19.8092262,8.27272521 19.6758862,7.6508709 19.4371408,7.00598142 L19.40868,6.93049484 L20.051757,6.54478192 C20.2099408,6.44896362 20.3268135,6.27854885 20.3696687,6.1002018 C20.4042904,5.9576126 20.3944075,5.80601251 20.3110919,5.66986273 L20.3019447,5.65554693 L19.2907482,4.13858428 C19.1122476,3.87631245 18.7239199,3.7225856 18.4299012,3.90109696 L17.7907434,4.28441987 L17.7829226,4.27506075 C17.494213,3.93476202 17.1906122,3.62646673 16.8527666,3.33079946 L16.7375321,3.23164588 L17.1222129,2.59076899 C17.207497,2.44609991 17.2141406,2.28784485 17.1741483,2.13868427 C17.1275298,1.96496443 17.0131598,1.80364503 16.8564813,1.71434365 L15.1827973,0.70990487 L15.1555796,0.695326338 C14.8534723,0.54443558 14.4650853,0.704120158 14.307972,0.97271634 L13.9216313,1.61633315 L13.8516004,1.59169021 C13.412546,1.43893108 12.933442,1.32164545 12.3577282,1.22488665 L12.2914497,1.21385336 L12.2915488,0.605215304 C12.2915488,0.271002253 12.0203594,0 11.6863335,0 L9.67158471,0 Z M9.94100279,0.874639148 L11.4168106,0.874639148 L11.4169096,1.44469395 C11.4169096,1.74448467 11.6365071,1.99911664 11.9330038,2.04328859 C12.7170917,2.15949772 13.2947071,2.30368599 13.8124663,2.51034861 L13.8409948,2.52109009 C14.1084882,2.61412234 14.4081399,2.50571005 14.5557588,2.25967861 L14.9554548,1.59330098 L16.2384047,2.36342075 L15.8685288,2.98024951 C15.7131092,3.23908052 15.7723429,3.57292643 16.0073955,3.76254363 C16.4851458,4.14876931 16.881823,4.5454466 17.259295,5.0143737 L17.2794317,5.03808217 C17.4719948,5.2534804 17.7916046,5.30379669 18.0417878,5.15392003 L18.6664029,4.77902831 L19.4172806,5.90541776 L18.7622802,6.29847222 C18.5050651,6.45280128 18.3997097,6.77212029 18.5146699,7.04923475 C18.8237356,7.79463789 18.9722175,8.48601007 18.9722175,9.16789752 L18.9729583,9.19811496 C18.988701,9.51844398 19.2533661,9.77311282 19.5774328,9.77311282 L20.4831742,9.77307207 L20.4831742,11.2488799 L19.5774328,11.2490139 C19.2817426,11.2490139 19.0291894,11.4628375 18.9806619,11.7546091 L18.9206882,12.1120126 L18.8979881,12.2426237 L18.876095,12.3642156 L18.8547755,12.4777051 L18.8337961,12.5840092 L18.8129234,12.6840449 L18.7919241,12.7787289 L18.7705648,12.8689782 L18.7486121,12.9557097 C18.7448909,12.9699228 18.7411352,12.9840275 18.7373403,12.9980429 L18.7140598,13.0812169 C18.7061164,13.1086864 18.6979769,13.1359517 18.6896023,13.1631655 L18.6637346,13.2448054 C18.6209328,13.3761644 18.5731188,13.5028592 18.5188721,13.6276819 L18.5070643,13.6567131 C18.415355,13.9000806 18.4903897,14.1775086 18.6960234,14.3417825 L19.4254439,14.9252797 L18.5843326,16.1268882 L17.8739815,15.7006331 C17.6187186,15.5486878 17.2914088,15.6021004 17.0999935,15.8292545 C16.7008262,16.3006302 16.3752851,16.6263539 16.00684,16.9242726 L15.9831917,16.9443624 C15.7683452,17.1365115 15.7183033,17.4563523 15.8684382,17.7063824 L16.2384047,18.3229613 L14.9554548,19.0927895 L14.5557588,18.4266566 C14.4032303,18.1724426 14.0895239,18.0668562 13.8143194,18.1752519 C13.2950061,18.3824353 12.7172168,18.5266576 11.9332427,18.6430111 L11.9038316,18.6481272 C11.6221113,18.7042443 11.4169096,18.9518436 11.4169096,19.2416413 L11.4168106,19.9795278 L9.94100279,19.9795278 L9.94100855,19.2416413 C9.94100855,18.9419595 9.72164197,18.6876241 9.42547966,18.6429886 C8.64065855,18.5266696 8.06304319,18.3824814 7.54528402,18.1758188 C7.47447399,18.1471377 7.39783465,18.1327388 7.32104449,18.1327388 L7.28772843,18.1336563 C7.08862664,18.1446335 6.90501842,18.2535296 6.80121199,18.4288093 L6.40265011,19.0927895 L5.11970026,18.3229613 L5.48972515,17.7062536 C5.64514474,17.4474226 5.58591109,17.1135767 5.35085846,16.9239595 C4.98246385,16.6260813 4.65692859,16.3004 4.25745771,15.8285029 L4.2363222,15.8049016 C4.04163654,15.5984587 3.72866548,15.5535461 3.48371012,15.7008701 L2.77362651,16.1267424 L1.9325152,14.9252797 L2.6622988,14.3415937 C2.8757032,14.1700231 2.94804955,13.8780037 2.83918567,13.6276168 C2.78496727,13.5028592 2.73715328,13.3761644 2.69435151,13.2448054 L2.66848375,13.1631655 L2.64402632,13.0812169 L2.62074581,12.9980429 C2.61695084,12.9840275 2.61319518,12.9699228 2.60947397,12.9557097 L2.58752123,12.8689782 L2.56616192,12.7787289 L2.54516265,12.6840449 L2.52429002,12.5840092 L2.50331062,12.4777051 L2.47113079,12.3044898 L2.43739789,12.1120126 L2.37739997,11.7544636 L2.3715952,11.7245423 C2.31077717,11.4479953 2.06575016,11.2490139 1.78048541,11.2490139 L0.874639148,11.2488799 L0.874639148,9.77307207 L1.78048541,9.77311282 C2.1146792,9.77311282 2.38570072,9.50227847 2.38570072,9.16789752 C2.38570072,8.48596211 2.53420449,7.79458942 2.84344225,7.04883617 L2.85454898,7.02003338 C2.9509299,6.74995868 2.84415148,6.4471438 2.59580586,6.29813643 L1.9406785,5.90512621 L2.69141043,4.77888253 L3.31604097,5.1535979 C3.57511499,5.30916341 3.90965533,5.24987089 4.09919142,5.01370772 C4.47626303,4.5452787 4.87294032,4.14860141 5.35104564,3.76208899 L5.37469717,3.74199656 C5.58957295,3.54982372 5.63961488,3.22998298 5.48947994,2.97995281 L5.11940871,2.36312921 L6.40235857,1.59344676 L6.80215941,2.25967861 C6.95546911,2.51418612 7.26942461,2.62027647 7.54513691,2.5104742 C8.0629121,2.30389995 8.64070142,2.15967762 9.42467547,2.04332412 L9.45408662,2.03820808 C9.73580689,1.982091 9.94100855,1.73449164 9.94100855,1.44469395 L9.94100279,0.874639148 Z" id="Path"></path>
                                <path d="M10.6789591,5.48833998 C13.4065695,5.48833998 15.6177346,7.6995051 15.6177346,10.4271155 C15.6177346,13.1547259 13.4065695,15.365891 10.6789591,15.365891 C7.95134869,15.365891 5.74018358,13.1547259 5.74018358,10.4271155 C5.74018358,7.6995051 7.95134869,5.48833998 10.6789591,5.48833998 Z M10.6789591,6.36297913 C8.43439855,6.36297913 6.61482273,8.18255496 6.61482273,10.4271155 C6.61482273,12.671676 8.43439855,14.4912519 10.6789591,14.4912519 C12.9235196,14.4912519 14.7430954,12.671676 14.7430954,10.4271155 C14.7430954,8.18255496 12.9235196,6.36297913 10.6789591,6.36297913 Z" id="Oval"></path>
                            </g>
                        </g>
                    </g>
                </g>
            </g>
        </g>
    </g>
</svg>