<?xml version="1.0" encoding="UTF-8"?>
<svg width="149px" height="98px" viewBox="0 0 149 98" version="1.1" xmlns="http://www.w3.org/2000/svg" xmlns:xlink="http://www.w3.org/1999/xlink">
    <title>tranformer</title>
    <g id="Products" stroke="none" stroke-width="1" fill="none" fill-rule="evenodd">
        <g id="Homepage-Copy-8" transform="translate(-800.000000, -1273.000000)">
            <g id="Group-6" transform="translate(191.500000, 1092.500000)">
                <g id="tranformer" transform="translate(610.265032, 182.851379)">
                    <path d="M97.5339527,94.0005361 L0,94.0005361 C8.54754033,79.7976879 13.1563884,63.5745428 13.3522339,46.9998634 C13.1563884,30.425184 8.54754033,14.2020388 0,0 L97.5339527,0 C116.542258,0.0125026028 133.674131,11.4662134 140.950551,29.0266667 C148.226972,46.5871201 144.217098,66.8012108 130.788492,80.2544031 C121.983832,89.0929495 110.009534,94.0423672 97.5339527,94.0005361 Z" id="Path" stroke="#000000" stroke-width="3" fill="#FFFFFF" transform="translate(72.267078, 47.000268) rotate(-180.000000) translate(-72.267078, -47.000268) "></path>
                    <g id="Group-4" transform="translate(65.576053, 23.059672)" fill="#000000" fill-rule="nonzero">
                        <path d="M21.5194237,4.50465954 L21.4658787,4.50597352 C20.8982259,4.53389562 20.4459089,5.00332033 20.4459089,5.57817437 L20.4458987,6.65776039 L20.3280241,6.67750063 C19.307005,6.84926111 18.4574834,7.05718315 17.6810293,7.32711037 L17.5543259,7.37166834 L16.8666109,6.22557778 C16.5814874,5.73828452 15.8586278,5.45629606 15.3279657,5.75789537 L12.3397066,7.55071804 C12.0735296,7.70235949 11.8690719,7.98756935 11.785754,8.29726051 L11.7718538,8.35471424 C11.7173549,8.60438259 11.7384505,8.86234522 11.8755144,9.09607524 L12.5598145,10.2366086 L12.5376957,10.2554094 C11.925608,10.7759923 11.3779225,11.3153675 10.8599482,11.9082651 L10.6916563,12.1039911 L9.55527888,11.4222231 L9.50795361,11.3956371 C8.99831381,11.1287473 8.33915949,11.3924404 8.03626062,11.8374305 L6.23160108,14.5449879 L6.21358172,14.5733308 C6.06842868,14.8129485 6.05739523,15.0740736 6.11687958,15.3232925 L6.13274381,15.3827345 C6.21963374,15.6787134 6.41893114,15.9540789 6.68007782,16.1122498 L7.82180321,16.7970115 L7.77150496,16.9311413 C7.37137089,18.0118271 7.1381281,19.055797 7.06753066,20.0912568 L7.05618154,20.2884635 L5.43773852,20.2885358 C4.84525227,20.2885358 4.36422369,20.7692324 4.36422369,21.3620506 L4.36422369,24.9357584 L4.36553856,24.9893318 C4.39347929,25.5572684 4.86320639,26.0092732 5.43773852,26.0092732 L7.1174623,26.0090355 L7.18120488,26.3823146 L7.24467526,26.7373666 L7.28584922,26.9556722 L7.32665756,27.1613219 C7.33345448,27.1946403 7.34025568,27.227505 7.34707089,27.2599528 L7.38820842,27.4499305 C7.39511872,27.4808578 7.40206254,27.5114417 7.40904963,27.5417191 L7.4515695,27.7199993 C7.4587687,27.7491977 7.46603067,27.7781633 7.47336517,27.8069326 L7.51832053,27.9774897 L7.56548462,28.1451059 C7.57355537,28.172895 7.58173765,28.2006352 7.59004122,28.2283632 L7.64139604,28.3948801 C7.65022375,28.4227068 7.65919225,28.4505949 7.66831129,28.4785813 L7.72421838,28.6449931 C7.74331892,28.7001584 7.76289162,28.7550313 7.78295841,28.8096508 L7.83783446,28.9554249 L6.64712599,29.9079916 L6.68460433,29.8841998 C6.38958884,30.06348 6.16807163,30.3741443 6.09755279,30.7048534 C6.04437046,30.9524797 6.06050591,31.2074899 6.23658978,31.4618333 L8.32264958,34.442022 L8.35687487,34.4884313 C8.7303127,34.9655606 9.36723451,34.8735767 9.8555894,34.5765575 L10.9970258,33.8912411 L11.1073804,34.01688 C11.5512915,34.5170107 11.9634441,34.9342657 12.3908754,35.3151933 L12.5608488,35.4638554 L11.8780008,36.6023921 C11.7267262,36.8590022 11.7149419,37.1397109 11.7858792,37.4042879 C11.8685698,37.7124276 12.0714364,37.9985716 12.3493485,38.1569721 L15.3181334,39.9383504 L15.3665477,39.9640172 C15.9038358,40.2296527 16.5916101,39.9477837 16.8698265,39.4721531 L17.554843,38.3300885 L17.678705,38.3740461 C18.4572549,38.6449117 19.3070436,38.8529363 20.3282246,39.0245626 L20.4458987,39.0437379 L20.4459089,40.4218256 C20.4459089,41.0146439 20.9269375,41.4953405 21.5194237,41.4953405 L25.0931315,41.4953405 L25.1466766,41.4940265 C25.7143293,41.4661044 26.1666464,40.9966797 26.1666464,40.4218256 L26.1664707,39.0439965 L26.2845311,39.0246904 C27.3055503,38.8529299 28.1550719,38.6450079 28.931526,38.3750806 L29.0580435,38.3300885 L29.7459443,39.4766132 C30.0314976,39.9646407 30.7562753,40.247832 31.2877241,39.9425045 L34.2728486,38.151473 C34.5390257,37.9998315 34.7434834,37.7146217 34.8268013,37.4049305 L34.8407015,37.3474768 C34.8952004,37.0978084 34.8741047,36.8398458 34.7370408,36.6061158 L34.0517792,35.4638554 L34.0738676,35.4451737 C34.5611177,35.0237652 35.0220949,34.5627556 35.5251018,33.9945997 L35.6153436,33.8912411 L36.7594674,34.5777769 C37.2602792,34.8833461 37.9230473,34.9737844 38.2921831,34.4390802 L40.3748545,31.4639492 C40.5533982,31.2071929 40.5678212,30.9589111 40.516303,30.7096295 L40.5011282,30.647056 C40.4223092,30.3566445 40.2327662,30.0903695 39.9879943,29.9225227 L39.9662776,29.9085088 L38.7745349,28.9551663 L38.8298512,28.8097505 C38.8700283,28.7004118 38.9081855,28.5901592 38.9445418,28.4785813 L38.971457,28.3948801 L39.0228119,28.2283632 C39.0311154,28.2006352 39.0392977,28.172895 39.0473685,28.1451059 L39.0945325,27.9774897 L39.1394879,27.8069326 L39.1827026,27.6316684 C39.189786,27.6019673 39.1968163,27.5719964 39.2038034,27.5417191 L39.2452847,27.356082 L39.2861955,27.1613219 L39.3270039,26.9556722 L39.3890482,26.6229159 L39.4316482,26.3823146 L39.4951656,26.0090355 L41.1748167,26.0092732 C41.767303,26.0092732 42.2483316,25.5285766 42.2483316,24.9357584 L42.2483316,21.3620506 L42.2470167,21.3084771 C42.219076,20.7405406 41.7493489,20.2885358 41.1748167,20.2885358 L39.5561878,20.2884635 L39.5557977,20.2739377 C39.5013029,19.1785997 39.2647879,18.0755711 38.8413077,16.9316833 L38.7908247,16.7977872 L39.9314976,16.1136198 C40.2120798,15.9436599 40.4193854,15.6413827 40.4954009,15.3250354 C40.5568119,15.0721145 40.5392819,14.8032103 40.391499,14.5617114 L40.3752738,14.5363184 L38.5816403,11.8455704 C38.2650208,11.3803596 37.5762154,11.107683 37.0546928,11.4243217 L35.9209717,12.1042497 L35.9070994,12.0876487 C35.3949939,11.4840359 34.856475,10.9371899 34.2572134,10.4127431 L34.0528134,10.2368672 L34.7351501,9.10009675 C34.8864247,8.84348658 34.898209,8.56277795 34.8272717,8.29820088 C34.7445811,7.99006125 34.5417145,7.70391718 34.2638024,7.54551676 L31.2950663,5.76386994 L31.2467881,5.73801093 C30.7109183,5.47036491 30.0220076,5.75360917 29.7433244,6.23003794 L29.0580435,7.37166834 L28.9338244,7.32795735 C28.1550414,7.05699727 27.3052195,6.84895912 26.2840337,6.67733093 L26.1664707,6.65776039 L26.1666464,5.57817437 C26.1666464,4.98535614 25.6856178,4.50465954 25.0931315,4.50465954 L21.5194237,4.50465954 Z M21.9973104,6.05607123 L24.615059,6.05607123 L24.6152347,7.06721929 C24.6152347,7.5989801 25.0047509,8.05063953 25.5306688,8.12899056 C26.9214632,8.33511922 27.946022,8.59087654 28.8644094,8.95744921 L28.9150126,8.97650216 C29.3894852,9.14152029 29.9209995,8.94922147 30.1828419,8.51281743 L30.8918121,7.33081449 L33.1674745,8.69683248 L32.5113986,9.79094695 C32.2357194,10.2500545 32.3407865,10.8422215 32.7577166,11.1785595 C33.6051373,11.8636363 34.3087529,12.567252 34.9783027,13.3990224 L35.0140205,13.4410759 C35.355584,13.8231435 35.9224993,13.9123932 36.3662677,13.646546 L37.4741933,12.981573 L38.8060803,14.9795327 L37.6442579,15.6767222 C37.1880166,15.950467 37.00114,16.5168666 37.2050532,17.0084049 C37.7532659,18.3305812 38.016639,19.5569188 38.016639,20.7664326 L38.0179531,20.8200315 C38.0458771,21.3882226 38.5153329,21.8399474 39.0901538,21.8399474 L40.696734,21.8398752 L40.696734,24.4576238 L39.0901538,24.4578615 C38.5656665,24.4578615 38.1176943,24.8371361 38.0316175,25.3546728 L37.9252378,25.9886258 L37.884973,26.2203003 L37.8461396,26.4359767 L37.8083235,26.6372814 L37.7711108,26.8258408 L37.7340875,27.0032814 L37.6968395,27.1712293 L37.658953,27.3313112 L37.6200138,27.4851533 C37.6134132,27.510364 37.6067515,27.5353825 37.6000201,27.5602427 L37.5587257,27.7077746 C37.544636,27.7564993 37.5301984,27.8048616 37.5153438,27.8531328 L37.4694603,27.9979436 C37.3935396,28.2309447 37.3087284,28.4556724 37.2125071,28.6770796 L37.1915627,28.7285744 C37.0288912,29.1602533 37.1619858,29.6523476 37.5267334,29.9437324 L38.8205601,30.9787243 L37.3286192,33.1101054 L36.0686172,32.3540254 C35.6158387,32.0845088 35.0352652,32.1792508 34.695738,32.5821707 C33.9877056,33.4182844 33.4102694,33.9960443 32.7567312,34.5244847 L32.7147845,34.5601194 C32.3336956,34.9009485 32.2449325,35.4682735 32.5112379,35.9117704 L33.1674745,37.0054415 L30.8918121,38.3709424 L30.1828419,37.1893736 C29.912291,36.7384554 29.3558469,36.5511691 28.8676964,36.7434385 C27.9465523,37.110935 26.9216849,37.3667527 25.5310926,37.5731374 L25.4789239,37.5822121 C24.979216,37.6817511 24.6152347,38.1209363 24.6152347,38.6349717 L24.615059,39.9438153 L21.9973104,39.9438153 L21.9973206,38.6349717 C21.9973206,38.1034042 21.608214,37.6522707 21.0828891,37.5730975 C19.6907943,37.366774 18.6662355,37.1110167 17.747848,36.744444 C17.6222471,36.6935703 17.4863063,36.6680299 17.3500979,36.6680299 L17.2910028,36.6696573 C16.9378413,36.6891284 16.6121619,36.8822854 16.4280328,37.1931919 L15.7210744,38.3709424 L13.445412,37.0054415 L14.1017523,35.9115419 C14.3774315,35.4524343 14.2723644,34.8602673 13.8554343,34.5239294 C13.2019857,33.9955608 12.6245599,33.4178761 11.9159891,32.5808375 L11.8784995,32.5389742 C11.5331712,32.1727911 10.9780315,32.0931264 10.5435362,32.3544457 L9.28400872,33.1098468 L7.79206782,30.9787243 L9.08653859,29.9433975 C9.46506964,29.6390701 9.59339567,29.1210939 9.40029582,28.6769642 C9.30412465,28.4556724 9.21931347,28.2309447 9.14339282,27.9979436 L9.09750928,27.8531328 L9.05412734,27.7077746 L9.01283299,27.5602427 C9.00610157,27.5353825 8.99943988,27.510364 8.9928393,27.4851533 L8.95390011,27.3313112 L8.91601354,27.1712293 L8.87876559,27.0032814 L8.84174227,26.8258408 L8.80452957,26.6372814 L8.74744985,26.3300366 L8.68761532,25.9886258 L8.58119261,25.3544148 L8.57089625,25.3013412 C8.46301886,24.8108094 8.02839645,24.4578615 7.52240142,24.4578615 L5.91563538,24.4576238 L5.91563538,21.8398752 L7.52240142,21.8399474 C8.11518547,21.8399474 8.59591625,21.3595487 8.59591625,20.7664326 C8.59591625,19.5568337 8.85932831,18.3304952 9.40784602,17.0076979 L9.42754684,16.9566083 C9.59850475,16.4775569 9.40910403,15.9404319 8.96859517,15.6761266 L7.80654766,14.9790155 L9.13817602,12.9813144 L10.2461291,13.6459746 C10.7056677,13.9219126 11.2990665,13.8167411 11.6352605,13.3978411 C12.3041001,12.5669542 13.0077158,11.8633385 13.8557663,11.177753 L13.8977188,11.1421136 C14.2788597,10.8012426 14.3676227,10.2339175 14.1013174,9.79042066 L13.4448949,8.69631535 L15.7205572,7.33107306 L16.4297134,8.51281743 C16.70165,8.96425609 17.258536,9.15243633 17.7475871,8.95767198 C18.666003,8.59125606 19.6908703,8.33543832 21.0814627,8.12905358 L21.1336314,8.11997888 C21.6333393,8.0204399 21.9973206,7.58125474 21.9973206,7.06721929 L21.9973104,6.05607123 Z" id="Path" transform="translate(23.306278, 23.000000) rotate(16.000000) translate(-23.306278, -23.000000) "></path>
                        <path d="M23.3062776,14.2397312 C28.1444405,14.2397312 32.0665464,18.1618371 32.0665464,23 C32.0665464,27.8381629 28.1444405,31.7602688 23.3062776,31.7602688 C18.4681148,31.7602688 14.5460088,27.8381629 14.5460088,23 C14.5460088,18.1618371 18.4681148,14.2397312 23.3062776,14.2397312 Z M23.3062776,15.7911429 C19.3249358,15.7911429 16.0974205,19.0186582 16.0974205,23 C16.0974205,26.9813418 19.3249358,30.2088571 23.3062776,30.2088571 C27.2876195,30.2088571 30.5151347,26.9813418 30.5151347,23 C30.5151347,19.0186582 27.2876195,15.7911429 23.3062776,15.7911429 Z" id="Oval" transform="translate(23.306278, 23.000000) rotate(16.000000) translate(-23.306278, -23.000000) "></path>
                    </g>
                    <g id="Group-4" transform="translate(54.780688, 46.038293) scale(-1, 1) translate(-54.780688, -46.038293) translate(35.838634, 27.542953)" fill="#000000" fill-rule="nonzero">
                        <path d="M17.1552,0 L17.101655,0.00131397691 C16.5340022,0.0292360855 16.0816852,0.498660787 16.0816852,1.07351483 L16.081675,2.15310085 L15.9638004,2.17284109 C14.9427813,2.34460157 14.0932597,2.55252361 13.3168056,2.82245083 L13.1901022,2.8670088 L12.5023873,1.72091824 C12.2172637,1.23362498 11.4944041,0.951636519 10.9637421,1.25323583 L7.97548294,3.0460585 C7.70930587,3.19769995 7.50484819,3.48290981 7.42153027,3.79260097 L7.40763006,3.8500547 C7.35313116,4.09972305 7.37422685,4.35768568 7.51129074,4.5914157 L8.1955908,5.73194904 L8.17347198,5.75074989 C7.56138435,6.27133273 7.01369881,6.810708 6.49572453,7.40360555 L6.32743256,7.59933158 L5.19105518,6.91756354 L5.14372992,6.89097753 C4.63409011,6.62408777 3.9749358,6.88778081 3.67203692,7.33277093 L1.86737739,10.0403283 L1.84935803,10.0686713 C1.70420498,10.308289 1.69317153,10.569414 1.75265588,10.818633 L1.76852012,10.878075 C1.85541005,11.1740539 2.05470745,11.4494194 2.31585413,11.6075902 L3.45757951,12.2923519 L3.40728127,12.4264817 C3.0071472,13.5071675 2.7739044,14.5511375 2.70330697,15.5865973 L2.69195784,15.7838039 L1.07351483,15.7838762 C0.481028571,15.7838762 0,16.2645728 0,16.857391 L0,20.4310989 L0.00131486372,20.4846723 C0.0292555954,21.0526088 0.4989827,21.5046137 1.07351483,21.5046137 L2.75323861,21.504376 L2.81698118,21.877655 L2.88045156,22.2327071 L2.92162552,22.4510127 L2.96243386,22.6566623 C2.96923079,22.6899808 2.97603198,22.7228455 2.9828472,22.7552932 L3.02398473,22.945271 C3.03089502,22.9761982 3.03783884,23.0067821 3.04482594,23.0370595 L3.08734581,23.2153398 C3.094545,23.2445382 3.10180698,23.2735037 3.10914148,23.3022731 L3.15409683,23.4728301 L3.20126093,23.6404464 C3.20933167,23.6682355 3.21751396,23.6959756 3.22581752,23.7237037 L3.27717235,23.8902206 C3.28600006,23.9180473 3.29496856,23.9459354 3.3040876,23.9739218 L3.35999468,24.1403336 C3.37909522,24.1954988 3.39866792,24.2503717 3.41873472,24.3049912 L3.47361077,24.4507653 L2.2829023,25.4033321 L2.32038064,25.3795403 C2.02536514,25.5588204 1.80384794,25.8694848 1.73332909,26.2001939 C1.68014677,26.4478201 1.69628222,26.7028304 1.87236609,26.9571737 L3.95842588,29.9373624 L3.99265118,29.9837717 C4.36608901,30.460901 5.00301082,30.3689172 5.49136571,30.0718979 L6.6328021,29.3865816 L6.74315672,29.5122205 C7.18706782,30.0123512 7.59922043,30.4296061 8.02665169,30.8105337 L8.19662508,30.9591959 L7.51377713,32.0977325 C7.36250249,32.3543427 7.35071817,32.6350513 7.4216555,32.8996284 C7.50434612,33.207768 7.70721269,33.4939121 7.98512481,33.6523125 L10.9539097,35.4336908 L11.002324,35.4593576 C11.5396121,35.7249932 12.2273864,35.4431242 12.5056028,34.9674935 L13.1906193,33.825429 L13.3144813,33.8693865 C14.0930312,34.1402521 14.9428199,34.3482768 15.9640009,34.5199031 L16.081675,34.5390784 L16.0816852,35.9171661 C16.0816852,36.5099843 16.5627138,36.9906809 17.1552,36.9906809 L20.7289078,36.9906809 L20.7824529,36.9893669 C21.3501056,36.9614448 21.8024227,36.4920201 21.8024227,35.9171661 L21.802247,34.5393369 L21.9203075,34.5200308 C22.9413266,34.3482704 23.7908482,34.1403483 24.5673023,33.8704211 L24.6938198,33.825429 L25.3817206,34.9719537 C25.6672739,35.4599811 26.3920516,35.7431725 26.9235004,35.4378449 L29.9086249,33.6468134 C30.174802,33.495172 30.3792597,33.2099621 30.4625776,32.900271 L30.4764778,32.8428172 C30.5309767,32.5931489 30.509881,32.3351863 30.3728171,32.1014562 L29.6875555,30.9591959 L29.7096439,30.9405141 C30.196894,30.5191057 30.6578712,30.0580961 31.1608781,29.4899402 L31.2511199,29.3865816 L32.3952437,30.0731174 C32.8960555,30.3786866 33.5588236,30.4691248 33.9279594,29.9344207 L36.0106308,26.9592896 C36.1891745,26.7025334 36.2035975,26.4542516 36.1520793,26.2049699 L36.1369045,26.1423965 C36.0580855,25.8519849 35.8685425,25.58571 35.6237706,25.4178632 L35.602054,25.4038492 L34.4103112,24.4505067 L34.4656275,24.305091 C34.5058046,24.1957522 34.5439618,24.0854997 34.5803181,23.9739218 L34.6072333,23.8902206 L34.6585882,23.7237037 C34.6668917,23.6959756 34.675074,23.6682355 34.6831448,23.6404464 L34.7303089,23.4728301 L34.7752642,23.3022731 L34.8184789,23.1270088 C34.8255623,23.0973077 34.8325927,23.0673369 34.8395797,23.0370595 L34.881061,22.8514225 L34.9219718,22.6566623 L34.9627802,22.4510127 L35.0248245,22.1182564 L35.0674245,21.877655 L35.1309419,21.504376 L36.810593,21.5046137 C37.4030793,21.5046137 37.8841079,21.0239171 37.8841079,20.4310989 L37.8841079,16.857391 L37.882793,16.8038176 C37.8548523,16.2358811 37.3851252,15.7838762 36.810593,15.7838762 L35.1919641,15.7838039 L35.191574,15.7692782 C35.1370792,14.6739402 34.9005642,13.5709116 34.477084,12.4270237 L34.426601,12.2931276 L35.5672739,11.6089603 C35.8478561,11.4390003 36.0551617,11.1367232 36.1311772,10.8203759 C36.1925883,10.567455 36.1750582,10.2985508 36.0272753,10.0570519 L36.0110501,10.0316589 L34.2174166,7.34091085 C33.9007971,6.87570006 33.2119917,6.60302345 32.6904691,6.91966215 L31.556748,7.59959015 L31.5428757,7.58298919 C31.0307702,6.97937633 30.4922513,6.43253035 29.8929897,5.90808361 L29.6885897,5.73220761 L30.3709264,4.59543721 C30.522201,4.33882704 30.5339853,4.05811841 30.463048,3.79354134 C30.3803574,3.48540171 30.1774908,3.19925764 29.8995787,3.04085722 L26.9308426,1.2592104 L26.8825644,1.23335139 C26.3466946,0.965705369 25.657784,1.24894963 25.3791007,1.7253784 L24.6938198,2.8670088 L24.5696008,2.82329781 C23.7908177,2.55233773 22.9409958,2.34429958 21.91981,2.17267139 L21.802247,2.15310085 L21.8024227,1.07351483 C21.8024227,0.480696598 21.3213941,0 20.7289078,0 L17.1552,0 Z M17.6330867,1.55141169 L20.2508353,1.55141169 L20.251011,2.56255975 C20.251011,3.09432056 20.6405272,3.54597999 21.1664451,3.62433102 C22.5572395,3.83045968 23.5817983,4.08621701 24.5001857,4.45278967 L24.5507889,4.47184262 C25.0252615,4.63686076 25.5567758,4.44456193 25.8186182,4.00815789 L26.5275884,2.82615496 L28.8032508,4.19217295 L28.1471749,5.28628741 C27.8714957,5.74539499 27.9765628,6.33756198 28.3934929,6.67389993 C29.2409136,7.35897679 29.9445292,8.06259242 30.614079,8.89436286 L30.6497969,8.93641632 C30.9913603,9.31848397 31.5582756,9.40773367 32.002044,9.14188643 L33.1099696,8.47691345 L34.4418566,10.4748731 L33.2800342,11.1720627 C32.8237929,11.4458075 32.6369163,12.0122071 32.8408296,12.5037453 C33.3890422,13.8259216 33.6524153,15.0522592 33.6524153,16.2617731 L33.6537294,16.315372 C33.6816534,16.8835631 34.1511093,17.3352879 34.7259302,17.3352879 L36.3325103,17.3352156 L36.3325103,19.9529643 L34.7259302,19.953202 C34.2014428,19.953202 33.7534706,20.3324766 33.6673938,20.8500133 L33.5610141,21.4839662 L33.5207493,21.7156407 L33.4819159,21.9313171 L33.4440998,22.1326219 L33.4068871,22.3211813 L33.3698638,22.4986218 L33.3326158,22.6665698 L33.2947293,22.8266517 L33.2557901,22.9804937 C33.2491895,23.0057045 33.2425278,23.030723 33.2357964,23.0555831 L33.194502,23.2031151 C33.1804123,23.2518397 33.1659747,23.3002021 33.1511201,23.3484732 L33.1052366,23.493284 C33.0293159,23.7262851 32.9445047,23.9510129 32.8482834,24.1724201 L32.8273391,24.2239148 C32.6646675,24.6555937 32.7977621,25.1476881 33.1625097,25.4390728 L34.4563364,26.4740647 L32.9643955,28.6054458 L31.7043935,27.8493659 C31.251615,27.5798493 30.6710415,27.6745912 30.3315143,28.0775112 C29.6234819,28.9136249 29.0460457,29.4913848 28.3925075,30.0198252 L28.3505608,30.0554599 C27.9694719,30.3962889 27.8807088,30.9636139 28.1470142,31.4071108 L28.8032508,32.500782 L26.5275884,33.8662828 L25.8186182,32.684714 C25.5480673,32.2337959 24.9916232,32.0465096 24.5034727,32.2387789 C23.5823286,32.6062754 22.5574612,32.8620932 21.1668689,33.0684779 L21.1147002,33.0775526 C20.6149923,33.1770916 20.251011,33.6162767 20.251011,34.1303122 L20.2508353,35.4391557 L17.6330867,35.4391557 L17.6330969,34.1303122 C17.6330969,33.5987446 17.2439903,33.1476112 16.7186654,33.068438 C15.3265706,32.8621144 14.3020118,32.6063571 13.3836244,32.2397845 C13.2580234,32.1889108 13.1220826,32.1633704 12.9858742,32.1633704 L12.9267791,32.1649978 C12.5736176,32.1844689 12.2479382,32.3776259 12.0638091,32.6885324 L11.3568507,33.8662828 L9.08118831,32.500782 L9.73752863,31.4068823 C10.0132078,30.9477748 9.9081407,30.3556078 9.49121059,30.0192698 C8.83776201,29.4909013 8.26033622,28.9132165 7.55176538,28.076178 L7.51427578,28.0343146 C7.16894753,27.6681316 6.61380778,27.5884668 6.17931247,27.8497862 L4.91978503,28.6051872 L3.42784412,26.4740647 L4.72231489,25.438738 C5.10084595,25.1344105 5.22917197,24.6164344 5.03607212,24.1723047 C4.93990096,23.9510129 4.85508977,23.7262851 4.77916913,23.493284 L4.73328559,23.3484732 L4.68990364,23.2031151 L4.6486093,23.0555831 C4.64187788,23.030723 4.63521619,23.0057045 4.6286156,22.9804937 L4.58967642,22.8266517 L4.55178985,22.6665698 L4.5145419,22.4986218 L4.47751857,22.3211813 L4.44030588,22.1326219 L4.38322615,21.825377 L4.32339163,21.4839662 L4.21696891,20.8497553 L4.20667256,20.7966817 C4.09879516,20.3061499 3.66417275,19.953202 3.15817772,19.953202 L1.55141169,19.9529643 L1.55141169,17.3352156 L3.15817772,17.3352879 C3.75096178,17.3352879 4.23169255,16.8548891 4.23169255,16.2617731 C4.23169255,15.0521742 4.49510461,13.8258356 5.04362233,12.5030383 L5.06332315,12.4519487 C5.23428106,11.9728974 5.04488033,11.4357724 4.60437148,11.1714671 L3.44232396,10.474356 L4.77395233,8.47665489 L5.88190538,9.14131505 C6.341444,9.41725301 6.93484277,9.31208152 7.27103684,8.89318157 C7.93987645,8.06229461 8.64349208,7.35867898 9.4915426,6.6730935 L9.53349507,6.63745409 C9.914636,6.29658301 10.0033991,5.729258 9.73709369,5.28576112 L9.08067117,4.19165581 L11.3563335,2.82641352 L12.0654897,4.00815789 C12.3374263,4.45959656 12.8943123,4.64777679 13.3833634,4.45301244 C14.3017793,4.08659652 15.3266466,3.83077878 16.717239,3.62439404 L16.7694077,3.61531934 C17.2691156,3.51578036 17.6330969,3.0765952 17.6330969,2.56255975 L17.6330867,1.55141169 Z" id="Path"></path>
                        <path d="M18.9420539,9.73507166 C23.7802168,9.73507166 27.7023227,13.6571776 27.7023227,18.4953405 C27.7023227,23.3335033 23.7802168,27.2556093 18.9420539,27.2556093 C14.1038911,27.2556093 10.1817851,23.3335033 10.1817851,18.4953405 C10.1817851,13.6571776 14.1038911,9.73507166 18.9420539,9.73507166 Z M18.9420539,11.2864833 C14.9607121,11.2864833 11.7331968,14.5139986 11.7331968,18.4953405 C11.7331968,22.4766823 14.9607121,25.7041976 18.9420539,25.7041976 C22.9233958,25.7041976 26.1509111,22.4766823 26.1509111,18.4953405 C26.1509111,14.5139986 22.9233958,11.2864833 18.9420539,11.2864833 Z" id="Oval"></path>
                    </g>
                </g>
            </g>
        </g>
    </g>
</svg>