<?xml version="1.0" encoding="UTF-8"?>
<svg viewBox="0 0 167 30" version="1.1" xmlns="http://www.w3.org/2000/svg" xmlns:xlink="http://www.w3.org/1999/xlink">
    <title>amazon</title>
    <g id="Logos" stroke="none" stroke-width="1" fill="none" fill-rule="evenodd">
        <path d="M81.5849866,21.8531469 C80.7691358,23.3100233 79.4870845,24.1841492 78.0302081,24.1841492 C76.0488561,24.1841492 74.8833549,22.6689977 74.8833549,20.4545455 C74.8833549,16.0839161 78.7877838,15.2680653 82.5173876,15.2680653 L82.5173876,16.3752914 C82.5173876,18.3566434 82.5756626,20.04662 81.5849866,21.8531469 M91.7248468,24.1841492 C90.7924458,22.8438228 89.8017698,21.7948718 89.8017698,19.4055944 L89.8017698,11.4219114 C89.8017698,8.04195804 90.0348701,4.8951049 87.5290426,2.56410256 C85.5476906,0.641025641 82.2842873,0 79.7784598,0 C74.8833549,0 69.4637745,1.80652681 68.2982733,7.86713287 C68.1817232,8.50815851 68.6479237,8.7995338 69.0558491,8.91608392 L74.0092291,9.44055944 C74.4754295,9.44055944 74.7668048,8.97435897 74.8833549,8.50815851 C75.2912803,6.41025641 77.0395321,5.41958042 79.0208841,5.41958042 C80.0698351,5.41958042 81.2353363,5.82750583 81.8763619,6.75990676 C82.6339377,7.80885781 82.5173876,9.26573427 82.5173876,10.4895105 L82.5173876,11.1305361 C79.5453596,11.4801865 75.6409307,11.7132867 72.8437279,12.9370629 C69.6385997,14.3356643 67.3658724,17.1328671 67.3658724,21.3286713 C67.3658724,26.6317016 70.7458258,29.3123543 75.0581801,29.3123543 C78.6712337,29.3123543 80.7108608,28.4382284 83.5080635,25.5827506 C84.4404645,26.9230769 84.7901148,27.6223776 86.4800915,29.020979 C86.8880169,29.2540793 87.3542174,29.1958042 87.7038677,28.9044289 C88.7528188,28.030303 90.6176207,26.3986014 91.7248468,25.5244755 C92.1327722,25.2331002 92.0744971,24.6503497 91.7248468,24.1841492 M14.2772943,21.8531469 C13.4614435,23.3100233 12.1793922,24.1841492 10.7225158,24.1841492 C8.74116378,24.1841492 7.57566262,22.6689977 7.57566262,20.4545455 C7.57566262,16.0839161 11.4800915,15.2680653 15.2096953,15.2680653 L15.2096953,16.3752914 C15.2096953,18.3566434 15.2679703,20.04662 14.2772943,21.8531469 M24.3588794,24.1841492 C23.4264785,22.8438228 22.4358025,21.7948718 22.4358025,19.4055944 L22.4358025,11.4219114 C22.4358025,8.04195804 22.6689027,4.8951049 20.1630752,2.56410256 C18.1817232,0.641025641 14.91832,0 12.4124925,0 C7.51738756,0 2.09780714,1.80652681 0.932305973,7.86713287 C0.815755857,8.50815851 1.28195632,8.7995338 1.68988173,8.91608392 L6.64326168,9.44055944 C7.10946215,9.44055944 7.40083744,8.97435897 7.51738756,8.50815851 C7.92531297,6.41025641 9.67356471,5.41958042 11.6549167,5.41958042 C12.7038677,5.41958042 13.8693689,5.82750583 14.5103946,6.75990676 C15.2679703,7.80885781 15.1514202,9.26573427 15.1514202,10.4895105 L15.1514202,11.1305361 C12.1793922,11.4801865 8.27496332,11.7132867 5.47776052,12.9370629 C2.27263231,14.3356643 -9.49589401e-05,17.1328671 -9.49589401e-05,21.3286713 C-9.49589401e-05,26.6317016 3.37985842,29.3123543 7.69221273,29.3123543 C11.3052663,29.3123543 13.3448934,28.4382284 16.1420962,25.5827506 C17.0744971,26.9230769 17.4241475,27.6223776 19.1141242,29.020979 C19.5220496,29.2540793 19.98825,29.1958042 20.3379004,28.9044289 C21.3868514,28.030303 23.2516533,26.3986014 24.3588794,25.5244755 C24.7668048,25.2331002 24.7085297,24.6503497 24.3588794,24.1841492 M95.978926,5.47785548 L95.978926,1.68997669 C95.978926,1.10722611 96.3868514,0.757575758 96.911327,0.757575758 L113.811094,0.757575758 C114.335569,0.757575758 114.80177,1.16550117 114.80177,1.68997669 L114.80177,4.8951049 C114.80177,5.41958042 114.335569,6.11888112 113.519719,7.28438228 L104.77846,19.7552448 C108.041863,19.6969697 111.480092,20.1631702 114.393844,21.7948718 C115.03487,22.1445221 115.209695,22.7272727 115.26797,23.2517483 L115.26797,27.2727273 C115.26797,27.8554779 114.68522,28.4965035 114.044194,28.1468531 C108.857714,25.4079254 101.922982,25.1165501 96.2120263,28.2051282 C95.6292757,28.4965035 94.98825,27.9137529 94.98825,27.3310023 L94.98825,23.4848485 C94.98825,22.9020979 94.98825,21.8531469 95.6292757,20.9207459 L105.769136,6.41025641 L96.969602,6.41025641 C96.4451265,6.41025641 95.978926,6.002331 95.978926,5.47785548 M34.3821894,28.962704 L29.2539843,28.962704 C28.7877838,28.9044289 28.3798584,28.5547786 28.3215834,28.0885781 L28.3215834,1.74825175 C28.3215834,1.22377622 28.7877838,0.815850816 29.3122594,0.815850816 L34.0908141,0.815850816 C34.6152897,0.815850816 34.96494,1.22377622 35.0232151,1.68997669 L35.0232151,5.12820513 L35.1397652,5.12820513 C36.3635414,1.80652681 38.7528188,0.233100233 41.8996719,0.233100233 C45.1048001,0.233100233 47.1444272,1.80652681 48.5430286,5.12820513 C49.7668048,1.80652681 52.6222827,0.233100233 55.6525857,0.233100233 C57.8087628,0.233100233 60.1397652,1.10722611 61.5966416,3.14685315 C63.2283433,5.36130536 62.8786929,8.56643357 62.8786929,11.4219114 L62.8786929,28.0885781 C62.8786929,28.6130536 62.4124925,29.020979 61.8880169,29.020979 L56.8180869,29.020979 C56.2936113,28.962704 55.8856859,28.5547786 55.8856859,28.0885781 L55.8856859,14.1025641 C55.8856859,12.995338 56.002236,10.1981352 55.7691358,9.14918415 C55.3612104,7.4009324 54.2539843,6.87645688 52.7388328,6.87645688 C51.5150566,6.87645688 50.1747302,7.69230769 49.6502547,9.03263403 C49.1257792,10.3729604 49.1840542,12.5874126 49.1840542,14.1025641 L49.1840542,28.0885781 C49.1840542,28.6130536 48.7178538,29.020979 48.1933782,29.020979 L43.0651731,29.020979 C42.5406976,28.962704 42.1327722,28.5547786 42.1327722,28.0885781 L42.1327722,14.1025641 C42.1327722,11.1888112 42.5989726,6.81818182 38.985919,6.81818182 C35.3145904,6.81818182 35.4311405,11.013986 35.4311405,14.1025641 L35.4311405,28.0885781 C35.3728654,28.5547786 34.96494,28.962704 34.3821894,28.962704 M129.312259,24.1258741 C125.29128,24.1258741 125.349509,17.2494172 125.349509,14.044289 C125.349509,10.8391608 125.582656,5.65268065 129.370534,5.65268065 C131.002236,5.65268065 132.167737,6.35198135 132.750488,8.21678322 C133.391513,10.3146853 133.508064,12.995338 133.508064,15.2097902 C133.508064,18.5897436 133.274963,24.1258741 129.312259,24.1258741 M129.370534,0.233100233 C121.911327,0.233100233 117.773798,6.64335664 117.832073,14.8601399 C117.832073,23.018648 121.911327,29.5454545 129.370534,29.5454545 C136.596642,29.5454545 141.142096,23.1351981 141.142096,15.0932401 C141.142096,6.75990676 137.004567,0.233100233 129.370534,0.233100233 M150.990581,28.962704 L145.862376,28.962704 C145.3379,28.9044289 144.929975,28.4965035 144.929975,28.030303 L144.929975,1.63170163 C144.98825,1.16550117 145.396175,0.757575758 145.920651,0.757575758 L150.699206,0.757575758 C151.165406,0.757575758 151.515057,1.10722611 151.631607,1.51515152 L151.631607,5.53613054 L151.748157,5.53613054 C153.205033,1.92307692 155.186385,0.233100233 158.741164,0.233100233 C161.013891,0.233100233 163.286618,1.04895105 164.743495,3.32167832 C166.083821,5.41958042 166.083821,8.97435897 166.083821,11.5384615 L166.083821,28.1468531 C166.025546,28.6130536 165.617621,28.962704 165.093145,28.962704 L159.96494,28.962704 C159.49874,28.9044289 159.090814,28.5547786 159.032539,28.1468531 L159.032539,13.8111888 C159.032539,10.8974359 159.382189,6.7016317 155.827411,6.7016317 C154.603635,6.7016317 153.438133,7.51748252 152.855383,8.7995338 C152.156082,10.4312354 152.039532,12.004662 152.039532,13.8111888 L152.039532,28.030303 C151.981257,28.5547786 151.515057,28.962704 150.990581,28.962704" id="amazon" fill="#231F20"></path>
    </g>
</svg>