<?xml version="1.0" encoding="UTF-8"?>
<svg width="42.3363486px" height="39.6px" viewBox="0 0 42.3363486 39.6" version="1.1" xmlns="http://www.w3.org/2000/svg" xmlns:xlink="http://www.w3.org/1999/xlink">
    <title>block</title>
    <g id="Logos" stroke="none" stroke-width="1" fill="none" fill-rule="evenodd">
        <g id="Artboard" transform="translate(-99.4167, -646.2156)" fill="#000000" fill-rule="nonzero">
            <path d="M115.863508,658.078644 C117.239171,658.078644 118.359027,659.1985 118.359027,660.574163 L118.359027,674.56878 C118.359027,674.896846 118.093061,675.16282 117.764988,675.16282 C117.436915,675.16282 117.170948,674.896846 117.170948,674.56878 L117.170948,660.574163 C117.170948,659.852875 116.584777,659.266722 115.863508,659.266722 L101.912267,659.266722 C101.19098,659.266722 100.604826,659.852893 100.604826,660.574163 L100.604826,683.320185 C100.604826,684.041375 101.19103,684.627495 101.912267,684.627495 L115.863508,684.627495 C116.584819,684.627495 117.170948,684.041431 117.170948,683.320185 L117.170948,677.945349 C117.170948,677.617283 117.436915,677.351309 117.764988,677.351309 C118.093061,677.351309 118.359027,677.617283 118.359027,677.945349 L118.359027,683.320185 C118.359027,684.695872 117.239277,685.815574 115.863508,685.815574 L101.912267,685.815574 C100.536498,685.815574 99.4167479,684.695872 99.4167479,683.320185 L99.4167479,660.574163 C99.4167479,659.19844 100.536533,658.078644 101.912267,658.078644 Z M139.257578,677.411607 C140.63337,677.411607 141.753096,678.531333 141.753096,679.907126 L141.753096,683.320185 C141.753096,684.695872 140.633346,685.815574 139.257578,685.815574 L125.306206,685.815574 C123.930437,685.815574 122.810688,684.695872 122.810688,683.320185 L122.810688,679.907126 C122.810688,678.531333 123.930413,677.411607 125.306206,677.411607 Z M139.257578,678.599686 L125.306206,678.599686 C124.584919,678.599686 123.998766,679.185857 123.998766,679.907126 L123.998766,683.320185 C123.998766,684.041375 124.58497,684.627495 125.306206,684.627495 L139.257578,684.627495 C139.978888,684.627495 140.565018,684.041431 140.565018,683.320185 L140.565018,679.907126 C140.565018,679.185839 139.978847,678.599686 139.257578,678.599686 Z M139.257578,665.736139 C140.633287,665.736139 141.753096,666.855911 141.753096,668.231528 L141.753096,671.378141 C141.753096,672.753828 140.633346,673.87353 139.257578,673.87353 L125.306206,673.87353 C123.930437,673.87353 122.810688,672.753828 122.810688,671.378141 L122.810688,668.231528 C122.810688,666.855841 123.930437,665.736139 125.306206,665.736139 Z M139.257578,666.924218 L125.306206,666.924218 C124.584896,666.924218 123.998766,667.510282 123.998766,668.231528 L123.998766,671.378141 C123.998766,672.099331 124.58497,672.685451 125.306206,672.685451 L139.257578,672.685451 C139.978888,672.685451 140.565018,672.099387 140.565018,671.378141 L140.565018,668.231528 C140.565018,667.510338 139.978814,666.924218 139.257578,666.924218 Z M139.257578,646.215574 C140.633311,646.215574 141.753096,647.33537 141.753096,648.711093 L141.753096,659.59562 C141.753096,660.971413 140.63337,662.091139 139.257578,662.091139 L125.306206,662.091139 C123.930473,662.091139 122.810688,660.971343 122.810688,659.59562 L122.810688,648.711093 C122.810688,647.3353 123.930413,646.215574 125.306206,646.215574 Z M139.257578,647.403782 L125.306206,647.403782 C124.584919,647.403782 123.998766,647.989953 123.998766,648.711222 L123.998766,659.59575 C123.998766,660.317037 124.584937,660.90319 125.306206,660.90319 L139.257578,660.90319 C139.978865,660.90319 140.565018,660.317019 140.565018,659.59575 L140.565018,648.711222 C140.565018,647.989935 139.978847,647.403782 139.257578,647.403782 Z M115.863508,646.215574 C117.239171,646.215574 118.359027,647.33543 118.359027,648.711093 L118.359027,651.876284 C118.359027,653.252077 117.239301,654.371803 115.863508,654.371803 L101.912267,654.371803 C100.536533,654.371803 99.4167479,653.252007 99.4167479,651.876284 L99.4167479,648.711093 C99.4167479,647.33537 100.536533,646.215574 101.912267,646.215574 Z M115.863508,647.403652 L101.912267,647.403652 C101.19098,647.403652 100.604826,647.989823 100.604826,648.711093 L100.604826,651.876284 C100.604826,652.597571 101.190997,653.183724 101.912267,653.183724 L115.863378,653.183724 C116.584689,653.183724 117.170948,652.59753 117.170948,651.876284 L117.170948,648.711093 C117.170948,647.989805 116.584777,647.403652 115.863508,647.403652 Z" id="block"></path>
        </g>
    </g>
</svg>