<?xml version="1.0" encoding="UTF-8"?>
<svg viewBox="0 0 31 31" version="1.1" xmlns="http://www.w3.org/2000/svg" xmlns:xlink="http://www.w3.org/1999/xlink">
    <title>bonds</title>
    <g id="Products" stroke="none" stroke-width="1" fill="none" fill-rule="evenodd">
        <g id="Homepage-Copy" transform="translate(-236.000000, -344.000000)" fill="#B700C0" fill-rule="nonzero">
            <g id="FINANCIALS-MENU" transform="translate(202.292139, 37.977778)">
                <path d="M48.775154,306.345064 C48.9358415,306.246189 49.1384665,306.246189 49.299154,306.345064 L49.299154,306.345064 L62.178654,314.271064 L62.537154,314.271064 C63.3655915,314.271064 64.037154,314.942627 64.037154,315.771064 C64.037154,316.599502 63.3655915,317.271064 62.537154,317.271064 L62.537154,317.271064 L62.537154,317.771064 C62.534529,318.404439 62.1343415,318.967939 61.537154,319.179064 L61.537154,319.179064 L61.537154,329.363064 C62.1343415,329.574189 62.534529,330.137689 62.537154,330.771064 L62.537154,330.771064 L62.537154,331.271064 L63.537154,331.271064 C63.813279,331.271064 64.037154,331.494939 64.037154,331.771064 L64.037154,331.771064 L64.037154,335.771064 C64.037154,336.047189 63.813279,336.271064 63.537154,336.271064 L63.537154,336.271064 L34.537154,336.271064 C34.261029,336.271064 34.037154,336.047189 34.037154,335.771064 L34.037154,335.771064 L34.037154,331.771064 C34.037154,331.494939 34.261029,331.271064 34.537154,331.271064 L34.537154,331.271064 L35.537154,331.271064 L35.537154,330.771064 C35.539779,330.137689 35.9399665,329.574189 36.537154,329.363064 L36.537154,329.363064 L36.537154,319.179064 C35.9399665,318.967939 35.539779,318.404439 35.537154,317.771064 L35.537154,317.771064 L35.537154,317.271064 C34.7087165,317.271064 34.037154,316.599502 34.037154,315.771064 C34.037154,314.942627 34.7087165,314.271064 35.537154,314.271064 L35.537154,314.271064 L35.895654,314.271064 Z M40.537154,332.271064 L35.037154,332.271064 L35.037154,335.271064 L40.537154,335.271064 L40.537154,332.271064 Z M56.537154,332.271064 L41.537154,332.271064 L41.537154,333.271064 L53.537154,333.271064 L53.537154,334.271064 L41.537154,334.271064 L41.537154,335.271064 L56.537154,335.271064 L56.537154,332.271064 Z M63.037154,332.271064 L57.537154,332.271064 L57.537154,335.271064 L63.037154,335.271064 L63.037154,332.271064 Z M55.537154,333.271064 L55.537154,334.271064 L54.537154,334.271064 L54.537154,333.271064 L55.537154,333.271064 Z M61.037154,330.271064 L59.037154,330.271064 C58.761029,330.271064 58.537154,330.494939 58.537154,330.771064 L58.537154,330.771064 L58.537154,331.271064 L61.537154,331.271064 L61.537154,330.771064 C61.537154,330.494939 61.313279,330.271064 61.037154,330.271064 L61.037154,330.271064 Z M51.537154,317.271064 L46.537154,317.271064 L46.537154,317.771064 C46.534529,318.404439 46.1343415,318.967939 45.537154,319.179064 L45.537154,319.179064 L45.537154,329.363064 C46.1343415,329.574189 46.534529,330.137689 46.537154,330.771064 L46.537154,330.771064 L46.537154,331.271064 L51.537154,331.271064 L51.537154,330.771064 C51.539779,330.137689 51.9399665,329.574189 52.537154,329.363064 L52.537154,329.363064 L52.537154,319.179064 C51.9399665,318.967939 51.539779,318.404439 51.537154,317.771064 L51.537154,317.771064 L51.537154,317.271064 Z M45.037154,330.271064 L43.037154,330.271064 C42.761029,330.271064 42.537154,330.494939 42.537154,330.771064 L42.537154,330.771064 L42.537154,331.271064 L45.537154,331.271064 L45.537154,330.771064 C45.537154,330.494939 45.313279,330.271064 45.037154,330.271064 L45.037154,330.271064 Z M55.037154,330.271064 L53.037154,330.271064 C52.761029,330.271064 52.537154,330.494939 52.537154,330.771064 L52.537154,330.771064 L52.537154,331.271064 L55.537154,331.271064 L55.537154,330.771064 C55.537154,330.494939 55.313279,330.271064 55.037154,330.271064 L55.037154,330.271064 Z M39.037154,330.271064 L37.037154,330.271064 C36.761029,330.271064 36.537154,330.494939 36.537154,330.771064 L36.537154,330.771064 L36.537154,331.271064 L39.537154,331.271064 L39.537154,330.771064 C39.537154,330.494939 39.313279,330.271064 39.037154,330.271064 L39.037154,330.271064 Z M41.537154,317.271064 L40.537154,317.271064 L40.537154,317.771064 C40.534529,318.404439 40.1343415,318.967939 39.537154,319.179064 L39.537154,319.179064 L39.537154,329.363064 C40.1343415,329.574189 40.534529,330.137689 40.537154,330.771064 L40.537154,330.771064 L40.537154,331.271064 L41.537154,331.271064 L41.537154,330.771064 C41.539779,330.137689 41.9399665,329.574189 42.537154,329.363064 L42.537154,329.363064 L42.537154,319.179064 C41.9399665,318.967939 41.539779,318.404439 41.537154,317.771064 L41.537154,317.771064 L41.537154,317.271064 Z M57.537154,317.271064 L56.537154,317.271064 L56.537154,317.771064 C56.534529,318.404439 56.1343415,318.967939 55.537154,319.179064 L55.537154,319.179064 L55.537154,329.363064 C56.1343415,329.574189 56.534529,330.137689 56.537154,330.771064 L56.537154,330.771064 L56.537154,331.271064 L57.537154,331.271064 L57.537154,330.771064 C57.539779,330.137689 57.9399665,329.574189 58.537154,329.363064 L58.537154,329.363064 L58.537154,319.179064 C57.9399665,318.967939 57.539779,318.404439 57.537154,317.771064 L57.537154,317.771064 L57.537154,317.271064 Z M60.537154,319.271064 L59.537154,319.271064 L59.537154,329.271064 L60.537154,329.271064 L60.537154,319.271064 Z M44.537154,319.271064 L43.537154,319.271064 L43.537154,329.271064 L44.537154,329.271064 L44.537154,319.271064 Z M54.537154,319.271064 L53.537154,319.271064 L53.537154,329.271064 L54.537154,329.271064 L54.537154,319.271064 Z M38.537154,319.271064 L37.537154,319.271064 L37.537154,329.271064 L38.537154,329.271064 L38.537154,319.271064 Z M61.537154,317.271064 L58.537154,317.271064 L58.537154,317.771064 C58.537154,318.047189 58.761029,318.271064 59.037154,318.271064 L59.037154,318.271064 L61.037154,318.271064 C61.313279,318.271064 61.537154,318.047189 61.537154,317.771064 L61.537154,317.771064 L61.537154,317.271064 Z M45.537154,317.271064 L42.537154,317.271064 L42.537154,317.771064 C42.537154,318.047189 42.761029,318.271064 43.037154,318.271064 L43.037154,318.271064 L45.037154,318.271064 C45.313279,318.271064 45.537154,318.047252 45.537154,317.771064 L45.537154,317.771064 L45.537154,317.271064 Z M55.537154,317.271064 L52.537154,317.271064 L52.537154,317.771064 C52.537154,318.047189 52.761029,318.271064 53.037154,318.271064 L53.037154,318.271064 L55.037154,318.271064 C55.313279,318.271064 55.537154,318.047252 55.537154,317.771064 L55.537154,317.771064 L55.537154,317.271064 Z M39.537154,317.271064 L36.537154,317.271064 L36.537154,317.771064 C36.537154,318.047189 36.761029,318.271064 37.037154,318.271064 L37.037154,318.271064 L39.037154,318.271064 C39.313279,318.271064 39.537154,318.047189 39.537154,317.771064 L39.537154,317.771064 L39.537154,317.271064 Z M49.037154,307.358064 L37.803654,314.271064 L39.037154,314.271064 L39.037154,315.271064 L35.537154,315.271064 C35.261029,315.271064 35.037154,315.494939 35.037154,315.771064 C35.037154,316.047189 35.261029,316.271064 35.537154,316.271064 L35.537154,316.271064 L62.537154,316.271064 C62.813279,316.271064 63.037154,316.047189 63.037154,315.771064 C63.037154,315.494939 62.813279,315.271064 62.537154,315.271064 L62.537154,315.271064 L42.037154,315.271064 L42.037154,314.271064 L60.270654,314.271064 L49.037154,307.358064 Z M41.037154,314.271064 L41.037154,315.271064 L40.037154,315.271064 L40.037154,314.271064 L41.037154,314.271064 Z M49.037154,309.271064 C50.1417165,309.271064 51.037154,310.166502 51.037154,311.271064 C51.037154,312.375627 50.1417165,313.271064 49.037154,313.271064 C47.9325915,313.271064 47.037154,312.375627 47.037154,311.271064 C47.037154,310.166502 47.9325915,309.271064 49.037154,309.271064 Z M49.037154,310.271064 C48.4848415,310.271064 48.037154,310.718752 48.037154,311.271064 C48.037154,311.823377 48.4848415,312.271064 49.037154,312.271064 C49.5894665,312.271064 50.037154,311.823377 50.037154,311.271064 C50.037154,310.718752 49.5894665,310.271064 49.037154,310.271064 Z" id="bonds"></path>
            </g>
        </g>
    </g>
</svg>