<?xml version="1.0" encoding="UTF-8"?>
<svg width="301px" height="51px" viewBox="0 0 301 51" version="1.1" xmlns="http://www.w3.org/2000/svg" xmlns:xlink="http://www.w3.org/1999/xlink">
    <title>booking.com</title>
    <g id="Logos" stroke="none" stroke-width="1" fill="none" fill-rule="evenodd">
        <path d="M73.9346934,11.6712416 C82.2803303,11.6712416 88.3572093,17.6686338 88.3572093,25.9315222 C88.3572093,34.191149 82.2800887,40.1854003 73.9346934,40.1854003 C65.6019822,40.1854003 59.556753,34.191149 59.556753,25.9282605 C59.556753,17.6687546 65.6019822,11.6712416 73.9315526,11.6712416 L73.9315526,11.6712416 Z M43.1076846,11.6712416 C51.462744,11.6712416 57.5270597,17.6686338 57.5270597,25.9315222 C57.5270597,34.191149 51.462744,40.1854003 43.104423,40.1854003 C34.7843959,40.1854003 28.7391666,34.191149 28.7391666,25.9282605 C28.7391666,17.6687546 34.7811342,11.6712416 43.104423,11.6712416 L43.104423,11.6712416 Z M122.7511,12.2344144 C125.538456,12.2375553 126.884175,13.6024823 126.884175,16.4183466 L126.884175,16.4183466 L126.86823,39.755833 L126.855425,39.755833 L126.855425,39.7653763 L125.016355,39.7653763 L123.164722,39.7717787 L123.024714,39.7653763 L119.057136,39.7653763 L119.057136,33.5230003 L119.031768,12.2344144 L122.7511,12.2344144 Z M94.8891446,1.64575024 C97.0622283,1.64575024 99.0762175,2.08486077 99.0762175,5.31422578 L99.0762175,5.31422578 L99.0762175,21.4644332 L100.333028,21.4644332 C101.277931,21.4644332 101.907907,21.2353951 102.219814,20.7771981 L102.219814,20.7771981 L107.739923,12.2344144 L116.661416,12.2344144 L109.311781,23.1539518 C108.936212,23.7074606 108.544818,24.1847441 108.163087,24.5888224 L108.163087,24.5888224 L107.895876,24.8433495 L108.150524,25.1074198 C108.582749,25.5667041 108.949017,26.0839726 109.238576,26.6442463 L109.238576,26.6442463 L109.241596,26.6442463 L112.23238,32.3076245 L116.744165,39.7653763 L110.689392,39.7653763 C108.40481,39.7653763 107.192695,39.3867869 105.974179,37.1533028 L105.974179,37.1533028 L101.615207,28.9254466 C101.331929,28.435479 100.721161,28.3305032 99.8207122,28.3305032 L99.8207122,28.3305032 L99.0794791,28.3305032 L99.0794791,39.7653763 L91.1762144,39.7653763 L91.1666711,1.64575024 Z M147.603307,11.6075796 C154.027004,11.6108413 157.421987,15.28886 157.421987,22.2439601 L157.421987,22.2439601 L157.434792,39.755833 L153.699393,39.755833 C150.845356,39.755833 149.525004,38.4227973 149.525004,35.5720217 L149.525004,35.5720217 L149.525004,23.5802574 C149.525004,20.2395142 148.567417,18.9445307 146.117458,18.9445307 C143.072556,18.9445307 140.635402,20.7931438 139.763704,23.7679817 C139.432831,24.7510578 139.273736,25.8265464 139.273736,27.0674111 L139.273736,27.0674111 L139.273736,39.755833 L131.42459,39.755833 L131.402242,12.2248712 L134.943394,12.2248712 C137.084586,12.2248712 138.509913,13.1125147 138.930058,14.7319688 L138.930058,14.7319688 L139.101837,15.3905742 L139.579241,14.907009 C141.017253,13.3956715 143.581731,11.6075796 147.603307,11.6075796 L147.603307,11.6075796 Z M73.9348142,18.3431848 C69.9991276,18.3431848 67.2596094,21.4644332 67.2596094,25.9283813 C67.2596094,30.3953495 69.998886,33.5197387 73.9315526,33.5197387 L73.9315526,33.5197387 C77.9502294,33.5197387 80.6545946,30.4654139 80.6545946,25.9283813 C80.6545946,21.4644332 77.8800442,18.3431848 73.9348142,18.3431848 Z M43.1075638,18.3431848 C39.1717563,18.3431848 36.4356206,21.4644332 36.4356206,25.9283813 C36.4356206,30.3953495 39.1717563,33.5197387 43.104423,33.5197387 C47.1228582,33.5197387 49.8272233,30.4654139 49.8272233,25.9283813 C49.8272233,21.4644332 47.062337,18.3431848 43.1075638,18.3431848 Z M122.655837,0.462169181 C125.179001,0.462169181 127.22464,2.50780817 127.22464,5.03109311 C127.130536,7.55437804 125.008793,9.52379179 122.485508,9.42980885 C120.094017,9.34077874 118.175943,7.42258448 118.086792,5.03109311 C118.086792,2.50780817 120.132431,0.462169181 122.655837,0.462169181 Z M190.1741,35.5019815 C190.1741,32.9661333 192.21684,30.9172327 194.73336,30.9172327 C197.263772,30.9191655 199.313398,32.9720525 199.311466,35.5023439 C199.309411,38.0299776 197.260994,40.078395 194.73336,40.0804486 C192.219981,40.0804486 190.1741,38.0282864 190.1741,35.4988406 M215.547876,11.6998351 C219.598202,11.6998351 225.621083,13.4179834 225.621083,18.1522835 L225.621083,18.1522835 L225.621083,21.7412722 L221.516759,21.7348697 C220.269854,21.7418762 219.173829,20.9106466 218.844164,19.7081965 L218.844164,19.7081965 L218.809132,19.5649268 C218.557625,18.7154563 216.954237,18.2128047 215.547876,18.2128047 C211.208231,18.2128047 208.179154,21.4103991 208.179154,25.9856046 C208.179154,31.2830776 212.086211,33.6565696 215.955095,33.6565696 C219.708569,33.6565696 222.662127,31.0028563 223.313675,30.3659547 L223.397202,30.2828324 C223.429181,30.2503324 223.44632,30.2319345 223.447879,30.2299371 L223.44812,30.2299371 L223.877567,29.7750017 L227.129159,35.1679071 L226.912926,35.4351183 C226.912242,35.4359704 226.91028,35.4383666 226.907043,35.4422516 L226.872352,35.4829834 C226.431284,35.9927558 222.429061,40.3730883 215.388781,40.3730883 C206.810844,40.3730883 200.593957,34.3470664 200.593957,26.0428642 C200.593957,17.7322595 206.88103,11.6998351 215.547876,11.6998351 Z M242.16254,11.6712416 C250.508177,11.6712416 256.585177,17.6686338 256.585177,25.9315222 C256.585177,34.191149 250.511318,40.1854003 242.16254,40.1854003 C233.832849,40.1854003 227.790881,34.191149 227.790881,25.9282605 C227.790881,17.6687546 233.83297,11.6712416 242.16254,11.6712416 Z M291.643737,11.6998351 C297.701651,11.6998351 300.781585,15.2473892 300.781585,22.2439239 L300.781585,22.2439239 L300.775062,39.752656 L297.249977,39.752656 C294.478809,39.752656 293.244226,38.5117912 293.244226,35.7437641 L293.244226,35.7437641 L293.244226,23.4943319 C293.244226,19.98181 292.391614,18.6772833 290.081663,18.6772833 C286.893612,18.6772833 284.838188,21.540743 284.233702,24.3342591 C283.934599,25.3269992 283.810537,26.3196186 283.810537,27.6463726 L283.810537,27.6463726 L283.810537,39.752656 L276.263634,39.752656 L276.263634,23.4943319 C276.263634,20.4526912 275.264612,18.8776917 273.228275,18.6804241 C269.922564,18.3654967 267.95617,21.5121133 267.240305,24.4392349 C266.976235,25.5369509 266.84263,26.5836889 266.84263,27.6463726 L266.84263,27.6463726 L266.84263,39.752656 L259.349846,39.752656 L259.381737,12.3266699 L262.681046,12.3266699 C264.736469,12.3266699 266.094994,13.1634564 266.508616,14.6906188 L266.508616,14.6906188 L266.795034,15.7501617 L267.53965,14.9451458 C268.675418,13.7361725 271.122236,11.6998351 274.771625,11.6998351 C278.248994,11.6998351 280.74981,13.0456757 282.207028,15.696043 L282.207028,15.696043 L282.652541,16.5010588 L283.218855,15.7819322 C285.262561,13.2135887 288.361703,11.7119152 291.643979,11.6998351 Z M242.16254,18.3431848 C238.229873,18.3431848 235.487335,21.4644332 235.487335,25.9283813 C235.487335,30.3953495 238.229873,33.5197387 242.16254,33.5197387 C246.180975,33.5197387 248.88534,30.4654139 248.88534,25.9283813 C248.88534,21.4644332 246.114172,18.3431848 242.16254,18.3431848 Z M183.444897,12.1612213 C181.955787,12.1612213 180.810476,12.7561647 180.23474,13.8411966 L180.018386,14.2610998 L179.655621,13.9429108 C178.389267,12.8484565 176.11761,11.5471914 172.430048,11.5471914 C165.089836,11.5471914 160.148846,17.0610183 160.148846,25.260124 C160.148846,33.4562096 165.261735,39.183129 172.576459,39.183129 C175.074013,39.183129 177.04995,38.5977288 178.615286,37.4141236 L179.219772,36.9591882 L179.219772,37.7227694 C179.219772,41.4007882 176.843019,43.4307231 172.532004,43.4307231 C170.435266,43.4307231 168.529394,42.9216689 167.250477,42.4570695 C165.589709,41.9544178 164.609653,42.3711802 163.938363,44.0416122 L163.31479,45.5814587 L162.433549,47.83415 L162.977635,48.1237093 C165.73926,49.5872097 169.33151,50.4621692 172.576821,50.4621692 C179.258308,50.4621692 187.066261,47.0419391 187.066261,37.4141236 L187.09477,12.1612213 L183.444656,12.1612213 M173.969774,32.3075158 C169.677725,32.3075158 168.150563,28.5659558 168.150563,25.0565748 C168.150563,23.5102051 168.541836,18.4736617 173.559414,18.4736617 C176.050808,18.4736617 179.369203,19.1863858 179.369203,25.3142427 C179.369203,31.0954016 176.432538,32.3075158 173.969774,32.3075158 M22.0353562,20.2235806 L20.8805015,19.5745184 L21.8891873,18.7122431 C23.0632493,17.703678 25.0263814,15.4351618 25.0263814,11.5217024 C25.0263814,5.52745109 20.3809906,1.65856719 13.1873092,1.65856719 L4.04305891,1.65856719 C1.90597379,1.73648364 0.206428802,3.47818808 0.180577453,5.6164812 L0.180577453,39.628642 L13.3494237,39.628642 C21.3449802,39.628642 26.5057067,35.2760721 26.5057067,28.5340644 C26.5057067,24.9037619 24.8385363,21.8017209 22.0353562,20.2235806 L22.0353562,20.2235806 Z M7.48865716,12.6003318 L7.48865716,10.5894835 C7.48865716,8.83002131 8.23327265,7.99323489 9.86541085,7.88499747 L13.1362105,7.88499747 C15.9392698,7.88499747 17.6192451,9.56183193 17.6192451,12.3711729 C17.6192451,14.5093452 16.4674105,17.0068996 13.2379247,17.0068996 L7.48865716,17.0068996 L7.48865716,12.6003318 Z M13.8774436,33.2048234 L7.48865716,33.1984209 L7.48865716,25.5623673 C7.48865716,23.9270883 8.12177361,23.0807586 9.51859205,22.8834911 L13.8774436,22.8834911 C16.9858871,22.8834911 18.9968563,24.8433616 18.9998763,28.0154671 C18.9968563,31.2735826 17.0367442,33.2016825 13.8774436,33.2016825 L13.8774436,33.2048234 Z" id="booking.com" fill="#231F20"></path>
    </g>
</svg>