<?xml version="1.0" encoding="UTF-8"?>
<svg viewBox="0 0 33 33" version="1.1" xmlns="http://www.w3.org/2000/svg" xmlns:xlink="http://www.w3.org/1999/xlink">
    <title>chromealive</title>
    <g id="Products" stroke="none" stroke-width="1" fill="none" fill-rule="evenodd">
        <g id="Homepage-Copy" transform="translate(-115.000000, -238.000000)" fill="#B700C0" fill-rule="nonzero">
            <g id="TOOLS-MENU" transform="translate(71.111533, 37.977778)">
                <g id="Group-3" transform="translate(40.222480, 110.022222)">
                    <path d="M34.8433557,100.517912 C35.1179619,100.517912 35.3629568,100.691936 35.4558111,100.952906 C36.0885604,102.730652 36.4093704,104.59657 36.4093704,106.499033 C36.4093704,110.906789 34.710105,115.050674 31.624407,118.16724 C28.539028,121.283678 24.4365915,123 20.073078,123 C19.9722466,123 19.8763291,122.993813 19.7915796,122.988334 C19.7200403,122.983693 19.6524577,122.979375 19.5934904,122.979375 C19.3659815,122.979375 19.1549374,122.859299 19.036939,122.662781 C18.9189407,122.466264 18.911155,122.221793 19.0164537,122.017992 C19.1063672,121.843902 20.2424916,119.647017 21.5687499,117.211092 L21.836283,116.721249 C21.8812098,116.639253 21.9262845,116.557124 21.9714753,116.474927 L22.4215192,115.661354 C23.4249843,113.859072 24.4340195,112.129685 25.1110136,111.176654 C26.0135828,109.90377 26.9366374,108.352254 26.9366374,106.499033 C26.9366374,104.677975 26.2224571,102.952178 24.9256241,101.639654 C24.7397879,101.451516 24.6843306,101.168889 24.7852258,100.923387 C24.8734534,100.708573 25.0660463,100.559242 25.2891279,100.525265 L25.3863856,100.517912 L34.8433557,100.517912 Z M6.83065233,97.3884872 C7.0556086,97.3903887 7.26352563,97.509498 7.38069434,97.7034375 C7.3881208,97.7157242 7.40175303,97.7382931 7.42118698,97.7705114 L7.49648992,97.8954817 C7.86408979,98.5060921 9.00895186,100.415079 10.2328548,102.528825 L10.5400732,103.060894 C10.6427588,103.23925 10.7455893,103.418396 10.8481605,103.597698 L11.1546925,104.135438 C12.1711796,105.92525 13.1213372,107.667392 13.6011021,108.728982 C14.9317584,111.673459 17.3512667,113.431418 20.0731419,113.431418 C20.5503682,113.431418 21.0390179,113.373346 21.5254978,113.258684 C21.7782147,113.199193 22.0415252,113.29684 22.1960271,113.507086 C22.3284572,113.687407 22.3592849,113.921001 22.2838081,114.126975 L22.2371893,114.227285 L17.597538,122.353406 C17.4799226,122.559527 17.2632626,122.682375 17.0338391,122.682375 C16.9921663,122.682375 16.9501107,122.67825 16.908055,122.67 C13.2452564,121.942453 9.9065863,119.940023 7.50705276,117.031641 C5.07452563,114.083168 3.73487117,110.342566 3.73487117,106.499033 C3.73487117,103.38685 4.61338124,100.342084 6.2753773,97.6939629 C6.39586451,97.5020859 6.60761059,97.3862637 6.83065233,97.3884872 Z M34.3782546,101.832627 L26.7790723,101.832627 C27.7276538,103.20058 28.2383843,104.814809 28.2383843,106.498969 C28.2383843,108.737232 27.1325568,110.583814 26.1690419,111.942551 C25.5268226,112.846665 24.5478153,114.526597 23.5658095,116.290966 L23.1135786,117.108768 C22.1385506,118.882754 21.2118764,120.63481 20.6673455,121.673555 C28.6831915,121.357541 35.1075596,114.671883 35.1075596,106.498969 C35.1075596,104.903238 34.8623733,103.335674 34.3782546,101.832627 Z M6.83422611,99.330041 C5.65532762,101.537689 5.03661811,103.994965 5.03661811,106.499033 C5.03661811,113.456071 9.76039441,119.515244 16.3792324,121.203173 L16.7062645,121.282646 L20.4436656,114.736658 C20.319796,114.742975 20.1961818,114.746197 20.0731419,114.746197 C16.827326,114.746197 13.9651803,112.700842 12.4169068,109.274965 C11.4135061,107.054877 8.15620316,101.543684 6.83422611,99.330041 Z M33.5204601,108.078157 L33.6162751,108.089027 C33.9696319,108.155994 34.2023101,108.499529 34.13594,108.856342 C33.682007,111.299953 32.6170863,113.614723 31.0562408,115.550572 C29.51403,117.463283 27.5134189,118.977029 25.2708123,119.928035 C25.1885517,119.962904 25.103164,119.979469 25.0191165,119.979469 C24.7648681,119.979469 24.5233193,119.828068 24.4187226,119.576443 C24.2795369,119.241674 24.4354428,118.856373 24.7669103,118.715801 C28.9900255,116.924906 32.0141397,113.148533 32.8565291,108.613869 C32.9108319,108.321879 33.1484066,108.111651 33.4264689,108.081429 L33.5204601,108.078157 Z M20.0731419,100.722809 C23.2263587,100.722809 25.7922641,103.314018 25.7927747,106.49884 C25.7927747,109.688818 23.226933,112.283895 20.0731419,112.283895 C16.9147558,112.283895 14.3452128,109.688754 14.3452128,106.498969 C14.3452128,103.313953 16.9147558,100.722809 20.0731419,100.722809 Z M20.0731419,102.037523 C17.6325737,102.037523 15.6469597,104.038922 15.6469597,106.498969 C15.6469597,108.96385 17.6325737,110.96918 20.0731419,110.96918 C22.5092428,110.96918 24.4910277,108.963914 24.4910277,106.498969 C24.490581,104.038922 22.5087322,102.037523 20.0731419,102.037523 Z M33.740719,105.411322 C34.1001385,105.411322 34.3915924,105.705615 34.3915924,106.06868 C34.3915924,106.218791 34.3893588,106.370385 34.3850192,106.5194 C34.3745532,106.875762 34.0853328,107.157357 33.734784,107.157357 L33.734784,107.157357 L33.7151282,107.1571 C33.3557725,107.1464 33.0731892,106.843471 33.0837828,106.4806 C33.0878033,106.344475 33.0898455,106.2059 33.0898455,106.06868 C33.0898455,105.705615 33.3812995,105.411322 33.740719,105.411322 Z M20.0731419,90 C23.0346513,90 25.9340025,90.8090801 28.4578523,92.3397773 C30.9049298,93.8239395 32.9365561,95.9407734 34.3331357,98.4614707 C34.4453267,98.6639824 34.443476,98.9112246 34.3282218,99.1119316 C34.2130314,99.3127031 34.0015406,99.4372266 33.7718618,99.4396758 C33.7165821,99.4402992 30.7377424,99.4716679 27.4661352,99.5044998 L26.8862891,99.5103029 L26.8862891,99.5103029 L25.9327394,99.5197709 C23.6039333,99.5427697 21.3325361,99.5642348 20.0438497,99.5738672 C17.0774902,99.5961035 14.4707416,101.516484 13.5572596,104.352357 C13.4772964,104.600824 13.2591048,104.777812 13.0016655,104.803271 C12.9804143,104.805463 12.9591631,104.80643 12.9381034,104.80643 C12.7374615,104.80643 12.5484943,104.712765 12.425697,104.554253 L12.3700648,104.469727 L7.82467187,96.2548535 C7.68912375,96.0098672 7.72250024,95.7050039 7.90769828,95.4958535 C11.0015011,92.0032031 15.4355966,90 20.0731419,90 Z M20.0731419,91.3147148 C16.0923577,91.3147148 12.2743776,92.9187727 9.46844553,95.743045 L9.19125727,96.0295254 L12.8578849,102.656338 C14.2409352,100.001514 16.9771054,98.2821621 20.0341494,98.2592812 C22.7495152,98.239043 29.8326064,98.1661465 32.6140231,98.1370781 C29.8406473,93.9020566 25.1323924,91.3147148 20.0731419,91.3147148 Z" id="chromealive"></path>
                </g>
            </g>
        </g>
    </g>
</svg>