<?xml version="1.0" encoding="UTF-8"?>
<svg width="39.7774396px" height="39.9902445px" viewBox="0 0 39.7774396 39.9902445" version="1.1" xmlns="http://www.w3.org/2000/svg" xmlns:xlink="http://www.w3.org/1999/xlink">
    <title>client</title>
    <g id="Logos" stroke="none" stroke-width="1" fill="none" fill-rule="evenodd">
        <g id="Artboard" transform="translate(-214.505, -220.5986)" fill="#282828" fill-rule="nonzero">
            <path d="M246.705643,257.120763 C246.892147,257.109746 247.077146,257.10177 247.267762,257.10177 C247.662111,257.10177 248.01502,257.129797 248.343058,257.187729 L248.252759,257.172668 C248.298173,257.180076 248.34292,257.187978 248.387022,257.196352 C248.633046,257.243067 248.858976,257.304469 249.068562,257.376773 C249.572637,257.554459 250.04344,257.821318 250.559461,258.186391 C250.634679,258.239606 250.693929,258.282268 250.825098,258.377279 C251.095418,258.573084 251.333303,258.735884 251.555499,258.870202 C252.253591,259.292201 252.796819,259.433061 253.704532,259.433061 C254.023753,259.433061 254.28244,259.691647 254.28244,260.010805 C254.28244,260.329994 254.023801,260.588873 253.70461,260.588873 C253.408663,260.588873 253.136059,260.573077 252.879793,260.540696 L252.921728,260.546811 C252.890121,260.542857 252.858825,260.53867 252.827834,260.534256 C252.504376,260.488185 252.214069,260.41737 251.949622,260.329159 L251.975852,260.338041 C251.960534,260.332937 251.945252,260.327753 251.930001,260.322488 C251.415394,260.144829 250.937566,259.875141 250.412986,259.504007 C250.337778,259.450798 250.27852,259.40813 250.147352,259.31312 C249.937665,259.161234 249.747495,259.029208 249.569024,258.914931 C249.561767,258.911467 249.554474,258.906798 249.547172,258.902145 C248.784214,258.416034 248.231364,258.257338 247.26784,258.257338 C246.187463,258.257338 245.537396,258.500892 244.678615,259.104926 C244.59837,259.161367 244.534398,259.207371 244.388405,259.31312 C243.559226,259.913811 242.915074,260.267965 242.187868,260.445235 L242.295181,260.41793 C242.228173,260.435881 242.159958,260.452532 242.090381,260.467848 L242.187868,260.445235 C242.116853,260.462546 242.045045,260.478171 241.972196,260.492173 L242.090381,260.467848 C242.003479,260.486977 241.914453,260.504024 241.823,260.518919 L241.972196,260.492173 C241.910118,260.504105 241.847284,260.514859 241.783538,260.524476 C241.490332,260.568709 241.177854,260.588873 240.831069,260.588873 C240.535135,260.588873 240.262538,260.573078 240.006276,260.540699 L240.047381,260.54671 C240.021631,260.543486 239.996086,260.540106 239.970745,260.536575 C239.621824,260.487953 239.311349,260.410593 239.03027,260.313626 C238.526194,260.135997 238.055392,259.86908 237.53937,259.504007 C237.464153,259.450792 237.404902,259.40813 237.273734,259.31312 C236.154122,258.502136 235.590928,258.257338 234.394299,258.257338 C233.313853,258.257338 232.663771,258.500894 231.80497,259.104944 C231.724733,259.16138 231.660766,259.20738 231.514787,259.31312 C230.818478,259.817549 230.247084,260.151746 229.644868,260.351071 L229.74638,260.317211 C229.694261,260.335406 229.641429,260.3528 229.587807,260.369364 L229.644868,260.351071 C229.558345,260.379709 229.471186,260.405563 229.382928,260.428738 L229.587807,260.369364 C229.517404,260.391111 229.445639,260.411427 229.372337,260.430243 C229.213123,260.471113 229.046655,260.504913 228.871141,260.530956 L228.949301,260.519777 C228.894058,260.528618 228.838166,260.536572 228.781528,260.543661 C228.483613,260.580949 228.165065,260.5943 227.811772,260.586919 C227.588667,260.582248 227.382105,260.569902 227.187445,260.548807 C226.626066,260.479258 226.162607,260.336896 225.76124,260.15692 C225.339864,259.959457 224.911981,259.684098 224.399804,259.313119 C223.280251,258.502178 222.716898,258.257338 221.520059,258.257338 C220.323234,258.257338 219.760003,258.502136 218.640391,259.31312 C218.509211,259.40813 218.44994,259.450805 218.374735,259.504007 C217.858657,259.869098 217.387841,260.136016 216.882748,260.31373 C216.593196,260.413869 216.271187,260.493157 215.907751,260.541403 L215.942172,260.536234 C215.916984,260.539582 215.89164,260.542767 215.866132,260.545791 C215.621973,260.574735 215.362848,260.588873 215.082823,260.588873 C214.763633,260.588873 214.505,260.329995 214.505,260.010805 C214.505,259.691616 214.763633,259.432983 215.082823,259.432983 C216.279662,259.432983 216.843015,259.188142 217.962568,258.377201 C218.093737,258.28219 218.152987,258.239528 218.228205,258.186313 C218.744227,257.821241 219.215038,257.554381 219.720135,257.376722 C219.966304,257.29143 220.236202,257.221326 220.534986,257.17259 C220.83784,257.124813 221.161854,257.101693 221.520059,257.101693 C221.71596,257.101693 221.905921,257.110129 222.092339,257.126618 L222.097779,252.232378 L218.336138,252.227378 C218.016948,252.227378 217.758316,251.968745 217.758316,251.649555 L217.758316,247.586194 C217.758316,247.267004 218.016948,247.008371 218.336138,247.008371 L218.758179,247.008371 L218.763179,246.262409 C218.763179,245.94322 219.021812,245.684587 219.341002,245.684587 C219.660192,245.684587 219.918825,245.94322 219.918825,246.262409 L219.918825,247.003371 L220.812823,247.008371 L220.817823,241.944362 C220.817823,241.625172 221.076456,241.366539 221.395646,241.366539 C221.714836,241.366539 221.973469,241.625172 221.973469,241.944362 L221.973469,247.003371 L230.136197,247.008371 L230.141197,245.252261 C230.141197,244.760711 230.541184,244.360725 231.032734,244.360725 L237.754699,244.360725 C238.246248,244.360725 238.646235,244.760711 238.646235,245.252261 L238.646235,247.003371 L246.808964,247.008371 L246.813964,237.933765 C246.813964,237.690388 246.616026,237.492426 246.372624,237.492426 L222.414886,237.492426 C222.171535,237.492426 221.973546,237.690415 221.973546,237.933765 L221.973546,239.614159 C221.973546,239.933298 221.714886,240.191982 221.395724,240.191982 C221.076561,240.191982 220.817901,239.933298 220.817901,239.614159 L220.817901,237.933765 C220.817901,237.053201 221.534322,236.33678 222.414886,236.33678 L225.239866,236.33678 L227.146295,222.898809 C227.186668,222.613811 227.4306,222.401959 227.718416,222.401959 L228.490773,222.401959 L228.495773,221.176451 C228.495773,220.857312 228.754432,220.598628 229.073595,220.598628 C229.392758,220.598628 229.651418,220.857312 229.651418,221.176451 L229.651418,222.396959 L230.428774,222.401959 C230.716668,222.401959 230.9606,222.61381 231.000896,222.898808 L232.902374,236.332481 L235.414938,236.33678 L235.419938,229.213807 C235.419938,228.894668 235.678598,228.635984 235.997761,228.635984 L237.469193,228.635984 L243.737379,226.045386 C244.032674,225.923586 244.370282,226.06371 244.492169,226.358643 C244.614058,226.653579 244.473818,226.991481 244.178913,227.113356 L240.518709,228.626286 L240.532,228.625628 L240.520619,228.630907 L241.501,228.630628 L242.484887,228.635907 C242.673201,228.635907 242.847508,228.727416 242.954848,228.877537 L243.002693,228.95733 L243.726791,230.419749 L243.731,230.415628 L244.768,229.518628 L250.612007,224.464863 L250.596,224.471628 L250.608734,224.461083 L248.559,225.307628 L246.351287,226.215421 C246.085763,226.325166 245.785605,226.222558 245.639305,225.985905 L245.596496,225.902163 C245.474607,225.607228 245.614848,225.269327 245.909752,225.147451 L253.483882,222.016761 C253.745984,221.908592 254.047606,222.006208 254.196375,222.247351 C254.345145,222.488494 254.297071,222.80206 254.082891,222.987581 L252.551933,224.313541 L252.550206,231.135878 C252.550206,231.455017 252.291546,231.713701 251.972383,231.713701 C251.653221,231.713701 251.394561,231.455017 251.394561,231.135878 L251.394561,225.326847 L251.389,225.330628 L248.568,227.769628 L244.262331,231.492982 L245.651349,234.306476 C245.740025,234.485599 245.729857,234.697776 245.624461,234.86758 C245.51906,235.037392 245.333381,235.140698 245.133543,235.140698 L242.290535,235.140698 L242.285535,236.33178 L246.372624,236.33678 C247.253189,236.33678 247.969609,237.053201 247.969609,237.933765 L247.969609,247.003371 L248.863608,247.008371 L248.868608,246.262409 C248.868608,245.94322 249.127241,245.684587 249.44643,245.684587 C249.76562,245.684587 250.024253,245.94322 250.024253,246.262409 L250.024253,247.003371 L250.451294,247.008371 C250.770484,247.008371 251.029117,247.267004 251.029117,247.586194 L251.029117,251.649555 C251.029117,251.968745 250.770484,252.227378 250.451294,252.227378 L246.694653,252.227378 L246.689653,257.121715 Z M240.39201,252.227378 L237.498956,252.227378 L237.493956,253.067135 C237.493956,253.757078 236.932566,254.318467 236.242624,254.318467 L234.9765,254.318467 L234.9715,257.122492 C235.08565,257.133192 235.194896,257.145821 235.300142,257.160644 C235.850818,257.242167 236.305614,257.395842 236.700264,257.584603 C237.08152,257.774609 237.474116,258.031433 237.951479,258.377201 C238.95018,259.10069 239.440718,259.338493 240.391531,259.415016 L240.396932,256.994815 C240.396932,256.675625 240.655565,256.416993 240.974755,256.416993 C241.293944,256.416993 241.552577,256.675625 241.552577,256.994815 L241.552577,259.379026 L241.596606,259.372816 C242.3741,259.260071 242.809821,259.02961 243.710426,258.377201 C244.200701,258.022146 244.543401,257.794454 244.887652,257.62243 C245.091149,257.520742 245.295188,257.438506 245.530573,257.360914 L245.534008,252.232378 L241.557655,252.227378 L241.552655,254.664535 C241.552655,254.983725 241.294022,255.242358 240.974832,255.242358 C240.655642,255.242358 240.39701,254.983725 240.39701,254.664535 L240.39201,252.227378 Z M228.431596,259.406832 C229.361442,259.331651 229.852311,259.090352 230.836808,258.377201 C231.339417,258.013138 231.748082,257.747678 232.149275,257.555566 L232.089708,257.583817 C232.115044,257.57171 232.140628,257.559748 232.16647,257.54794 C232.473032,257.407866 232.815845,257.289522 233.211119,257.209262 C233.397885,257.173395 233.59587,257.14689 233.811304,257.127472 L233.815855,254.32339 L232.544809,254.31839 C231.854866,254.31839 231.293476,253.757 231.293476,253.067057 L231.288476,252.2273 L228.395423,252.2273 L228.390423,259.410032 Z M227.229778,252.227378 L223.258425,252.227378 L223.253425,257.35601 C223.415435,257.410307 223.562566,257.466491 223.704717,257.529369 C223.79504,257.569322 223.883352,257.611976 223.972193,257.658567 C224.293645,257.827143 224.622024,258.047243 225.077628,258.377279 C225.994748,259.041589 226.429773,259.26834 227.229062,259.383897 L227.229778,252.227378 Z M243.543292,253.652704 C243.862482,253.652704 244.121115,253.911337 244.121115,254.230526 L244.121115,256.708066 C244.121115,257.027256 243.862482,257.285889 243.543292,257.285889 C243.224103,257.285889 242.96547,257.027256 242.96547,256.708066 L242.96547,254.230526 C242.96547,253.911337 243.224103,253.652704 243.543292,253.652704 Z M225.24414,253.652704 C225.563279,253.652704 225.821963,253.911364 225.821963,254.230526 L225.821963,256.708066 C225.821963,257.027256 225.56333,257.285889 225.24414,257.285889 C224.92495,257.285889 224.666317,257.027256 224.666317,256.708066 L224.666317,254.230526 C224.666317,253.911337 224.92495,253.652704 225.24414,253.652704 Z M236.333311,252.227378 L232.454122,252.227378 L232.449122,253.067135 C232.449122,253.119941 232.492002,253.162822 232.544809,253.162822 L236.242624,253.162822 C236.29543,253.162822 236.338311,253.119941 236.338311,253.067135 L236.333311,252.227378 Z M249.868472,248.164016 L218.918961,248.164016 L218.913961,251.066732 L249.868472,251.071732 L249.868472,248.164016 Z M237.48559,245.51637 L231.301842,245.51637 L231.296842,247.003371 L237.48559,247.008371 L237.48559,245.51637 Z M244.356447,238.709878 C244.675609,238.709878 244.934269,238.968562 244.934269,239.287701 L244.934269,240.143051 C244.934269,240.462191 244.675609,240.720874 244.356447,240.720874 C244.037284,240.720874 243.778624,240.462191 243.778624,240.143051 L243.778624,239.287701 C243.778624,238.968562 244.037284,238.709878 244.356447,238.709878 Z M224.430908,238.709878 C224.750071,238.709878 225.008731,238.968562 225.008731,239.287701 L225.008731,240.143051 C225.008731,240.462191 224.750071,240.720874 224.430908,240.720874 C224.111745,240.720874 223.853086,240.462191 223.853086,240.143051 L223.853086,239.287701 C223.853086,238.968562 224.111745,238.709878 224.430908,238.709878 Z M236.386309,238.709878 C236.705472,238.709878 236.964132,238.968562 236.964132,239.287701 L236.964132,240.143051 C236.964132,240.462191 236.705472,240.720874 236.386309,240.720874 C236.067146,240.720874 235.808486,240.462191 235.808486,240.143051 L235.808486,239.287701 C235.808486,238.968562 236.067146,238.709878 236.386309,238.709878 Z M232.401124,238.709878 C232.720286,238.709878 232.978946,238.968562 232.978946,239.287701 L232.978946,240.143051 C232.978946,240.462191 232.720286,240.720874 232.401124,240.720874 C232.081961,240.720874 231.823301,240.462191 231.823301,240.143051 L231.823301,239.287701 C231.823301,238.968562 232.081961,238.709878 232.401124,238.709878 Z M240.371417,238.709878 C240.690579,238.709878 240.949239,238.968562 240.949239,239.287701 L240.949239,240.143051 C240.949239,240.462191 240.690579,240.720874 240.371417,240.720874 C240.052254,240.720874 239.793594,240.462191 239.793594,240.143051 L239.793594,239.287701 C239.793594,238.968562 240.052254,238.709878 240.371417,238.709878 Z M228.416016,238.709878 C228.735179,238.709878 228.993838,238.968562 228.993838,239.287701 L228.993838,240.143051 C228.993838,240.462191 228.735179,240.720874 228.416016,240.720874 C228.096853,240.720874 227.838193,240.462191 227.838193,240.143051 L227.838193,239.287701 C227.838193,238.968562 228.096853,238.709878 228.416016,238.709878 Z M241.124967,235.140698 L236.580583,235.140698 L236.575583,236.33178 L241.124967,236.33678 L241.124967,235.140698 Z M231.562302,235.16488 L230.115114,236.327883 L230.123,236.327628 L230.833,236.331628 L231.730023,236.33678 L231.729,236.331628 L231.565434,235.168777 L231.563,235.170628 Z M227.002865,232.193429 L227.002,232.194628 L226.412139,236.331002 L226.417,236.330628 L226.719,236.331628 L228.257333,236.336703 L230.875939,234.233787 L230.87,234.230628 L227.002865,232.193429 Z M242.122993,229.791552 L236.580505,229.791552 L236.575505,233.979975 L244.1945,233.984975 L244.192,233.979628 L243.077,231.723628 L242.122993,229.791552 Z M230.755157,229.458621 L227.803044,231.294512 L227.808,231.296628 L229.168,232.015628 L231.273792,233.12936 L231.272,233.122628 L230.757797,229.462867 L230.756,229.463628 Z M240.912121,230.883737 C241.231233,230.883737 241.489943,231.142447 241.489943,231.461559 L241.489943,231.746132 C241.489943,232.065271 241.231283,232.323955 240.912121,232.323955 C240.592958,232.323955 240.334298,232.065271 240.334298,231.746132 L240.334298,231.461559 C240.334298,231.14242 240.592958,230.883737 240.912121,230.883737 Z M238.388343,230.883737 C238.707506,230.883737 238.966166,231.14242 238.966166,231.461559 L238.966166,231.746132 C238.966166,232.065271 238.707506,232.323955 238.388343,232.323955 C238.069181,232.323955 237.810521,232.065271 237.810521,231.746132 L237.810521,231.461559 C237.810521,231.14242 238.069181,230.883737 238.388343,230.883737 Z M227.777887,226.68218 L227.272308,230.254027 L227.278,230.249628 L228.55,229.462628 L230.102936,228.503357 L230.098,228.499628 L227.782837,226.682881 L227.782,226.685628 Z M230.000614,224.133219 L228.32294,225.624079 L228.327,225.627628 L228.562,225.812628 L230.447526,227.296604 L230.446,227.289628 L230.003935,224.136956 L230.001,224.138628 Z M228.895407,223.557604 L228.224462,223.557604 L228.122995,224.243883 L228.128,224.238628 L228.895407,223.562604 L228.889,223.561628 Z" id="client"></path>
        </g>
    </g>
</svg>