<?xml version="1.0" encoding="UTF-8"?>
<svg width="39.555579px" height="39.9499996px" viewBox="0 0 39.555579 39.9499996" version="1.1" xmlns="http://www.w3.org/2000/svg" xmlns:xlink="http://www.w3.org/1999/xlink">
    <title>cloud</title>
    <g id="Logos" stroke="none" stroke-width="1" fill="none" fill-rule="evenodd">
        <g id="Artboard" transform="translate(-333.025, -109.502)" fill="#282828" fill-rule="nonzero">
            <path d="M352.590464,109.544673 C352.726472,109.487725 352.879175,109.487725 353.015176,109.54467 L358.257352,111.737649 C358.540748,111.856159 358.675339,112.184329 358.557854,112.470644 C358.440468,112.756972 358.115626,112.892915 357.832656,112.774192 L353.88453,111.122536 L353.857194,111.163267 L357.074267,119.014091 C358.136907,118.594746 358.218648,118.562489 359.135936,118.178901 L359.384087,118.075102 C362.539253,116.755159 362.539253,116.755159 364.888922,115.772192 L364.856,115.757962 L364.879273,115.749128 L363,114.962962 L360.333508,113.820356 C360.078451,113.713697 359.943927,113.437213 360.005219,113.17426 L360.033005,113.087361 C360.150445,112.801158 360.475344,112.665224 360.758209,112.783816 L366.607706,115.230862 C366.743756,115.287753 366.851849,115.396923 366.908205,115.534392 L372.538307,129.262323 C372.594692,129.399862 372.594672,129.554293 372.538236,129.691703 L366.908052,143.419567 C366.851695,143.557039 366.743601,143.66621 366.607555,143.723099 L353.015028,149.409289 C352.947555,149.437541 352.875393,149.451962 352.802669,149.451962 C352.729945,149.451962 352.657783,149.437541 352.590317,149.409292 L338.997863,143.723022 C338.861814,143.666131 338.75372,143.556961 338.697364,143.419492 L336.835437,138.879476 C336.717964,138.59319 336.852586,138.264998 337.135937,138.146476 C337.419205,138.028019 337.743796,138.163818 337.861157,138.450008 L339.18717,141.683222 L339.201,141.649962 L339.2103,141.673736 L340.532,138.449962 L342.456721,133.824058 L342.444705,133.792178 L334.661903,130.536733 L334.674,130.567962 L334.652334,130.559797 L335.529,132.696962 L336.824064,135.921018 C336.92979,136.178675 336.831318,136.470275 336.604004,136.612422 L336.523564,136.654017 C336.455341,136.682518 336.383472,136.696846 336.311436,136.696846 C336.088632,136.696846 335.88507,136.562062 335.798345,136.350488 L333.067338,129.691636 C333.010888,129.554117 333.010888,129.399689 333.067335,129.262177 L338.697518,115.534317 C338.753875,115.396845 338.861968,115.287675 338.998015,115.230785 Z M348.530422,139.93842 L340.716725,143.181771 L340.716725,143.227897 L351.721118,147.831426 L351.708,147.798962 L351.730766,147.808363 L350.412,144.593962 L348.530422,139.93842 Z M357.107587,139.926605 L357.097939,139.949668 L357.055,140.051962 L353.851674,147.798955 L353.884452,147.831504 L364.888921,143.227975 L364.855,143.213962 L364.879273,143.204912 L361.53,141.802962 L357.107587,139.926605 Z M352.812472,138.129803 L349.570504,139.477932 L349.556489,139.509065 L352.779693,147.369411 L352.825954,147.369411 L356.049089,139.510716 L352.812472,138.129803 Z M362.123284,134.253759 L358.867447,135.588545 L357.518825,138.857444 L357.532306,138.889994 C358.571379,139.324699 358.645598,139.355749 359.578829,139.746164 L359.810904,139.843252 C362.964573,141.162557 364.609278,141.850598 365.313563,142.145238 L365.3,142.111962 L365.323212,142.122174 L363.96,138.797962 L362.123284,134.253759 Z M343.515296,134.239869 L343.482518,134.253446 C341.673735,138.663733 340.934475,140.466229 340.259228,142.11261 L340.292,142.098962 L340.282358,142.122096 L343.619,140.725962 L348.073727,138.889838 L346.752068,135.601888 L343.515296,134.239869 Z M362.737845,126.19844 L361.369925,129.467495 L362.704911,132.741633 L362.728,132.730962 L362.812,132.696962 L365.564305,131.572707 C365.819219,131.46604 366.107643,131.565394 366.248343,131.794988 L366.289524,131.876239 C366.406998,132.162526 366.272375,132.490717 365.989025,132.609239 L363.162408,133.791743 L366.372062,141.6833 L366.418322,141.6833 L370.976521,130.569283 C370.968176,130.569576 370.958994,130.57044 370.948848,130.571912 L370.953391,130.559797 C370.942109,130.564502 370.924951,130.571667 370.902575,130.581016 C370.759631,130.615974 370.475757,130.732572 369.878921,130.982061 L369.704044,131.0552 C368.900591,131.391335 368.900591,131.391335 368.487501,131.564158 C368.419279,131.592659 368.34741,131.606987 368.275374,131.606987 C368.05257,131.606987 367.849008,131.472204 367.762283,131.26063 C367.644808,130.974339 367.779431,130.646148 368.062781,130.527626 L370.518947,129.500044 L370.486,129.486962 L370.509298,129.476981 L367.265,128.118962 L362.737845,126.19844 Z M354.775733,134.23987 L353.536554,137.195528 C354.676296,137.695264 354.676296,137.695264 356.460326,138.441633 L357.69829,135.489532 L354.775733,134.23987 Z M349.191,138.394962 L352.054474,137.224598 L352.069016,137.195215 L350.862693,134.253446 L350.829912,134.239871 L347.921378,135.457062 L349.113007,138.427822 L349.136137,138.418335 L349.191,138.394962 Z M352.812469,133.418772 L351.902053,133.791429 L351.888568,133.823981 L352.779693,135.996643 L352.793,135.963962 L352.802824,135.987156 L353.161,135.110962 L353.717079,133.823981 L352.812469,133.418772 Z M345.162516,130.218837 L345.13141,130.233042 C344.948867,130.678027 344.665309,131.369415 343.926301,133.171334 L343.938317,133.203214 L346.849245,134.421152 L348.087209,131.469287 L345.162516,130.218837 Z M360.442899,130.218915 L357.531919,131.436737 L357.518439,131.469289 L358.723742,134.406904 L358.746,134.395962 L358.911,134.327962 L361.665786,133.203727 L360.474238,130.233044 L360.442899,130.218915 Z M356.493336,131.898751 L355.569436,132.257831 L355.186968,133.171415 C355.988285,133.534085 356.753454,133.854233 357.351701,134.103971 L357.384462,134.071414 L356.493336,131.898751 Z M349.145086,131.885174 L349.112307,131.898759 C348.983285,132.213523 348.983285,132.213523 348.852167,132.533065 C348.849443,132.539704 348.849443,132.539704 348.846718,132.546342 C348.518139,133.346655 348.354247,133.745897 348.221182,134.070641 L348.253,134.056962 L348.244315,134.08012 L349.117,133.714962 L350.405189,133.203964 L350.049697,132.271412 L349.145086,131.885174 Z M354.118,126.228962 L353.015184,126.664066 C352.879033,126.720862 352.726614,126.720862 352.590441,126.664056 L351.47733,126.198439 L350.983518,127.336239 C350.927231,127.473871 350.819149,127.58303 350.682964,127.63984 L349.569809,128.105476 L350.017359,129.262247 C350.073659,129.39991 350.073659,129.554052 350.01735,129.691737 C349.993668,129.749532 349.993668,129.749532 349.88866,130.005683 C349.749713,130.344548 349.749713,130.344548 349.556327,130.815932 L350.682942,131.314112 C350.819149,131.370933 350.927231,131.480091 350.983509,131.617701 L351.444552,132.741945 L352.590463,132.289897 C352.658199,132.26164 352.729931,132.247302 352.802824,132.247302 C352.875716,132.247302 352.947448,132.26164 353.015206,132.289906 C353.072431,132.313824 353.072431,132.313824 353.326055,132.419878 C353.661577,132.560209 353.661577,132.560209 354.128312,132.755521 L354.622129,131.617723 C354.678416,131.480091 354.786498,131.370933 354.922683,131.314122 L356.035838,130.848486 L355.588288,129.691715 C355.531988,129.554052 355.531988,129.39991 355.588297,129.262225 L356.049321,128.138025 L356.035838,128.105476 L354.922705,127.63985 C354.786498,127.58303 354.678416,127.473871 354.622138,127.336261 L354.161095,126.212017 L354.137964,126.221503 L354.118,126.228962 Z M342.869475,126.198591 L335.0867,129.453917 L335.0867,129.500044 L342.867802,132.755522 L342.881,132.722962 L342.896,132.685962 L344.235722,129.486546 L342.900813,126.21272 L342.869475,126.198591 Z M357.107201,128.553916 L356.705439,129.467498 L357.074421,130.386467 L357.107201,130.400047 L359.258433,129.500044 L359.226,129.485962 L359.248785,129.476981 L358.397,129.120962 L357.107201,128.553916 Z M348.498446,128.553916 L346.347214,129.453918 L346.379,129.466962 L346.356862,129.476981 L347.262,129.855962 L348.498446,130.400047 L348.900208,129.486465 L348.531226,128.567495 L348.498446,128.553916 Z M346.882023,124.547165 L346.858,124.556962 L346.784,124.586962 L343.940014,125.750782 L345.131332,128.720996 L345.166041,128.73367 L348.073728,127.517226 L348.087208,127.484674 L346.882023,124.547165 Z M358.756402,124.53281 L357.518438,127.484676 L360.437145,128.732248 L360.446,128.708962 L360.7,128.104962 L361.679346,125.782629 L361.66733,125.750748 L358.756402,124.53281 Z M339.233508,117.27074 L339.219,117.302962 L339.210378,117.280227 L337.371,121.763962 L334.629049,128.384757 L334.652334,128.419244 L342.444859,125.161706 L339.233508,117.27074 Z M366.4184,117.270662 L366.404,117.302962 L366.395269,117.280149 L365.102,120.432962 L363.148849,125.129904 L363.164235,125.163162 L370.943744,128.417229 L370.976521,128.384679 L366.4184,117.270662 Z M357.360558,124.873843 L356.468,125.246962 L355.200455,125.749999 L355.55595,126.68255 L356.460561,127.068788 L356.493338,127.055207 L357.38369,124.883325 L357.351,124.895962 L357.360558,124.873843 Z M348.254733,124.850778 L348.221957,124.883325 L349.112309,127.055207 L350.036211,126.696131 L350.418679,125.782547 L348.254733,124.850778 Z M352.825954,122.957319 L352.811,122.988962 L352.802824,122.966806 L352.446,123.834962 L351.888568,125.129982 C352.134931,125.257332 352.696097,125.494343 352.782108,125.530537 L352.793192,125.535196 L352.812469,125.53519 L353.703594,125.162533 L352.825954,122.957319 Z M365.313563,116.808803 L357.53192,120.064125 L358.853579,123.352075 L362.090351,124.714093 L365.346342,116.841352 L365.313563,116.808803 Z M349.145166,120.512407 L349.117676,120.517959 L347.907126,123.463568 C347.974895,123.496145 348.031102,123.523234 348.084626,123.548652 L348.16401,123.586002 C348.429316,123.7095 348.738551,123.8389 350.204255,124.452241 C350.519439,124.584137 350.519439,124.584137 350.82991,124.714091 L352.06723,121.763675 L352.044,121.752962 L352.016,121.739962 L349.145166,120.512407 Z M351.730688,111.145599 L347.134,113.067962 L340.716571,115.726065 L340.748,115.739962 L340.726219,115.749128 L341.887,116.233962 L343.578383,116.969383 C343.833439,117.076042 343.967964,117.352526 343.906671,117.61548 L343.878885,117.702378 C343.761505,117.988692 343.436595,118.124654 343.15369,118.005927 L340.389239,116.849427 C340.340168,116.828885 340.340168,116.828885 340.292052,116.80879 L340.305,116.840962 L340.282435,116.831866 L341.585,120.007962 L343.48244,124.700438 L346.738586,123.365573 L348.087209,120.096596 L345.666529,119.057012 C345.383132,118.938502 345.248541,118.610332 345.366026,118.324017 C345.483388,118.03775 345.808349,117.901798 346.091224,118.02047 L348.498369,119.027514 L348.531835,119.012051 L351.753819,111.155085 L351.72,111.168962 L351.730688,111.145599 Z M356.425,120.552962 L353.551173,121.729442 L353.537158,121.760575 L354.742954,124.700517 L354.766,124.689962 L354.852,124.654962 L357.684269,123.496901 L357.697748,123.464352 L356.49264,120.526218 L356.46951,120.535705 L356.425,120.552962 Z M352.825954,111.584629 L352.779694,111.584629 L349.556404,119.443246 L352.793175,120.824238 C353.180302,120.670318 353.905067,120.367127 356.035607,119.475874 L352.825954,111.584629 Z" id="cloud"></path>
        </g>
    </g>
</svg>