<?xml version="1.0" encoding="UTF-8"?>
<svg width="36.8896119px" height="40px" viewBox="0 0 36.8896119 40" version="1.1" xmlns="http://www.w3.org/2000/svg" xmlns:xlink="http://www.w3.org/1999/xlink">
    <title>datastore</title>
    <g id="Logos" stroke="none" stroke-width="1" fill="none" fill-rule="evenodd">
        <g id="Artboard" transform="translate(-214.5, -109.477)" fill="#000000" fill-rule="nonzero">
            <path d="M232.944062,109.476962 C234.400156,109.476962 235.849297,109.516962 237.251094,109.595868 C238.330156,109.656649 239.389766,109.741102 240.400703,109.846727 C243.677344,110.189071 251.261562,111.285087 251.385156,114.088758 C251.387969,114.111493 251.389612,114.13454 251.389612,114.157977 C251.389612,114.168133 251.388594,114.178133 251.388047,114.188212 L251.388047,144.795946 C251.388047,146.231337 249.475078,147.397743 245.702344,148.262821 C242.287891,149.04579 237.756719,149.476962 232.944062,149.476962 C228.131406,149.476962 223.600391,149.04579 220.185703,148.262977 C216.412969,147.397899 214.5,146.231493 214.5,144.796102 L214.5,114.158133 C214.5,112.819071 216.175391,111.710165 219.479531,110.862508 C220.186242,110.689146 220.711272,110.56743 221.054623,110.497359 C221.404085,110.426041 221.918273,110.335674 222.597187,110.226258 C225.640469,109.736024 229.218359,109.476962 232.944062,109.476962 Z M250.177228,115.861805 C250.164728,115.870321 250.151134,115.87868 250.138556,115.887196 L250.038478,115.953055 C250.012384,115.969774 249.986212,115.986571 249.959337,116.003212 C249.924337,116.02493 249.888243,116.046493 249.851915,116.068055 C249.824259,116.084462 249.796759,116.100868 249.768322,116.117118 C249.730275,116.138915 249.6909,116.160477 249.651525,116.18204 C249.622931,116.197743 249.594728,116.213446 249.565431,116.228993 L249.43504,116.295946 C249.406759,116.310321 249.379259,116.324696 249.350431,116.338915 C249.296681,116.365399 249.241056,116.391571 249.185197,116.417665 C249.164493,116.427352 249.144806,116.437118 249.123868,116.446727 C249.046915,116.48204 248.967931,116.51704 248.886993,116.551727 L248.804337,116.586102 C248.748712,116.609462 248.693087,116.632743 248.635665,116.65579 C248.600743,116.669774 248.564493,116.683602 248.528947,116.697508 C248.477072,116.717743 248.425353,116.738055 248.372072,116.758055 L248.253634,116.801649 C248.201603,116.820712 248.149493,116.839774 248.096134,116.858602 C248.054572,116.87329 248.012228,116.887821 247.969884,116.902352 C247.91629,116.92079 247.862384,116.939149 247.80754,116.957352 L247.675587,117.000477 L247.5059,117.054462 L247.369962,117.096493 C247.311134,117.114383 247.251368,117.132196 247.191212,117.14993 C247.145353,117.163446 247.099415,117.176962 247.052697,117.190399 L246.862228,117.243993 C246.816056,117.256805 246.770118,117.269696 246.723243,117.28243 C246.655509,117.300868 246.586368,117.318993 246.517228,117.337118 C246.472228,117.348915 246.427697,117.36079 246.382072,117.372508 L246.144337,117.431962 C246.1059,117.441415 246.068243,117.451024 246.029337,117.460477 C245.909493,117.489462 245.787931,117.51829 245.664103,117.546649 C242.249572,118.32954 237.718478,118.76079 232.905743,118.76079 C228.093009,118.76079 223.561993,118.32954 220.147384,117.546649 C220.023556,117.51829 219.901993,117.48954 219.78215,117.460477 C219.743322,117.451102 219.705743,117.441415 219.667306,117.431962 C219.587306,117.412196 219.507384,117.39243 219.429259,117.37243 C219.383712,117.36079 219.339337,117.348915 219.294415,117.337118 C219.225118,117.318915 219.1559,117.300712 219.088087,117.282352 C219.041212,117.269618 218.995275,117.256727 218.949103,117.243915 L218.758634,117.190321 C218.711993,117.176962 218.666056,117.163368 218.620118,117.149852 L218.441368,117.096415 L218.305509,117.054462 L218.135665,117.000399 C218.091447,116.986102 218.047384,116.971805 218.003947,116.957352 C217.949025,116.939071 217.89504,116.920712 217.841368,116.902274 C217.799103,116.887743 217.756681,116.873212 217.715197,116.858524 C217.661837,116.839618 217.609728,116.820633 217.557697,116.801571 C217.518087,116.78704 217.478087,116.772587 217.439259,116.757977 C217.385978,116.737977 217.334181,116.717665 217.282384,116.69743 C217.246837,116.683524 217.210587,116.669696 217.175665,116.655712 C217.118087,116.632587 217.062306,116.609149 217.006525,116.58579 L216.924415,116.551649 C216.843556,116.516962 216.764493,116.481962 216.68754,116.446649 C216.666603,116.43704 216.646837,116.427274 216.626212,116.417587 C216.570353,116.391415 216.514728,116.365321 216.460978,116.338837 C216.43215,116.324618 216.40465,116.310165 216.376368,116.295868 L216.310587,116.262508 L216.245978,116.228915 L216.159962,116.18204 C216.120509,116.160399 216.081134,116.138837 216.043009,116.11704 C216.01465,116.100868 215.987228,116.084462 215.95965,116.068133 C215.923243,116.046571 215.88715,116.02493 215.852072,116.003212 L215.772931,115.953055 L215.672853,115.887196 L215.634259,115.861805 L215.634259,120.464383 C215.634259,120.920946 216.64004,121.924071 220.409415,122.788368 C220.597573,122.831511 220.789261,122.873559 220.984333,122.914499 L220.856026,122.954058 C220.53466,123.054171 220.300839,123.321405 220.252017,123.641508 C220.216633,123.634477 220.181991,123.626597 220.147462,123.61868 C220.023634,123.590321 219.902072,123.561571 219.782228,123.532508 C219.7434,123.523133 219.705822,123.513446 219.667384,123.503993 C219.587384,123.484227 219.507462,123.46454 219.429337,123.444462 C219.38379,123.432821 219.339415,123.420946 219.294493,123.409149 C219.225197,123.390946 219.155978,123.372743 219.088165,123.354383 C219.04129,123.341649 218.995353,123.328758 218.949181,123.315946 L218.758712,123.262352 C218.712072,123.248993 218.666134,123.235399 218.620197,123.221883 L218.441447,123.168446 L218.305587,123.126493 L218.135743,123.07243 C218.091525,123.058133 218.047462,123.043837 218.004025,123.029383 L217.922267,123.001903 L217.841447,122.974305 L217.715275,122.930555 C217.661915,122.911649 217.609806,122.892665 217.557775,122.873602 L217.439337,122.830008 C217.386056,122.810008 217.334259,122.789696 217.282462,122.769462 C217.246915,122.755555 217.210665,122.741727 217.175743,122.727743 C217.118165,122.704618 217.062384,122.68118 217.006603,122.657821 L216.924493,122.62368 C216.843634,122.588993 216.764572,122.553993 216.687618,122.51868 C216.666681,122.509071 216.646915,122.499305 216.62629,122.489618 C216.570431,122.463446 216.514806,122.437352 216.461056,122.410868 C216.432228,122.396649 216.404728,122.382196 216.376447,122.367899 L216.310665,122.33454 L216.246056,122.300946 C216.216759,122.285399 216.188634,122.269696 216.16004,122.254071 C216.120587,122.23243 216.081212,122.210868 216.043087,122.189071 C216.014728,122.172899 215.987306,122.156493 215.959728,122.140165 C215.923322,122.118602 215.887228,122.096962 215.85215,122.075243 C215.825275,122.058602 215.799103,122.041883 215.773009,122.025087 L215.672931,121.959227 L215.634337,121.933837 L215.712462,126.536415 C215.712462,126.579227 215.72129,126.626883 215.740431,126.67868 C215.920844,127.167632 217.016276,128.033597 220.24177,128.80298 L220.241462,129.733829 C220.210035,129.726726 220.178702,129.719593 220.147462,129.71243 C220.023634,129.684071 219.902072,129.655321 219.782228,129.626258 L219.667384,129.597743 C219.587384,129.577977 219.507462,129.55829 219.429337,129.538212 C219.38379,129.526571 219.339415,129.514696 219.294493,129.502899 C219.225197,129.484696 219.155978,129.466493 219.088165,129.448133 C219.04129,129.435399 218.995353,129.422508 218.949181,129.409696 L218.758712,129.356102 C218.712072,129.342743 218.666134,129.329149 218.620197,129.315633 L218.441447,129.262196 L218.305587,129.220243 L218.135743,129.16618 C218.091525,129.151883 218.047462,129.137587 218.004025,129.123133 L217.922267,129.095653 L217.841447,129.068055 L217.715275,129.024305 C217.661915,129.005399 217.609806,128.986415 217.557775,128.967352 L217.439337,128.923758 C217.386056,128.903758 217.334259,128.883446 217.282462,128.863212 C217.246915,128.849305 217.210665,128.835477 217.175743,128.821493 C217.118165,128.798368 217.062384,128.77493 217.006603,128.751571 L216.924493,128.71743 C216.843634,128.682743 216.764572,128.647743 216.687618,128.61243 C216.666681,128.602821 216.646915,128.593055 216.62629,128.583368 C216.570431,128.557196 216.514806,128.531102 216.461056,128.504618 C216.432228,128.490399 216.404728,128.475946 216.376447,128.461649 C216.332462,128.439462 216.288478,128.417196 216.246056,128.394696 C216.216759,128.379149 216.188634,128.363446 216.16004,128.347821 C216.120587,128.32618 216.081212,128.304618 216.043087,128.282821 C216.014728,128.266649 215.987306,128.250243 215.959728,128.233915 C215.923322,128.212352 215.887228,128.190712 215.85215,128.168993 C215.825275,128.152352 215.799103,128.135633 215.773009,128.118837 L215.672931,128.052977 L215.634337,128.027587 L215.712462,132.630165 C215.712462,132.672977 215.72129,132.720633 215.740431,132.77243 C215.922482,133.265821 217.036242,134.143102 220.330149,134.917661 C220.368543,135.240915 220.418663,135.561918 220.480564,135.879778 C220.368283,135.85618 220.257295,135.831362 220.147462,135.80618 C220.023634,135.777821 219.902072,135.749071 219.782228,135.720008 L219.667384,135.691493 C219.587384,135.671727 219.507462,135.65204 219.429337,135.631962 C219.38379,135.620321 219.339415,135.608446 219.294493,135.596649 C219.225197,135.578446 219.155978,135.560243 219.088165,135.541883 C219.04129,135.529149 218.995353,135.516258 218.949181,135.503446 C218.885118,135.485712 218.821368,135.467821 218.758712,135.449852 L218.620197,135.409383 C218.56004,135.391727 218.500353,135.373915 218.441447,135.355946 C218.395743,135.34204 218.350509,135.328055 218.305587,135.313993 C218.248322,135.296024 218.191759,135.278055 218.135743,135.25993 C218.091525,135.245633 218.047462,135.231337 218.004025,135.216883 C217.949103,135.198602 217.895118,135.180243 217.841447,135.161805 C217.799181,135.147274 217.756759,135.132743 217.715275,135.118055 C217.661915,135.099149 217.609806,135.080165 217.557775,135.061102 L217.439337,135.017508 C217.386056,134.997508 217.334259,134.977196 217.282462,134.956962 C217.246915,134.943055 217.210665,134.929227 217.175743,134.915243 C217.118165,134.892118 217.062384,134.86868 217.006603,134.845321 L216.924493,134.81118 C216.843634,134.776493 216.764572,134.741493 216.687618,134.70618 C216.666681,134.696571 216.646915,134.686805 216.62629,134.677118 C216.570431,134.650946 216.514806,134.624852 216.461056,134.598368 L216.418546,134.576913 L216.310665,134.52204 L216.246056,134.488446 L216.16004,134.441571 C216.120587,134.41993 216.081212,134.398368 216.043087,134.376571 C216.014728,134.360399 215.987306,134.343993 215.959728,134.327665 C215.923322,134.306102 215.887228,134.284462 215.85215,134.262743 C215.825275,134.246102 215.799103,134.229383 215.773009,134.212587 L215.672931,134.146727 L215.634337,134.121337 L215.634337,138.723915 C215.634337,138.766727 215.643165,138.814383 215.662306,138.86618 C215.847228,139.367352 216.993478,140.264618 220.409493,141.047977 C221.239555,141.238304 222.138331,141.407326 223.093172,141.553844 C223.364141,141.896758 223.650535,142.228312 223.953256,142.547206 C222.5774,142.366407 221.29892,142.142382 220.147384,141.878368 C220.023556,141.850008 219.901993,141.821258 219.78215,141.792196 L219.668009,141.763837 C219.587697,141.743993 219.507462,141.724149 219.428947,141.703993 C219.384025,141.692508 219.340197,141.68079 219.2959,141.669149 C219.225978,141.650868 219.156134,141.632508 219.087775,141.613993 L218.949806,141.575868 C218.885431,141.557977 218.82129,141.540087 218.758322,141.521962 L218.620978,141.481805 L218.440587,141.427821 C218.395431,141.414071 218.350743,141.400243 218.306368,141.386337 C218.248322,141.368212 218.190978,141.34993 218.134259,141.331571 C218.0909,141.317508 218.047697,141.303446 218.005118,141.289305 C217.949103,141.270712 217.894103,141.251962 217.839493,141.233212 L217.716134,141.190477 C217.661681,141.17118 217.608322,141.151727 217.555197,141.132274 C217.516681,141.118212 217.477853,141.104149 217.44004,141.08993 C217.385431,141.069383 217.332306,141.048602 217.279181,141.027821 L217.17629,140.987587 C217.117072,140.963837 217.059728,140.939852 217.002462,140.91579 L216.924728,140.883446 C216.843634,140.84868 216.764415,140.813602 216.687306,140.778212 C216.667228,140.768993 216.6484,140.75954 216.628556,140.750321 C216.571759,140.723758 216.515275,140.697196 216.460665,140.670321 L216.376915,140.627821 C216.332853,140.605477 216.288712,140.583212 216.246134,140.560633 L216.159259,140.51329 C216.120197,140.491883 216.081212,140.470477 216.043478,140.448915 C216.014572,140.43243 215.986681,140.415712 215.958556,140.399071 L215.852853,140.335321 C215.825353,140.318212 215.7984,140.301024 215.771681,140.283837 L215.674259,140.219774 L215.634259,140.193446 L215.634259,144.795946 C215.634259,145.25243 216.64004,146.255555 220.409415,147.11993 C223.740665,147.883758 228.178556,148.304383 232.905743,148.304383 C237.632931,148.304383 242.070822,147.883758 245.402072,147.11993 C249.171525,146.255633 250.177228,145.25243 250.177228,144.795946 L250.177228,140.193446 L250.13715,140.219774 L250.039728,140.283837 C250.012931,140.301024 249.986056,140.318212 249.958478,140.335321 L249.852931,140.398993 C249.824728,140.415712 249.796759,140.43243 249.767775,140.448993 C249.730118,140.470555 249.691134,140.491962 249.65215,140.51329 C249.623243,140.529149 249.594806,140.545008 249.565197,140.560712 C249.522618,140.58329 249.478478,140.605555 249.434415,140.627899 L249.350665,140.670399 C249.296056,140.697274 249.239572,140.723837 249.182775,140.750399 L249.124025,140.77829 C249.046915,140.813602 248.967775,140.84868 248.886681,140.883446 C248.861134,140.894383 248.834337,140.905165 248.8084,140.916024 C248.75129,140.940008 248.694025,140.963993 248.63504,140.987665 C248.601368,141.00118 248.566447,141.014462 248.53215,141.027899 C248.479025,141.04868 248.4259,141.069462 248.37129,141.090008 L248.256134,141.132352 C248.203009,141.151883 248.149728,141.171337 248.095197,141.190555 C248.05465,141.204852 248.013165,141.219071 247.971837,141.23329 C247.917306,141.25204 247.862306,141.270712 247.806447,141.289305 C247.76379,141.303524 247.720509,141.317587 247.677072,141.331649 C247.620353,141.34993 247.563087,141.368212 247.505118,141.386337 L247.370822,141.427821 L247.190431,141.481805 L247.053087,141.521962 C246.990118,141.540087 246.925978,141.557977 246.861603,141.575868 L246.723634,141.613993 C246.655353,141.632508 246.585587,141.650868 246.515822,141.669149 C246.471368,141.68079 246.42754,141.692508 246.382462,141.704071 C246.304025,141.724227 246.223868,141.743993 246.143634,141.763837 L246.029337,141.792196 C245.909493,141.82118 245.787931,141.850008 245.664103,141.878368 C244.537159,142.13675 243.288612,142.35683 241.948468,142.535746 C242.249991,142.21583 242.53629,141.883583 242.805382,141.539865 C243.728225,141.396967 244.597475,141.232483 245.40215,141.047977 C248.818165,140.264618 249.964415,139.367352 250.149337,138.86618 C250.168478,138.814305 250.177306,138.766727 250.177306,138.723915 L250.177306,134.121337 C250.164806,134.129852 250.151212,134.138212 250.138634,134.146727 L250.038556,134.212587 C250.012462,134.229305 249.98629,134.246102 249.959415,134.262743 C249.924415,134.284462 249.888322,134.306024 249.851993,134.327587 C249.824337,134.343993 249.796837,134.360399 249.7684,134.376649 C249.730353,134.398446 249.690978,134.420008 249.651603,134.441571 C249.623009,134.457274 249.594806,134.472977 249.565509,134.488524 C249.523087,134.510946 249.479025,134.533212 249.435118,134.555477 L249.350509,134.598446 C249.296759,134.62493 249.241134,134.651102 249.185275,134.677196 C249.164572,134.686883 249.144884,134.696649 249.123947,134.706258 C249.046993,134.741571 248.968009,134.776571 248.887072,134.811258 C248.860118,134.822821 248.831837,134.834149 248.804415,134.845633 C248.74879,134.868993 248.693165,134.892274 248.635743,134.915321 L248.529025,134.95704 C248.47715,134.977274 248.425431,134.997587 248.37215,135.017587 C248.333322,135.032274 248.293322,135.046649 248.253712,135.06118 C248.201681,135.080243 248.149572,135.099305 248.096212,135.118133 C248.05465,135.132821 248.012306,135.147352 247.969962,135.161883 C247.916368,135.180321 247.862462,135.19868 247.807618,135.216883 L247.675665,135.260008 C247.619728,135.278133 247.563165,135.296102 247.505978,135.313993 C247.460978,135.328055 247.415743,135.342118 247.37004,135.356024 L247.19129,135.409462 C247.145431,135.422977 247.099493,135.436493 247.052775,135.44993 L246.862306,135.503524 C246.816134,135.516337 246.770197,135.529227 246.723322,135.541962 C246.655587,135.560399 246.586447,135.578524 246.517306,135.596649 C246.472306,135.608446 246.427775,135.620321 246.38215,135.63204 C246.304103,135.65204 246.224337,135.671805 246.144415,135.691493 C246.105978,135.700946 246.068322,135.710555 246.029415,135.720008 C245.909572,135.748993 245.788009,135.777821 245.664181,135.80618 L245.412378,135.862495 C245.471514,135.55665 245.519742,135.247907 245.556757,134.936708 L245.480275,134.954227 C248.89629,134.170868 250.04254,133.273602 250.227462,132.77243 C250.246603,132.720555 250.255353,132.672977 250.255353,132.630165 L250.177228,128.027587 C250.164806,128.036102 250.151212,128.044462 250.138634,128.052977 L250.038556,128.118837 C250.012462,128.135555 249.98629,128.152352 249.959415,128.168993 C249.924415,128.190712 249.888322,128.212274 249.851993,128.233837 C249.824337,128.250243 249.796837,128.266649 249.7684,128.282899 C249.730353,128.304696 249.690978,128.326258 249.651603,128.347821 C249.623009,128.363524 249.594806,128.379227 249.565509,128.394774 C249.523087,128.417196 249.479025,128.439462 249.435118,128.461727 C249.406837,128.476102 249.379337,128.490477 249.350509,128.504696 C249.296759,128.53118 249.241134,128.557352 249.185275,128.583446 L249.123947,128.612508 C249.046993,128.647821 248.968009,128.682821 248.887072,128.717508 L248.804415,128.751883 C248.74879,128.775243 248.693165,128.798524 248.635743,128.821571 L248.529025,128.86329 C248.47715,128.883524 248.425431,128.903837 248.37215,128.923837 C248.333322,128.938524 248.293322,128.952899 248.253712,128.96743 C248.201681,128.986493 248.149572,129.005555 248.096212,129.024383 C248.05465,129.039071 248.012306,129.053602 247.969962,129.068133 C247.916368,129.086571 247.862462,129.10493 247.807618,129.123133 L247.741935,129.144755 L247.675665,129.166258 C247.619728,129.184383 247.563165,129.202352 247.505978,129.220243 C247.460978,129.234305 247.415743,129.248368 247.37004,129.262274 L247.19129,129.315712 C247.145431,129.329227 247.099493,129.342743 247.052775,129.35618 L246.862306,129.409774 C246.816134,129.422587 246.770197,129.435477 246.723322,129.448212 L246.517306,129.502899 C246.472306,129.514696 246.427775,129.526571 246.38215,129.53829 C246.304103,129.55829 246.224337,129.578055 246.144415,129.597743 C246.105978,129.607196 246.068322,129.616805 246.029415,129.626258 C245.909572,129.655243 245.788009,129.684071 245.664181,129.71243 L245.647,129.715962 L245.647,128.820962 L245.793916,128.786719 C248.966992,128.021426 250.048319,127.164191 250.227462,126.67868 C250.246603,126.626805 250.255353,126.579227 250.255353,126.536415 L250.177228,121.933837 C250.164806,121.942352 250.151212,121.950712 250.138634,121.959227 L250.038556,122.025087 C250.012462,122.041805 249.98629,122.058602 249.959415,122.075243 C249.924415,122.096962 249.888322,122.118524 249.851993,122.140087 C249.824337,122.156493 249.796837,122.172899 249.7684,122.189149 C249.730353,122.210946 249.690978,122.232508 249.651603,122.254071 C249.623009,122.269774 249.594806,122.285477 249.565509,122.301024 C249.523087,122.323446 249.479025,122.345712 249.435118,122.367977 C249.406837,122.382352 249.379337,122.396727 249.350509,122.410946 C249.296759,122.43743 249.241134,122.463602 249.185275,122.489696 C249.164572,122.499383 249.144884,122.509149 249.123947,122.518758 C249.046993,122.554071 248.968009,122.589071 248.887072,122.623758 L248.804415,122.658133 C248.74879,122.681493 248.693165,122.704774 248.635743,122.727821 L248.529025,122.76954 C248.47715,122.789774 248.425431,122.810087 248.37215,122.830087 L248.253712,122.87368 C248.201681,122.892743 248.149572,122.911805 248.096212,122.930633 C248.05465,122.945321 248.012306,122.959852 247.969962,122.974383 C247.916368,122.992821 247.862462,123.01118 247.807618,123.029383 L247.675665,123.072508 C247.619728,123.090633 247.563165,123.108602 247.505978,123.126493 C247.460978,123.140555 247.415743,123.154618 247.37004,123.168524 C247.311212,123.186415 247.251447,123.204227 247.19129,123.221962 C247.145431,123.235477 247.099493,123.248993 247.052775,123.26243 L246.862306,123.316024 C246.816134,123.328837 246.770197,123.341727 246.723322,123.354462 L246.517306,123.409149 L246.38215,123.44454 L246.144415,123.503993 C246.105978,123.513446 246.068322,123.523055 246.029415,123.532508 C245.909572,123.561493 245.788009,123.590321 245.664181,123.61868 L245.433261,123.669819 C245.335815,123.560516 245.209464,123.474656 245.063528,123.423571 L244.049397,123.068539 C244.517775,122.981054 244.969264,122.887607 245.402072,122.788368 C249.171525,121.924071 250.177228,120.920868 250.177228,120.464383 L250.177228,115.861805 Z M233.098841,121.139527 L243.64358,124.830667 C243.815207,124.890745 243.92891,125.043941 243.92891,125.214961 L243.92891,133.430512 C243.921401,138.079683 241.020268,142.300704 236.49619,144.244801 L233.128018,145.685651 C233.011526,145.735315 232.877872,145.735315 232.761595,145.685651 L229.393422,144.244801 C224.86913,142.300704 221.967997,138.079683 221.960702,133.430512 L221.960702,124.804834 C221.960702,124.628207 222.081699,124.471406 222.261049,124.415534 L232.805789,121.134521 C232.901256,121.104882 233.004661,121.106685 233.098841,121.139527 Z M232.93601,121.958979 L222.839431,125.100414 L222.839431,133.430512 C222.846725,137.75827 225.547699,141.687516 229.759416,143.497241 L232.944806,144.859991 L236.130196,143.497241 C240.341699,141.687516 243.042673,137.75827 243.050181,133.430512 L243.050181,125.499126 L232.93601,121.958979 Z M233.064301,123.022027 L237.264648,124.471631 C237.414821,124.51982 237.525091,124.639304 237.552552,124.783672 C237.580012,124.928039 237.520372,125.074777 237.396801,125.167402 C237.273229,125.259829 237.104821,125.283331 236.957007,125.22902 L232.900827,123.828394 L224.596887,126.376656 L224.596887,133.427182 C224.603109,137.063042 226.903978,140.36415 230.491833,141.884259 L232.944806,142.919323 L235.39778,141.884259 C238.985419,140.36415 241.286289,137.063042 241.292725,133.427182 L241.292725,126.726417 L240.24473,126.365596 C240.022688,126.284229 239.912203,126.054346 239.995871,125.84836 C240.079539,125.642374 240.326681,125.53553 240.55237,125.60801 L241.886124,126.067183 C242.05775,126.126431 242.171453,126.277514 242.171453,126.446174 L242.171453,133.427182 C242.164373,137.379032 239.663559,140.967098 235.764202,142.619528 L233.128018,143.731813 C233.011526,143.780989 232.877872,143.780989 232.761595,143.731813 L230.12541,142.619528 C226.225839,140.967098 223.725024,137.379032 223.718159,133.427182 L223.718159,126.086538 C223.717945,125.912348 223.839156,125.757711 224.018506,125.702807 L232.771249,123.01709 C232.866501,122.987861 232.970121,122.989441 233.064301,123.022027 Z M232.945887,126.452887 L234.794099,130.235081 L238.926828,130.841584 L235.936357,133.785611 L236.642312,137.942643 L232.945887,135.979959 L229.249463,137.942643 L229.955417,133.785611 L226.964947,130.841584 L231.097675,130.235081 L232.945887,126.452887 Z M232.945875,128.2075 L231.608266,130.944851 L228.61726,131.383799 L230.781571,133.514503 L230.270587,136.523096 L232.945887,135.102635 L235.621109,136.523096 L235.110203,133.514503 L237.274436,131.383799 L234.283508,130.944851 L232.945875,128.2075 Z M238.661689,125.144644 L239.239427,125.363482 C239.389815,125.416349 239.500085,125.547435 239.52733,125.705821 C239.554791,125.864207 239.495365,126.025193 239.371579,126.126595 C239.248008,126.228213 239.079814,126.253997 238.932001,126.194413 L238.354263,125.975792 C238.203875,125.922708 238.093605,125.791622 238.066359,125.633236 C238.038899,125.47485 238.098324,125.313864 238.221896,125.212462 C238.345467,125.11106 238.513875,125.08506 238.661689,125.144644 Z M232.944141,110.649462 C229.279766,110.649462 225.766406,110.903446 222.783672,111.383837 C222.112021,111.490523 221.603458,111.579093 221.257981,111.649546 C220.933979,111.715621 220.438323,111.831842 219.771016,111.998212 C218.392109,112.351962 217.323516,112.748915 216.594766,113.178055 C216.017187,113.518133 215.683125,113.869852 215.673516,114.14579 L215.673516,114.170946 C215.691797,114.633055 216.712656,115.625477 220.447812,116.481883 C220.551953,116.50579 220.657109,116.529305 220.763359,116.552508 C224.056719,117.271571 228.364766,117.666415 232.944141,117.666415 C237.523516,117.666415 241.831562,117.271649 245.124922,116.552508 C245.231172,116.529305 245.336328,116.50579 245.440469,116.481883 C249.209844,115.617587 250.215625,114.614383 250.215625,114.157899 C250.215625,114.022977 250.093906,113.307196 247.691875,112.467821 C245.874375,111.832743 243.311016,111.329618 240.278984,111.012821 C239.286406,110.909149 238.245547,110.826258 237.185234,110.766571 C235.805234,110.688837 234.378359,110.649462 232.944141,110.649462 Z" id="datastore"></path>
        </g>
    </g>
</svg>