<?xml version="1.0" encoding="UTF-8"?>
<svg viewBox="0 0 35 35" version="1.1" xmlns="http://www.w3.org/2000/svg" xmlns:xlink="http://www.w3.org/1999/xlink">
    <title>decentralized-governance</title>
    <g id="Website" stroke="none" stroke-width="1" fill="none" fill-rule="evenodd">
        <g id="Economy" transform="translate(-580, -1050)" fill="#B671B8" fill-rule="nonzero">
            <path d="M599.568358,1060.9266 C599.568358,1059.67584 598.550748,1058.65823 597.299987,1058.65823 C596.049225,1058.65823 595.031616,1059.67584 595.031616,1060.9266 C595.031616,1062.17736 596.049225,1063.19497 597.299987,1063.19497 C598.550748,1063.19497 599.568358,1062.17736 599.568358,1060.9266 Z M596.027709,1060.9266 C596.027709,1060.22508 596.598471,1059.65432 597.299987,1059.65432 C598.001502,1059.65432 598.572264,1060.22508 598.572264,1060.9266 C598.572264,1061.62812 598.001502,1062.19888 597.299987,1062.19888 C596.598471,1062.19888 596.027709,1061.62812 596.027709,1060.9266 Z M613.337096,1065.0823 C613.868014,1065.0823 614.299987,1064.65033 614.299987,1064.11941 L614.299987,1061.59989 C614.299987,1061.06898 613.868014,1060.637 613.337096,1060.637 L606.609014,1060.637 C606.468299,1060.637 606.328846,1060.60088 606.205928,1060.53255 L597.798034,1055.86146 L597.798034,1054.18085 L601.635452,1054.18085 C602.16637,1054.18085 602.598342,1053.74888 602.598342,1053.21796 L602.598342,1051.15937 C602.598342,1050.62845 602.16637,1050.19648 601.635452,1050.19648 L597.764831,1050.19648 C597.233913,1050.19648 596.80194,1050.62845 596.80194,1051.15937 L596.80194,1055.86146 L592.499346,1058.25182 C592.258956,1058.38543 592.172295,1058.68864 592.305838,1058.9291 C592.439514,1059.16956 592.742858,1059.25628 592.983116,1059.12261 L597.299987,1056.72435 L605.722092,1061.40326 C605.992698,1061.55367 606.299362,1061.6331 606.608948,1061.6331 L613.303893,1061.6331 L613.303893,1064.08621 L581.296081,1064.08621 L581.296081,1061.6331 L587.990959,1061.6331 C588.300545,1061.6331 588.607209,1061.55367 588.877815,1061.40326 L590.963768,1060.24441 C591.204225,1060.11087 591.290819,1059.80765 591.157276,1059.5672 C591.023666,1059.32681 590.720456,1059.24021 590.479998,1059.37369 L588.394045,1060.53255 C588.271061,1060.60088 588.131674,1060.637 587.990959,1060.637 L581.262877,1060.637 C580.731959,1060.637 580.299987,1061.06898 580.299987,1061.59989 L580.299987,1064.11941 C580.299987,1064.65033 580.731959,1065.0823 581.262877,1065.0823 L581.296081,1065.0823 L581.296081,1081.2173 C580.733885,1081.29838 580.299987,1081.78248 580.299987,1082.36752 L580.299987,1083.03298 C580.299987,1083.67459 580.821342,1084.19648 581.462096,1084.19648 L613.137877,1084.19648 C613.778631,1084.19648 614.299987,1083.67459 614.299987,1083.03298 L614.299987,1082.36752 C614.299987,1081.78255 613.866088,1081.29838 613.303893,1081.2173 L613.303893,1065.0823 L613.337096,1065.0823 Z M597.798034,1051.19257 L601.602248,1051.19257 L601.602248,1053.18476 L597.798034,1053.18476 L597.798034,1051.19257 Z M610.315612,1065.91238 L610.315612,1065.0823 L612.307799,1065.0823 L612.307799,1081.20401 L610.315612,1081.20401 L610.315612,1080.37394 C610.315612,1079.78969 609.881713,1079.30606 609.319518,1079.22511 L609.319518,1067.06121 C609.881713,1066.98026 610.315612,1066.49662 610.315612,1065.91238 Z M604.911405,1065.0823 L609.319518,1065.0823 L609.319518,1065.91238 C609.319518,1066.00396 609.245077,1066.0784 609.153502,1066.0784 L605.07742,1066.0784 C604.985846,1066.0784 604.911405,1066.00396 604.911405,1065.91238 L604.911405,1065.0823 Z M609.319518,1080.374 L609.319518,1081.20408 L604.911405,1081.20408 L604.911405,1080.374 C604.911405,1080.28243 604.985846,1080.20799 605.07742,1080.20799 L609.153502,1080.20799 C609.245077,1080.20799 609.319518,1080.28243 609.319518,1080.374 Z M590.684663,1065.91238 L590.684663,1065.0823 L603.915311,1065.0823 L603.915311,1065.91238 C603.915311,1066.49662 604.349209,1066.98026 604.911405,1067.06121 L604.911405,1073.37498 C604.911405,1073.6501 605.134331,1073.87303 605.409452,1073.87303 C605.684573,1073.87303 605.907498,1073.6501 605.907498,1073.37498 L605.907498,1067.07449 L608.323424,1067.07449 L608.323424,1079.21183 L605.907498,1079.21183 L605.907498,1075.6992 C605.907498,1075.42408 605.684573,1075.20115 605.409452,1075.20115 C605.134331,1075.20115 604.911405,1075.42408 604.911405,1075.6992 L604.911405,1079.22511 C604.349209,1079.30612 603.915311,1079.78969 603.915311,1080.37394 L603.915311,1081.20401 L601.186612,1081.20401 L601.186612,1073.09236 C601.186612,1072.4516 600.665256,1071.93025 600.024502,1071.93025 L594.575405,1071.93025 C593.934651,1071.93025 593.413295,1072.4516 593.413295,1073.09236 L593.413295,1081.20401 L590.684596,1081.20401 L590.684596,1080.37394 C590.684596,1079.78969 590.250698,1079.30606 589.688502,1079.22511 L589.688502,1067.06121 C590.250764,1066.98026 590.684663,1066.49662 590.684663,1065.91238 Z M600.190518,1073.09236 L600.190518,1081.20401 L594.409389,1081.20401 L594.409389,1073.09236 C594.409389,1073.00078 594.483831,1072.92634 594.575405,1072.92634 L600.024502,1072.92634 C600.116077,1072.92634 600.190518,1073.00078 600.190518,1073.09236 Z M585.280456,1065.0823 L589.688569,1065.0823 L589.688569,1065.91238 C589.688569,1066.00396 589.614127,1066.0784 589.522553,1066.0784 L585.446471,1066.0784 C585.354897,1066.0784 585.280456,1066.00396 585.280456,1065.91238 L585.280456,1065.0823 Z M589.522553,1080.20799 C589.614127,1080.20799 589.688569,1080.28243 589.688569,1080.374 L589.688569,1081.20408 L585.280456,1081.20408 L585.280456,1080.374 C585.280456,1080.28243 585.354897,1080.20799 585.446471,1080.20799 L589.522553,1080.20799 Z M586.276549,1079.21189 L586.276549,1067.07449 L588.692475,1067.07449 L588.692475,1079.21189 L586.276549,1079.21189 L586.276549,1079.21189 Z M582.292174,1065.0823 L584.284362,1065.0823 L584.284362,1065.91238 C584.284362,1066.49662 584.71826,1066.98026 585.280456,1067.06121 L585.280456,1079.22511 C584.71826,1079.30612 584.284362,1079.78969 584.284362,1080.37394 L584.284362,1081.20401 L582.292174,1081.20401 L582.292174,1065.0823 Z M613.303893,1083.03298 C613.303893,1083.12528 613.229452,1083.20039 613.137877,1083.20039 L581.462096,1083.20039 C581.370522,1083.20039 581.296081,1083.12528 581.296081,1083.03298 L581.296081,1082.36752 C581.296081,1082.27521 581.370522,1082.20011 581.462096,1082.20011 L613.137877,1082.20011 C613.229452,1082.20011 613.303893,1082.27521 613.303893,1082.36752 L613.303893,1083.03298 Z M593.006623,1070.0722 L601.593416,1070.0722 C602.124334,1070.0722 602.556307,1069.64023 602.556307,1069.10931 L602.556307,1067.90331 C602.556307,1067.37239 602.124334,1066.94042 601.593416,1066.94042 L593.006623,1066.94042 C592.475706,1066.94042 592.043733,1067.37239 592.043733,1067.90331 L592.043733,1069.10931 C592.043733,1069.64023 592.475706,1070.0722 593.006623,1070.0722 L593.006623,1070.0722 Z M593.039827,1067.93651 L601.560213,1067.93651 L601.560213,1069.07611 L593.039827,1069.07611 L593.039827,1067.93651 Z" id="decentralized-governance"></path>
        </g>
    </g>
</svg>