<?xml version="1.0" encoding="UTF-8"?>
<svg width="29.259116px" height="21.3373509px" viewBox="0 0 29.259116 21.3373509" version="1.1" xmlns="http://www.w3.org/2000/svg" xmlns:xlink="http://www.w3.org/1999/xlink">
    <title>documentation</title>
    <g id="Website" stroke="none" stroke-width="1" fill="none" fill-rule="evenodd">
        <g id="Ulixee" transform="translate(-425.0195, -253.9071)" fill="#000000" fill-rule="nonzero">
            <g id="DATANET-MENU" transform="translate(122.1115, 37.9778)">
                <path d="M330.318455,215.929361 C331.337399,215.929361 332.167046,216.757602 332.167046,217.777952 L332.167046,235.418121 C332.167046,236.435438 331.335772,237.266712 330.318455,237.266712 L304.756521,237.266712 C303.737578,237.266712 302.90793,236.43847 302.90793,235.418121 L302.90793,217.777952 C302.90793,216.759009 303.736172,215.929361 304.756521,215.929361 Z M330.318455,216.767156 L304.756521,216.767156 C304.199778,216.767156 303.745725,217.221208 303.745725,217.777952 L303.745725,235.418121 C303.745725,235.974864 304.199778,236.428917 304.756521,236.428917 L330.318455,236.428917 C330.875199,236.428917 331.329252,235.974864 331.329252,235.418121 L331.329252,217.777952 C331.329252,217.221208 330.875199,216.767156 330.318455,216.767156 Z M329.466228,231.325346 C329.696514,231.325346 329.885125,231.513956 329.885125,231.744243 L329.885125,234.054106 C329.885125,234.286082 329.699493,234.473004 329.466228,234.473004 L325.973491,234.473004 C325.743204,234.473004 325.554593,234.284393 325.554593,234.054106 L325.554593,231.744243 C325.554593,231.513956 325.743204,231.325346 325.973491,231.325346 Z M324.450657,233.635209 C324.680944,233.635209 324.869555,233.82382 324.869555,234.054106 C324.869555,234.284393 324.680944,234.473004 324.450657,234.473004 L305.483011,234.473004 C305.252724,234.473004 305.064113,234.284393 305.064113,234.054106 C305.064113,233.82382 305.252724,233.635209 305.483011,233.635209 Z M329.000529,232.16314 L326.439189,232.16314 L326.392388,233.588408 L329.000529,233.635209 L329.04733,232.209941 L329.000529,232.16314 Z M324.450657,231.325346 C324.680944,231.325346 324.869555,231.513956 324.869555,231.744243 C324.869555,231.97453 324.680944,232.16314 324.450657,232.16314 L305.483011,232.16314 C305.252724,232.16314 305.064113,231.97453 305.064113,231.744243 C305.064113,231.513956 305.252724,231.325346 305.483011,231.325346 Z M329.466228,229.276273 C329.696514,229.276273 329.885125,229.464884 329.885125,229.695171 C329.885125,229.927146 329.699493,230.114068 329.466228,230.114068 L305.483011,230.114068 C305.252724,230.114068 305.064113,229.925457 305.064113,229.695171 C305.064113,229.464884 305.252724,229.276273 305.483011,229.276273 Z M329.466228,227.208573 C329.696514,227.208573 329.885125,227.397184 329.885125,227.62747 C329.885125,227.859446 329.699493,228.046368 329.466228,228.046368 L305.483011,228.046368 C305.252724,228.046368 305.064113,227.857757 305.064113,227.62747 C305.064113,227.397184 305.252724,227.208573 305.483011,227.208573 Z M312.710648,218.127457 C312.940935,218.127457 313.129545,218.316067 313.129545,218.546354 L313.129545,225.229124 C313.129545,225.459411 312.940935,225.648022 312.710648,225.648022 L305.483011,225.648022 C305.252724,225.648022 305.064113,225.459411 305.064113,225.229124 L305.064113,218.546354 C305.064113,218.316067 305.252724,218.127457 305.483011,218.127457 Z M329.466228,224.810227 C329.696514,224.810227 329.885125,224.998838 329.885125,225.229124 C329.885125,225.4611 329.699493,225.648022 329.466228,225.648022 L315.989164,225.648022 C315.758877,225.648022 315.570266,225.459411 315.570266,225.229124 C315.570266,224.998838 315.758877,224.810227 315.989164,224.810227 Z M312.24495,218.965251 L305.948709,218.965251 L305.901908,224.763426 L312.24495,224.810227 L312.291751,219.012052 L312.24495,218.965251 Z M329.466228,222.500363 C329.696514,222.500363 329.885125,222.688974 329.885125,222.919261 C329.885125,223.151237 329.699493,223.338158 329.466228,223.338158 L315.989164,223.338158 C315.758877,223.338158 315.570266,223.149547 315.570266,222.919261 C315.570266,222.688974 315.758877,222.500363 315.989164,222.500363 Z M329.466228,220.195157 C329.696514,220.195157 329.885125,220.383768 329.885125,220.614054 C329.885125,220.84603 329.699493,221.032952 329.466228,221.032952 L315.989164,221.032952 C315.758877,221.032952 315.570266,220.844341 315.570266,220.614054 C315.570266,220.383768 315.758877,220.195157 315.989164,220.195157 Z M329.466228,218.127457 C329.696514,218.127457 329.885125,218.316067 329.885125,218.546354 C329.885125,218.77833 329.699493,218.965251 329.466228,218.965251 L315.989164,218.965251 C315.758877,218.965251 315.570266,218.776641 315.570266,218.546354 C315.570266,218.316067 315.758877,218.127457 315.989164,218.127457 Z" id="documentation"></path>
            </g>
        </g>
    </g>
</svg>