<?xml version="1.0" encoding="UTF-8"?>
<svg viewBox="0 0 31 31" version="1.1" xmlns="http://www.w3.org/2000/svg" xmlns:xlink="http://www.w3.org/1999/xlink">
    <title>domains</title>
    <g id="Products" stroke="none" stroke-width="1" fill="none" fill-rule="evenodd">
        <g id="Homepage-Copy" transform="translate(-116.000000, -519.000000)" fill="#B700C0" fill-rule="nonzero">
            <g id="TOOLS-MENU" transform="translate(71.111533, 37.977778)">
                <g id="Group-3" transform="translate(40.222480, 110.022222)">
                    <path d="M34.8910606,386.6313 L30.6684976,376.335384 C30.6243476,376.227689 30.5396445,376.142142 30.4330115,376.097552 L26.0459157,374.262279 C25.8241214,374.169291 25.5694321,374.275873 25.477419,374.500111 C25.385406,374.724349 25.4908207,374.9814 25.7129051,375.074271 L29.1294548,376.503548 C27.7985726,377.060306 25.3385872,378.089446 23.2930666,378.945149 L20.876245,373.050971 L20.876187,373.050912 L23.8372547,374.289642 C24.0591651,374.382748 24.3137964,374.276107 24.4057514,374.05181 C24.4977644,373.827572 24.3923498,373.570521 24.1702653,373.47765 L20.2386515,371.832924 C20.1320185,371.788276 20.0122739,371.788276 19.9056409,371.832924 L9.71133882,376.097494 C9.60470581,376.142083 9.52000276,376.22763 9.47585274,376.335325 L5.2532317,386.631182 C5.20902367,386.738878 5.20902367,386.859815 5.2532317,386.96751 L7.30147906,391.96163 C7.37086594,392.130908 7.53284602,392.233036 7.7036445,392.233036 C7.75910759,392.233036 7.81555695,392.222197 7.86997576,392.199462 C8.09200217,392.106591 8.19747487,391.84954 8.10546184,391.625302 L6.45926388,387.611514 L6.4593219,387.611514 L12.2951299,390.052529 L12.2952459,390.052588 L9.87778611,395.946942 L8.88327949,393.52204 C8.79132447,393.297802 8.53686723,393.191337 8.3147828,393.284208 C8.09275638,393.377079 7.98728368,393.63413 8.07929672,393.858368 L9.47573671,397.263367 C9.51988672,397.371063 9.60458977,397.456609 9.71122279,397.501199 L19.9055248,401.765886 C19.9588413,401.78821 20.0154647,401.799343 20.0720301,401.799343 C20.1285955,401.799343 20.1852189,401.78821 20.2385354,401.765886 L30.4328955,397.501258 C30.5395285,397.456668 30.6242316,397.371121 30.6683816,397.263426 L34.8910026,386.967569 C34.9352106,386.859932 34.9352106,386.738995 34.8910606,386.6313 Z M33.6850284,385.987296 L27.8491624,383.546281 L27.8489884,383.546222 L30.2664482,377.65181 L33.6850284,385.987296 Z M29.4624074,377.315599 L27.0450056,383.209953 L24.6275458,382.198625 L23.6261933,379.757082 L29.4624074,377.315599 Z M23.2931827,387.474405 L23.0164474,386.799405 L23.2931827,386.124405 L24.9066017,386.799405 L23.2931827,387.474405 Z M23.4910165,390.252334 C23.0123863,390.052529 22.4229459,389.80585 21.8775975,389.577334 L22.1543328,388.902334 L22.8226746,388.622842 L23.4910165,390.252334 Z M22.8226746,384.975968 L22.1543328,384.696476 L21.8775975,384.021476 L23.4904363,383.347062 L22.8226746,384.975968 Z M22.489664,385.788077 L22.1438899,386.631241 C22.0997979,386.739053 22.0997979,386.859757 22.1438899,386.967569 L22.489664,387.810733 L21.6548168,388.159952 C21.5480678,388.204483 21.4633647,388.29003 21.4192727,388.397842 L21.0734986,389.241006 C20.5821049,389.035342 20.2386515,388.891787 20.2386515,388.891787 C20.1852769,388.869522 20.1290016,388.858389 20.0721462,388.858389 C20.0152907,388.858389 19.9590154,388.869522 19.9056409,388.891787 L19.0707937,389.241006 L18.7250196,388.397842 C18.6809276,388.29003 18.5962245,388.204483 18.4894755,388.159952 L17.6546283,387.810733 C17.8582637,387.314444 18.0004024,386.967569 18.0004024,386.967569 C18.0444944,386.859757 18.0444944,386.739053 18.0004024,386.631241 L17.6546283,385.788077 L18.4894755,385.438858 C18.5962245,385.394327 18.6809276,385.30878 18.7250196,385.200968 L19.0707937,384.357804 L19.9056409,384.707023 C20.0123899,384.751554 20.1319024,384.751554 20.2386515,384.707023 L21.0734986,384.357804 L21.4192727,385.200968 C21.4633647,385.30878 21.5480678,385.394327 21.6548168,385.438858 L22.489664,385.788077 Z M16.8511097,386.124405 L17.127845,386.799405 L16.8511097,387.474405 L15.2376906,386.799405 L16.8511097,386.124405 Z M16.653856,383.347062 L18.2666949,384.021476 L17.9899596,384.696476 L17.3216177,384.975968 L16.653856,383.347062 Z M17.3216177,388.622842 L17.9899596,388.902334 L18.2666949,389.577334 L16.6532758,390.251748 C16.8511097,389.768935 17.0959363,389.173623 17.3216177,388.622842 L17.3216177,388.622842 Z M20.0721462,383.825773 C19.9247861,383.764249 19.689242,383.665226 19.4038043,383.546281 L20.0721462,381.916789 L20.740488,383.546281 L20.0721462,383.825773 Z M19.5035915,381.006242 L18.5997055,383.209953 C17.8060495,382.877726 16.9189881,382.506828 16.4177317,382.296476 L17.3216177,380.093352 L17.3216757,380.093293 L19.5036495,381.006125 L19.5035915,381.006242 Z M16.5180991,385.312296 L14.3361253,386.225186 L14.3358932,386.225304 L13.4322974,384.022062 L15.6142131,383.109171 L16.5180991,385.312296 Z M14.3359513,387.373565 L14.3361253,387.373624 L16.5180991,388.286514 L15.6142131,390.490224 L13.4322393,389.577334 L13.4321233,389.577275 C13.8229176,388.624424 14.1498366,387.827256 14.3359513,387.373565 L14.3359513,387.373565 Z M18.5997055,390.388857 L19.5035915,392.592568 L19.5036495,392.592802 L17.3221398,393.505399 L16.4183119,391.301748 L18.5997055,390.388857 Z M19.4038043,390.052529 L20.0721462,389.773037 L20.740488,390.052529 L20.0721462,391.682021 L19.4038043,390.052529 Z M20.6407009,392.592568 L21.5445868,390.388857 L23.7263865,391.301689 L22.8225006,393.505575 C21.8791059,393.110888 21.0898591,392.780712 20.6406429,392.592802 L20.6407009,392.592568 Z M23.6261933,388.286514 L25.808167,387.373624 L25.8083411,387.373565 L26.712111,389.577158 L24.5302533,390.489931 L24.5301373,390.489638 L23.6261933,388.286514 Z M25.808167,386.225186 L23.6261933,385.312296 L24.5300792,383.108586 L26.712053,384.021476 L26.712169,384.021535 L25.8083411,386.225304 L25.808167,386.225186 Z M23.7259804,382.297062 L21.5445868,383.209953 L20.6407009,381.006242 L20.6406429,381.006067 L22.8221525,380.093469 L23.7259804,382.297062 Z M20.0721462,373.387299 L22.48949,379.281301 C21.3497698,379.758079 20.4334105,380.141399 20.0721462,380.292571 L17.6546863,379.281243 L20.0721462,373.387299 Z M10.7547528,377.346067 L12.8280629,378.21343 C13.0499153,378.306536 13.3046046,378.199895 13.3965596,377.975599 C13.4885727,377.75136 13.383158,377.49431 13.1610735,377.401439 L11.0147215,376.503548 L19.2680474,373.050912 L16.8511097,378.944856 L16.8510517,378.945032 L15.0457164,378.189759 C14.823922,378.096712 14.5691747,378.203294 14.4772197,378.427591 C14.3852067,378.651829 14.4906213,378.90888 14.7127058,379.001751 L16.5180991,379.757024 L15.5167466,382.198566 L13.0992287,383.209894 L10.6818849,377.315599 C10.7057874,377.32556 10.730096,377.335755 10.7547528,377.346067 Z M6.45920586,385.987354 L9.87784413,377.651868 L12.2952459,383.546222 L12.2951299,383.546281 L6.4593219,385.987354 L6.45920586,385.987354 Z M6.79233251,386.799405 L12.6281405,384.35839 L12.6283146,384.358331 L13.629493,386.799464 L12.6281405,389.241006 L6.79233251,386.799405 Z M13.0992867,390.388857 L15.5167466,391.400185 L16.5180991,393.841727 L10.6818269,396.283211 C11.2332089,394.938837 12.2521982,392.454286 13.0992867,390.388857 L13.0992867,390.388857 Z M11.0148375,397.095262 L16.8510517,394.653778 L16.8511097,394.653895 L19.2681054,400.547898 L19.2681054,400.547898 L11.0148375,397.095262 Z M20.0721462,400.21157 L17.6552085,394.317567 L17.6551505,394.317391 L20.0721462,393.306298 L22.48949,394.317567 L20.0721462,400.21157 Z M20.8761289,400.547956 L23.2934727,394.653895 L29.1294548,397.09532 L20.8761289,400.547956 Z M23.6264834,393.841845 L24.6278358,391.400361 L27.0451216,390.389092 L29.4624074,396.28327 C28.1312932,395.726395 25.6714238,394.697372 23.6264834,393.841845 Z M30.2663902,395.947 L27.8490464,390.052764 L29.9690013,389.165889 C30.1910277,389.073018 30.2965004,388.815967 30.2044873,388.591729 C30.1125323,388.367491 29.8580751,388.260967 29.6359906,388.353897 L27.5160358,389.240772 L26.5147993,386.799405 L27.5161518,384.357804 L33.3519598,386.799405 L31.5098425,387.570088 C31.2878161,387.662959 31.1823434,387.92001 31.2743565,388.144248 C31.3437433,388.313526 31.5057234,388.415655 31.6765219,388.415655 C31.731985,388.415655 31.7884344,388.404815 31.8428532,388.38208 C32.0676643,388.288037 33.5383645,387.672686 33.6850284,387.611514 L30.2663902,395.947 Z" id="domains"></path>
                </g>
            </g>
        </g>
    </g>
</svg>