<?xml version="1.0" encoding="UTF-8"?>
<svg width="39.9593897px" height="39.96px" viewBox="0 0 39.9593897 39.96" version="1.1" xmlns="http://www.w3.org/2000/svg" xmlns:xlink="http://www.w3.org/1999/xlink">
    <title>domain</title>
    <g id="Logos" stroke="none" stroke-width="1" fill="none" fill-rule="evenodd">
        <g id="Artboard" transform="translate(-99.2367, -320.0195)" fill="#282828" fill-rule="nonzero">
            <path d="M119.216443,320.019542 C124.553195,320.019542 129.570399,322.097787 133.344146,325.871534 C137.117814,329.644896 139.196138,334.662372 139.196138,339.999237 C139.196138,345.336255 137.117921,350.353471 133.344146,354.127246 C132.52759,354.943802 131.638951,355.692675 130.703019,356.353135 C130.443982,356.53576 130.085706,356.473919 129.902952,356.214821 C129.720109,355.955892 129.782046,355.597589 130.041264,355.414751 C130.924005,354.791909 131.762183,354.085479 132.532284,353.315073 C136.089099,349.758564 138.047783,345.029701 138.047783,339.999237 C138.047783,334.969079 136.089099,330.240215 132.532282,326.683398 C128.97585,323.126661 124.246714,321.167897 119.216443,321.167897 C114.186172,321.167897 109.457036,323.126661 105.900603,326.683399 C102.343866,330.23983 100.385102,334.968966 100.385102,339.999237 C100.385102,345.029508 102.343866,349.758644 105.900604,353.315077 C109.453253,356.868031 114.177273,358.826911 119.20178,358.830577 L119.231091,358.830577 C122.275889,358.828439 125.173672,358.128086 127.843784,356.749185 C128.125224,356.60345 128.471977,356.713893 128.617307,356.995708 C128.76273,357.27741 128.652344,357.623895 128.370782,357.769246 C125.581877,359.20988 122.42771,359.973748 119.248455,359.978627 L119.216443,359.979542 C119.200708,359.979542 119.200708,359.979542 119.186107,359.9787 C113.859506,359.970395 108.853994,357.892501 105.08874,354.126941 C101.314992,350.353194 99.2367479,345.33599 99.2367479,339.999237 C99.2367479,334.662372 101.315072,329.644896 105.088739,325.871534 C108.862486,322.097787 113.87969,320.019542 119.216443,320.019542 Z M130.816784,351.554271 C131.051299,351.554271 131.2624,351.697069 131.349361,351.91462 C131.436899,352.132138 131.383113,352.381074 131.213714,352.54339 C129.115486,354.550775 126.533868,356.010209 123.747658,356.763989 C123.698889,356.777342 123.648232,356.784047 123.597851,356.784047 C123.395585,356.784047 123.206977,356.677432 123.103301,356.501533 C122.972086,356.278909 123.005661,355.99609 123.185279,355.810573 C124.329247,354.629339 125.341879,353.292621 126.194755,351.837966 C126.29761,351.662318 126.486285,351.554271 126.689892,351.554271 Z M111.742993,351.554271 C111.9466,351.554271 112.135276,351.662318 112.238124,351.837957 C113.091006,353.292621 114.103639,354.629339 115.247608,355.810575 C115.427224,355.99609 115.460799,356.278909 115.329584,356.501533 C115.225908,356.677432 115.037301,356.784047 114.835034,356.784047 C114.784576,356.784047 114.734494,356.777399 114.685257,356.763997 C111.899018,356.010209 109.317399,354.550775 107.21916,352.543379 C107.049822,352.381122 106.995955,352.132192 107.083211,351.914641 C107.170822,351.69694 107.381731,351.554271 107.616101,351.554271 Z M123.589306,351.554271 C123.803433,351.554271 123.999824,351.673436 124.098602,351.863325 C124.197414,352.053576 124.182333,352.282412 124.059378,352.457851 C123.136722,353.774626 122.072531,354.951706 120.896262,355.956626 C120.791829,356.045932 120.659318,356.094349 120.523205,356.094349 C120.440747,356.094349 120.358886,356.076508 120.283173,356.041564 C120.079647,355.947764 119.949333,355.744264 119.949333,355.520172 L119.949333,352.128449 C119.949333,351.81143 120.206492,351.554271 120.523511,351.554271 Z M117.909375,351.554271 C118.226591,351.554271 118.483552,351.811323 118.483552,352.128449 L118.483552,355.520172 C118.483552,355.744263 118.353239,355.947764 118.149722,356.041559 C118.074,356.076508 117.992138,356.094349 117.90968,356.094349 C117.773568,356.094349 117.641056,356.045932 117.536631,355.956632 C116.359853,354.951277 115.295467,353.774067 114.37351,352.457856 C114.250552,352.282412 114.235471,352.053576 114.334289,351.863314 C114.433061,351.673436 114.629453,351.554271 114.843579,351.554271 Z M111.405774,352.702626 L109.205151,352.702626 C109.213386,352.709445 109.221628,352.716254 109.229877,352.723053 L109.205151,352.722626 C109.406215,352.881009 109.610877,353.034529 109.818915,353.183066 C110.781654,353.89443 111.824499,354.478273 112.919275,354.94197 C112.911874,354.93167 112.904476,354.921369 112.897081,354.911066 C112.906938,354.915012 112.917004,354.919288 112.927075,354.923554 L112.626707,354.531448 C112.206974,353.936996 111.800793,353.335102 111.422872,352.712251 L111.405774,352.702626 Z M129.227734,352.702626 L127.027417,352.702626 C126.543781,353.480647 126.03596,354.215311 125.490074,354.91121 C125.502852,354.906181 125.51562,354.901135 125.52838,354.89607 C125.520781,354.904452 125.5133,354.914006 125.50581,354.923554 C125.76038,354.815729 126.012186,354.701381 126.260947,354.580662 C127.324181,354.086618 128.320111,353.463042 129.24011,352.738337 L129.227734,352.702626 Z M117.315198,352.702626 L116.030408,352.702626 C116.035334,352.709439 116.040267,352.716244 116.045206,352.723038 L116.030408,352.722626 L116.206591,352.939005 C116.548679,353.384555 116.917216,353.790442 117.301041,354.175047 L117.301465,354.147143 C117.30604,354.151738 117.310618,354.15633 117.315198,354.160919 L117.314748,353.566542 L117.335198,352.722626 L117.315198,352.702626 Z M122.402478,352.702626 L121.117383,352.702626 L121.097383,354.160919 C121.104186,354.154785 121.110978,354.148642 121.11776,354.142491 L121.117383,354.160919 L121.319053,353.954474 C121.714811,353.574061 122.074743,353.164245 122.418094,352.735121 L122.402478,352.702626 Z M110.458203,329.85139 C110.651402,329.85139 110.831569,329.948441 110.937712,330.10972 C111.043976,330.271182 111.0621,330.474966 110.985795,330.652027 C110.621414,331.500528 110.304182,332.385956 110.039226,333.29227 L110.060183,333.291865 L110.386748,333.297542 L111.545239,333.317882 C111.831602,332.439113 112.158564,331.5897 112.531168,330.7748 L112.819257,330.170177 C112.916325,329.974861 113.115442,329.85139 113.333569,329.85139 L117.90968,329.85139 C118.226637,329.85139 118.483552,330.108488 118.483552,330.425568 L118.483552,333.297882 L119.929333,333.317882 L119.949333,330.425568 C119.949333,330.108549 120.206492,329.85139 120.523511,329.85139 L125.099621,329.85139 C125.317485,329.85139 125.516578,329.974898 125.613633,330.170186 C126.108648,331.166911 126.530026,332.219205 126.868861,333.303846 L128.374768,333.317882 C128.372995,333.311156 128.371218,333.304432 128.369438,333.297711 L128.306548,333.066788 C128.071567,332.22689 127.779102,331.424785 127.447099,330.652048 C127.370994,330.474766 127.389036,330.270989 127.495173,330.10972 C127.601316,329.948441 127.781484,329.85139 127.974682,329.85139 L133.003369,329.85139 C133.191027,329.85139 133.366882,329.943245 133.474649,330.097368 C134.466501,331.521745 135.236194,333.078167 135.762335,334.723347 C135.859035,335.025241 135.692533,335.348214 135.390456,335.444973 C135.333231,335.463274 135.27431,335.472401 135.215283,335.472401 C134.967803,335.472401 134.745353,335.312489 134.668843,335.073104 C134.605529,334.875287 134.537783,334.67732 134.465645,334.479092 L106.388074,334.465931 C106.070948,334.465931 105.813896,334.208971 105.813896,333.891754 C105.813896,333.574797 106.070994,333.317882 106.388074,333.317882 L108.822156,333.317882 C109.055496,332.530322 109.307165,331.768665 109.593681,331.026952 L109.572338,331.026702 L108.594748,331.019542 L105.743237,330.999745 C104.022238,333.556873 103.086291,336.49944 103.00476,339.561079 L102.998933,339.999237 C102.998933,341.826401 103.303288,343.62349 103.899404,345.330842 L134.514599,345.344249 C135.129679,343.624134 135.433952,341.827074 135.433952,339.999237 C135.433952,339.1239 135.363332,338.245147 135.224038,337.387693 C135.173023,337.074818 135.385321,336.779899 135.698238,336.728876 C136.011332,336.677873 136.306303,336.890391 136.35704,337.203365 C136.506485,338.122304 136.582307,339.063012 136.582307,339.999237 C136.582307,343.531864 135.522138,346.934883 133.51639,349.840475 C133.409389,349.995818 133.232791,350.08849 133.043957,350.08849 L128.00459,350.08849 C127.812039,350.08849 127.632134,349.991773 127.525658,349.831027 C127.419477,349.670281 127.400948,349.466788 127.47642,349.289607 C127.855385,348.398765 128.182053,347.469307 128.451081,346.518047 L128.430414,346.517629 L128.149748,346.512542 L126.948071,346.492604 C126.647503,347.445941 126.298755,348.365385 125.895974,349.244998 L125.647775,349.767938 C125.551336,349.96406 125.351374,350.08849 125.13258,350.08849 L120.523511,350.08849 C120.206187,350.08849 119.949333,349.831636 119.949333,349.514313 L119.949333,346.512604 L118.503552,346.492604 L118.483552,349.514313 C118.483552,349.831438 118.226591,350.08849 117.909375,350.08849 L113.300305,350.08849 C113.081447,350.08849 112.881526,349.964004 112.785116,349.767644 C112.275779,348.731953 111.845647,347.636498 111.503958,346.50651 L110.000744,346.492299 C110.002467,346.499025 110.004194,346.50575 110.005924,346.512472 L110.072733,346.764467 C110.312693,347.643796 110.613236,348.483143 110.956463,349.289601 C111.031937,349.466788 111.013408,349.670281 110.907213,349.831048 C110.800689,349.991867 110.621039,350.08849 110.428296,350.08849 L105.388928,350.08849 C105.200287,350.08849 105.023433,349.995726 104.916507,349.840492 C102.910981,346.93478 101.850884,343.531739 101.850884,339.999237 C101.850884,336.440237 102.925467,333.016216 104.958562,330.097338 C105.065994,329.943274 105.241823,329.85139 105.429516,329.85139 Z M108.767834,346.492604 L104.387341,346.492604 C104.39008,346.499349 104.392823,346.506091 104.395573,346.51283 L104.501608,346.764829 C104.832708,347.528417 105.233211,348.245647 105.687809,348.93149 L109.547864,348.940441 C109.54555,348.933763 109.543237,348.927086 109.540926,348.920409 L109.452188,348.662141 C109.208177,347.946343 108.981586,347.232354 108.787152,346.507423 L108.767834,346.492604 Z M134.045544,346.492604 L129.665356,346.492604 C129.426607,347.325556 129.165717,348.130781 128.866342,348.913294 L128.887684,348.913479 L129.866748,348.919542 L132.728406,348.940441 C133.148328,348.319873 133.514308,347.679927 133.833299,347.019683 L134.063841,346.52068 L134.045544,346.492604 Z M117.315503,346.492604 L112.729321,346.492604 C112.731272,346.499354 112.733228,346.506101 112.735188,346.512845 L112.810055,346.762351 C113.044082,347.518465 113.331471,348.237121 113.655731,348.928929 L117.315503,348.940441 L117.335503,346.512604 L117.315503,346.492604 Z M125.703564,346.492604 L121.117383,346.492604 L121.097383,348.920441 L124.759045,348.940441 C125.139054,348.157121 125.455405,347.350114 125.722605,346.518723 L125.703564,346.492604 Z M128.531323,336.124279 C129.895146,336.124279 131.267671,336.89021 131.267671,337.763824 C131.267671,338.135394 130.958021,338.385914 130.546704,338.385914 C130.323332,338.385914 130.179729,338.301166 129.990836,338.094429 C129.972956,338.07486 129.830855,337.913074 129.78457,337.863808 C129.446025,337.503464 129.07409,337.329091 128.422681,337.329091 C127.684998,337.329091 127.236909,337.665071 127.236909,338.188629 C127.236909,338.613729 127.573349,338.797566 128.358983,338.978687 L129.712515,339.285101 C131.006211,339.57842 131.554231,340.296179 131.554231,341.310577 C131.554231,342.663769 130.497103,343.533009 128.650036,343.533009 C126.853247,343.533009 125.696404,342.693359 125.696404,341.755219 C125.696404,341.373147 125.971885,341.103221 126.358166,341.103221 C126.634265,341.103221 126.797509,341.214546 127.017152,341.496516 C127.025669,341.507451 127.160157,341.68457 127.203097,341.737993 C127.557392,342.178793 127.944394,342.387706 128.650036,342.387706 C129.439214,342.387706 129.974053,341.963435 129.974053,341.429291 C129.974053,341.063512 129.761171,340.792302 129.267372,340.66892 L127.439753,340.204463 C126.175162,339.881957 125.71624,339.251157 125.71624,338.277741 C125.71624,336.884544 126.897319,336.124279 128.531323,336.124279 Z M121.76466,336.163646 C122.252633,336.163646 122.524995,336.426127 122.524995,336.924286 L122.524995,342.505951 C122.524995,343.166485 122.230845,343.493641 121.586743,343.493641 C121.101384,343.493641 120.928566,343.404813 120.714336,343.068031 L117.898805,338.622569 L117.862378,338.61327 L117.842378,342.733002 C117.842378,343.231092 117.56979,343.493641 117.081738,343.493641 C116.593766,343.493641 116.321404,343.231161 116.321404,342.733002 L116.321404,337.092133 C116.321404,336.442158 116.626761,336.163646 117.31886,336.163646 C117.667969,336.163646 117.946322,336.302938 118.111637,336.57903 L120.947186,341.153268 L120.984021,341.162731 L121.004021,336.924286 C121.004021,336.426088 121.27642,336.163646 121.76466,336.163646 Z M109.781323,336.292125 C111.903468,336.292125 113.149995,337.368985 113.149995,339.828644 C113.149995,342.069797 111.904649,343.365162 109.751721,343.365162 L107.805615,343.365162 C107.183351,343.365162 106.877129,343.093176 106.877129,342.436676 L106.877129,337.220612 C106.877129,336.564111 107.183351,336.292125 107.805615,336.292125 Z M109.830762,337.556141 L108.477307,337.556141 L108.457307,342.081146 L109.840527,342.101146 C110.995669,342.101146 111.569817,341.180003 111.569817,339.828644 C111.569817,338.358356 110.987313,337.556141 109.830762,337.556141 Z M124.727307,330.999745 L121.117383,330.999745 L121.097383,333.297882 L125.640088,333.317882 C125.638073,333.311137 125.636055,333.304394 125.634031,333.297655 L125.573301,333.100468 C125.342605,332.369841 125.060947,331.677499 124.745382,331.011184 L124.727307,330.999745 Z M117.315198,330.999745 L113.705578,330.999745 C113.34055,331.743776 113.034831,332.507307 112.774124,333.291573 L112.795112,333.291842 L113.821748,333.297542 L117.315198,333.317882 L117.335198,331.019745 L117.315198,330.999745 Z M132.689648,330.999745 L128.858166,330.999745 C128.86049,331.006425 128.862813,331.013105 128.865135,331.019784 L128.940609,331.238054 C129.17689,331.925179 129.398925,332.60907 129.591457,333.303228 L133.960705,333.317882 C133.957883,333.31114 133.955055,333.304402 133.952221,333.297667 L133.849639,333.0609 C133.526851,332.336824 133.140598,331.657932 132.706272,331.008625 L132.689648,330.999745 Z M114.702909,323.229608 C114.952705,323.162661 115.216043,323.270324 115.346969,323.492957 C115.477907,323.71561 115.443989,323.998427 115.264097,324.183922 C114.1309,325.351338 113.126572,326.67009 112.278756,328.103987 C112.175535,328.278578 111.987371,328.385914 111.784497,328.385914 L107.677746,328.385914 C107.442766,328.385914 107.231577,328.24264 107.144256,328.024044 C107.057554,327.805814 107.112447,327.556622 107.282876,327.395037 C109.373637,325.414621 111.939356,323.974298 114.702909,323.229608 Z M117.536622,324.053752 C117.706691,323.908146 117.946426,323.874988 118.149722,323.968817 C118.353239,324.062612 118.483552,324.266113 118.483552,324.490204 L118.483552,327.811737 C118.483552,328.128694 118.226454,328.385609 117.909375,328.385609 L114.891186,328.385609 C114.676645,328.385609 114.480025,328.266045 114.381298,328.075368 C114.28281,327.88488 114.298724,327.655441 114.422601,327.479948 C115.331537,326.195059 116.379353,325.04217 117.536622,324.053752 Z M120.283163,323.968817 C120.486437,323.874999 120.725878,323.908128 120.896264,324.053752 C122.053688,325.042302 123.10147,326.195231 124.010294,327.480268 C124.134201,327.655507 124.150037,327.884933 124.051288,328.075357 C123.952846,328.266051 123.756236,328.385609 123.541394,328.385609 L120.523511,328.385609 C120.206233,328.385609 119.949333,328.128801 119.949333,327.811737 L119.949333,324.490204 C119.949333,324.266112 120.079647,324.062612 120.283163,323.968817 Z M123.085916,323.492957 C123.216973,323.270101 123.480716,323.162136 123.729977,323.229608 C126.493396,323.974262 129.059147,325.414526 131.150017,327.39474 C131.32042,327.556298 131.375341,327.805789 131.288615,328.024079 C131.201291,328.24239 130.99006,328.385609 130.755139,328.385609 L126.648388,328.385609 C126.445321,328.385609 126.257259,328.278412 126.154138,328.103695 C125.305908,326.669406 124.301446,325.350477 123.16878,324.183913 C122.988896,323.998427 122.954979,323.71561 123.085916,323.492957 Z M112.934247,325.050393 C111.625953,325.603008 110.391082,326.327442 109.267636,327.201776 L109.299703,327.202188 C109.293104,327.207307 109.28651,327.212431 109.279919,327.21756 L110.235748,327.217542 L111.448498,327.23756 C111.804419,326.669637 112.173799,326.124258 112.562455,325.599345 L112.957751,325.081179 Z M117.301045,325.834714 C116.870286,326.266085 116.45905,326.723753 116.069789,327.204982 L116.095145,327.205448 C116.091875,327.209483 116.088606,327.213521 116.085339,327.21756 L116.559748,327.217542 L117.315198,327.23756 L117.335198,325.848846 Z M121.13153,325.834709 L121.097383,325.848846 L121.097383,327.21756 L122.347546,327.23756 C122.342592,327.230749 122.337631,327.223948 122.332664,327.217156 L122.347546,327.21756 L122.167971,326.998507 C121.843361,326.57973 121.494334,326.197771 121.13153,325.834709 Z M125.498639,325.050393 L125.475134,325.081179 C126.011338,325.763176 126.509826,326.48033 126.967327,327.227999 L129.152966,327.23756 C129.144735,327.230818 129.136498,327.224087 129.128253,327.217366 L129.152966,327.21756 C128.960425,327.067713 128.764638,326.922297 128.565796,326.781419 C127.61226,326.081885 126.580555,325.507388 125.498639,325.050393 Z" id="domain"></path>
        </g>
    </g>
</svg>