<?xml version="1.0" encoding="UTF-8"?>
<svg viewBox="0 0 206 51" version="1.1" xmlns="http://www.w3.org/2000/svg" xmlns:xlink="http://www.w3.org/1999/xlink">
    <title>dribble</title>
    <g id="Logos" stroke="none" stroke-width="1" fill="none" fill-rule="evenodd">
        <path d="M179.632317,37.674329 C178.530105,32.1065879 181.378149,28.4498015 184.31416,28.0487885 C185.340364,27.8848941 186.827535,28.5497271 187.1242,29.7926544 C187.611951,32.1350094 187.053433,35.6094725 180.482258,40.0178306 C180.491841,40.0554256 179.8782,38.9144716 179.632727,37.674329 L179.632317,37.674329 Z M165.208217,5.42726516 C168.639925,5.07146442 168.498391,20.0576052 161.610239,29.5188418 C160.721884,26.0990921 159.359865,6.60139125 165.208217,5.42685563 L165.208217,5.42726516 Z M135.189494,25.2723304 C134.722956,21.7646953 134.698958,6.12928363 138.452148,6.55978288 C140.524622,7.39932194 137.138044,22.153668 135.189494,25.2723304 L135.189494,25.2723304 Z M107.998421,25.0544598 C107.532293,21.5471523 107.507885,5.91174063 111.261485,6.34232179 C113.333876,7.18186085 109.947381,21.9357974 107.998421,25.0544598 L107.998421,25.0544598 Z M80.5898874,25.0544598 C80.1237589,21.5471523 80.0993509,5.91174063 83.8528686,6.34232179 C85.9253424,7.18186085 82.5388466,21.9357974 80.5898874,25.0544598 L80.5898874,25.0544598 Z M22.3974627,31.2126631 C22.2255415,30.9388505 22.2614984,31.1071678 22.0692644,30.8485079 C21.3116316,28.7875828 19.8516527,24.1877279 19.6825163,18.9630101 C19.491429,13.0526551 20.4765155,6.12486069 23.3805015,6.12486069 C25.3482173,6.12486069 27.4394476,20.1651481 22.3970532,31.2126631 L22.3974627,31.2126631 Z M12.3261884,45.5107914 C8.19319899,45.5107914 5.54312228,41.6892915 5.54312228,37.5687519 C5.54312228,33.4486218 7.9757379,29.6271219 12.1087273,29.6271219 C13.9684906,29.6271219 15.0031303,29.8318056 16.4514785,31.0915237 C16.7141519,32.126573 17.4585978,34.5140583 17.8207872,35.5982513 C18.3060817,37.0490567 18.883357,38.2839572 19.4654647,39.6280388 C18.6338706,43.0753909 15.9077848,45.5107914 12.3261884,45.5107914 Z M203.284139,34.9818249 C202.638882,34.5280643 202.140728,34.4528743 201.727347,35.3340217 C194.603305,50.7639306 182.597897,43.0641698 183.790452,43.7417802 C186.453388,42.5236704 193.457109,36.9067856 192.398471,29.1510009 C191.755671,24.41125 187.687469,22.3087985 183.369453,23.0615169 C175.832031,24.3756208 173.059095,32.5055532 174.470749,39.7032287 C174.71786,40.9393579 175.159171,41.958763 175.600154,42.9574459 C167.082396,49.8840118 163.699831,36.7568152 163.316101,35.1880648 C163.300866,35.1041109 169.892845,29.6095121 171.726234,16.5163066 C173.648001,2.79389733 169.270357,0.295265275 164.794099,0.373240025 C156.510592,0.517558837 154.272258,17.8244313 157.279364,32.2485314 C157.027503,32.3140564 155.855342,32.9633273 153.97199,33.03606 C152.616769,28.7716111 146.825915,25.0336556 145.310404,26.4740589 C141.517244,30.0772786 146.230293,37.1217895 149.546431,37.674329 C147.554308,49.9439671 135.095957,46.9052453 137.415133,31.533326 C141.472113,23.9994254 144.557604,12.7971895 144.007112,6.0345181 C143.812011,3.64023461 142.041771,0.432376337 138.038358,0.591520181 C130.338187,0.896129523 129.501023,18.2078345 130.403794,30.4946729 C130.358991,30.1920293 129.930458,31.9874143 126.774938,32.8801924 C126.028526,28.7372105 119.357835,24.5787483 117.787529,26.5779979 C114.847914,30.3199669 119.942318,36.9918862 122.355358,37.4572775 C120.363317,49.726506 107.905294,46.6877842 110.22447,31.315783 C114.28145,23.7823738 117.366531,12.580138 116.816039,5.81738463 C116.620938,3.42277351 114.851108,0.214915244 110.847285,0.373649556 C103.147114,0.67866843 102.310032,17.9903734 103.212721,30.2772118 C103.167509,29.9697357 102.728983,31.8243389 99.444788,32.702292 C99.3348698,27.3271944 92.6396891,24.8625534 91.031378,26.5775884 C88.1649869,29.6347392 91.6878566,35.9072836 94.9468244,37.4572775 C92.9547006,49.726506 80.49676,46.6877842 82.8159355,31.315783 C86.8729158,23.7823738 89.9584062,12.580138 89.4075047,5.81738463 C89.2128136,3.42277351 87.4425738,0.214915244 83.4387506,0.373649556 C75.7389898,0.67866843 75.119369,18.8606273 76.0220578,31.1471381 C73.4858307,42.0135583 64.980522,55.5837039 66.0855192,28.3998386 C66.1946183,26.4928973 66.3137919,25.7688461 65.363106,25.0548693 C64.6506855,24.4999545 63.0307437,24.7670508 62.1452552,24.7890016 C61.069089,24.8321662 60.7992079,25.4618615 60.5613522,26.413694 C60.0072564,28.8715367 59.9076584,31.2542715 59.8285369,34.5052943 C59.7765265,36.0260477 59.65465,36.7356834 59.0689384,38.8093039 C58.4840459,40.8825968 55.1471033,44.6720714 53.3201025,44.0384446 C50.7855136,43.1668802 51.6170259,36.0116322 52.0920002,31.0955371 C52.4877712,27.210478 51.2204358,25.4658749 47.9734264,24.8313472 C46.0724642,24.4351666 44.9175042,24.4959411 42.9378301,23.8718974 C41.0656171,23.2818447 40.6422437,19.7405461 36.6492321,20.9207333 C34.4652838,21.5668098 35.8693208,26.1942672 35.3443836,29.6239276 C32.7637634,46.4950588 27.3943173,46.9584024 24.9033025,38.762945 C36.1223292,11.2856097 28.1486739,0.453180525 23.4812462,0.453180525 C18.6199465,0.453180525 13.0629351,3.80175373 15.4161016,25.2267905 C14.2718713,24.8929407 13.920084,24.7130745 12.6675736,24.7130745 C5.5839116,24.7130745 0.757749644,30.4394681 0.757749644,37.5036364 C0.757749644,44.5677228 5.58423922,50.2946078 12.6679831,50.2946078 C16.8497067,50.2946078 19.7857181,48.3928266 22.0092271,45.450836 C23.4600325,47.5285518 25.2266684,50.3265512 28.4572966,50.2006613 C38.0868506,49.8256945 40.8873072,30.0729376 41.2178808,28.9711347 C42.2473604,29.1297871 43.2212257,29.4300555 44.1719116,29.5887898 C45.7558146,29.8266455 45.8709748,30.453474 45.835018,32.0466325 C45.4152485,45.4808137 47.894223,50.1846896 53.5175785,50.1846896 C56.6506564,50.1846896 59.4430861,47.1063251 61.3668182,44.9051766 C62.8036177,47.8707561 65.093225,50.0939375 68.1647093,50.1842801 C75.6074483,50.3693882 78.4570487,38.5066603 78.197242,40.0677935 C77.9932955,41.2927833 80.6119202,50.1175265 88.274086,50.1494699 C97.7653003,50.1894402 99.5294791,39.751963 99.7397324,38.003756 C99.7661881,37.655982 99.7777369,37.6919389 99.7397324,38.003756 L99.7326066,38.1096607 C102.745692,37.5491763 104.300436,35.9336574 104.300436,35.9336574 C104.300436,35.9336574 106.719947,50.3118081 115.682211,50.1498794 C124.989136,49.9811526 126.744141,40.5463717 126.974379,38.7065935 C127.004767,38.2700332 127.022786,38.3211427 126.974379,38.7065935 C126.973151,38.724531 126.971922,38.7425503 126.970858,38.7605697 C130.550079,37.4584241 131.491509,36.1516099 131.491509,36.1516099 C131.491509,36.1516099 133.414504,50.2438259 142.873284,50.366931 C151.302256,50.4773406 154.42616,41.8456505 154.444507,38.2328477 C155.866154,38.2480004 158.495918,37.3892953 158.434324,37.3404791 C158.434324,37.3404791 161.521862,49.6617182 170.143969,50.2946078 C174.192104,50.5916818 177.22886,48.0166312 178.959867,46.8420956 C183.028068,50.1366925 196.574625,54.3447899 205.12834,39.8427151 C206.335638,37.7614773 203.739865,35.3028155 203.284139,34.9818249 Z M63.2970209,20.4854016 C65.6397035,20.4854016 67.5386999,18.5855861 67.5386999,16.242494 C67.5386999,13.8989924 65.6397035,11.9995865 63.2970209,11.9995865 C60.9542564,11.9995865 59.0553419,13.8989924 59.0553419,16.242494 C59.0553419,18.5855861 60.9542564,20.4854016 63.2970209,20.4854016 L63.2970209,20.4854016 Z" id="dribble" fill="#000000"></path>
    </g>
</svg>