<?xml version="1.0" encoding="UTF-8"?>
<svg viewBox="0 0 126 51" version="1.1" xmlns="http://www.w3.org/2000/svg" xmlns:xlink="http://www.w3.org/1999/xlink">
    <title>ebay</title>
    <g id="Logos" stroke="none" stroke-width="1" fill="none" fill-rule="evenodd">
        <path d="M38.4387139,0.867992391 L38.4387139,16.5493519 C38.4387139,16.5493519 41.1360621,11.8620117 49.8173378,11.8620117 C59.0850543,11.8620117 64.574158,18.409127 64.574158,26.5495379 C64.574158,27.54913 64.4961754,28.5142311 64.3449145,29.4396766 C65.8121728,25.2959683 70.8489828,23.212832 79.1317053,23.1416089 L79.5746695,23.1397177 L87.2997818,23.1397177 L87.2997818,21.7761616 C87.2997818,17.9454621 83.9276315,15.9522148 79.5746695,15.9522148 C72.9896118,15.9522148 72.5427983,20.0413832 72.5293485,20.182389 L72.5290099,20.1861214 L65.938179,20.1861214 C65.938179,19.0271917 66.7873787,11.7764407 80.0299633,11.7764407 C84.5360792,11.7764407 89.4675035,12.7165596 91.9835248,16.4209653 L90.1152553,12.9144426 L97.5315678,12.9144426 L108.172607,34.2323297 L118.788532,12.9144426 L125.504929,12.9144426 L106.167268,50.8679924 L99.121143,50.8679924 L104.701398,40.2883416 L92.8507167,18.0454994 C93.3315327,19.2230588 93.6185655,20.6092548 93.6598793,22.2374379 L93.6650586,22.6495444 L93.6650586,36.349283 C93.6650586,36.689109 93.6755011,37.0698508 93.6919107,37.4583689 L93.7101437,37.8482515 C93.7731301,39.0833147 93.8809945,40.2855837 93.8916235,40.402723 L93.8924729,40.4120475 L88.0327165,40.4120475 C88.0327165,40.4120475 87.8773864,38.4132195 87.8773864,36.3855577 C87.8773864,36.3855577 87.8661255,36.4048655 87.8428388,36.4411046 L87.798794,36.5078649 C87.2751177,37.2833682 84.051917,41.4840109 75.6751411,41.4840109 C68.9038669,41.4840109 63.8933101,38.2230099 63.8933101,32.2302463 C63.8933101,31.8912963 63.9101118,31.561915 63.9436138,31.2420873 C62.1925979,37.4067632 56.921316,41.406811 49.802921,41.406811 C41.4485824,41.406811 38.3759308,36.6004154 38.3759308,36.6004154 C38.3759308,38.350651 38.1699731,40.259977 38.1541303,40.4042591 L38.153167,40.4129776 L31.9343842,40.4129776 C31.9343842,40.4129776 32.0664943,37.8207511 32.0753016,35.8642465 L32.0751591,28.2469924 L7.16482141,28.2479371 C7.16482141,33.3985831 11.0086261,37.0984319 16.3937217,37.2266659 L16.6836703,37.2301067 C23.3621935,37.2301067 24.8273631,32.6240949 24.876717,32.4624804 L24.8780282,32.4581257 L31.3981699,32.4581257 C31.3981699,32.4581257 30.5364137,41.3212399 17.0803665,41.3212399 C5.65012086,41.3212399 0.718159144,35.7019195 0.718159144,26.7769522 C0.718159144,15.5104077 8.05262102,11.7764407 16.8543473,11.7764407 C28.3711049,11.7764407 31.8397001,19.2225717 32.068953,24.404821 L32.0751591,24.5759924 L32.0757624,0.867992391 L38.4387139,0.867992391 Z M87.3002469,27.2313159 L86.0831551,27.2318188 C76.7466931,27.2422883 70.484606,27.4675409 70.484606,32.2307113 C70.484606,34.9610788 72.5057569,37.3156778 77.2228609,37.3156778 C85.7127781,37.3156778 87.255736,31.5922357 87.2992811,29.1552002 L87.3002469,29.0483055 L87.3002469,27.2313159 Z M48.2124157,16.1656773 C41.5257824,16.1656773 38.4391789,21.4631762 38.439644,26.6058101 C38.439644,32.1242126 41.879228,37.1031453 48.2552012,37.1031453 C53.598276,37.1031453 57.9842572,32.9301616 57.9842572,26.5495379 C57.9842572,20.5995597 54.1847167,16.1656773 48.2124157,16.1656773 Z M16.626933,15.9815135 C12.0818927,15.9815135 7.47946981,18.8062676 7.31361147,23.7717803 L7.30899002,24.0498402 L25.4900472,24.0498402 C25.4900472,19.2104254 21.8965283,15.9815135 16.626933,15.9815135 Z" id="ebay" fill="#231F20"></path>
    </g>
</svg>