<?xml version="1.0" encoding="UTF-8"?>
<svg viewBox="0 0 51 51" version="1.1" xmlns="http://www.w3.org/2000/svg" xmlns:xlink="http://www.w3.org/1999/xlink">
    <title>emulator-plugins</title>
    <g id="Products" stroke="none" stroke-width="1" fill="none" fill-rule="evenodd">
        <g id="Homepage-Copy-8" transform="translate(-99.000000, -1381.000000)" fill="#F3D6F7" fill-rule="nonzero">
            <path d="M124.936316,1381.10406 C138.743435,1381.10406 149.936316,1392.29694 149.936316,1406.10406 C149.924909,1419.90645 138.738707,1431.09265 124.936316,1431.10406 C111.129197,1431.10406 99.9363161,1419.91118 99.9363161,1406.10406 C99.9363161,1392.29694 111.129197,1381.10406 124.936316,1381.10406 Z M124.936316,1383.87339 C112.658656,1383.87339 102.705646,1393.8264 102.705646,1406.10406 C102.705646,1418.38172 112.658656,1428.33473 124.936316,1428.33473 C137.209772,1428.32459 147.156843,1418.37751 147.166987,1406.10406 C147.166987,1393.8264 137.213976,1383.87339 124.936316,1383.87339 Z M140.765436,1394.91054 C141.41573,1394.5149 142.263585,1394.72069 142.660148,1395.37042 C145.464961,1399.99946 146.346431,1405.54249 145.115915,1410.81324 C144.970587,1411.43771 144.414214,1411.87976 143.773061,1411.88017 C143.669226,1411.89315 143.564177,1411.89315 143.460342,1411.88017 C142.719003,1411.70704 142.258003,1410.96615 142.430207,1410.2246 C142.743527,1408.88599 142.900933,1407.51563 142.899287,1406.14085 C142.899287,1405.57979 142.899287,1405.02794 142.80731,1404.46688 C142.552325,1401.7537 141.6843,1399.1339 140.268764,1396.80525 C140.08191,1396.48848 140.029264,1396.11022 140.122521,1395.75447 C140.215777,1395.39871 140.447214,1395.09491 140.765436,1394.91054 L140.765436,1394.91054 Z M134.041969,1388.98727 C134.236957,1388.67728 134.54719,1388.45754 134.904312,1388.37645 C135.261435,1388.29537 135.636144,1388.35959 135.945879,1388.55498 C136.923216,1389.16794 137.846342,1389.86337 138.705167,1390.63365 C139.132926,1391.01473 139.280667,1391.62052 139.076381,1392.15575 C138.872095,1392.69098 138.358294,1393.04427 137.785405,1393.04343 C137.446594,1393.04222 137.119749,1392.91802 136.865642,1392.69391 C136.118728,1392.01809 135.319061,1391.40296 134.474258,1390.85439 C133.850858,1390.44999 133.659735,1389.6245 134.041969,1388.98727 Z M137.99695,1400.37393 L130.638846,1400.37393 L130.638846,1393.01583 C130.638846,1392.25387 130.021159,1391.63619 129.259202,1391.63619 L120.585837,1391.63619 C119.823881,1391.63619 119.206193,1392.25387 119.206193,1393.01583 L119.206193,1400.37393 L111.848089,1400.37393 C111.086133,1400.37393 110.468445,1400.99162 110.468445,1401.75358 L110.468445,1410.46373 C110.468445,1411.22569 111.086133,1411.84338 111.848089,1411.84338 L119.206193,1411.84338 L119.206193,1419.20148 C119.245158,1419.9361 119.850196,1420.5129 120.585837,1420.51674 L129.295992,1420.51674 C130.055862,1420.51173 130.670621,1419.89697 130.675637,1419.1371 L130.675637,1411.779 L138.033741,1411.779 C138.79361,1411.77398 139.408369,1411.15922 139.413385,1410.39935 L139.413385,1401.75358 C139.410998,1401.382 139.25981,1401.02688 138.993625,1400.76761 C138.727441,1400.50834 138.368461,1400.36654 137.99695,1400.37393 L137.99695,1400.37393 Z M136.589713,1409.08409 L129.231609,1409.08409 C128.469653,1409.08409 127.851965,1409.70178 127.851965,1410.46373 L127.851965,1417.82184 L121.965482,1417.82184 L121.965482,1410.46373 C121.965482,1409.70178 121.347794,1409.08409 120.585837,1409.08409 L113.227734,1409.08409 L113.227734,1403.13322 L120.585837,1403.13322 C121.347794,1403.13322 121.965482,1402.51554 121.965482,1401.75358 L121.965482,1394.39548 L127.916348,1394.39548 L127.916348,1401.75358 C127.916348,1402.51554 128.534036,1403.13322 129.295992,1403.13322 L136.654096,1403.13322 L136.589713,1409.08409 Z" id="emulator-plugins"></path>
        </g>
    </g>
</svg>