<?xml version="1.0" encoding="UTF-8"?>
<svg width="29.1422044px" height="25.6px" viewBox="0 0 29.1422044 25.6" version="1.1" xmlns="http://www.w3.org/2000/svg" xmlns:xlink="http://www.w3.org/1999/xlink">
    <title>faq</title>
    <g id="Website" stroke="none" stroke-width="1" fill="none" fill-rule="evenodd">
        <g id="Argon" transform="translate(-424.5832, -249.5589)" fill="#000000" fill-rule="nonzero">
            <g id="ARGON-MENU" transform="translate(119.3728, 39.0867)">
                <path d="M315.353131,210.472222 C319.204339,210.472222 322.669751,212.637892 324.390751,216.006458 L324.274986,215.786872 C329.846792,215.821947 334.352558,220.34938 334.352558,225.929444 L334.346121,226.293762 C334.290412,227.868076 333.874184,229.382823 333.138707,230.743519 L333.035365,230.926222 L333.709134,234.968541 L333.714505,235.048419 C333.706907,235.283349 333.492485,235.469354 333.248877,235.428798 L329.205365,234.756222 L329.023826,234.858391 C327.558367,235.650523 325.914813,236.072222 324.20978,236.072222 C320.358573,236.072222 316.893161,233.906553 315.172161,230.537987 L315.287354,230.756222 L314.988751,230.751342 C313.545426,230.700286 312.152678,230.346352 310.882427,229.721157 L310.539086,229.543947 L310.356354,229.441778 L306.314035,230.114354 L306.234157,230.119725 C305.999227,230.112127 305.813222,229.897705 305.853777,229.654097 L306.526354,225.611778 L306.581354,225.708222 L306.424204,225.429075 C305.688727,224.068378 305.2725,222.553631 305.216791,220.979317 L305.210354,220.615 C305.210354,215.013184 309.751316,210.472222 315.353131,210.472222 Z M324.669501,216.598673 C324.730085,216.739017 324.787451,216.880671 324.84156,217.023545 C324.852817,217.05324 324.863863,217.082828 324.874769,217.112468 C324.904148,217.192329 324.932623,217.27285 324.960071,217.353731 L324.983336,217.42308 C324.985966,217.431016 324.988585,217.438956 324.991194,217.446899 C325.02449,217.548258 325.056406,217.650896 325.08668,217.754062 C325.102273,217.807168 325.117341,217.860124 325.131977,217.913213 C325.151658,217.984639 325.170594,218.056409 325.188741,218.128412 C325.203028,218.185064 325.216785,218.241717 325.230053,218.298509 C325.246162,218.367481 325.261657,218.437113 325.27642,218.506943 C325.287869,218.56107 325.298758,218.614746 325.309215,218.668534 C325.32364,218.742753 325.337352,218.817788 325.350224,218.893028 C325.35846,218.941141 325.366269,218.988858 325.37374,219.036655 C325.386193,219.116353 325.397775,219.196743 325.4084,219.277344 C325.416352,219.337618 325.42376,219.397989 325.430629,219.458473 C325.438687,219.529492 325.445991,219.60045 325.452556,219.671553 C325.457205,219.721836 325.461484,219.772279 325.465391,219.822791 C325.471441,219.901107 325.476605,219.97964 325.480867,220.058329 C325.490887,220.243318 325.495915,220.428802 325.495915,220.614988 L325.492109,220.895466 C325.484964,221.158423 325.467802,221.418907 325.44099,221.676546 L328.81594,221.676306 C329.036854,221.676306 329.21594,221.855392 329.21594,222.076306 C329.21594,222.29722 329.036854,222.476306 328.81594,222.476306 L325.325281,222.476971 C325.121846,223.572926 324.742123,224.607376 324.216486,225.549561 L328.81594,225.550038 C329.036854,225.550038 329.21594,225.729124 329.21594,225.950038 C329.21594,226.170952 329.036854,226.350038 328.81594,226.350038 L323.719618,226.350321 C322.855337,227.608865 321.714341,228.662986 320.383779,229.424431 L328.81594,229.423776 C329.036854,229.423776 329.21594,229.602862 329.21594,229.823776 C329.21594,230.044689 329.036854,230.223776 328.81594,230.223776 L319.608371,230.223776 C319.445123,230.223776 319.304715,230.125981 319.242537,229.985779 C318.341168,230.359535 317.377138,230.607113 316.369321,230.707307 L316.188365,230.723222 L316.340937,230.969021 C318.036179,233.613975 320.975053,235.272222 324.20978,235.272222 C325.89323,235.272222 327.509853,234.826615 328.930156,233.993046 L328.99315,233.963124 C329.058269,233.938899 329.128983,233.931911 329.198308,233.943452 L332.827365,234.548222 L332.223788,230.917972 C332.2084,230.825538 332.225952,230.730636 332.273382,230.64982 C333.106833,229.229716 333.552558,227.612525 333.552558,225.929444 L333.548713,225.658786 C333.410608,220.803794 329.568894,216.876319 324.749189,216.601977 Z M315.353131,211.272222 C310.193144,211.272222 306.010354,215.455012 306.010354,220.615 C306.010354,222.29808 306.456078,223.915272 307.289529,225.335376 L307.319452,225.39837 C307.343677,225.463488 307.350665,225.534202 307.339123,225.603528 L306.734354,229.233778 L310.364604,228.629008 C310.457038,228.61362 310.55194,228.631172 310.632756,228.678602 C312.053059,229.51217 313.669682,229.957778 315.353131,229.957778 L315.436873,229.957358 L315.52028,229.956095 C315.798779,229.951183 316.074271,229.934103 316.346252,229.905366 C316.569861,229.881825 316.791226,229.850315 317.009936,229.811199 C318.322183,229.576332 319.538838,229.067802 320.599123,228.347001 C321.573456,227.684726 322.415565,226.843275 323.078614,225.870323 C324.099505,224.37228 324.695909,222.562477 324.695909,220.615 C324.695909,219.118851 324.343976,217.67343 323.678334,216.370412 C322.092776,213.266951 318.900897,211.272222 315.353131,211.272222 Z M315.353131,223.685701 C315.701753,223.685701 315.959913,223.970642 315.975003,224.307573 C315.990053,224.643425 315.678412,224.929444 315.353131,224.929444 C315.00451,224.929444 314.74635,224.644503 314.731259,224.307573 C314.71621,223.97172 315.027851,223.685701 315.353131,223.685701 Z M315.353102,215.226403 C316.799559,215.226403 317.972143,216.398944 317.972143,217.845385 L317.966991,218.011015 C317.891793,219.215975 317.001802,220.200082 315.841479,220.418916 L315.752119,220.433441 L315.753102,222.663441 C315.753102,222.884355 315.574016,223.063441 315.353102,223.063441 C315.132188,223.063441 314.953102,222.884355 314.953102,222.663441 L314.953102,220.064368 C314.953102,219.843454 315.132188,219.664368 315.353102,219.664368 C316.357738,219.664368 317.172143,218.849992 317.172143,217.845385 C317.172143,216.840778 316.357738,216.026403 315.353102,216.026403 C314.348517,216.026403 313.534119,216.840785 313.534119,217.845385 C313.534119,218.066299 313.355033,218.245385 313.134119,218.245385 C312.913206,218.245385 312.734119,218.066299 312.734119,217.845385 C312.734119,216.398954 313.906693,215.226403 315.353102,215.226403 Z" id="faq"></path>
            </g>
        </g>
    </g>
</svg>