<?xml version="1.0" encoding="UTF-8"?>
<svg viewBox="0 0 253 51" version="1.1" xmlns="http://www.w3.org/2000/svg" xmlns:xlink="http://www.w3.org/1999/xlink">
    <title>glassdoor</title>
    <g id="Logos" stroke="none" stroke-width="1" fill="none" fill-rule="evenodd">
        <path d="M252.526325,12.0729136 C252.526325,11.7922108 252.301905,11.5107956 252.076773,11.398942 C251.515367,11.1175268 250.672547,10.8931071 248.986905,10.8931071 C245.166783,10.8931071 241.73993,12.8031682 240.27942,15.9493189 L240.27942,12.0729136 C240.27942,11.7359278 239.998005,11.455225 239.661019,11.455225 L233.930836,11.455225 C233.59385,11.455225 233.313147,11.7359278 233.313147,12.0729136 L233.313147,38.2523638 C233.313147,38.5893496 233.59385,38.8707648 233.930836,38.8707648 L239.942435,38.8707648 C240.27942,38.8707648 240.560123,38.5893496 240.560123,38.2523638 L240.560123,26.4550113 C240.560123,21.1736673 244.211396,18.5896346 248.986905,18.5896346 C250.110429,18.5896346 251.233952,18.8147668 251.739787,19.0391865 C252.133056,19.1517526 252.526325,18.8703374 252.526325,18.4770685 L252.526325,12.0729136 Z M214.043687,32.4096144 C209.94215,32.4096144 206.739716,29.4885959 206.739716,25.1063557 C206.739716,20.7248279 209.94215,17.8030969 214.043687,17.8030969 C218.144512,17.8030969 221.346946,20.7248279 221.346946,25.1063557 C221.346946,29.5448789 218.200795,32.4096144 214.043687,32.4096144 L214.043687,32.4096144 Z M214.043687,10.780541 C205.616192,10.780541 199.324604,16.5670074 199.324604,25.1626387 C199.324604,33.701987 205.616192,39.5447364 214.043687,39.5447364 C222.470469,39.5447364 228.762771,33.75827 228.762771,25.1626387 C228.818341,16.6232904 222.526752,10.780541 214.043687,10.780541 L214.043687,10.780541 Z M180.616549,32.4096144 C176.515724,32.4096144 173.31329,29.4885959 173.31329,25.1063557 C173.31329,20.7248279 176.515724,17.8030969 180.616549,17.8030969 C184.718086,17.8030969 187.919807,20.7248279 187.919807,25.1063557 C187.863524,29.5448789 184.718086,32.4096144 180.616549,32.4096144 L180.616549,32.4096144 Z M180.616549,10.780541 C172.189766,10.780541 165.897465,16.5670074 165.897465,25.1626387 C165.897465,33.701987 172.189766,39.5447364 180.616549,39.5447364 C189.043331,39.5447364 195.335632,33.75827 195.335632,25.1626387 C195.335632,16.6232904 189.043331,10.780541 180.616549,10.780541 L180.616549,10.780541 Z M147.190123,32.5221805 C143.088585,32.5221805 139.998718,29.6011619 139.998718,25.1626387 C139.998718,20.7248279 143.088585,17.8030969 147.190123,17.8030969 C151.234665,17.8030969 154.380815,20.6122618 154.380815,25.1626387 C154.380815,29.6567325 151.234665,32.5221805 147.190123,32.5221805 L147.190123,32.5221805 Z M160.78497,0.499980711 L154.774084,0.499980711 C154.437098,0.499980711 154.156396,0.780683465 154.156396,1.11766926 L154.156396,15.3872009 C152.301905,12.7468851 149.212037,10.7242579 144.942363,10.7242579 C138.257506,10.7242579 132.582893,15.8930358 132.582893,25.1626387 C132.582893,34.4322416 138.257506,39.5447364 145.054929,39.5447364 C149.043901,39.5447364 152.190051,37.802812 154.156396,34.9943595 L154.156396,38.1960808 C154.156396,38.533779 154.437098,38.8144818 154.774084,38.8144818 L160.78497,38.8144818 C161.122669,38.8144818 161.403371,38.533779 161.403371,38.1960808 L161.403371,1.06209866 C161.403371,0.780683465 161.122669,0.499980711 160.78497,0.499980711 L160.78497,0.499980711 Z M128.594634,30.5558363 C128.594634,36.7918546 124.044257,39.4884534 116.740286,39.4884534 C111.684786,39.4884534 107.358829,38.1405102 104.88665,35.3313453 C104.718514,35.1062132 104.718514,34.7692274 104.88665,34.5448077 L108.369787,30.0500014 C108.594919,29.7692986 109.043758,29.7692986 109.26889,29.9944308 C111.122669,31.8482089 113.931833,33.0280154 117.471253,33.0280154 C119.493168,33.0280154 121.122526,32.4658974 121.122526,30.9491051 C121.122526,29.4885959 119.662017,29.1516101 115.055357,28.1399402 C111.010102,27.297832 105.953891,25.4433414 105.953891,19.4887384 C105.953891,13.9266916 110.336131,10.780541 117.526823,10.780541 C122.24605,10.780541 125.61662,12.1854796 128.032516,14.4325266 C128.257648,14.6569463 128.257648,14.9939321 128.088799,15.2753473 L124.774512,19.5450214 C124.549379,19.8257241 124.156111,19.8820072 123.931691,19.656875 C122.302333,18.1963658 119.605734,17.297262 116.965418,17.297262 C114.718371,17.297262 113.482282,18.0282291 113.482282,19.2080356 C113.482282,20.5559788 114.942791,20.8929646 119.830153,21.960205 C124.549379,23.0281579 128.594634,24.8256529 128.594634,30.5558363 L128.594634,30.5558363 Z M100.785825,30.5558363 C100.785825,36.7918546 96.2354483,39.4884534 88.9321896,39.4884534 C83.8759778,39.4884534 79.5500207,38.1405102 77.0778416,35.3313453 C76.9097049,35.1062132 76.9097049,34.7692274 77.0778416,34.5448077 L80.560978,30.0500014 C80.7861102,29.7692986 81.2349496,29.7692986 81.4600818,29.9944308 C83.3138599,31.8482089 86.1230248,33.0280154 89.6624443,33.0280154 C91.684359,33.0280154 93.3137174,32.4658974 93.3137174,30.9491051 C93.3137174,29.4885959 91.8532081,29.1516101 87.2465482,28.1399402 C83.2012938,27.297832 78.145082,25.4433414 78.145082,19.4887384 C78.145082,13.9266916 82.5273222,10.780541 89.7180148,10.780541 C94.4372408,10.780541 97.8085237,12.1854796 100.223707,14.4325266 C100.448839,14.6569463 100.448839,14.9939321 100.27999,15.2753473 L96.965703,19.5450214 C96.7405708,19.8257241 96.347302,19.8820072 96.1228823,19.656875 C94.4935239,18.1963658 91.7969251,17.297262 89.1566093,17.297262 C86.9095624,17.297262 85.6734729,18.0282291 85.6734729,19.2080356 C85.6734729,20.5559788 87.1339821,20.8929646 92.0213448,21.960205 C96.7405708,23.0281579 100.785825,24.8256529 100.785825,30.5558363 L100.785825,30.5558363 Z M64.7183711,27.8029545 C64.7183711,30.836539 62.2469044,33.4212842 58.4260697,33.4212842 C55.8983201,33.4212842 54.5503769,32.2977607 54.5503769,30.4995532 C54.5503769,28.982761 55.7294709,27.8029545 57.9209473,27.4659687 L64.7183711,26.623148 L64.7183711,27.8029545 Z M59.9435745,10.836824 C54.2126786,10.836824 49.8874339,12.7468851 47.9210898,16.5670074 C47.8085237,16.8484226 47.8648067,17.1854084 48.1455095,17.3535451 L52.5277497,20.4996957 C52.8084524,20.7248279 53.2017213,20.6122618 53.3705704,20.3315591 C54.6059475,18.1400827 57.3025463,17.4098281 59.9435745,17.4098281 C63.2015788,17.4098281 64.7183711,18.5333516 64.7183711,20.1627099 L64.7183711,20.6122618 C64.7183711,21.2862334 64.3251022,21.6232192 63.3141449,21.7357853 L55.785754,22.4097569 C50.7295422,22.9155918 47.021986,26.0054594 47.021986,31.0053882 C47.021986,36.0616 50.8421083,39.5447364 56.2915889,39.5447364 C60.561263,39.5447364 63.3141449,37.4658262 64.7183711,35.2750623 L64.7183711,38.3649299 C64.7183711,38.7019157 64.9990738,38.9826185 65.3367721,38.9826185 L71.3476582,38.9826185 C71.684644,38.9826185 71.9653467,38.7019157 71.9653467,38.3649299 L71.9653467,22.016488 C71.9653467,14.3762435 67.9208048,10.836824 59.9435745,10.836824 L59.9435745,10.836824 Z M42.0783403,1.11766926 L42.0783403,38.2523638 C42.0783403,38.5893496 41.7969251,38.8707648 41.4599393,38.8707648 L35.3927701,38.8707648 C35.0557843,38.8707648 34.7750816,38.5893496 34.7750816,38.2523638 L34.7750816,1.11766926 C34.7750816,0.780683465 35.0557843,0.499980711 35.3927701,0.499980711 L41.4599393,0.499980711 C41.7969251,0.499980711 42.0783403,0.780683465 42.0783403,1.11766926 L42.0783403,1.11766926 Z M14.6065174,32.4658974 C10.50498,32.4658974 7.4158248,29.5448789 7.4158248,25.1063557 C7.4158248,20.6685449 10.50498,17.7468139 14.6065174,17.7468139 C18.7073424,17.7468139 21.740927,20.5559788 21.740927,25.1063557 C21.740927,29.6011619 18.7073424,32.4658974 14.6065174,32.4658974 L14.6065174,32.4658974 Z M28.2020775,11.455225 L22.1904789,11.455225 C21.8534931,11.455225 21.5727904,11.7359278 21.5727904,12.0729136 L21.5727904,15.2753473 C20.0559981,12.8031682 16.8535644,10.780541 12.6401733,10.780541 C5.84274946,10.780541 -1.13686838e-13,15.8930358 -1.13686838e-13,25.0500726 C-1.13686838e-13,34.1515388 5.56133426,39.1514676 12.864593,39.1514676 C16.7972813,39.1514676 19.8871489,37.5221092 21.6853564,34.9380765 L21.6853564,36.6792885 C21.6853564,40.6119768 19.7752953,43.7581275 13.6511306,43.7581275 C10.561263,43.7581275 8.08979638,42.7471701 5.89832006,40.780826 C5.6176173,40.5556938 5.16806543,40.6119768 4.99992876,40.8926796 L2.30332996,45.4437689 C1.96634417,46.0051744 2.02262721,46.3421602 2.24704692,46.5672924 C5.0562118,48.982476 8.70748493,50.4999807 13.9888289,50.4999807 C25.5054787,50.4999807 28.8760491,44.0951133 28.8760491,37.0162743 L28.8760491,12.0166305 C28.819766,11.6796447 28.5390633,11.455225 28.2020775,11.455225 L28.2020775,11.455225 Z" id="glassdoor" fill="#000000"></path>
    </g>
</svg>