<?xml version="1.0" encoding="UTF-8"?>
<svg viewBox="0 0 29 28" version="1.1" xmlns="http://www.w3.org/2000/svg" xmlns:xlink="http://www.w3.org/1999/xlink">
    <title>global-ownership</title>
    <g id="Website" stroke="none" stroke-width="1" fill="none" fill-rule="evenodd">
        <g id="Economy" transform="translate(-201, -1059)" fill="#B671B8" fill-rule="nonzero">
            <path d="M217.544425,1059.26031 C218.480482,1058.82507 219.968381,1058.94468 221.16279,1059.55124 C222.318808,1060.13096 223.121562,1061.08403 223.247675,1062.01046 C223.552607,1062.2685 223.843222,1062.53948 224.118768,1062.82253 C223.881237,1061.7396 224.213181,1060.94904 225.015247,1060.70006 C225.106158,1060.67193 225.205009,1060.68731 225.282977,1060.74183 C226.393791,1061.51926 227.18998,1062.79001 227.264196,1063.90408 C227.341352,1065.00151 226.816958,1065.55886 226.23379,1065.75199 C226.533346,1066.32803 226.787758,1066.92696 226.995403,1067.54326 C227.262633,1066.48947 227.9077,1065.91118 228.730025,1065.99346 C228.829501,1066.00341 228.917974,1066.06105 228.967243,1066.14803 C229.605745,1067.27509 229.764308,1068.72179 229.361899,1069.74801 C228.99638,1070.69044 228.359691,1071.01488 227.784214,1071.01488 C227.738884,1071.01488 227.694053,1071.01276 227.649661,1071.00888 C227.680861,1071.64482 227.665605,1072.28751 227.60183,1072.9322 C228.275658,1072.07549 229.102296,1071.80151 229.822706,1072.20004 C229.911553,1072.24918 229.970451,1072.33909 229.98008,1072.44026 C230.101878,1073.72233 229.656828,1075.10718 228.872643,1075.88649 C228.393454,1076.36618 227.916329,1076.54681 227.4956,1076.54681 C227.230933,1076.54681 226.988713,1076.47504 226.782131,1076.36155 C226.544788,1076.96954 226.262426,1077.55696 225.936048,1078.11743 C226.91237,1077.59923 227.783464,1077.67563 228.275033,1078.32683 C228.336932,1078.40886 228.353876,1078.51634 228.320113,1078.61344 C227.892882,1079.8418 226.883171,1080.94142 225.807622,1081.34971 C225.460923,1081.4827 225.152238,1081.53978 224.881319,1081.53978 C224.309781,1081.53978 223.906059,1081.28568 223.662713,1080.95499 C222.251094,1082.26494 220.542608,1083.23895 218.567391,1083.85832 C218.006295,1085.02422 216.807822,1086.1718 215.719768,1086.94329 C215.666434,1086.98106 215.604035,1087 215.541698,1087 C215.479298,1087 215.416961,1086.98112 215.363627,1086.94329 C214.277637,1086.1733 213.081852,1085.02866 212.519318,1083.86508 C210.535161,1083.24614 208.819546,1082.2697 207.402737,1080.95487 C207.159454,1081.2855 206.75567,1081.5396 206.184069,1081.5396 C205.912837,1081.5396 205.603966,1081.48251 205.256704,1081.34927 C204.182155,1080.94142 203.172444,1079.84174 202.745213,1078.61338 C202.71145,1078.51628 202.728394,1078.4088 202.790293,1078.32677 C203.281987,1077.67563 204.153143,1077.59917 205.129028,1078.11718 C204.802649,1077.55678 204.520413,1076.96936 204.283132,1076.36149 C204.076551,1076.47497 203.834455,1076.54675 203.569851,1076.54675 C203.148872,1076.54675 202.671559,1076.36593 202.191807,1075.88574 C201.408373,1075.10725 200.963323,1073.72233 201.085183,1072.44026 C201.094812,1072.33909 201.153648,1072.24918 201.242558,1072.20004 C201.962967,1071.80138 202.789856,1072.07549 203.463434,1072.93214 C203.399659,1072.28751 203.384278,1071.64476 203.415477,1071.00888 C203.37121,1071.01276 203.326442,1071.01482 203.281237,1071.01482 C202.705635,1071.01482 202.068946,1070.69038 201.702989,1069.74701 C201.301018,1068.72179 201.459581,1067.27509 202.09802,1066.14821 C202.14729,1066.06124 202.235762,1066.00366 202.335239,1065.99365 C203.157626,1065.91212 203.802818,1066.48979 204.069798,1067.54308 C204.27738,1066.9269 204.531793,1066.32803 204.831286,1065.75212 C204.248181,1065.55892 203.723911,1065.00139 203.801067,1063.90308 C203.875221,1062.79014 204.67141,1061.51939 205.782223,1060.74196 C205.860129,1060.68743 205.958918,1060.67205 206.049954,1060.70019 C206.852145,1060.94916 207.184026,1061.73997 206.946433,1062.82259 C207.221979,1062.53954 207.512593,1062.26862 207.817526,1062.01058 C207.943638,1061.08415 208.746392,1060.13103 209.903724,1059.55061 C211.096882,1058.94493 212.584781,1058.82532 213.520776,1059.26043 C213.604559,1059.29945 213.666458,1059.37398 213.68928,1059.46351 C213.712039,1059.55305 213.693469,1059.64821 213.63851,1059.72249 C213.139375,1060.39794 212.232643,1061.09103 211.085315,1061.67401 C210.031087,1062.20209 209.061767,1062.47795 208.266641,1062.47795 C208.250697,1062.47795 208.235378,1062.47695 208.219622,1062.47676 C207.943826,1062.70992 207.680347,1062.9542 207.429811,1063.20893 C208.363742,1062.97971 209.18469,1063.32316 209.533015,1064.09715 C209.578971,1064.19919 209.565841,1064.31818 209.498752,1064.40784 C208.895514,1065.21397 208.166726,1065.81045 207.391108,1066.13283 C207.038719,1066.27801 206.697897,1066.34942 206.383398,1066.34942 C206.000059,1066.34942 205.656174,1066.24294 205.378001,1066.03498 C205.094952,1066.5792 204.85417,1067.14492 204.657342,1067.72709 C205.542566,1067.02681 206.417599,1067.2449 206.944619,1067.68807 C207.02884,1067.75891 207.068856,1067.86927 207.049598,1067.97762 C206.881032,1068.92506 206.48475,1069.74657 205.903521,1070.35337 C205.434461,1070.83969 204.899125,1071.09373 204.382609,1071.09373 C204.263624,1071.09373 204.14564,1071.08003 204.02972,1071.05283 C204.000896,1071.65357 204.015652,1072.26062 204.0758,1072.86961 C204.60032,1071.8821 205.490546,1071.73542 206.154183,1071.93124 C206.258474,1071.96201 206.33888,1072.04554 206.365516,1072.15102 C206.599671,1073.07713 206.572222,1073.98562 206.286047,1074.77824 C206.003311,1075.55298 205.487795,1076.04655 204.866049,1076.16198 C205.091451,1076.73564 205.358931,1077.28986 205.667678,1077.81875 C205.730766,1076.70431 206.484625,1076.21756 207.177586,1076.13521 C207.283691,1076.1224 207.388607,1076.16585 207.455008,1076.24945 C208.057933,1077.00893 208.427892,1077.85339 208.524805,1078.69172 C208.617779,1079.51942 208.370744,1080.17943 207.855604,1080.53583 C209.090778,1081.67265 210.564922,1082.54162 212.255402,1083.12985 C212.204256,1082.9042 212.182123,1082.68061 212.196816,1082.46184 C212.253901,1081.61206 212.7913,1081.00726 213.599369,1080.88346 C214.251564,1080.78342 215.049504,1081.03902 215.541573,1081.69191 C216.033642,1081.03896 216.831331,1080.78342 217.483839,1080.88346 C218.291907,1081.00726 218.829307,1081.61206 218.886392,1082.46184 C218.90096,1082.67842 218.879389,1082.8997 218.829369,1083.12303 C220.511721,1082.5348 221.979362,1081.66833 223.20966,1080.53595 C222.694456,1080.17962 222.447359,1079.51967 222.540208,1078.69279 C222.637309,1077.85345 223.007205,1077.00893 223.61013,1076.24951 C223.676531,1076.16591 223.781635,1076.12265 223.887552,1076.13528 C224.5802,1076.21762 225.333685,1076.70394 225.39746,1077.81863 C225.706207,1077.2898 225.97375,1076.73564 226.199089,1076.16204 C225.577406,1076.04662 225.061953,1075.55324 224.779466,1074.77924 C224.492916,1073.98562 224.465468,1073.0772 224.699622,1072.15102 C224.72632,1072.0456 224.806665,1071.96201 224.910956,1071.93124 C225.574467,1071.7356 226.464131,1071.8821 226.989338,1072.86968 C227.049487,1072.26069 227.064117,1071.65357 227.035294,1071.05283 C226.91931,1071.08003 226.801389,1071.09366 226.682404,1071.09366 C226.165888,1071.09366 225.630865,1070.83988 225.162305,1070.354 C224.580388,1069.74644 224.184107,1068.92493 224.015478,1067.9775 C223.99622,1067.86914 224.036236,1067.75879 224.120456,1067.68795 C224.647289,1067.24496 225.521634,1067.02706 226.407483,1067.72671 C226.210656,1067.14467 225.969936,1066.57901 225.686949,1066.03492 C225.408777,1066.24281 225.064766,1066.34929 224.681553,1066.34929 C224.367366,1066.34929 224.026857,1066.27795 223.674906,1066.13296 C222.898412,1065.81027 222.169624,1065.21372 221.566387,1064.40759 C221.499298,1064.31799 221.486167,1064.19901 221.532123,1064.0969 C221.880323,1063.32329 222.700834,1062.97996 223.635328,1063.20874 C223.384791,1062.95402 223.121312,1062.70973 222.845516,1062.47658 C222.829697,1062.47676 222.814441,1062.47777 222.798498,1062.47777 C222.003371,1062.47777 221.034239,1062.20209 219.981449,1061.6747 C218.832558,1061.09091 217.925826,1060.39782 217.426691,1059.72237 C217.371732,1059.64809 217.3531,1059.55299 217.375921,1059.46339 C217.398805,1059.37385 217.460642,1059.29932 217.544425,1059.26031 Z M217.390614,1081.49189 C216.829956,1081.40573 216.112923,1081.70147 215.828436,1082.43251 C215.782418,1082.55081 215.668498,1082.62871 215.541573,1082.62871 C215.414648,1082.62871 215.300728,1082.55075 215.25471,1082.43251 C215.002047,1081.78319 214.408313,1081.47745 213.88567,1081.47745 C213.819894,1081.47745 213.755306,1081.48226 213.692593,1081.49189 C213.445433,1081.52978 212.864704,1081.70404 212.811058,1082.50298 C212.75291,1083.36838 213.577423,1084.86766 215.541323,1086.31229 C216.985517,1085.24418 218.351931,1083.69107 218.27215,1082.50298 C218.218441,1081.7041 217.637774,1081.52978 217.390614,1081.49189 Z M204.888496,1078.6866 C204.501843,1078.47295 203.8212,1078.1954 203.389905,1078.57955 C203.786749,1079.56313 204.624016,1080.4506 205.476165,1080.77404 C206.141803,1081.02946 206.683204,1080.94136 206.935803,1080.55014 C206.822008,1080.40446 206.70665,1080.26509 206.590292,1080.1316 C206.563594,1080.10228 206.537334,1080.07264 206.511636,1080.04269 C205.980864,1079.4494 205.428834,1078.98659 204.888496,1078.6866 Z M227.675296,1078.57955 C227.244063,1078.19528 226.563357,1078.47295 226.176205,1078.68685 C225.636554,1078.98653 225.084837,1079.4489 224.554378,1080.04182 C224.528305,1080.0722 224.501732,1080.10222 224.474659,1080.13192 C224.358363,1080.26534 224.24313,1080.40452 224.12946,1080.55014 C224.38206,1080.9413 224.923273,1081.02952 225.588035,1080.77448 C226.441184,1080.4506 227.278515,1079.56313 227.675296,1078.57955 Z M207.084299,1076.77778 C206.769488,1076.85988 206.308556,1077.1136 206.27992,1077.89441 C206.257161,1078.44312 206.50851,1079.06606 206.930926,1079.58289 C206.95825,1079.61434 206.984635,1079.64666 207.012334,1079.67786 C207.042533,1079.712 207.074045,1079.74464 207.10462,1079.77834 C207.206285,1079.88457 207.314703,1079.98523 207.430436,1080.07714 C207.943388,1079.79666 207.956268,1079.14471 207.913189,1078.76125 C207.836721,1078.10036 207.544106,1077.40196 207.084299,1076.77778 Z M223.980839,1076.77784 C223.521095,1077.40196 223.228417,1078.10043 223.151887,1078.76231 C223.108932,1079.14484 223.121875,1079.79666 223.634765,1080.07714 C223.74956,1079.98598 223.857165,1079.88613 223.958142,1079.7809 L224.05962,1079.67023 C224.085818,1079.64053 224.10939,1079.61159 224.133837,1079.58339 C224.556503,1079.06662 224.80804,1078.44375 224.785281,1077.89591 C224.756645,1077.11385 224.295713,1076.85994 223.980839,1076.77784 Z M215.532632,1063.89107 C219.793625,1063.89107 223.26018,1067.35763 223.26018,1071.61856 C223.26018,1075.87955 219.793625,1079.34611 215.532632,1079.34611 C211.271639,1079.34611 207.805084,1075.87955 207.805084,1071.61856 C207.805084,1067.35763 211.271639,1063.89107 215.532632,1063.89107 Z M215.532632,1075.55461 C214.826291,1075.55461 214.131204,1075.65928 213.46763,1075.86036 C213.556415,1076.17473 213.655141,1076.47372 213.764434,1076.75283 C214.256691,1078.00964 214.901133,1078.73049 215.532632,1078.73049 C216.164068,1078.73049 216.808572,1078.0097 217.300829,1076.75277 C217.410122,1076.47366 217.508849,1076.17467 217.597634,1075.86029 C216.934059,1075.65921 216.239035,1075.55461 215.532632,1075.55461 Z M212.8859,1076.06494 C212.229704,1076.32798 211.612523,1076.68912 211.055991,1077.14042 C211.927272,1077.84814 212.968433,1078.35453 214.108132,1078.58712 C213.765747,1078.19346 213.455687,1077.65263 213.191208,1076.97742 C213.079101,1076.69112 212.977499,1076.38556 212.8859,1076.06494 Z M218.179301,1076.06494 C218.087764,1076.38556 217.986099,1076.69112 217.873993,1076.97742 C217.609576,1077.65263 217.299454,1078.19346 216.957068,1078.58712 C218.096768,1078.35453 219.137929,1077.84814 220.009147,1077.14042 C219.452615,1076.68912 218.835497,1076.32798 218.179301,1076.06494 Z M212.321865,1071.92637 L208.427767,1071.92637 C208.508236,1073.80661 209.321995,1075.49984 210.589932,1076.72695 C211.235687,1076.18911 211.95891,1075.76444 212.730651,1075.46426 C212.482491,1074.39597 212.341623,1073.18774 212.321865,1071.92637 Z M222.637497,1071.92643 L218.743398,1071.92643 C218.723578,1073.1878 218.582772,1074.39597 218.334612,1075.46426 C219.106354,1075.76438 219.829576,1076.18911 220.475331,1076.72695 C221.743206,1075.49984 222.556965,1073.80661 222.637497,1071.92643 Z M229.379656,1072.67466 C228.822061,1072.48946 228.317987,1073.00636 228.055383,1073.35124 C227.686676,1073.83781 227.382305,1074.48331 227.171097,1075.21473 L227.152715,1075.27869 C227.105884,1075.44626 227.063742,1075.61807 227.026978,1075.79352 C227.435389,1076.05906 227.951342,1075.93745 228.437847,1075.45057 C229.054215,1074.8382 229.429238,1073.7182 229.379656,1072.67466 Z M203.009442,1073.35068 C202.747214,1073.00617 202.243015,1072.48921 201.685545,1072.6746 C201.635963,1073.7182 202.010923,1074.83808 202.626541,1075.44976 C203.113733,1075.93745 203.629624,1076.059 204.03816,1075.79352 C204.001458,1075.61789 203.959317,1075.44594 203.912423,1075.27825 C203.906233,1075.25731 203.900168,1075.23636 203.894354,1075.21535 C203.683083,1074.48363 203.378588,1073.83781 203.009442,1073.35068 Z M205.642168,1072.47102 C205.2155,1072.47102 204.84154,1072.72299 204.604384,1073.18643 C204.353847,1073.67012 204.31083,1074.32538 204.46189,1074.95056 C204.484149,1075.0314 204.507533,1075.11181 204.531417,1075.19203 C204.573434,1075.32002 204.622766,1075.44588 204.681414,1075.56724 C205.12165,1075.51953 205.489921,1075.16439 205.707569,1074.56816 C205.929656,1073.95292 205.965296,1073.219 205.810922,1072.48384 C205.7539,1072.47521 205.697627,1072.47102 205.642168,1072.47102 Z M225.377187,1072.47198 L225.254341,1072.48384 C225.099968,1073.219 225.135607,1073.95298 225.35807,1074.5691 C225.575343,1075.16452 225.943676,1075.51947 226.383849,1075.56718 C226.442622,1075.44551 226.492079,1075.31927 226.534158,1075.19084 C226.558105,1075.11037 226.581427,1075.02965 226.603748,1074.94862 C226.754245,1074.32413 226.711291,1073.67005 226.461505,1073.18786 C226.192961,1072.66303 225.750474,1072.40918 225.254341,1072.48384 Z M218.12778,1071.92643 L212.937358,1071.92643 C212.956553,1073.11815 213.087105,1074.25635 213.315945,1075.26331 C214.028851,1075.0501 214.774708,1074.93906 215.532569,1074.93906 C216.290493,1074.93906 217.03635,1075.05004 217.749193,1075.26325 C217.978034,1074.25629 218.108585,1073.11809 218.12778,1071.92637 Z M210.58987,1066.51023 C209.321995,1067.7374 208.508236,1069.43063 208.427704,1071.31075 L212.321803,1071.31075 C212.341623,1070.04938 212.482429,1068.84121 212.730589,1067.77292 C211.958847,1067.47274 211.235624,1067.04807 210.58987,1066.51023 Z M217.749256,1067.974 C217.036412,1068.18714 216.290493,1068.29819 215.532632,1068.29819 C214.77477,1068.29819 214.028914,1068.18714 213.316007,1067.97393 C213.087167,1068.98083 212.956616,1070.11903 212.937421,1071.31075 L218.127843,1071.31081 C218.108648,1070.11909 217.978096,1068.98089 217.749256,1067.974 Z M220.475331,1066.51023 C219.829639,1067.04807 219.106354,1067.47274 218.334612,1067.77292 C218.582772,1068.84121 218.72364,1070.04938 218.743398,1071.31075 L222.637497,1071.31075 C222.556965,1069.43063 221.743206,1067.7374 220.475331,1066.51023 Z M206.406782,1068.0559 C205.984491,1067.79324 205.475352,1067.85326 205.013795,1068.22972 C204.443195,1068.69059 204.086054,1069.57757 204.110814,1070.43703 C204.534356,1070.56596 205.016984,1070.38576 205.459784,1069.92658 C205.918277,1069.44789 206.243843,1068.80389 206.406782,1068.0559 Z M226.052594,1068.2306 C225.590036,1067.85339 225.080648,1067.79324 224.658419,1068.0559 C224.82142,1068.80395 225.146986,1069.44795 225.606167,1069.92733 C226.048342,1070.38588 226.531032,1070.56589 226.954449,1070.43709 C226.979146,1069.57757 226.622068,1068.69059 226.052594,1068.2306 Z M228.513377,1066.60414 C227.927333,1066.65154 227.678047,1067.32555 227.579196,1067.74578 C227.450707,1068.29737 227.427823,1068.94669 227.507542,1069.63209 C227.52755,1069.75907 227.54562,1069.88644 227.561876,1070.01424 C227.582822,1070.13829 227.606832,1070.26309 227.63428,1070.38839 C228.118283,1070.47186 228.542013,1070.15898 228.788235,1069.52429 C229.104297,1068.71829 228.988877,1067.54145 228.513377,1066.60414 Z M202.551824,1066.60408 C202.076324,1067.54145 201.960841,1068.71816 202.276528,1069.52323 C202.523125,1070.15886 202.94698,1070.47198 203.430921,1070.38839 C203.457994,1070.2649 203.481753,1070.14179 203.502512,1070.01943 C203.519018,1069.88875 203.537525,1069.75857 203.558034,1069.62884 C203.637315,1068.9445 203.614243,1068.29625 203.48588,1067.74503 C203.387154,1067.32549 203.137805,1066.65154 202.551824,1066.60408 Z M215.532632,1064.50669 C214.901133,1064.50669 214.256628,1065.22754 213.764434,1066.48428 C213.655141,1066.76339 213.556415,1067.06239 213.46763,1067.37676 C214.131266,1067.5779 214.826291,1067.68251 215.532632,1067.68251 C216.238973,1067.68251 216.934059,1067.5779 217.597634,1067.37682 C217.508849,1067.06245 217.410122,1066.76346 217.300829,1066.48435 C216.808572,1065.22754 216.164131,1064.50669 215.532632,1064.50669 Z M214.108132,1064.65012 C212.968433,1064.88271 211.927272,1065.38904 211.056053,1066.09682 C211.612585,1066.54812 212.229704,1066.90926 212.8859,1067.1723 C212.977499,1066.85168 213.079101,1066.54612 213.191208,1066.25982 C213.455625,1065.58462 213.765747,1065.04378 214.108132,1064.65012 Z M216.957131,1064.65012 C217.299516,1065.04378 217.609576,1065.58462 217.874055,1066.25982 C217.986162,1066.54612 218.087764,1066.85168 218.179363,1067.1723 C218.835559,1066.90926 219.452678,1066.54812 220.009272,1066.09682 C219.137929,1065.38904 218.096768,1064.88271 216.957131,1064.65012 Z M208.886073,1064.19375 C208.62078,1063.79453 208.123897,1063.65492 207.520659,1063.82098 C206.961251,1063.9721 206.414535,1064.39177 206.030259,1064.9313 C205.987429,1064.99557 205.945038,1065.06022 205.903459,1065.12531 C205.828367,1065.24873 205.760902,1065.37653 205.704443,1065.50815 C206.036949,1065.78907 206.554716,1065.81152 207.15589,1065.56379 C207.779386,1065.30463 208.374683,1064.83269 208.886073,1064.19375 Z M223.545917,1063.82136 C222.941491,1063.6551 222.444483,1063.79453 222.179128,1064.19382 C222.690517,1064.83276 223.285877,1065.30469 223.910186,1065.56417 C224.510485,1065.81139 225.028189,1065.78907 225.360821,1065.50815 C225.304736,1065.37741 225.237835,1065.25055 225.163368,1065.12794 L225.033567,1064.92936 C224.649415,1064.39083 224.1037,1063.9721 223.545917,1063.82136 Z M206.001747,1061.34376 C205.118462,1062.01665 204.473895,1063.06543 204.415309,1063.94497 C204.36754,1064.62511 204.621203,1065.07817 205.100267,1065.19034 C205.205683,1065.05003 205.305535,1064.90822 205.400135,1064.76579 C205.427083,1064.72253 205.454844,1064.67976 205.48348,1064.63762 C205.892829,1063.99668 206.187383,1063.34586 206.33144,1062.75175 C206.550089,1061.84258 206.265977,1061.48456 206.001747,1061.34376 Z M225.063453,1061.34376 C224.799224,1061.48456 224.515112,1061.8427 224.733886,1062.75237 C224.877818,1063.34573 225.172059,1063.99593 225.581033,1064.63649 C225.610044,1064.67907 225.638118,1064.7224 225.665378,1064.76617 C225.759916,1064.90854 225.859642,1065.05022 225.964996,1065.1904 C226.44406,1065.07817 226.69766,1064.6253 226.649954,1063.94609 C226.591306,1063.06543 225.946677,1062.01665 225.063453,1061.34376 Z M220.885368,1060.10089 C220.133321,1059.71905 219.041266,1059.4884 218.199621,1059.68448 C218.673245,1060.18105 219.38759,1060.68237 220.258683,1061.12511 C221.129089,1061.56109 221.924215,1061.80994 222.583163,1061.85496 C222.402967,1061.27979 221.852687,1060.58602 220.885368,1060.10089 Z M212.196628,1059.61307 C211.499291,1059.61307 210.744368,1059.81415 210.181208,1060.10008 C209.212764,1060.58583 208.662297,1061.27973 208.482101,1061.85489 C209.141048,1061.80994 209.936362,1061.56097 210.808143,1061.12423 C211.677924,1060.68224 212.391955,1060.18098 212.86558,1059.68441 C212.655184,1059.63546 212.429095,1059.61307 212.196628,1059.61307 Z" id="global-ownership"></path>
        </g>
    </g>
</svg>