<?xml version="1.0" encoding="UTF-8"?>
<svg viewBox="0 0 33 37" version="1.1" xmlns="http://www.w3.org/2000/svg" xmlns:xlink="http://www.w3.org/1999/xlink">
    <title>hero</title>
    <g id="Products" stroke="none" stroke-width="1" fill="none" fill-rule="evenodd">
        <g id="Homepage-Copy" transform="translate(-115.000000, -148.000000)" fill="#B700C0" fill-rule="nonzero">
            <g id="TOOLS-MENU" transform="translate(71.111533, 37.977778)">
                <g id="Group-3" transform="translate(40.222480, 110.022222)">
                    <path d="M19.8653529,0.464286232 C20.0073465,0.420203941 20.1611465,0.422884678 20.3012256,0.471732546 L20.3012256,0.471732546 L35.9849853,5.96176491 C36.2402548,6.05112098 36.4093708,6.27897875 36.4093708,6.53334545 L36.4093708,6.53334545 L36.4093708,18.7527778 C36.3982027,25.6677405 32.0831906,31.9458928 25.3542859,34.8374528 L25.3542859,34.8374528 L20.3446214,36.9805074 C20.1713572,37.054375 19.9725661,37.054375 19.799621,36.9805074 L19.799621,36.9805074 L14.7899566,34.8374528 C8.06073274,31.9458928 3.74572057,25.6677405 3.73487117,18.7527778 L3.73487117,18.7527778 L3.73487117,5.92334185 C3.73487117,5.66063527 3.91483659,5.4274161 4.18159324,5.344315 L4.18159324,5.344315 Z M20.0590386,1.6905484 L5.04185154,6.36297335 L5.04185154,18.7527778 C5.05270054,25.1896859 9.07000465,31.0338659 15.3343188,33.7255663 L15.3343188,33.7255663 L20.0721212,35.7524582 L24.8099236,33.7255663 C31.0739187,31.0338659 35.0912228,25.1896859 35.1023908,18.7527778 L35.1023908,18.7527778 L35.1023908,6.95599933 L20.0590386,1.6905484 Z M19.8139799,3.26433351 C19.9556545,3.22085954 20.1097735,3.22320948 20.2498526,3.27167707 L20.2498526,3.27167707 L26.4972551,5.42775129 C26.720616,5.4994246 26.8846267,5.67713915 26.9254698,5.89186536 C26.9663129,6.10659157 26.8776067,6.3248427 26.6938127,6.46260819 C26.5100186,6.60007995 26.2595354,6.6350354 26.0396846,6.55425603 L26.0396846,6.55425603 L20.0067084,4.47103009 L7.65581148,8.2611971 L7.65581148,18.747825 C7.66506498,24.1556352 11.0872721,29.0655508 16.4236815,31.3264913 L16.4236815,31.3264913 L20.0721212,32.8659988 L23.7205609,31.3264913 C29.0566512,29.0655508 32.4788583,24.1556352 32.4884309,18.747825 L32.4884309,18.747825 L32.4884309,8.78141604 L30.9296914,8.24474748 C30.5994364,8.12372526 30.4351066,7.78180839 30.5595506,7.47543433 C30.6839945,7.16906028 31.0515826,7.01014529 31.387262,7.11794895 L31.387262,7.11794895 L33.3710253,7.80090167 C33.6262949,7.88902459 33.7954109,8.11373803 33.7954109,8.36459466 L33.7954109,8.36459466 L33.7954109,18.747825 C33.784881,24.6256241 30.065285,29.9623485 24.2655614,32.4200968 L24.2655614,32.4200968 L20.3446214,34.0744579 C20.1713572,34.1475999 19.9725661,34.1475999 19.799621,34.0744579 L19.799621,34.0744579 L15.8786811,32.4200968 C10.0786384,29.9623485 6.35904229,24.6256241 6.34883109,18.747825 L6.34883109,18.747825 L6.34883109,7.82968845 C6.34851244,7.57060709 6.52879653,7.34060624 6.79555318,7.25894563 L6.79555318,7.25894563 Z M20.0737291,8.37458017 L22.8226749,14.0000404 L28.9695046,14.9021249 L24.5216169,19.280935 L25.5716207,25.4639141 L20.0737291,22.5447073 L14.5758375,25.4639141 L15.6258414,19.280935 L11.1779536,14.9021249 L17.3247833,14.0000404 L20.0737291,8.37458017 Z M20.0737115,10.9843104 L18.0842136,15.0557194 L13.6355282,15.7085904 L16.8546254,18.8777015 L16.094611,23.3525454 L20.0737291,21.2398164 L24.0527304,23.3525454 L23.2928328,18.8777015 L26.5118132,15.7085904 L22.0632446,15.0557194 L20.0737115,10.9843104 Z M27.921021,6.52962906 C28.104815,6.37880867 28.3552982,6.34013679 28.5751491,6.42875986 L28.5751491,6.42875986 L29.4344501,6.75424818 C29.6581301,6.83288099 29.8221407,7.02785168 29.8626648,7.26342787 C29.9035079,7.49900406 29.8151208,7.73844736 29.6310076,7.88926767 C29.4472136,8.04041031 29.1970494,8.07875986 28.9771986,7.99013679 L28.9771986,7.99013679 L28.1178976,7.6649708 C27.8942177,7.58601574 27.7302069,7.39104506 27.689683,7.15546886 C27.6488398,6.91989267 27.7372269,6.68044929 27.921021,6.52962906 Z" id="hero"></path>
                </g>
            </g>
        </g>
    </g>
</svg>