<?xml version="1.0" encoding="UTF-8"?>
<svg width="22px" height="16px" viewBox="0 0 22 16" version="1.1" xmlns="http://www.w3.org/2000/svg" xmlns:xlink="http://www.w3.org/1999/xlink">
    <title>kademlia</title>
    <g id="Website" stroke="none" stroke-width="1" fill="none" fill-rule="evenodd">
        <g id="Mainchain" transform="translate(-168.6194, -493.7139)" fill="#000000" fill-rule="nonzero">
            <g id="MAINCHAIN-MENU" transform="translate(129.0465, 37.9778)">
                <path d="M61.5728965,467.736111 L61.5728965,471.736111 L57.5728965,471.736111 L57.5728965,467.736111 L61.5728965,467.736111 Z M55.5728965,467.736111 L55.5728965,471.736111 L51.5728965,471.736111 L51.5728965,467.736111 L55.5728965,467.736111 Z M49.5728965,467.736111 L49.5728965,471.736111 L45.5728965,471.736111 L45.5728965,467.736111 L49.5728965,467.736111 Z M43.5728965,467.736111 L43.5728965,471.736111 L39.5728965,471.736111 L39.5728965,467.736111 L43.5728965,467.736111 Z M60.7728965,468.536111 L58.3728965,468.536111 L58.3728965,470.936111 L60.7728965,470.936111 L60.7728965,468.536111 Z M54.7728965,468.536111 L52.3728965,468.536111 L52.3728965,470.936111 L54.7728965,470.936111 L54.7728965,468.536111 Z M48.7728965,468.536111 L46.3728965,468.536111 L46.3728965,470.936111 L48.7728965,470.936111 L48.7728965,468.536111 Z M42.7728965,468.536111 L40.3728965,468.536111 L40.3728965,470.936111 L42.7728965,470.936111 L42.7728965,468.536111 Z M61.5728965,461.736111 L61.5728965,465.736111 L57.5728965,465.736111 L57.5728965,461.736111 L61.5728965,461.736111 Z M55.5728965,461.736111 L55.5728965,465.736111 L51.5728965,465.736111 L51.5728965,461.736111 L55.5728965,461.736111 Z M49.5728965,461.736111 L49.5728965,465.736111 L45.5728965,465.736111 L45.5728965,461.736111 L49.5728965,461.736111 Z M43.5728965,461.736111 L43.5728965,465.736111 L39.5728965,465.736111 L39.5728965,461.736111 L43.5728965,461.736111 Z M60.7728965,462.536111 L58.3728965,462.536111 L58.3728965,464.936111 L60.7728965,464.936111 L60.7728965,462.536111 Z M54.7728965,462.536111 L52.3728965,462.536111 L52.3728965,464.936111 L54.7728965,464.936111 L54.7728965,462.536111 Z M48.7728965,462.536111 L46.3728965,462.536111 L46.3728965,464.936111 L48.7728965,464.936111 L48.7728965,462.536111 Z M42.7728965,462.536111 L40.3728965,462.536111 L40.3728965,464.936111 L42.7728965,464.936111 L42.7728965,462.536111 Z M43.5728965,455.736111 L43.5728965,459.736111 L39.5728965,459.736111 L39.5728965,455.736111 L43.5728965,455.736111 Z M49.5728965,455.736111 L49.5728965,459.736111 L45.5728965,459.736111 L45.5728965,455.736111 L49.5728965,455.736111 Z M55.5728965,455.736111 L55.5728965,459.736111 L51.5728965,459.736111 L51.5728965,455.736111 L55.5728965,455.736111 Z M61.5728965,455.736111 L61.5728965,459.736111 L57.5728965,459.736111 L57.5728965,455.736111 L61.5728965,455.736111 Z M48.7728965,456.536111 L46.3728965,456.536111 L46.3728965,458.936111 L48.7728965,458.936111 L48.7728965,456.536111 Z M54.7728965,456.536111 L52.3728965,456.536111 L52.3728965,458.936111 L54.7728965,458.936111 L54.7728965,456.536111 Z M60.7728965,456.536111 L58.3728965,456.536111 L58.3728965,458.936111 L60.7728965,458.936111 L60.7728965,456.536111 Z M42.7728965,456.536111 L40.3728965,456.536111 L40.3728965,458.936111 L42.7728965,458.936111 L42.7728965,456.536111 Z" id="kademlia"></path>
            </g>
        </g>
    </g>
</svg>