<?xml version="1.0" encoding="UTF-8"?>
<svg width="40px" height="40px" viewBox="0 0 40 40" version="1.1" xmlns="http://www.w3.org/2000/svg" xmlns:xlink="http://www.w3.org/1999/xlink">
    <title>kademlia</title>
    <g id="Logos" stroke="none" stroke-width="1" fill="none" fill-rule="evenodd">
        <g id="Artboard" transform="translate(-214.5, -545.9067)" fill="#000000" fill-rule="nonzero">
            <path d="M220.653846,545.906698 L220.653846,552.060544 L214.5,552.060544 L214.5,545.906698 L220.653846,545.906698 Z M219.653,546.906698 L215.5,546.906698 L215.5,551.059698 L219.653,551.059698 L219.653,546.906698 Z M220.653846,554.368237 L220.653846,560.522083 L214.5,560.522083 L214.5,554.368237 L220.653846,554.368237 Z M219.653,555.368237 L215.5,555.368237 L215.5,559.521237 L219.653,559.521237 L219.653,555.368237 Z M220.653846,562.829775 L220.653846,568.983621 L214.5,568.983621 L214.5,562.829775 L220.653846,562.829775 Z M219.653,563.829775 L215.5,563.829775 L215.5,567.982775 L219.653,567.982775 L219.653,563.829775 Z M220.653846,571.291314 L220.653846,577.44516 L214.5,577.44516 L214.5,571.291314 L220.653846,571.291314 Z M219.653,572.291314 L215.5,572.291314 L215.5,576.444314 L219.653,576.444314 L219.653,572.291314 Z M220.653846,579.752852 L220.653846,585.906698 L214.5,585.906698 L214.5,579.752852 L220.653846,579.752852 Z M219.653,580.752852 L215.5,580.752852 L215.5,584.905852 L219.653,584.905852 L219.653,580.752852 Z M229.115385,545.906698 L229.115385,552.060544 L222.961538,552.060544 L222.961538,545.906698 L229.115385,545.906698 Z M228.114538,546.906698 L223.961538,546.906698 L223.961538,551.059698 L228.114538,551.059698 L228.114538,546.906698 Z M229.115385,554.368237 L229.115385,560.522083 L222.961538,560.522083 L222.961538,554.368237 L229.115385,554.368237 Z M228.114538,555.368237 L223.961538,555.368237 L223.961538,559.521237 L228.114538,559.521237 L228.114538,555.368237 Z M229.115385,562.829775 L229.115385,568.983621 L222.961538,568.983621 L222.961538,562.829775 L229.115385,562.829775 Z M228.114538,563.829775 L223.961538,563.829775 L223.961538,567.982775 L228.114538,567.982775 L228.114538,563.829775 Z M229.115385,571.291314 L229.115385,577.44516 L222.961538,577.44516 L222.961538,571.291314 L229.115385,571.291314 Z M228.114538,572.291314 L223.961538,572.291314 L223.961538,576.444314 L228.114538,576.444314 L228.114538,572.291314 Z M229.115385,579.752852 L229.115385,585.906698 L222.961538,585.906698 L222.961538,579.752852 L229.115385,579.752852 Z M228.114538,580.752852 L223.961538,580.752852 L223.961538,584.905852 L228.114538,584.905852 L228.114538,580.752852 Z M237.576923,545.906698 L237.576923,552.060544 L231.423077,552.060544 L231.423077,545.906698 L237.576923,545.906698 Z M236.576077,546.906698 L232.423077,546.906698 L232.423077,551.059698 L236.576077,551.059698 L236.576077,546.906698 Z M237.576923,554.368237 L237.576923,560.522083 L231.423077,560.522083 L231.423077,554.368237 L237.576923,554.368237 Z M236.576077,555.368237 L232.423077,555.368237 L232.423077,559.521237 L236.576077,559.521237 L236.576077,555.368237 Z M237.576923,562.829775 L237.576923,568.983621 L231.423077,568.983621 L231.423077,562.829775 L237.576923,562.829775 Z M236.576077,563.829775 L232.423077,563.829775 L232.423077,567.982775 L236.576077,567.982775 L236.576077,563.829775 Z M237.576923,571.291314 L237.576923,577.44516 L231.423077,577.44516 L231.423077,571.291314 L237.576923,571.291314 Z M236.576077,572.291314 L232.423077,572.291314 L232.423077,576.444314 L236.576077,576.444314 L236.576077,572.291314 Z M237.576923,579.752852 L237.576923,585.906698 L231.423077,585.906698 L231.423077,579.752852 L237.576923,579.752852 Z M236.576077,580.752852 L232.423077,580.752852 L232.423077,584.905852 L236.576077,584.905852 L236.576077,580.752852 Z M246.038462,545.906698 L246.038462,552.060544 L239.884615,552.060544 L239.884615,545.906698 L246.038462,545.906698 Z M245.037615,546.906698 L240.884615,546.906698 L240.884615,551.059698 L245.037615,551.059698 L245.037615,546.906698 Z M246.038462,554.368237 L246.038462,560.522083 L239.884615,560.522083 L239.884615,554.368237 L246.038462,554.368237 Z M245.037615,555.368237 L240.884615,555.368237 L240.884615,559.521237 L245.037615,559.521237 L245.037615,555.368237 Z M246.038462,562.829775 L246.038462,568.983621 L239.884615,568.983621 L239.884615,562.829775 L246.038462,562.829775 Z M245.037615,563.829775 L240.884615,563.829775 L240.884615,567.982775 L245.037615,567.982775 L245.037615,563.829775 Z M246.038462,571.291314 L246.038462,577.44516 L239.884615,577.44516 L239.884615,571.291314 L246.038462,571.291314 Z M245.037615,572.291314 L240.884615,572.291314 L240.884615,576.444314 L245.037615,576.444314 L245.037615,572.291314 Z M246.038462,579.752852 L246.038462,585.906698 L239.884615,585.906698 L239.884615,579.752852 L246.038462,579.752852 Z M245.037615,580.752852 L240.884615,580.752852 L240.884615,584.905852 L245.037615,584.905852 L245.037615,580.752852 Z M254.5,545.906698 L254.5,552.060544 L248.346154,552.060544 L248.346154,545.906698 L254.5,545.906698 Z M253.499154,546.906698 L249.346154,546.906698 L249.346154,551.059698 L253.499154,551.059698 L253.499154,546.906698 Z M254.5,554.368237 L254.5,560.522083 L248.346154,560.522083 L248.346154,554.368237 L254.5,554.368237 Z M253.499154,555.368237 L249.346154,555.368237 L249.346154,559.521237 L253.499154,559.521237 L253.499154,555.368237 Z M254.5,562.829775 L254.5,568.983621 L248.346154,568.983621 L248.346154,562.829775 L254.5,562.829775 Z M253.499154,563.829775 L249.346154,563.829775 L249.346154,567.982775 L253.499154,567.982775 L253.499154,563.829775 Z M254.5,571.291314 L254.5,577.44516 L248.346154,577.44516 L248.346154,571.291314 L254.5,571.291314 Z M253.499154,572.291314 L249.346154,572.291314 L249.346154,576.444314 L253.499154,576.444314 L253.499154,572.291314 Z M254.5,579.752852 L254.5,585.906698 L248.346154,585.906698 L248.346154,579.752852 L254.5,579.752852 Z M253.499154,580.752852 L249.346154,580.752852 L249.346154,584.905852 L253.499154,584.905852 L253.499154,580.752852 Z" id="kademlia"></path>
        </g>
    </g>
</svg>