<?xml version="1.0" encoding="UTF-8"?>
<svg viewBox="0 0 848 1090" version="1.1" xmlns="http://www.w3.org/2000/svg" xmlns:xlink="http://www.w3.org/1999/xlink">
    <title>lab</title>
    <g id="Products" stroke="none" stroke-width="1" fill="none" fill-rule="evenodd">
        <g id="Homepage-Copy-8" transform="translate(-1292.000000, -208.000000)">
            <g id="lab" transform="translate(1293.880902, 209.273086)">
                <polygon id="Fill-2" fill="#26388F" points="165.04826 578.339106 168.499289 578.339106 168.499289 575.79289 165.04826 575.79289"></polygon>
                <polygon id="Fill-3" fill="#26388F" points="170.485926 578.339106 242.014516 578.339106 242.014516 575.79289 170.485926 575.79289"></polygon>
                <path d="M375.869435,731.041117 L154.78394,731.041117 C152.499944,731.041117 150.570846,729.343054 150.27788,727.07531 L131.681325,582.613911 C131.333455,579.897713 133.451422,577.489855 136.190898,577.489855 L355.974956,577.489855 C358.245775,577.489855 360.165209,579.165517 360.477502,581.413496 L378.231614,710.333184 L378.231614,710.342847 L380.37242,725.877969 C380.749719,728.607783 378.625164,731.041117 375.869435,731.041117" id="Fill-4" fill="#FFFFFF"></path>
                <path d="M136.190767,577.65259 C134.931934,577.65259 133.732836,578.195039 132.900495,579.140701 C132.068594,580.086363 131.68295,581.344756 131.84283,582.593487 L150.439385,727.054447 C150.720931,729.234784 152.588537,730.878382 154.783808,730.878382 L375.869304,730.878382 C377.13736,730.878382 378.342168,730.330223 379.174948,729.37402 C380.006849,728.419573 380.384148,727.153274 380.211091,725.900151 L378.068967,710.333403 L360.316612,581.435677 C360.016618,579.279058 358.15033,577.65259 355.974824,577.65259 L136.190767,577.65259 Z M375.869304,731.203852 L154.783808,731.203852 C152.425583,731.203852 150.41918,729.437708 150.116551,727.096174 L131.520435,582.634775 C131.348257,581.293366 131.762451,579.941417 132.656284,578.925478 C133.550117,577.909978 134.838378,577.32712 136.190767,577.32712 L355.974824,577.32712 C358.311527,577.32712 360.316612,579.074377 360.638567,581.391315 L378.393997,710.322423 L378.393997,710.343066 L380.533047,725.855788 C380.71928,727.202028 380.313871,728.562323 379.420477,729.587925 C378.525327,730.614844 377.231356,731.203852 375.869304,731.203852 L375.869304,731.203852 Z" id="Fill-6" fill="#26388F"></path>
                <path d="M378.231394,710.333228 L378.231394,710.342891 L155.388979,710.342891 L136.190679,577.489899 L355.974736,577.489899 C358.245555,577.489899 360.165429,579.165561 360.477721,581.41354 L378.231394,710.333228 Z" id="Fill-8" fill="#93CAF2"></path>
                <polygon id="Fill-10" fill="#AEDDFF" points="367.064764 701.864568 162.500023 701.864568 147.441465 586.679599 351.418517 586.679599"></polygon>
                <path d="M275.020272,731.041117 L270.816842,739.825276 L254.025961,774.919746 L252.43507,778.244716 L211.318319,778.244716 C207.030557,778.244716 204.212897,773.761496 206.077428,769.896712 L224.826835,731.041117 L275.020272,731.041117 Z" id="Fill-12" fill="#D1D3DD"></path>
                <path d="M270.816842,739.82532 L254.025961,774.91979 L211.578783,774.91979 C210.007218,774.91979 208.975906,773.27707 209.659348,771.861871 L224.826835,739.82532 L270.816842,739.82532 Z" id="Fill-14" fill="#FFFFFF"></path>
                <polygon id="Fill-16" fill="#FFFFFF" points="252.294253 778.244936 295.256648 778.244936 295.256648 774.919965 252.294253 774.919965"></polygon>
                <path d="M262.459966,646.194944 C260.49529,638.994648 252.827215,632.751434 246.907713,627.811415 C242.214542,623.895242 237.392676,620.132798 232.453096,616.531991 C228.676597,613.779777 224.716501,611.068411 220.177938,609.953645 C205.466371,606.34054 197.434174,625.369297 193.087994,636.03336 C192.151117,638.331411 191.340298,640.79022 191.649516,643.252543 C191.896363,645.218536 192.837633,647.019378 193.76309,648.771467 C196.945311,654.796383 200.161353,660.873129 204.545306,666.088984 C208.92926,671.305279 214.63266,675.663757 221.262836,677.235761 C230.989582,679.542157 240.792754,675.680887 248.476203,669.806626 C255.238587,664.636451 265.048787,655.683188 262.459966,646.194944" id="Fill-18" fill="#FFFFFF"></path>
                <path d="M203.783989,625.808571 C203.783989,625.808571 190.629493,611.458051 186.144955,612.354959 C181.659979,613.251866 188.536562,603.086769 188.536562,603.086769 C188.536562,603.086769 189.134354,607.27263 195.412706,610.860259 C201.691059,614.447889 211.258364,621.024918 211.258364,621.024918 L203.783989,625.808571 Z" id="Fill-19" fill="#FCFDFF"></path>
                <path d="M188.213596,609.148273 C186.520804,612.191697 183.747067,613.880097 182.018258,612.918623 C180.289449,611.957588 180.26046,608.711239 181.953692,605.667815 C183.646484,602.623952 186.420221,600.935991 188.149029,601.897026 C189.877399,602.858501 189.906388,606.104849 188.213596,609.148273" id="Fill-20" fill="#FCFDFF"></path>
                <path d="M183.103596,612.349732 C182.849721,612.349732 182.62176,612.294389 182.425864,612.18546 C181.872873,611.878438 181.550479,611.105833 181.541694,610.066615 C181.530274,608.839846 181.937001,607.42289 182.686766,606.075772 C184.004017,603.706127 185.886117,602.466181 187.063692,602.466181 C187.317567,602.466181 187.545528,602.521084 187.741424,602.630013 C188.293975,602.937035 188.61637,603.70964 188.625594,604.749298 C188.636135,605.975628 188.229848,607.393462 187.480522,608.74058 C186.162393,611.109786 184.281171,612.349732 183.103596,612.349732" id="Fill-21" fill="#93CAF2"></path>
                <path d="M237.233147,661.321407 C237.233147,661.321407 230.79799,679.694394 233.70657,683.223606 C236.61559,686.752819 224.408073,685.493107 224.408073,685.493107 C224.408073,685.493107 227.81474,682.989058 228.011515,675.760651 C228.207851,668.532244 229.486449,656.993236 229.486449,656.993236 L237.233147,661.321407 Z" id="Fill-22" fill="#FCFDFF"></path>
                <path d="M229.903059,682.914828 C233.385274,682.969292 236.183608,684.616844 236.152861,686.594696 C236.122115,688.572109 233.274149,690.131375 229.791934,690.076471 C226.309719,690.022007 223.511825,688.374456 223.542571,686.397042 C223.572878,684.41919 226.420844,682.860363 229.903059,682.914828" id="Fill-23" fill="#FCFDFF"></path>
                <path d="M235.138548,685.906642 C235.258458,686.13065 235.317314,686.357292 235.313801,686.581739 C235.304577,687.21423 234.775744,687.862972 233.864342,688.361937 C232.787789,688.950945 231.346676,689.26192 229.805418,689.237762 C227.094491,689.195596 225.112686,688.122557 224.556621,687.084657 C224.436711,686.86065 224.377415,686.634007 224.380929,686.41 C224.390592,685.777948 224.919425,685.128766 225.830827,684.629362 C226.90694,684.040794 228.348493,683.72938 229.89019,683.753537 C232.601117,683.796143 234.582483,684.868742 235.138548,685.906642" id="Fill-24" fill="#93CAF2"></path>
                <path d="M240.792974,635.450458 C245.664473,637.60532 248.622247,641.595284 247.398992,644.362433 C246.175737,647.129142 241.2344,647.625472 236.362901,645.47061 C231.491402,643.315748 228.533628,639.325783 229.756883,636.558635 C230.980139,633.791926 235.921475,633.295596 240.792974,635.450458" id="Fill-25" fill="#FCFDFF"></path>
                <path d="M246.380989,642.788277 C246.416127,643.175238 246.363859,643.529697 246.225062,643.843746 C245.834147,644.728355 244.702691,645.327026 243.121024,645.485588 C241.253858,645.673139 239.038382,645.251039 236.882203,644.297032 C233.089452,642.620052 230.938983,639.926255 230.774711,638.13244 C230.739572,637.745917 230.791402,637.39058 230.930198,637.07741 C231.321113,636.1928 232.452569,635.594569 234.034675,635.435568 C235.901842,635.248456 238.117317,635.669678 240.273936,636.623685 C244.066686,638.301543 246.217156,640.994901 246.380989,642.788277" id="Fill-26" fill="#93CAF2"></path>
                <path d="M207.756648,659.894788 C206.986678,657.723675 207.525174,655.509078 208.959259,654.94906 C210.392906,654.389041 212.179693,655.695311 212.949663,657.866425 C213.719633,660.037977 213.181137,662.252135 211.747052,662.812153 C210.312966,663.372171 208.526618,662.065902 207.756648,659.894788" id="Fill-27" fill="#FCFDFF"></path>
                <path d="M208.698489,655.778326 C208.832014,655.638651 208.982231,655.535871 209.144746,655.472182 C209.603302,655.292977 210.194506,655.430016 210.765944,655.848163 C211.441479,656.341858 212.000619,657.143013 212.341022,658.104048 C212.94101,659.794205 212.626961,661.335023 212.007647,661.982887 C211.874121,662.123002 211.723904,662.226221 211.561389,662.28947 C211.103272,662.468676 210.512069,662.331197 209.940191,661.91305 C209.265095,661.419355 208.705516,660.618639 208.364674,659.657165 C207.765564,657.967008 208.079174,656.426629 208.698489,655.778326" id="Fill-28" fill="#93CAF2"></path>
                <path d="M225.158805,621.004318 C225.158805,621.004318 239.105233,607.422012 238.073482,602.966463 C237.041292,598.510915 247.409753,605.076963 247.409753,605.076963 C247.409753,605.076963 243.243657,605.801253 239.847532,612.185021 C236.451406,618.569227 230.166026,628.330673 230.166026,628.330673 L225.158805,621.004318 Z" id="Fill-29" fill="#FCFDFF"></path>
                <path d="M241.341089,604.937376 C238.247593,603.337261 236.476618,600.615354 237.384945,598.858434 C238.293712,597.101514 241.537864,596.974577 244.630921,598.574691 C247.724417,600.175245 249.495392,602.896714 248.587065,604.653633 C247.678737,606.410553 244.434585,606.53749 241.341089,604.937376" id="Fill-30" fill="#FCFDFF"></path>
                <path d="M237.986646,599.926378 C237.97874,599.672503 238.027495,599.443225 238.130274,599.243814 C238.420605,598.682039 239.183109,598.336365 240.221448,598.295956 C241.447339,598.24808 242.876154,598.611762 244.245233,599.32024 C246.653531,600.565457 247.949698,602.408905 247.985276,603.586041 C247.993182,603.839916 247.945306,604.069633 247.842087,604.268604 C247.551756,604.82994 246.789692,605.175614 245.750913,605.216463 C244.525023,605.263899 243.095769,604.900656 241.72625,604.192178 C239.318391,602.946522 238.022224,601.103514 237.986646,599.926378" id="Fill-31" fill="#93CAF2"></path>
                <path d="M253.274043,638.099849 C253.274043,638.099849 268.561879,637.405426 270.282782,634.24912 C272.003685,631.092375 274.664979,640.365836 274.664979,640.365836 C274.664979,640.365836 271.839413,638.615066 266.509797,640.5916 C261.180182,642.567696 252.388556,645.019477 252.388556,645.019477 L253.274043,638.099849 Z" id="Fill-32" fill="#FCFDFF"></path>
                <path d="M271.173013,637.113866 C270.191774,634.557987 270.572586,632.034172 272.024241,631.47635 C273.475457,630.918967 275.448038,632.538847 276.429278,635.094726 C277.410517,637.650605 277.029266,640.17442 275.57805,640.732242 C274.126395,641.289624 272.154253,639.669744 271.173013,637.113866" id="Fill-33" fill="#FCFDFF"></path>
                <path d="M271.819867,632.417883 C271.948122,632.264592 272.096143,632.155223 272.260854,632.091974 C272.724681,631.913647 273.353219,632.108665 273.984392,632.627396 C274.729765,633.239682 275.378947,634.199399 275.813346,635.330856 C276.577606,637.320567 276.375999,639.080561 275.78216,639.790796 C275.653905,639.943648 275.505885,640.053456 275.341613,640.116705 C274.877786,640.295032 274.249248,640.099575 273.617635,639.581284 C272.872701,638.968997 272.22308,638.00884 271.788682,636.877384 C271.024422,634.887673 271.226028,633.127678 271.819867,632.417883" id="Fill-34" fill="#93CAF2"></path>
                <path d="M205.425084,644.930094 C205.425084,644.930094 182.596549,642.683872 179.366891,646.997988 C176.137673,651.311665 174.17695,636.984425 174.17695,636.984425 C174.17695,636.984425 177.993419,640.18685 186.323854,638.396988 C194.653849,636.607565 208.221221,634.854599 208.221221,634.854599 L205.425084,644.930094 Z" id="Fill-35" fill="#FCFDFF"></path>
                <path d="M178.660478,642.557066 C179.568805,646.55889 178.462385,650.221628 176.189809,650.737723 C173.916795,651.254258 171.338515,648.428252 170.430188,644.426429 C169.52186,640.424166 170.62828,636.761428 172.900856,636.245332 C175.173871,635.729237 177.75215,638.555242 178.660478,642.557066" id="Fill-36" fill="#FCFDFF"></path>
                <path d="M176.694484,649.385027 C176.471795,649.584876 176.228462,649.715328 175.970634,649.773745 C175.243708,649.939335 174.353389,649.515039 173.528515,648.610225 C172.553864,647.542457 171.796193,645.979238 171.394297,644.207824 C170.686698,641.092366 171.363112,638.524189 172.396181,637.598292 C172.619309,637.398443 172.862643,637.267552 173.120031,637.209135 C173.846518,637.043984 174.736398,637.46828 175.56215,638.373094 C176.536362,639.440862 177.294473,641.004081 177.696807,642.775934 C178.403528,645.891392 177.727553,648.45913 176.694484,649.385027" id="Fill-37" fill="#93CAF2"></path>
                <path d="M236.559984,614.184044 C234.106445,616.961734 232.427269,620.38026 231.815861,624.04212 C231.722745,624.599942 231.962564,625.170941 232.548058,625.331699 C233.050537,625.469617 233.744081,625.161278 233.838076,624.599503 C234.389749,621.294298 235.82032,618.183232 238.042824,615.666884 C238.417487,615.242588 238.460531,614.601752 238.042824,614.184044 C237.660694,613.801914 236.936404,613.757991 236.559984,614.184044" id="Fill-38" fill="#93CAF2"></path>
                <path d="M185.097963,639.754296 C189.87942,638.549928 194.660876,637.345559 199.442333,636.141191 C200.749921,635.811769 200.196052,633.789115 198.884511,634.119416 C194.103494,635.323784 189.322037,636.528153 184.54058,637.732082 C183.232553,638.061504 183.786862,640.084597 185.097963,639.754296" id="Fill-39" fill="#93CAF2"></path>
                <path d="M283.019571,610.063013 C282.42134,610.063013 281.931159,609.582496 281.921793,608.982068 C281.912272,608.375492 282.396743,607.876088 283.00288,607.866864 L343.433888,606.927351 L343.451457,606.927351 C344.049688,606.927351 344.53943,607.407868 344.549222,608.008296 C344.558317,608.614872 344.074285,609.114277 343.468148,609.1235 L283.03714,610.063013 L283.019571,610.063013 Z" id="Fill-40" fill="#FCFDFF"></path>
                <path d="M284.272035,620.082946 C283.673804,620.082946 283.184063,619.602428 283.174258,619.002001 C283.164737,618.395424 283.649207,617.89602 284.255344,617.886796 L344.686352,616.947283 L344.703921,616.947283 C345.302152,616.947283 345.791894,617.427801 345.801699,618.028228 C345.81122,618.634805 345.326749,619.134209 344.720612,619.143433 L284.289604,620.082946 L284.272035,620.082946 Z" id="Fill-41" fill="#FCFDFF"></path>
                <path d="M284.898728,630.572151 C284.296105,630.572151 283.805485,630.086363 283.800618,629.482861 C283.795822,628.876724 284.283806,628.380833 284.889944,628.376002 L324.029721,628.062831 L324.038066,628.062831 C324.641129,628.062831 325.131749,628.549058 325.136177,629.15256 C325.140973,629.758258 324.653427,630.254149 324.046851,630.25898 L284.907074,630.572151 L284.898728,630.572151 Z" id="Fill-42" fill="#FCFDFF"></path>
                <path d="M286.463924,649.202527 C285.865693,649.202527 285.375512,648.722009 285.366159,648.121582 C285.357065,647.515006 285.841096,647.015601 286.447233,647.006377 L346.878241,646.066865 L346.89581,646.066865 C347.494041,646.066865 347.984222,646.547382 347.993575,647.147809 C348.00267,647.754386 347.518638,648.25379 346.912501,648.263014 L286.481493,649.202527 L286.463924,649.202527 Z" id="Fill-43" fill="#FCFDFF"></path>
                <path d="M287.716388,659.22202 C287.118157,659.22202 286.628416,658.741502 286.618611,658.141075 C286.60909,657.534499 287.09356,657.035094 287.699697,657.02587 L348.130705,656.086358 L348.148274,656.086358 C348.746505,656.086358 349.236247,656.566875 349.246052,657.167302 C349.255573,657.773879 348.771102,658.273283 348.164965,658.282507 L287.733957,659.22202 L287.716388,659.22202 Z" id="Fill-44" fill="#FCFDFF"></path>
                <path d="M288.343081,669.711225 C287.740458,669.711225 287.249838,669.225437 287.244971,668.621935 C287.240175,668.015798 287.72816,667.519907 288.334297,667.515076 L327.473635,667.201905 L327.48198,667.201905 C328.084604,667.201905 328.575663,667.688132 328.58009,668.291634 C328.584886,668.897332 328.097341,669.393223 327.490765,669.398054 L288.351427,669.711225 L288.343081,669.711225 Z" id="Fill-45" fill="#FCFDFF"></path>
                <polygon id="Fill-46" fill="#AEDDFF" points="606.446206 777.899262 651.979853 777.899262 651.979853 758.133916 606.446206 758.133916"></polygon>
                <polygon id="Fill-47" fill="#26388F" points="577.310769 739.539557 591.512389 739.539557 591.512389 730.38908 577.310769 730.38908"></polygon>
                <path d="M597.954355,774.092632 C597.954355,777.003408 595.594373,779.363391 592.683596,779.363391 L576.871319,779.363391 C573.960543,779.363391 571.60056,777.003408 571.60056,774.092632 L571.60056,742.468078 C571.60056,739.557302 573.960543,737.19732 576.871319,737.19732 L592.683596,737.19732 C595.594373,737.19732 597.954355,739.557302 597.954355,742.468078 L597.954355,774.092632 Z" id="Fill-48" fill="#AEDDFF"></path>
                <polygon id="Fill-49" fill="#FF81A0" points="571.60078 765.600824 597.954575 765.600824 597.954575 747.812013 571.60078 747.812013"></polygon>
                <polyline id="Path" stroke="#A2DEFF" points="525.928337 871.27954 525.928337 935.192762 845.928337 935.192762"></polyline>
                <polyline id="Path" stroke="#A2DEFF" points="525.928337 943.768287 525.928337 1007.68151 845.928337 1007.68151"></polyline>
                <polyline id="Path" stroke="#A2DEFF" points="845.928337 809.778129 525.928337 809.778129 525.928337 864.446001 845.928337 864.446001"></polyline>
                <path d="M674.256101,824.249129 C674.256101,825.728895 673.056564,826.928871 671.576798,826.928871 L623.339252,826.928871 C621.859487,826.928871 620.65995,825.728895 620.65995,824.249129 C620.65995,822.769364 621.859487,821.569827 623.339252,821.569827 L671.576798,821.569827 C673.056564,821.569827 674.256101,822.769364 674.256101,824.249129" id="Fill-53" fill="#93CAF2"></path>
                <path d="M674.256101,885.75054 C674.256101,887.230306 673.056564,888.430282 671.576798,888.430282 L623.339252,888.430282 C621.859487,888.430282 620.65995,887.230306 620.65995,885.75054 C620.65995,884.270775 621.859487,883.070799 623.339252,883.070799 L671.576798,883.070799 C673.056564,883.070799 674.256101,884.270775 674.256101,885.75054" id="Fill-55" fill="#93CAF2"></path>
                <path d="M674.256101,958.239375 C674.256101,959.719141 673.056564,960.918678 671.576798,960.918678 L623.339252,960.918678 C621.859487,960.918678 620.65995,959.719141 620.65995,958.239375 C620.65995,956.75961 621.859487,955.559634 623.339252,955.559634 L671.576798,955.559634 C673.056564,955.559634 674.256101,956.75961 674.256101,958.239375" id="Fill-56" fill="#93CAF2"></path>
                <polyline id="Path" stroke="#AEDDFF" points="273.460303 935.192762 273.460303 871.27954 10.4603031 871.27954"></polyline>
                <polyline id="Path" stroke="#AEDDFF" points="130.659653 1007.68151 273.460303 1007.68151 273.460303 943.768287 154.745727 943.768287"></polyline>
                <polyline id="Path" stroke="#A2DEFF" points="273.460303 864.446001 273.460303 809.778129 10.4603031 809.778129"></polyline>
                <line x1="508.460303" y1="871.27954" x2="285.460303" y2="871.27954" id="Path" stroke="#AEDDFF"></line>
                <path d="M285.659653,1007.68151 L508.460303,1007.68151 M508.460303,943.768287 L285.659653,943.768287" id="Shape" stroke="#AEDDFF"></path>
                <line x1="508.460303" y1="809.778129" x2="285.460303" y2="809.778129" id="Path" stroke="#A2DEFF"></line>
                <path d="M208.341878,824.249129 C208.341878,825.728895 207.142341,826.928871 205.662136,826.928871 L157.425029,826.928871 C155.945264,826.928871 154.745727,825.728895 154.745727,824.249129 C154.745727,822.769364 155.945264,821.569827 157.425029,821.569827 L205.662136,821.569827 C207.142341,821.569827 208.341878,822.769364 208.341878,824.249129" id="Fill-60" fill="#93CAF2"></path>
                <path d="M208.341878,885.75054 C208.341878,887.230306 207.142341,888.430282 205.662136,888.430282 L157.425029,888.430282 C155.945264,888.430282 154.745727,887.230306 154.745727,885.75054 C154.745727,884.270775 155.945264,883.070799 157.425029,883.070799 L205.662136,883.070799 C207.142341,883.070799 208.341878,884.270775 208.341878,885.75054" id="Fill-62" fill="#93CAF2"></path>
                <path d="M208.341878,958.239375 C208.341878,959.719141 207.142341,960.918678 205.662136,960.918678 L157.425029,960.918678 C155.945264,960.918678 154.745727,959.719141 154.745727,958.239375 C154.745727,956.75961 155.945264,955.559634 157.425029,955.559634 L205.662136,955.559634 C207.142341,955.559634 208.341878,956.75961 208.341878,958.239375" id="Fill-63" fill="#93CAF2"></path>
                <polygon id="Fill-64" fill="#FFFFFF" points="10.5 791.732368 845.5 791.732368 845.5 778.581386 10.5 778.581386"></polygon>
                <path d="M114.707856,790.512715 C114.344174,790.512715 114.049011,790.217552 114.049011,789.85387 L114.049011,431.024997 C114.049011,430.661314 114.344174,430.366152 114.707856,430.366152 C115.071539,430.366152 115.366701,430.661314 115.366701,431.024997 L115.366701,789.85387 C115.366701,790.217552 115.071539,790.512715 114.707856,790.512715" id="Fill-66" fill="#FFFFFF"></path>
                <path d="M662.814908,520.921216 L114.707812,520.920776 C114.34413,520.920776 114.048967,520.625614 114.048967,520.261931 C114.048967,519.898249 114.34413,519.603087 114.707812,519.603087 L662.814908,519.603526 C663.178591,519.603526 663.473753,519.898688 663.473753,520.262371 C663.473753,520.626053 663.178591,520.921216 662.814908,520.921216" id="Fill-68" fill="#FFFFFF"></path>
                <path d="M576.086064,647.485577 C584.67213,643.016852 589.159742,632.750292 591.252673,626.095959 C585.194814,640.597574 570.265829,648.96139 555.147535,647.148688 C563.122193,650.448183 570.158217,650.570289 576.086064,647.485577 M530.019192,594.006261 L529.379234,593.753265 C535.58687,578.074514 543.437666,569.476589 552.713323,568.199747 C566.797669,566.259669 578.23873,583.286855 578.742966,583.950092 L578.230384,583.286855 C578.111792,583.130489 566.19285,567.712202 552.894286,569.548183 C544.692985,570.679639 537.602936,578.051674 531.794999,591.473662 C540.776372,579.85032 556.55351,574.801373 571.098608,580.086626 C588.909381,586.55824 598.186356,606.095186 592.061295,623.945929 C590.387829,631.34256 586.271806,643.715667 576.718555,648.690385 C570.855714,651.743472 564.026568,651.875241 556.370351,649.093598 C555.029382,648.606053 553.66206,648.029344 552.271018,647.363032 C552.271018,647.363032 549.108563,645.929825 547.39908,645.308754 C529.388458,638.764667 520.093035,618.858768 526.637561,600.848145 C527.52788,598.398121 528.672513,596.115882 530.019192,594.006261" id="Fill-86" stroke="#979797"></path>
                <path d="M417.033096,532.666399 C412.852945,532.666399 408.195351,546.196437 408.195351,565.612156 C408.195351,585.026996 412.852945,598.557474 417.033096,598.557474 C421.213247,598.557474 425.870841,585.026996 425.870841,565.612156 C425.870841,546.196437 421.213247,532.666399 417.033096,532.666399 M417.033096,600.48174 C410.042752,600.48174 406.270646,582.515919 406.270646,565.612156 C406.270646,548.707954 410.042752,530.741694 417.033096,530.741694 C424.02344,530.741694 427.795107,548.707954 427.795107,565.612156 C427.795107,582.515919 424.02344,600.48174 417.033096,600.48174" id="Fill-142" fill="#FFFFFF"></path>
                <path d="M392.89425,547.60351 C390.621675,547.60351 389.090519,548.118727 388.503269,549.135983 C386.412974,552.756116 395.800635,563.555901 412.613477,573.265078 C420.380379,577.750494 428.174953,581.089959 434.561356,582.668991 C440.405749,584.113179 444.518698,583.89576 445.562748,582.08745 C446.607236,580.278701 444.74007,576.608057 440.567386,572.268466 C436.00818,567.525661 429.219881,562.443771 421.45254,557.958794 C409.364933,550.978113 398.707019,547.60351 392.89425,547.60351 M441.119937,585.545068 C439.171953,585.545068 436.822951,585.210375 434.099726,584.537035 C427.542462,582.916277 419.57,579.504778 411.651124,574.931956 C397.01247,566.478537 383.341,554.227536 386.836391,548.173631 C390.331783,542.119285 407.776677,547.838498 422.414892,556.291917 C430.334208,560.865179 437.273601,566.065222 441.954913,570.934524 C446.97048,576.150819 448.794162,580.340633 447.229625,583.049803 C446.271226,584.709214 444.197182,585.545068 441.119937,585.545068" id="Fill-143" fill="#FFFFFF"></path>
                <path d="M441.140493,547.606936 C439.355902,547.606936 437.125493,547.920985 434.561268,548.554794 C428.174865,550.133387 420.380292,553.473291 412.613389,557.958707 C395.800547,567.667884 386.412886,578.467669 388.503181,582.087362 C390.593915,585.707934 404.639609,582.974607 421.452452,573.26499 C438.265733,563.555813 447.653394,552.756468 445.56266,549.135895 C444.976727,548.120835 443.42361,547.606936 441.140493,547.606936 M392.964878,585.566942 C390.025113,585.566942 387.847411,584.800925 386.836303,583.049715 C383.340912,576.996248 397.012382,564.745687 411.651036,556.291829 C419.570352,551.718567 427.542814,548.307508 434.099638,546.686749 C441.124242,544.950034 445.664561,545.463933 447.229537,548.173982 C450.725368,554.227449 437.053459,566.478449 422.414804,574.931868 C412.010326,580.940094 400.188453,585.566942 392.964878,585.566942" id="Fill-144" fill="#FFFFFF"></path>
                <path d="M426.833062,542.435224 C426.833062,543.815284 425.714343,544.934003 424.334283,544.934003 C422.953784,544.934003 421.835065,543.815284 421.835065,542.435224 C421.835065,541.055163 422.953784,539.936445 424.334283,539.936445 C425.714343,539.936445 426.833062,541.055163 426.833062,542.435224" id="Fill-145" fill="#26388F"></path>
                <path d="M397.139276,569.777022 C397.139276,571.157082 396.020557,572.275801 394.640497,572.275801 C393.259997,572.275801 392.141278,571.157082 392.141278,569.777022 C392.141278,568.396961 393.259997,567.278243 394.640497,567.278243 C396.020557,567.278243 397.139276,568.396961 397.139276,569.777022" id="Fill-146" fill="#26388F"></path>
                <path d="M426.980072,590.503886 C426.980072,591.883946 425.861354,593.003104 424.481293,593.003104 C423.100794,593.003104 421.982075,591.883946 421.982075,590.503886 C421.982075,589.123825 423.100794,588.005107 424.481293,588.005107 C425.861354,588.005107 426.980072,589.123825 426.980072,590.503886" id="Fill-147" fill="#26388F"></path>
                <path d="M420.112098,565.611892 C420.112098,567.312591 418.733355,568.690894 417.033096,568.690894 C415.332398,568.690894 413.954094,567.312591 413.954094,565.611892 C413.954094,563.911194 415.332398,562.532891 417.033096,562.532891 C418.733355,562.532891 420.112098,563.911194 420.112098,565.611892" id="Fill-148" fill="#FFFFFF"></path>
                <rect id="Rectangle" fill="#BDBDBD" x="164.180122" y="443.21583" width="15.8513681" height="15.8518074"></rect>
                <rect id="Rectangle" fill="#BDBDBD" x="196.180122" y="443.21583" width="15.8513681" height="15.8518074"></rect>
                <rect id="Rectangle" fill="#BDBDBD" x="307.180122" y="443.21583" width="15.8513681" height="15.8518074"></rect>
                <rect id="Rectangle" fill="#BDBDBD" x="339.180122" y="443.21583" width="15.8513681" height="15.8518074"></rect>
                <rect id="Rectangle" fill="#BDBDBD" x="449.180122" y="443.21583" width="15.8513681" height="15.8518074"></rect>
                <rect id="Rectangle" fill="#BDBDBD" x="481.180122" y="443.21583" width="15.8513681" height="15.8518074"></rect>
                <rect id="Rectangle" fill="#BDBDBD" x="449.180122" y="413.21583" width="15.8513681" height="15.8518074"></rect>
                <rect id="Rectangle" fill="#BDBDBD" x="481.180122" y="413.21583" width="15.8513681" height="15.8518074"></rect>
                <rect id="Rectangle" fill="#BDBDBD" x="592.180122" y="443.21583" width="15.8513681" height="15.8518074"></rect>
                <rect id="Rectangle" fill="#BDBDBD" x="624.180122" y="443.21583" width="15.8513681" height="15.8518074"></rect>
                <rect id="Rectangle" fill="#BDBDBD" x="592.180122" y="413.21583" width="15.8513681" height="15.8518074"></rect>
                <rect id="Rectangle" fill="#BDBDBD" x="624.180122" y="413.21583" width="15.8513681" height="15.8518074"></rect>
                <rect id="Rectangle" fill="#BDBDBD" x="592.180122" y="383.21583" width="15.8513681" height="15.8518074"></rect>
                <rect id="Rectangle" fill="#BDBDBD" x="624.180122" y="383.21583" width="15.8513681" height="15.8518074"></rect>
                <rect id="Rectangle" fill="#FFFFFF" x="696.957215" y="513.152029" width="19.4994597" height="19.5"></rect>
                <rect id="Rectangle" fill="#FFFFFF" x="616.713621" y="564.502793" width="19.4994597" height="19.5"></rect>
                <rect id="Rectangle" fill="#FFFFFF" x="684.432794" y="634.3824" width="23.999335" height="24"></rect>
                <polygon id="Fill-151" fill="#FFFFFF" points="136.625692 481.214393 213.025782 481.214393 213.025782 477.45722 136.625692 477.45722"></polygon>
                <polygon id="Fill-152" fill="#FFFFFF" points="136.625692 495.61762 213.025782 495.61762 213.025782 491.860447 136.625692 491.860447"></polygon>
                <polygon id="Fill-155" fill="#FFFFFF" points="279.406158 481.214393 355.806248 481.214393 355.806248 477.45722 279.406158 477.45722"></polygon>
                <polygon id="Fill-156" fill="#FFFFFF" points="279.406158 495.61762 355.806248 495.61762 355.806248 491.860447 279.406158 491.860447"></polygon>
                <polygon id="Fill-159" fill="#FFFFFF" points="422.186185 481.214393 498.586275 481.214393 498.586275 477.45722 422.186185 477.45722"></polygon>
                <polygon id="Fill-160" fill="#FFFFFF" points="422.186185 495.61762 498.586275 495.61762 498.586275 491.860447 422.186185 491.860447"></polygon>
                <polygon id="Fill-163" fill="#FFFFFF" points="564.966212 481.214393 641.366302 481.214393 641.366302 477.45722 564.966212 477.45722"></polygon>
                <polygon id="Fill-164" fill="#FFFFFF" points="564.966212 495.61762 641.366302 495.61762 641.366302 491.860447 564.966212 491.860447"></polygon>
                <rect id="Rectangle" fill="#BDBDBD" x="756.180122" y="443.21583" width="15.8513681" height="15.8518074"></rect>
                <rect id="Rectangle" fill="#BDBDBD" x="788.180122" y="443.21583" width="15.8513681" height="15.8518074"></rect>
                <polygon id="Fill-163" fill="#FFFFFF" points="696.366302 481.214393 805.366302 481.214393 805.366302 477.45722 696.366302 477.45722"></polygon>
                <polygon id="Fill-164" fill="#FFFFFF" points="696.366302 495.61762 805.366302 495.61762 805.366302 491.860447 696.366302 491.860447"></polygon>
                <rect id="Rectangle" fill="#BDBDBD" x="756.180122" y="410.313787" width="15.8513681" height="15.8518074"></rect>
                <rect id="Rectangle" fill="#BDBDBD" x="722.180122" y="443.21583" width="15.8513681" height="15.8518074"></rect>
                <rect id="Rectangle" fill="#BDBDBD" x="722.180122" y="410.313787" width="15.8513681" height="15.8518074"></rect>
                <rect id="Rectangle" fill="#BDBDBD" x="788.180122" y="410.313787" width="15.8513681" height="15.8518074"></rect>
                <rect id="Rectangle" fill="#BDBDBD" x="756.180122" y="350.313787" width="15.8513681" height="15.8518074"></rect>
                <rect id="Rectangle" fill="#BDBDBD" x="722.180122" y="350.313787" width="15.8513681" height="15.8518074"></rect>
                <rect id="Rectangle" fill="#BDBDBD" x="788.180122" y="350.313787" width="15.8513681" height="15.8518074"></rect>
                <rect id="Rectangle" fill="#BDBDBD" x="756.180122" y="380.313787" width="15.8513681" height="15.8518074"></rect>
                <rect id="Rectangle" fill="#BDBDBD" x="722.180122" y="380.313787" width="15.8513681" height="15.8518074"></rect>
                <rect id="Rectangle" fill="#BDBDBD" x="788.180122" y="380.313787" width="15.8513681" height="15.8518074"></rect>
                <rect id="Rectangle" fill="#BDBDBD" x="756.180122" y="320.313787" width="15.8513681" height="15.8518074"></rect>
                <rect id="Rectangle" fill="#BDBDBD" x="722.180122" y="320.313787" width="15.8513681" height="15.8518074"></rect>
                <rect id="Rectangle" fill="#BDBDBD" x="788.180122" y="320.313787" width="15.8513681" height="15.8518074"></rect>
                <rect id="Rectangle" fill="#BDBDBD" x="756.180122" y="260.313787" width="15.8513681" height="15.8518074"></rect>
                <rect id="Rectangle" fill="#BDBDBD" x="722.180122" y="260.313787" width="15.8513681" height="15.8518074"></rect>
                <rect id="Rectangle" fill="#BDBDBD" x="788.180122" y="260.313787" width="15.8513681" height="15.8518074"></rect>
                <rect id="Rectangle" fill="#BDBDBD" x="756.180122" y="290.313787" width="15.8513681" height="15.8518074"></rect>
                <rect id="Rectangle" fill="#BDBDBD" x="722.180122" y="290.313787" width="15.8513681" height="15.8518074"></rect>
                <rect id="Rectangle" fill="#BDBDBD" x="788.180122" y="290.313787" width="15.8513681" height="15.8518074"></rect>
                <rect id="Rectangle" fill="#BDBDBD" x="756.180122" y="230.313787" width="15.8513681" height="15.8518074"></rect>
                <rect id="Rectangle" fill="#BDBDBD" x="722.180122" y="230.313787" width="15.8513681" height="15.8518074"></rect>
                <rect id="Rectangle" fill="#BDBDBD" x="788.180122" y="230.313787" width="15.8513681" height="15.8518074"></rect>
                <rect id="Rectangle" fill="#BDBDBD" x="756.180122" y="201.313787" width="15.8513681" height="15.8518074"></rect>
                <rect id="Rectangle" fill="#BDBDBD" x="722.180122" y="201.313787" width="15.8513681" height="15.8518074"></rect>
                <rect id="Rectangle" fill="#BDBDBD" x="788.180122" y="201.313787" width="15.8513681" height="15.8518074"></rect>
                <rect id="Rectangle" fill="#BDBDBD" x="756.180122" y="141.313787" width="15.8513681" height="15.8518074"></rect>
                <rect id="Rectangle" fill="#BDBDBD" x="722.180122" y="141.313787" width="15.8513681" height="15.8518074"></rect>
                <rect id="Rectangle" fill="#BDBDBD" x="788.180122" y="141.313787" width="15.8513681" height="15.8518074"></rect>
                <rect id="Rectangle" fill="#BDBDBD" x="756.180122" y="171.313787" width="15.8513681" height="15.8518074"></rect>
                <rect id="Rectangle" fill="#BDBDBD" x="722.180122" y="171.313787" width="15.8513681" height="15.8518074"></rect>
                <rect id="Rectangle" fill="#BDBDBD" x="788.180122" y="171.313787" width="15.8513681" height="15.8518074"></rect>
                <rect id="Rectangle" fill="#BDBDBD" x="756.180122" y="111.313787" width="15.8513681" height="15.8518074"></rect>
                <rect id="Rectangle" fill="#BDBDBD" x="722.180122" y="111.313787" width="15.8513681" height="15.8518074"></rect>
                <rect id="Rectangle" fill="#BDBDBD" x="788.180122" y="111.313787" width="15.8513681" height="15.8518074"></rect>
                <rect id="Rectangle" fill="#BDBDBD" transform="translate(764.105806, 49.239690) rotate(-24.000000) translate(-764.105806, -49.239690) " x="756.180122" y="41.3137867" width="15.8513681" height="15.8518074"></rect>
                <rect id="Rectangle" fill="#BDBDBD" x="722.180122" y="51.3137867" width="15.8513681" height="15.8518074"></rect>
                <rect id="Rectangle" fill="#BDBDBD" x="788.180122" y="51.3137867" width="15.8513681" height="15.8518074"></rect>
                <rect id="Rectangle" fill="#BDBDBD" x="756.180122" y="81.3137867" width="15.8513681" height="15.8518074"></rect>
                <rect id="Rectangle" fill="#BDBDBD" x="722.180122" y="81.3137867" width="15.8513681" height="15.8518074"></rect>
                <rect id="Rectangle" fill="#BDBDBD" x="788.180122" y="81.3137867" width="15.8513681" height="15.8518074"></rect>
                <line x1="247.619098" y1="427.043757" x2="247.619098" y2="505.043757" id="Line" stroke="#FFFFFF" stroke-width="1.32" stroke-linecap="square"></line>
                <line x1="387.619098" y1="322.764062" x2="387.619098" y2="505.043757" id="Line" stroke="#FFFFFF" stroke-width="1.32" stroke-linecap="square"></line>
                <line x1="533.619098" y1="322.764062" x2="533.619098" y2="505.043757" id="Line" stroke="#FFFFFF" stroke-width="1.32" stroke-linecap="square"></line>
                <line x1="663.619098" y1="0.226913877" x2="663.619098" y2="774.919965" id="Line" stroke="#FFFFFF" stroke-width="1.32" stroke-linecap="square"></line>
                <path d="M747.681462,633.859919 C747.519386,633.859919 747.356432,633.823902 747.204019,633.75055 L626.028393,575.19769 C625.482431,574.934152 625.254031,574.277503 625.517569,573.731101 C625.781546,573.186017 626.437316,572.956739 626.984158,573.220277 L745.696582,630.582824 L705.634861,523.242502 C705.422713,522.674577 705.711287,522.042086 706.279651,521.829938 C706.847136,521.617351 707.480066,521.905925 707.692214,522.474728 L748.710577,632.377957 C748.867382,632.797861 748.752743,633.271351 748.421564,633.573541 C748.214687,633.761531 747.949831,633.859919 747.681462,633.859919" id="Fill-170" fill="#FFFFFF"></path>
                <rect id="Rectangle" stroke="#979797" fill="#FFFFFF" x="703.71936" y="588.799303" width="87.9247302" height="88.4392002"></rect>
                <rect id="Rectangle" fill="#FF81A0" x="713.865546" y="598.945358" width="67.6326212" height="67.6326212"></rect>
                <polygon id="Fill-174" fill="#FFFFFF" points="728.89472 514.091191 771.634865 514.091191 771.634865 510.334018 728.89472 510.334018"></polygon>
                <polygon id="Fill-175" fill="#FFFFFF" points="728.895159 528.494418 742.985216 528.494418 742.985216 524.737245 728.895159 524.737245"></polygon>
                <polygon id="Fill-176" fill="#FFFFFF" points="50.0631404 599.258309 92.803285 599.258309 92.803285 595.500697 50.0631404 595.500697"></polygon>
                <polygon id="Fill-177" fill="#FFFFFF" points="50.0631404 613.661536 64.1531966 613.661536 64.1531966 609.904363 50.0631404 609.904363"></polygon>
                <rect id="Rectangle" stroke="#FFFFFF" stroke-width="2" x="1.11909816" y="647.066865" width="72.4487666" height="73.7175409"></rect>
                <rect id="Rectangle" stroke="#FFFFFF" stroke-width="2" x="31.0678648" y="631.066865" width="42.5" height="46"></rect>
                <polygon id="Fill-181" fill="#FF81A0" points="16.9020625 1082.95058 117.359213 1082.95058 117.359213 1033.41555 16.9020625 1033.41555"></polygon>
                <polygon id="Fill-182" fill="#FFFCFF" points="77.7314516 1069.08058 111.415115 1069.08058 111.415115 1058.18285 77.7314516 1058.18285"></polygon>
                <path d="M11.8317681,1077.63436 L125.474601,1077.63436 L125.474601,980.858574 L125.604613,980.647743 L147.892017,944.531625 L11.8317681,944.531625 L11.8317681,1077.63436 Z M127.221857,1079.38118 L10.0840723,1079.38118 L10.0840723,942.784808 L151.023726,942.784808 L127.221857,981.354464 L127.221857,1079.38118 Z" id="Fill-183" fill="#FFFCFF"></path>
                <polygon id="Fill-186" fill="#FFFAFF" points="209.485589 1079.58257 219.0955 1079.58257 219.0955 1060.26392 209.485589 1060.26392"></polygon>
                <polygon id="Fill-187" fill="#FFFAFF" points="227.021403 1079.58257 232.47005 1079.58257 232.47005 1060.26392 227.021403 1060.26392"></polygon>
                <path d="M174.001083,1078.7085 L350.007095,1078.7085 L350.007095,1063.81158 L174.001083,1063.81158 L174.001083,1078.7085 Z M172.253826,1080.45576 L351.754352,1080.45576 L351.754352,1062.0652 L172.253826,1062.0652 L172.253826,1080.45576 Z" id="Fill-188" fill="#FFFCFF"></path>
                <polygon id="Fill-191" fill="#FFFCFF" points="189.523907 1079.71434 201.130996 1079.71434 201.130996 1062.06476 189.523907 1062.06476"></polygon>
                <path d="M640.601998,1043.16694 L640.601998,1080.935 C640.601998,1084.63507 637.606011,1087.6315 633.911209,1087.6315 C632.926455,1087.6315 631.994848,1087.41979 631.153284,1087.03854 C628.835028,1085.98483 627.220419,1083.65076 627.220419,1080.935 L627.220419,1043.16694 L640.601998,1043.16694 Z" id="Fill-192" fill="#FF81A0"></path>
                <path d="M594.849966,1003.30638 L594.849966,1080.935 C594.849966,1083.2638 596.221242,1085.39099 598.342722,1086.35554 C599.113131,1086.70385 599.937127,1086.88129 600.79055,1086.88129 C604.066327,1086.88129 606.731135,1084.21385 606.731135,1080.935 L606.731135,1003.30638 L594.849966,1003.30638 Z M600.79055,1088.38126 C599.721904,1088.38126 598.690153,1088.15945 597.722969,1087.72198 C595.066067,1086.5141 593.349996,1083.85061 593.349996,1080.935 L593.349996,1001.80641 L608.231105,1001.80641 L608.231105,1080.935 C608.231105,1085.04092 604.893397,1088.38126 600.79055,1088.38126 L600.79055,1088.38126 Z" id="Fill-193" fill="#F7FEFD"></path>
                <path d="M592.806361,1001.80681 L608.547482,1001.80681 L608.547482,995.820984 L592.806361,995.820984 L592.806361,1001.80681 Z M591.306391,1003.30678 L610.047892,1003.30678 L610.047892,994.320575 L591.306391,994.320575 L591.306391,1003.30678 Z" id="Fill-194" fill="#F7FEFD"></path>
                <path d="M627.970229,1003.30638 L627.970229,1080.935 C627.970229,1083.26336 629.341504,1085.39099 631.463863,1086.35554 C632.233833,1086.70385 633.057829,1086.88129 633.911252,1086.88129 C637.187029,1086.88129 639.851837,1084.21385 639.851837,1080.935 L639.851837,1003.30638 L627.970229,1003.30638 Z M633.911252,1088.38126 C632.843045,1088.38126 631.811294,1088.15945 630.843671,1087.72198 C628.18633,1086.5141 626.470259,1083.85061 626.470259,1080.935 L626.470259,1001.80641 L641.352246,1001.80641 L641.352246,1080.935 C641.352246,1085.04092 638.014099,1088.38126 633.911252,1088.38126 L633.911252,1088.38126 Z" id="Fill-195" fill="#F7FEFD"></path>
                <path d="M625.92781,1001.80681 L641.668931,1001.80681 L641.668931,995.820984 L625.92781,995.820984 L625.92781,1001.80681 Z M624.4274,1003.30678 L643.168901,1003.30678 L643.168901,994.320575 L624.4274,994.320575 L624.4274,1003.30678 Z" id="Fill-196" fill="#F7FEFD"></path>
                <path d="M661.0926,1003.30638 L661.0926,1080.935 C661.0926,1083.2638 662.463876,1085.39099 664.585356,1086.35554 C665.355765,1086.70385 666.179761,1086.88129 667.033185,1086.88129 C670.308961,1086.88129 672.974208,1084.21385 672.974208,1080.935 L672.974208,1003.30638 L661.0926,1003.30638 Z M667.033185,1088.38126 C665.964538,1088.38126 664.932787,1088.15945 663.965603,1087.72198 C661.308701,1086.5141 659.592191,1083.85061 659.592191,1080.935 L659.592191,1001.80641 L674.474178,1001.80641 L674.474178,1080.935 C674.474178,1085.04092 671.13647,1088.38126 667.033185,1088.38126 L667.033185,1088.38126 Z" id="Fill-197" fill="#F7FEFD"></path>
                <path d="M659.049259,1001.80681 L674.79038,1001.80681 L674.79038,995.820984 L659.049259,995.820984 L659.049259,1001.80681 Z M657.548849,1003.30678 L676.29035,1003.30678 L676.29035,994.320575 L657.548849,994.320575 L657.548849,1003.30678 Z" id="Fill-198" fill="#F7FEFD"></path>
                <polygon id="Fill-199" fill="#F7FEFD" points="592.056595 1002.67034 598.52206 1002.67034 598.52206 996.998999 592.056595 996.998999"></polygon>
                <polygon id="Fill-200" fill="#F7FEFD" points="594.098575 1010.38365 599.316187 1010.38365 599.316187 1002.67034 594.098575 1002.67034"></polygon>
                <path d="M598.032714,1017.98106 L598.032714,1087.03854 C595.714019,1085.98483 594.099849,1083.65076 594.099849,1080.935 L594.099849,1017.98106 L598.032714,1017.98106 Z" id="Fill-201" fill="#F7FEFD"></path>
                <polygon id="Fill-202" fill="#F7FEFD" points="625.178044 1002.67034 631.643508 1002.67034 631.643508 996.998999 625.178044 996.998999"></polygon>
                <polygon id="Fill-203" fill="#F7FEFD" points="627.219585 1010.38365 632.437197 1010.38365 632.437197 1002.67034 627.219585 1002.67034"></polygon>
                <path d="M631.154162,1017.98106 L631.154162,1087.03854 C628.835468,1085.98483 627.221298,1083.65076 627.221298,1080.935 L627.221298,1017.98106 L631.154162,1017.98106 Z" id="Fill-204" fill="#F7FEFD"></path>
                <polygon id="Fill-205" fill="#F7FEFD" points="658.299054 1002.67034 664.764518 1002.67034 664.764518 996.998999 658.299054 996.998999"></polygon>
                <polygon id="Fill-206" fill="#F7FEFD" points="660.341034 1010.38365 665.558646 1010.38365 665.558646 1002.67034 660.341034 1002.67034"></polygon>
                <path d="M664.275392,1017.98106 L664.275392,1087.03854 C661.956697,1085.98483 660.342527,1083.65076 660.342527,1080.935 L660.342527,1017.98106 L664.275392,1017.98106 Z" id="Fill-207" fill="#F7FEFD"></path>
                <path d="M580.145998,1064.14891 L680.871518,1064.14891 L680.871518,1031.14078 L580.145998,1031.14078 L580.145998,1064.14891 Z M573.34057,1020.93264 L573.34057,1087.62882 L580.146437,1087.62882 L580.146437,1070.61437 L680.871518,1070.61437 L680.871518,1087.62882 L686.656615,1087.62882 L686.656615,1020.93264 L573.34057,1020.93264 Z" id="Fill-208" fill="#EAECF6"></path>
                <path d="M716.857141,984.861935 L703.188746,984.861935 C701.450274,984.861935 700.041224,983.452885 700.041224,981.714413 L700.041224,958.064079 C700.041224,956.325607 701.450274,954.916557 703.188746,954.916557 L716.857141,954.916557 C718.595613,954.916557 720.004663,956.325607 720.004663,958.064079 L720.004663,981.714413 C720.004663,983.452885 718.595613,984.861935 716.857141,984.861935" id="Fill-209" fill="#26388F"></path>
                <path d="M708.122352,972.001063 L708.122352,1018.19619 L708.008591,1018.37891 L669.907154,1079.30054 C668.939091,1080.8519 668.890336,1082.73268 669.777142,1084.33192 C670.662629,1085.92808 672.28207,1086.88121 674.108827,1086.88121 L753.68938,1086.88121 C755.479681,1086.88121 757.08331,1085.95531 757.979339,1084.40571 C758.875807,1082.8561 758.876685,1081.00387 757.982852,1079.45119 L722.65603,1018.1817 L722.65603,972.001063 L708.122352,972.001063 Z M753.68938,1088.38118 L674.108827,1088.38118 C671.729079,1088.38118 669.619019,1087.13991 668.465162,1085.05972 C667.309548,1082.97689 667.373236,1080.52643 668.634705,1078.50553 L706.622382,1017.76618 L706.622382,970.501093 L724.156,970.501093 L724.156,1017.78068 L759.282973,1078.70231 C760.447811,1080.72452 760.446054,1083.13721 759.278581,1085.15679 C758.111108,1087.17593 756.021691,1088.38118 753.68938,1088.38118 L753.68938,1088.38118 Z" id="Fill-210" fill="#FCFDFC"></path>
                <path d="M696.097555,965.5327 C695.24457,965.5327 694.550587,966.227123 694.550587,967.079668 L694.550587,968.953862 C694.550587,969.806846 695.24457,970.50083 696.097555,970.50083 L724.512655,970.50083 C725.36564,970.50083 726.060062,969.806846 726.060062,968.953862 L726.060062,967.079668 C726.060062,966.227123 725.36564,965.5327 724.512655,965.5327 L696.097555,965.5327 Z M724.512655,972.001239 L696.097555,972.001239 C694.417061,972.001239 693.050177,970.634356 693.050177,968.953862 L693.050177,967.079668 C693.050177,965.399174 694.417061,964.03273 696.097555,964.03273 L724.512655,964.03273 C726.193149,964.03273 727.560032,965.399174 727.560032,967.079668 L727.560032,968.953862 C727.560032,970.634356 726.193149,972.001239 724.512655,972.001239 L724.512655,972.001239 Z" id="Fill-211" fill="#FCFDFC"></path>
                <path d="M697.204019,1017.98106 L659.107413,1078.90268 C656.73074,1082.70334 659.46231,1087.6315 663.940698,1087.6315 L674.108871,1087.6315 C669.625651,1087.6315 666.899351,1082.70334 669.270753,1078.90268 L707.37263,1017.98106 L707.37263,1005.61937 L697.204019,1005.61937 L697.204019,1017.98106 Z" id="Fill-212" fill="#F7FEFD"></path>
                <polygon id="Fill-213" fill="#F7FEFD" points="697.203843 990.987259 707.372455 990.987259 707.372455 971.251342 697.203843 971.251342"></polygon>
                <path d="M744.5205,1083.31866 L666.919995,1083.31866 L686.656791,1051.10422 L731.340967,1049.62928 C733.441365,1049.55989 735.410871,1050.64786 736.470733,1052.46276 L749.461836,1074.71151 C751.689171,1078.52622 748.937835,1083.31866 744.5205,1083.31866" id="Fill-214" fill="#FF81A0"></path>
                <polygon id="Fill-215" fill="#FFFCFF" points="688.017789 1075.03829 717.622763 1075.03829 717.622763 1065.3401 688.017789 1065.3401"></polygon>
                <polyline id="Path" stroke="#FFFFFF" stroke-width="2" fill="#D8D8D8" points="845.5 1087.41172 0 1087.41172 0 1078.74488 845.5 1078.74488"></polyline>
            </g>
        </g>
    </g>
</svg>