<?xml version="1.0" encoding="UTF-8"?>
<svg width="190px" height="51px" viewBox="0 0 190 51" version="1.1" xmlns="http://www.w3.org/2000/svg" xmlns:xlink="http://www.w3.org/1999/xlink">
    <title>linkedin</title>
    <g id="Logos" stroke="none" stroke-width="1" fill="none" fill-rule="evenodd">
        <path d="M185.790355,0.610695285 C187.753175,0.610695285 189.35617,2.11344921 189.457546,4.00228788 L189.462636,4.19241734 L189.462636,47.0295775 C189.462636,48.9435722 187.923029,50.5068654 185.985402,50.6057314 L185.790355,50.6106953 L143.44957,50.6106953 C141.487407,50.6106953 139.883868,49.1091438 139.782456,47.2203828 L139.777364,47.0302572 L139.777364,4.1920397 C139.777364,2.27884897 141.317678,0.714591418 143.254598,0.615662409 L143.44957,0.610695285 L185.790355,0.610695285 Z M173.260219,19.358656 C169.392407,19.358656 167.597755,21.4236901 166.584211,22.9517935 L166.496775,23.0851666 L166.496775,19.8885654 L158.992923,19.8885654 C159.018828,20.4499766 159.030953,22.3000082 159.034782,24.716093 L159.035625,25.3885168 L159.035775,25.5606267 L159.035775,25.5606267 L159.035933,27.541628 C159.035866,27.6658196 159.035786,27.7906378 159.035693,27.9160147 L159.034991,28.6744394 C159.034147,29.4384839 159.03289,30.2177591 159.031331,30.9976076 L159.029676,31.7771042 C159.029109,32.0296238 159.028514,32.2816897 159.027896,32.5328019 L159.025972,33.2827776 C159.015033,37.3864076 158.998584,41.0942645 158.993675,42.1601181 L158.992896,42.327997 C158.99279,42.3506704 158.992696,42.3706454 158.992615,42.387854 L158.992243,42.4655291 L166.496095,42.4655291 L166.496095,29.858656 C166.496095,29.1844868 166.545264,28.5091092 166.743301,28.0277648 C167.285597,26.6788977 168.520415,25.2827497 170.593905,25.2827497 C173.233297,25.2827497 174.333715,27.2395753 174.392813,30.1377897 L174.39534,30.3884898 L174.39534,42.4655291 L181.899116,42.4655291 L181.899116,29.5202874 C181.899116,22.5856953 178.197379,19.358656 173.260219,19.358656 Z M154.838693,19.8878856 L147.334237,19.8878856 L147.334237,42.4655291 L154.838693,42.4655291 L154.838693,19.8878856 Z M151.137636,9.00435087 C148.569056,9.00435087 146.891639,10.6896228 146.891639,12.9054083 C146.891639,15.0063696 148.4227,16.700383 150.812116,16.8011212 L151.038618,16.8058614 L151.087787,16.8058614 C153.704252,16.8058614 155.33318,15.0720246 155.33318,12.9054083 C155.284011,10.6896228 153.704252,9.00435087 151.137636,9.00435087 Z M132.230227,9.71323305 L132.230227,35.4614204 C132.230227,38.1585503 132.329925,40.9034898 132.428263,42.4930669 L132.428263,42.4930669 L125.763837,42.4930669 L125.466783,39.0726741 L125.319275,39.0726741 C123.837251,41.6733539 120.875846,43.0229007 117.76497,43.0229007 C112.038912,43.0229007 107.446616,38.2549249 107.446616,30.934079 C107.398127,23.0361938 112.48287,18.413082 118.26006,18.413082 C121.269955,18.413082 123.540876,19.4728252 124.627432,21.0610427 L124.627432,21.0610427 L124.72645,21.0610427 L124.72577,9.71323305 L132.230227,9.71323305 Z M95.440423,18.3639128 C103.24065,18.3639128 106.203338,24.2892905 106.203338,30.1255442 C106.203338,31.3832482 106.055151,32.4954083 105.956133,33.0750911 L105.955693,33.0736953 L90.4049245,33.0266016 C90.6461006,36.0181277 93.5649375,37.4610862 96.9619033,37.5296948 L97.2175378,37.5322663 C99.7841541,37.5322663 101.857644,37.1958614 103.882644,36.5244113 L103.882644,36.5244113 L104.870181,41.4806047 C102.400619,42.4923871 99.3900454,42.9724476 96.1309819,42.9724476 C87.9359668,42.9724476 83.2454079,38.3500155 83.2454079,30.9478252 C83.2454079,24.9627799 87.0966164,18.3639128 95.440423,18.3639128 Z M68.9053248,9.71385238 L68.9053248,28.4854536 C69.1570172,28.0167211 70.614909,25.9367064 72.1082023,23.8378031 L72.466673,23.3345189 C74.0774547,21.075446 75.6202795,18.9429309 75.6202795,18.9429309 L75.6202795,18.9429309 L84.6539653,18.9429309 L76.0149925,28.4775986 L85.8881043,42.493082 L76.6563822,42.493082 L70.780778,32.811511 L68.9053248,35.1729158 L68.9053248,42.493082 L61.4008686,42.493082 L61.4008686,9.71385238 L68.9053248,9.71385238 Z M31.9266239,19.9154385 L31.9266239,42.493082 L24.4221677,42.493082 L24.4221677,19.9154385 L31.9266239,19.9154385 Z M8.19882937,9.71385238 L8.19882937,35.6850004 L21.4286632,35.6850004 L21.4286632,42.493082 L0.693693419,42.493082 L0.693693419,9.71385238 L8.19882937,9.71385238 Z M49.6779079,19.3849249 C54.6157478,19.3849249 58.3181647,22.6118886 58.3181647,29.5471605 L58.3181647,29.5471605 L58.3181647,42.4924022 L50.8149925,42.4924022 L50.8149925,30.4133992 C50.8149925,27.3798645 49.7284366,25.3090185 47.0122735,25.3090185 C44.9387841,25.3090185 43.7040409,26.7057708 43.162349,28.0540337 C42.963633,28.5346983 42.9151436,29.2094717 42.9151436,29.8842451 L42.9151436,29.8842451 L42.9151436,42.493082 L35.4106874,42.493082 C35.4106874,42.493082 35.4107018,42.4901122 35.41073,42.4842405 L35.411344,42.3548746 C35.4114507,42.332202 35.4115697,42.306831 35.4117004,42.2788294 L35.4126221,42.0797968 C35.420356,40.3967008 35.4488762,33.8836656 35.453928,28.3209242 L35.4537036,25.0761683 C35.4503579,22.4980007 35.4381261,20.5025567 35.4106874,19.9154385 L35.4106874,19.9154385 L42.9151436,19.9154385 L42.9146934,23.1106953 L42.9487766,23.0595276 C43.9240573,21.5678142 45.6407663,19.5066617 49.3458013,19.3900993 Z M120.234532,24.047372 C116.77932,24.047372 115.050091,27.0336258 115.050091,30.7413297 C115.050091,34.6902723 117.075091,37.1938977 120.184683,37.1938977 C122.35719,37.1938977 124.134985,35.7506198 124.577583,33.6784143 C124.677281,33.1984294 124.72645,32.6193509 124.72645,32.0423116 L124.72645,32.0423116 L124.72645,28.9596077 C124.72645,28.5268282 124.72645,28.044804 124.628112,27.6100608 C124.183474,25.6362693 122.554622,24.047372 120.234532,24.047372 Z M95.0463143,23.228943 C91.837704,23.228943 90.5531118,26.0716923 90.3557554,27.9982784 L90.3563596,27.9982784 L99.2431421,27.9982784 C99.2431421,26.2637618 98.452281,23.228943 95.0463143,23.228943 Z M28.2248868,9.03190374 C30.7915031,9.03190374 32.3719412,10.7164959 32.4204306,12.9316772 C32.4204306,15.0995775 30.7915786,16.8334143 28.1751134,16.8334143 L28.1751134,16.8334143 L28.1258686,16.8334143 C25.6078173,16.8334143 23.9788898,15.0995775 23.9788898,12.9316772 C23.9788898,10.7171756 25.6576662,9.03190374 28.2248868,9.03190374 Z" id="linkedin" fill="#231F20"></path>
    </g>
</svg>