<?xml version="1.0" encoding="UTF-8"?>
<svg width="39px" height="45px" viewBox="0 0 39 45" version="1.1" xmlns="http://www.w3.org/2000/svg" xmlns:xlink="http://www.w3.org/1999/xlink">
    <title>linux</title>
    <g id="Products" stroke="none" stroke-width="1" fill="none" fill-rule="evenodd">
        <g id="Homepage-Copy" transform="translate(-995.000000, -6427.000000)" fill="#FFFFFF" fill-rule="nonzero">
            <g id="Group-8" transform="translate(976.223296, 6415.355755)">
                <path d="M55.7138084,47.3283366 C54.423518,46.7999003 53.8715668,46.0986367 53.9249442,45.0522954 C53.9799085,43.8309628 53.2870122,42.9363865 52.9579477,42.5829415 C53.1567425,41.8235398 53.7376905,39.1965062 52.9585248,36.9146945 C52.1212209,34.4723179 49.5648763,30.7421032 46.9271672,27.0753644 C45.8473568,25.5695447 45.7962876,23.932734 45.737284,22.0374035 C45.6807328,20.2296409 45.6169684,18.1805258 44.6088569,15.9026092 C43.5127448,13.4222913 41.3133074,12 38.5741813,12 C36.944728,12 35.2721399,12.5092492 33.9850233,13.3970452 C31.3493339,15.2160604 31.6977296,19.1820012 31.9282623,21.8062938 C31.9598559,22.1656535 31.9895741,22.505105 32.0068857,22.7949298 C32.1603818,25.3651237 32.020735,26.7197555 31.8380977,27.1314828 C31.7199462,27.4005338 31.1382768,28.1662831 30.5227055,28.9770425 C29.8860718,29.8155004 29.1643228,30.7659067 28.5726993,31.6515387 C27.8668192,32.7172113 27.2969794,34.3460875 26.7458939,35.9212978 C26.3426781,37.0739611 25.9618231,38.1627158 25.5910666,38.813343 C24.8883604,40.0649709 25.0632074,41.2320605 25.2092018,41.7714608 C24.9431804,41.956262 24.5588631,42.3200939 24.2344151,43.0059214 C23.8423076,43.8426481 23.0466958,44.2923167 21.392285,44.6104171 C20.6320177,44.7659329 20.1077651,45.0856202 19.8336649,45.5605348 C19.4347771,46.2517 19.6520375,47.1201647 19.8502552,47.7136637 C20.1431096,48.5861678 19.9606166,49.1384075 19.6288111,50.141037 C19.5523516,50.3724352 19.4656494,50.6344173 19.3777931,50.9233765 C19.2394446,51.3793927 19.2893597,51.7940052 19.5258072,52.1556732 C20.1506113,53.1108401 21.9738101,53.4476947 23.8506749,53.6692831 C24.9713117,53.8022938 26.1978378,54.2505197 27.3841144,54.684175 C28.5464434,55.108886 29.7483004,55.5481675 30.840806,55.6814668 C31.006853,55.7023849 31.171313,55.7129162 31.3298583,55.7129162 C32.9793642,55.7129162 33.7246281,54.6183909 33.9609313,54.1687224 C34.5534205,54.0478298 36.5969093,53.6606273 38.7030083,53.6086925 C40.8057893,53.548679 42.8403338,53.9638686 43.4166655,54.0929842 C43.5978601,54.439793 44.0755157,55.2319425 44.8369371,55.6400632 C45.2554447,55.8688647 45.8378354,56 46.434364,56 C46.4345082,56 46.434364,56 46.4345082,56 C47.0715747,56 48.2835302,55.8493892 49.2427365,54.8402678 C50.1994903,53.8263857 52.5899322,52.5320559 54.3355174,51.5869875 C54.7250282,51.3760746 55.0894371,51.1787225 55.4089802,51.0005574 C56.3895374,50.4569735 56.9246098,49.6802602 56.8768587,48.869645 C56.837042,48.1963685 56.3914129,47.6057548 55.7138084,47.3283366 Z M34.0065185,47.1331484 C33.8844718,46.2733395 32.7784056,45.4205995 31.4974922,44.4332619 C30.4501411,43.6258205 29.2629989,42.7107588 28.9359541,41.9357766 C28.2600808,40.3370514 28.792845,37.5259379 29.721756,36.0784005 C30.1808016,35.353622 30.5557418,34.2544804 30.9184196,33.1915488 C31.30995,32.0437905 31.7148969,30.857081 32.1677393,30.3375891 C32.8848718,29.5265412 33.5476172,27.9484456 33.6650474,26.7047522 C34.3365928,27.345858 35.3783177,28.1593584 36.3406978,28.1593584 C36.4888561,28.1593584 36.6326866,28.1400271 36.7701694,28.1012203 C37.4285869,27.9110814 38.397026,27.3514843 39.333583,26.8104971 C40.1410243,26.3439498 41.1367292,25.768628 41.5113808,25.7162604 C42.1537851,26.6386796 45.8865964,34.899337 46.2680284,37.5521938 C46.5698271,39.6512239 46.2510054,41.3864222 46.0907289,42.0660463 C45.9617576,42.0484462 45.807973,42.0341642 45.6463981,42.0341642 C44.606693,42.0341642 44.3314387,42.6016957 44.2597399,42.9405701 C44.0753714,43.8210087 44.0558959,46.6363058 44.0538762,47.2689001 C43.6779262,47.7465557 41.776681,49.9959082 39.0470762,50.400278 C37.9352394,50.5618529 36.8969768,50.6437944 35.9612854,50.6437944 C35.16149,50.6437944 34.6510867,50.5820497 34.439164,50.549879 L33.0675091,48.9804392 C33.608352,48.713408 34.1490506,48.1499157 34.0065185,47.1331484 Z M35.7470545,21.2543427 C35.7042083,21.2728083 35.6620835,21.2925724 35.6206799,21.3136348 C35.6164963,21.2207293 35.6068307,21.1265254 35.5919715,21.032033 C35.4422263,20.1700601 34.8706553,19.5443905 34.2331561,19.5443905 C34.185982,19.5443905 34.1385194,19.547997 34.0864404,19.5559315 C33.7071723,19.6191188 33.4097015,19.9040387 33.246684,20.3079758 C33.3896489,19.4216224 33.8918292,18.765369 34.4876364,18.765369 C35.1873132,18.765369 35.7783596,19.7082735 35.7783596,20.8242939 C35.7783596,20.9649506 35.768117,21.1048859 35.7470545,21.2543427 Z M41.183759,21.9189634 C41.2478119,21.7149752 41.2824351,21.4942524 41.2824351,21.2651624 C41.2824351,20.2533 40.6404637,19.4605735 39.8209042,19.4605735 C39.0199547,19.4605735 38.3683176,20.2700346 38.3683176,21.2651624 C38.3683176,21.3329661 38.3716357,21.4009141 38.3779833,21.4687178 C38.3355699,21.4524161 38.2941663,21.4365471 38.2537726,21.4212552 C38.1615884,21.1421058 38.1149914,20.8508384 38.1149914,20.5535118 C38.1149914,19.343576 38.8882423,18.3591237 39.8389371,18.3591237 C40.7894876,18.3591237 41.5628828,19.343576 41.5628828,20.5535118 C41.5628828,21.0568463 41.4239573,21.5372429 41.183759,21.9189634 Z M40.4827839,24.2739166 C40.4690789,24.3350842 40.4399378,24.3622057 40.1176537,24.5298395 C39.9549247,24.6145221 39.7523792,24.7199785 39.4989086,24.8743402 L39.3295436,24.9769113 C38.6489096,25.3895042 37.0552336,26.3559236 36.6225881,26.4126191 C36.3287239,26.4521472 36.1469522,26.3381793 35.7382545,26.0604725 C35.6460703,25.997718 35.5479713,25.9310684 35.4433804,25.863986 C34.706628,25.3805599 34.2327233,24.8480842 34.1792016,24.6399124 C34.4193999,24.4542456 35.0147743,23.9895737 35.3196025,23.7144637 C35.9383476,23.1391419 36.5609877,22.7525164 36.869134,22.7525164 C36.8854358,22.7525164 36.9001506,22.7536705 36.9154425,22.7565558 C37.2775433,22.8204644 38.170677,23.1769389 38.8230354,23.4371898 C39.1245455,23.5575053 39.3849407,23.6613748 39.568155,23.7271589 C40.1453522,23.9253766 40.4462853,24.1789913 40.4827839,24.2739166 Z M45.6686147,51.1602568 C45.9942168,49.6915127 46.3693012,47.6934668 46.3085664,46.5155575 C46.2945729,46.2479492 46.2709137,45.9566817 46.2479758,45.6750798 C46.2051297,45.148519 46.1415096,44.3658909 46.2071493,44.1337714 C46.220133,44.1277123 46.2345594,44.1225188 46.2505726,44.1180467 C46.2533136,44.7914675 46.3995965,46.1347025 47.4737806,46.6031253 C47.7939007,46.7427721 48.1597523,46.8134611 48.5610927,46.8134611 C49.6371522,46.8134611 50.8310747,46.2856019 51.3201271,45.7965495 C51.6080766,45.5086001 51.8502945,45.1563092 52.0199481,44.8773041 C52.0570238,44.9859343 52.0798174,45.1278894 52.0678435,45.3108152 C52.0039349,46.3040676 52.4866397,47.621768 53.405308,48.1073581 L53.53904,48.1776143 C53.8662291,48.3492875 54.7352708,48.8055922 54.7492644,49.021987 C54.7491201,49.0221313 54.741907,49.0475216 54.6934345,49.0925318 C54.4757413,49.2914708 53.7095592,49.6827127 52.9686232,50.0611152 C51.6542408,50.7322278 50.1644343,51.4929278 49.4953414,52.1966439 C48.5533024,53.1880209 47.4877741,53.85394 46.8443601,53.85394 C46.7668907,53.85394 46.696346,53.8441301 46.6335915,53.8242218 C45.9347803,53.6063843 45.3596028,52.5981285 45.6686147,51.1602568 Z M21.8491667,47.4133076 C21.7779006,47.079771 21.721638,46.8164906 21.7820843,46.5614332 C21.8259403,46.3724483 22.7588907,46.1699028 23.1573457,46.0834891 C23.7175199,45.9618752 24.2968811,45.8362219 24.6757164,45.6062663 C25.1879951,45.295956 25.4654133,44.7236638 25.7100838,44.2187424 C25.8872391,43.8536122 26.0701648,43.4760753 26.2878581,43.3521531 C26.3001204,43.34494 26.3188747,43.3365727 26.354652,43.3365727 C26.7624841,43.3365727 27.6182537,44.1939291 28.1113454,44.9612653 C28.2364217,45.1547223 28.4681084,45.5423577 28.7361495,45.9911606 C29.5378204,47.3325202 30.6355194,49.1697126 31.2088215,49.7854281 C31.7254282,50.3389662 32.5617222,51.4031961 32.3560028,52.3159496 C32.205392,53.0241379 31.4035769,53.6000367 31.2144478,53.7274212 C31.1457785,53.7430016 31.0608074,53.7509361 30.960833,53.7509361 C29.8635668,53.7509361 27.6915394,52.8380383 26.5245941,52.3475433 L26.351911,52.2749789 C25.7002739,52.0017443 24.6364768,51.8296382 23.6077356,51.6631584 C22.789186,51.5305805 21.6682606,51.3492416 21.4824495,51.1853586 C21.3318387,51.0164263 21.5065415,50.4672162 21.6606146,49.982636 C21.771553,49.6343845 21.8860981,49.2743034 21.9488526,48.8973436 C22.037863,48.2960544 21.9331279,47.8065692 21.8491667,47.4133076 Z" id="linux"></path>
            </g>
        </g>
    </g>
</svg>