<?xml version="1.0" encoding="UTF-8"?>
<svg viewBox="0 0 254 51" version="1.1" xmlns="http://www.w3.org/2000/svg" xmlns:xlink="http://www.w3.org/1999/xlink">
    <title>medium</title>
    <g id="Logos" stroke="none" stroke-width="1" fill="none" fill-rule="evenodd">
        <path d="M70.8998741,30.8355033 L80.651155,30.8355033 L80.651155,29.0954868 C80.651155,20.295595 78.851131,17.9556044 76.1411444,17.9556044 C72.8578876,17.9556044 70.8605798,21.4555383 70.8605798,30.8355033 L70.8998741,30.8355033 Z M70.8998741,32.5555172 L70.8998741,32.6955349 C70.8998741,41.255498 75.271187,44.6954243 80.3938637,44.6954243 C84.6711545,44.8427526 88.6304357,42.417472 90.481126,38.5154569 L90.6197222,38.5154569 C88.8398022,46.9754074 83.657118,50.9754044 75.9038556,50.9754044 C67.5372164,50.9754044 59.6452564,45.8754717 59.6452564,34.0555034 C59.6452564,21.635561 67.5572189,16.6755444 76.2991339,16.6755444 C83.341139,16.6755444 90.83711,20.0355622 90.83711,30.8355033 L90.83711,32.5555172 L70.8998741,32.5555172 Z M53.5533203,46.0753954 L57.9246332,50.2954201 L57.9246332,50.4354378 L35.7520899,50.4354378 L35.7520899,50.2954201 L40.2027021,46.0753954 C40.6782951,45.6820463 40.9051258,45.0629834 40.7959749,44.4553941 L40.7959749,17.4755438 C40.7959749,16.335603 40.7959749,14.7956118 40.9933602,13.4755468 L26.0401033,50.9761151 L25.8627205,50.9761151 L10.3754876,16.4762299 C10.0388969,15.616223 9.94020425,15.5562154 9.7222072,14.9762437 L9.7222072,37.5961531 C9.53690464,39.1092374 9.79125145,40.6437457 10.4548885,42.0161016 L16.6848114,50.2960293 L16.6848114,50.436047 L0.149527513,50.436047 L0.149527513,50.2960293 L6.38016123,41.996099 C7.03841686,40.6291246 7.29215446,39.1025361 7.11152253,37.5961531 L7.11152253,12.5962481 C7.21356586,11.3672605 6.84620987,10.145279 6.0835756,9.17632426 L1.67286689,3.39630576 L1.67286689,3.2562881 L17.4961828,3.2562881 L30.7481084,32.4761164 L42.418007,3.2562881 L57.9046307,3.2562881 L57.9046307,3.39630576 L53.5533203,8.29631477 C53.0306148,8.6848917 52.770582,9.33431373 52.8806466,9.97632366 L52.8806466,44.4561048 C52.7647945,45.0817675 53.0287872,45.716873 53.5539295,46.0761061 L53.5533203,46.0753954 Z M238.667028,50.4354378 C238.667028,49.3554031 238.865023,35.5954946 238.865023,32.4355021 C238.865023,26.4355574 237.935058,22.2955427 233.761638,22.2955427 C231.655281,22.3646885 229.708233,23.4345697 228.520367,25.1754999 C228.938999,27.045482 229.137704,28.9588199 229.113742,30.8755083 C229.113742,35.0355255 228.975044,40.3354835 228.915747,45.6354414 C228.806596,46.2429292 229.033427,46.8620936 229.50902,47.2554427 L232.832383,50.3354252 L232.832383,50.4754428 L217.958426,50.4754428 C217.958426,49.4754182 218.155811,35.6354997 218.155811,32.4755071 C218.155811,26.3755498 217.226455,22.3355478 213.112434,22.3355478 C211.077253,22.4133241 209.224735,23.5312316 208.207145,25.2955151 L208.207145,45.695449 C208.207145,46.5754585 208.207145,46.7753822 208.800519,47.3154503 L212.044482,50.3954327 L212.044482,50.5354504 L197.328514,50.5354504 L197.328514,22.535573 C197.423348,21.9116364 197.200782,21.2816077 196.735241,20.8555641 L193.471276,17.3556302 L193.471276,17.2156125 L208.207145,17.2156125 L208.207145,24.3354955 C209.573815,19.6356133 213.927156,16.4769407 218.769086,16.6755444 C223.674375,16.6755444 226.997028,19.435588 228.401672,24.6755384 C229.961666,19.8429491 234.451065,16.600205 239.477689,16.6755444 C246.044304,16.6755444 249.762946,21.5755534 249.762946,30.8355033 C249.762946,35.2554517 249.624959,40.2954784 249.565662,45.5954364 C249.449505,46.2207944 249.712889,46.8558999 250.237625,47.2154377 L253.481587,50.2954201 L253.481587,50.4354378 L238.667028,50.4354378 Z M188.506589,45.3354036 C188.506589,46.215413 188.506589,46.4754459 189.099963,47.0154124 L192.423225,50.2954201 L192.423225,50.4354378 L177.608666,50.4354378 L177.608666,43.2554457 C176.259358,47.7954093 172.149398,50.9220982 167.462005,50.9754044 C160.89539,50.9754044 157.374742,46.135403 157.374742,36.9754657 C157.374742,32.5555172 157.374742,27.7155158 157.512729,22.2755402 C157.62188,21.6680524 157.39505,21.048888 156.919457,20.6555389 L153.656101,17.3555287 L153.656101,17.2156125 L168.272665,17.2156125 L168.272665,35.4754795 C168.272665,41.4754242 169.143334,45.4754212 172.861366,45.4754212 C174.865477,45.3448464 176.667227,44.2081548 177.64796,42.4554463 L177.64796,22.4555629 C177.742794,21.8316263 177.520228,21.2015976 177.054687,20.775554 L173.771329,17.3555287 L173.771329,17.2156125 L188.506589,17.2156125 L188.506589,45.3354036 Z M137.338205,6.97564055 C137.338205,3.66232917 139.994885,0.97630504 143.271542,0.97630504 C146.548199,0.97630504 149.205489,3.66293838 149.205489,6.97624976 C149.205489,10.2895611 146.548808,12.976305 143.272151,12.976305 C139.995494,12.976305 137.338205,10.2895611 137.338205,6.97624976 L137.338205,6.97564055 Z M137.872181,50.4354378 L137.872181,22.4355604 C137.967015,21.8116238 137.744449,21.1815951 137.278908,20.7555515 L134.014841,17.3555287 L134.014841,17.2156125 L148.750812,17.2156125 L148.750812,45.6154389 C148.750812,46.4954484 148.750812,46.6954736 149.344085,47.2354402 L152.588149,50.3154227 L152.588149,50.4554403 L137.872181,50.4354378 Z M117.282274,43.3954634 L117.282274,22.6555881 C116.221328,21.3175513 114.598483,20.5488249 112.890958,20.5755288 C109.311014,20.5755288 105.849664,23.8555365 105.849664,33.5954454 C105.849664,42.7154791 108.836335,45.9354793 112.554977,45.9354793 C114.445977,45.8930374 116.202747,44.9490604 117.281664,43.3954634 L117.282274,43.3954634 Z M128.100897,45.3954111 C128.100897,46.2754206 128.100897,46.4754459 128.694272,47.0154124 L132.017533,50.2954201 L132.017533,50.4354378 L117.282274,50.4354378 L117.282274,44.1354552 C115.798939,48.2874511 111.876312,51.0333812 107.51099,50.9754044 C99.9357198,50.9754044 94.4370566,44.9754597 94.4370566,33.9354883 C94.4370566,23.5955037 100.370394,16.6955469 108.697637,16.6955469 C112.388966,16.460898 115.824323,18.6109155 117.262271,22.0555124 L117.262271,8.1562971 C117.372336,7.51428718 117.112404,6.86496669 116.589699,6.47628821 L113.425036,3.39630576 L113.425036,3.2562881 L128.100897,1.51637317 L128.100897,45.3954111 Z" id="medium" fill="#1C1B1A"></path>
    </g>
</svg>