<?xml version="1.0" encoding="UTF-8"?>
<svg width="37.6333115px" height="39.8710411px" viewBox="0 0 37.6333115 39.8710411" version="1.1" xmlns="http://www.w3.org/2000/svg" xmlns:xlink="http://www.w3.org/1999/xlink">
    <title>miner</title>
    <g id="Logos" stroke="none" stroke-width="1" fill="none" fill-rule="evenodd">
        <g id="Artboard" transform="translate(-99.282, -545.9716)" fill="#000000" fill-rule="nonzero">
            <path d="M115.128872,549.182238 C115.764614,546.851185 118.16903,545.490139 120.512504,546.129278 C122.383244,546.628143 123.688545,548.327626 123.729932,550.268608 L124.956998,550.685526 L125.577629,550.869417 L125.347838,551.408412 L125.163304,552.023525 L124.98036,552.633338 L124.448309,552.414612 L122.925608,551.979875 L122.823882,552.08911 C122.297271,553.456818 121.003832,554.416362 119.522028,554.519123 L119.253939,554.528356 C119.172335,554.528317 119.088757,554.525562 119.005539,554.520075 L118.966716,554.51478 L118.930845,554.638195 L119.127632,554.729356 C120.403119,555.332832 121.060518,556.024873 121.54031,557.200705 L121.624562,557.4165 L121.672748,557.401698 L121.68057,557.419818 C122.038493,558.279957 122.261436,558.913677 122.922184,560.904928 C124.011579,564.187966 124.691993,565.605006 125.965558,567.158639 C126.343464,567.590583 126.540844,568.121732 126.560348,568.716047 L126.560127,568.745125 L132.697648,571.776223 C133.247882,570.723104 133.598786,569.801583 133.867265,568.896875 L134.020968,568.346489 L134.120814,568.023227 C134.540166,566.60877 134.787739,565.009849 134.916217,562.954205 L135.062748,560.607698 L136.024525,562.753099 C136.821669,564.531344 137.085176,566.681025 136.809607,569.02334 L136.743196,569.529997 C136.545366,570.877352 136.182293,572.192502 135.668594,573.418216 L135.468287,573.874991 L135.587103,573.927719 L135.788436,573.468594 L135.832037,573.355621 L135.847037,573.362621 L136.185229,573.605112 L136.750034,573.887515 L136.450016,574.372276 L135.896414,575.540992 L135.615037,576.134621 L135.595037,576.124621 L134.679182,575.594733 L134.579265,575.647002 C133.813267,576.962024 132.856554,578.235817 131.764436,579.398237 L131.291309,579.886345 L130.919907,580.249538 C129.431042,581.672704 127.902745,582.740459 126.321237,583.449411 L124.132748,584.429698 L125.630967,582.557686 C127.313023,580.455116 128.208031,579.294963 129.116428,578.033333 C130.030297,576.743169 130.910684,575.323656 131.913478,573.532952 L131.800272,573.469044 L131.463294,574.061204 L125.544222,571.085314 L125.329962,571.200972 C124.413182,571.819121 123.315767,571.727527 122.529897,570.913791 L122.368783,570.731661 C121.813281,570.037154 121.382587,569.402213 121.02236,568.741813 L120.907748,568.804698 L118.391717,567.569539 L118.219466,567.805652 C117.921923,568.509996 117.580333,569.257305 117.162178,570.120795 L116.916123,570.623178 L117.103816,570.813752 C117.4543,571.045265 117.902674,571.353898 118.39923,571.7046 L118.969799,572.110968 C119.845297,572.739547 120.63714,573.330583 120.955166,573.594114 L120.979358,573.615551 C121.817145,574.313743 121.956994,575.412174 121.441578,576.64764 C121.343512,576.857701 121.243599,577.074076 121.132401,577.317248 L120.892161,577.84539 C120.804683,578.038871 120.794964,578.060369 120.672643,578.33121 L120.621012,578.445532 C120.459493,578.803122 120.459493,578.803122 120.358774,579.025714 C119.527685,580.859 119.004331,581.915416 118.375628,583.015909 C118.060592,583.567354 117.738212,584.089911 117.39454,584.605212 C116.535228,585.842659 115.061946,586.185705 113.857863,585.48143 C112.635529,584.766479 112.29674,583.324414 113.110314,582.051013 C114.221253,580.334109 115.016921,578.763505 116.324798,575.739039 L116.205638,575.687071 L115.970037,576.221621 L115.969037,576.220621 L115.981531,576.154237 C115.9278,576.125097 115.914368,576.117812 115.87632,576.097177 L115.827663,576.070789 L115.640461,575.969266 C114.902624,575.569177 114.203896,575.190484 113.570576,574.847458 C112.51825,574.277489 111.704697,573.837532 111.190926,573.560602 L111.050804,573.486029 L110.884071,573.621215 C109.929195,574.921578 108.907152,576.207684 107.60412,577.753158 L107.043953,578.413356 C106.793105,578.707263 106.284336,579.297071 105.525627,580.174347 C105.41109,580.306782 103.997856,581.939831 103.883063,582.073292 C102.884177,583.209949 101.365995,583.390071 100.247874,582.554304 C99.1024888,581.698158 98.9471627,580.205142 99.93598,578.969931 C105.027599,573.109846 106.932631,570.666309 108.965071,567.328643 C109.612093,566.142591 110.20753,564.832343 110.842523,563.209584 L110.721661,563.161707 L110.502037,563.709621 L110.286037,563.604621 L107.429644,562.147371 L107.282393,562.23999 C106.60328,562.907986 105.591365,563.02119 104.665724,562.547906 L104.454971,562.428903 C103.272364,561.696751 102.820434,560.311739 103.415309,559.052005 C105.784803,554.009234 110.245158,552.166033 116.084868,553.69549 C116.37785,553.773895 116.651797,553.850452 116.908692,553.925791 L117.034625,553.964058 L117.09053,553.848429 L116.994039,553.781603 C116.082099,553.11092 115.499005,552.072816 115.424231,550.938768 L115.415954,550.685984 C115.415989,550.507322 115.433038,550.320082 115.466269,550.129233 L115.504442,549.944442 L114.926048,549.692185 Z M115.7876,554.816947 C110.485924,553.428413 106.590597,555.022454 104.464884,559.546408 C104.127272,560.261352 104.379536,561.017638 105.06791,561.443774 C105.71474,561.844193 106.358715,561.72195 106.690698,561.113316 L106.985258,560.573288 L106.914578,560.607901 L107.302341,560.012569 C107.956472,558.77699 108.781849,557.89366 109.800608,557.37274 L110.124879,557.221902 C110.992794,556.874842 111.857193,556.821422 113.300025,557.001776 L114.002037,557.088621 L113.990037,557.142621 L113.793313,557.707832 C113.441565,559.232072 113.058408,560.596447 112.61462,561.895654 L112.420628,562.448744 L112.177665,563.123643 L112.2201,563.063712 L111.92289,563.632492 C111.362032,565.065795 110.83296,566.25633 110.265815,567.351512 L109.969531,567.908638 C107.884195,571.334337 105.959536,573.806207 100.826872,579.712763 C100.26259,580.418029 100.323161,581.162097 100.942485,581.625026 C101.577521,582.099699 102.414218,581.98717 103.007491,581.312123 C103.12301,581.177804 104.556044,579.521846 104.650389,579.412758 C105.404454,578.540858 105.911863,577.952638 106.161603,577.660029 C107.923597,575.595575 109.17213,574.024713 110.357689,572.37117 L110.678305,571.923995 L111.088557,572.190331 C111.198588,572.245347 112.193892,572.782368 114.115421,573.823122 C114.755562,574.169843 115.454371,574.548579 116.193494,574.949365 C116.815274,575.28657 116.815274,575.28657 117.002915,575.388349 L117.086555,575.433724 L117.133882,575.459402 L117.652575,575.74082 L117.389688,576.199532 C116.054395,579.287396 115.235178,580.902776 114.086189,582.678467 C113.632255,583.38897 113.786197,584.095435 114.443624,584.479967 C115.126349,584.879297 115.929479,584.680868 116.435387,583.952566 C116.759052,583.46709 117.067371,582.967045 117.368241,582.440397 C117.976669,581.375393 118.487238,580.344161 119.302093,578.546686 C119.390205,578.351956 119.401218,578.327614 119.510981,578.084614 L119.564688,577.965711 C119.73691,577.584374 119.73691,577.584374 119.835311,577.366733 C120.058141,576.874738 120.22647,576.507856 120.38038,576.179327 C120.686076,575.445815 120.639382,574.842516 120.226339,574.498061 L120.203572,574.477813 C119.615637,573.990807 116.260344,571.56806 116.072669,571.487847 L116.0235,571.477221 L116.186898,570.948989 L115.616748,570.625698 L115.811475,570.209704 L115.861072,570.139201 C116.483173,568.878429 116.939495,567.880605 117.3217,566.942035 L117.485584,566.531615 L117.739037,565.882621 L117.781037,565.903621 L118.281725,566.221916 L121.787872,567.944234 L121.9717,568.034535 L122.041369,568.187121 C122.367451,568.784938 122.761333,569.365008 123.273754,570.005564 C123.756351,570.599532 124.431249,570.578079 124.979701,569.979768 L125.306104,569.623692 L125.663087,569.851086 L132.675381,573.295721 L133.283037,573.593621 L133.270037,573.617621 L132.925752,574.099825 C131.995269,575.761401 131.166325,577.112136 130.316324,578.342049 L130.060569,578.707589 C129.689502,579.222956 129.323405,579.717448 128.922715,580.244313 L128.812245,580.386741 L128.903286,580.47806 L128.969768,580.426822 C129.307674,580.151673 129.642516,579.858313 129.975775,579.545714 L130.470911,579.065962 L130.840174,578.687106 C132.054001,577.409384 133.094516,575.986594 133.876636,574.526637 L134.166748,573.983698 L134.624016,574.266983 L135.020748,574.464698 L135.042053,574.477306 L135.118612,574.463475 L135.101596,574.359314 L134.68203,574.150646 L134.12439,573.871826 L134.414236,573.390155 C135.052205,571.998223 135.475679,570.462354 135.657213,568.889069 C135.740053,568.184931 135.770343,567.499259 135.747626,566.839179 L135.74558,566.795861 L135.61697,566.785917 L135.537812,567.173125 C135.46109,567.52025 135.376083,567.85677 135.282388,568.18397 L135.134528,568.670343 C134.795181,569.970968 134.289708,571.299973 133.558474,572.835564 L133.278037,573.421621 L133.273037,573.419621 L132.780758,573.107707 L125.706953,569.663071 L125.292023,569.461019 L125.385307,569.069574 C125.443306,568.605584 125.344232,568.210471 125.080465,567.908511 C123.69046,566.213333 122.961549,564.707416 121.821033,561.270318 L121.717838,560.959617 C121.120777,559.163878 120.909988,558.567214 120.455693,557.369801 L120.404748,557.383698 L120.390818,557.354085 C119.829638,556.171415 118.844131,555.634899 115.7876,554.816947 Z M119.134748,561.326698 L119.796837,563.026183 C119.859452,563.187192 119.923685,563.354264 120.009201,563.578438 C120.040441,563.660452 120.056685,563.703099 120.069428,563.736549 L120.093651,563.800127 L120.113174,563.851362 C120.151476,563.951836 120.151476,563.951836 120.214953,564.118287 L120.320964,564.394308 C120.627356,565.187658 120.83387,565.680285 121.072805,566.188023 L121.771748,567.672698 L120.294844,566.957004 L118.264969,565.972823 L117.755299,565.72571 L117.967723,565.267402 L118.017593,565.119692 C118.068264,564.971711 118.125951,564.80978 118.232153,564.515682 C118.453882,563.901663 118.559611,563.589649 118.641412,563.293754 L118.69341,563.095742 L119.134748,561.326698 Z M112.429299,558.080317 C111.637602,558.026 111.080968,558.089112 110.563242,558.296114 C109.858852,558.592688 109.251912,559.121375 108.736726,559.874478 L108.672362,559.974024 L108.730037,560.003621 L108.976037,560.129621 L111.47413,561.412824 L111.580069,561.333229 C111.90475,560.364739 112.195481,559.358199 112.465824,558.269912 L112.491494,558.159724 Z M120.210757,547.249538 C118.749375,546.850979 117.229513,547.501245 116.524115,548.799363 L116.471184,548.905683 L116.530037,548.932621 L116.546037,548.940621 L117.071037,549.183621 L117.060037,549.209621 L116.780735,549.734847 C116.676798,549.994689 116.608245,550.264483 116.584981,550.509524 L116.57618,550.68812 C116.57618,552.151572 117.792734,553.368127 119.256186,553.368127 C120.55775,553.368127 121.678943,552.418967 121.881966,551.150073 L121.995037,550.439621 L122.047037,550.454621 L122.477152,550.643766 L122.559736,550.585882 L122.570548,550.434981 C122.602593,549.051327 121.749113,547.788258 120.459121,547.326916 Z" id="miner"></path>
        </g>
    </g>
</svg>