<?xml version="1.0" encoding="UTF-8"?>
<svg viewBox="0 0 31 34" version="1.1" xmlns="http://www.w3.org/2000/svg" xmlns:xlink="http://www.w3.org/1999/xlink">
    <title>mining</title>
    <g id="Products" stroke="none" stroke-width="1" fill="none" fill-rule="evenodd">
        <g id="Homepage-Copy" transform="translate(-699.000000, -251.000000)" fill="#B700C0" fill-rule="nonzero">
            <g id="FINANCIALS-MENU" transform="translate(202.292139, 37.977778)">
                <path d="M512.157935,213.793687 C512.650929,213.790487 513.147845,213.831003 513.633782,213.91282 L513.633782,213.91282 L514.053585,213.983659 L514.053585,214.696227 C517.343788,215.530083 519.691132,218.514451 519.691132,221.948161 L519.691132,221.948161 L519.691132,222.927981 L520.362138,222.927981 L520.362138,225.948161 L518.75141,225.948161 L518.75141,227.196436 C518.75141,229.114044 517.922521,230.841354 516.603773,232.039336 L516.603773,232.039336 L516.603773,234.477647 L518.462567,235.059255 C518.516414,235.009851 518.573137,234.962799 518.633259,234.918623 C519.155007,234.535154 519.809022,234.426152 520.426964,234.619847 C521.127508,234.839159 521.636186,235.408481 521.789626,236.101183 L521.789626,236.101183 L524.950961,237.091093 C526.299246,237.500963 527.207861,238.726915 527.207861,240.140549 L527.207861,240.140549 L527.207861,246.055438 L526.201222,246.055438 L526.201222,240.140549 C526.201222,239.173119 525.579359,238.334297 524.654014,238.053034 L524.654014,238.053034 L521.838769,237.171342 L521.838769,246.055438 L520.832129,246.055438 L520.832129,236.541375 C520.832129,236.09883 520.548252,235.712747 520.126096,235.58048 C519.817125,235.483763 519.490118,235.538395 519.229244,235.729999 C518.96837,235.921865 518.818589,236.217505 518.818589,236.541375 L518.818589,236.541375 L518.818589,244.545349 L505.597134,244.545349 L505.597134,236.541375 C505.597134,236.217505 505.447615,235.921865 505.186479,235.729999 C504.925605,235.538395 504.598597,235.483763 504.289626,235.58048 C503.86747,235.712747 503.583855,236.09883 503.583855,236.541375 L503.583855,236.541375 L503.583855,246.055438 L502.576954,246.055438 L502.576954,237.171603 L499.76563,238.051988 C498.836364,238.334297 498.214501,239.173381 498.214501,240.140811 L498.214501,240.140811 L498.214501,246.055438 L497.207861,246.055438 L497.207861,240.140811 C497.207861,238.726915 498.116477,237.500963 499.468945,237.090047 L499.468945,237.090047 L502.626096,236.101183 C502.779536,235.408481 503.288215,234.839159 503.988759,234.619847 C504.606962,234.426413 505.260716,234.535415 505.782464,234.918623 C505.842585,234.962799 505.899308,235.010112 505.953418,235.059255 L505.953418,235.059255 L507.81195,234.477647 L507.81195,232.039336 C506.493464,230.841354 505.664313,229.114044 505.664313,227.196436 L505.664313,227.196436 L505.664313,225.948161 L504.053585,225.948161 L504.053585,222.927981 L504.724591,222.927981 L504.724591,221.948161 C504.724591,219.948998 505.503031,218.069815 506.916404,216.656704 C507.876253,215.696593 509.060904,215.025064 510.362138,214.695965 L510.362138,214.695965 L510.362138,213.985489 L510.781157,213.914127 C511.235465,213.837015 511.698399,213.796499 512.157935,213.793687 Z M508.210057,235.407697 L506.513068,235.938855 C506.572406,236.130721 506.603773,236.333042 506.603773,236.541375 L506.603773,236.541375 L506.603773,243.538709 L517.81195,243.538709 L517.81195,236.541375 C517.81195,236.333042 517.843317,236.130721 517.902654,235.938855 L517.902654,235.938855 L516.271799,235.428347 L512.203679,239.304863 L508.210057,235.407697 Z M508.96288,237.548799 L511.217167,239.748454 L510.514009,240.469125 L508.259984,238.26947 L508.96288,237.548799 Z M515.597134,232.792159 C514.608008,233.393372 513.447667,233.739985 512.207861,233.739985 C510.968056,233.739985 509.807715,233.393372 508.818589,232.792159 L508.818589,232.792159 L508.818589,234.595014 L512.212044,237.90639 L515.597134,234.681014 Z M517.744771,225.948161 L506.670952,225.948161 L506.670952,227.196436 C506.670952,230.249552 509.154746,232.733345 512.207861,232.733345 C515.260977,232.733345 517.744771,230.249552 517.744771,227.196436 L517.744771,227.196436 L517.744771,225.948161 Z M510.026766,226.927981 L510.026766,228.136158 L509.019865,228.136158 L509.019865,226.927981 L510.026766,226.927981 Z M515.395858,226.927981 L515.395858,228.136158 L514.388957,228.136158 L514.388957,226.927981 L515.395858,226.927981 Z M519.355498,223.934621 L505.060224,223.934621 L505.060224,224.94126 L519.355498,224.94126 L519.355498,223.934621 Z M513.616861,222.927511 L510.797861,222.927511 L510.922584,222.980557 C511.320978,223.137197 511.754564,223.223255 512.207861,223.223255 C512.661219,223.223255 513.094853,223.137197 513.493283,222.980557 L513.616861,222.927511 Z M510.362138,215.7392 C509.334064,216.043466 508.39774,216.598935 507.628188,217.368487 C506.405112,218.591564 505.731492,220.217975 505.731492,221.948161 L505.731492,221.948161 L505.731492,222.927981 L510.797861,222.927511 L510.754043,222.90915 C509.589972,222.379682 508.762533,221.234888 508.689716,219.892668 L508.684493,219.699625 C508.684493,218.433157 509.356544,217.320913 510.362138,216.699834 L510.362138,216.699834 Z M514.053585,215.739462 L514.053585,216.699834 C515.05944,217.320913 515.731492,218.433157 515.731492,219.699625 C515.731492,221.124465 514.881444,222.35447 513.661838,222.90915 L513.616861,222.927511 L518.684493,222.927981 L518.684493,221.948161 C518.684493,219.063124 516.770283,216.544042 514.053585,215.739462 L514.053585,215.739462 Z M517.677592,221.216616 L517.677592,222.223255 L516.670952,222.223255 L516.670952,221.216616 L517.677592,221.216616 Z M507.744771,221.216616 L507.744771,222.223255 L506.738131,222.223255 L506.738131,221.216616 L507.744771,221.216616 Z M512.207861,217.182896 C510.820105,217.182896 509.691132,218.311869 509.691132,219.699625 C509.691132,221.087643 510.820105,222.216616 512.207861,222.216616 C513.595618,222.216616 514.724591,221.087643 514.724591,219.699625 C514.724591,218.311869 513.595618,217.182896 512.207861,217.182896 Z M512.207861,217.854163 C513.22548,217.854163 514.053585,218.682007 514.053585,219.699625 C514.053585,220.717505 513.22548,221.545349 512.207861,221.545349 C511.190243,221.545349 510.362138,220.717505 510.362138,219.699625 C510.362138,218.682007 511.190243,217.854163 512.207861,217.854163 Z M512.207861,218.860802 C511.745189,218.860802 511.369039,219.237214 511.369039,219.699625 C511.369039,220.162298 511.745189,220.538709 512.207861,220.538709 C512.670534,220.538709 513.046945,220.162298 513.046945,219.699625 C513.046945,219.237214 512.670534,218.860802 512.207861,218.860802 Z M512.163685,214.800524 C511.899152,214.802093 511.633311,214.817776 511.369039,214.847576 L511.369039,214.847576 L511.369039,216.277939 C511.638016,216.212067 511.918756,216.176256 512.207861,216.176256 C512.496966,216.176256 512.777707,216.212067 513.046945,216.277939 L513.046945,216.277939 L513.046945,214.847053 C512.753658,214.814378 512.458541,214.798172 512.163685,214.800524 Z" id="mining"></path>
            </g>
        </g>
    </g>
</svg>