<?xml version="1.0" encoding="UTF-8"?>
<svg viewBox="0 0 27 27" version="1.1" xmlns="http://www.w3.org/2000/svg" xmlns:xlink="http://www.w3.org/1999/xlink">
    <title>network-pulse</title>
    <g id="Website" stroke="none" stroke-width="1" fill="none" fill-rule="evenodd">
        <g id="Economy" transform="translate(-955, -796)" fill="#B671B8" fill-rule="nonzero">
            <path d="M974.169927,796.609759 C976.343032,796.627418 978.407324,797.563231 979.852785,799.185987 C981.177419,800.618625 981.85586,802.527049 981.739331,804.466345 L981.71587,804.757416 C980.860842,813.051787 969.450556,822.146959 968.964727,822.529902 C968.899233,822.581587 968.818245,822.609759 968.734813,822.609759 C968.650395,822.609759 968.568517,822.580872 968.50267,822.528044 C967.986013,822.114273 955.841413,812.302616 955.75227,804.722502 C955.719352,802.524682 956.56111,800.403852 958.09227,798.826816 C959.458595,797.416772 961.33591,796.617451 963.299327,796.609759 C965.384512,796.625362 967.363164,797.533292 968.734813,799.103902 C970.106231,797.533193 972.08482,796.625229 974.169927,796.609759 Z M972.087327,806.959987 L969.470985,813.827702 C969.419066,813.963937 969.292245,814.057201 969.146727,814.066159 L969.123699,814.066902 C968.986099,814.066902 968.859753,813.990903 968.795356,813.869302 L965.768585,808.15153 L964.617156,810.165416 C964.551121,810.28102 964.428263,810.35244 964.295127,810.352616 L958.408147,810.352091 C961.528097,815.629141 967.489444,820.724385 968.735556,821.758816 C969.961631,820.750476 975.746598,815.835281 978.921715,810.352143 L973.580842,810.352616 C973.424786,810.352507 973.285441,810.254861 973.23207,810.108216 L972.087327,806.959987 Z M974.169927,797.352616 C972.153963,797.373505 970.258488,798.316111 969.02527,799.911016 C968.952252,799.995233 968.846276,800.043611 968.734813,800.043611 C968.62335,800.043611 968.517374,799.995233 968.444356,799.911016 C967.210879,798.316227 965.315356,797.373666 963.299327,797.352616 C961.53541,797.361286 959.849517,798.080904 958.623042,799.348673 C957.23029,800.783991 956.464843,802.713843 956.495127,804.713587 C956.513239,806.263842 957.091295,807.937135 957.989553,809.610402 L964.079699,809.609759 L965.458442,807.195473 C965.524922,807.080325 965.647881,807.009496 965.780842,807.009759 C965.922483,807.012033 966.045861,807.087739 966.109185,807.207359 L969.068727,812.797359 L971.748213,805.763244 C971.803056,805.619283 971.941074,805.524044 972.095127,805.524044 C972.2532,805.52524 972.391229,805.622689 972.44427,805.768444 L973.840842,809.609759 L979.333049,809.610281 C980.138589,808.08869 980.721959,806.535422 980.933614,805.020131 L980.97487,804.680159 C981.158618,802.851738 980.549047,801.032356 979.300842,799.683702 C977.989445,798.226522 976.130101,797.381782 974.169927,797.352616 Z" id="network-pulse"></path>
        </g>
    </g>
</svg>