<?xml version="1.0" encoding="UTF-8"?>
<svg width="23.7990716px" height="23.8000518px" viewBox="0 0 23.7990716 23.8000518" version="1.1" xmlns="http://www.w3.org/2000/svg" xmlns:xlink="http://www.w3.org/1999/xlink">
    <title>notary</title>
    <g id="Website" stroke="none" stroke-width="1" fill="none" fill-rule="evenodd">
        <g id="Mainchain" transform="translate(-168, -399.5937)" fill="#000000" fill-rule="nonzero">
            <g id="MAINCHAIN-MENU" transform="translate(129.0465, 37.9778)">
                <path d="M50.2963353,361.61618 C50.517222,361.61618 50.696321,361.795279 50.696321,362.016165 C50.696321,362.237052 50.517222,362.416151 50.2963353,362.416151 L49.632545,362.41609 L49.5325358,362.51609 L49.5325358,363.519998 L49.6276826,363.619881 C51.0853113,363.690706 52.4945483,364.067668 53.7709096,364.721992 L53.9031305,364.683006 L54.3962195,363.828995 L54.3596226,363.692393 L53.7847183,363.360433 C53.5933809,363.249925 53.5278365,363.005206 53.6382248,362.813932 C53.7348888,362.646438 53.9342237,362.575197 54.1107612,362.63411 L54.1821066,362.665952 C54.1847951,362.667504 54.1847951,362.667504 54.1912768,362.671247 L54.2185797,362.687013 C54.2240242,362.690157 54.2311651,362.69428 54.2418765,362.700466 C54.3251424,362.748548 54.3251424,362.748548 54.4510417,362.821248 C54.5421541,362.873861 54.6059327,362.91069 54.6607815,362.942362 L54.8169419,363.032537 L54.909437,363.085948 L55.1326644,363.214851 C55.6465398,363.511588 55.8178316,363.6105 55.9629371,363.694291 L56.0493892,363.744213 C56.0935753,363.769728 56.1410997,363.797171 56.2005052,363.831475 C56.3918442,363.941983 56.4573886,364.186702 56.3470003,364.377977 C56.236192,364.569559 55.9910913,364.634537 55.8005441,364.52447 L55.2257198,364.192533 L55.0891105,364.229131 L54.5945262,365.085766 L54.6270924,365.219909 C56.5446778,366.451365 58.001102,368.281488 58.7509016,370.449248 C58.8231609,370.65802 58.7124529,370.885962 58.5039225,370.958011 C58.2945258,371.030411 58.0674997,370.919942 57.9951008,370.710964 C56.6819504,366.915149 53.0832484,364.400225 49.1332825,364.400225 C43.9906009,364.400225 39.7535178,368.610955 39.7535178,373.77999 C39.7535178,378.926722 43.9554032,383.164638 49.1332825,383.164638 C49.7544045,383.164638 50.3756961,383.103385 50.979754,382.982524 C51.1966413,382.939186 51.4072509,383.079632 51.4504285,383.296107 C51.4938001,383.512769 51.3533752,383.723497 51.1367895,383.766854 C50.4808727,383.898085 49.8068046,383.96461 49.1332825,383.96461 C47.9179399,383.96461 46.7230209,383.740147 45.5764195,383.310257 L45.4736279,383.330281 L43.6890414,384.971195 C43.1593012,385.458448 42.458982,385.551597 41.901681,385.219857 C41.3413578,384.886081 41.091799,384.222802 41.2680647,383.524652 L41.9070167,381.01004 C40.0176411,379.019519 38.9535463,376.48142 38.9535463,373.77999 C38.9535463,370.270384 40.7585588,367.063737 43.676081,365.201134 L43.7088724,365.066846 L43.2204525,364.220892 L43.0838566,364.184286 L42.5085232,364.5164 C42.3168316,364.626786 42.0724427,364.560794 41.9619965,364.369838 C41.851719,364.178561 41.9173023,363.93398 42.1164228,363.818867 C42.1355462,363.807828 42.1355462,363.807828 42.1683298,363.788903 C42.2528731,363.7401 42.2528731,363.7401 42.3799454,363.666747 C42.6857713,363.490206 42.6857713,363.490206 43.0648173,363.271399 C43.8358433,362.826318 43.8358433,362.826318 44.124583,362.65964 C44.3161626,362.549106 44.5604703,362.614633 44.6710798,362.806148 C44.7813887,362.99748 44.7158051,363.24206 44.5245233,363.352648 L43.9500427,363.68427 L43.9134343,363.820877 L44.4040209,364.670584 L44.5359846,364.709703 C45.7994376,364.066613 47.1895965,363.695746 48.6374108,363.625496 L48.7325644,363.525614 L48.7325644,362.515968 L48.6325735,362.415968 L47.96853,362.415907 C47.7476341,362.415907 47.568535,362.236808 47.568535,362.015921 C47.568535,361.795035 47.7476341,361.615935 47.9685208,361.615935 Z M56.0603859,372.708723 C56.6733979,372.210886 57.4763382,372.020245 58.2648497,372.185528 C59.2808523,372.39836 60.0879,373.229406 60.2718456,374.252266 C60.3735016,374.815845 60.2963123,375.379121 60.0488495,375.88228 C59.404376,377.191445 59.0903688,378.382223 59.0903688,379.522015 L59.0903688,379.977812 L59.1903688,380.077812 L61.1492973,380.077812 C62.033251,380.077812 62.7526179,380.797179 62.7526179,381.681133 L62.7526179,382.737743 C62.7526179,382.95863 62.5735189,383.137729 62.3526322,383.137729 L62.1214376,383.137729 L62.0214376,383.237729 L62.0214376,385.015266 C62.0214376,385.236153 61.8423386,385.415252 61.6214519,385.415252 L53.7903763,385.415252 C53.5694896,385.415252 53.3903905,385.236153 53.3903905,385.015266 L53.3903905,383.237729 L53.2903905,383.137729 L53.0594401,383.137729 C52.8385534,383.137729 52.6594543,382.95863 52.6594543,382.737743 L52.6594543,381.681133 C52.6594543,380.797128 53.3786279,380.077812 54.2625308,380.077812 L56.2165766,380.077812 L56.3165766,379.977812 L56.3165766,379.512005 C56.3165766,378.355483 55.999401,377.142049 55.3749588,375.905505 C55.1929271,375.545669 55.0966407,375.140033 55.0966407,374.733332 C55.0966407,373.943853 55.4478324,373.206055 56.0603859,372.708723 Z M42.7095985,381.678289 L42.5492416,381.730971 L42.0436407,383.721148 C41.9553789,384.07061 42.0527274,384.378581 42.3110275,384.532573 C42.5685205,384.686022 42.8838252,384.625258 43.1475082,384.382283 L44.5956276,383.050853 L44.5727032,382.887814 C44.1204408,382.66145 43.1206894,382.01563 42.7095985,381.678289 Z M61.1214661,383.137729 L54.290362,383.137729 L54.190362,383.237729 L54.190362,384.51528 L54.290362,384.61528 L61.1214661,384.61528 L61.2214661,384.51528 L61.2214661,383.237729 L61.1214661,383.137729 Z M61.1492973,380.877784 L54.2625308,380.877784 C53.8195749,380.877784 53.4594258,381.238019 53.4594258,381.681133 L53.4594258,382.237757 L53.5594258,382.337757 L61.8526464,382.337757 L61.9526464,382.237757 L61.9526464,381.681133 C61.9526464,381.237976 61.5924542,380.877784 61.1492973,380.877784 Z M49.1321566,365.903655 C52.3126653,365.908404 55.1620991,367.811761 56.3913072,370.719407 C56.4774274,370.922698 56.3821458,371.157428 56.1786526,371.243356 C55.975292,371.32931 55.740762,371.234146 55.6546344,371.030642 C55.6181103,370.944228 55.5865888,370.877186 55.5139146,370.727827 C55.5053579,370.710241 55.5053579,370.710241 55.4968324,370.692695 L55.3568855,370.649768 L54.6729755,371.044532 C54.4812793,371.154921 54.2368911,371.088929 54.1264446,370.897972 C54.016167,370.706694 54.0817507,370.462114 54.2730324,370.351526 L54.9567612,369.956857 L54.9895899,369.814208 C54.4823846,369.064641 53.8417096,368.42319 53.1011333,367.921747 L52.9584677,367.954545 L52.5622083,368.640773 C52.4513877,368.832377 52.2062864,368.897355 52.0157401,368.787288 C51.8243883,368.676773 51.7588439,368.432053 51.8692321,368.240779 L52.2652958,367.554908 L52.2223208,367.414917 C51.4146366,367.023356 50.5401511,366.787832 49.639375,366.723866 L49.5322917,366.823615 L49.5322917,367.613906 C49.5322917,367.834793 49.3531927,368.013892 49.132306,368.013892 C48.9114192,368.013892 48.7323202,367.834793 48.7323202,367.613906 L48.7323202,366.830451 L48.6251807,366.730706 C47.7214684,366.795392 46.8508403,367.031451 46.0467553,367.423531 L46.0039854,367.563422 L46.3951485,368.240802 C46.5055238,368.432053 46.4399794,368.676773 46.2486335,368.787285 C46.0580949,368.897348 45.8129956,368.832403 45.7021242,368.640712 L45.3083107,367.958725 L45.1654852,367.926036 C44.4229242,368.430921 43.7812309,369.072834 43.2770088,369.815289 L43.3097416,369.958077 L43.9913933,370.35156 C44.1826171,370.462114 44.2482008,370.706694 44.1378536,370.898093 C44.0275092,371.088873 43.783218,371.154995 43.5913036,371.044481 L42.9150508,370.654132 L42.775151,370.696961 C42.3837126,371.500865 42.1481956,372.371181 42.0838735,373.274611 L42.183621,373.381713 L42.9652455,373.381713 C43.1861322,373.381713 43.3652312,373.560812 43.3652312,373.781699 C43.3652312,374.002585 43.1861322,374.181684 42.9652455,374.181684 L42.1837736,374.181684 L42.0840291,374.288828 C42.1487173,375.192119 42.3843133,376.062293 42.7755727,376.86609 L42.915493,376.908922 L43.5914076,376.518613 C43.7825773,376.4077 44.0272439,376.473351 44.1378698,376.66509 C44.2482641,376.856375 44.1827197,377.101094 43.9913737,377.211606 L43.3100329,377.605055 L43.2773,377.747814 C43.7814118,378.490505 44.4228936,379.132654 45.1651491,379.637739 L45.3080092,379.605064 L45.702163,378.922375 C45.8129735,378.730708 46.0567336,378.665099 46.2486543,378.775882 C46.440015,378.886402 46.5055197,379.130913 46.3951136,379.322414 L46.003493,380.000716 L46.0462371,380.140585 C46.8504868,380.533079 47.7212766,380.76938 48.6251755,380.834127 L48.7323203,380.734382 L48.7323203,379.948516 C48.7323203,379.727629 48.9114193,379.54853 49.132306,379.54853 C49.3531927,379.54853 49.5322917,379.727629 49.5322917,379.948516 L49.5322917,380.741859 L49.6394151,380.841605 C50.1422953,380.805692 50.64288,380.716564 51.134001,380.57537 C51.1993716,380.547051 51.2557558,380.53483 51.313152,380.53483 C51.5339616,380.53483 51.7129424,380.713871 51.7131378,380.934904 C51.7131378,381.118131 51.5961418,381.272967 51.4272838,381.323063 C50.6752339,381.546483 49.9035894,381.659744 49.1332825,381.659744 C44.8206026,381.659744 41.2740484,378.132677 41.2597544,373.806148 L41.2569148,373.781227 C41.2575272,373.777084 41.2582747,373.771399 41.2593959,373.762871 C41.2712475,369.446274 44.7997785,365.911663 49.1224351,365.905669 Z M58.1006253,372.968232 C57.5415793,372.85214 56.9950254,372.980171 56.5646682,373.329562 C56.1401211,373.674523 55.8966122,374.186188 55.8966122,374.733332 C55.8966122,375.019181 55.9614023,375.292681 56.0890254,375.544827 C56.7711367,376.895515 57.1165481,378.230308 57.1165481,379.512005 L57.1165481,379.977812 L57.2165481,380.077812 L58.1903972,380.077812 L58.2903972,379.977812 L58.2903972,379.522015 C58.2903972,378.258605 58.6302509,376.952917 59.330873,375.529173 C59.5024453,375.180602 59.5554917,374.787833 59.4845807,374.394084 L59.4517135,374.248535 C59.2764994,373.604834 58.7488729,373.104151 58.1006253,372.968232 Z M49.1318177,369.641341 C49.3527044,369.641341 49.5318035,369.82044 49.5318035,370.041327 L49.5318035,372.215703 L49.6021823,372.311216 C50.0834184,372.460461 50.4611201,372.833095 50.6151613,373.310239 L50.710325,373.379516 L51.4933226,373.379516 C51.7142094,373.379516 51.8933084,373.558615 51.8933084,373.779502 C51.8933084,374.000388 51.7142093,374.179487 51.4933226,374.179487 L50.7100503,374.179487 L50.6148559,374.24886 C50.4092242,374.887997 49.8196808,375.329845 49.1442685,375.329845 C48.2886853,375.329845 47.5924602,374.633478 47.5924602,373.777793 C47.5924602,373.109948 48.0290449,372.52619 48.6629726,372.318452 L48.731832,372.223424 L48.731832,370.041327 C48.731832,369.82044 48.910931,369.641341 49.1318177,369.641341 Z M49.1442685,373.034256 C48.7299804,373.034256 48.3924316,373.367529 48.3924316,373.777793 C48.3924316,374.192586 48.7296317,374.529874 49.1442685,374.529874 C49.5574834,374.529874 49.8934926,374.194887 49.8956767,373.781586 C49.895045,373.367359 49.5589409,373.034256 49.1442685,373.034256 Z" id="notary"></path>
            </g>
        </g>
    </g>
</svg>