<?xml version="1.0" encoding="UTF-8"?>
<svg width="29.7px" height="26.325px" viewBox="0 0 29.7 26.325" version="1.1" xmlns="http://www.w3.org/2000/svg" xmlns:xlink="http://www.w3.org/1999/xlink">
    <title>overview</title>
    <g id="Website" stroke="none" stroke-width="1" fill="none" fill-rule="evenodd">
        <g id="Ulixee" transform="translate(-180.497, -199.9005)" fill="#000000" fill-rule="nonzero">
            <g id="DATANET-MENU" transform="translate(122.1115, 37.9778)">
                <path d="M73.2354716,186.235242 C73.4978069,186.235242 73.7104716,186.447906 73.7104716,186.710242 L73.7104716,187.772742 C73.7104716,188.035077 73.4978069,188.247742 73.2354716,188.247742 C72.9731364,188.247742 72.7604716,188.035077 72.7604716,187.772742 L72.7604716,186.710242 C72.7604716,186.447906 72.9731364,186.235242 73.2354716,186.235242 Z M76.7428604,185.922717 L76.8257554,185.931269 C77.0149624,185.967916 77.170465,186.11839 77.2040087,186.319652 C77.2094277,186.352087 77.2094277,186.352087 77.21474,186.383544 L77.2200331,186.41466 C77.2384872,186.522659 77.2574816,186.629091 77.2965598,186.844021 C77.3461711,187.116883 77.3660477,187.229386 77.3915087,187.382152 C77.4346364,187.640918 77.259827,187.885651 77.0010611,187.928779 C76.7422952,187.971906 76.4975622,187.797097 76.4544345,187.538331 C76.4490155,187.505896 76.4490155,187.505896 76.4437033,187.474439 L76.4384101,187.443323 C76.419956,187.335324 76.4009616,187.228892 76.3618834,187.013962 C76.3122721,186.7411 76.2923956,186.628597 76.2669345,186.475831 C76.2238069,186.217065 76.3986162,185.972332 76.6573821,185.929204 L76.7428604,185.922717 Z M69.7280829,185.922717 L69.8135611,185.929204 C70.072327,185.972332 70.2471364,186.217065 70.2040087,186.475831 C70.1785477,186.628597 70.1586711,186.7411 70.1090598,187.013962 C70.0699816,187.228892 70.0509872,187.335324 70.0325518,187.443214 L70.0272582,187.474332 C70.0219277,187.505896 70.0219277,187.505896 70.0165087,187.538331 C69.9733811,187.797097 69.728648,187.971906 69.4698821,187.928779 C69.2111162,187.885651 69.0363069,187.640918 69.0794345,187.382152 C69.1048956,187.229386 69.1247721,187.116883 69.1743834,186.844021 C69.2134616,186.629091 69.232456,186.522659 69.2508915,186.414769 L69.256185,186.383652 C69.2615155,186.352087 69.2615155,186.352087 69.2669345,186.319652 C69.3100622,186.060886 69.5547952,185.886077 69.8135611,185.929204 Z M79.9965611,185.019215 C80.2401332,184.921786 80.5165692,185.040259 80.6139981,185.283831 C80.6223773,185.304822 80.6223773,185.304822 80.6305674,185.325519 L80.6414814,185.353294 C80.6822877,185.457637 80.7221281,185.564864 80.8057506,185.794826 C80.9027202,186.061492 80.9412683,186.164507 80.9889981,186.283831 C81.0864269,186.527403 80.9679544,186.803839 80.7243822,186.901268 C80.48081,186.998697 80.2043741,186.880224 80.1069452,186.636652 C80.0546154,186.505828 80.014562,186.398923 79.9140697,186.12257 C79.8272261,185.88375 79.7884028,185.779487 79.7470789,185.674743 L79.7371125,185.6496 L79.7319872,185.636757 C79.6345163,185.39308 79.7529889,185.116644 79.9965611,185.019215 Z M65.8569452,185.283831 C65.9543741,185.040259 66.23081,184.921786 66.4743822,185.019215 C66.7179544,185.116644 66.8364269,185.39308 66.7389981,185.636652 C66.69132,185.755847 66.6528015,185.858768 66.5568735,186.12257 C66.4563812,186.398923 66.4163279,186.505828 66.3639981,186.636652 C66.2665692,186.880224 65.9901332,186.998697 65.7465611,186.901268 C65.5029889,186.803839 65.3845163,186.527403 65.4819452,186.283831 C65.5296233,186.164636 65.5681418,186.061716 65.6640697,185.797914 C65.764562,185.52156 65.8046154,185.414656 65.8569452,185.283831 Z M83.1160861,183.427932 C83.3410368,183.292962 83.6328104,183.365905 83.7677808,183.590856 C83.7889787,183.626186 83.7889787,183.626186 83.8074616,183.656991 L83.8297966,183.694216 C83.8745064,183.768732 83.8745064,183.768732 83.9092685,183.826669 L83.945274,183.886678 C83.955208,183.903235 83.9663855,183.921864 83.9887404,183.959122 L84.0110754,183.996347 C84.0295583,184.027152 84.0295583,184.027152 84.0507562,184.062482 C84.0756028,184.103893 84.0905108,184.12874 84.1021059,184.148065 L84.1335783,184.200519 C84.1393759,184.210181 84.1460016,184.221224 84.1542838,184.235028 L84.2267532,184.35581 C84.2681642,184.424828 84.2681642,184.424828 84.3302808,184.528356 C84.4652511,184.753307 84.3923077,185.04508 84.1673571,185.180051 C83.9424065,185.315021 83.6506329,185.242078 83.5156625,185.017127 C83.4457813,184.900659 83.4318051,184.877365 83.4021755,184.827982 L83.3496249,184.740398 C83.3199953,184.691015 83.3060191,184.667721 83.2361379,184.551253 C83.21494,184.515923 83.21494,184.515923 83.1964571,184.485118 L83.1741221,184.447893 C83.0946502,184.31544 83.0946502,184.31544 83.0151783,184.182987 L82.9928433,184.145762 C82.9743604,184.114957 82.9743604,184.114957 82.9531625,184.079627 C82.8181921,183.854676 82.8911355,183.562903 83.1160861,183.427932 Z M62.7031625,183.590856 C62.8381329,183.365905 63.1299065,183.292962 63.3548571,183.427932 C63.5798077,183.562903 63.6527511,183.854676 63.5177808,184.079627 L62.9552808,185.017127 C62.8203104,185.242078 62.5285368,185.315021 62.3035861,185.180051 C62.0786355,185.04508 62.0056921,184.753307 62.1406625,184.528356 Z M61.0169951,172.132143 C67.7664992,165.061234 78.704444,165.061234 85.4540655,172.132266 L87.9544372,174.757655 C88.1291498,174.941104 88.1291498,175.22938 87.9544371,175.412828 L85.4539482,178.038341 C78.704369,185.109328 67.7664242,185.109171 61.0163888,178.037705 L58.5165061,175.412828 C58.3417935,175.22938 58.3417935,174.941104 58.5165061,174.757655 Z M59.9004202,181.248535 C60.0850949,181.063867 60.3858483,181.063867 60.5713473,181.249366 C60.7568464,181.434865 60.7568464,181.735618 60.5713473,181.921117 C60.5665907,181.925878 60.5665907,181.925878 60.5618574,181.930633 L60.5433348,181.949361 C60.4626765,182.03139 60.3869367,182.114188 60.215491,182.307064 C60.0480974,182.495382 59.968126,182.583134 59.8869544,182.66698 L59.8651481,182.689374 C59.8437517,182.711141 59.8437517,182.711141 59.8213473,182.733617 C59.6358483,182.919116 59.3350949,182.919116 59.1495959,182.733617 C58.9640969,182.548118 58.9640969,182.247365 59.1495959,182.061866 L59.1774603,182.033772 C59.2582667,181.951594 59.3340066,181.868795 59.5054522,181.675919 C59.6728459,181.487601 59.7528172,181.399849 59.8339889,181.316004 Z M85.8995959,181.249366 C86.0850949,181.063867 86.3858483,181.063867 86.5705231,181.248535 L86.6378347,181.316905 C86.718126,181.399849 86.7980974,181.487601 86.965491,181.675919 C87.1369367,181.868795 87.2126765,181.951594 87.2930301,182.033313 L87.3212052,182.061724 C87.5068464,182.247365 87.5068464,182.548118 87.3213473,182.733617 C87.1358483,182.919116 86.8350949,182.919116 86.6495959,182.733617 C86.6271915,182.711141 86.6271915,182.711141 86.6054972,182.689069 L86.5836889,182.666671 C86.5028172,182.583134 86.4228459,182.495382 86.2554522,182.307064 C86.0840066,182.114188 86.0082667,182.03139 85.9279132,181.94967 L85.9093849,181.930934 L85.899738,181.92126 C85.7140969,181.735618 85.7140969,181.434865 85.8995959,181.249366 Z M73.2354716,167.810242 C69.2176001,167.810242 65.9604716,171.06737 65.9604716,175.085242 C65.9604716,179.103113 69.2176001,182.360242 73.2354716,182.360242 C77.2533432,182.360242 80.5104716,179.103113 80.5104716,175.085242 C80.5104716,171.06737 77.2533432,167.810242 73.2354716,167.810242 Z M78.4451759,168.654329 L78.9502646,169.168946 L78.9671994,169.1862 C80.5517753,170.727468 81.4604716,172.833899 81.4604716,175.085242 C81.4604716,177.345553 80.544475,179.459646 78.9512394,180.999694 L78.3964453,181.535967 L79.1117429,181.246598 C81.1320297,180.429302 82.9848487,179.192931 84.574065,177.58103 L84.7655489,177.383651 L86.8559347,175.188688 L86.8559347,174.981795 L84.7669967,172.788342 C83.1361841,171.079872 81.2161278,169.775712 79.1135876,168.92483 L78.4451759,168.654329 Z M68.084406,168.624939 L67.358287,168.924259 L67.1795601,168.997933 C65.1456715,169.850132 63.2884889,171.128345 61.7045545,172.787705 L59.614949,174.981793 L59.614949,175.18869 L61.7039481,177.382142 C63.3350369,179.090902 65.2554685,180.395214 67.3584227,181.246085 L68.0733493,181.535349 L67.5189596,180.999209 C65.9260853,179.45877 65.0104716,177.345091 65.0104716,175.085242 C65.0104716,172.82493 65.9264683,170.710837 67.5197038,169.170789 L68.084406,168.624939 Z M73.2354716,171.110242 C75.4353069,171.110242 77.2104716,172.885406 77.2104716,175.085242 C77.2104716,177.285077 75.4353069,179.060242 73.2354716,179.060242 C71.0356364,179.060242 69.2604716,177.285077 69.2604716,175.085242 C69.2604716,174.914759 69.2623599,174.838737 69.2694912,174.738899 C69.2814712,174.57118 69.3060066,174.434055 69.3473471,174.310033 C69.4463903,174.012904 69.8008541,173.891284 70.0614542,174.065018 C70.1297944,174.090355 70.1297944,174.090355 70.157365,174.095264 L70.1810619,174.098783 C70.2493259,174.107885 70.3168081,174.110242 70.4854716,174.110242 C71.1606364,174.110242 71.6979716,173.572906 71.6979716,172.897742 C71.6979716,172.631239 71.6111463,172.382668 71.4620959,172.233617 C71.2244757,171.995997 71.3019852,171.593523 71.61086,171.461148 C72.1448721,171.232285 72.7041249,171.110242 73.2354716,171.110242 Z M73.2354716,172.060242 C73.062522,172.060242 72.8830524,172.078085 72.7008648,172.113001 L72.6795148,172.117194 L72.5643745,172.306178 C72.6174039,172.488944 72.6451295,172.676176 72.6477644,172.867613 L72.6479752,172.898773 C72.6479716,174.097577 71.6853069,175.060242 70.4854716,175.060242 L70.3895115,175.059919 L70.3659807,175.059734 L70.2144688,175.205537 L70.2139671,175.2235 C70.2911091,176.827244 71.5870598,178.084084 73.1853791,178.109838 L73.234264,178.110237 C74.9106364,178.110237 76.2604716,176.760406 76.2604716,175.085242 C76.2604716,173.410077 74.9106364,172.060242 73.2354716,172.060242 Z M59.1495959,167.436866 C59.3350949,167.251367 59.6358483,167.251367 59.8213473,167.436866 C59.8437517,167.459342 59.8437517,167.459342 59.8654461,167.481414 L59.8872544,167.503813 C59.968126,167.587349 60.0480974,167.675101 60.215491,167.863419 C60.3869367,168.056295 60.4626765,168.139094 60.5430301,168.220813 L60.5615584,168.239549 L60.5712052,168.249224 C60.7568464,168.434865 60.7568464,168.735618 60.5713473,168.921117 C60.3858483,169.106616 60.0850949,169.106616 59.8995959,168.921117 L59.8331085,168.853578 C59.7528172,168.770634 59.6728459,168.682882 59.5054522,168.494564 C59.3340066,168.301688 59.2582667,168.21889 59.1779132,168.13717 L59.149738,168.10876 C58.9640969,167.923118 58.9640969,167.622365 59.1495959,167.436866 Z M86.6495959,167.436866 C86.8350949,167.251367 87.1358483,167.251367 87.3213473,167.436866 C87.5068464,167.622365 87.5068464,167.923118 87.3213473,168.108617 L87.293483,168.136711 C87.2126765,168.21889 87.1369367,168.301688 86.965491,168.494564 C86.7980974,168.682882 86.718126,168.770634 86.6369544,168.85448 L86.5705231,168.921948 C86.3858483,169.106616 86.0850949,169.106616 85.8995959,168.921117 C85.7140969,168.735618 85.7140969,168.434865 85.8995959,168.249366 C85.9043526,168.244605 85.9043526,168.244605 85.9090859,168.23985 L85.9276084,168.221122 C86.0082667,168.139094 86.0840066,168.056295 86.2554522,167.863419 C86.4228459,167.675101 86.5028172,167.587349 86.5839889,167.503504 L86.6057951,167.481109 C86.6271915,167.459342 86.6271915,167.459342 86.6495959,167.436866 Z M62.3035861,164.990432 C62.5285368,164.855462 62.8203104,164.928405 62.9552808,165.153356 C62.9895592,165.210487 62.9895592,165.210487 63.0169184,165.256086 L63.0454597,165.303654 C63.0722662,165.348332 63.0722662,165.348332 63.0959058,165.387731 C63.1486401,165.475622 63.1486401,165.475622 63.2365308,165.622106 C63.2708092,165.679237 63.2708092,165.679237 63.2981684,165.724836 L63.3267097,165.772404 C63.3535162,165.817082 63.3535162,165.817082 63.3771558,165.856481 C63.4298901,165.944372 63.4298901,165.944372 63.5177808,166.090856 C63.6527511,166.315807 63.5798077,166.60758 63.3548571,166.742551 C63.1299065,166.877521 62.8381329,166.804578 62.7031625,166.579627 C62.6688841,166.522496 62.6688841,166.522496 62.6415248,166.476898 L62.6129835,166.429329 C62.586177,166.384651 62.586177,166.384651 62.5625375,166.345252 C62.5098031,166.257361 62.5098031,166.257361 62.4219125,166.110877 C62.3876341,166.053746 62.3876341,166.053746 62.3602748,166.008148 L62.3317335,165.960579 C62.304927,165.915901 62.304927,165.915901 62.2812875,165.876502 C62.2285531,165.788611 62.2285531,165.788611 62.1406625,165.642127 C62.0056921,165.417176 62.0786355,165.125403 62.3035861,164.990432 Z M83.5156625,165.153356 C83.6506329,164.928405 83.9424065,164.855462 84.1673571,164.990432 C84.3923077,165.125403 84.4652511,165.417176 84.3302808,165.642127 C84.2681642,165.745655 84.2681642,165.745655 84.2267532,165.814673 L84.1542838,165.935455 L84.1335783,165.969964 L84.1021059,166.022418 C84.0905108,166.041744 84.0756028,166.06659 84.0507562,166.108001 C84.0295583,166.143331 84.0295583,166.143331 84.0110754,166.174136 L83.9887404,166.211361 C83.9663855,166.248619 83.955208,166.267248 83.945274,166.283805 L83.9092685,166.343814 C83.8745064,166.401751 83.8745064,166.401751 83.8297966,166.476267 L83.8074616,166.513492 C83.7889787,166.544297 83.7889787,166.544297 83.7677808,166.579627 C83.6328104,166.804578 83.3410368,166.877521 83.1160861,166.742551 C82.8911355,166.60758 82.8181921,166.315807 82.9531625,166.090856 C82.9743604,166.055526 82.9743604,166.055526 82.9928433,166.024721 L83.0151783,165.987496 C83.0598881,165.91298 83.0598881,165.91298 83.0946502,165.855043 C83.1294123,165.797106 83.1294123,165.797106 83.1741221,165.72259 L83.1964571,165.685365 C83.21494,165.65456 83.21494,165.65456 83.2361379,165.61923 C83.3060191,165.502762 83.3199953,165.479468 83.3496249,165.430085 L83.4021755,165.342501 C83.4318051,165.293118 83.4457813,165.269825 83.5156625,165.153356 Z M65.7465611,163.269215 C65.9901332,163.171786 66.2665692,163.290259 66.3639981,163.533831 C66.4163279,163.664656 66.4563812,163.77156 66.5568735,164.047914 C66.6528015,164.311716 66.69132,164.414636 66.7389981,164.533831 C66.8364269,164.777403 66.7179544,165.053839 66.4743822,165.151268 C66.23081,165.248697 65.9543741,165.130224 65.8569452,164.886652 C65.8046154,164.755828 65.764562,164.648923 65.6640697,164.37257 C65.5681418,164.108768 65.5296233,164.005847 65.4819452,163.886652 C65.3845163,163.64308 65.5029889,163.366644 65.7465611,163.269215 Z M80.1069452,163.533831 C80.2043741,163.290259 80.48081,163.171786 80.7243822,163.269215 C80.9679544,163.366644 81.0864269,163.64308 80.9889981,163.886652 C80.94132,164.005847 80.9028015,164.108768 80.8068735,164.37257 C80.7222152,164.605379 80.6823426,164.712706 80.6413928,164.817415 L80.6304794,164.845187 C80.6223773,164.865661 80.6223773,164.865661 80.6139981,164.886652 C80.5165692,165.130224 80.2401332,165.248697 79.9965611,165.151268 C79.7529889,165.053839 79.6345163,164.777403 79.7319452,164.533831 C79.7344925,164.527458 79.7344925,164.527458 79.7370246,164.521105 L79.7469895,164.495967 C79.781021,164.409707 79.8140195,164.321916 79.8688106,164.172087 L79.9129079,164.051109 C80.014483,163.771777 80.054563,163.664786 80.1069452,163.533831 Z M69.5553604,162.235217 L69.6382554,162.243769 C69.8274624,162.280416 69.982965,162.43089 70.0165087,162.632152 C70.0219277,162.664587 70.0219277,162.664587 70.02724,162.696044 L70.0325331,162.72716 C70.0509872,162.835159 70.0699816,162.941591 70.1090598,163.156521 C70.1586711,163.429383 70.1785477,163.541886 70.2040087,163.694652 C70.2471364,163.953418 70.072327,164.198151 69.8135611,164.241279 C69.5547952,164.284406 69.3100622,164.109597 69.2669345,163.850831 C69.2615155,163.818396 69.2615155,163.818396 69.2562033,163.786939 L69.2509101,163.755823 C69.232456,163.647824 69.2134616,163.541392 69.1743834,163.326462 C69.1247721,163.0536 69.1048956,162.941097 69.0794345,162.788331 C69.0363069,162.529565 69.2111162,162.284832 69.4698821,162.241704 L69.5553604,162.235217 Z M76.9155829,162.235217 L77.0010611,162.241704 C77.259827,162.284832 77.4346364,162.529565 77.3915087,162.788331 C77.3660477,162.941097 77.3461711,163.0536 77.2965598,163.326462 C77.2574816,163.541392 77.2384872,163.647824 77.2200518,163.755714 L77.2147582,163.786832 C77.2094277,163.818396 77.2094277,163.818396 77.2040087,163.850831 C77.1608811,164.109597 76.916148,164.284406 76.6573821,164.241279 C76.3986162,164.198151 76.2238069,163.953418 76.2669345,163.694652 C76.2923956,163.541886 76.3122721,163.429383 76.3618834,163.156521 C76.4009616,162.941591 76.419956,162.835159 76.4383915,162.727269 L76.443685,162.696152 C76.4490155,162.664587 76.4490155,162.664587 76.4544345,162.632152 C76.4975622,162.373386 76.7422952,162.198577 77.0010611,162.241704 Z M73.2354716,161.922742 C73.4978069,161.922742 73.7104716,162.135406 73.7104716,162.397742 L73.7104716,163.460242 C73.7104716,163.722577 73.4978069,163.935242 73.2354716,163.935242 C72.9731364,163.935242 72.7604716,163.722577 72.7604716,163.460242 L72.7604716,162.397742 C72.7604716,162.135406 72.9731364,161.922742 73.2354716,161.922742 Z" id="overview"></path>
            </g>
        </g>
    </g>
</svg>