<?xml version="1.0" encoding="UTF-8"?>
<svg width="28.4764727px" height="25.0393981px" viewBox="0 0 28.4764727 25.0393981" version="1.1" xmlns="http://www.w3.org/2000/svg" xmlns:xlink="http://www.w3.org/1999/xlink">
    <title>pricing</title>
    <g id="Website" stroke="none" stroke-width="1" fill="none" fill-rule="evenodd">
        <g id="Ulixee" transform="translate(-692.8708, -253.2989)" fill="#000000" fill-rule="nonzero">
            <g id="DATANET-MENU" transform="translate(122.1115, 37.9778)">
                <g id="pricing" transform="translate(570.7593, 215.3211)">
                    <path d="M12.0067023,9.16813844 L12.0067023,8.67097935 L16.202725,8.67097935 L16.202725,9.16813844 L12.0067023,9.16813844 Z M12.0067023,10.3116043 L12.0067023,9.81444525 L16.202725,9.81444525 L16.202725,10.3116043 L12.0067023,10.3116043 Z M12.5635204,11.6738203 L11.9172136,11.6738203 L13.7865318,6.58291116 L14.4228954,6.58291116 L16.2922136,11.6738203 L15.6459068,11.6738203 L14.1246,7.38830889 L14.0848273,7.38830889 L12.5635204,11.6738203 Z" id="Shape"></path>
                    <path d="M22.0716897,11.526093 L22.0716897,11.0999566 L25.6682806,11.0999566 L25.6682806,11.526093 L22.0716897,11.526093 Z M22.0716897,12.5062066 L22.0716897,12.0800703 L25.6682806,12.0800703 L25.6682806,12.5062066 L22.0716897,12.5062066 Z M22.5489624,13.6738203 L21.9949851,13.6738203 L23.5972578,9.31018389 L24.1427124,9.31018389 L25.7449851,13.6738203 L25.1910078,13.6738203 L23.8870306,10.0005248 L23.8529397,10.0005248 L22.5489624,13.6738203 Z" id="Shape"></path>
                    <path d="M2.79959503,11.526093 L2.79959503,11.0999566 L6.39618594,11.0999566 L6.39618594,11.526093 L2.79959503,11.526093 Z M2.79959503,12.5062066 L2.79959503,12.0800703 L6.39618594,12.0800703 L6.39618594,12.5062066 L2.79959503,12.5062066 Z M3.27686776,13.6738203 L2.72289049,13.6738203 L4.32516321,9.31018389 L4.87061776,9.31018389 L6.47289049,13.6738203 L5.91891321,13.6738203 L4.61493594,10.0005248 L4.58084503,10.0005248 L3.27686776,13.6738203 Z" id="Shape"></path>
                    <path d="M16.751867,24.3393981 L16.751867,25.0393981 L15.9133994,25.0393981 L15.9133994,24.3393981 L16.751867,24.3393981 Z M20.038292,0 L20.038,2.526 L28.4764727,2.52612937 L28.4764727,22.4997029 L20.038,22.499 L20.0383032,25.017319 L17.5903457,25.017319 L17.5903457,24.317319 L19.3373457,24.317319 L19.3383032,9.15332209 L20.0383032,9.15332209 L20.038,21.799 L27.7763032,21.7997029 L27.776,6.616 L20.038,6.616 L20.038292,8.31488251 L19.338292,8.31488251 L19.338,4.083 L9.138,4.083 L9.1382142,24.317347 L15.0749319,24.317347 L15.0749319,25.017347 L8.4382142,25.017347 L8.438,22.499 L1.22302864e-15,22.4997029 L-1.22302864e-15,2.52612937 L8.438,2.526 L8.4382142,0 L20.038292,0 Z M11.7210618,21.821754 L11.7210618,22.521754 L10.8825943,22.521754 L10.8825943,21.821754 L11.7210618,21.821754 Z M13.3979969,21.821754 L13.3979969,22.521754 L12.5595293,22.521754 L12.5595293,21.821754 L13.3979969,21.821754 Z M8.438,3.226 L0.7,3.22670289 L0.699,5.916 L2.49793021,5.91631009 L2.49793021,6.61631009 L0.699,6.616 L0.7,21.7997029 L8.438,21.799 L8.438,6.616 L3.33638655,6.61631009 L3.33638655,5.91631009 L8.438,5.916 L8.438,3.226 Z M3.33638655,19.3049875 L3.33638655,20.0049875 L2.49791903,20.0049875 L2.49791903,19.3049875 L3.33638655,19.3049875 Z M5.01332161,19.3049875 L5.01332161,20.0049875 L4.17485408,20.0049875 L4.17485408,19.3049875 L5.01332161,19.3049875 Z M17.5903345,19.3049875 L17.5903345,20.0049875 L10.8825943,20.0049875 L10.8825943,19.3049875 L17.5903345,19.3049875 Z M22.6211396,19.3049875 L22.6211396,20.0049875 L21.7826721,20.0049875 L21.7826721,19.3049875 L22.6211396,19.3049875 Z M24.2980747,19.3049875 L24.2980747,20.0049875 L23.4596072,20.0049875 L23.4596072,19.3049875 L24.2980747,19.3049875 Z M17.5903345,16.7925643 L17.5903345,17.4925643 L10.8825943,17.4925643 L10.8825943,16.7925643 L17.5903345,16.7925643 Z M6.69025666,16.789311 L6.69025666,17.489311 L2.49791903,17.489311 L2.49791903,16.789311 L6.69025666,16.789311 Z M25.9750097,16.789311 L25.9750097,17.489311 L21.7826721,17.489311 L21.7826721,16.789311 L25.9750097,16.789311 Z M17.5903345,14.2801634 L17.5903345,14.9801634 L10.8825943,14.9801634 L10.8825943,14.2801634 L17.5903345,14.2801634 Z M27.7763032,3.22670289 L20.038,3.226 L20.038,5.916 L27.776,5.916 L27.7763032,3.22670289 Z M2.42573325,4.12251694 L2.42573325,4.96098446 L1.72573325,4.96098446 L1.72573325,4.12251694 L2.42573325,4.12251694 Z M21.7640365,4.12251694 L21.7640365,4.96098446 L21.0640365,4.96098446 L21.0640365,4.12251694 L21.7640365,4.12251694 Z M19.3382142,0.700346968 L9.1382142,0.700346968 L9.138,3.383 L19.338,3.383 L19.3382142,0.700346968 Z M10.8479104,1.60711436 L10.8479104,2.44558189 L10.1479104,2.44558189 L10.1479104,1.60711436 L10.8479104,1.60711436 Z M12.5176961,1.60711436 L12.5176961,2.44558189 L11.8176961,2.44558189 L11.8176961,1.60711436 L12.5176961,1.60711436 Z" id="Combined-Shape"></path>
                </g>
            </g>
        </g>
    </g>
</svg>