<?xml version="1.0" encoding="UTF-8"?>
<svg width="21.7274117px" height="21.7274117px" viewBox="0 0 21.7274117 21.7274117" version="1.1" xmlns="http://www.w3.org/2000/svg" xmlns:xlink="http://www.w3.org/1999/xlink">
    <title>proof-of-compute</title>
    <g id="Website" stroke="none" stroke-width="1" fill="none" fill-rule="evenodd">
        <g id="Mainchain" transform="translate(-591.7527, -404.6437)" fill="#000000" fill-rule="nonzero">
            <g id="MAINCHAIN-MENU" transform="translate(129.0465, 37.9778)">
                <path d="M478.075595,366.665935 C478.26941,366.665935 478.426245,366.822863 478.426245,367.016543 L478.426245,369.519666 L478.576245,369.669666 L479.076852,369.669666 C480.374235,369.669666 481.429975,370.725418 481.429975,372.022788 L481.429975,372.523482 L481.579975,372.673482 L484.083098,372.673482 C484.276901,372.673482 484.433705,372.830397 484.433705,373.024089 C484.433705,373.217781 484.276901,373.374696 484.083098,373.374696 L481.579975,373.374696 L481.429975,373.524696 L481.429975,375.527169 L481.579975,375.677169 L484.083098,375.677169 C484.276901,375.677169 484.433705,375.834084 484.433705,376.027776 C484.433705,376.221468 484.276901,376.378384 484.083098,376.378384 L481.579927,376.37847 L481.429932,376.52847 L481.429932,378.530942 L481.579932,378.680942 L484.083055,378.680942 C484.276871,378.680942 484.433705,378.83787 484.433705,379.031549 C484.433705,379.225229 484.276871,379.382157 484.083055,379.382157 L481.579932,379.382157 L481.429932,379.532157 L481.429932,380.032764 C481.429932,380.226456 481.273128,380.383371 481.079325,380.383371 C480.885521,380.383371 480.728717,380.226456 480.728717,380.032764 L480.728717,372.022788 C480.728717,371.111924 479.987731,370.370923 479.076852,370.370923 L468.063146,370.370923 C467.152283,370.370923 466.411281,371.11191 466.411281,372.022788 L466.411281,383.036494 C466.411281,383.947358 467.152268,384.688359 468.063146,384.688359 L479.076895,384.688359 C479.987759,384.688359 480.72876,383.947373 480.72876,383.036494 L480.72876,382.035279 C480.72876,381.841588 480.885564,381.684672 481.079368,381.684672 L484.083098,381.684672 C484.276901,381.684672 484.433705,381.841588 484.433705,382.035279 C484.433705,382.228971 484.276901,382.385887 484.083098,382.385887 L481.579975,382.385887 L481.429975,382.535887 L481.429975,383.036494 C481.429975,384.333877 480.374223,385.389617 479.076852,385.389617 L478.57603,385.389617 L478.42603,385.539617 L478.42603,388.04274 C478.42603,388.236432 478.269226,388.393347 478.075422,388.393347 C477.881619,388.393347 477.724815,388.236432 477.724815,388.04274 L477.724815,385.539617 L477.574815,385.389617 L475.572343,385.389617 L475.422343,385.539617 L475.422343,388.04274 C475.422343,388.236432 475.265539,388.393347 475.071735,388.393347 C474.877932,388.393347 474.721128,388.236432 474.721128,388.04274 L474.721128,385.539617 L474.571128,385.389617 L472.568656,385.389617 L472.418656,385.539617 L472.418656,388.04274 C472.418656,388.236432 472.261852,388.393347 472.068048,388.393347 C471.874245,388.393347 471.717441,388.236432 471.717441,388.04274 L471.717441,385.539617 L471.567441,385.389617 L469.564969,385.389617 L469.414969,385.539617 L469.414969,388.04274 C469.414969,388.236432 469.258165,388.393347 469.064361,388.393347 C468.870558,388.393347 468.713754,388.236432 468.713754,388.04274 L468.713754,385.539617 L468.563754,385.389617 L468.063146,385.389617 C466.765763,385.389617 465.710024,384.333865 465.710024,383.036494 L465.710024,382.535844 L465.560024,382.385844 L463.056901,382.385844 C462.863097,382.385844 462.706294,382.228928 462.706294,382.035236 C462.706294,381.841545 462.863102,381.684616 463.056924,381.684586 L465.560024,381.684586 L465.710024,381.534586 L465.710024,379.532114 L465.560024,379.382114 L463.056901,379.382114 C462.863097,379.382114 462.706294,379.225198 462.706294,379.031506 C462.706294,378.837815 462.863102,378.680886 463.056924,378.680856 L465.560024,378.680856 L465.710024,378.530856 L465.710024,376.528384 L465.560024,376.378384 L463.056901,376.378384 C462.863097,376.378384 462.706294,376.221468 462.706294,376.027776 C462.706294,375.834085 462.863102,375.677156 463.056924,375.677126 L465.560024,375.677126 L465.710024,375.527126 L465.710024,373.524653 L465.560024,373.374653 L463.056901,373.374653 C462.863097,373.374653 462.706294,373.217738 462.706294,373.024046 C462.706294,372.830316 462.863093,372.673396 463.056901,372.673396 L465.560024,372.673396 L465.710024,372.523396 L465.710024,372.022788 C465.710024,370.725405 466.765776,369.669666 468.063146,369.669666 L468.563797,369.669666 L468.713797,369.519666 L468.713797,367.016543 C468.713797,366.822851 468.870601,366.665935 469.064404,366.665935 C469.258207,366.665935 469.415024,366.822855 469.415055,367.016566 L469.415055,369.519666 L469.565055,369.669666 L471.567527,369.669666 L471.717527,369.519666 L471.717527,367.016543 C471.717527,366.822851 471.874331,366.665935 472.068134,366.665935 C472.261937,366.665935 472.418755,366.822855 472.418785,367.016566 L472.418785,369.519666 L472.568785,369.669666 L474.571257,369.669666 L474.721257,369.519666 L474.721257,367.016543 C474.721257,366.822851 474.878061,366.665935 475.071864,366.665935 C475.265667,366.665935 475.422485,366.822855 475.422515,367.016566 L475.422515,369.519666 L475.572515,369.669666 L477.574987,369.669666 L477.724987,369.519666 L477.724987,367.016543 C477.724987,366.822851 477.881791,366.665935 478.075595,366.665935 Z M468.063146,382.685887 C468.256782,382.685887 468.413754,382.842859 468.413754,383.036494 C468.413754,383.230129 468.256782,383.387102 468.063146,383.387102 C467.869511,383.387102 467.712539,383.230129 467.712539,383.036494 C467.712539,382.842859 467.869511,382.685887 468.063146,382.685887 Z M479.076852,382.685887 C479.270487,382.685887 479.42746,382.842859 479.42746,383.036494 C479.42746,383.230129 479.270487,383.387102 479.076852,383.387102 C478.883217,383.387102 478.726245,383.230129 478.726245,383.036494 C478.726245,382.842859 478.883217,382.685887 479.076852,382.685887 Z M477.073864,372.673396 C477.819018,372.673396 478.425686,373.280087 478.425686,374.025261 L478.425686,381.033936 C478.425686,381.779115 477.819012,382.385801 477.073821,382.385801 L474.070564,382.385801 C473.87676,382.385801 473.719956,382.228885 473.719956,382.035193 C473.719956,381.841502 473.87676,381.684586 474.070564,381.684586 L477.073821,381.684586 C477.432854,381.684586 477.724428,381.392822 477.724428,381.033979 L477.724428,374.025261 C477.724428,373.666448 477.432841,373.374653 477.073821,373.374653 L475.572472,373.374653 L475.422472,373.524653 L475.422472,377.621752 L475.522096,377.76304 C476.058337,377.954237 476.42373,378.458239 476.42373,379.031506 C476.42373,379.776686 475.817056,380.383371 475.071864,380.383371 C474.326675,380.383371 473.719956,379.776689 473.719956,379.031506 C473.719956,378.458299 474.085376,377.954279 474.621652,377.76299 L474.721257,377.621709 L474.721257,373.024003 C474.721257,372.830311 474.878061,372.673396 475.071864,372.673396 Z M473.069392,372.673439 C473.263196,372.673439 473.419999,372.830354 473.419999,373.024046 C473.419999,373.217738 473.263196,373.374653 473.069392,373.374653 L470.066135,373.374653 C469.707102,373.374653 469.415528,373.666418 469.415528,374.025261 L469.415528,381.034022 C469.415528,381.39274 469.707019,381.684629 470.065662,381.684629 L471.567527,381.684629 L471.717527,381.534629 L471.717527,377.437531 L471.617903,377.296243 C471.081662,377.105046 470.716269,376.601043 470.716269,376.027776 C470.716269,375.282596 471.322943,374.675911 472.068134,374.675911 C472.813314,374.675911 473.419999,375.282584 473.419999,376.027776 C473.419999,376.601029 473.054578,377.10504 472.518322,377.296243 L472.418699,377.437531 L472.418699,382.035279 C472.418699,382.228971 472.261895,382.385887 472.068091,382.385887 L470.065619,382.385887 C469.320883,382.385887 468.71427,381.779142 468.71427,381.034022 L468.71427,374.025304 C468.71427,373.280124 469.320943,372.673439 470.066135,372.673439 Z M475.071864,378.380899 C474.712831,378.380899 474.421257,378.672663 474.421257,379.031506 C474.421257,379.390319 474.712844,379.682114 475.071864,379.682114 C475.430898,379.682114 475.722472,379.390349 475.722472,379.031506 C475.722472,378.672693 475.430885,378.380899 475.071864,378.380899 Z M472.068134,375.377169 C471.709101,375.377169 471.417527,375.668933 471.417527,376.027776 C471.417527,376.386589 471.709114,376.678384 472.068134,376.678384 C472.427168,376.678384 472.718742,376.386619 472.718742,376.027776 C472.718742,375.668963 472.427155,375.377169 472.068134,375.377169 Z M468.063146,371.672181 C468.256782,371.672181 468.413754,371.829153 468.413754,372.022788 C468.413754,372.216423 468.256782,372.373396 468.063146,372.373396 C467.869511,372.373396 467.712539,372.216423 467.712539,372.022788 C467.712539,371.829153 467.869511,371.672181 468.063146,371.672181 Z M479.076852,371.672181 C479.270487,371.672181 479.42746,371.829153 479.42746,372.022788 C479.42746,372.216423 479.270487,372.373396 479.076852,372.373396 C478.883217,372.373396 478.726245,372.216423 478.726245,372.022788 C478.726245,371.829153 478.883217,371.672181 479.076852,371.672181 Z" id="proof-of-compute"></path>
            </g>
        </g>
    </g>
</svg>