<?xml version="1.0" encoding="UTF-8"?>
<svg viewBox="0 0 181 51" version="1.1" xmlns="http://www.w3.org/2000/svg" xmlns:xlink="http://www.w3.org/1999/xlink">
    <title>quora</title>
    <g id="Logos" stroke="none" stroke-width="1" fill="none" fill-rule="evenodd">
        <path d="M166.403335,37.8565792 C164.761249,41.0126398 161.393141,43.1384658 156.680739,43.1384658 C151.209723,43.1384658 147.674392,40.2329149 147.674392,35.1207096 C147.674392,24.8325331 162.004269,27.5665952 166.212832,20.7499119 L166.212832,20.0125531 C166.212832,14.7736832 164.150483,13.9533995 161.877966,13.9533995 C155.501934,13.9533995 158.405027,20.8099186 152.533918,20.8099186 C149.714762,20.8099186 148.619966,19.1081878 148.619966,17.1933972 C148.619966,13.3210885 153.250166,10.1851264 161.942166,10.1851264 C170.168066,10.1851264 175.21983,12.4584386 175.21983,20.6447918 L175.21983,33.7118547 C175.21983,35.7314761 175.9569,36.8273566 177.724638,36.8273566 C178.481445,36.8273566 179.112599,36.616755 179.59605,36.2797779 L180.649203,38.8448815 C179.78583,40.1718237 177.491335,42.5076007 173.134997,42.5076007 C169.348722,42.5076007 166.970289,40.7399349 166.654134,37.8569407 L166.403335,37.8569407 L166.403335,37.8565792 Z M160.594691,37.8781237 C164.572481,37.8781237 166.212832,34.111658 166.212832,30.3261059 L166.212832,25.2735459 C163.309739,28.2811081 156.553352,28.3869512 156.553352,33.7531364 C156.553352,36.3835243 158.112151,37.8781237 160.59433,37.8781237 L160.594691,37.8781237 Z M119.055918,42.5072392 L119.055918,38.5304611 L120.381848,38.5304611 C123.665297,38.5304611 123.980729,37.5838742 123.980729,34.7431738 L123.980729,17.4439069 C123.980729,15.739718 123.096896,14.9829112 121.077275,14.9829112 L119.309609,14.9829112 L119.309609,11.0064946 L131.787088,11.0064946 L132.418676,17.5091913 L132.672367,17.5091913 C134.061485,12.835613 137.785585,10.3735329 141.277899,10.3735329 C144.160532,10.3735329 146.411577,12.0156185 146.411577,15.3414329 C146.411577,17.655593 145.298779,20.1187576 142.183638,20.1187576 C139.383569,20.1187576 138.838087,18.2237042 136.522119,18.2237042 C134.460855,18.2237042 132.860412,20.1818731 132.860412,23.0631322 L132.860412,34.7431738 C132.860412,37.5835128 133.555477,38.5304611 136.77581,38.5304611 L138.605941,38.5304611 L138.605941,42.5072392 L119.055557,42.5072392 L119.055918,42.5072392 Z M101.981062,43.1388273 C93.2273203,43.1388273 85.3341322,36.4456276 85.3341322,26.4728836 C85.3341322,16.6871001 93.0371788,10.1847649 101.9807,10.1847649 C111.303565,10.1847649 118.774032,16.8120296 118.774032,26.4728836 C118.774032,36.4456276 111.303565,43.1388273 101.981062,43.1388273 L101.981062,43.1388273 Z M101.981062,39.1627721 C106.821502,39.1627721 108.660453,34.9517512 108.757186,26.4728836 C108.851028,18.1792414 106.821502,14.1643627 101.981062,14.1643627 C97.7520387,14.1643627 95.1001062,18.1813381 95.1001062,26.4728836 C95.1001062,34.9534863 97.7085881,39.1627721 101.981062,39.1627721 L101.981062,39.1627721 Z M51.4038411,32.4074691 L51.4038411,17.4439069 C51.4038411,15.739718 50.7740605,14.9829112 48.8169038,14.9829112 L46.7330824,14.9829112 L46.7330824,11.0062054 L60.347724,11.0062054 L60.347724,32.2187012 C60.347724,35.7946639 62.2833362,37.3714652 65.2309641,37.3714652 C67.6495936,37.3714652 70.0693076,36.3013224 71.3744162,33.8579673 L71.3744162,17.4439069 C71.3744162,15.7394288 70.7428281,14.9825498 68.7867558,14.9825498 L66.5773543,14.9825498 L66.5773543,11.0062054 L80.3193836,11.0062054 L80.3193836,33.2260177 C80.3193836,35.4389618 81.1393781,36.4477242 83.6642121,36.4477242 L84.1066708,36.4477242 L84.1066708,40.551167 L71.8172363,42.5076007 L71.8172363,38.2785777 L71.5641962,38.2785777 C69.1868484,41.1805862 65.8412968,43.1388273 61.0639721,43.1388273 C55.6974255,43.1388273 51.4034796,40.4255145 51.4034796,32.4074691 L51.4038411,32.4074691 Z M27.7973691,43.5110131 C25.9612378,44.0032123 24.0100818,44.2749051 22.0751926,44.2749051 C10.9211129,44.2749051 -2.53482071e-05,35.3747619 -2.53482071e-05,22.4311826 C-2.53482071e-05,9.36411976 10.9211129,0.462169181 22.0751926,0.462169181 C33.416522,0.462169181 44.2329017,9.30057055 44.2329017,22.4308211 C44.2329017,29.7344259 40.8245962,35.6697344 35.871517,39.5060391 C37.4719595,41.9039194 39.1196843,43.4965537 41.4138181,43.4965537 C43.9174691,43.4965537 44.927316,41.5616645 45.0962745,40.0441469 L48.3571661,40.0441469 C48.5476691,42.0647806 47.5368101,50.4621692 38.4238963,50.4621692 C32.9042243,50.4621692 29.985949,47.2630194 27.7973691,43.5110131 Z M25.720922,39.4499365 C23.9885372,36.0401851 21.9562638,32.5962371 17.9918484,32.5962371 C17.2339572,32.5962371 16.4771504,32.7214558 15.7824469,33.0386957 L14.4356952,30.3430234 C16.0766964,28.9352529 18.7289181,27.8189123 22.1375851,27.8189123 C27.4406548,27.8189123 30.1620649,30.3733883 32.3227381,33.6339183 C33.6052899,30.8500435 34.214972,27.0906629 34.214972,22.4308211 C34.214972,10.794447 30.5758939,4.81930274 22.0751926,4.81930274 C13.6986256,4.81930274 10.0792846,10.794447 10.0792846,22.4308211 C10.0792846,34.0061042 13.6986256,39.9195789 22.0754818,39.9195789 C23.4067619,39.9195789 24.6123895,39.7731771 25.720922,39.4499365 Z" id="quora" fill="#231F20"></path>
    </g>
</svg>