<?xml version="1.0" encoding="UTF-8"?>
<svg width="140px" height="39px" viewBox="0 0 140 39" version="1.1" xmlns="http://www.w3.org/2000/svg" xmlns:xlink="http://www.w3.org/1999/xlink">
    <title>reddit</title>
    <g id="Logos" stroke="none" stroke-width="1" fill="none" fill-rule="evenodd">
        <path d="M18.9999575,0.867968266 C29.4933604,0.867968266 37.9999575,9.37456533 37.9999575,19.8679683 C37.9999575,30.3613712 29.4933604,38.8679683 18.9999575,38.8679683 C8.50655457,38.8679683 -4.24995869e-05,30.3613712 -4.24995869e-05,19.8679683 C-4.24995869e-05,9.37456533 8.50655457,0.867968266 18.9999575,0.867968266 Z M20.5537731,8.46230085 C20.2373425,8.3914582 19.920912,8.58981763 19.8500694,8.910971 L19.8500694,8.910971 L19.8500694,8.92041669 L18.4473848,15.5135064 C15.8025924,15.556012 13.2286426,16.3683411 11.0372431,17.851314 C9.92265201,16.8028427 8.16575417,16.854794 7.11728288,17.974108 C6.06881159,19.0886991 6.12076287,20.8455969 7.24007681,21.8940682 C7.45732762,22.0971505 7.70763834,22.2718957 7.98628611,22.3946896 C7.96739474,22.6733374 7.96739474,22.9519852 7.98628611,23.2306329 C7.98628611,27.4859151 12.9452719,30.9477595 19.0613545,30.9477595 C25.177437,30.9477595 30.1364228,27.4906379 30.1364228,23.2306329 C30.1553142,22.9519852 30.1553142,22.6733374 30.1364228,22.3946896 C31.0904372,21.9176824 31.6902384,20.9353309 31.671347,19.8679683 C31.6146729,18.3377669 30.3300594,17.1428875 28.7951352,17.1948388 C28.1150457,17.218453 27.4680162,17.4971008 26.9768404,17.9646623 C24.813778,16.4911351 22.2728881,15.6835288 19.6611556,15.6268547 L19.6611556,15.6268547 L20.8938178,9.69968589 L24.9601862,10.5545206 C25.0735344,11.598269 26.0086575,12.353924 27.0524059,12.2405758 C28.0961544,12.1272275 28.8518094,11.1921045 28.7384611,10.148356 C28.6251129,9.10460759 27.6899898,8.34895261 26.6462414,8.46230085 C26.0464402,8.52369782 25.508036,8.87318825 25.2104969,9.39270105 L25.2104969,9.39270105 Z M14.3904668,26.2721443 C14.5793806,26.1162904 14.8485827,26.1162904 15.0422192,26.2721443 C16.1851474,27.1080876 17.5783863,27.5331435 18.9952394,27.4670237 C20.4120925,27.5425892 21.8100542,27.1364246 22.9671509,26.309927 C23.174956,26.1068447 23.5150008,26.1115676 23.718083,26.3193727 C23.9211653,26.5271778 23.9164425,26.8672226 23.7086373,27.0703048 L23.7086373,27.0703048 L23.7086373,26.9947393 C22.3579041,28.0101507 20.7049088,28.5296635 19.0141308,28.4588209 C17.3233527,28.5296635 15.6703575,28.0101507 14.3196242,26.9947393 C14.1401561,26.7774885 14.173216,26.4516123 14.3904668,26.2721443 Z M23.3685926,19.9340881 C24.4170639,19.9340881 25.2718986,20.7889228 25.2718986,21.8373941 C25.3144042,22.8858654 24.4973522,23.7690371 23.4488809,23.8115427 L23.4488809,23.8115427 L23.3544241,23.8115427 L23.3685926,23.7407001 C22.3201213,23.7407001 21.4652866,22.8858654 21.4652866,21.8373941 C21.4652866,20.7889228 22.3201213,19.9340881 23.3685926,19.9340881 Z M14.5746577,19.8679683 C15.623129,19.8679683 16.4779637,20.722803 16.4779637,21.7712743 C16.4779637,22.8197455 15.623129,23.6745802 14.5746577,23.6745802 C13.5214636,23.6651346 12.6713517,22.8197455 12.6713517,21.7712743 C12.6713517,20.722803 13.5261864,19.8679683 14.5746577,19.8679683 Z M124.479208,5.4322238 C126.359956,5.4322238 127.884627,6.95689444 127.884627,8.83764264 C127.884627,10.7183908 126.359956,12.2430615 124.479208,12.2430615 C122.59846,12.2430615 121.073789,10.7183908 121.073789,8.83764264 C121.073789,6.95689444 122.59846,5.4322238 124.479208,5.4322238 M69.7439297,11.8204913 C74.1249886,11.9944908 77.8100495,15.1699817 78.6179043,19.4826837 C78.7111183,19.9363252 78.7670467,20.4023953 78.7856895,20.8622511 C78.7856895,20.9430366 78.7856895,21.0300364 78.7794753,21.1046076 C78.680047,22.4282467 77.5366217,23.4225295 76.2191969,23.3293155 L76.2191969,23.3293155 L76.1446257,23.3044584 L64.5177303,23.3044584 C64.7911581,26.0573792 66.991009,28.2075159 69.7377154,28.4250152 C71.328568,28.3753011 72.8386351,27.7352315 73.9634176,26.6166633 C74.6469871,25.9579509 75.6971984,25.8523083 76.5050532,26.355664 C76.5671959,26.3991639 76.6231243,26.448878 76.685267,26.5048064 C77.4931218,27.2443043 77.5552645,28.4933722 76.8157666,29.301227 C75.0136289,31.2835785 72.4160649,32.3648611 69.7377154,32.2592186 C64.6855155,32.2592186 60.5840987,27.6668746 60.5840987,22.0367478 C60.5840987,16.406621 64.7538725,11.8204913 69.7439297,11.8204913 Z M52.2632001,14.4242695 C53.9472667,12.4357038 56.5572593,11.4849208 59.1237519,11.9137053 C60.0745349,12.0317764 60.7829615,12.8458455 60.7829615,13.8028427 C60.7829615,14.8033399 60.0186065,15.6298375 59.0243236,15.7168373 L59.0243236,15.7168373 L58.639039,15.7168373 C58.3531827,15.6857659 58.0611121,15.6795517 57.7752558,15.6981945 C54.556265,15.872194 52.0892006,18.6126861 52.2569858,21.8316769 L52.2569858,21.8316769 L52.2569858,29.8977968 C52.2632001,29.972368 52.2632001,30.0469392 52.2569858,30.1215104 C52.1886289,31.1717217 51.2689172,31.967148 50.2187059,31.8925768 C49.1871375,31.805577 48.3979254,30.9293652 48.4227825,29.8977968 L48.4227825,29.8977968 L48.4227825,14.1756988 C48.4227825,13.113059 49.2803515,12.25549 50.3429913,12.25549 C51.4056311,12.25549 52.2632001,13.113059 52.2632001,14.1756988 L52.2632001,14.1756988 Z M69.7190726,15.6671231 C67.2955081,15.8224798 65.275871,17.5500463 64.741444,19.9238967 L64.741444,19.9238967 L74.7091298,19.9238967 C74.1684884,17.5562606 72.1364228,15.8286941 69.7190726,15.6671231 Z M126.393203,15.8659797 C126.393203,14.8033399 125.535634,13.9457709 124.472994,13.9457709 C123.410354,13.9457709 122.552785,14.8033399 122.552785,15.8659797 L122.552785,29.8915825 C122.552785,30.9542223 123.410354,31.8117913 124.472994,31.8117913 C125.535634,31.8117913 126.393203,30.9542223 126.393203,29.8915825 L126.393203,15.8659797 Z M89.3126657,28.4747294 C86.3733169,28.4747294 83.9808238,25.6161661 83.9808238,22.0802477 C83.9808238,18.5443292 86.3546741,15.6857659 89.3126657,15.6857659 C92.2706572,15.6857659 94.6445076,18.5443292 94.6445076,22.0802477 C94.6445076,25.6161661 92.2706572,28.443658 89.3250942,28.443658 L89.3126657,28.4747294 Z M98.0561407,5.20851015 C98.0561407,4.1520846 97.1985717,3.29451562 96.1421462,3.29451562 C95.0857206,3.29451562 94.2281516,4.1520846 94.2281516,5.20851015 L94.2281516,13.7841999 C92.9355839,12.4792037 91.1583033,11.7707771 89.3250942,11.8204913 C84.335037,11.8204913 80.1652632,16.406621 80.1652632,22.0367478 C80.1652632,27.6668746 84.2728944,32.2592186 89.3250942,32.2592186 C91.1893746,32.315147 92.9915123,31.6005062 94.3151514,30.2768671 C94.6134362,31.2897928 95.6760761,31.8677197 96.6890017,31.5694348 C97.4533567,31.3457212 98.0002123,30.6745802 98.0499264,29.8729397 L98.0561407,5.20851015 Z M109.341245,28.4747294 C106.401896,28.4747294 104.009403,25.6161661 104.009403,22.0802477 C104.009403,18.5443292 106.383254,15.6857659 109.341245,15.6857659 C112.299237,15.6857659 114.673087,18.5443292 114.673087,22.0802477 C114.673087,25.6161661 112.299237,28.443658 109.353674,28.443658 L109.341245,28.4747294 Z M118.078506,5.20851015 C118.078506,4.1520846 117.220937,3.29451562 116.164511,3.29451562 C115.108086,3.29451562 114.250517,4.1520846 114.250517,5.20851015 L114.250517,13.7841999 C112.957949,12.4792037 111.180668,11.7707771 109.347459,11.8204913 C104.357402,11.8204913 100.187628,16.406621 100.187628,22.0367478 C100.187628,27.6668746 104.29526,32.2592186 109.347459,32.2592186 C111.21174,32.315147 113.013877,31.6005062 114.337517,30.2768671 C114.635801,31.2897928 115.698441,31.8677197 116.711367,31.5694348 C117.475722,31.3457212 118.022577,30.6745802 118.072292,29.8729397 L118.078506,5.20851015 Z M136.342239,29.8853682 L136.342239,15.6671231 L138.001449,15.6671231 C138.921161,15.7230515 139.704158,15.0208393 139.760087,14.1073419 C139.760087,14.0762705 139.766301,14.0389849 139.766301,14.0016993 C139.847087,13.0882019 139.169731,12.2803471 138.262448,12.1995616 C138.212734,12.1933473 138.156806,12.1933473 138.107091,12.1933473 L136.348454,12.1933473 L136.348454,9.55228345 C136.360882,8.52692924 135.577884,7.66314599 134.55253,7.56993197 C133.502319,7.49536076 132.588822,8.29078706 132.51425,9.34099834 C132.508036,9.38449822 132.508036,9.43421236 132.508036,9.47771224 L132.508036,12.2368472 L130.842612,12.2368472 C129.922901,12.1809188 129.139903,12.8831311 129.083974,13.7966285 C129.083974,13.8276998 129.07776,13.8649854 129.07776,13.902271 C128.996975,14.8157684 129.67433,15.6236232 130.581613,15.7044087 C130.631327,15.710623 130.687256,15.710623 130.73697,15.710623 L132.396179,15.710623 L132.396179,29.8915825 C132.396179,30.948008 133.253748,31.805577 134.310174,31.805577 C135.366599,31.873934 136.267668,31.0660791 136.336025,30.0096536 C136.342239,29.972368 136.342239,29.9288681 136.342239,29.8853682" id="reddit" fill="#231F20"></path>
    </g>
</svg>