<?xml version="1.0" encoding="UTF-8"?>
<svg viewBox="0 0 34 34" version="1.1" xmlns="http://www.w3.org/2000/svg" xmlns:xlink="http://www.w3.org/1999/xlink">
    <title>runner</title>
    <g id="Products" stroke="none" stroke-width="1" fill="none" fill-rule="evenodd">
        <g id="Homepage-Copy" transform="translate(-539.000000, -149.000000)" fill="#B700C0" fill-rule="nonzero">
            <g id="TOOLS-MENU" transform="translate(71.111533, 37.977778)">
                <path d="M488.250578,117.441219 C488.718523,117.440843 489.17762,117.568734 489.577973,117.810995 L491.844027,119.171575 C492.418974,119.512659 492.827792,120.075772 492.974046,120.728085 C493.082658,121.212508 493.039328,121.71427 492.856542,122.167318 L495.423254,124.708711 L498.988259,124.708711 C500.080055,124.708711 500.96513,125.593786 500.96513,126.685582 C500.96513,127.777377 500.080055,128.662453 498.988259,128.662453 L498.988259,128.657712 L494.351856,128.657712 C493.851486,128.656038 493.372932,128.452653 493.024461,128.093569 L490.57913,125.648215 L488.350132,128.965857 L491.606992,132.033089 C491.901837,132.29668 492.073608,132.67114 492.081062,133.066561 L492.13321,142.073888 C492.149058,143.235392 491.222951,144.191168 490.061524,144.211943 L489.985673,144.211943 C488.822725,144.206751 487.881254,143.265281 487.876063,142.102332 L487.876063,135.147728 C487.875077,134.999201 487.811368,134.858008 487.700657,134.758991 L485.13313,132.477215 L481.836413,136.574678 C481.740928,136.692806 481.594621,136.758027 481.442935,136.750084 L473.976336,136.750084 C473.225456,136.786326 472.515573,136.406363 472.129279,135.761452 C471.742985,135.116541 471.742985,134.311367 472.129279,133.666456 C472.515573,133.021545 473.225456,132.641582 473.976336,132.677824 L479.342806,132.677824 L482.166017,129.190597 C481.773077,128.056914 481.922603,126.762582 482.661295,125.72322 L485.505713,121.660442 L481.940708,121.352296 C481.867275,121.34682 481.79495,121.372651 481.741599,121.423407 L478.589035,124.604415 C478.255295,124.946719 477.796591,125.138416 477.318528,125.135373 C476.591261,125.136217 475.93561,124.697425 475.659069,124.024786 C475.382528,123.352148 475.539949,122.579078 476.057502,122.068142 L480.290945,117.91529 C480.586845,117.613155 480.991596,117.442374 481.414491,117.441219 L488.250578,117.441219 Z M488.245837,118.427285 L481.40975,118.427285 C481.232263,118.421993 481.060555,118.490676 480.93568,118.616913 L476.716459,122.774506 C476.388666,123.105269 476.388666,123.638399 476.716459,123.969162 C476.876132,124.128504 477.092956,124.217282 477.318528,124.215678 C477.548415,124.210391 477.76606,124.110995 477.920596,123.940717 L481.073161,120.759709 C481.295662,120.530373 481.60222,120.401927 481.921746,120.404157 L482.030782,120.404157 L486.425409,120.778672 C486.59564,120.792712 486.745157,120.897243 486.816798,121.052302 C486.88844,121.207361 486.871127,121.388971 486.77148,121.527702 L483.415066,126.2684 C482.876805,127.019178 482.749359,127.948974 483.001258,128.778716 L483.06413,128.964215 L483.075149,128.975861 C483.134939,129.048044 483.170608,129.134799 483.180913,129.224431 C483.338797,129.546341 483.562199,129.842691 483.846469,130.094144 L485.309085,131.391183 C485.32879,131.402732 485.347894,131.415846 485.366233,131.43054 C485.397538,131.455625 485.424837,131.483894 485.448024,131.514521 L488.316948,134.066849 C488.62273,134.348413 488.794976,134.746299 488.791017,135.16195 L488.791017,142.116554 C488.798267,142.434379 488.933917,142.735721 489.167037,142.951871 C489.400156,143.16802 489.710873,143.28055 490.02834,143.263803 C490.66237,143.245731 491.16465,142.722347 491.156626,142.08811 L491.104478,133.080783 C491.103874,132.946669 491.049177,132.818472 490.952776,132.725231 L487.401993,129.406742 C487.233733,129.248753 487.203708,128.992544 487.330882,128.799933 L490.106873,124.669483 C490.115947,124.654288 490.125891,124.639571 490.13667,124.625411 L491.825064,122.120289 C492.04988,121.782304 492.126416,121.366974 492.036841,120.971054 C491.947266,120.575134 491.699403,120.233197 491.350994,120.024901 L489.084941,118.66432 C488.83273,118.508802 488.542141,118.426715 488.245837,118.427285 Z M482.637384,130.117321 L479.91169,133.450558 C479.821318,133.56196 479.685363,133.626452 479.541915,133.625964 L473.976336,133.625964 C473.570493,133.59916 473.183467,133.800468 472.97241,134.148149 C472.761354,134.495829 472.761354,134.932079 472.97241,135.279759 C473.183467,135.62744 473.570493,135.828748 473.976336,135.801944 L481.239085,135.801944 L484.42313,131.846215 L483.230178,130.786286 C483.002741,130.583103 482.80493,130.358219 482.637384,130.117321 Z M475.550247,129.515778 C475.812069,129.515778 476.024317,129.728027 476.024317,129.989848 C476.024317,130.25167 475.812069,130.463918 475.550247,130.463918 L470.634143,130.463918 C470.372322,130.463918 470.160073,130.25167 470.160073,129.989848 C470.160073,129.728027 470.372322,129.515778 470.634143,129.515778 L475.550247,129.515778 Z M469.017565,129.515778 C469.279387,129.515778 469.491635,129.728027 469.491635,129.989848 C469.491635,130.25167 469.279387,130.463918 469.017565,130.463918 L468.543495,130.463918 C468.281674,130.463918 468.069426,130.25167 468.069426,129.989848 C468.069426,129.728027 468.281674,129.515778 468.543495,129.515778 L469.017565,129.515778 Z M492.36313,122.993215 L491.11813,124.845215 L493.716603,127.444093 C493.888493,127.620483 494.124528,127.719686 494.370819,127.719054 L499.007222,127.719054 C499.278996,127.717006 499.538584,127.605998 499.727808,127.410908 C500.027999,127.119579 500.120803,126.674947 499.962212,126.287859 C499.803621,125.900772 499.425526,125.649069 499.007222,125.652109 L495.451698,125.652109 C495.195973,125.651082 494.951507,125.546799 494.773778,125.362927 L492.36313,122.993215 Z M476.972457,126.301585 C477.234278,126.301585 477.446527,126.513833 477.446527,126.775655 C477.446527,127.037476 477.234278,127.249725 476.972457,127.249725 L472.056353,127.249725 C471.794531,127.249725 471.582283,127.037476 471.582283,126.775655 C471.582283,126.513833 471.794531,126.301585 472.056353,126.301585 L476.972457,126.301585 Z M479.044142,126.301585 C479.305963,126.301585 479.518212,126.513833 479.518212,126.775655 C479.518212,127.037476 479.305963,127.249725 479.044142,127.249725 L478.570072,127.249725 C478.308251,127.249725 478.096002,127.037476 478.096002,126.775655 C478.096002,126.513833 478.308251,126.301585 478.570072,126.301585 L479.044142,126.301585 Z M475.426989,118.043289 C475.688811,118.043289 475.901059,118.255537 475.901059,118.517359 C475.901059,118.77918 475.688811,118.991429 475.426989,118.991429 L474.952919,118.991429 C474.691098,118.991429 474.47885,118.77918 474.47885,118.517359 C474.47885,118.255537 474.691098,118.043289 474.952919,118.043289 L475.426989,118.043289 Z M473.336341,118.043289 C473.598163,118.043289 473.810411,118.255537 473.810411,118.517359 C473.810411,118.77918 473.598163,118.991429 473.336341,118.991429 L468.4392,118.991429 C468.177379,118.991429 467.96513,118.77918 467.96513,118.517359 C467.96513,118.255537 468.177379,118.043289 468.4392,118.043289 L473.336341,118.043289 Z M495.057955,111.29243 C496.379907,111.841038 497.240859,113.13235 497.238945,114.563616 C497.23633,116.513104 495.656609,118.092825 493.707121,118.09544 C492.275855,118.097354 490.984543,117.236402 490.435935,115.91445 C489.887327,114.592499 490.189599,113.070212 491.201658,112.058153 C492.213717,111.046094 493.736003,110.743822 495.057955,111.29243 Z M493.707121,111.975191 C492.659773,111.973277 491.714487,112.602708 491.312355,113.569781 C490.910222,114.536855 491.130505,115.650957 491.870414,116.392224 C492.610323,117.13349 493.72402,117.355815 494.691828,116.955456 C495.659637,116.555097 496.290802,115.610966 496.290802,114.563616 C496.288203,113.136998 495.133733,111.980409 493.707121,111.975191 Z M478.551109,115.094575 C478.812931,115.094575 479.025179,115.306823 479.025179,115.568644 C479.025179,115.830466 478.812931,116.042714 478.551109,116.042714 L473.653968,116.042714 C473.392147,116.042714 473.179898,115.830466 473.179898,115.568644 C473.179898,115.306823 473.392147,115.094575 473.653968,115.094575 L478.551109,115.094575 Z M472.03739,115.094575 C472.299212,115.094575 472.51146,115.306823 472.51146,115.568644 C472.51146,115.830466 472.299212,116.042714 472.03739,116.042714 L471.56332,116.042714 C471.301499,116.042714 471.08925,115.830466 471.08925,115.568644 C471.08925,115.306823 471.301499,115.094575 471.56332,115.094575 L472.03739,115.094575 Z" id="runner"></path>
            </g>
        </g>
    </g>
</svg>