<?xml version="1.0" encoding="UTF-8"?>
<svg width="99px" height="99px" viewBox="0 0 99 99" version="1.1" xmlns="http://www.w3.org/2000/svg" xmlns:xlink="http://www.w3.org/1999/xlink">
    <title>scalable</title>
    <g id="Products" stroke="none" stroke-width="1" fill="none" fill-rule="evenodd">
        <g id="Homepage-Copy" transform="translate(-1120.000000, -997.000000)" fill="#FFFFFF" fill-rule="nonzero">
            <path d="M1177.44049,1046.81119 C1179.69568,1046.81119 1181.52387,1048.63938 1181.52387,1050.89457 L1181.52387,1050.89457 L1181.52387,1063.1447 C1181.52387,1065.39988 1179.69568,1067.22807 1177.44049,1067.22807 L1177.44049,1067.22807 L1177.44049,1071.31145 C1179.69568,1071.31145 1181.52387,1073.13964 1181.52387,1075.39482 L1181.52387,1075.39482 L1181.52387,1087.64495 C1181.52387,1089.90013 1179.69568,1091.72832 1177.44049,1091.72832 L1177.44049,1091.72832 L1128.43999,1091.72832 C1126.1848,1091.72832 1124.35661,1089.90013 1124.35661,1087.64495 L1124.35661,1087.64495 L1124.35661,1075.39482 C1124.35661,1073.13964 1126.1848,1071.31145 1128.43999,1071.31145 L1128.43999,1071.31145 L1128.43999,1067.22807 C1126.1848,1067.22807 1124.35661,1065.39988 1124.35661,1063.1447 L1124.35661,1063.1447 L1124.35661,1050.89457 C1124.35661,1048.63938 1126.1848,1046.81119 1128.43999,1046.81119 L1128.43999,1046.81119 Z M1177.44049,1075.39482 L1128.43999,1075.39482 L1128.43999,1087.64495 L1177.44049,1087.64495 L1177.44049,1075.39482 Z M1138.64842,1079.4782 C1139.77602,1079.4782 1140.69011,1080.39229 1140.69011,1081.51989 C1140.69011,1082.64748 1139.77602,1083.56157 1138.64842,1083.56157 L1138.64842,1083.56157 L1134.56505,1083.56157 C1133.43746,1083.56157 1132.52336,1082.64748 1132.52336,1081.51989 C1132.52336,1080.39229 1133.43746,1079.4782 1134.56505,1079.4782 L1134.56505,1079.4782 Z M1171.31543,1079.4782 C1172.44302,1079.4782 1173.35711,1080.39229 1173.35711,1081.51989 C1173.35711,1082.64748 1172.44302,1083.56157 1171.31543,1083.56157 C1170.18783,1083.56157 1169.27374,1082.64748 1169.27374,1081.51989 C1169.27374,1080.39229 1170.18783,1079.4782 1171.31543,1079.4782 Z M1173.35711,1067.22807 L1132.52336,1067.22807 L1132.52336,1071.31145 L1173.35711,1071.31145 L1173.35711,1067.22807 Z M1177.44049,1050.89457 L1128.43999,1050.89457 L1128.43999,1063.1447 L1177.44049,1063.1447 L1177.44049,1050.89457 Z M1138.64842,1054.97795 C1139.77602,1054.97795 1140.69011,1055.89204 1140.69011,1057.01963 C1140.69011,1058.14723 1139.77602,1059.06132 1138.64842,1059.06132 L1138.64842,1059.06132 L1134.56505,1059.06132 C1133.43746,1059.06132 1132.52336,1058.14723 1132.52336,1057.01963 C1132.52336,1055.89204 1133.43746,1054.97795 1134.56505,1054.97795 L1134.56505,1054.97795 Z M1171.31543,1054.97795 C1172.44302,1054.97795 1173.35711,1055.89204 1173.35711,1057.01963 C1173.35711,1058.14723 1172.44302,1059.06132 1171.31543,1059.06132 C1170.18783,1059.06132 1169.27374,1058.14723 1169.27374,1057.01963 C1169.27374,1055.89204 1170.18783,1054.97795 1171.31543,1054.97795 Z M1130.48167,997.924575 C1131.10091,997.924575 1131.68668,998.205611 1132.07419,998.688616 C1140.85345,1009.55039 1141.20053,1009.42789 1140.48594,1010.93874 C1139.77135,1012.44959 1137.97467,1012.1025 1136.60674,1012.1025 L1136.60674,1012.1025 L1136.60674,1040.68613 C1136.60674,1041.81372 1135.69264,1042.72782 1134.56505,1042.72782 L1134.56505,1042.72782 L1126.3983,1042.72782 C1125.2707,1042.72782 1124.35661,1041.81372 1124.35661,1040.68613 L1124.35661,1040.68613 L1124.35661,1012.1025 L1122.31492,1012.1025 C1121.57047,1012.07191 1120.9018,1011.63821 1120.57029,1010.97095 C1120.23878,1010.30368 1120.29708,1009.50881 1120.72241,1008.89705 L1120.72241,1008.89705 L1128.88916,998.688616 C1129.27666,998.205611 1129.86244,997.924575 1130.48167,997.924575 Z M1130.48167,1003.11908 L1126.56163,1008.01913 C1127.62499,1008.10447 1128.4434,1008.99405 1128.43999,1010.06082 L1128.43999,1010.06082 L1128.43999,1038.64444 L1132.52336,1038.64444 L1132.52336,1010.06082 C1132.51994,1008.99405 1133.33836,1008.10447 1134.40171,1008.01913 L1134.40171,1008.01913 L1130.48167,1003.11908 Z M1146.81517,1020.26925 C1147.94277,1020.26925 1148.85686,1021.18335 1148.85686,1022.31094 C1148.85686,1023.43854 1147.94277,1024.35263 1146.81517,1024.35263 L1146.81517,1024.35263 L1142.7318,1024.35263 C1141.60421,1024.35263 1140.69011,1023.43854 1140.69011,1022.31094 C1140.69011,1021.18335 1141.60421,1020.26925 1142.7318,1020.26925 L1142.7318,1020.26925 Z M1144.77349,997.81069 C1145.90108,997.81069 1146.81517,998.724785 1146.81517,999.852378 C1146.81517,1000.97997 1145.90108,1001.89407 1144.77349,1001.89407 L1144.77349,1001.89407 L1140.69011,1001.89407 C1139.56252,1001.89407 1138.64842,1000.97997 1138.64842,999.852378 C1138.64842,998.724785 1139.56252,997.81069 1140.69011,997.81069 L1140.69011,997.81069 Z M1205.14281,1075.58786 C1205.85416,1075.24746 1206.69796,1075.34717 1207.31038,1075.84399 C1210.92991,1078.74489 1213.35509,1080.65156 1214.97983,1081.9483 L1215.56963,1082.42062 C1216.58074,1083.23372 1217.21432,1083.76462 1217.61117,1084.15065 L1217.71364,1084.25245 C1218.00407,1084.54768 1218.1446,1084.7543 1218.21234,1084.94755 L1218.23233,1085.01157 C1218.25567,1085.09655 1218.26632,1085.18054 1218.27106,1085.27014 L1218.27362,1085.33849 C1218.27389,1085.3501 1218.2741,1085.36181 1218.27426,1085.37366 L1218.27425,1085.72402 C1218.27388,1085.85307 1218.2709,1085.96633 1218.25209,1086.07674 L1218.2388,1086.14276 C1218.03348,1087.02113 1216.64627,1087.8835 1207.31038,1095.36253 C1206.69642,1095.85429 1205.85455,1095.94959 1205.14619,1095.60753 C1204.04211,1095.08533 1203.93021,1094.00707 1203.94999,1092.91455 L1203.9596,1092.56971 C1203.96959,1092.28299 1203.98243,1091.99924 1203.98243,1091.72832 L1203.98243,1091.72832 L1187.64893,1091.72832 C1186.52134,1091.72832 1185.60724,1090.81423 1185.60724,1089.68664 L1185.60724,1089.68664 L1185.60724,1081.51989 C1185.60724,1080.39229 1186.52134,1079.4782 1187.64893,1079.4782 L1187.64893,1079.4782 L1203.98243,1079.4782 L1203.98243,1077.43651 C1203.97974,1076.64791 1204.43145,1075.92827 1205.14281,1075.58786 Z M1208.06581,1081.68322 C1207.98047,1082.74658 1207.09089,1083.56499 1206.02412,1083.56157 L1206.02412,1083.56157 L1189.69062,1083.56157 L1189.69062,1087.64495 L1206.02412,1087.64495 C1207.09089,1087.64153 1207.98047,1088.45995 1208.06581,1089.5233 L1208.06581,1089.5233 L1212.96586,1085.60326 Z M1216.23256,1069.26976 C1217.36015,1069.26976 1218.27424,1070.18385 1218.27424,1071.31145 L1218.27424,1071.31145 L1218.27424,1075.39482 C1218.27424,1076.52242 1217.36015,1077.43651 1216.23256,1077.43651 C1215.10496,1077.43651 1214.19087,1076.52242 1214.19087,1075.39482 L1214.19087,1075.39482 L1214.19087,1071.31145 C1214.19087,1070.18385 1215.10496,1069.26976 1216.23256,1069.26976 Z M1193.77399,1067.22807 C1194.90158,1067.22807 1195.81568,1068.14217 1195.81568,1069.26976 L1195.81568,1069.26976 L1195.81568,1073.35313 C1195.81568,1074.48073 1194.90158,1075.39482 1193.77399,1075.39482 C1192.6464,1075.39482 1191.7323,1074.48073 1191.7323,1073.35313 L1191.7323,1073.35313 L1191.7323,1069.26976 C1191.7323,1068.14217 1192.6464,1067.22807 1193.77399,1067.22807 Z M1154.98193,1020.26925 C1153.85433,1020.26925 1152.94024,1021.18335 1152.94024,1022.31094 C1152.94024,1023.43854 1153.85433,1024.35263 1154.98193,1024.35263 L1159.0653,1024.35263 C1160.19289,1024.35263 1161.10699,1023.43854 1161.10699,1022.31094 C1161.10699,1021.18335 1160.19289,1020.26925 1159.0653,1020.26925 L1154.98193,1020.26925 Z M1167.23205,1020.26925 C1166.10446,1020.26925 1165.19036,1021.18335 1165.19036,1022.31094 C1165.19036,1023.43854 1166.10446,1024.35263 1167.23205,1024.35263 L1171.31543,1024.35263 C1172.44302,1024.35263 1173.35711,1023.43854 1173.35711,1022.31094 C1173.35711,1021.18335 1172.44302,1020.26925 1171.31543,1020.26925 L1167.23205,1020.26925 Z M1183.56555,1020.26925 L1179.48218,1020.26925 C1178.35458,1020.26925 1177.44049,1021.18335 1177.44049,1022.31094 C1177.44049,1023.43854 1178.35458,1024.35263 1179.48218,1024.35263 L1183.56555,1024.35263 C1184.69315,1024.35263 1185.60724,1023.43854 1185.60724,1022.31094 C1185.60724,1021.18335 1184.69315,1020.26925 1183.56555,1020.26925 Z M1195.81568,1057.01963 C1195.81568,1055.89204 1194.90158,1054.97795 1193.77399,1054.97795 C1192.6464,1054.97795 1191.7323,1055.89204 1191.7323,1057.01963 L1191.7323,1061.10301 C1191.7323,1062.2306 1192.6464,1063.1447 1193.77399,1063.1447 C1194.90158,1063.1447 1195.81568,1062.2306 1195.81568,1061.10301 L1195.81568,1057.01963 Z M1195.81568,1044.76951 C1195.81568,1043.64191 1194.90158,1042.72782 1193.77399,1042.72782 C1192.6464,1042.72782 1191.7323,1043.64191 1191.7323,1044.76951 L1191.7323,1048.85288 C1191.7323,1049.98048 1192.6464,1050.89457 1193.77399,1050.89457 C1194.90158,1050.89457 1195.81568,1049.98048 1195.81568,1048.85288 L1195.81568,1044.76951 Z M1195.81568,1032.51938 C1195.81568,1031.39179 1194.90158,1030.47769 1193.77399,1030.47769 C1192.6464,1030.47769 1191.7323,1031.39179 1191.7323,1032.51938 L1191.7323,1036.60276 C1191.7323,1037.73035 1192.6464,1038.64444 1193.77399,1038.64444 C1194.90158,1038.64444 1195.81568,1037.73035 1195.81568,1036.60276 L1195.81568,1032.51938 Z M1195.81568,1022.31094 C1195.81568,1021.18335 1194.90158,1020.26925 1193.77399,1020.26925 L1191.7323,1020.26925 C1190.60471,1020.26925 1189.69062,1021.18335 1189.69062,1022.31094 C1189.69062,1023.43854 1190.60471,1024.35263 1191.7323,1024.35263 C1191.7323,1025.48022 1192.6464,1026.39432 1193.77399,1026.39432 C1194.90158,1026.39432 1195.81568,1025.48022 1195.81568,1024.35263 L1195.81568,1022.31094 Z M1165.19036,1001.89407 L1169.27374,1001.89407 C1170.40133,1001.89407 1171.31543,1000.97997 1171.31543,999.852378 C1171.31543,998.724785 1170.40133,997.81069 1169.27374,997.81069 L1165.19036,997.81069 C1164.06277,997.81069 1163.14868,998.724785 1163.14868,999.852378 C1163.14868,1000.97997 1164.06277,1001.89407 1165.19036,1001.89407 Z M1177.44049,1001.89407 L1181.52387,1001.89407 C1182.65146,1001.89407 1183.56555,1000.97997 1183.56555,999.852378 C1183.56555,998.724785 1182.65146,997.81069 1181.52387,997.81069 L1177.44049,997.81069 C1176.3129,997.81069 1175.3988,998.724785 1175.3988,999.852378 C1175.3988,1000.97997 1176.3129,1001.89407 1177.44049,1001.89407 Z M1189.69062,1001.89407 L1193.77399,1001.89407 C1194.90158,1001.89407 1195.81568,1000.97997 1195.81568,999.852378 C1195.81568,998.724785 1194.90158,997.81069 1193.77399,997.81069 L1189.69062,997.81069 C1188.56302,997.81069 1187.64893,998.724785 1187.64893,999.852378 C1187.64893,1000.97997 1188.56302,1001.89407 1189.69062,1001.89407 Z M1201.94074,1001.89407 L1206.02412,1001.89407 C1207.15171,1001.89407 1208.06581,1000.97997 1208.06581,999.852378 C1208.06581,998.724785 1207.15171,997.81069 1206.02412,997.81069 L1201.94074,997.81069 C1200.81315,997.81069 1199.89905,998.724785 1199.89905,999.852378 C1199.89905,1000.97997 1200.81315,1001.89407 1201.94074,1001.89407 Z M1214.19087,1046.81119 L1214.19087,1050.89457 C1214.19087,1052.02216 1215.10496,1052.93626 1216.23256,1052.93626 C1217.36015,1052.93626 1218.27424,1052.02216 1218.27424,1050.89457 L1218.27424,1046.81119 C1218.27424,1045.6836 1217.36015,1044.76951 1216.23256,1044.76951 C1215.10496,1044.76951 1214.19087,1045.6836 1214.19087,1046.81119 Z M1214.19087,1034.56107 L1214.19087,1038.64444 C1214.19087,1039.77204 1215.10496,1040.68613 1216.23256,1040.68613 C1217.36015,1040.68613 1218.27424,1039.77204 1218.27424,1038.64444 L1218.27424,1034.56107 C1218.27424,1033.43348 1217.36015,1032.51938 1216.23256,1032.51938 C1215.10496,1032.51938 1214.19087,1033.43348 1214.19087,1034.56107 Z M1214.19087,1022.31094 L1214.19087,1026.39432 C1214.19087,1027.52191 1215.10496,1028.43601 1216.23256,1028.43601 C1217.36015,1028.43601 1218.27424,1027.52191 1218.27424,1026.39432 L1218.27424,1022.31094 C1218.27424,1021.18335 1217.36015,1020.26925 1216.23256,1020.26925 C1215.10496,1020.26925 1214.19087,1021.18335 1214.19087,1022.31094 Z M1214.19087,1010.06082 L1214.19087,1014.14419 C1214.19087,1015.27178 1215.10496,1016.18588 1216.23256,1016.18588 C1217.36015,1016.18588 1218.27424,1015.27178 1218.27424,1014.14419 L1218.27424,1010.06082 C1218.27424,1008.93322 1217.36015,1008.01913 1216.23256,1008.01913 C1215.10496,1008.01913 1214.19087,1008.93322 1214.19087,1010.06082 Z M1216.23256,997.81069 L1214.19087,997.81069 C1213.06328,997.81069 1212.14918,998.724785 1212.14918,999.852378 C1212.14918,1000.97997 1213.06328,1001.89407 1214.19087,1001.89407 C1214.19087,1003.02166 1215.10496,1003.93575 1216.23256,1003.93575 C1217.36015,1003.93575 1218.27424,1003.02166 1218.27424,1001.89407 L1218.27424,999.852378 C1218.27424,998.724785 1217.36015,997.81069 1216.23256,997.81069 Z M1214.19087,1059.06132 L1214.19087,1063.1447 C1214.19087,1064.27229 1215.10496,1065.18638 1216.23256,1065.18638 C1217.36015,1065.18638 1218.27424,1064.27229 1218.27424,1063.1447 L1218.27424,1059.06132 C1218.27424,1057.93373 1217.36015,1057.01963 1216.23256,1057.01963 C1215.10496,1057.01963 1214.19087,1057.93373 1214.19087,1059.06132 Z M1152.94024,1001.89407 L1157.02361,1001.89407 C1158.15121,1001.89407 1159.0653,1000.97997 1159.0653,999.852378 C1159.0653,998.724785 1158.15121,997.81069 1157.02361,997.81069 L1152.94024,997.81069 C1151.81264,997.81069 1150.89855,998.724785 1150.89855,999.852378 C1150.89855,1000.97997 1151.81264,1001.89407 1152.94024,1001.89407 Z" id="scalable"></path>
        </g>
    </g>
</svg>