<?xml version="1.0" encoding="UTF-8"?>
<svg viewBox="0 0 54 38" version="1.1" xmlns="http://www.w3.org/2000/svg" xmlns:xlink="http://www.w3.org/1999/xlink">
    <title>scraper-report</title>
    <g id="Products" stroke="none" stroke-width="1" fill="none" fill-rule="evenodd">
        <g id="Homepage-Copy-8" transform="translate(-860.000000, -1539.000000)" fill-rule="nonzero" stroke="#F3D6F7" stroke-width="2">
            <path d="M874.370039,1540.54714 C877.096067,1540.54714 879.864446,1541.04124 882.675177,1542.02944 L882.675024,1541.02983 L893.684899,1541.02983 L894.103168,1541.03218 C902.957078,1541.13246 907.384033,1544.44153 907.384033,1550.95941 C907.384033,1554.74035 905.590955,1557.68983 902.004801,1559.80783 L901.683722,1559.99256 L911.475385,1574.63408 L901.178049,1574.63408 L894.052661,1562.406 L891.754148,1562.406 L891.754148,1574.63408 L882.675024,1574.63408 L882.676435,1570.97582 C881.689096,1572.12172 880.41433,1573.04617 878.852139,1573.74916 C876.860095,1574.64558 874.523274,1575.09379 871.841676,1575.09379 C869.604457,1575.09379 867.727339,1574.93672 866.21032,1574.62259 C864.693302,1574.30846 863.11499,1573.76065 861.475385,1572.97915 L861.475385,1572.97915 L861.475385,1564.88839 L862.055121,1565.17741 C863.607894,1565.92882 865.21515,1566.52587 866.876889,1566.96854 C868.746346,1567.46656 870.462568,1567.71556 872.025557,1567.71556 C873.374017,1567.71556 874.362378,1567.48188 874.990638,1567.01451 C875.618898,1566.54714 875.933028,1565.94571 875.933028,1565.21018 C875.933028,1564.75048 875.80661,1564.34824 875.553773,1564.00346 C875.300937,1563.65869 874.894866,1563.31008 874.335562,1562.95764 C873.776257,1562.6052 872.286055,1561.885 869.864955,1560.79704 C867.673707,1559.80102 866.03027,1558.83564 864.934646,1557.90091 C863.839022,1556.96618 863.026881,1555.89355 862.498223,1554.683 C861.969565,1553.47245 861.705236,1552.03971 861.705236,1550.38478 C861.705236,1547.28945 862.831507,1544.87601 865.084049,1543.14446 C867.336591,1541.41292 870.431922,1540.54714 874.370039,1540.54714 Z M874.094218,1547.81044 C872.914315,1547.81044 872.056204,1548.01731 871.519884,1548.43104 C870.983565,1548.84477 870.715405,1549.35811 870.715405,1549.97105 C870.715405,1550.62995 871.056351,1551.2199 871.738243,1551.7409 C872.420135,1552.2619 874.270437,1553.21195 877.28915,1554.59106 C879.69632,1555.67364 881.492144,1556.8224 882.676624,1558.03731 L882.674385,1548.85114 L882.230952,1549.97105 L881.762975,1549.76039 C878.8195,1548.46042 876.263247,1547.81044 874.094218,1547.81044 Z M893.546988,1547.90238 L891.754148,1547.90238 L891.754148,1555.57942 L893.455048,1555.57942 C896.626995,1555.57942 898.212968,1554.17732 898.212968,1551.37314 C898.212968,1549.0593 896.657642,1547.90238 893.546988,1547.90238 Z" id="scraper-report"></path>
        </g>
    </g>
</svg>