<?xml version="1.0" encoding="UTF-8"?>
<svg viewBox="0 0 353 51" version="1.1" xmlns="http://www.w3.org/2000/svg" xmlns:xlink="http://www.w3.org/1999/xlink">
    <title>ticketmaster</title>
    <g id="Logos" stroke="none" stroke-width="1" fill="none" fill-rule="evenodd">
        <path d="M227.122291,15.391084 C233.868559,15.391084 240.241694,17.8836213 240.241694,25.8089944 C240.241694,28.1981805 239.308574,33.0243098 238.311632,37.9831917 L237.990057,39.5788558 C237.203841,43.4766883 236.435724,47.3040662 236.107365,49.9433228 L228.70438,49.9433228 L229.614828,44.7492929 L229.4805,44.7492929 C226.465574,48.5552631 223.450649,50.7194422 218.599903,50.7194422 C212.495425,50.7194422 208.181992,47.3164571 208.181992,41.0776511 C208.181992,30.0398899 220.396671,29.0956959 228.649552,29.0779158 L231.973037,29.0776511 C232.241694,28.1672034 232.241694,27.1821287 232.241694,26.1970541 C232.241694,22.794069 228.570052,21.8089944 225.4805,21.8089944 C221.614828,21.8089944 217.868559,22.794069 214.390948,24.4358601 L215.644679,17.4209347 C219.390948,16.1075019 223.181992,15.391084 227.122291,15.391084 Z M149.137216,6.09257649 L146.973037,16.1224272 L154.838709,16.1224272 L153.465574,22.5552631 L145.599903,22.5552631 L142.390948,37.3164571 C142.137216,38.391084 142.002888,39.4955616 142.002888,40.6000392 C142.002888,42.6298899 143.376022,43.8836213 145.346171,43.8836213 C146.928261,43.8836213 148.495425,43.5552631 149.614828,43.0925765 L148.107365,49.913472 C146.599903,50.2418302 144.89841,50.7045168 143.390948,50.7045168 C137.420798,50.7045168 133.226768,48.3463078 133.226768,41.8537705 C133.226768,39.2269048 133.749156,36.674666 134.346171,33.9731735 L136.838709,22.5701884 L130.4805,22.5701884 L131.823783,16.1224272 L138.181992,16.1224272 L139.689455,9.18212873 L149.137216,6.09257649 Z M57.1222908,15.3612332 C60.4058729,15.3612332 63.5551266,15.9582481 65.9133356,16.674666 L63.7491565,23.8686959 C62.0327386,22.7492929 59.7491565,22.1672034 57.3163206,22.1672034 C50.3013953,22.1672034 46.3610968,28.7194422 46.3610968,35.0925765 C46.3610968,39.4806362 47.808858,43.8836213 53.8387087,43.8836213 C56.0028878,43.8836213 58.689455,43.2866063 60.9879624,42.1821287 L60.0028878,49.1373526 C57.3163206,50.4507854 54.4207983,50.7045168 51.5402012,50.7045168 C42.8237833,50.7045168 37.1819923,44.8686959 37.1819923,36.152278 C37.1819923,24.3463078 44.9879624,15.3612332 57.1222908,15.3612332 Z M19.1073654,6.09257649 L16.9431863,16.1224272 L24.808858,16.1224272 L23.4357236,22.5552631 L15.570052,22.5552631 L12.3610968,37.3164571 C12.0924401,38.391084 11.9581117,39.4955616 11.9581117,40.6000392 C11.9581117,42.6298899 13.331246,43.8836213 15.3013953,43.8836213 C16.8834848,43.8836213 18.450649,43.5552631 19.570052,43.0925765 L18.0625893,49.913472 C16.5551266,50.2418302 14.8536341,50.7045168 13.3461714,50.7045168 C7.37602214,50.7045168 3.18199229,48.3463078 3.18199229,41.8537705 C3.18199229,39.2269048 3.70438035,36.674666 4.30139527,33.9731735 L6.79393259,22.5701884 L0.42079826,22.5701884 L1.79393259,16.1224272 L8.15214154,16.1224272 L9.6745296,9.18212873 L19.1073654,6.09257649 Z M115.047649,15.3463078 C123.376007,15.3463078 128.88347,19.6000392 128.88347,28.1970541 C128.88347,30.7492929 128.555112,33.2418302 128.032724,35.7343675 L128.032724,35.7343675 L107.346156,35.7343675 C107.376007,34.1373526 107.510336,32.3612332 108.286455,29.7045168 L108.286455,29.7045168 L120.316306,29.7045168 C120.435709,28.913472 120.510336,28.1970541 120.510336,27.4060093 C120.510336,23.794069 118.599888,21.7642183 114.928246,21.7642183 C109.749142,21.7642183 107.361082,24.7343675 105.674515,29.032875 C104.778992,31.152278 104.286455,33.4358601 104.241679,35.7343675 L104.241679,35.7343675 L104.241679,36.032875 C104.241679,36.3463078 104.27153,36.6448153 104.286455,36.9582481 C104.704365,42.271681 107.987948,44.271681 113.614813,44.271681 C117.211828,44.271681 120.68944,43.3612332 123.973022,41.8537705 L123.973022,41.8537705 L122.853619,48.8089944 C119.450634,49.8537705 115.719291,50.7045168 112.10735,50.7045168 C102.390933,50.7045168 95.8386938,45.9731735 95.8386938,35.9433228 C95.8386938,25.4507854 103.958097,15.3463078 115.047649,15.3463078 Z M289.256604,6.09257649 L287.092425,16.1224272 L294.958097,16.1224272 L293.570037,22.5552631 L285.704365,22.5552631 L282.49541,37.3164571 C282.226753,38.391084 282.10735,39.4955616 282.092425,40.6000392 C282.092425,42.6298899 283.465559,43.8836213 285.435709,43.8836213 C287.017798,43.8836213 288.584962,43.5552631 289.68944,43.0925765 L288.181977,49.913472 C286.674515,50.2418302 284.973022,50.7045168 283.465559,50.7045168 C277.49541,50.7045168 273.30138,48.3463078 273.30138,41.8537705 C273.30138,39.2269048 273.823768,36.674666 274.420783,33.9731735 L276.913321,22.5701884 L270.570037,22.5701884 L271.943171,16.1224272 L278.30138,16.1224272 L279.808843,9.18212873 L289.256604,6.09257649 Z M311.599888,15.3463078 C319.928246,15.3463078 325.435709,19.6000392 325.435709,28.1970541 C325.435709,30.7492929 325.10735,33.2418302 324.629739,35.7343675 L324.629739,35.7343675 L303.928246,35.7343675 C303.958097,34.1373526 304.092425,32.3612332 304.868545,29.7045168 L304.868545,29.7045168 L316.898395,29.7045168 C317.017798,28.913472 317.092425,28.1970541 317.092425,27.4060093 C317.092425,23.794069 315.181977,21.7642183 311.510336,21.7642183 C306.331231,21.7642183 303.943171,24.7343675 302.256604,29.032875 C301.361082,31.1373526 300.853619,33.4209347 300.823768,35.7343675 L300.823768,35.7343675 L300.808843,35.7343675 L300.808843,35.8388451 C300.808843,35.913472 300.793918,35.9731735 300.793918,36.032875 C300.793918,36.3463078 300.823768,36.6448153 300.838694,36.9582481 C301.256604,42.271681 304.540186,44.271681 310.167052,44.271681 C313.778992,44.271681 317.241679,43.3612332 320.525261,41.8537705 L320.525261,41.8537705 L319.405858,48.8089944 C315.987948,49.8537705 312.241679,50.7045168 308.644664,50.7045168 C298.928246,50.7045168 292.376007,45.9731735 292.376007,35.9433228 C292.376007,25.4507854 300.510336,15.3463078 311.599888,15.3463078 Z M259.987948,15.3313825 C263.196903,15.3313825 266.480485,15.9283974 268.211828,16.3761586 L266.331231,23.0030243 C265.390933,22.4955616 262.958097,21.7642183 260.465559,21.7642183 C257.838694,21.7642183 254.570037,22.4955616 254.570037,25.1672034 C254.570037,29.4358601 265.973022,31.0030243 265.973022,39.271681 C265.973022,48.0627257 258.30138,50.674666 250.749142,50.674666 C247.211828,50.674666 243.674515,50.152278 240.450634,48.6448153 L242.346156,41.6298899 C244.838694,43.0030243 247.331231,44.2567556 250.734216,44.2567556 C253.68944,44.2567556 256.764067,43.271681 256.764067,40.5254123 C256.764067,35.0776511 245.361082,34.5552631 245.361082,26.0925765 C245.361082,18.152278 253.032724,15.3313825 259.987948,15.3313825 Z M197.853619,15.3313825 C202.898395,15.3313825 207.241679,19.4657108 207.241679,24.5851138 C207.241679,27.6000392 206.450634,31.0179496 205.734216,33.7642183 L202.196903,49.8985466 L193.405858,49.8985466 L196.943171,33.4358601 C197.390933,31.4060093 198.047649,28.2567556 198.047649,26.2269048 C198.047649,23.7343675 196.152127,22.1672034 193.913321,22.1672034 C187.808843,22.1672034 186.30138,29.2567556 185.196903,33.8388451 L181.719291,49.913472 L172.928246,49.913472 L176.465559,33.4507854 C176.928246,31.4209347 177.584962,28.271681 177.584962,26.2418302 C177.584962,23.7492929 175.68944,22.1821287 173.450634,22.1821287 C167.480485,22.1821287 165.838694,29.3313825 164.734216,33.8537705 L161.256604,49.9283974 L152.465559,49.9283974 L158.644664,19.8686959 C158.898395,18.5552631 159.167052,17.1821287 159.361082,16.1224272 L167.555112,16.1224272 L166.764067,20.6448153 L166.898395,20.6448153 C169.256604,17.1672034 173.122276,15.3313825 177.256604,15.3313825 C181.256604,15.3313825 185.390933,17.6895914 185.853619,21.7492929 L185.987948,21.7492929 C188.226753,17.3612332 193.137201,15.3313825 197.853619,15.3313825 Z M349.629739,15.3463078 C350.749142,15.3463078 351.928246,15.4060093 352.973022,15.674666 L351.137201,24.271681 C350.152127,23.9433228 348.913321,23.7492929 347.793918,23.7492929 C341.555112,23.7492929 338.540186,29.3313825 337.435709,34.7642183 L334.286455,49.913472 L325.49541,49.913472 L331.525261,20.6597407 C331.793918,19.2119795 332.047649,17.7045168 332.316306,16.1373526 L340.704365,16.1373526 L339.525261,22.4955616 L339.659589,22.4955616 C341.241679,18.8239198 345.570037,15.3463078 349.629739,15.3463078 Z M82.1819923,0.719442162 L76.3461714,28.391084 L76.4804998,28.391084 L88.7491565,16.1224272 L100.152142,16.1224272 L83.9431863,31.5403377 L94.1073654,49.8985466 L84.211843,49.8985466 L75.4954251,31.9880989 L75.3610968,31.9880989 L71.5551266,49.8985466 L62.9730371,49.8985466 L73.3909475,0.719442162 L82.1819923,0.719442162 Z M37.2267684,16.1224272 L30.0178132,49.8985466 L21.2267684,49.8985466 L28.4357236,16.1224272 L37.2267684,16.1224272 Z M230.987962,34.3313825 L227.89841,34.3313825 C223.629753,34.3313825 216.555127,35.0478004 216.555127,40.7642183 C216.555127,43.1224272 218.793933,44.3015317 221.017813,44.3015317 C227.570052,44.3015317 229.599903,39.7791437 230.987962,34.3313825 Z M40.4357236,1.57018843 L38.5999027,9.97317351 L29.808858,9.97317351 L31.6446789,1.57018843 L40.4357236,1.57018843 Z" id="ticketmaster" fill="#231F20"></path>
    </g>
</svg>