<?xml version="1.0" encoding="UTF-8"?>
<svg width="270px" height="51px" viewBox="0 0 270 51" version="1.1" xmlns="http://www.w3.org/2000/svg" xmlns:xlink="http://www.w3.org/1999/xlink">
    <title>twitter</title>
    <g id="Logos" stroke="none" stroke-width="1" fill="none" fill-rule="evenodd">
        <path d="M54.6951625,8.0070153 C57.300386,6.44584491 59.3001242,3.97153713 60.2427176,1.02265973 C57.8044117,2.46927883 55.1042742,3.51987777 52.2274005,4.08608842 C49.9265561,1.631418 46.6438435,0.0997036558 43.0142042,0.0997036558 C36.0429402,0.0997036558 30.3906524,5.75199141 30.3906524,12.7232554 C30.3906524,13.7116694 30.5019308,14.6739002 30.7179418,15.5968562 C20.2283169,15.0731932 10.9267524,10.0460282 4.70170824,2.41036674 C3.61510747,4.27264337 2.99325763,6.44257202 2.99325763,8.756508 C2.99325763,13.13564 5.21882548,16.9976548 8.60627066,19.2624974 C6.53780172,19.1970395 4.59370274,18.627556 2.89179792,17.6849625 C2.88852503,17.7373288 2.88852503,17.7896951 2.88852503,17.8420614 C2.88852503,23.9591001 7.2414739,29.0582688 13.0148587,30.2201462 C11.9544411,30.5081608 10.8416572,30.6619868 9.68959853,30.6619868 C8.87464795,30.6619868 8.08588053,30.5834374 7.31347757,30.4361571 C8.92046847,35.4502306 13.5810694,39.0995073 19.1057143,39.200967 C14.7854943,42.5884122 9.34267178,44.6045148 3.42855252,44.6045148 C2.41068252,44.6045148 1.40590409,44.5456027 0.417490136,44.4277785 C6.00432001,48.0083245 12.6384759,50.0997037 19.7668388,50.0997037 C42.9847481,50.0997037 55.6803035,30.8649062 55.6803035,14.186239 C55.6803035,13.6396657 55.6704848,13.0930924 55.6443017,12.5530649 C58.1120637,10.7726106 60.2525363,8.55031569 61.9446224,6.01709581 C59.6797799,7.02187424 57.2480197,7.70263617 54.6951625,8.0070153 Z M80.2131126,6.3316562 C82.5783523,5.64275143 85.4074546,7.35123527 85.7702777,9.81751436 C85.9310222,11.7602258 85.9310222,13.7304935 85.9631711,15.6732049 C90.8635804,15.7053538 95.8007312,15.5078678 100.696548,15.7375027 C102.53822,16.0314354 104.251296,17.514877 104.480931,19.4208469 C105.201985,21.8228282 103.328164,24.6473378 100.894034,25.0423099 C95.8971779,25.4372819 90.8635804,25.1433492 85.8345755,25.207647 C85.8988733,27.0493191 85.8024266,28.8909912 86.0320616,30.7005144 C86.3581432,32.4411471 87.8415848,34.0531843 89.6465153,34.2506703 C93.4308988,34.5813446 97.2106897,34.2506703 100.962924,34.544603 C104.214555,35.0406145 105.826592,39.5139028 103.622097,41.948033 C102.441773,44.0514889 99.810157,43.9871911 97.73885,43.9871911 C93.9223176,43.9183006 89.9771896,44.446461 86.2616965,43.2936937 C80.6402335,41.5852098 76.3965801,36.0280446 76.428729,30.1402052 C76.231243,24.1237702 76.3644312,18.0705935 76.3644312,12.0541585 C75.9694592,9.55573054 77.6136452,6.72662827 80.2131126,6.3316562 M166.858962,7.51657241 C168.99916,5.21563047 173.33926,6.10202128 174.423137,9.02757022 C174.919148,12.5134284 174.657364,16.068177 174.721662,19.586184 C178.042183,19.6183329 181.362704,19.4529958 184.683225,19.8479679 C186.919869,20.3761282 188.79369,22.6770701 188.33442,25.0790514 C188.270123,27.4121423 185.932439,29.4191515 183.567199,29.0884772 C180.738097,29.2538144 177.908995,29.1849239 175.079893,29.2170728 C175.410567,30.7969611 175.474865,33.0657541 177.22009,33.8556983 C180.278827,35.0727634 183.99432,33.5939144 186.855572,35.4034376 C187.939448,36.7169494 188.729393,38.3932844 188.302272,40.1063609 C187.843002,42.57264 185.307832,44.1157867 182.910444,43.9183006 C177.187941,44.6117981 170.179483,42.8987216 167.749946,37.0476237 C164.856546,29.9105703 165.150478,21.9192749 165.11833,14.3551005 C165.315816,12.0863074 164.787655,9.09646069 166.858962,7.51657241 M193.147568,6.61181081 C194.451895,6.10202128 195.921558,5.99179652 197.147809,6.69447938 C198.199537,7.35123527 199.283414,8.27436767 199.4809,9.55573054 C199.843723,12.9084004 199.678386,16.265663 199.710535,19.586184 C203.031056,19.6183329 206.356169,19.4529958 209.67669,19.8479679 C211.849037,20.3072377 213.589669,22.4795841 213.360035,24.780526 C213.098251,26.6864959 211.945483,28.7578029 209.809879,29.0241794 C206.585804,29.2859633 203.36173,29.152775 200.142248,29.152775 C200.371883,30.6683655 200.238695,32.7396725 201.749693,33.6582122 C205.139104,35.4355865 209.906325,32.9693074 212.537941,36.3541262 C214.443911,38.9857425 212.932914,42.8665727 209.938474,43.6886657 C204.514497,44.6117981 198.002051,44.0514889 194.190111,39.5782006 C191.425307,35.9637469 190.966037,31.2562309 190.405727,26.9161308 C190.111795,22.1810587 189.647932,17.4505792 190.042904,12.7109144 C189.955643,10.157374 190.616992,7.60842638 193.147568,6.61181081 M109.675273,17.5791748 C111.778729,16.8213796 114.015373,18.3691189 114.938506,20.1740495 C115.397776,23.6966492 115.002804,27.2468051 115.20029,30.7969611 C115.397776,33.2310913 117.763015,35.4677354 120.298185,34.9074262 C121.97452,34.7788307 123.324773,33.3321306 123.586557,31.7200935 C123.848341,28.3628309 123.618706,24.9780121 123.747302,21.5886006 C123.981529,19.6183329 125.593566,17.8777002 127.531685,17.4827281 C128.978385,17.0877561 130.392936,17.941998 131.545704,18.6952005 C134.241618,22.6081797 132.202459,27.706075 133.056701,32.0461751 C133.54812,33.4928751 134.733036,34.8109795 136.345074,34.9074262 C138.710313,35.4034376 141.603713,33.3964284 141.080146,30.7969611 C141.406227,27.278954 140.620876,23.5956098 141.704753,20.1740495 C142.558995,18.139484 145.22276,16.692784 147.326216,17.744512 C148.740767,18.3369701 149.989981,19.5540352 150.155318,21.1293307 C150.518141,24.6473378 150.485992,28.2020864 150.288506,31.7522423 C149.797087,38.2968377 143.808209,44.01934 137.199315,43.9183006 C133.910943,44.1157867 130.884355,42.57264 128.321629,40.7309679 C126.181432,42.0123308 124.077976,43.4911797 121.547399,43.7529635 C115.232439,44.8735819 108.554655,40.6299285 106.87832,34.4481564 C105.991929,30.5673261 106.221564,26.5211588 106.322603,22.5760308 C106.157266,20.4725749 107.374331,17.8777002 109.675273,17.5791748 M256.370656,17.8409586 C259.167609,17.5470259 261.996712,17.514877 264.789072,17.6434726 C267.586026,17.744512 269.951265,20.9685863 268.803091,23.5956098 C268.114186,24.8126749 267.158905,26.1950772 265.643314,26.3282654 C262.9474,26.5579004 260.251486,26.456861 257.555572,26.6221981 C255.814939,26.7553864 254.331498,28.1331959 254.069714,29.8784214 C253.80793,33.1346446 254.037565,36.4230167 253.904377,39.7113888 C253.775781,42.4394517 250.616005,44.841433 247.988981,43.6886657 C246.767323,42.999761 245.389514,42.0123308 245.224177,40.5334819 C244.893502,36.7490983 244.893502,32.9693074 245.192028,29.1849239 C245.651298,23.4624216 250.652746,18.3691189 256.370656,17.8409586 M157.062736,19.1223215 C159.496867,18.6630517 162.027443,20.637912 162.321376,23.0398933 C162.716348,28.4638702 162.619902,33.919996 162.454564,39.3485657 C162.321376,41.4841704 160.612892,43.4911797 158.445139,43.7851124 C155.648185,44.5107588 152.653746,41.8791425 153.048718,39.0178914 C152.91553,33.5617656 152.819083,28.101047 153.117608,22.6449212 C153.347243,20.6700609 155.221064,19.3565491 157.062736,19.1223215 Z M156.732062,6.26735842 C160.089325,5.37637492 163.377697,9.12860958 162.192781,12.3848328 C161.467134,15.6732049 156.800953,16.8213796 154.527567,14.4561398 C151.53772,12.2516446 153.048718,6.72662827 156.732062,6.26735842 L156.732062,6.26735842 Z M239.368486,21.0328841 C242.298628,23.3981238 244.007112,27.278954 243.318207,31.026596 C242.822195,32.6386332 240.980523,33.2632402 239.437377,33.3321306 C234.435928,33.6260633 229.406923,33.3321306 224.410067,33.525024 C225.820026,36.4551656 229.57226,36.6848005 232.401362,36.1933818 C234.863049,35.7295192 236.971097,33.8235494 239.565972,34.2828192 C241.444386,34.4481564 242.661451,36.7812472 241.834765,38.3932844 C240.654442,41.1902377 237.692151,42.7012355 234.863049,43.2615448 C229.898342,44.5429076 224.180432,44.3454216 220.102116,40.9606028 C215.233855,37.6722307 213.557521,30.8337026 215.725274,25.5015797 C216.942339,22.3463958 219.509658,19.7469285 222.696991,18.6630517 C228.189858,16.8856773 234.766602,17.317391 239.368486,21.0328841 Z" id="twitter" fill="#000000"></path>
    </g>
</svg>