<?xml version="1.0" encoding="UTF-8"?>
<svg viewBox="0 0 169 51" version="1.1" xmlns="http://www.w3.org/2000/svg" xmlns:xlink="http://www.w3.org/1999/xlink">
    <title>upwork</title>
    <g id="Logos" stroke="none" stroke-width="1" fill="none" fill-rule="evenodd">
        <path d="M46.5917389,32.3331965 C43.852315,32.3331965 41.2854014,31.1733611 38.9532204,29.2852952 L39.5211216,26.6199454 L39.545813,26.52118 C40.051492,23.6833199 41.6557718,18.9198631 46.5917389,18.9198631 C50.2934673,18.9198631 53.3044961,21.9308919 53.3044961,25.6326203 C53.2919858,29.3221677 50.2812862,32.3331965 46.5917389,32.3331965 L46.5917389,32.3331965 Z M46.5917389,12.1208508 C40.2858953,12.1208508 35.3996401,16.2176409 33.4131381,22.9550895 C30.3774179,18.4016738 28.0821093,12.9353364 26.7372533,8.33253802 L19.950422,8.33253802 L19.950422,25.9904804 C19.950422,29.4703158 17.1122327,32.3081759 13.6323973,32.3081759 C10.1525619,32.3081759 7.31470186,29.4703158 7.31470186,25.9904804 L7.31470186,8.33253802 L0.527134745,8.33253802 L0.527134745,25.9904804 C0.502520787,33.2217561 6.38861132,39.1569002 13.6195578,39.1569002 C20.8508335,39.1569002 26.7369241,33.2217561 26.7369241,25.9904804 L26.7369241,23.0291635 C28.0570887,25.7807685 29.6735496,28.5570648 31.6356895,31.0252129 L27.4770064,50.5708919 L34.4244961,50.5708919 L37.4351957,36.3927849 C40.0758541,38.0833199 43.1115743,39.1447191 46.5914097,39.1447191 C54.0320681,39.1447191 60.0909982,33.0489166 60.0909982,25.607929 C60.0909982,18.1794516 54.0320681,12.1208508 46.5914097,12.1208508 L46.5917389,12.1208508 Z M80.8093521,12.8859537 L85.1899282,30.543896 L90.0149488,12.8859537 L95.7650722,12.8859537 L88.3491051,38.4043076 L82.5986525,38.4043076 L78.0455661,20.6350895 L73.5043315,38.3917973 L67.754208,38.3917973 L60.3375825,12.8737726 L66.0880352,12.8737726 L70.9127265,30.531715 L75.2933027,12.8737726 L80.8090228,12.8737726 L80.8090228,12.8862829 L80.8093521,12.8859537 Z M109.523755,12.1208508 C102.058406,12.1208508 96.0119858,18.1794516 96.0119858,25.6326203 C96.0119858,33.0982993 102.070587,39.1447191 109.523755,39.1447191 C116.989434,39.1447191 123.048035,33.0982993 123.048035,25.6326203 C123.048035,18.1672705 116.989434,12.1208508 109.523755,12.1208508 Z M109.523755,33.5917973 C105.130998,33.5917973 101.577089,30.0378878 101.577089,25.6451306 C101.577089,21.2520442 105.143179,17.6984639 109.523755,17.6984639 C113.916842,17.6984639 117.470422,21.2520442 117.470422,25.6451306 C117.470422,30.0257067 113.916842,33.5917973 109.523755,33.5917973 Z M139.472068,18.5992047 C135.61001,18.5992047 132.488035,21.7333611 132.488035,25.5832376 L132.488035,38.3917973 L126.700381,38.3917973 L126.700381,12.8859537 L132.488035,12.8859537 L132.488035,16.8099043 C132.488035,16.8099043 134.955854,12.8734434 140.027459,12.8734434 L141.804249,12.8734434 L141.804249,18.5992047 L139.472068,18.5992047 Z M158.894949,24.6456244 C163.003591,22.3256244 165.792727,17.920357 165.792727,12.8734434 L160.005072,12.8734434 C160.005072,17.1305627 156.550257,20.5857067 152.293138,20.5857067 L151.515525,20.5857067 L151.515525,0.570891933 L145.728529,0.570891933 L145.728529,38.3917973 L151.515525,38.3917973 L151.515525,26.3730319 L152.206883,26.3730319 C152.774455,26.3730319 153.514866,26.7434022 153.848035,27.1996985 L162.065978,38.3917973 L169.000957,38.3917973 L158.894949,24.6456244 L158.894949,24.6456244 Z" id="upwork" fill="#000000" fill-rule="nonzero"></path>
    </g>
</svg>