<?xml version="1.0" encoding="UTF-8"?>
<svg width="36.1666667px" height="39.5px" viewBox="0 0 36.1666667 39.5" version="1.1" xmlns="http://www.w3.org/2000/svg" xmlns:xlink="http://www.w3.org/1999/xlink">
    <title>usql</title>
    <g id="Logos" stroke="none" stroke-width="1" fill="none" fill-rule="evenodd">
        <g id="Artboard" transform="translate(-99.4667, -220.8436)" fill="#282828" fill-rule="nonzero">
            <path d="M128.383415,220.843628 C128.53807,220.843628 128.686437,220.905095 128.795935,221.014535 L135.462554,227.681155 C135.571933,227.790533 135.633415,227.93895 135.633415,228.093628 L135.633415,257.260295 C135.633415,258.960223 134.25001,260.343628 132.550081,260.343628 L109.216748,260.343628 C107.516819,260.343628 106.133415,258.960223 106.133415,257.260295 L106.132748,254.759561 L106.132681,254.50955 L105.88267,254.509628 L103.74442,254.510295 C101.385986,254.510295 99.4667479,252.591057 99.4667479,250.232545 L99.4667479,237.260295 C99.4667479,235.560366 100.850152,234.176961 102.550081,234.176961 L105.882773,234.176628 L106.132731,234.176603 L106.132748,233.926645 L106.133415,223.926978 C106.133415,222.227033 107.516819,220.843628 109.216748,220.843628 Z M127.800081,222.010295 L109.216748,222.010295 C108.159677,222.010295 107.300081,222.86989 107.300081,223.926961 L107.299715,238.926622 L107.299715,239.176624 L107.549744,239.176628 L128.800077,239.176961 C130.27026,239.176961 131.466748,240.373449 131.466748,241.843628 L131.466748,251.843628 C131.466748,253.313807 130.27026,254.510295 128.800081,254.510295 L107.549756,254.509628 L107.299715,254.50962 L107.299715,254.759661 L107.300081,257.260328 C107.300081,258.317366 108.159677,259.176961 109.216748,259.176961 L132.550081,259.176961 C133.607152,259.176961 134.466748,258.317366 134.466748,257.260295 L134.466748,228.676961 L128.383415,228.676961 C128.061286,228.676961 127.800081,228.415774 127.800081,228.093628 L127.800081,222.010295 Z M100.632818,239.711927 L100.633415,250.232559 C100.633415,251.948227 102.028788,253.343628 103.744498,253.343628 L128.800081,253.343628 C129.62746,253.343628 130.300081,252.670975 130.300081,251.843628 L130.300081,241.843628 C130.300081,241.016281 129.62746,240.343628 128.800081,240.343628 L102.550081,240.343628 C102.001327,240.343628 101.473437,240.199494 101.008274,239.929695 L100.632818,239.711927 Z M115.466748,242.510295 C116.936927,242.510295 118.133415,243.706783 118.133415,245.176961 L118.133415,247.676961 C118.133415,248.305542 117.914286,248.900939 117.520326,249.376158 L117.275878,249.671026 L117.644195,249.776118 L118.543737,250.032783 C118.853424,250.121257 119.032826,250.444141 118.944294,250.753828 C118.855866,251.063354 118.533171,251.243058 118.223172,251.154495 L115.40851,250.34927 L115.301071,250.338726 C113.906893,250.257514 112.800081,249.088815 112.800081,247.676961 L112.800081,245.176961 C112.800081,243.706783 113.996569,242.510295 115.466748,242.510295 Z M121.716748,242.510295 C122.038876,242.510295 122.300081,242.771482 122.300081,243.093628 L122.300081,249.176961 L125.883415,249.176961 C126.205543,249.176961 126.466748,249.438148 126.466748,249.760295 C126.466748,250.082441 126.205543,250.343628 125.883415,250.343628 L121.716748,250.343628 C121.39462,250.343628 121.133415,250.082441 121.133415,249.760295 L121.133415,243.093628 C121.133415,242.771482 121.39462,242.510295 121.716748,242.510295 Z M110.050081,242.510295 C110.37226,242.510295 110.633415,242.771449 110.633415,243.093628 C110.633415,243.415807 110.37226,243.676961 110.050081,243.676961 L107.550081,243.676961 C106.95251,243.676961 106.466748,244.162723 106.466748,244.760295 C106.466748,245.357866 106.95251,245.843628 107.550081,245.843628 L108.383415,245.843628 C109.623843,245.843628 110.633415,246.853199 110.633415,248.093628 C110.633415,249.334057 109.623843,250.343628 108.383415,250.343628 L105.883415,250.343628 C105.561286,250.343628 105.300081,250.082441 105.300081,249.760295 C105.300081,249.438148 105.561286,249.176961 105.883415,249.176961 L108.383415,249.176961 C108.980986,249.176961 109.466748,248.691199 109.466748,248.093628 C109.466748,247.496057 108.980986,247.010295 108.383415,247.010295 L107.550081,247.010295 C106.309652,247.010295 105.300081,246.000723 105.300081,244.760295 C105.300081,243.519866 106.309652,242.510295 107.550081,242.510295 Z M115.466748,243.676961 C114.639427,243.676961 113.966748,244.34964 113.966748,245.176961 L113.966748,247.676961 C113.966748,248.504283 114.639427,249.176961 115.466748,249.176961 C116.294069,249.176961 116.966748,248.504283 116.966748,247.676961 L116.966748,245.176961 C116.966748,244.34964 116.294069,243.676961 115.466748,243.676961 Z M106.132748,235.343628 L102.550081,235.343628 C101.49301,235.343628 100.633415,236.203223 100.633415,237.260295 C100.633415,238.317366 101.49301,239.176961 102.550081,239.176961 L105.882773,239.176628 L106.132748,239.176603 L106.132748,235.343628 Z M124.216748,233.343628 C124.538876,233.343628 124.800081,233.604815 124.800081,233.926961 C124.800081,234.249107 124.538876,234.510295 124.216748,234.510295 L110.883415,234.510295 C110.561236,234.510295 110.300081,234.24914 110.300081,233.926961 C110.300081,233.604783 110.561236,233.343628 110.883415,233.343628 Z M124.216748,230.010295 C124.538876,230.010295 124.800081,230.271482 124.800081,230.593628 C124.800081,230.915774 124.538876,231.176961 124.216748,231.176961 L110.883415,231.176961 C110.561236,231.176961 110.300081,230.915807 110.300081,230.593628 C110.300081,230.271449 110.561236,230.010295 110.883415,230.010295 Z M117.550081,226.676961 C117.872209,226.676961 118.133415,226.938148 118.133415,227.260295 C118.133415,227.582441 117.872209,227.843628 117.550081,227.843628 L110.883415,227.843628 C110.561236,227.843628 110.300081,227.582473 110.300081,227.260295 C110.300081,226.938116 110.561236,226.676961 110.883415,226.676961 Z M128.96559,222.833805 L128.965748,223.437693 L128.966748,227.26036 L128.966813,227.510338 L129.216791,227.510338 L133.036791,227.509628 L133.640084,227.509523 L133.213548,227.082874 L129.392548,223.260874 L128.96559,222.833805 Z" id="usql"></path>
        </g>
    </g>
</svg>