<?xml version="1.0" encoding="UTF-8"?>
<svg width="38.7486911px" height="40px" viewBox="0 0 38.7486911 40" version="1.1" xmlns="http://www.w3.org/2000/svg" xmlns:xlink="http://www.w3.org/1999/xlink">
    <title>wallet</title>
    <g id="Logos" stroke="none" stroke-width="1" fill="none" fill-rule="evenodd">
        <g id="Artboard" transform="translate(-214.5, -434)" fill="#000000" fill-rule="nonzero">
            <path d="M236.153917,434.032871 C236.638605,433.940918 237.129699,434.043418 237.537121,434.321152 L249.141111,442.228969 C249.982205,442.80225 250.200174,443.952954 249.626971,444.794048 L247.916892,447.303424 L248.363845,447.303424 C249.428767,447.303424 250.295096,448.169753 250.295096,449.234675 L250.295096,449.968816 C250.943924,450.428035 251.368768,451.183817 251.368768,452.037411 L251.368768,457.429211 L251.967362,457.429211 C252.673925,457.429211 253.248691,458.003976 253.248691,458.710539 L253.248691,464.793745 C253.248691,465.50023 252.673925,466.074996 251.967362,466.074996 L251.368768,466.074996 L251.368768,471.466717 C251.368768,472.863593 250.232362,474 248.835486,474 L217.033361,474 C215.636407,474 214.5,472.863593 214.5,471.466717 L214.5,452.037411 C214.5,451.017176 215.106563,450.136551 215.977735,449.735457 L215.977735,449.234675 C215.977735,448.169753 216.844142,447.303424 217.908986,447.303424 L219.368752,447.303424 L220.22594,438.626076 C220.326019,437.613107 221.231722,436.870528 222.244535,436.97045 L231.078446,437.843107 C231.391727,437.874045 231.620555,438.153029 231.589618,438.46631 C231.55868,438.779592 231.279696,439.007717 230.966414,438.977483 L222.132504,438.104826 C221.744535,438.065998 221.398675,438.350685 221.360394,438.738186 L220.296956,449.504128 L221.023753,449.504128 L221.707191,442.585063 C221.757816,442.072484 222.087035,441.641859 222.566488,441.461078 C223.203442,441.220921 223.755473,440.772483 224.120786,440.198264 C224.392661,439.771077 224.876568,439.537248 225.38399,439.586936 L229.755476,440.018811 C230.068758,440.049749 230.297586,440.328733 230.266648,440.642015 C230.235711,440.955296 229.956883,441.183577 229.643445,441.153187 L225.271958,440.721312 C225.195552,440.713577 225.121724,440.748733 225.082583,440.810218 C224.585708,441.591156 223.834927,442.201156 222.968598,442.527797 C222.899067,442.553969 222.849223,442.620453 222.841645,442.697172 L222.169223,449.504207 L224.956333,449.504207 L234.972041,434.80709 C235.249698,434.39959 235.669464,434.124668 236.153917,434.032871 Z M250.228846,454.758897 L215.639922,454.758897 L215.639922,468.74531 L218.713518,468.74531 C219.028284,468.74531 219.28344,469.000466 219.28344,469.315232 C219.28344,469.629998 219.028362,469.885154 218.713518,469.885154 L215.639922,469.885154 L215.639922,471.466717 C215.639922,472.234999 216.265001,472.860078 217.033361,472.860078 L248.835486,472.860078 C249.603846,472.860078 250.228846,472.234999 250.228846,471.466717 L250.228846,469.885154 L222.363051,469.885154 C222.048285,469.885154 221.793129,469.629998 221.793129,469.315232 C221.793129,469.000466 222.048207,468.74531 222.363051,468.74531 L250.228846,468.74531 L250.228846,466.074996 L244.809546,466.074996 L244.600342,466.070002 C242.313479,465.96054 240.486654,464.065668 240.486654,461.752103 C240.486654,461.305697 240.5547,460.874993 240.680872,460.469603 L240.744892,460.28032 C240.790135,460.156495 240.841003,460.035332 240.896732,459.916946 C240.902513,459.904602 240.907669,459.891868 240.913607,459.879602 L240.921029,459.865227 C241.622982,458.424524 243.102045,457.429211 244.809546,457.429211 L250.228846,457.429211 L250.228846,454.758897 Z M251.967362,458.569133 L244.809703,458.569133 C243.603061,458.569133 242.55103,459.244055 242.01142,460.236165 C241.986889,460.281243 241.963451,460.327024 241.941029,460.373353 C241.896342,460.466165 241.855951,460.5614 241.82017,460.658821 C241.695092,460.999915 241.626732,461.368197 241.626732,461.752103 C241.626732,462.13601 241.695014,462.504291 241.82017,462.845385 C241.855873,462.942885 241.896264,463.03812 241.941029,463.130854 C241.963451,463.177182 241.986889,463.222963 242.01142,463.268042 C242.55103,464.260151 243.603061,464.935074 244.809703,464.935074 L251.967362,464.935074 C252.045409,464.935074 252.108847,464.871636 252.108847,464.793667 L252.108847,458.710539 C252.108847,458.63257 252.045331,458.569133 251.967362,458.569133 Z M244.943218,459.439602 C246.218375,459.439602 247.255719,460.477025 247.255719,461.752103 C247.255719,463.027182 246.218375,464.064526 244.943218,464.064526 C243.668061,464.064526 242.630717,463.027182 242.630717,461.752103 C242.630717,460.477025 243.668061,459.439602 244.943218,459.439602 Z M244.943218,460.579525 C244.296655,460.579525 243.77064,461.105619 243.77064,461.752103 C243.77064,462.398588 244.296655,462.924604 244.943218,462.924604 C245.589781,462.924604 246.115797,462.398666 246.115797,461.752103 C246.115797,461.10554 245.589781,460.579525 244.943218,460.579525 Z M248.835486,450.644051 L217.033361,450.644051 C216.265001,450.644051 215.639922,451.269129 215.639922,452.037411 L215.639922,453.618974 L250.228846,453.618974 L250.228846,452.037411 C250.228846,451.269129 249.603846,450.644051 248.835486,450.644051 Z M248.363845,448.443425 L247.140016,448.443425 L246.417125,449.504285 L248.835486,449.504285 C248.943845,449.504285 249.05033,449.511863 249.155173,449.525144 L249.155173,449.234753 C249.155173,448.798347 248.800251,448.443347 248.363845,448.443425 Z M236.498995,435.140215 C236.454855,435.140215 236.410402,435.144434 236.366105,435.152793 C236.180792,435.187949 236.020245,435.293106 235.913995,435.448965 L226.335787,449.504128 L227.2111,449.504128 L234.375088,438.991623 C234.660791,438.572482 235.167901,438.346701 235.667901,438.416857 C236.34212,438.511232 237.041574,438.382092 237.637277,438.053185 C238.080559,437.80842 238.61759,437.834748 239.038918,438.121857 L245.05439,442.221234 C245.47564,442.508266 245.696578,442.998422 245.630953,443.500532 C245.542672,444.175454 245.678297,444.873657 246.012828,445.466626 C246.264547,445.912955 246.240641,446.454518 245.950641,446.880065 L244.162437,449.504128 L245.03775,449.504128 L248.685095,444.152016 C248.904314,443.830297 248.820876,443.390141 248.499158,443.170844 L236.895167,435.263028 C236.776574,435.182246 236.639386,435.140215 236.498995,435.140215 Z M238.396887,439.063889 C238.333762,439.02092 238.251887,439.015842 238.188137,439.051154 C237.377824,439.498577 236.426652,439.674045 235.50962,439.545764 L235.483604,439.543967 C235.418526,439.543967 235.355167,439.577405 235.316963,439.633577 L228.590398,449.504128 L231.479383,449.504128 C231.645399,447.063346 233.6829,445.127954 236.165011,445.127954 C238.647278,445.127954 240.684701,447.063346 240.850872,449.504128 L242.783139,449.504128 L245.008765,446.238111 C245.052046,446.174439 245.0565,446.09147 245.020015,446.026705 C244.565093,445.220298 244.380562,444.270766 244.50064,443.352875 C244.510015,443.280688 244.475406,443.206313 244.412437,443.163344 Z M236.165011,446.267955 C234.31165,446.267955 232.785556,447.692565 232.622275,449.504207 L239.707825,449.504207 C239.544622,447.692565 238.018449,446.267877 236.165011,446.267955 Z M219.256174,448.443269 L217.908986,448.443269 C217.47258,448.443269 217.117658,448.798269 217.117658,449.234675 L217.117658,449.504128 L219.151409,449.504128 L219.256174,448.443269 Z" id="wallet"></path>
        </g>
    </g>
</svg>