<?xml version="1.0" encoding="UTF-8"?>
<svg viewBox="0 0 265 51" version="1.1" xmlns="http://www.w3.org/2000/svg" xmlns:xlink="http://www.w3.org/1999/xlink">
    <title>yahoo</title>
    <g id="Logos" stroke="none" stroke-width="1" fill="none" fill-rule="evenodd">
        <path d="M23.7424583,3.73651815 C24.0020731,3.73697527 24.2630241,3.73772241 24.5246521,3.73874402 L25.3109069,3.74261667 C25.5412386,3.74398203 25.7715837,3.745547 26.0014959,3.74730106 L26.6894869,3.75311999 C30.9185828,3.79237184 34.8467107,3.89273844 35.6474034,3.98758131 L35.2747668,6.60431839 C33.7279109,6.99517279 26.2768348,7.13429046 24.344093,7.65432555 C25.7806958,9.78982906 27.4559213,12.1014942 29.176206,14.4015904 L29.8230468,15.2632175 C33.9282939,20.7121102 38.1512257,25.9633817 39.8987731,28.5021017 C41.3164484,26.4352106 53.7890097,17.857944 54.1715833,14.8934127 C52.2371853,14.509183 45.8328041,13.5850442 44.8010147,13.5850442 L44.1898907,10.2081284 C44.752721,10.1196231 46.080407,10.0877612 47.7762956,10.0853538 L48.4287386,10.0857787 L48.7664521,10.086927 C49.7902132,10.0912483 50.9069439,10.1032762 52.0460486,10.1181716 L52.8079917,10.1284736 C55.353686,10.1638758 57.9323976,10.2081284 59.7694133,10.2081284 L61.7634924,10.2087461 C62.961108,10.2097469 64.3251175,10.2123695 65.714701,10.2192417 L66.5503933,10.2238959 C69.8964259,10.2447209 73.2275395,10.2930505 74.597038,10.4052118 L72.3943416,13.5850442 C71.105847,13.7142249 65.731599,14.9182552 63.9280378,15.3041411 C62.9833318,15.5564941 58.2868503,18.9400667 53.5928215,22.7269139 L52.922668,23.2703408 C52.7189601,23.4363873 52.5155947,23.6029505 52.3128805,23.7698063 L51.7069999,24.2710271 C47.4838292,27.782578 43.6838853,31.3242733 43.164726,32.8197179 C42.9063646,33.9757194 42.7821524,35.762719 42.7821524,37.4387557 L42.6480032,40.149894 C42.6480032,42.0809797 43.1895684,45.1962218 43.4446175,46.8722584 C44.6088999,47.1256513 53.0139256,46.9053817 54.5574692,47.1670554 L54.371979,50.6267793 C53.6159407,50.5746102 50.5690154,50.5547362 46.9486437,50.5479046 L46.5721473,50.5472436 L46.1919823,50.5466709 L45.8085711,50.5461818 L45.4223363,50.5457715 L44.2509151,50.5449664 L43.8576108,50.5448241 L41.8888735,50.5448454 L41.4976405,50.544963 L39.5772853,50.5458575 L39.2033339,50.5460645 L37.7553439,50.5468283 L37.407413,50.5469795 L36.0846304,50.5472835 C33.4953767,50.5472835 26.0883904,50.7832873 21.9570839,50.805282 L21.5677776,50.8067274 L21.200553,50.8067459 C20.7263658,50.8057792 20.31541,50.8007659 19.9850727,50.7907394 L20.558105,47.4966318 C20.9305576,47.467925 21.5631709,47.4668618 22.3386821,47.4648716 L22.6359682,47.4640261 C25.367705,47.4550207 29.5601774,47.3947778 30.7054139,46.1849509 C31.4458764,45.4056869 31.2283492,44.5711847 31.217571,40.2134193 L31.2171682,37.7004294 C31.2171682,36.6653277 31.2171682,34.7309296 30.9654315,32.9290246 C30.6614528,32.02405 27.1055749,27.3043613 22.9944881,22.2153921 L22.5084319,21.6151939 C22.4270498,21.5149462 22.345495,21.4146084 22.2637876,21.3142066 L21.6731411,20.5905658 C21.3767815,20.228551 21.0790782,19.8665139 20.7809796,19.5056664 L20.1845365,18.7859166 C16.3078845,14.1225197 12.4712991,9.79669031 10.7585903,8.47081376 C10.1641174,8.27180567 7.9568239,7.98326922 5.70498459,7.69670393 L4.99422586,7.60638187 C4.04945096,7.48632441 3.12604529,7.36832394 2.34107497,7.25921057 L1.78013303,7.17914859 C1.24880603,7.10096638 0.81181135,7.02874366 0.518536267,6.96536186 L0.429103481,3.99751829 C0.689177167,3.86724285 1.54599278,3.82125376 2.82182348,3.81478258 L3.53543328,3.81480261 C6.78891339,3.82875574 12.0825941,4.00911143 17.270622,3.81534039 C18.6683111,3.76369057 20.55246,3.74005421 22.5854374,3.73647112 L23.7424583,3.73651815 Z M69.8733307,18.5987456 C70.4713397,18.6359868 72.0953809,18.6945973 73.8050412,18.7468548 L74.4483404,18.7660994 C76.1468327,18.8158122 77.8140543,18.8559102 78.5386751,18.8595285 L78.726872,18.8594927 C78.7795708,18.8590981 78.8219322,18.8583118 78.8530449,18.8571069 C80.4843652,18.7709865 86.5558577,18.8041097 87.9354412,18.7213016 L87.4220308,20.9124049 C86.2014388,20.995213 84.2206682,21.5897754 83.0812283,21.829919 C83.6526044,23.5390789 85.9149227,29.0425076 87.6240826,33.1050747 C88.9241703,36.0315142 91.0838065,41.770118 93.1109497,45.1006612 C94.4921893,45.3441171 97.6670533,46.2748806 99.1277888,46.3560325 L99.2105969,47.1675523 L99.0449806,49.1831023 C98.7454864,49.1432851 96.839523,49.1242783 94.7512018,49.1152054 L94.2472325,49.1132131 C94.1628972,49.1129109 94.0784523,49.1126233 93.9939891,49.1123495 L93.403605,49.1106494 L93.1103592,49.1099519 L92.8195688,49.1093473 C92.7231444,49.1091605 92.6272739,49.108988 92.5321022,49.1088289 L91.9706137,49.1080242 L91.6983287,49.1077246 L90.0312888,49.1069276 L89.8376974,49.1069199 L89.1491285,49.1060316 L88.9261859,49.1053755 C86.8894479,49.0989818 82.2058399,49.0746748 80.484563,49.0697142 L80.1424841,49.0689299 L80.0156711,49.068827 L80.3849954,46.0463301 C82.0080349,45.963522 85.0338441,45.3043692 86.41674,45.1437214 C85.520756,43.1116098 82.5744425,36.6625122 81.9252267,35.4402641 C81.1590516,35.4402641 79.502948,35.4798683 77.7547828,35.5526614 L76.9443057,35.5885915 C75.0514977,35.6778181 73.1942796,35.8043915 72.3691679,35.9602992 C72.0429039,36.5300192 69.7159953,38.8105552 69.3102354,41.9059233 C70.4496753,42.1444108 72.6308416,42.614761 73.9309293,42.7787211 L73.4506422,45.862496 C73.2036965,45.8485961 72.8251978,45.842301 72.362582,45.8408664 L72.075298,45.840567 C71.3831868,45.8411268 70.5448009,45.8501374 69.6903044,45.8600686 L68.9569692,45.8686308 C68.2257604,45.8770672 67.5100383,45.8845992 66.891772,45.8864845 L66.5911397,45.8869347 C66.0076357,45.8868061 65.5352491,45.8802406 65.2559491,45.862496 L64.9559486,45.8627345 L64.7665547,45.8630774 C63.0200461,45.8668236 58.6165586,45.8918416 57.4435995,46.0254575 L57.3229297,46.0413616 L58.323252,42.7787211 C59.626652,42.614761 62.6209942,41.6873099 63.758778,41.4405416 C64.5615652,40.2962587 66.7312194,36.280861 68.8733652,32.192023 L69.2872561,31.4004692 C71.5576482,27.0501439 73.6949262,22.8211324 74.0170498,22.0882804 C72.9637303,21.8448245 71.1667938,20.995213 70.0306662,20.8312529 L69.8733307,18.5987456 Z M127.157514,7.81132977 C128.192616,7.90076256 133.035236,7.86929547 136.655608,7.95872825 C140.449876,7.95872825 145.964898,8.11275138 147.081152,7.94051046 L146.834384,10.2111095 C145.774108,10.2891858 141.27308,11.4170082 140.762139,11.5456473 L140.714862,11.5575698 C140.714862,11.5575698 140.367068,13.9176017 140.617149,17.321016 C140.688289,18.2842252 140.743068,19.5638675 140.784373,20.8322499 L140.800184,21.3382256 C140.863124,23.4374824 140.889707,25.3840938 140.8933,25.6609621 L140.893728,25.6945747 C141.032846,31.8803424 141.412107,36.8687045 141.067625,37.1320343 C140.656897,37.4417368 145.029166,37.7067228 146.236509,37.8806199 L146.705203,38.7037327 L146.655518,40.8203087 C146.175632,40.785178 144.929088,40.7667397 143.442454,40.7627175 L143.120407,40.7620755 L142.792161,40.7618697 C142.35088,40.7618841 141.896141,40.7630488 141.440224,40.7653106 L140.757003,40.7695197 C139.50844,40.7787206 138.297417,40.7960183 137.379351,40.8203087 L137.087346,40.8267334 L136.766167,40.8300607 L136.418333,40.8305918 C134.376508,40.8262476 131.17207,40.7017263 128.866866,40.7036489 L128.46982,40.7053509 C128.211905,40.7074276 127.968114,40.7114552 127.741807,40.7178352 L127.415876,40.7292197 L127.222105,37.6653187 C128.081653,37.5742298 133.464182,37.2082178 134.499284,37.0376331 C134.837141,35.4046566 134.674837,33.0760919 134.674837,31.0953213 L134.542344,27.4881989 C131.781521,27.4881989 113.547169,28.4371801 112.770429,28.5233006 L111.437218,28.6971977 C111.437218,33.3396058 111.66767,34.9846609 111.983475,36.6738696 L112.040061,36.9730427 C113.507421,37.2314041 118.76905,37.5742298 119.88696,37.749783 L119.82237,41.0919194 C119.431323,41.0658829 118.419035,41.0555895 117.127686,41.0538997 L116.51311,41.0537047 L116.193297,41.0540167 C113.605131,41.0575262 110.334981,41.0847444 108.535919,41.0907495 L108.318854,41.0913864 L107.409026,41.0913597 C105.821833,41.0882893 103.434915,41.0734546 101.212896,41.0687022 L100.822683,41.0679726 L100.437072,41.0674791 L99.319627,41.0676813 C97.8785149,41.069847 96.6609322,41.0802382 96.0061558,41.1065385 L95.8543832,41.1134495 L96.0912144,37.6653187 C97.4691418,37.5742298 102.684398,37.0657878 103.80562,36.8902346 C103.968451,34.7497196 104.055831,31.4321656 104.063438,27.9098645 L104.063982,22.8327255 C104.063982,21.2825572 103.976205,16.7976686 103.895053,15.2475003 C102.76555,15.0785717 97.55195,14.7274652 96.005094,14.6380324 L95.7252025,12.0312323 C95.9092206,12.0465427 96.2881637,12.0529023 96.8082186,12.0530099 L97.0097488,12.0527625 L97.2238775,12.0519605 C98.6185905,12.0451923 100.733378,12.0069639 102.847331,11.9734266 L103.514027,11.963034 C104.954831,11.9410372 106.35972,11.9230181 107.497781,11.9205562 L108.219881,11.9206071 C109.596904,11.9224747 111.476283,11.9316997 113.344543,11.9384232 L114.002632,11.9406763 C114.658586,11.9427934 115.30563,11.9444544 115.92119,11.9452259 L117.381431,11.9450505 C118.841185,11.9423516 119.94327,11.9307585 120.259597,11.9020517 L119.976393,14.6380324 C119.23518,14.6784214 117.721461,14.7877178 116.196748,14.9114626 L115.544846,14.9652218 C113.924511,15.1010376 112.416438,15.2445085 111.957253,15.3286523 L111.909769,15.5626399 C111.665212,16.7691108 111.437218,17.9942713 111.437218,21.8837443 L111.308037,24.0400681 L111.415728,24.0399875 C111.436806,24.0399604 111.459429,24.0399263 111.483567,24.0398852 L111.740906,24.0393181 C111.790345,24.0391901 111.842991,24.039045 111.898744,24.0388821 L112.075222,24.03834 C112.137088,24.0381412 112.201959,24.0379241 112.269736,24.0376882 L112.481683,24.0369235 C114.362018,24.02991 118.0786,24.0102009 121.944838,23.9683324 L122.838936,23.9582728 C128.061047,23.8972467 133.319255,23.7947457 134.499284,23.6276836 L134.499284,20.6515592 C134.499284,16.8556343 135.087222,12.7549755 134.656619,11.6320971 C134.150496,11.4951877 132.451582,11.2263741 130.727418,10.9917299 L130.081953,10.9056644 C128.797778,10.7380343 127.581492,10.6013015 126.925652,10.5655284 L127.157514,7.81132977 Z M77.7053242,22.8219605 C76.2445886,26.2319995 73.7586884,31.5963105 73.2717766,32.8997105 L81.2809794,32.8963982 C80.298875,30.3757186 78.5185,25.443666 77.7881323,23.3304024 L77.7053242,22.8219605 Z M170.520506,12.6044953 L170.960534,12.6049271 L170.960534,12.6049271 C176.33975,12.6049271 181.526852,13.4313523 185.716944,16.6939928 C189.456559,19.6088392 190.090869,21.0629501 190.774864,24.2560318 L191.135908,26.4140118 C191.540674,36.8379696 182.129003,42.0602207 169.828742,42.1690078 L169.435208,42.1707438 L169.435208,42.1707438 C164.234857,42.1707438 157.905003,41.1803585 152.504257,37.939248 C148.289323,35.4152561 147.590422,32.1310854 147.590422,28.0254581 C147.590422,19.6375115 156.63704,12.6638086 170.520506,12.6044953 Z M171.509708,16.6039813 L171.211524,16.6053038 C170.513455,16.6116607 169.799384,16.640816 169.072508,16.6906805 C164.564433,17.0020391 155.387636,19.3836011 155.387636,27.1344425 C155.387636,34.1200111 161.236979,38.1809082 169.382469,38.225097 L169.723184,38.2246108 C170.407232,38.2189777 171.106884,38.1853454 171.820082,38.1230821 C179.087324,37.4920841 182.898155,34.8173813 183.840511,31.0959837 L184.198242,27.1344425 C184.47959,19.2596882 178.939337,16.6061196 171.509708,16.6039813 Z M261.053466,38.1050299 C262.769251,38.1050299 264.218393,39.4663957 264.218393,41.271613 C264.218393,43.0113834 262.867469,44.3358409 261.229962,44.4251141 L261.053466,44.4299153 L261.053466,44.4299153 C259.326089,44.4299153 257.88854,43.073518 257.88854,41.271613 C257.88854,39.4663957 259.326089,38.1050299 261.053466,38.1050299 Z M247.296054,37.421366 L251.077074,37.8933723 L254.470551,38.0490516 L253.534819,44.3921548 L250.318551,44.1586359 L247.330834,43.9002745 L247.296054,37.421366 Z M261.053466,38.5670993 C259.602668,38.5670993 258.454947,39.7413187 258.454947,41.271613 C258.454947,42.8002512 259.602668,43.9711582 261.053466,43.9711582 C262.499297,43.9711582 263.660267,42.8002512 263.660267,41.271613 C263.660267,39.7413187 262.499297,38.5670993 261.053466,38.5670993 Z M261.242269,39.4167108 C262.116723,39.4167108 262.530764,39.7678173 262.530764,40.4733426 C262.530764,41.1424323 262.111754,41.4223238 261.55694,41.4786334 L262.61854,43.1116098 L262.012385,43.1116098 L261.012062,41.5216936 L260.410875,41.5216936 L260.410875,43.1116098 L259.852749,43.1116098 L259.852749,39.4167108 L261.242269,39.4167108 Z M261.149524,39.8738117 L260.410875,39.8738117 L260.410875,41.0629365 L260.988876,41.0629365 C261.489037,41.0629365 261.972637,41.0380941 261.972637,40.4435317 C261.972637,39.9350897 261.533754,39.8738117 261.149524,39.8738117 Z M248.331156,0.806920835 C248.52845,0.84549437 248.696932,0.876556318 248.854267,0.902810849 L248.986808,0.924200478 C249.988348,1.08012855 250.726509,1.06181933 256.21449,1.63665835 C259.267967,1.95707712 260.291504,2.13706591 261.192158,2.22846701 L261.398688,2.24801061 C261.604773,2.26602883 261.812125,2.27954175 262.044183,2.28918646 L260.325086,7.68662072 C258.886111,11.9512187 254.728319,30.7786059 254.183327,32.6477765 L254.164161,32.7112392 L254.164161,32.7112392 L248.584549,32.1630494 C248.874601,30.7917466 248.901254,24.9575584 248.846803,19.0609105 L248.837009,18.078312 C248.774109,12.1883057 248.640232,6.48030761 248.617672,5.35474363 L248.331156,0.806920835 Z M220.715636,6.6197207 C226.855032,6.6197207 232.784094,7.55379647 237.560467,11.2867872 C241.833367,14.6123619 242.583609,17.7756327 243.362005,21.422503 L243.502779,22.1379653 C244.232402,31.8985105 233.081786,40.0293578 219.019449,40.1909987 L218.592436,40.1934511 L218.592436,40.1934511 C212.665029,40.1934511 207.607109,39.469708 201.755886,35.6009119 C196.941421,32.416111 194.645979,29.6552878 194.043136,24.2263864 C192.987233,14.6986646 204.350472,6.677277 220.232973,6.61904132 L220.715636,6.6197207 L220.715636,6.6197207 Z M219.971007,11.2072527 L219.648147,11.2094878 C219.001427,11.2171106 218.348869,11.2436166 217.693139,11.2884434 C212.547442,11.6395499 202.930105,14.6852331 202.930105,23.5357666 C202.930105,31.4762101 209.566847,35.8388215 218.815247,35.8746323 L219.167699,35.8739108 C219.992979,35.8673672 220.838364,35.8267782 221.701053,35.7516227 C229.996772,35.0278796 233.449871,31.9060129 235.341209,27.6712049 C235.341209,27.6712049 235.884431,26.4141774 236.063296,23.5357666 C236.605505,14.802379 228.88935,11.189093 219.971007,11.2072527 Z" id="yahoo" fill="#231F20"></path>
    </g>
</svg>